G75*
%MOIN*%
%OFA0B0*%
%FSLAX25Y25*%
%IPPOS*%
%LPD*%
%AMOC8*
5,1,8,0,0,1.08239X$1,22.5*
%
%ADD10C,0.00000*%
%ADD11C,0.00512*%
%ADD12C,0.00400*%
%ADD13OC8,0.06000*%
%ADD14R,0.06900X0.06900*%
%ADD15C,0.06900*%
%ADD16OC8,0.07000*%
%ADD17R,0.07900X0.07900*%
%ADD18C,0.07900*%
%ADD19C,0.05600*%
%ADD20OC8,0.05600*%
%ADD21C,0.04294*%
%ADD22C,0.06400*%
%ADD23C,0.07800*%
%ADD24C,0.08077*%
%ADD25R,0.08000X0.08000*%
%ADD26OC8,0.08000*%
%ADD27R,0.08200X0.02500*%
%ADD28C,0.07000*%
%ADD29C,0.13400*%
D10*
X0019428Y0012433D02*
X0019428Y0207394D01*
X0328129Y0207394D01*
X0328129Y0012433D01*
X0019428Y0012433D01*
X0157928Y0186433D02*
X0157930Y0186594D01*
X0157936Y0186754D01*
X0157946Y0186915D01*
X0157960Y0187075D01*
X0157978Y0187235D01*
X0157999Y0187394D01*
X0158025Y0187553D01*
X0158055Y0187711D01*
X0158088Y0187868D01*
X0158126Y0188025D01*
X0158167Y0188180D01*
X0158212Y0188334D01*
X0158261Y0188487D01*
X0158314Y0188639D01*
X0158370Y0188790D01*
X0158431Y0188939D01*
X0158494Y0189087D01*
X0158562Y0189233D01*
X0158633Y0189377D01*
X0158707Y0189519D01*
X0158785Y0189660D01*
X0158867Y0189798D01*
X0158952Y0189935D01*
X0159040Y0190069D01*
X0159132Y0190201D01*
X0159227Y0190331D01*
X0159325Y0190459D01*
X0159426Y0190584D01*
X0159530Y0190706D01*
X0159637Y0190826D01*
X0159747Y0190943D01*
X0159860Y0191058D01*
X0159976Y0191169D01*
X0160095Y0191278D01*
X0160216Y0191383D01*
X0160340Y0191486D01*
X0160466Y0191586D01*
X0160594Y0191682D01*
X0160725Y0191775D01*
X0160859Y0191865D01*
X0160994Y0191952D01*
X0161132Y0192035D01*
X0161271Y0192115D01*
X0161413Y0192191D01*
X0161556Y0192264D01*
X0161701Y0192333D01*
X0161848Y0192399D01*
X0161996Y0192461D01*
X0162146Y0192519D01*
X0162297Y0192574D01*
X0162450Y0192625D01*
X0162604Y0192672D01*
X0162759Y0192715D01*
X0162915Y0192754D01*
X0163071Y0192790D01*
X0163229Y0192821D01*
X0163387Y0192849D01*
X0163546Y0192873D01*
X0163706Y0192893D01*
X0163866Y0192909D01*
X0164026Y0192921D01*
X0164187Y0192929D01*
X0164348Y0192933D01*
X0164508Y0192933D01*
X0164669Y0192929D01*
X0164830Y0192921D01*
X0164990Y0192909D01*
X0165150Y0192893D01*
X0165310Y0192873D01*
X0165469Y0192849D01*
X0165627Y0192821D01*
X0165785Y0192790D01*
X0165941Y0192754D01*
X0166097Y0192715D01*
X0166252Y0192672D01*
X0166406Y0192625D01*
X0166559Y0192574D01*
X0166710Y0192519D01*
X0166860Y0192461D01*
X0167008Y0192399D01*
X0167155Y0192333D01*
X0167300Y0192264D01*
X0167443Y0192191D01*
X0167585Y0192115D01*
X0167724Y0192035D01*
X0167862Y0191952D01*
X0167997Y0191865D01*
X0168131Y0191775D01*
X0168262Y0191682D01*
X0168390Y0191586D01*
X0168516Y0191486D01*
X0168640Y0191383D01*
X0168761Y0191278D01*
X0168880Y0191169D01*
X0168996Y0191058D01*
X0169109Y0190943D01*
X0169219Y0190826D01*
X0169326Y0190706D01*
X0169430Y0190584D01*
X0169531Y0190459D01*
X0169629Y0190331D01*
X0169724Y0190201D01*
X0169816Y0190069D01*
X0169904Y0189935D01*
X0169989Y0189798D01*
X0170071Y0189660D01*
X0170149Y0189519D01*
X0170223Y0189377D01*
X0170294Y0189233D01*
X0170362Y0189087D01*
X0170425Y0188939D01*
X0170486Y0188790D01*
X0170542Y0188639D01*
X0170595Y0188487D01*
X0170644Y0188334D01*
X0170689Y0188180D01*
X0170730Y0188025D01*
X0170768Y0187868D01*
X0170801Y0187711D01*
X0170831Y0187553D01*
X0170857Y0187394D01*
X0170878Y0187235D01*
X0170896Y0187075D01*
X0170910Y0186915D01*
X0170920Y0186754D01*
X0170926Y0186594D01*
X0170928Y0186433D01*
X0170926Y0186272D01*
X0170920Y0186112D01*
X0170910Y0185951D01*
X0170896Y0185791D01*
X0170878Y0185631D01*
X0170857Y0185472D01*
X0170831Y0185313D01*
X0170801Y0185155D01*
X0170768Y0184998D01*
X0170730Y0184841D01*
X0170689Y0184686D01*
X0170644Y0184532D01*
X0170595Y0184379D01*
X0170542Y0184227D01*
X0170486Y0184076D01*
X0170425Y0183927D01*
X0170362Y0183779D01*
X0170294Y0183633D01*
X0170223Y0183489D01*
X0170149Y0183347D01*
X0170071Y0183206D01*
X0169989Y0183068D01*
X0169904Y0182931D01*
X0169816Y0182797D01*
X0169724Y0182665D01*
X0169629Y0182535D01*
X0169531Y0182407D01*
X0169430Y0182282D01*
X0169326Y0182160D01*
X0169219Y0182040D01*
X0169109Y0181923D01*
X0168996Y0181808D01*
X0168880Y0181697D01*
X0168761Y0181588D01*
X0168640Y0181483D01*
X0168516Y0181380D01*
X0168390Y0181280D01*
X0168262Y0181184D01*
X0168131Y0181091D01*
X0167997Y0181001D01*
X0167862Y0180914D01*
X0167724Y0180831D01*
X0167585Y0180751D01*
X0167443Y0180675D01*
X0167300Y0180602D01*
X0167155Y0180533D01*
X0167008Y0180467D01*
X0166860Y0180405D01*
X0166710Y0180347D01*
X0166559Y0180292D01*
X0166406Y0180241D01*
X0166252Y0180194D01*
X0166097Y0180151D01*
X0165941Y0180112D01*
X0165785Y0180076D01*
X0165627Y0180045D01*
X0165469Y0180017D01*
X0165310Y0179993D01*
X0165150Y0179973D01*
X0164990Y0179957D01*
X0164830Y0179945D01*
X0164669Y0179937D01*
X0164508Y0179933D01*
X0164348Y0179933D01*
X0164187Y0179937D01*
X0164026Y0179945D01*
X0163866Y0179957D01*
X0163706Y0179973D01*
X0163546Y0179993D01*
X0163387Y0180017D01*
X0163229Y0180045D01*
X0163071Y0180076D01*
X0162915Y0180112D01*
X0162759Y0180151D01*
X0162604Y0180194D01*
X0162450Y0180241D01*
X0162297Y0180292D01*
X0162146Y0180347D01*
X0161996Y0180405D01*
X0161848Y0180467D01*
X0161701Y0180533D01*
X0161556Y0180602D01*
X0161413Y0180675D01*
X0161271Y0180751D01*
X0161132Y0180831D01*
X0160994Y0180914D01*
X0160859Y0181001D01*
X0160725Y0181091D01*
X0160594Y0181184D01*
X0160466Y0181280D01*
X0160340Y0181380D01*
X0160216Y0181483D01*
X0160095Y0181588D01*
X0159976Y0181697D01*
X0159860Y0181808D01*
X0159747Y0181923D01*
X0159637Y0182040D01*
X0159530Y0182160D01*
X0159426Y0182282D01*
X0159325Y0182407D01*
X0159227Y0182535D01*
X0159132Y0182665D01*
X0159040Y0182797D01*
X0158952Y0182931D01*
X0158867Y0183068D01*
X0158785Y0183206D01*
X0158707Y0183347D01*
X0158633Y0183489D01*
X0158562Y0183633D01*
X0158494Y0183779D01*
X0158431Y0183927D01*
X0158370Y0184076D01*
X0158314Y0184227D01*
X0158261Y0184379D01*
X0158212Y0184532D01*
X0158167Y0184686D01*
X0158126Y0184841D01*
X0158088Y0184998D01*
X0158055Y0185155D01*
X0158025Y0185313D01*
X0157999Y0185472D01*
X0157978Y0185631D01*
X0157960Y0185791D01*
X0157946Y0185951D01*
X0157936Y0186112D01*
X0157930Y0186272D01*
X0157928Y0186433D01*
X0202928Y0186433D02*
X0202930Y0186594D01*
X0202936Y0186754D01*
X0202946Y0186915D01*
X0202960Y0187075D01*
X0202978Y0187235D01*
X0202999Y0187394D01*
X0203025Y0187553D01*
X0203055Y0187711D01*
X0203088Y0187868D01*
X0203126Y0188025D01*
X0203167Y0188180D01*
X0203212Y0188334D01*
X0203261Y0188487D01*
X0203314Y0188639D01*
X0203370Y0188790D01*
X0203431Y0188939D01*
X0203494Y0189087D01*
X0203562Y0189233D01*
X0203633Y0189377D01*
X0203707Y0189519D01*
X0203785Y0189660D01*
X0203867Y0189798D01*
X0203952Y0189935D01*
X0204040Y0190069D01*
X0204132Y0190201D01*
X0204227Y0190331D01*
X0204325Y0190459D01*
X0204426Y0190584D01*
X0204530Y0190706D01*
X0204637Y0190826D01*
X0204747Y0190943D01*
X0204860Y0191058D01*
X0204976Y0191169D01*
X0205095Y0191278D01*
X0205216Y0191383D01*
X0205340Y0191486D01*
X0205466Y0191586D01*
X0205594Y0191682D01*
X0205725Y0191775D01*
X0205859Y0191865D01*
X0205994Y0191952D01*
X0206132Y0192035D01*
X0206271Y0192115D01*
X0206413Y0192191D01*
X0206556Y0192264D01*
X0206701Y0192333D01*
X0206848Y0192399D01*
X0206996Y0192461D01*
X0207146Y0192519D01*
X0207297Y0192574D01*
X0207450Y0192625D01*
X0207604Y0192672D01*
X0207759Y0192715D01*
X0207915Y0192754D01*
X0208071Y0192790D01*
X0208229Y0192821D01*
X0208387Y0192849D01*
X0208546Y0192873D01*
X0208706Y0192893D01*
X0208866Y0192909D01*
X0209026Y0192921D01*
X0209187Y0192929D01*
X0209348Y0192933D01*
X0209508Y0192933D01*
X0209669Y0192929D01*
X0209830Y0192921D01*
X0209990Y0192909D01*
X0210150Y0192893D01*
X0210310Y0192873D01*
X0210469Y0192849D01*
X0210627Y0192821D01*
X0210785Y0192790D01*
X0210941Y0192754D01*
X0211097Y0192715D01*
X0211252Y0192672D01*
X0211406Y0192625D01*
X0211559Y0192574D01*
X0211710Y0192519D01*
X0211860Y0192461D01*
X0212008Y0192399D01*
X0212155Y0192333D01*
X0212300Y0192264D01*
X0212443Y0192191D01*
X0212585Y0192115D01*
X0212724Y0192035D01*
X0212862Y0191952D01*
X0212997Y0191865D01*
X0213131Y0191775D01*
X0213262Y0191682D01*
X0213390Y0191586D01*
X0213516Y0191486D01*
X0213640Y0191383D01*
X0213761Y0191278D01*
X0213880Y0191169D01*
X0213996Y0191058D01*
X0214109Y0190943D01*
X0214219Y0190826D01*
X0214326Y0190706D01*
X0214430Y0190584D01*
X0214531Y0190459D01*
X0214629Y0190331D01*
X0214724Y0190201D01*
X0214816Y0190069D01*
X0214904Y0189935D01*
X0214989Y0189798D01*
X0215071Y0189660D01*
X0215149Y0189519D01*
X0215223Y0189377D01*
X0215294Y0189233D01*
X0215362Y0189087D01*
X0215425Y0188939D01*
X0215486Y0188790D01*
X0215542Y0188639D01*
X0215595Y0188487D01*
X0215644Y0188334D01*
X0215689Y0188180D01*
X0215730Y0188025D01*
X0215768Y0187868D01*
X0215801Y0187711D01*
X0215831Y0187553D01*
X0215857Y0187394D01*
X0215878Y0187235D01*
X0215896Y0187075D01*
X0215910Y0186915D01*
X0215920Y0186754D01*
X0215926Y0186594D01*
X0215928Y0186433D01*
X0215926Y0186272D01*
X0215920Y0186112D01*
X0215910Y0185951D01*
X0215896Y0185791D01*
X0215878Y0185631D01*
X0215857Y0185472D01*
X0215831Y0185313D01*
X0215801Y0185155D01*
X0215768Y0184998D01*
X0215730Y0184841D01*
X0215689Y0184686D01*
X0215644Y0184532D01*
X0215595Y0184379D01*
X0215542Y0184227D01*
X0215486Y0184076D01*
X0215425Y0183927D01*
X0215362Y0183779D01*
X0215294Y0183633D01*
X0215223Y0183489D01*
X0215149Y0183347D01*
X0215071Y0183206D01*
X0214989Y0183068D01*
X0214904Y0182931D01*
X0214816Y0182797D01*
X0214724Y0182665D01*
X0214629Y0182535D01*
X0214531Y0182407D01*
X0214430Y0182282D01*
X0214326Y0182160D01*
X0214219Y0182040D01*
X0214109Y0181923D01*
X0213996Y0181808D01*
X0213880Y0181697D01*
X0213761Y0181588D01*
X0213640Y0181483D01*
X0213516Y0181380D01*
X0213390Y0181280D01*
X0213262Y0181184D01*
X0213131Y0181091D01*
X0212997Y0181001D01*
X0212862Y0180914D01*
X0212724Y0180831D01*
X0212585Y0180751D01*
X0212443Y0180675D01*
X0212300Y0180602D01*
X0212155Y0180533D01*
X0212008Y0180467D01*
X0211860Y0180405D01*
X0211710Y0180347D01*
X0211559Y0180292D01*
X0211406Y0180241D01*
X0211252Y0180194D01*
X0211097Y0180151D01*
X0210941Y0180112D01*
X0210785Y0180076D01*
X0210627Y0180045D01*
X0210469Y0180017D01*
X0210310Y0179993D01*
X0210150Y0179973D01*
X0209990Y0179957D01*
X0209830Y0179945D01*
X0209669Y0179937D01*
X0209508Y0179933D01*
X0209348Y0179933D01*
X0209187Y0179937D01*
X0209026Y0179945D01*
X0208866Y0179957D01*
X0208706Y0179973D01*
X0208546Y0179993D01*
X0208387Y0180017D01*
X0208229Y0180045D01*
X0208071Y0180076D01*
X0207915Y0180112D01*
X0207759Y0180151D01*
X0207604Y0180194D01*
X0207450Y0180241D01*
X0207297Y0180292D01*
X0207146Y0180347D01*
X0206996Y0180405D01*
X0206848Y0180467D01*
X0206701Y0180533D01*
X0206556Y0180602D01*
X0206413Y0180675D01*
X0206271Y0180751D01*
X0206132Y0180831D01*
X0205994Y0180914D01*
X0205859Y0181001D01*
X0205725Y0181091D01*
X0205594Y0181184D01*
X0205466Y0181280D01*
X0205340Y0181380D01*
X0205216Y0181483D01*
X0205095Y0181588D01*
X0204976Y0181697D01*
X0204860Y0181808D01*
X0204747Y0181923D01*
X0204637Y0182040D01*
X0204530Y0182160D01*
X0204426Y0182282D01*
X0204325Y0182407D01*
X0204227Y0182535D01*
X0204132Y0182665D01*
X0204040Y0182797D01*
X0203952Y0182931D01*
X0203867Y0183068D01*
X0203785Y0183206D01*
X0203707Y0183347D01*
X0203633Y0183489D01*
X0203562Y0183633D01*
X0203494Y0183779D01*
X0203431Y0183927D01*
X0203370Y0184076D01*
X0203314Y0184227D01*
X0203261Y0184379D01*
X0203212Y0184532D01*
X0203167Y0184686D01*
X0203126Y0184841D01*
X0203088Y0184998D01*
X0203055Y0185155D01*
X0203025Y0185313D01*
X0202999Y0185472D01*
X0202978Y0185631D01*
X0202960Y0185791D01*
X0202946Y0185951D01*
X0202936Y0186112D01*
X0202930Y0186272D01*
X0202928Y0186433D01*
X0247928Y0186433D02*
X0247930Y0186594D01*
X0247936Y0186754D01*
X0247946Y0186915D01*
X0247960Y0187075D01*
X0247978Y0187235D01*
X0247999Y0187394D01*
X0248025Y0187553D01*
X0248055Y0187711D01*
X0248088Y0187868D01*
X0248126Y0188025D01*
X0248167Y0188180D01*
X0248212Y0188334D01*
X0248261Y0188487D01*
X0248314Y0188639D01*
X0248370Y0188790D01*
X0248431Y0188939D01*
X0248494Y0189087D01*
X0248562Y0189233D01*
X0248633Y0189377D01*
X0248707Y0189519D01*
X0248785Y0189660D01*
X0248867Y0189798D01*
X0248952Y0189935D01*
X0249040Y0190069D01*
X0249132Y0190201D01*
X0249227Y0190331D01*
X0249325Y0190459D01*
X0249426Y0190584D01*
X0249530Y0190706D01*
X0249637Y0190826D01*
X0249747Y0190943D01*
X0249860Y0191058D01*
X0249976Y0191169D01*
X0250095Y0191278D01*
X0250216Y0191383D01*
X0250340Y0191486D01*
X0250466Y0191586D01*
X0250594Y0191682D01*
X0250725Y0191775D01*
X0250859Y0191865D01*
X0250994Y0191952D01*
X0251132Y0192035D01*
X0251271Y0192115D01*
X0251413Y0192191D01*
X0251556Y0192264D01*
X0251701Y0192333D01*
X0251848Y0192399D01*
X0251996Y0192461D01*
X0252146Y0192519D01*
X0252297Y0192574D01*
X0252450Y0192625D01*
X0252604Y0192672D01*
X0252759Y0192715D01*
X0252915Y0192754D01*
X0253071Y0192790D01*
X0253229Y0192821D01*
X0253387Y0192849D01*
X0253546Y0192873D01*
X0253706Y0192893D01*
X0253866Y0192909D01*
X0254026Y0192921D01*
X0254187Y0192929D01*
X0254348Y0192933D01*
X0254508Y0192933D01*
X0254669Y0192929D01*
X0254830Y0192921D01*
X0254990Y0192909D01*
X0255150Y0192893D01*
X0255310Y0192873D01*
X0255469Y0192849D01*
X0255627Y0192821D01*
X0255785Y0192790D01*
X0255941Y0192754D01*
X0256097Y0192715D01*
X0256252Y0192672D01*
X0256406Y0192625D01*
X0256559Y0192574D01*
X0256710Y0192519D01*
X0256860Y0192461D01*
X0257008Y0192399D01*
X0257155Y0192333D01*
X0257300Y0192264D01*
X0257443Y0192191D01*
X0257585Y0192115D01*
X0257724Y0192035D01*
X0257862Y0191952D01*
X0257997Y0191865D01*
X0258131Y0191775D01*
X0258262Y0191682D01*
X0258390Y0191586D01*
X0258516Y0191486D01*
X0258640Y0191383D01*
X0258761Y0191278D01*
X0258880Y0191169D01*
X0258996Y0191058D01*
X0259109Y0190943D01*
X0259219Y0190826D01*
X0259326Y0190706D01*
X0259430Y0190584D01*
X0259531Y0190459D01*
X0259629Y0190331D01*
X0259724Y0190201D01*
X0259816Y0190069D01*
X0259904Y0189935D01*
X0259989Y0189798D01*
X0260071Y0189660D01*
X0260149Y0189519D01*
X0260223Y0189377D01*
X0260294Y0189233D01*
X0260362Y0189087D01*
X0260425Y0188939D01*
X0260486Y0188790D01*
X0260542Y0188639D01*
X0260595Y0188487D01*
X0260644Y0188334D01*
X0260689Y0188180D01*
X0260730Y0188025D01*
X0260768Y0187868D01*
X0260801Y0187711D01*
X0260831Y0187553D01*
X0260857Y0187394D01*
X0260878Y0187235D01*
X0260896Y0187075D01*
X0260910Y0186915D01*
X0260920Y0186754D01*
X0260926Y0186594D01*
X0260928Y0186433D01*
X0260926Y0186272D01*
X0260920Y0186112D01*
X0260910Y0185951D01*
X0260896Y0185791D01*
X0260878Y0185631D01*
X0260857Y0185472D01*
X0260831Y0185313D01*
X0260801Y0185155D01*
X0260768Y0184998D01*
X0260730Y0184841D01*
X0260689Y0184686D01*
X0260644Y0184532D01*
X0260595Y0184379D01*
X0260542Y0184227D01*
X0260486Y0184076D01*
X0260425Y0183927D01*
X0260362Y0183779D01*
X0260294Y0183633D01*
X0260223Y0183489D01*
X0260149Y0183347D01*
X0260071Y0183206D01*
X0259989Y0183068D01*
X0259904Y0182931D01*
X0259816Y0182797D01*
X0259724Y0182665D01*
X0259629Y0182535D01*
X0259531Y0182407D01*
X0259430Y0182282D01*
X0259326Y0182160D01*
X0259219Y0182040D01*
X0259109Y0181923D01*
X0258996Y0181808D01*
X0258880Y0181697D01*
X0258761Y0181588D01*
X0258640Y0181483D01*
X0258516Y0181380D01*
X0258390Y0181280D01*
X0258262Y0181184D01*
X0258131Y0181091D01*
X0257997Y0181001D01*
X0257862Y0180914D01*
X0257724Y0180831D01*
X0257585Y0180751D01*
X0257443Y0180675D01*
X0257300Y0180602D01*
X0257155Y0180533D01*
X0257008Y0180467D01*
X0256860Y0180405D01*
X0256710Y0180347D01*
X0256559Y0180292D01*
X0256406Y0180241D01*
X0256252Y0180194D01*
X0256097Y0180151D01*
X0255941Y0180112D01*
X0255785Y0180076D01*
X0255627Y0180045D01*
X0255469Y0180017D01*
X0255310Y0179993D01*
X0255150Y0179973D01*
X0254990Y0179957D01*
X0254830Y0179945D01*
X0254669Y0179937D01*
X0254508Y0179933D01*
X0254348Y0179933D01*
X0254187Y0179937D01*
X0254026Y0179945D01*
X0253866Y0179957D01*
X0253706Y0179973D01*
X0253546Y0179993D01*
X0253387Y0180017D01*
X0253229Y0180045D01*
X0253071Y0180076D01*
X0252915Y0180112D01*
X0252759Y0180151D01*
X0252604Y0180194D01*
X0252450Y0180241D01*
X0252297Y0180292D01*
X0252146Y0180347D01*
X0251996Y0180405D01*
X0251848Y0180467D01*
X0251701Y0180533D01*
X0251556Y0180602D01*
X0251413Y0180675D01*
X0251271Y0180751D01*
X0251132Y0180831D01*
X0250994Y0180914D01*
X0250859Y0181001D01*
X0250725Y0181091D01*
X0250594Y0181184D01*
X0250466Y0181280D01*
X0250340Y0181380D01*
X0250216Y0181483D01*
X0250095Y0181588D01*
X0249976Y0181697D01*
X0249860Y0181808D01*
X0249747Y0181923D01*
X0249637Y0182040D01*
X0249530Y0182160D01*
X0249426Y0182282D01*
X0249325Y0182407D01*
X0249227Y0182535D01*
X0249132Y0182665D01*
X0249040Y0182797D01*
X0248952Y0182931D01*
X0248867Y0183068D01*
X0248785Y0183206D01*
X0248707Y0183347D01*
X0248633Y0183489D01*
X0248562Y0183633D01*
X0248494Y0183779D01*
X0248431Y0183927D01*
X0248370Y0184076D01*
X0248314Y0184227D01*
X0248261Y0184379D01*
X0248212Y0184532D01*
X0248167Y0184686D01*
X0248126Y0184841D01*
X0248088Y0184998D01*
X0248055Y0185155D01*
X0248025Y0185313D01*
X0247999Y0185472D01*
X0247978Y0185631D01*
X0247960Y0185791D01*
X0247946Y0185951D01*
X0247936Y0186112D01*
X0247930Y0186272D01*
X0247928Y0186433D01*
D11*
X0019428Y0012433D02*
X0001751Y0012433D01*
X0009428Y0012689D02*
X0010452Y0022670D01*
X0010685Y0022670D02*
X0009428Y0012689D01*
X0008405Y0022670D01*
X0008172Y0022670D02*
X0010685Y0022670D01*
X0009940Y0022670D02*
X0009428Y0012689D01*
X0008917Y0022670D01*
X0008172Y0022670D02*
X0009428Y0012689D01*
X0009428Y0207138D01*
X0010452Y0197158D01*
X0010685Y0197158D02*
X0009428Y0207138D01*
X0008405Y0197158D01*
X0008172Y0197158D02*
X0010685Y0197158D01*
X0009940Y0197158D02*
X0009428Y0207138D01*
X0008917Y0197158D01*
X0008172Y0197158D02*
X0009428Y0207138D01*
X0001751Y0207394D02*
X0019428Y0207394D01*
X0019428Y0202433D02*
X0019428Y0230110D01*
X0019684Y0222433D02*
X0029665Y0223457D01*
X0029665Y0223690D02*
X0029665Y0221176D01*
X0019684Y0222433D01*
X0029665Y0221410D01*
X0029665Y0221922D02*
X0019684Y0222433D01*
X0029665Y0222945D01*
X0029665Y0223690D02*
X0019684Y0222433D01*
X0327873Y0222433D01*
X0317893Y0221410D01*
X0317893Y0221176D02*
X0327873Y0222433D01*
X0317893Y0223457D01*
X0317893Y0223690D02*
X0317893Y0221176D01*
X0317893Y0221922D02*
X0327873Y0222433D01*
X0317893Y0222945D01*
X0317893Y0223690D02*
X0327873Y0222433D01*
X0328129Y0230110D02*
X0328129Y0207394D01*
D12*
X0187435Y0224395D02*
X0187435Y0226697D01*
X0186667Y0227464D01*
X0185900Y0226697D01*
X0185900Y0224395D01*
X0184365Y0224395D02*
X0184365Y0227464D01*
X0185133Y0227464D01*
X0185900Y0226697D01*
X0182831Y0226697D02*
X0182831Y0224395D01*
X0181296Y0224395D02*
X0181296Y0226697D01*
X0182063Y0227464D01*
X0182831Y0226697D01*
X0181296Y0226697D02*
X0180529Y0227464D01*
X0179761Y0227464D01*
X0179761Y0224395D01*
X0178227Y0224395D02*
X0175158Y0224395D01*
X0176692Y0224395D02*
X0176692Y0228999D01*
X0175158Y0227464D01*
X0173623Y0226697D02*
X0170554Y0226697D01*
X0172856Y0228999D01*
X0172856Y0224395D01*
X0169019Y0224395D02*
X0169019Y0225162D01*
X0168252Y0225162D01*
X0168252Y0224395D01*
X0169019Y0224395D01*
X0166717Y0225162D02*
X0165950Y0224395D01*
X0164415Y0224395D01*
X0163648Y0225162D01*
X0163648Y0225930D01*
X0164415Y0226697D01*
X0165950Y0226697D01*
X0166717Y0225930D01*
X0166717Y0225162D01*
X0165950Y0226697D02*
X0166717Y0227464D01*
X0166717Y0228232D01*
X0165950Y0228999D01*
X0164415Y0228999D01*
X0163648Y0228232D01*
X0163648Y0227464D01*
X0164415Y0226697D01*
X0162113Y0228232D02*
X0159044Y0225162D01*
X0159044Y0224395D01*
X0159044Y0228999D02*
X0162113Y0228999D01*
X0162113Y0228232D01*
X0007467Y0123569D02*
X0005165Y0123569D01*
X0004397Y0122802D01*
X0005165Y0122035D01*
X0007467Y0122035D01*
X0007467Y0120500D02*
X0004397Y0120500D01*
X0004397Y0121268D01*
X0005165Y0122035D01*
X0005165Y0118966D02*
X0007467Y0118966D01*
X0007467Y0117431D02*
X0005165Y0117431D01*
X0004397Y0118198D01*
X0005165Y0118966D01*
X0005165Y0117431D02*
X0004397Y0116664D01*
X0004397Y0115896D01*
X0007467Y0115896D01*
X0007467Y0114362D02*
X0007467Y0111292D01*
X0004397Y0114362D01*
X0003630Y0114362D01*
X0002863Y0113594D01*
X0002863Y0112060D01*
X0003630Y0111292D01*
X0002863Y0109758D02*
X0002863Y0106688D01*
X0005165Y0106688D01*
X0004397Y0108223D01*
X0004397Y0108990D01*
X0005165Y0109758D01*
X0006699Y0109758D01*
X0007467Y0108990D01*
X0007467Y0107456D01*
X0006699Y0106688D01*
X0006699Y0105154D02*
X0007467Y0105154D01*
X0007467Y0104386D01*
X0006699Y0104386D01*
X0006699Y0105154D01*
X0006699Y0102852D02*
X0003630Y0102852D01*
X0002863Y0102084D01*
X0002863Y0100550D01*
X0003630Y0099783D01*
X0004397Y0099783D01*
X0005165Y0100550D01*
X0005165Y0102852D01*
X0006699Y0102852D02*
X0007467Y0102084D01*
X0007467Y0100550D01*
X0006699Y0099783D01*
X0005165Y0098248D02*
X0005165Y0095179D01*
X0002863Y0097481D01*
X0007467Y0097481D01*
D13*
X0094428Y0087433D03*
X0104428Y0087433D03*
X0104428Y0062433D03*
X0094428Y0062433D03*
X0119428Y0127433D03*
X0129428Y0127433D03*
D14*
X0314428Y0102433D03*
D15*
X0314428Y0112433D03*
D16*
X0069428Y0027433D03*
X0069428Y0017433D03*
D17*
X0184428Y0023133D03*
D18*
X0194428Y0023133D03*
X0204428Y0023133D03*
D19*
X0067028Y0072433D02*
X0061828Y0072433D01*
X0061828Y0082433D02*
X0067028Y0082433D01*
X0067028Y0092433D02*
X0061828Y0092433D01*
X0061828Y0102433D02*
X0067028Y0102433D01*
X0067028Y0112433D02*
X0061828Y0112433D01*
X0061828Y0122433D02*
X0067028Y0122433D01*
X0067028Y0132433D02*
X0061828Y0132433D01*
X0037028Y0132433D02*
X0031828Y0132433D01*
X0031828Y0122433D02*
X0037028Y0122433D01*
X0037028Y0112433D02*
X0031828Y0112433D01*
X0031828Y0102433D02*
X0037028Y0102433D01*
X0037028Y0092433D02*
X0031828Y0092433D01*
X0031828Y0082433D02*
X0037028Y0082433D01*
X0037028Y0072433D02*
X0031828Y0072433D01*
X0039428Y0055033D02*
X0039428Y0049833D01*
X0049428Y0049833D02*
X0049428Y0055033D01*
X0049428Y0025033D02*
X0049428Y0019833D01*
X0039428Y0019833D02*
X0039428Y0025033D01*
D20*
X0079428Y0037433D03*
X0114428Y0057433D03*
X0114578Y0072833D03*
X0114428Y0087433D03*
X0114428Y0102433D03*
X0079428Y0087433D03*
X0164428Y0087433D03*
X0164578Y0072833D03*
X0179428Y0062433D03*
X0189428Y0062433D03*
X0199428Y0062433D03*
X0209428Y0062433D03*
X0164428Y0057433D03*
X0164428Y0102433D03*
X0179428Y0102433D03*
X0189428Y0102433D03*
X0199428Y0102433D03*
X0209428Y0102433D03*
D21*
X0134450Y0151864D02*
X0132438Y0151864D01*
X0134450Y0151864D02*
X0134450Y0151822D01*
X0132438Y0151822D01*
X0132438Y0151864D01*
X0132438Y0157769D02*
X0134450Y0157769D01*
X0134450Y0157727D01*
X0132438Y0157727D01*
X0132438Y0157769D01*
X0132438Y0163675D02*
X0134450Y0163675D01*
X0134450Y0163633D01*
X0132438Y0163633D01*
X0132438Y0163675D01*
X0132438Y0169580D02*
X0134450Y0169580D01*
X0134450Y0169538D01*
X0132438Y0169538D01*
X0132438Y0169580D01*
X0132438Y0175486D02*
X0134450Y0175486D01*
X0134450Y0175444D01*
X0132438Y0175444D01*
X0132438Y0175486D01*
X0132438Y0181391D02*
X0134450Y0181391D01*
X0134450Y0181349D01*
X0132438Y0181349D01*
X0132438Y0181391D01*
X0132438Y0187297D02*
X0134450Y0187297D01*
X0134450Y0187255D01*
X0132438Y0187255D01*
X0132438Y0187297D01*
X0132438Y0193202D02*
X0134450Y0193202D01*
X0134450Y0193160D01*
X0132438Y0193160D01*
X0132438Y0193202D01*
X0125274Y0198081D02*
X0125274Y0200093D01*
X0125316Y0200093D01*
X0125316Y0198081D01*
X0125274Y0198081D01*
X0119368Y0198081D02*
X0119368Y0200093D01*
X0119410Y0200093D01*
X0119410Y0198081D01*
X0119368Y0198081D01*
X0113463Y0198081D02*
X0113463Y0200093D01*
X0113505Y0200093D01*
X0113505Y0198081D01*
X0113463Y0198081D01*
X0107557Y0198081D02*
X0107557Y0200093D01*
X0107599Y0200093D01*
X0107599Y0198081D01*
X0107557Y0198081D01*
X0101652Y0198081D02*
X0101652Y0200093D01*
X0101694Y0200093D01*
X0101694Y0198081D01*
X0101652Y0198081D01*
X0095746Y0198081D02*
X0095746Y0200093D01*
X0095788Y0200093D01*
X0095788Y0198081D01*
X0095746Y0198081D01*
X0089841Y0198081D02*
X0089841Y0200093D01*
X0089883Y0200093D01*
X0089883Y0198081D01*
X0089841Y0198081D01*
X0083935Y0198081D02*
X0083935Y0200093D01*
X0083977Y0200093D01*
X0083977Y0198081D01*
X0083935Y0198081D01*
X0078030Y0198081D02*
X0078030Y0200093D01*
X0078072Y0200093D01*
X0078072Y0198081D01*
X0078030Y0198081D01*
X0072124Y0198081D02*
X0072124Y0200093D01*
X0072166Y0200093D01*
X0072166Y0198081D01*
X0072124Y0198081D01*
X0066218Y0198081D02*
X0066218Y0200093D01*
X0066260Y0200093D01*
X0066260Y0198081D01*
X0066218Y0198081D01*
X0060313Y0198081D02*
X0060313Y0200093D01*
X0060355Y0200093D01*
X0060355Y0198081D01*
X0060313Y0198081D01*
X0054407Y0198081D02*
X0054407Y0200093D01*
X0054449Y0200093D01*
X0054449Y0198081D01*
X0054407Y0198081D01*
X0054449Y0146786D02*
X0054449Y0144774D01*
X0054407Y0144774D01*
X0054407Y0146786D01*
X0054449Y0146786D01*
X0060355Y0146786D02*
X0060355Y0144774D01*
X0060313Y0144774D01*
X0060313Y0146786D01*
X0060355Y0146786D01*
X0066260Y0146786D02*
X0066260Y0144774D01*
X0066218Y0144774D01*
X0066218Y0146786D01*
X0066260Y0146786D01*
X0072166Y0146786D02*
X0072166Y0144774D01*
X0072124Y0144774D01*
X0072124Y0146786D01*
X0072166Y0146786D01*
X0078072Y0146786D02*
X0078072Y0144774D01*
X0078030Y0144774D01*
X0078030Y0146786D01*
X0078072Y0146786D01*
X0083977Y0146786D02*
X0083977Y0144774D01*
X0083935Y0144774D01*
X0083935Y0146786D01*
X0083977Y0146786D01*
X0089883Y0146786D02*
X0089883Y0144774D01*
X0089841Y0144774D01*
X0089841Y0146786D01*
X0089883Y0146786D01*
X0095788Y0146786D02*
X0095788Y0144774D01*
X0095746Y0144774D01*
X0095746Y0146786D01*
X0095788Y0146786D01*
X0101694Y0146786D02*
X0101694Y0144774D01*
X0101652Y0144774D01*
X0101652Y0146786D01*
X0101694Y0146786D01*
X0107599Y0146786D02*
X0107599Y0144774D01*
X0107557Y0144774D01*
X0107557Y0146786D01*
X0107599Y0146786D01*
X0113505Y0146786D02*
X0113505Y0144774D01*
X0113463Y0144774D01*
X0113463Y0146786D01*
X0113505Y0146786D01*
X0119410Y0146786D02*
X0119410Y0144774D01*
X0119368Y0144774D01*
X0119368Y0146786D01*
X0119410Y0146786D01*
X0125316Y0146786D02*
X0125316Y0144774D01*
X0125274Y0144774D01*
X0125274Y0146786D01*
X0125316Y0146786D01*
D22*
X0311428Y0167433D02*
X0317428Y0167433D01*
X0317428Y0177433D02*
X0311428Y0177433D01*
X0311428Y0187433D02*
X0317428Y0187433D01*
X0317428Y0197433D02*
X0311428Y0197433D01*
D23*
X0149428Y0037433D03*
X0139428Y0037433D03*
X0129428Y0037433D03*
X0119428Y0037433D03*
X0109428Y0037433D03*
X0109428Y0027433D03*
X0119428Y0027433D03*
X0129428Y0027433D03*
X0139428Y0027433D03*
X0149428Y0027433D03*
D24*
X0285491Y0137433D03*
X0308326Y0137433D03*
X0297302Y0156331D03*
D25*
X0224310Y0062433D03*
D26*
X0303051Y0062433D03*
D27*
X0099128Y0109933D03*
X0099128Y0114933D03*
X0099128Y0119933D03*
X0099128Y0124933D03*
X0079728Y0124933D03*
X0079728Y0119933D03*
X0079728Y0114933D03*
X0079728Y0109933D03*
D28*
X0154428Y0114133D02*
X0154428Y0120733D01*
X0164428Y0120733D02*
X0164428Y0114133D01*
X0174428Y0114133D02*
X0174428Y0120733D01*
X0199428Y0120733D02*
X0199428Y0114133D01*
X0209428Y0114133D02*
X0209428Y0120733D01*
X0219428Y0120733D02*
X0219428Y0114133D01*
X0244428Y0114133D02*
X0244428Y0120733D01*
X0254428Y0120733D02*
X0254428Y0114133D01*
X0264428Y0114133D02*
X0264428Y0120733D01*
D29*
X0254428Y0186433D03*
X0209428Y0186433D03*
X0164428Y0186433D03*
M02*
