G75*
%MOIN*%
%OFA0B0*%
%FSLAX25Y25*%
%IPPOS*%
%LPD*%
%AMOC8*
5,1,8,0,0,1.08239X$1,22.5*
%
%ADD10C,0.00000*%
%ADD11C,0.08274*%
%ADD12C,0.08077*%
%ADD13R,0.08000X0.08000*%
%ADD14OC8,0.08000*%
%ADD15C,0.06400*%
%ADD16R,0.06699X0.07498*%
%ADD17R,0.05199X0.09199*%
%ADD18R,0.14573X0.09061*%
%ADD19C,0.07800*%
D10*
X0018000Y0002000D02*
X0018000Y0205961D01*
X0227701Y0205961D01*
X0227701Y0002000D01*
X0018000Y0002000D01*
X0081063Y0009000D02*
X0081065Y0009125D01*
X0081071Y0009250D01*
X0081081Y0009374D01*
X0081095Y0009498D01*
X0081112Y0009622D01*
X0081134Y0009745D01*
X0081160Y0009867D01*
X0081189Y0009989D01*
X0081222Y0010109D01*
X0081260Y0010228D01*
X0081300Y0010347D01*
X0081345Y0010463D01*
X0081393Y0010578D01*
X0081445Y0010692D01*
X0081501Y0010804D01*
X0081560Y0010914D01*
X0081622Y0011022D01*
X0081688Y0011129D01*
X0081757Y0011233D01*
X0081830Y0011334D01*
X0081905Y0011434D01*
X0081984Y0011531D01*
X0082066Y0011625D01*
X0082151Y0011717D01*
X0082238Y0011806D01*
X0082329Y0011892D01*
X0082422Y0011975D01*
X0082518Y0012056D01*
X0082616Y0012133D01*
X0082716Y0012207D01*
X0082819Y0012278D01*
X0082924Y0012345D01*
X0083032Y0012410D01*
X0083141Y0012470D01*
X0083252Y0012528D01*
X0083365Y0012581D01*
X0083479Y0012631D01*
X0083595Y0012678D01*
X0083712Y0012720D01*
X0083831Y0012759D01*
X0083951Y0012795D01*
X0084072Y0012826D01*
X0084194Y0012854D01*
X0084316Y0012877D01*
X0084440Y0012897D01*
X0084564Y0012913D01*
X0084688Y0012925D01*
X0084813Y0012933D01*
X0084938Y0012937D01*
X0085062Y0012937D01*
X0085187Y0012933D01*
X0085312Y0012925D01*
X0085436Y0012913D01*
X0085560Y0012897D01*
X0085684Y0012877D01*
X0085806Y0012854D01*
X0085928Y0012826D01*
X0086049Y0012795D01*
X0086169Y0012759D01*
X0086288Y0012720D01*
X0086405Y0012678D01*
X0086521Y0012631D01*
X0086635Y0012581D01*
X0086748Y0012528D01*
X0086859Y0012470D01*
X0086969Y0012410D01*
X0087076Y0012345D01*
X0087181Y0012278D01*
X0087284Y0012207D01*
X0087384Y0012133D01*
X0087482Y0012056D01*
X0087578Y0011975D01*
X0087671Y0011892D01*
X0087762Y0011806D01*
X0087849Y0011717D01*
X0087934Y0011625D01*
X0088016Y0011531D01*
X0088095Y0011434D01*
X0088170Y0011334D01*
X0088243Y0011233D01*
X0088312Y0011129D01*
X0088378Y0011022D01*
X0088440Y0010914D01*
X0088499Y0010804D01*
X0088555Y0010692D01*
X0088607Y0010578D01*
X0088655Y0010463D01*
X0088700Y0010347D01*
X0088740Y0010228D01*
X0088778Y0010109D01*
X0088811Y0009989D01*
X0088840Y0009867D01*
X0088866Y0009745D01*
X0088888Y0009622D01*
X0088905Y0009498D01*
X0088919Y0009374D01*
X0088929Y0009250D01*
X0088935Y0009125D01*
X0088937Y0009000D01*
X0088935Y0008875D01*
X0088929Y0008750D01*
X0088919Y0008626D01*
X0088905Y0008502D01*
X0088888Y0008378D01*
X0088866Y0008255D01*
X0088840Y0008133D01*
X0088811Y0008011D01*
X0088778Y0007891D01*
X0088740Y0007772D01*
X0088700Y0007653D01*
X0088655Y0007537D01*
X0088607Y0007422D01*
X0088555Y0007308D01*
X0088499Y0007196D01*
X0088440Y0007086D01*
X0088378Y0006978D01*
X0088312Y0006871D01*
X0088243Y0006767D01*
X0088170Y0006666D01*
X0088095Y0006566D01*
X0088016Y0006469D01*
X0087934Y0006375D01*
X0087849Y0006283D01*
X0087762Y0006194D01*
X0087671Y0006108D01*
X0087578Y0006025D01*
X0087482Y0005944D01*
X0087384Y0005867D01*
X0087284Y0005793D01*
X0087181Y0005722D01*
X0087076Y0005655D01*
X0086968Y0005590D01*
X0086859Y0005530D01*
X0086748Y0005472D01*
X0086635Y0005419D01*
X0086521Y0005369D01*
X0086405Y0005322D01*
X0086288Y0005280D01*
X0086169Y0005241D01*
X0086049Y0005205D01*
X0085928Y0005174D01*
X0085806Y0005146D01*
X0085684Y0005123D01*
X0085560Y0005103D01*
X0085436Y0005087D01*
X0085312Y0005075D01*
X0085187Y0005067D01*
X0085062Y0005063D01*
X0084938Y0005063D01*
X0084813Y0005067D01*
X0084688Y0005075D01*
X0084564Y0005087D01*
X0084440Y0005103D01*
X0084316Y0005123D01*
X0084194Y0005146D01*
X0084072Y0005174D01*
X0083951Y0005205D01*
X0083831Y0005241D01*
X0083712Y0005280D01*
X0083595Y0005322D01*
X0083479Y0005369D01*
X0083365Y0005419D01*
X0083252Y0005472D01*
X0083141Y0005530D01*
X0083031Y0005590D01*
X0082924Y0005655D01*
X0082819Y0005722D01*
X0082716Y0005793D01*
X0082616Y0005867D01*
X0082518Y0005944D01*
X0082422Y0006025D01*
X0082329Y0006108D01*
X0082238Y0006194D01*
X0082151Y0006283D01*
X0082066Y0006375D01*
X0081984Y0006469D01*
X0081905Y0006566D01*
X0081830Y0006666D01*
X0081757Y0006767D01*
X0081688Y0006871D01*
X0081622Y0006978D01*
X0081560Y0007086D01*
X0081501Y0007196D01*
X0081445Y0007308D01*
X0081393Y0007422D01*
X0081345Y0007537D01*
X0081300Y0007653D01*
X0081260Y0007772D01*
X0081222Y0007891D01*
X0081189Y0008011D01*
X0081160Y0008133D01*
X0081134Y0008255D01*
X0081112Y0008378D01*
X0081095Y0008502D01*
X0081081Y0008626D01*
X0081071Y0008750D01*
X0081065Y0008875D01*
X0081063Y0009000D01*
X0212063Y0009000D02*
X0212065Y0009125D01*
X0212071Y0009250D01*
X0212081Y0009374D01*
X0212095Y0009498D01*
X0212112Y0009622D01*
X0212134Y0009745D01*
X0212160Y0009867D01*
X0212189Y0009989D01*
X0212222Y0010109D01*
X0212260Y0010228D01*
X0212300Y0010347D01*
X0212345Y0010463D01*
X0212393Y0010578D01*
X0212445Y0010692D01*
X0212501Y0010804D01*
X0212560Y0010914D01*
X0212622Y0011022D01*
X0212688Y0011129D01*
X0212757Y0011233D01*
X0212830Y0011334D01*
X0212905Y0011434D01*
X0212984Y0011531D01*
X0213066Y0011625D01*
X0213151Y0011717D01*
X0213238Y0011806D01*
X0213329Y0011892D01*
X0213422Y0011975D01*
X0213518Y0012056D01*
X0213616Y0012133D01*
X0213716Y0012207D01*
X0213819Y0012278D01*
X0213924Y0012345D01*
X0214032Y0012410D01*
X0214141Y0012470D01*
X0214252Y0012528D01*
X0214365Y0012581D01*
X0214479Y0012631D01*
X0214595Y0012678D01*
X0214712Y0012720D01*
X0214831Y0012759D01*
X0214951Y0012795D01*
X0215072Y0012826D01*
X0215194Y0012854D01*
X0215316Y0012877D01*
X0215440Y0012897D01*
X0215564Y0012913D01*
X0215688Y0012925D01*
X0215813Y0012933D01*
X0215938Y0012937D01*
X0216062Y0012937D01*
X0216187Y0012933D01*
X0216312Y0012925D01*
X0216436Y0012913D01*
X0216560Y0012897D01*
X0216684Y0012877D01*
X0216806Y0012854D01*
X0216928Y0012826D01*
X0217049Y0012795D01*
X0217169Y0012759D01*
X0217288Y0012720D01*
X0217405Y0012678D01*
X0217521Y0012631D01*
X0217635Y0012581D01*
X0217748Y0012528D01*
X0217859Y0012470D01*
X0217969Y0012410D01*
X0218076Y0012345D01*
X0218181Y0012278D01*
X0218284Y0012207D01*
X0218384Y0012133D01*
X0218482Y0012056D01*
X0218578Y0011975D01*
X0218671Y0011892D01*
X0218762Y0011806D01*
X0218849Y0011717D01*
X0218934Y0011625D01*
X0219016Y0011531D01*
X0219095Y0011434D01*
X0219170Y0011334D01*
X0219243Y0011233D01*
X0219312Y0011129D01*
X0219378Y0011022D01*
X0219440Y0010914D01*
X0219499Y0010804D01*
X0219555Y0010692D01*
X0219607Y0010578D01*
X0219655Y0010463D01*
X0219700Y0010347D01*
X0219740Y0010228D01*
X0219778Y0010109D01*
X0219811Y0009989D01*
X0219840Y0009867D01*
X0219866Y0009745D01*
X0219888Y0009622D01*
X0219905Y0009498D01*
X0219919Y0009374D01*
X0219929Y0009250D01*
X0219935Y0009125D01*
X0219937Y0009000D01*
X0219935Y0008875D01*
X0219929Y0008750D01*
X0219919Y0008626D01*
X0219905Y0008502D01*
X0219888Y0008378D01*
X0219866Y0008255D01*
X0219840Y0008133D01*
X0219811Y0008011D01*
X0219778Y0007891D01*
X0219740Y0007772D01*
X0219700Y0007653D01*
X0219655Y0007537D01*
X0219607Y0007422D01*
X0219555Y0007308D01*
X0219499Y0007196D01*
X0219440Y0007086D01*
X0219378Y0006978D01*
X0219312Y0006871D01*
X0219243Y0006767D01*
X0219170Y0006666D01*
X0219095Y0006566D01*
X0219016Y0006469D01*
X0218934Y0006375D01*
X0218849Y0006283D01*
X0218762Y0006194D01*
X0218671Y0006108D01*
X0218578Y0006025D01*
X0218482Y0005944D01*
X0218384Y0005867D01*
X0218284Y0005793D01*
X0218181Y0005722D01*
X0218076Y0005655D01*
X0217968Y0005590D01*
X0217859Y0005530D01*
X0217748Y0005472D01*
X0217635Y0005419D01*
X0217521Y0005369D01*
X0217405Y0005322D01*
X0217288Y0005280D01*
X0217169Y0005241D01*
X0217049Y0005205D01*
X0216928Y0005174D01*
X0216806Y0005146D01*
X0216684Y0005123D01*
X0216560Y0005103D01*
X0216436Y0005087D01*
X0216312Y0005075D01*
X0216187Y0005067D01*
X0216062Y0005063D01*
X0215938Y0005063D01*
X0215813Y0005067D01*
X0215688Y0005075D01*
X0215564Y0005087D01*
X0215440Y0005103D01*
X0215316Y0005123D01*
X0215194Y0005146D01*
X0215072Y0005174D01*
X0214951Y0005205D01*
X0214831Y0005241D01*
X0214712Y0005280D01*
X0214595Y0005322D01*
X0214479Y0005369D01*
X0214365Y0005419D01*
X0214252Y0005472D01*
X0214141Y0005530D01*
X0214031Y0005590D01*
X0213924Y0005655D01*
X0213819Y0005722D01*
X0213716Y0005793D01*
X0213616Y0005867D01*
X0213518Y0005944D01*
X0213422Y0006025D01*
X0213329Y0006108D01*
X0213238Y0006194D01*
X0213151Y0006283D01*
X0213066Y0006375D01*
X0212984Y0006469D01*
X0212905Y0006566D01*
X0212830Y0006666D01*
X0212757Y0006767D01*
X0212688Y0006871D01*
X0212622Y0006978D01*
X0212560Y0007086D01*
X0212501Y0007196D01*
X0212445Y0007308D01*
X0212393Y0007422D01*
X0212345Y0007537D01*
X0212300Y0007653D01*
X0212260Y0007772D01*
X0212222Y0007891D01*
X0212189Y0008011D01*
X0212160Y0008133D01*
X0212134Y0008255D01*
X0212112Y0008378D01*
X0212095Y0008502D01*
X0212081Y0008626D01*
X0212071Y0008750D01*
X0212065Y0008875D01*
X0212063Y0009000D01*
X0212063Y0197000D02*
X0212065Y0197125D01*
X0212071Y0197250D01*
X0212081Y0197374D01*
X0212095Y0197498D01*
X0212112Y0197622D01*
X0212134Y0197745D01*
X0212160Y0197867D01*
X0212189Y0197989D01*
X0212222Y0198109D01*
X0212260Y0198228D01*
X0212300Y0198347D01*
X0212345Y0198463D01*
X0212393Y0198578D01*
X0212445Y0198692D01*
X0212501Y0198804D01*
X0212560Y0198914D01*
X0212622Y0199022D01*
X0212688Y0199129D01*
X0212757Y0199233D01*
X0212830Y0199334D01*
X0212905Y0199434D01*
X0212984Y0199531D01*
X0213066Y0199625D01*
X0213151Y0199717D01*
X0213238Y0199806D01*
X0213329Y0199892D01*
X0213422Y0199975D01*
X0213518Y0200056D01*
X0213616Y0200133D01*
X0213716Y0200207D01*
X0213819Y0200278D01*
X0213924Y0200345D01*
X0214032Y0200410D01*
X0214141Y0200470D01*
X0214252Y0200528D01*
X0214365Y0200581D01*
X0214479Y0200631D01*
X0214595Y0200678D01*
X0214712Y0200720D01*
X0214831Y0200759D01*
X0214951Y0200795D01*
X0215072Y0200826D01*
X0215194Y0200854D01*
X0215316Y0200877D01*
X0215440Y0200897D01*
X0215564Y0200913D01*
X0215688Y0200925D01*
X0215813Y0200933D01*
X0215938Y0200937D01*
X0216062Y0200937D01*
X0216187Y0200933D01*
X0216312Y0200925D01*
X0216436Y0200913D01*
X0216560Y0200897D01*
X0216684Y0200877D01*
X0216806Y0200854D01*
X0216928Y0200826D01*
X0217049Y0200795D01*
X0217169Y0200759D01*
X0217288Y0200720D01*
X0217405Y0200678D01*
X0217521Y0200631D01*
X0217635Y0200581D01*
X0217748Y0200528D01*
X0217859Y0200470D01*
X0217969Y0200410D01*
X0218076Y0200345D01*
X0218181Y0200278D01*
X0218284Y0200207D01*
X0218384Y0200133D01*
X0218482Y0200056D01*
X0218578Y0199975D01*
X0218671Y0199892D01*
X0218762Y0199806D01*
X0218849Y0199717D01*
X0218934Y0199625D01*
X0219016Y0199531D01*
X0219095Y0199434D01*
X0219170Y0199334D01*
X0219243Y0199233D01*
X0219312Y0199129D01*
X0219378Y0199022D01*
X0219440Y0198914D01*
X0219499Y0198804D01*
X0219555Y0198692D01*
X0219607Y0198578D01*
X0219655Y0198463D01*
X0219700Y0198347D01*
X0219740Y0198228D01*
X0219778Y0198109D01*
X0219811Y0197989D01*
X0219840Y0197867D01*
X0219866Y0197745D01*
X0219888Y0197622D01*
X0219905Y0197498D01*
X0219919Y0197374D01*
X0219929Y0197250D01*
X0219935Y0197125D01*
X0219937Y0197000D01*
X0219935Y0196875D01*
X0219929Y0196750D01*
X0219919Y0196626D01*
X0219905Y0196502D01*
X0219888Y0196378D01*
X0219866Y0196255D01*
X0219840Y0196133D01*
X0219811Y0196011D01*
X0219778Y0195891D01*
X0219740Y0195772D01*
X0219700Y0195653D01*
X0219655Y0195537D01*
X0219607Y0195422D01*
X0219555Y0195308D01*
X0219499Y0195196D01*
X0219440Y0195086D01*
X0219378Y0194978D01*
X0219312Y0194871D01*
X0219243Y0194767D01*
X0219170Y0194666D01*
X0219095Y0194566D01*
X0219016Y0194469D01*
X0218934Y0194375D01*
X0218849Y0194283D01*
X0218762Y0194194D01*
X0218671Y0194108D01*
X0218578Y0194025D01*
X0218482Y0193944D01*
X0218384Y0193867D01*
X0218284Y0193793D01*
X0218181Y0193722D01*
X0218076Y0193655D01*
X0217968Y0193590D01*
X0217859Y0193530D01*
X0217748Y0193472D01*
X0217635Y0193419D01*
X0217521Y0193369D01*
X0217405Y0193322D01*
X0217288Y0193280D01*
X0217169Y0193241D01*
X0217049Y0193205D01*
X0216928Y0193174D01*
X0216806Y0193146D01*
X0216684Y0193123D01*
X0216560Y0193103D01*
X0216436Y0193087D01*
X0216312Y0193075D01*
X0216187Y0193067D01*
X0216062Y0193063D01*
X0215938Y0193063D01*
X0215813Y0193067D01*
X0215688Y0193075D01*
X0215564Y0193087D01*
X0215440Y0193103D01*
X0215316Y0193123D01*
X0215194Y0193146D01*
X0215072Y0193174D01*
X0214951Y0193205D01*
X0214831Y0193241D01*
X0214712Y0193280D01*
X0214595Y0193322D01*
X0214479Y0193369D01*
X0214365Y0193419D01*
X0214252Y0193472D01*
X0214141Y0193530D01*
X0214031Y0193590D01*
X0213924Y0193655D01*
X0213819Y0193722D01*
X0213716Y0193793D01*
X0213616Y0193867D01*
X0213518Y0193944D01*
X0213422Y0194025D01*
X0213329Y0194108D01*
X0213238Y0194194D01*
X0213151Y0194283D01*
X0213066Y0194375D01*
X0212984Y0194469D01*
X0212905Y0194566D01*
X0212830Y0194666D01*
X0212757Y0194767D01*
X0212688Y0194871D01*
X0212622Y0194978D01*
X0212560Y0195086D01*
X0212501Y0195196D01*
X0212445Y0195308D01*
X0212393Y0195422D01*
X0212345Y0195537D01*
X0212300Y0195653D01*
X0212260Y0195772D01*
X0212222Y0195891D01*
X0212189Y0196011D01*
X0212160Y0196133D01*
X0212134Y0196255D01*
X0212112Y0196378D01*
X0212095Y0196502D01*
X0212081Y0196626D01*
X0212071Y0196750D01*
X0212065Y0196875D01*
X0212063Y0197000D01*
X0068063Y0197000D02*
X0068065Y0197125D01*
X0068071Y0197250D01*
X0068081Y0197374D01*
X0068095Y0197498D01*
X0068112Y0197622D01*
X0068134Y0197745D01*
X0068160Y0197867D01*
X0068189Y0197989D01*
X0068222Y0198109D01*
X0068260Y0198228D01*
X0068300Y0198347D01*
X0068345Y0198463D01*
X0068393Y0198578D01*
X0068445Y0198692D01*
X0068501Y0198804D01*
X0068560Y0198914D01*
X0068622Y0199022D01*
X0068688Y0199129D01*
X0068757Y0199233D01*
X0068830Y0199334D01*
X0068905Y0199434D01*
X0068984Y0199531D01*
X0069066Y0199625D01*
X0069151Y0199717D01*
X0069238Y0199806D01*
X0069329Y0199892D01*
X0069422Y0199975D01*
X0069518Y0200056D01*
X0069616Y0200133D01*
X0069716Y0200207D01*
X0069819Y0200278D01*
X0069924Y0200345D01*
X0070032Y0200410D01*
X0070141Y0200470D01*
X0070252Y0200528D01*
X0070365Y0200581D01*
X0070479Y0200631D01*
X0070595Y0200678D01*
X0070712Y0200720D01*
X0070831Y0200759D01*
X0070951Y0200795D01*
X0071072Y0200826D01*
X0071194Y0200854D01*
X0071316Y0200877D01*
X0071440Y0200897D01*
X0071564Y0200913D01*
X0071688Y0200925D01*
X0071813Y0200933D01*
X0071938Y0200937D01*
X0072062Y0200937D01*
X0072187Y0200933D01*
X0072312Y0200925D01*
X0072436Y0200913D01*
X0072560Y0200897D01*
X0072684Y0200877D01*
X0072806Y0200854D01*
X0072928Y0200826D01*
X0073049Y0200795D01*
X0073169Y0200759D01*
X0073288Y0200720D01*
X0073405Y0200678D01*
X0073521Y0200631D01*
X0073635Y0200581D01*
X0073748Y0200528D01*
X0073859Y0200470D01*
X0073969Y0200410D01*
X0074076Y0200345D01*
X0074181Y0200278D01*
X0074284Y0200207D01*
X0074384Y0200133D01*
X0074482Y0200056D01*
X0074578Y0199975D01*
X0074671Y0199892D01*
X0074762Y0199806D01*
X0074849Y0199717D01*
X0074934Y0199625D01*
X0075016Y0199531D01*
X0075095Y0199434D01*
X0075170Y0199334D01*
X0075243Y0199233D01*
X0075312Y0199129D01*
X0075378Y0199022D01*
X0075440Y0198914D01*
X0075499Y0198804D01*
X0075555Y0198692D01*
X0075607Y0198578D01*
X0075655Y0198463D01*
X0075700Y0198347D01*
X0075740Y0198228D01*
X0075778Y0198109D01*
X0075811Y0197989D01*
X0075840Y0197867D01*
X0075866Y0197745D01*
X0075888Y0197622D01*
X0075905Y0197498D01*
X0075919Y0197374D01*
X0075929Y0197250D01*
X0075935Y0197125D01*
X0075937Y0197000D01*
X0075935Y0196875D01*
X0075929Y0196750D01*
X0075919Y0196626D01*
X0075905Y0196502D01*
X0075888Y0196378D01*
X0075866Y0196255D01*
X0075840Y0196133D01*
X0075811Y0196011D01*
X0075778Y0195891D01*
X0075740Y0195772D01*
X0075700Y0195653D01*
X0075655Y0195537D01*
X0075607Y0195422D01*
X0075555Y0195308D01*
X0075499Y0195196D01*
X0075440Y0195086D01*
X0075378Y0194978D01*
X0075312Y0194871D01*
X0075243Y0194767D01*
X0075170Y0194666D01*
X0075095Y0194566D01*
X0075016Y0194469D01*
X0074934Y0194375D01*
X0074849Y0194283D01*
X0074762Y0194194D01*
X0074671Y0194108D01*
X0074578Y0194025D01*
X0074482Y0193944D01*
X0074384Y0193867D01*
X0074284Y0193793D01*
X0074181Y0193722D01*
X0074076Y0193655D01*
X0073968Y0193590D01*
X0073859Y0193530D01*
X0073748Y0193472D01*
X0073635Y0193419D01*
X0073521Y0193369D01*
X0073405Y0193322D01*
X0073288Y0193280D01*
X0073169Y0193241D01*
X0073049Y0193205D01*
X0072928Y0193174D01*
X0072806Y0193146D01*
X0072684Y0193123D01*
X0072560Y0193103D01*
X0072436Y0193087D01*
X0072312Y0193075D01*
X0072187Y0193067D01*
X0072062Y0193063D01*
X0071938Y0193063D01*
X0071813Y0193067D01*
X0071688Y0193075D01*
X0071564Y0193087D01*
X0071440Y0193103D01*
X0071316Y0193123D01*
X0071194Y0193146D01*
X0071072Y0193174D01*
X0070951Y0193205D01*
X0070831Y0193241D01*
X0070712Y0193280D01*
X0070595Y0193322D01*
X0070479Y0193369D01*
X0070365Y0193419D01*
X0070252Y0193472D01*
X0070141Y0193530D01*
X0070031Y0193590D01*
X0069924Y0193655D01*
X0069819Y0193722D01*
X0069716Y0193793D01*
X0069616Y0193867D01*
X0069518Y0193944D01*
X0069422Y0194025D01*
X0069329Y0194108D01*
X0069238Y0194194D01*
X0069151Y0194283D01*
X0069066Y0194375D01*
X0068984Y0194469D01*
X0068905Y0194566D01*
X0068830Y0194666D01*
X0068757Y0194767D01*
X0068688Y0194871D01*
X0068622Y0194978D01*
X0068560Y0195086D01*
X0068501Y0195196D01*
X0068445Y0195308D01*
X0068393Y0195422D01*
X0068345Y0195537D01*
X0068300Y0195653D01*
X0068260Y0195772D01*
X0068222Y0195891D01*
X0068189Y0196011D01*
X0068160Y0196133D01*
X0068134Y0196255D01*
X0068112Y0196378D01*
X0068095Y0196502D01*
X0068081Y0196626D01*
X0068071Y0196750D01*
X0068065Y0196875D01*
X0068063Y0197000D01*
D11*
X0072000Y0197000D03*
X0216000Y0197000D03*
X0216000Y0009000D03*
X0085000Y0009000D03*
D12*
X0047126Y0167102D03*
X0036102Y0186000D03*
X0058937Y0186000D03*
D13*
X0083942Y0153350D03*
D14*
X0162682Y0153350D03*
D15*
X0034000Y0155000D02*
X0028000Y0155000D01*
X0028000Y0145000D02*
X0034000Y0145000D01*
X0034000Y0135000D02*
X0028000Y0135000D01*
X0028000Y0125000D02*
X0034000Y0125000D01*
D16*
X0088552Y0137190D03*
X0099748Y0137190D03*
X0123552Y0137190D03*
X0134748Y0137190D03*
X0158552Y0137190D03*
X0169748Y0137190D03*
D17*
X0174098Y0170799D03*
X0165000Y0170799D03*
X0155902Y0170799D03*
X0138098Y0170799D03*
X0129000Y0170799D03*
X0119902Y0170799D03*
X0102098Y0170799D03*
X0093000Y0170799D03*
X0083902Y0170799D03*
D18*
X0093000Y0195201D03*
X0129000Y0195201D03*
X0165000Y0195201D03*
D19*
X0202900Y0169320D03*
X0212900Y0169320D03*
X0212900Y0159320D03*
X0212900Y0149320D03*
X0202900Y0149320D03*
X0202900Y0159320D03*
X0202900Y0139320D03*
X0212900Y0139320D03*
X0212900Y0129320D03*
X0202900Y0129320D03*
M02*
