G75*
%MOIN*%
%OFA0B0*%
%FSLAX25Y25*%
%IPPOS*%
%LPD*%
%AMOC8*
5,1,8,0,0,1.08239X$1,22.5*
%
%ADD10C,0.00000*%
%ADD11R,0.05118X0.05906*%
%ADD12C,0.07677*%
%ADD13R,0.07900X0.04300*%
%ADD14R,0.07600X0.07600*%
%ADD15OC8,0.07600*%
%ADD16R,0.07800X0.02100*%
%ADD17R,0.01378X0.03346*%
%ADD18C,0.06000*%
%ADD19R,0.04799X0.08799*%
%ADD20R,0.14173X0.08661*%
%ADD21R,0.02559X0.08661*%
%ADD22C,0.00591*%
%ADD23C,0.01250*%
%ADD24R,0.04724X0.04724*%
%ADD25C,0.01750*%
%ADD26C,0.03898*%
%ADD27OC8,0.06000*%
%ADD28C,0.02000*%
%ADD29C,0.02400*%
%ADD30C,0.00600*%
D10*
X0017000Y0002000D02*
X0017000Y0200961D01*
X0266701Y0200961D01*
X0266701Y0002000D01*
X0017000Y0002000D01*
D11*
X0089260Y0062000D03*
X0096740Y0062000D03*
X0108260Y0062000D03*
X0115740Y0062000D03*
X0096890Y0079400D03*
X0089410Y0079400D03*
X0089654Y0093000D03*
X0096346Y0093000D03*
X0096740Y0106000D03*
X0089260Y0106000D03*
X0089260Y0135000D03*
X0096740Y0135000D03*
X0086740Y0157000D03*
X0079260Y0157000D03*
X0109260Y0157000D03*
X0116740Y0157000D03*
X0140260Y0157000D03*
X0147740Y0157000D03*
X0191260Y0093000D03*
X0198740Y0093000D03*
X0198740Y0079000D03*
X0191260Y0079000D03*
X0177740Y0079000D03*
X0170260Y0079000D03*
X0155740Y0079000D03*
X0148260Y0079000D03*
X0148260Y0062000D03*
X0155740Y0062000D03*
X0191260Y0062000D03*
X0198740Y0062000D03*
X0156740Y0031000D03*
X0149260Y0031000D03*
X0135740Y0031000D03*
X0128260Y0031000D03*
X0114740Y0031000D03*
X0107260Y0031000D03*
D12*
X0047126Y0160102D03*
X0036102Y0179000D03*
X0058937Y0179000D03*
D13*
X0222300Y0029000D03*
X0222300Y0019000D03*
X0257700Y0019000D03*
X0257700Y0029000D03*
D14*
X0218000Y0097882D03*
D15*
X0218000Y0176622D03*
D16*
X0207700Y0030500D03*
X0207700Y0025500D03*
X0207700Y0020500D03*
X0207700Y0015500D03*
X0188300Y0015500D03*
X0188300Y0020500D03*
X0188300Y0025500D03*
X0188300Y0030500D03*
D17*
X0062559Y0130669D03*
X0057441Y0130669D03*
X0057441Y0139331D03*
X0060000Y0139331D03*
X0062559Y0139331D03*
D18*
X0031000Y0143000D02*
X0025000Y0143000D01*
X0025000Y0133000D02*
X0031000Y0133000D01*
X0031000Y0123000D02*
X0025000Y0123000D01*
X0025000Y0153000D02*
X0031000Y0153000D01*
D19*
X0072902Y0167799D03*
X0082000Y0167799D03*
X0091098Y0167799D03*
X0110902Y0167799D03*
X0120000Y0167799D03*
X0129098Y0167799D03*
X0148902Y0167799D03*
X0158000Y0167799D03*
X0167098Y0167799D03*
D20*
X0158000Y0192201D03*
X0120000Y0192201D03*
X0082000Y0192201D03*
D21*
X0090213Y0023087D03*
X0090213Y0008520D03*
D22*
X0130304Y0108143D02*
X0129887Y0108560D01*
X0130304Y0108143D02*
X0128773Y0106612D01*
X0128356Y0107029D01*
X0129887Y0108560D01*
X0129363Y0107202D02*
X0128529Y0107202D01*
X0129119Y0107792D02*
X0129953Y0107792D01*
X0130065Y0108382D02*
X0129709Y0108382D01*
X0128912Y0109535D02*
X0128495Y0109952D01*
X0128912Y0109535D02*
X0127381Y0108004D01*
X0126964Y0108421D01*
X0128495Y0109952D01*
X0127971Y0108594D02*
X0127137Y0108594D01*
X0127727Y0109184D02*
X0128561Y0109184D01*
X0128673Y0109774D02*
X0128317Y0109774D01*
X0127520Y0110927D02*
X0127103Y0111344D01*
X0127520Y0110927D02*
X0125989Y0109396D01*
X0125572Y0109813D01*
X0127103Y0111344D01*
X0126579Y0109986D02*
X0125745Y0109986D01*
X0126335Y0110576D02*
X0127169Y0110576D01*
X0127281Y0111166D02*
X0126925Y0111166D01*
X0126128Y0112319D02*
X0125711Y0112736D01*
X0126128Y0112319D02*
X0124597Y0110788D01*
X0124180Y0111205D01*
X0125711Y0112736D01*
X0125187Y0111378D02*
X0124353Y0111378D01*
X0124943Y0111968D02*
X0125777Y0111968D01*
X0125889Y0112558D02*
X0125533Y0112558D01*
X0124736Y0113711D02*
X0124319Y0114128D01*
X0124736Y0113711D02*
X0123205Y0112180D01*
X0122788Y0112597D01*
X0124319Y0114128D01*
X0123795Y0112770D02*
X0122961Y0112770D01*
X0123551Y0113360D02*
X0124385Y0113360D01*
X0124497Y0113950D02*
X0124141Y0113950D01*
X0123344Y0115103D02*
X0122927Y0115520D01*
X0123344Y0115103D02*
X0121813Y0113572D01*
X0121396Y0113989D01*
X0122927Y0115520D01*
X0122403Y0114162D02*
X0121569Y0114162D01*
X0122159Y0114752D02*
X0122993Y0114752D01*
X0123105Y0115342D02*
X0122749Y0115342D01*
X0121952Y0116495D02*
X0121535Y0116912D01*
X0121952Y0116495D02*
X0120421Y0114964D01*
X0120004Y0115381D01*
X0121535Y0116912D01*
X0121011Y0115554D02*
X0120177Y0115554D01*
X0120767Y0116144D02*
X0121601Y0116144D01*
X0121713Y0116734D02*
X0121357Y0116734D01*
X0120560Y0117887D02*
X0120143Y0118304D01*
X0120560Y0117887D02*
X0119029Y0116356D01*
X0118612Y0116773D01*
X0120143Y0118304D01*
X0119619Y0116946D02*
X0118785Y0116946D01*
X0119375Y0117536D02*
X0120209Y0117536D01*
X0120321Y0118126D02*
X0119965Y0118126D01*
X0120560Y0120113D02*
X0119029Y0121644D01*
X0120560Y0120113D02*
X0120143Y0119696D01*
X0118612Y0121227D01*
X0119029Y0121644D01*
X0119553Y0120286D02*
X0120387Y0120286D01*
X0119797Y0120876D02*
X0118963Y0120876D01*
X0118851Y0121466D02*
X0119207Y0121466D01*
X0120421Y0123036D02*
X0121952Y0121505D01*
X0121535Y0121088D01*
X0120004Y0122619D01*
X0120421Y0123036D01*
X0120945Y0121678D02*
X0121779Y0121678D01*
X0121189Y0122268D02*
X0120355Y0122268D01*
X0120243Y0122858D02*
X0120599Y0122858D01*
X0121813Y0124428D02*
X0123344Y0122897D01*
X0122927Y0122480D01*
X0121396Y0124011D01*
X0121813Y0124428D01*
X0122337Y0123070D02*
X0123171Y0123070D01*
X0122581Y0123660D02*
X0121747Y0123660D01*
X0121635Y0124250D02*
X0121991Y0124250D01*
X0123205Y0125820D02*
X0124736Y0124289D01*
X0124319Y0123872D01*
X0122788Y0125403D01*
X0123205Y0125820D01*
X0123729Y0124462D02*
X0124563Y0124462D01*
X0123973Y0125052D02*
X0123139Y0125052D01*
X0123027Y0125642D02*
X0123383Y0125642D01*
X0124597Y0127212D02*
X0126128Y0125681D01*
X0125711Y0125264D01*
X0124180Y0126795D01*
X0124597Y0127212D01*
X0125121Y0125854D02*
X0125955Y0125854D01*
X0125365Y0126444D02*
X0124531Y0126444D01*
X0124419Y0127034D02*
X0124775Y0127034D01*
X0125989Y0128604D02*
X0127520Y0127073D01*
X0127103Y0126656D01*
X0125572Y0128187D01*
X0125989Y0128604D01*
X0126513Y0127246D02*
X0127347Y0127246D01*
X0126757Y0127836D02*
X0125923Y0127836D01*
X0125811Y0128426D02*
X0126167Y0128426D01*
X0127381Y0129996D02*
X0128912Y0128465D01*
X0128495Y0128048D01*
X0126964Y0129579D01*
X0127381Y0129996D01*
X0127905Y0128638D02*
X0128739Y0128638D01*
X0128149Y0129228D02*
X0127315Y0129228D01*
X0127203Y0129818D02*
X0127559Y0129818D01*
X0128773Y0131388D02*
X0130304Y0129857D01*
X0129887Y0129440D01*
X0128356Y0130971D01*
X0128773Y0131388D01*
X0129297Y0130030D02*
X0130131Y0130030D01*
X0129541Y0130620D02*
X0128707Y0130620D01*
X0128595Y0131210D02*
X0128951Y0131210D01*
X0133227Y0131388D02*
X0133644Y0130971D01*
X0132113Y0129440D01*
X0131696Y0129857D01*
X0133227Y0131388D01*
X0132703Y0130030D02*
X0131869Y0130030D01*
X0132459Y0130620D02*
X0133293Y0130620D01*
X0133405Y0131210D02*
X0133049Y0131210D01*
X0134619Y0129996D02*
X0135036Y0129579D01*
X0133505Y0128048D01*
X0133088Y0128465D01*
X0134619Y0129996D01*
X0134095Y0128638D02*
X0133261Y0128638D01*
X0133851Y0129228D02*
X0134685Y0129228D01*
X0134797Y0129818D02*
X0134441Y0129818D01*
X0136011Y0128604D02*
X0136428Y0128187D01*
X0134897Y0126656D01*
X0134480Y0127073D01*
X0136011Y0128604D01*
X0135487Y0127246D02*
X0134653Y0127246D01*
X0135243Y0127836D02*
X0136077Y0127836D01*
X0136189Y0128426D02*
X0135833Y0128426D01*
X0137403Y0127212D02*
X0137820Y0126795D01*
X0136289Y0125264D01*
X0135872Y0125681D01*
X0137403Y0127212D01*
X0136879Y0125854D02*
X0136045Y0125854D01*
X0136635Y0126444D02*
X0137469Y0126444D01*
X0137581Y0127034D02*
X0137225Y0127034D01*
X0138795Y0125820D02*
X0139212Y0125403D01*
X0137681Y0123872D01*
X0137264Y0124289D01*
X0138795Y0125820D01*
X0138271Y0124462D02*
X0137437Y0124462D01*
X0138027Y0125052D02*
X0138861Y0125052D01*
X0138973Y0125642D02*
X0138617Y0125642D01*
X0140187Y0124428D02*
X0140604Y0124011D01*
X0139073Y0122480D01*
X0138656Y0122897D01*
X0140187Y0124428D01*
X0139663Y0123070D02*
X0138829Y0123070D01*
X0139419Y0123660D02*
X0140253Y0123660D01*
X0140365Y0124250D02*
X0140009Y0124250D01*
X0141579Y0123036D02*
X0141996Y0122619D01*
X0140465Y0121088D01*
X0140048Y0121505D01*
X0141579Y0123036D01*
X0141055Y0121678D02*
X0140221Y0121678D01*
X0140811Y0122268D02*
X0141645Y0122268D01*
X0141757Y0122858D02*
X0141401Y0122858D01*
X0142971Y0121644D02*
X0143388Y0121227D01*
X0141857Y0119696D01*
X0141440Y0120113D01*
X0142971Y0121644D01*
X0142447Y0120286D02*
X0141613Y0120286D01*
X0142203Y0120876D02*
X0143037Y0120876D01*
X0143149Y0121466D02*
X0142793Y0121466D01*
X0141857Y0118304D02*
X0143388Y0116773D01*
X0142971Y0116356D01*
X0141440Y0117887D01*
X0141857Y0118304D01*
X0142381Y0116946D02*
X0143215Y0116946D01*
X0142625Y0117536D02*
X0141791Y0117536D01*
X0141679Y0118126D02*
X0142035Y0118126D01*
X0140465Y0116912D02*
X0141996Y0115381D01*
X0141579Y0114964D01*
X0140048Y0116495D01*
X0140465Y0116912D01*
X0140989Y0115554D02*
X0141823Y0115554D01*
X0141233Y0116144D02*
X0140399Y0116144D01*
X0140287Y0116734D02*
X0140643Y0116734D01*
X0139073Y0115520D02*
X0140604Y0113989D01*
X0140187Y0113572D01*
X0138656Y0115103D01*
X0139073Y0115520D01*
X0139597Y0114162D02*
X0140431Y0114162D01*
X0139841Y0114752D02*
X0139007Y0114752D01*
X0138895Y0115342D02*
X0139251Y0115342D01*
X0137681Y0114128D02*
X0139212Y0112597D01*
X0138795Y0112180D01*
X0137264Y0113711D01*
X0137681Y0114128D01*
X0138205Y0112770D02*
X0139039Y0112770D01*
X0138449Y0113360D02*
X0137615Y0113360D01*
X0137503Y0113950D02*
X0137859Y0113950D01*
X0136289Y0112736D02*
X0137820Y0111205D01*
X0137403Y0110788D01*
X0135872Y0112319D01*
X0136289Y0112736D01*
X0136813Y0111378D02*
X0137647Y0111378D01*
X0137057Y0111968D02*
X0136223Y0111968D01*
X0136111Y0112558D02*
X0136467Y0112558D01*
X0134897Y0111344D02*
X0136428Y0109813D01*
X0136011Y0109396D01*
X0134480Y0110927D01*
X0134897Y0111344D01*
X0135421Y0109986D02*
X0136255Y0109986D01*
X0135665Y0110576D02*
X0134831Y0110576D01*
X0134719Y0111166D02*
X0135075Y0111166D01*
X0133505Y0109952D02*
X0135036Y0108421D01*
X0134619Y0108004D01*
X0133088Y0109535D01*
X0133505Y0109952D01*
X0134029Y0108594D02*
X0134863Y0108594D01*
X0134273Y0109184D02*
X0133439Y0109184D01*
X0133327Y0109774D02*
X0133683Y0109774D01*
X0132113Y0108560D02*
X0133644Y0107029D01*
X0133227Y0106612D01*
X0131696Y0108143D01*
X0132113Y0108560D01*
X0132637Y0107202D02*
X0133471Y0107202D01*
X0132881Y0107792D02*
X0132047Y0107792D01*
X0131935Y0108382D02*
X0132291Y0108382D01*
D23*
X0138954Y0119000D02*
X0131000Y0126954D01*
X0138954Y0119000D02*
X0131000Y0111046D01*
X0123046Y0119000D01*
X0131000Y0126954D01*
X0132249Y0112295D02*
X0129751Y0112295D01*
X0128502Y0113544D02*
X0133498Y0113544D01*
X0134747Y0114793D02*
X0127253Y0114793D01*
X0126004Y0116042D02*
X0135996Y0116042D01*
X0137245Y0117291D02*
X0124755Y0117291D01*
X0123506Y0118540D02*
X0138494Y0118540D01*
X0138165Y0119789D02*
X0123835Y0119789D01*
X0125084Y0121038D02*
X0136916Y0121038D01*
X0135667Y0122287D02*
X0126333Y0122287D01*
X0127582Y0123536D02*
X0134418Y0123536D01*
X0133169Y0124785D02*
X0128831Y0124785D01*
X0130080Y0126034D02*
X0131920Y0126034D01*
D24*
X0169866Y0062000D03*
X0178134Y0062000D03*
X0178134Y0031000D03*
X0169866Y0031000D03*
D25*
X0138375Y0057125D02*
X0135625Y0057125D01*
X0135625Y0058875D01*
X0138375Y0058875D01*
X0138375Y0057125D01*
X0138375Y0058874D02*
X0135625Y0058874D01*
X0135625Y0065125D02*
X0138375Y0065125D01*
X0135625Y0065125D02*
X0135625Y0066875D01*
X0138375Y0066875D01*
X0138375Y0065125D01*
X0138375Y0066874D02*
X0135625Y0066874D01*
X0128375Y0065125D02*
X0125625Y0065125D01*
X0125625Y0066875D01*
X0128375Y0066875D01*
X0128375Y0065125D01*
X0128375Y0066874D02*
X0125625Y0066874D01*
X0125625Y0057125D02*
X0128375Y0057125D01*
X0125625Y0057125D02*
X0125625Y0058875D01*
X0128375Y0058875D01*
X0128375Y0057125D01*
X0128375Y0058874D02*
X0125625Y0058874D01*
D26*
X0077658Y0060547D02*
X0075650Y0060547D01*
X0077658Y0060547D02*
X0077658Y0060509D01*
X0075650Y0060509D01*
X0075650Y0060547D01*
X0075650Y0066452D02*
X0077658Y0066452D01*
X0077658Y0066414D01*
X0075650Y0066414D01*
X0075650Y0066452D01*
X0075650Y0072358D02*
X0077658Y0072358D01*
X0077658Y0072320D01*
X0075650Y0072320D01*
X0075650Y0072358D01*
X0075650Y0078263D02*
X0077658Y0078263D01*
X0077658Y0078225D01*
X0075650Y0078225D01*
X0075650Y0078263D01*
X0075650Y0084169D02*
X0077658Y0084169D01*
X0077658Y0084131D01*
X0075650Y0084131D01*
X0075650Y0084169D01*
X0075650Y0090074D02*
X0077658Y0090074D01*
X0077658Y0090036D01*
X0075650Y0090036D01*
X0075650Y0090074D01*
X0075650Y0095980D02*
X0077658Y0095980D01*
X0077658Y0095942D01*
X0075650Y0095942D01*
X0075650Y0095980D01*
X0075650Y0101885D02*
X0077658Y0101885D01*
X0077658Y0101847D01*
X0075650Y0101847D01*
X0075650Y0101885D01*
X0070572Y0109012D02*
X0070572Y0111020D01*
X0070610Y0111020D01*
X0070610Y0109012D01*
X0070572Y0109012D01*
X0064666Y0109012D02*
X0064666Y0111020D01*
X0064704Y0111020D01*
X0064704Y0109012D01*
X0064666Y0109012D01*
X0058761Y0109012D02*
X0058761Y0111020D01*
X0058799Y0111020D01*
X0058799Y0109012D01*
X0058761Y0109012D01*
X0052855Y0109012D02*
X0052855Y0111020D01*
X0052893Y0111020D01*
X0052893Y0109012D01*
X0052855Y0109012D01*
X0046950Y0109012D02*
X0046950Y0111020D01*
X0046988Y0111020D01*
X0046988Y0109012D01*
X0046950Y0109012D01*
X0041044Y0109012D02*
X0041044Y0111020D01*
X0041082Y0111020D01*
X0041082Y0109012D01*
X0041044Y0109012D01*
X0035138Y0109012D02*
X0035138Y0111020D01*
X0035176Y0111020D01*
X0035176Y0109012D01*
X0035138Y0109012D01*
X0029233Y0109012D02*
X0029233Y0111020D01*
X0029271Y0111020D01*
X0029271Y0109012D01*
X0029233Y0109012D01*
X0024350Y0101847D02*
X0022342Y0101847D01*
X0022342Y0101885D01*
X0024350Y0101885D01*
X0024350Y0101847D01*
X0024350Y0095942D02*
X0022342Y0095942D01*
X0022342Y0095980D01*
X0024350Y0095980D01*
X0024350Y0095942D01*
X0024350Y0090036D02*
X0022342Y0090036D01*
X0022342Y0090074D01*
X0024350Y0090074D01*
X0024350Y0090036D01*
X0024350Y0084131D02*
X0022342Y0084131D01*
X0022342Y0084169D01*
X0024350Y0084169D01*
X0024350Y0084131D01*
X0024350Y0078225D02*
X0022342Y0078225D01*
X0022342Y0078263D01*
X0024350Y0078263D01*
X0024350Y0078225D01*
X0024350Y0072320D02*
X0022342Y0072320D01*
X0022342Y0072358D01*
X0024350Y0072358D01*
X0024350Y0072320D01*
X0024350Y0066414D02*
X0022342Y0066414D01*
X0022342Y0066452D01*
X0024350Y0066452D01*
X0024350Y0066414D01*
X0024350Y0060509D02*
X0022342Y0060509D01*
X0022342Y0060547D01*
X0024350Y0060547D01*
X0024350Y0060509D01*
X0024350Y0054603D02*
X0022342Y0054603D01*
X0022342Y0054641D01*
X0024350Y0054641D01*
X0024350Y0054603D01*
X0024350Y0048698D02*
X0022342Y0048698D01*
X0022342Y0048736D01*
X0024350Y0048736D01*
X0024350Y0048698D01*
X0024350Y0042792D02*
X0022342Y0042792D01*
X0022342Y0042830D01*
X0024350Y0042830D01*
X0024350Y0042792D01*
X0024350Y0036887D02*
X0022342Y0036887D01*
X0022342Y0036925D01*
X0024350Y0036925D01*
X0024350Y0036887D01*
X0024350Y0030981D02*
X0022342Y0030981D01*
X0022342Y0031019D01*
X0024350Y0031019D01*
X0024350Y0030981D01*
X0075650Y0031019D02*
X0077658Y0031019D01*
X0077658Y0030981D01*
X0075650Y0030981D01*
X0075650Y0031019D01*
X0075650Y0036925D02*
X0077658Y0036925D01*
X0077658Y0036887D01*
X0075650Y0036887D01*
X0075650Y0036925D01*
X0075650Y0042830D02*
X0077658Y0042830D01*
X0077658Y0042792D01*
X0075650Y0042792D01*
X0075650Y0042830D01*
X0075650Y0048736D02*
X0077658Y0048736D01*
X0077658Y0048698D01*
X0075650Y0048698D01*
X0075650Y0048736D01*
X0075650Y0054641D02*
X0077658Y0054641D01*
X0077658Y0054603D01*
X0075650Y0054603D01*
X0075650Y0054641D01*
D27*
X0243000Y0056000D03*
X0253000Y0056000D03*
X0253000Y0066000D03*
X0243000Y0066000D03*
X0243000Y0076000D03*
X0253000Y0076000D03*
D28*
X0253000Y0056000D02*
X0253500Y0055750D01*
X0253500Y0050750D01*
X0229750Y0050750D01*
X0229750Y0155750D01*
X0217250Y0168250D01*
X0217250Y0175750D01*
X0218000Y0176622D01*
X0217250Y0168250D02*
X0167250Y0168250D01*
X0167098Y0167799D01*
X0166000Y0167000D01*
X0164750Y0165750D01*
X0164750Y0147000D01*
X0121250Y0147000D01*
X0124625Y0151625D01*
X0124750Y0155750D01*
X0124750Y0163250D01*
X0128500Y0167000D01*
X0129098Y0167799D01*
X0121000Y0168250D02*
X0120000Y0167799D01*
X0119750Y0167000D01*
X0114750Y0162000D01*
X0121000Y0168250D02*
X0121000Y0192000D01*
X0120000Y0192201D01*
X0094750Y0164500D02*
X0092250Y0167000D01*
X0091098Y0167799D01*
X0094750Y0164500D02*
X0094750Y0147000D01*
X0116000Y0147000D01*
X0121000Y0147000D01*
X0122000Y0148000D01*
X0124625Y0151625D01*
X0096740Y0135000D02*
X0096000Y0135750D01*
X0094750Y0137000D01*
X0094750Y0140750D01*
X0071000Y0140750D01*
X0071000Y0116000D01*
X0071000Y0110750D01*
X0070591Y0110016D01*
X0069750Y0109500D01*
X0068500Y0108250D01*
X0068500Y0107000D01*
X0067875Y0106375D01*
X0068500Y0105750D01*
X0068500Y0026250D01*
X0087000Y0026250D01*
X0087000Y0026000D01*
X0089750Y0023250D01*
X0090213Y0023087D01*
X0107260Y0031000D02*
X0107250Y0032000D01*
X0092250Y0047000D01*
X0092250Y0048250D01*
X0114750Y0050750D02*
X0114750Y0032000D01*
X0114740Y0031000D01*
X0135740Y0031000D02*
X0136000Y0032000D01*
X0136000Y0057000D01*
X0137000Y0058000D01*
X0137250Y0058250D01*
X0147250Y0058250D01*
X0154750Y0050750D01*
X0154750Y0033250D01*
X0156000Y0032000D01*
X0156740Y0031000D01*
X0157250Y0030750D01*
X0176000Y0012000D01*
X0198500Y0012000D01*
X0198500Y0020750D01*
X0199125Y0021375D01*
X0198500Y0022000D01*
X0198500Y0062000D01*
X0198740Y0062000D01*
X0178500Y0062000D02*
X0178500Y0057000D01*
X0164750Y0057000D01*
X0164750Y0096000D01*
X0164750Y0147000D01*
X0153500Y0158250D02*
X0157250Y0162000D01*
X0157250Y0167000D01*
X0158000Y0167799D01*
X0158500Y0168250D01*
X0158500Y0192000D01*
X0158000Y0192201D01*
X0094750Y0147000D02*
X0094750Y0140750D01*
X0082000Y0167799D02*
X0082250Y0168250D01*
X0082250Y0185750D01*
X0057250Y0185750D01*
X0041000Y0169500D01*
X0041000Y0155750D01*
X0028500Y0143250D01*
X0028000Y0143000D01*
X0019750Y0162000D02*
X0019750Y0119500D01*
X0028500Y0110750D01*
X0029252Y0110016D01*
X0028500Y0109500D01*
X0028500Y0107000D01*
X0026625Y0105125D01*
X0027250Y0104500D01*
X0066000Y0104500D01*
X0067875Y0106375D01*
X0057441Y0130669D02*
X0057250Y0130750D01*
X0054750Y0133250D01*
X0054750Y0174500D01*
X0058500Y0178250D01*
X0058937Y0179000D01*
X0036102Y0179000D02*
X0036000Y0178250D01*
X0019750Y0162000D01*
X0082250Y0185750D02*
X0082250Y0192000D01*
X0082000Y0192201D01*
X0026625Y0105125D02*
X0023500Y0102000D01*
X0023346Y0101866D01*
X0114750Y0062000D02*
X0114750Y0050750D01*
X0119750Y0050750D01*
X0115740Y0062000D02*
X0114750Y0062000D01*
X0147250Y0062000D02*
X0147250Y0058250D01*
X0147250Y0062000D02*
X0148260Y0062000D01*
X0178134Y0062000D02*
X0178500Y0062000D01*
X0178500Y0057000D02*
X0178500Y0032000D01*
X0178134Y0031000D01*
X0199125Y0021375D02*
X0204750Y0015750D01*
X0207250Y0015750D01*
X0207700Y0015500D01*
X0208500Y0014500D01*
X0227250Y0014500D01*
X0228500Y0015750D01*
X0228500Y0018250D01*
X0257250Y0018250D01*
X0257700Y0019000D01*
X0258500Y0019500D01*
X0258500Y0028250D01*
X0257700Y0029000D01*
X0257250Y0029500D01*
X0253500Y0033250D01*
X0253500Y0050750D01*
D29*
X0260000Y0066000D03*
X0248000Y0072000D03*
X0243000Y0083000D03*
X0217250Y0061250D03*
X0203000Y0071000D03*
X0186000Y0067000D03*
X0178000Y0073000D03*
X0185000Y0079000D03*
X0191000Y0085000D03*
X0181000Y0095000D03*
X0170000Y0086000D03*
X0159000Y0089000D03*
X0159000Y0099000D03*
X0154000Y0100000D03*
X0151000Y0106000D03*
X0148000Y0111000D03*
X0157000Y0106000D03*
X0161000Y0107000D03*
X0169000Y0107000D03*
X0146000Y0092000D03*
X0140000Y0086000D03*
X0136000Y0086000D03*
X0136000Y0093000D03*
X0129000Y0100000D03*
X0125000Y0100000D03*
X0120000Y0100000D03*
X0116000Y0100000D03*
X0111000Y0100000D03*
X0108000Y0096000D03*
X0109000Y0093000D03*
X0106000Y0100000D03*
X0108000Y0109000D03*
X0097000Y0113000D03*
X0097000Y0123000D03*
X0101000Y0126000D03*
X0106000Y0129000D03*
X0124000Y0139000D03*
X0120000Y0144000D03*
X0113000Y0144000D03*
X0106000Y0144000D03*
X0117000Y0151000D03*
X0114750Y0162000D03*
X0134000Y0155000D03*
X0153500Y0158250D03*
X0160000Y0144000D03*
X0154000Y0135000D03*
X0161000Y0127000D03*
X0137000Y0107000D03*
X0143000Y0082000D03*
X0139000Y0079000D03*
X0132000Y0073000D03*
X0132000Y0065000D03*
X0143000Y0067000D03*
X0161000Y0074000D03*
X0122000Y0073000D03*
X0111000Y0073000D03*
X0108000Y0076000D03*
X0102000Y0074000D03*
X0101000Y0067000D03*
X0103500Y0062000D03*
X0101000Y0058000D03*
X0097000Y0048000D03*
X0092250Y0048250D03*
X0083000Y0063000D03*
X0092250Y0068500D03*
X0102000Y0081000D03*
X0091000Y0086000D03*
X0081000Y0086000D03*
X0082250Y0096750D03*
X0092250Y0100750D03*
X0075000Y0108000D03*
X0062000Y0115000D03*
X0067000Y0130000D03*
X0077000Y0130000D03*
X0078000Y0136000D03*
X0079000Y0145000D03*
X0064750Y0097000D03*
X0064750Y0090750D03*
X0119750Y0050750D03*
X0082000Y0031000D03*
X0198000Y0103250D03*
X0233000Y0114000D03*
X0202250Y0027250D03*
D30*
X0207250Y0027250D01*
X0207250Y0025750D01*
X0207700Y0025500D01*
X0208500Y0020750D02*
X0207700Y0020500D01*
X0208500Y0020750D02*
X0214750Y0020750D01*
X0214750Y0094500D01*
X0217250Y0097000D01*
X0218000Y0097882D01*
X0224897Y0103148D02*
X0233200Y0103148D01*
X0233200Y0102550D02*
X0225496Y0102550D01*
X0226094Y0101951D02*
X0233200Y0101951D01*
X0233200Y0101353D02*
X0226693Y0101353D01*
X0227291Y0100754D02*
X0233200Y0100754D01*
X0233200Y0100156D02*
X0227890Y0100156D01*
X0227996Y0100050D02*
X0224050Y0103996D01*
X0222996Y0105050D01*
X0200018Y0105050D01*
X0199529Y0105539D01*
X0198537Y0105950D01*
X0197463Y0105950D01*
X0196471Y0105539D01*
X0195711Y0104779D01*
X0195300Y0103787D01*
X0195300Y0102713D01*
X0195711Y0101721D01*
X0196471Y0100961D01*
X0196940Y0100767D01*
X0196940Y0097453D01*
X0196550Y0097453D01*
X0196550Y0097746D01*
X0195496Y0098800D01*
X0186504Y0098800D01*
X0185450Y0097746D01*
X0185450Y0096496D01*
X0183700Y0094746D01*
X0183700Y0095537D01*
X0183289Y0096529D01*
X0182529Y0097289D01*
X0181537Y0097700D01*
X0180846Y0097700D01*
X0171700Y0106846D01*
X0171700Y0107537D01*
X0171289Y0108529D01*
X0170529Y0109289D01*
X0169537Y0109700D01*
X0168463Y0109700D01*
X0167471Y0109289D01*
X0166711Y0108529D01*
X0166300Y0107537D01*
X0166300Y0106463D01*
X0166711Y0105471D01*
X0167471Y0104711D01*
X0168463Y0104300D01*
X0169154Y0104300D01*
X0178300Y0095154D01*
X0178300Y0094463D01*
X0178711Y0093471D01*
X0179471Y0092711D01*
X0180463Y0092300D01*
X0181254Y0092300D01*
X0172407Y0083453D01*
X0171800Y0083453D01*
X0171800Y0083982D01*
X0172289Y0084471D01*
X0172700Y0085463D01*
X0172700Y0086537D01*
X0172289Y0087529D01*
X0171529Y0088289D01*
X0170537Y0088700D01*
X0169463Y0088700D01*
X0168471Y0088289D01*
X0167711Y0087529D01*
X0167300Y0086537D01*
X0167300Y0085463D01*
X0167711Y0084471D01*
X0168200Y0083982D01*
X0168200Y0083453D01*
X0167079Y0083453D01*
X0166201Y0082574D01*
X0166201Y0075426D01*
X0167079Y0074547D01*
X0173440Y0074547D01*
X0174000Y0075107D01*
X0174560Y0074547D01*
X0175729Y0074547D01*
X0175711Y0074529D01*
X0175300Y0073537D01*
X0175300Y0072463D01*
X0175711Y0071471D01*
X0176471Y0070711D01*
X0176962Y0070508D01*
X0172317Y0065862D01*
X0166883Y0065862D01*
X0166004Y0064984D01*
X0166004Y0059016D01*
X0166883Y0058138D01*
X0172850Y0058138D01*
X0173728Y0059016D01*
X0173728Y0062183D01*
X0174472Y0062926D01*
X0174472Y0062300D01*
X0177834Y0062300D01*
X0177834Y0065662D01*
X0177208Y0065662D01*
X0184246Y0072700D01*
X0195154Y0072700D01*
X0194802Y0072348D01*
X0190635Y0069060D01*
X0190514Y0069060D01*
X0190062Y0068607D01*
X0189560Y0068211D01*
X0189545Y0068091D01*
X0189460Y0068005D01*
X0189460Y0067366D01*
X0189385Y0066730D01*
X0189460Y0066635D01*
X0189460Y0066453D01*
X0188696Y0066453D01*
X0188700Y0066463D01*
X0188700Y0067537D01*
X0188289Y0068529D01*
X0187529Y0069289D01*
X0186537Y0069700D01*
X0185463Y0069700D01*
X0184471Y0069289D01*
X0183711Y0068529D01*
X0183300Y0067537D01*
X0183300Y0066463D01*
X0183711Y0065471D01*
X0184200Y0064982D01*
X0184200Y0064254D01*
X0187200Y0061254D01*
X0187201Y0061254D01*
X0187201Y0060746D01*
X0181700Y0055246D01*
X0181700Y0033877D01*
X0181536Y0034160D01*
X0181294Y0034402D01*
X0180998Y0034574D01*
X0180667Y0034662D01*
X0178434Y0034662D01*
X0178434Y0031300D01*
X0177834Y0031300D01*
X0177834Y0034662D01*
X0175600Y0034662D01*
X0175300Y0034582D01*
X0175300Y0035246D01*
X0174246Y0036300D01*
X0164050Y0046496D01*
X0164050Y0071496D01*
X0163182Y0072364D01*
X0163289Y0072471D01*
X0163700Y0073463D01*
X0163700Y0074537D01*
X0163289Y0075529D01*
X0162800Y0076018D01*
X0162800Y0076746D01*
X0161746Y0077800D01*
X0159799Y0079746D01*
X0159799Y0082574D01*
X0158921Y0083453D01*
X0157540Y0083453D01*
X0157540Y0085200D01*
X0157746Y0085200D01*
X0158800Y0086254D01*
X0158800Y0086254D01*
X0158846Y0086300D01*
X0159537Y0086300D01*
X0160529Y0086711D01*
X0161289Y0087471D01*
X0161700Y0088463D01*
X0161700Y0089537D01*
X0161289Y0090529D01*
X0160529Y0091289D01*
X0159537Y0091700D01*
X0158463Y0091700D01*
X0157540Y0091318D01*
X0157540Y0093613D01*
X0156486Y0094668D01*
X0153854Y0097300D01*
X0154537Y0097300D01*
X0155529Y0097711D01*
X0156289Y0098471D01*
X0156300Y0098497D01*
X0156300Y0098463D01*
X0156711Y0097471D01*
X0157471Y0096711D01*
X0158463Y0096300D01*
X0159537Y0096300D01*
X0160529Y0096711D01*
X0161289Y0097471D01*
X0161700Y0098463D01*
X0161700Y0099537D01*
X0161289Y0100529D01*
X0160800Y0101018D01*
X0160800Y0102822D01*
X0160911Y0103378D01*
X0160800Y0103545D01*
X0160800Y0103746D01*
X0160399Y0104147D01*
X0160233Y0104395D01*
X0160463Y0104300D01*
X0161537Y0104300D01*
X0162529Y0104711D01*
X0163289Y0105471D01*
X0163700Y0106463D01*
X0163700Y0107537D01*
X0163289Y0108529D01*
X0162529Y0109289D01*
X0161537Y0109700D01*
X0160846Y0109700D01*
X0144746Y0125800D01*
X0142214Y0125800D01*
X0142046Y0125632D01*
X0137612Y0130066D01*
X0137747Y0130201D01*
X0153402Y0130221D01*
X0158300Y0126718D01*
X0158300Y0126463D01*
X0158711Y0125471D01*
X0159471Y0124711D01*
X0160463Y0124300D01*
X0161537Y0124300D01*
X0162529Y0124711D01*
X0163289Y0125471D01*
X0163700Y0126463D01*
X0163700Y0127537D01*
X0163289Y0128529D01*
X0162529Y0129289D01*
X0161537Y0129700D01*
X0160463Y0129700D01*
X0160372Y0129662D01*
X0155771Y0132953D01*
X0156289Y0133471D01*
X0156700Y0134463D01*
X0156700Y0135537D01*
X0156289Y0136529D01*
X0155529Y0137289D01*
X0154537Y0137700D01*
X0153463Y0137700D01*
X0152471Y0137289D01*
X0151982Y0136800D01*
X0136254Y0136800D01*
X0135200Y0135746D01*
X0133566Y0134112D01*
X0131621Y0136056D01*
X0130379Y0136056D01*
X0128800Y0134478D01*
X0128800Y0142200D01*
X0157982Y0142200D01*
X0158471Y0141711D01*
X0159463Y0141300D01*
X0160537Y0141300D01*
X0161529Y0141711D01*
X0162289Y0142471D01*
X0162700Y0143463D01*
X0162700Y0144537D01*
X0162289Y0145529D01*
X0161529Y0146289D01*
X0160537Y0146700D01*
X0159463Y0146700D01*
X0158471Y0146289D01*
X0157982Y0145800D01*
X0127254Y0145800D01*
X0126200Y0144746D01*
X0125200Y0143746D01*
X0125200Y0141425D01*
X0124537Y0141700D01*
X0123463Y0141700D01*
X0122471Y0141289D01*
X0121800Y0140618D01*
X0121800Y0141982D01*
X0122289Y0142471D01*
X0122700Y0143463D01*
X0122700Y0144537D01*
X0122289Y0145529D01*
X0121529Y0146289D01*
X0120537Y0146700D01*
X0119463Y0146700D01*
X0118471Y0146289D01*
X0117711Y0145529D01*
X0117300Y0144537D01*
X0117300Y0143463D01*
X0117711Y0142471D01*
X0118200Y0141982D01*
X0118200Y0133254D01*
X0119254Y0132200D01*
X0122888Y0128566D01*
X0119954Y0125632D01*
X0114800Y0130786D01*
X0114800Y0141982D01*
X0115289Y0142471D01*
X0115700Y0143463D01*
X0115700Y0144537D01*
X0115289Y0145529D01*
X0114529Y0146289D01*
X0113537Y0146700D01*
X0112463Y0146700D01*
X0111471Y0146289D01*
X0110711Y0145529D01*
X0110300Y0144537D01*
X0110300Y0143463D01*
X0110711Y0142471D01*
X0111200Y0141982D01*
X0111200Y0129295D01*
X0112254Y0128240D01*
X0112695Y0127800D01*
X0108425Y0127800D01*
X0108700Y0128463D01*
X0108700Y0129537D01*
X0108289Y0130529D01*
X0107800Y0131018D01*
X0107800Y0141982D01*
X0108289Y0142471D01*
X0108700Y0143463D01*
X0108700Y0144537D01*
X0108289Y0145529D01*
X0107529Y0146289D01*
X0106537Y0146700D01*
X0105463Y0146700D01*
X0104471Y0146289D01*
X0103711Y0145529D01*
X0103300Y0144537D01*
X0103300Y0143463D01*
X0103711Y0142471D01*
X0104200Y0141982D01*
X0104200Y0131018D01*
X0103711Y0130529D01*
X0103300Y0129537D01*
X0103300Y0128463D01*
X0103575Y0127800D01*
X0103018Y0127800D01*
X0102529Y0128289D01*
X0101537Y0128700D01*
X0100463Y0128700D01*
X0099471Y0128289D01*
X0098711Y0127529D01*
X0098300Y0126537D01*
X0098300Y0125463D01*
X0098339Y0125368D01*
X0097537Y0125700D01*
X0096463Y0125700D01*
X0095471Y0125289D01*
X0094711Y0124529D01*
X0094300Y0123537D01*
X0094300Y0122463D01*
X0094711Y0121471D01*
X0095471Y0120711D01*
X0096463Y0120300D01*
X0097537Y0120300D01*
X0098529Y0120711D01*
X0099018Y0121200D01*
X0113170Y0121200D01*
X0114346Y0120024D01*
X0113944Y0119621D01*
X0113944Y0118379D01*
X0117409Y0114914D01*
X0113295Y0110800D01*
X0110018Y0110800D01*
X0109529Y0111289D01*
X0108537Y0111700D01*
X0107463Y0111700D01*
X0106471Y0111289D01*
X0105711Y0110529D01*
X0105300Y0109537D01*
X0105300Y0108463D01*
X0105711Y0107471D01*
X0106471Y0106711D01*
X0107463Y0106300D01*
X0108537Y0106300D01*
X0109529Y0106711D01*
X0110018Y0107200D01*
X0112654Y0107200D01*
X0108934Y0103479D01*
X0106995Y0102510D01*
X0106537Y0102700D01*
X0105463Y0102700D01*
X0104471Y0102289D01*
X0103711Y0101529D01*
X0103300Y0100537D01*
X0103300Y0099463D01*
X0103711Y0098471D01*
X0104471Y0097711D01*
X0105463Y0097300D01*
X0105616Y0097300D01*
X0105300Y0096537D01*
X0105300Y0095463D01*
X0105630Y0094665D01*
X0101300Y0098996D01*
X0100246Y0100050D01*
X0094882Y0100050D01*
X0094950Y0100213D01*
X0094950Y0100904D01*
X0095593Y0101547D01*
X0099921Y0101547D01*
X0100799Y0102426D01*
X0100799Y0109574D01*
X0099921Y0110453D01*
X0098540Y0110453D01*
X0098540Y0110722D01*
X0099289Y0111471D01*
X0099700Y0112463D01*
X0099700Y0113537D01*
X0099289Y0114529D01*
X0098529Y0115289D01*
X0097537Y0115700D01*
X0096463Y0115700D01*
X0095471Y0115289D01*
X0094711Y0114529D01*
X0094300Y0113537D01*
X0094300Y0112463D01*
X0094711Y0111471D01*
X0094940Y0111241D01*
X0094940Y0110453D01*
X0093560Y0110453D01*
X0093000Y0109893D01*
X0092440Y0110453D01*
X0086079Y0110453D01*
X0085201Y0109574D01*
X0085201Y0102426D01*
X0086079Y0101547D01*
X0087950Y0101547D01*
X0087950Y0097504D01*
X0088002Y0097453D01*
X0086473Y0097453D01*
X0085594Y0096574D01*
X0085594Y0094800D01*
X0084118Y0094800D01*
X0084539Y0095221D01*
X0084950Y0096213D01*
X0084950Y0097287D01*
X0084539Y0098279D01*
X0083779Y0099039D01*
X0082787Y0099450D01*
X0081756Y0099450D01*
X0080736Y0100266D01*
X0081106Y0101160D01*
X0081106Y0102572D01*
X0080581Y0103839D01*
X0079611Y0104810D01*
X0078343Y0105335D01*
X0075621Y0105335D01*
X0076529Y0105711D01*
X0077289Y0106471D01*
X0077700Y0107463D01*
X0077700Y0108537D01*
X0077289Y0109529D01*
X0076529Y0110289D01*
X0075537Y0110700D01*
X0074463Y0110700D01*
X0073859Y0110450D01*
X0073859Y0111340D01*
X0073734Y0111967D01*
X0073489Y0112559D01*
X0073134Y0113091D01*
X0072681Y0113543D01*
X0072149Y0113899D01*
X0071558Y0114144D01*
X0070930Y0114268D01*
X0070891Y0114268D01*
X0070891Y0110316D01*
X0070291Y0110316D01*
X0070291Y0114268D01*
X0070251Y0114268D01*
X0069623Y0114144D01*
X0069032Y0113899D01*
X0068500Y0113543D01*
X0068047Y0113091D01*
X0067759Y0112659D01*
X0067628Y0112973D01*
X0066658Y0113943D01*
X0065391Y0114468D01*
X0064700Y0114468D01*
X0064700Y0115537D01*
X0064289Y0116529D01*
X0063800Y0117018D01*
X0063800Y0127496D01*
X0063869Y0127496D01*
X0064573Y0128200D01*
X0064982Y0128200D01*
X0065471Y0127711D01*
X0066463Y0127300D01*
X0067537Y0127300D01*
X0068529Y0127711D01*
X0069289Y0128471D01*
X0069700Y0129463D01*
X0069700Y0130537D01*
X0069289Y0131529D01*
X0068529Y0132289D01*
X0067537Y0132700D01*
X0066463Y0132700D01*
X0065471Y0132289D01*
X0064982Y0131800D01*
X0064748Y0131800D01*
X0064748Y0132964D01*
X0063869Y0133843D01*
X0061249Y0133843D01*
X0060370Y0132964D01*
X0060370Y0131585D01*
X0060200Y0131415D01*
X0060200Y0117018D01*
X0059711Y0116529D01*
X0059300Y0115537D01*
X0059300Y0114468D01*
X0058074Y0114468D01*
X0056806Y0113943D01*
X0055836Y0112973D01*
X0055827Y0112951D01*
X0055817Y0112973D01*
X0054847Y0113943D01*
X0053580Y0114468D01*
X0052168Y0114468D01*
X0050901Y0113943D01*
X0049931Y0112973D01*
X0049921Y0112951D01*
X0049912Y0112973D01*
X0048942Y0113943D01*
X0047674Y0114468D01*
X0046263Y0114468D01*
X0044995Y0113943D01*
X0044025Y0112973D01*
X0044016Y0112951D01*
X0044006Y0112973D01*
X0043036Y0113943D01*
X0041769Y0114468D01*
X0040357Y0114468D01*
X0039090Y0113943D01*
X0038120Y0112973D01*
X0038110Y0112951D01*
X0038101Y0112973D01*
X0037131Y0113943D01*
X0035863Y0114468D01*
X0034452Y0114468D01*
X0033184Y0113943D01*
X0032214Y0112973D01*
X0032084Y0112659D01*
X0031795Y0113091D01*
X0031343Y0113543D01*
X0030811Y0113899D01*
X0030219Y0114144D01*
X0029592Y0114268D01*
X0029552Y0114268D01*
X0029552Y0110316D01*
X0028952Y0110316D01*
X0028952Y0114268D01*
X0028912Y0114268D01*
X0028285Y0114144D01*
X0027693Y0113899D01*
X0027161Y0113543D01*
X0026709Y0113091D01*
X0026353Y0112559D01*
X0026108Y0111967D01*
X0025983Y0111340D01*
X0025983Y0110316D01*
X0028952Y0110316D01*
X0028952Y0109716D01*
X0025983Y0109716D01*
X0025983Y0108692D01*
X0026108Y0108064D01*
X0026353Y0107473D01*
X0026709Y0106941D01*
X0027161Y0106488D01*
X0027693Y0106133D01*
X0028285Y0105888D01*
X0028912Y0105763D01*
X0028952Y0105763D01*
X0028952Y0109716D01*
X0029552Y0109716D01*
X0029552Y0105763D01*
X0029592Y0105763D01*
X0030219Y0105888D01*
X0030811Y0106133D01*
X0031343Y0106488D01*
X0031795Y0106941D01*
X0032084Y0107373D01*
X0032214Y0107058D01*
X0033184Y0106088D01*
X0034452Y0105563D01*
X0035863Y0105563D01*
X0037131Y0106088D01*
X0038101Y0107058D01*
X0038110Y0107081D01*
X0038120Y0107058D01*
X0039090Y0106088D01*
X0040357Y0105563D01*
X0041769Y0105563D01*
X0043036Y0106088D01*
X0044006Y0107058D01*
X0044016Y0107081D01*
X0044025Y0107058D01*
X0044995Y0106088D01*
X0046263Y0105563D01*
X0047674Y0105563D01*
X0048942Y0106088D01*
X0049912Y0107058D01*
X0049921Y0107081D01*
X0049931Y0107058D01*
X0050901Y0106088D01*
X0052168Y0105563D01*
X0053580Y0105563D01*
X0054847Y0106088D01*
X0055817Y0107058D01*
X0055827Y0107081D01*
X0055836Y0107058D01*
X0056806Y0106088D01*
X0058074Y0105563D01*
X0059485Y0105563D01*
X0060753Y0106088D01*
X0061723Y0107058D01*
X0061732Y0107081D01*
X0061742Y0107058D01*
X0062712Y0106088D01*
X0063979Y0105563D01*
X0065391Y0105563D01*
X0066658Y0106088D01*
X0067628Y0107058D01*
X0067759Y0107373D01*
X0068047Y0106941D01*
X0068500Y0106488D01*
X0069032Y0106133D01*
X0069623Y0105888D01*
X0070122Y0105789D01*
X0070089Y0105622D01*
X0070200Y0105455D01*
X0070200Y0089254D01*
X0071254Y0088200D01*
X0072677Y0088200D01*
X0072726Y0088082D01*
X0073696Y0087112D01*
X0073718Y0087102D01*
X0073696Y0087093D01*
X0072726Y0086123D01*
X0072201Y0084855D01*
X0072201Y0083444D01*
X0072726Y0082176D01*
X0073696Y0081206D01*
X0073718Y0081197D01*
X0073696Y0081188D01*
X0072726Y0080217D01*
X0072201Y0078950D01*
X0072201Y0077538D01*
X0072726Y0076271D01*
X0073696Y0075301D01*
X0073718Y0075291D01*
X0073696Y0075282D01*
X0072726Y0074312D01*
X0072201Y0073044D01*
X0072201Y0071633D01*
X0072726Y0070365D01*
X0073696Y0069395D01*
X0073718Y0069386D01*
X0073696Y0069377D01*
X0072726Y0068406D01*
X0072201Y0067139D01*
X0072201Y0065727D01*
X0072726Y0064460D01*
X0073696Y0063490D01*
X0073718Y0063480D01*
X0073696Y0063471D01*
X0072726Y0062501D01*
X0072201Y0061233D01*
X0072201Y0059822D01*
X0072726Y0058554D01*
X0073696Y0057584D01*
X0073718Y0057575D01*
X0073696Y0057565D01*
X0072726Y0056595D01*
X0072201Y0055328D01*
X0072201Y0053916D01*
X0072726Y0052649D01*
X0073696Y0051679D01*
X0073718Y0051669D01*
X0073696Y0051660D01*
X0072726Y0050690D01*
X0072201Y0049422D01*
X0072201Y0048011D01*
X0072726Y0046743D01*
X0073696Y0045773D01*
X0073718Y0045764D01*
X0073696Y0045754D01*
X0072726Y0044784D01*
X0072201Y0043517D01*
X0072201Y0042105D01*
X0072726Y0040838D01*
X0073696Y0039868D01*
X0073718Y0039858D01*
X0073696Y0039849D01*
X0072726Y0038879D01*
X0072201Y0037611D01*
X0072201Y0036200D01*
X0072726Y0034932D01*
X0073696Y0033962D01*
X0073718Y0033953D01*
X0073696Y0033943D01*
X0072726Y0032973D01*
X0072201Y0031706D01*
X0072201Y0030294D01*
X0072726Y0029027D01*
X0073696Y0028057D01*
X0074964Y0027531D01*
X0078343Y0027531D01*
X0079611Y0028057D01*
X0080368Y0028814D01*
X0080471Y0028711D01*
X0081463Y0028300D01*
X0082537Y0028300D01*
X0083529Y0028711D01*
X0084289Y0029471D01*
X0084700Y0030463D01*
X0084700Y0031537D01*
X0084289Y0032529D01*
X0083529Y0033289D01*
X0082537Y0033700D01*
X0081463Y0033700D01*
X0080471Y0033289D01*
X0080368Y0033186D01*
X0079611Y0033943D01*
X0079589Y0033953D01*
X0079611Y0033962D01*
X0080581Y0034932D01*
X0081106Y0036200D01*
X0081106Y0037611D01*
X0080754Y0038461D01*
X0084800Y0042506D01*
X0084800Y0060982D01*
X0085201Y0061382D01*
X0085201Y0058426D01*
X0086079Y0057547D01*
X0087950Y0057547D01*
X0087950Y0045004D01*
X0089004Y0043950D01*
X0091700Y0041254D01*
X0091700Y0028707D01*
X0091663Y0028717D01*
X0090513Y0028717D01*
X0090513Y0023387D01*
X0089913Y0023387D01*
X0089913Y0028717D01*
X0088762Y0028717D01*
X0088431Y0028629D01*
X0088135Y0028458D01*
X0087893Y0028216D01*
X0087722Y0027919D01*
X0087633Y0027588D01*
X0087633Y0023387D01*
X0089913Y0023387D01*
X0089913Y0022787D01*
X0090513Y0022787D01*
X0090513Y0017456D01*
X0091663Y0017456D01*
X0091700Y0017466D01*
X0091700Y0014350D01*
X0088312Y0014350D01*
X0087433Y0013472D01*
X0087433Y0005000D01*
X0082000Y0005000D01*
X0082000Y0027000D01*
X0020000Y0027000D01*
X0020000Y0028445D01*
X0020389Y0028057D01*
X0021656Y0027531D01*
X0025036Y0027531D01*
X0026304Y0028057D01*
X0027274Y0029027D01*
X0027799Y0030294D01*
X0027799Y0031706D01*
X0027274Y0032973D01*
X0026304Y0033943D01*
X0026281Y0033953D01*
X0026304Y0033962D01*
X0027274Y0034932D01*
X0027799Y0036200D01*
X0027799Y0037611D01*
X0027274Y0038879D01*
X0026304Y0039849D01*
X0026281Y0039858D01*
X0026304Y0039868D01*
X0027274Y0040838D01*
X0027799Y0042105D01*
X0027799Y0043517D01*
X0027274Y0044784D01*
X0026304Y0045754D01*
X0026281Y0045764D01*
X0026304Y0045773D01*
X0027274Y0046743D01*
X0027799Y0048011D01*
X0027799Y0049422D01*
X0027274Y0050690D01*
X0026304Y0051660D01*
X0026281Y0051669D01*
X0026304Y0051679D01*
X0027274Y0052649D01*
X0027799Y0053916D01*
X0027799Y0055328D01*
X0027274Y0056595D01*
X0026304Y0057565D01*
X0026281Y0057575D01*
X0026304Y0057584D01*
X0027274Y0058554D01*
X0027799Y0059822D01*
X0027799Y0061233D01*
X0027274Y0062501D01*
X0026304Y0063471D01*
X0026281Y0063480D01*
X0026304Y0063490D01*
X0027274Y0064460D01*
X0027799Y0065727D01*
X0027799Y0067139D01*
X0027274Y0068406D01*
X0026304Y0069377D01*
X0026281Y0069386D01*
X0026304Y0069395D01*
X0027274Y0070365D01*
X0027799Y0071633D01*
X0027799Y0073044D01*
X0027274Y0074312D01*
X0026304Y0075282D01*
X0026281Y0075291D01*
X0026304Y0075301D01*
X0027274Y0076271D01*
X0027799Y0077538D01*
X0027799Y0078950D01*
X0027274Y0080217D01*
X0026304Y0081188D01*
X0026281Y0081197D01*
X0026304Y0081206D01*
X0027274Y0082176D01*
X0027799Y0083444D01*
X0027799Y0084855D01*
X0027274Y0086123D01*
X0026304Y0087093D01*
X0026281Y0087102D01*
X0026304Y0087112D01*
X0027274Y0088082D01*
X0027634Y0088950D01*
X0062732Y0088950D01*
X0063221Y0088461D01*
X0064213Y0088050D01*
X0065287Y0088050D01*
X0066279Y0088461D01*
X0067039Y0089221D01*
X0067450Y0090213D01*
X0067450Y0091287D01*
X0067039Y0092279D01*
X0066279Y0093039D01*
X0065287Y0093450D01*
X0064213Y0093450D01*
X0063221Y0093039D01*
X0062732Y0092550D01*
X0026753Y0092550D01*
X0026304Y0092999D01*
X0026281Y0093008D01*
X0026304Y0093017D01*
X0027274Y0093987D01*
X0027776Y0095200D01*
X0062732Y0095200D01*
X0063221Y0094711D01*
X0064213Y0094300D01*
X0065287Y0094300D01*
X0066279Y0094711D01*
X0067039Y0095471D01*
X0067450Y0096463D01*
X0067450Y0097537D01*
X0067039Y0098529D01*
X0066279Y0099289D01*
X0065287Y0099700D01*
X0064213Y0099700D01*
X0063221Y0099289D01*
X0062732Y0098800D01*
X0026408Y0098800D01*
X0026304Y0098904D01*
X0025989Y0099034D01*
X0026421Y0099323D01*
X0026874Y0099775D01*
X0027229Y0100308D01*
X0027474Y0100899D01*
X0027599Y0101526D01*
X0027599Y0101566D01*
X0023646Y0101566D01*
X0023646Y0102166D01*
X0023046Y0102166D01*
X0023046Y0105135D01*
X0022023Y0105135D01*
X0021395Y0105010D01*
X0020804Y0104765D01*
X0020272Y0104409D01*
X0020000Y0104138D01*
X0020000Y0199461D01*
X0265000Y0199461D01*
X0265000Y0005000D01*
X0092992Y0005000D01*
X0092992Y0007700D01*
X0127996Y0007700D01*
X0129050Y0008754D01*
X0129050Y0026547D01*
X0130157Y0026547D01*
X0131700Y0025004D01*
X0132754Y0023950D01*
X0149246Y0023950D01*
X0150300Y0025004D01*
X0150300Y0026547D01*
X0152440Y0026547D01*
X0153141Y0027248D01*
X0153383Y0027007D01*
X0153679Y0026836D01*
X0154010Y0026747D01*
X0156440Y0026747D01*
X0156440Y0030700D01*
X0157040Y0030700D01*
X0157040Y0026747D01*
X0159470Y0026747D01*
X0159801Y0026836D01*
X0160097Y0027007D01*
X0160339Y0027249D01*
X0160511Y0027545D01*
X0160599Y0027876D01*
X0160599Y0030700D01*
X0157040Y0030700D01*
X0157040Y0031300D01*
X0156440Y0031300D01*
X0156440Y0035253D01*
X0154010Y0035253D01*
X0153679Y0035164D01*
X0153383Y0034993D01*
X0153141Y0034752D01*
X0152440Y0035453D01*
X0146079Y0035453D01*
X0145201Y0034574D01*
X0145201Y0027550D01*
X0139512Y0027550D01*
X0139599Y0027876D01*
X0139599Y0030700D01*
X0136040Y0030700D01*
X0136040Y0031300D01*
X0135440Y0031300D01*
X0135440Y0035253D01*
X0133010Y0035253D01*
X0132679Y0035164D01*
X0132383Y0034993D01*
X0132141Y0034752D01*
X0131440Y0035453D01*
X0125079Y0035453D01*
X0124201Y0034574D01*
X0124201Y0027426D01*
X0125079Y0026547D01*
X0125450Y0026547D01*
X0125450Y0011300D01*
X0095300Y0011300D01*
X0095300Y0040414D01*
X0103201Y0032514D01*
X0103201Y0027426D01*
X0104079Y0026547D01*
X0109200Y0026547D01*
X0109200Y0025004D01*
X0110254Y0023950D01*
X0117996Y0023950D01*
X0119050Y0025004D01*
X0124050Y0030004D01*
X0124050Y0055341D01*
X0124641Y0054750D01*
X0129359Y0054750D01*
X0130750Y0056141D01*
X0130750Y0056450D01*
X0133554Y0056450D01*
X0133598Y0056285D01*
X0133885Y0055790D01*
X0134290Y0055385D01*
X0134785Y0055098D01*
X0135339Y0054950D01*
X0136700Y0054950D01*
X0136700Y0057700D01*
X0137300Y0057700D01*
X0137300Y0058300D01*
X0136700Y0058300D01*
X0136700Y0061050D01*
X0136346Y0061050D01*
X0136746Y0061450D01*
X0144246Y0061450D01*
X0144401Y0061605D01*
X0144401Y0058876D01*
X0144489Y0058545D01*
X0144661Y0058249D01*
X0144903Y0058007D01*
X0145199Y0057836D01*
X0145530Y0057747D01*
X0147960Y0057747D01*
X0147960Y0061700D01*
X0148560Y0061700D01*
X0148560Y0057747D01*
X0150990Y0057747D01*
X0151321Y0057836D01*
X0151617Y0058007D01*
X0151859Y0058248D01*
X0152560Y0057547D01*
X0157950Y0057547D01*
X0157950Y0041254D01*
X0159004Y0040200D01*
X0166004Y0033200D01*
X0166004Y0028016D01*
X0166883Y0027138D01*
X0172067Y0027138D01*
X0179200Y0020004D01*
X0180254Y0018950D01*
X0182900Y0018950D01*
X0182900Y0018829D01*
X0183729Y0018000D01*
X0182900Y0017171D01*
X0182900Y0013829D01*
X0183779Y0012950D01*
X0192821Y0012950D01*
X0193700Y0013829D01*
X0193700Y0017171D01*
X0192871Y0018000D01*
X0193700Y0018829D01*
X0193700Y0022171D01*
X0192871Y0023000D01*
X0193700Y0023829D01*
X0193700Y0027171D01*
X0192871Y0028000D01*
X0193700Y0028829D01*
X0193700Y0032171D01*
X0192821Y0033050D01*
X0185300Y0033050D01*
X0185300Y0053754D01*
X0189093Y0057547D01*
X0194440Y0057547D01*
X0195141Y0058248D01*
X0195383Y0058007D01*
X0195679Y0057836D01*
X0196010Y0057747D01*
X0198440Y0057747D01*
X0198440Y0061700D01*
X0199040Y0061700D01*
X0199040Y0057747D01*
X0201470Y0057747D01*
X0201801Y0057836D01*
X0202097Y0058007D01*
X0202339Y0058249D01*
X0202511Y0058545D01*
X0202599Y0058876D01*
X0202599Y0061700D01*
X0199040Y0061700D01*
X0199040Y0062300D01*
X0198440Y0062300D01*
X0198440Y0066253D01*
X0196010Y0066253D01*
X0195679Y0066164D01*
X0195383Y0065993D01*
X0195141Y0065752D01*
X0194440Y0066453D01*
X0193143Y0066453D01*
X0196625Y0069200D01*
X0200982Y0069200D01*
X0201471Y0068711D01*
X0202463Y0068300D01*
X0203537Y0068300D01*
X0204529Y0068711D01*
X0205289Y0069471D01*
X0205450Y0069859D01*
X0205450Y0033050D01*
X0203179Y0033050D01*
X0202300Y0032171D01*
X0202300Y0029950D01*
X0201713Y0029950D01*
X0200721Y0029539D01*
X0199961Y0028779D01*
X0199550Y0027787D01*
X0199550Y0026713D01*
X0199961Y0025721D01*
X0200721Y0024961D01*
X0201713Y0024550D01*
X0202300Y0024550D01*
X0202300Y0023829D01*
X0203129Y0023000D01*
X0202300Y0022171D01*
X0202300Y0018829D01*
X0203179Y0017950D01*
X0212221Y0017950D01*
X0213100Y0018829D01*
X0213100Y0018950D01*
X0215496Y0018950D01*
X0216550Y0020004D01*
X0216550Y0058618D01*
X0216713Y0058550D01*
X0217159Y0058550D01*
X0220500Y0054547D01*
X0220500Y0032650D01*
X0217729Y0032650D01*
X0216850Y0031771D01*
X0216850Y0026229D01*
X0217729Y0025350D01*
X0225450Y0025350D01*
X0225450Y0023996D01*
X0224104Y0022650D01*
X0217729Y0022650D01*
X0216850Y0021771D01*
X0216850Y0016229D01*
X0217729Y0015350D01*
X0226871Y0015350D01*
X0227750Y0016229D01*
X0227750Y0021204D01*
X0227996Y0021450D01*
X0229050Y0022504D01*
X0229050Y0098996D01*
X0227996Y0100050D01*
X0227996Y0100050D01*
X0228488Y0099557D02*
X0233200Y0099557D01*
X0233200Y0098959D02*
X0229050Y0098959D01*
X0229050Y0098360D02*
X0233200Y0098360D01*
X0233200Y0097762D02*
X0229050Y0097762D01*
X0229050Y0097163D02*
X0233200Y0097163D01*
X0233200Y0096565D02*
X0229050Y0096565D01*
X0229050Y0095966D02*
X0233200Y0095966D01*
X0233200Y0095368D02*
X0229050Y0095368D01*
X0229050Y0094769D02*
X0233200Y0094769D01*
X0233200Y0094171D02*
X0229050Y0094171D01*
X0229050Y0093572D02*
X0233200Y0093572D01*
X0233200Y0092974D02*
X0229050Y0092974D01*
X0229050Y0092375D02*
X0233200Y0092375D01*
X0233200Y0091777D02*
X0229050Y0091777D01*
X0229050Y0091178D02*
X0233200Y0091178D01*
X0233200Y0090580D02*
X0229050Y0090580D01*
X0229050Y0089981D02*
X0233200Y0089981D01*
X0233200Y0089383D02*
X0229050Y0089383D01*
X0229050Y0088784D02*
X0233200Y0088784D01*
X0233200Y0088186D02*
X0229050Y0088186D01*
X0229050Y0087587D02*
X0233200Y0087587D01*
X0233200Y0086989D02*
X0229050Y0086989D01*
X0229050Y0086390D02*
X0233200Y0086390D01*
X0233200Y0085792D02*
X0229050Y0085792D01*
X0229050Y0085193D02*
X0233200Y0085193D01*
X0233200Y0084595D02*
X0229050Y0084595D01*
X0229050Y0083996D02*
X0233200Y0083996D01*
X0233200Y0083398D02*
X0229050Y0083398D01*
X0229050Y0082799D02*
X0233200Y0082799D01*
X0233200Y0082201D02*
X0229050Y0082201D01*
X0229050Y0081602D02*
X0233200Y0081602D01*
X0233200Y0081003D02*
X0229050Y0081003D01*
X0229050Y0080405D02*
X0233200Y0080405D01*
X0233200Y0079806D02*
X0229050Y0079806D01*
X0229050Y0079208D02*
X0233200Y0079208D01*
X0233200Y0078609D02*
X0229050Y0078609D01*
X0229050Y0078011D02*
X0233200Y0078011D01*
X0233200Y0077412D02*
X0229050Y0077412D01*
X0229050Y0076814D02*
X0233200Y0076814D01*
X0233200Y0076215D02*
X0229050Y0076215D01*
X0229050Y0075617D02*
X0233200Y0075617D01*
X0233200Y0075018D02*
X0229050Y0075018D01*
X0229050Y0074420D02*
X0233200Y0074420D01*
X0233200Y0073821D02*
X0229050Y0073821D01*
X0229050Y0073223D02*
X0233200Y0073223D01*
X0233200Y0072624D02*
X0229050Y0072624D01*
X0229050Y0072026D02*
X0233200Y0072026D01*
X0233200Y0071427D02*
X0229050Y0071427D01*
X0229050Y0070829D02*
X0233200Y0070829D01*
X0233200Y0070230D02*
X0229050Y0070230D01*
X0229050Y0069632D02*
X0233200Y0069632D01*
X0233200Y0069254D02*
X0237200Y0065254D01*
X0238254Y0064200D01*
X0238500Y0064200D01*
X0238500Y0064136D01*
X0241136Y0061500D01*
X0244864Y0061500D01*
X0247500Y0064136D01*
X0247500Y0067864D01*
X0244864Y0070500D01*
X0241136Y0070500D01*
X0239091Y0068455D01*
X0236800Y0070746D01*
X0236800Y0112746D01*
X0235746Y0113800D01*
X0235746Y0113800D01*
X0235700Y0113846D01*
X0235700Y0114537D01*
X0235289Y0115529D01*
X0234529Y0116289D01*
X0233537Y0116700D01*
X0232463Y0116700D01*
X0231471Y0116289D01*
X0230711Y0115529D01*
X0230300Y0114537D01*
X0230300Y0113463D01*
X0230711Y0112471D01*
X0231471Y0111711D01*
X0232463Y0111300D01*
X0233154Y0111300D01*
X0233200Y0111254D01*
X0233200Y0069254D01*
X0233421Y0069033D02*
X0229050Y0069033D01*
X0229050Y0068435D02*
X0234020Y0068435D01*
X0234618Y0067836D02*
X0229050Y0067836D01*
X0229050Y0067238D02*
X0235217Y0067238D01*
X0235815Y0066639D02*
X0229050Y0066639D01*
X0229050Y0066041D02*
X0236414Y0066041D01*
X0237012Y0065442D02*
X0229050Y0065442D01*
X0229050Y0064844D02*
X0237611Y0064844D01*
X0238209Y0064245D02*
X0229050Y0064245D01*
X0229050Y0063647D02*
X0238989Y0063647D01*
X0239588Y0063048D02*
X0229050Y0063048D01*
X0229050Y0062450D02*
X0240186Y0062450D01*
X0240785Y0061851D02*
X0229050Y0061851D01*
X0229050Y0061253D02*
X0265000Y0061253D01*
X0265000Y0061851D02*
X0255215Y0061851D01*
X0254864Y0061500D02*
X0257500Y0064136D01*
X0257500Y0064200D01*
X0257982Y0064200D01*
X0258471Y0063711D01*
X0259463Y0063300D01*
X0260537Y0063300D01*
X0261529Y0063711D01*
X0262289Y0064471D01*
X0262700Y0065463D01*
X0262700Y0066537D01*
X0262289Y0067529D01*
X0261529Y0068289D01*
X0260537Y0068700D01*
X0259463Y0068700D01*
X0258471Y0068289D01*
X0257982Y0067800D01*
X0257500Y0067800D01*
X0257500Y0067864D01*
X0254864Y0070500D01*
X0251136Y0070500D01*
X0248500Y0067864D01*
X0248500Y0064136D01*
X0251136Y0061500D01*
X0254864Y0061500D01*
X0254781Y0060300D02*
X0253300Y0060300D01*
X0253300Y0056300D01*
X0252700Y0056300D01*
X0252700Y0060300D01*
X0251219Y0060300D01*
X0248700Y0057781D01*
X0248700Y0056300D01*
X0252700Y0056300D01*
X0252700Y0055700D01*
X0248700Y0055700D01*
X0248700Y0054219D01*
X0251219Y0051700D01*
X0252700Y0051700D01*
X0252700Y0055700D01*
X0253300Y0055700D01*
X0253300Y0056300D01*
X0257300Y0056300D01*
X0257300Y0057781D01*
X0254781Y0060300D01*
X0255025Y0060056D02*
X0265000Y0060056D01*
X0265000Y0060654D02*
X0229050Y0060654D01*
X0229050Y0060056D02*
X0240692Y0060056D01*
X0241136Y0060500D02*
X0238500Y0057864D01*
X0238500Y0054136D01*
X0241136Y0051500D01*
X0244864Y0051500D01*
X0247500Y0054136D01*
X0247500Y0057864D01*
X0244864Y0060500D01*
X0241136Y0060500D01*
X0240093Y0059457D02*
X0229050Y0059457D01*
X0229050Y0058859D02*
X0239495Y0058859D01*
X0238896Y0058260D02*
X0229050Y0058260D01*
X0229050Y0057662D02*
X0238500Y0057662D01*
X0238500Y0057063D02*
X0229050Y0057063D01*
X0229050Y0056465D02*
X0238500Y0056465D01*
X0238500Y0055866D02*
X0229050Y0055866D01*
X0229050Y0055268D02*
X0238500Y0055268D01*
X0238500Y0054669D02*
X0229050Y0054669D01*
X0229050Y0054070D02*
X0238566Y0054070D01*
X0239164Y0053472D02*
X0229050Y0053472D01*
X0229050Y0052873D02*
X0239763Y0052873D01*
X0240361Y0052275D02*
X0229050Y0052275D01*
X0229050Y0051676D02*
X0240960Y0051676D01*
X0245040Y0051676D02*
X0265000Y0051676D01*
X0265000Y0051078D02*
X0229050Y0051078D01*
X0229050Y0050479D02*
X0265000Y0050479D01*
X0265000Y0049881D02*
X0229050Y0049881D01*
X0229050Y0049282D02*
X0265000Y0049282D01*
X0265000Y0048684D02*
X0229050Y0048684D01*
X0229050Y0048085D02*
X0265000Y0048085D01*
X0265000Y0047487D02*
X0229050Y0047487D01*
X0229050Y0046888D02*
X0265000Y0046888D01*
X0265000Y0046290D02*
X0229050Y0046290D01*
X0229050Y0045691D02*
X0265000Y0045691D01*
X0265000Y0045093D02*
X0229050Y0045093D01*
X0229050Y0044494D02*
X0265000Y0044494D01*
X0265000Y0043896D02*
X0229050Y0043896D01*
X0229050Y0043297D02*
X0265000Y0043297D01*
X0265000Y0042699D02*
X0229050Y0042699D01*
X0229050Y0042100D02*
X0265000Y0042100D01*
X0265000Y0041502D02*
X0229050Y0041502D01*
X0229050Y0040903D02*
X0265000Y0040903D01*
X0265000Y0040305D02*
X0229050Y0040305D01*
X0229050Y0039706D02*
X0265000Y0039706D01*
X0265000Y0039108D02*
X0229050Y0039108D01*
X0229050Y0038509D02*
X0265000Y0038509D01*
X0265000Y0037911D02*
X0229050Y0037911D01*
X0229050Y0037312D02*
X0265000Y0037312D01*
X0265000Y0036714D02*
X0229050Y0036714D01*
X0229050Y0036115D02*
X0265000Y0036115D01*
X0265000Y0035517D02*
X0229050Y0035517D01*
X0229050Y0034918D02*
X0265000Y0034918D01*
X0265000Y0034320D02*
X0229050Y0034320D01*
X0229050Y0033721D02*
X0265000Y0033721D01*
X0265000Y0033123D02*
X0229050Y0033123D01*
X0229050Y0032524D02*
X0265000Y0032524D01*
X0265000Y0031926D02*
X0262703Y0031926D01*
X0262690Y0031948D02*
X0262448Y0032190D01*
X0262152Y0032361D01*
X0261821Y0032450D01*
X0258000Y0032450D01*
X0258000Y0029300D01*
X0257400Y0029300D01*
X0257400Y0032450D01*
X0253579Y0032450D01*
X0253248Y0032361D01*
X0252952Y0032190D01*
X0252710Y0031948D01*
X0252539Y0031652D01*
X0252450Y0031321D01*
X0252450Y0029300D01*
X0257400Y0029300D01*
X0257400Y0028700D01*
X0258000Y0028700D01*
X0258000Y0029300D01*
X0262950Y0029300D01*
X0262950Y0031321D01*
X0262861Y0031652D01*
X0262690Y0031948D01*
X0262948Y0031327D02*
X0265000Y0031327D01*
X0265000Y0030729D02*
X0262950Y0030729D01*
X0262950Y0030130D02*
X0265000Y0030130D01*
X0265000Y0029532D02*
X0262950Y0029532D01*
X0262950Y0028700D02*
X0262950Y0026679D01*
X0262861Y0026348D01*
X0262690Y0026052D01*
X0262448Y0025810D01*
X0262152Y0025639D01*
X0261821Y0025550D01*
X0258000Y0025550D01*
X0258000Y0028700D01*
X0262950Y0028700D01*
X0262950Y0028334D02*
X0265000Y0028334D01*
X0265000Y0027736D02*
X0262950Y0027736D01*
X0262950Y0027137D02*
X0265000Y0027137D01*
X0265000Y0026539D02*
X0262913Y0026539D01*
X0262579Y0025940D02*
X0265000Y0025940D01*
X0265000Y0025342D02*
X0229050Y0025342D01*
X0229050Y0025940D02*
X0252821Y0025940D01*
X0252710Y0026052D02*
X0252952Y0025810D01*
X0253248Y0025639D01*
X0253579Y0025550D01*
X0257400Y0025550D01*
X0257400Y0028700D01*
X0252450Y0028700D01*
X0252450Y0026679D01*
X0252539Y0026348D01*
X0252710Y0026052D01*
X0252487Y0026539D02*
X0229050Y0026539D01*
X0229050Y0027137D02*
X0252450Y0027137D01*
X0252450Y0027736D02*
X0229050Y0027736D01*
X0229050Y0028334D02*
X0252450Y0028334D01*
X0252450Y0029532D02*
X0229050Y0029532D01*
X0229050Y0030130D02*
X0252450Y0030130D01*
X0252450Y0030729D02*
X0229050Y0030729D01*
X0229050Y0031327D02*
X0252452Y0031327D01*
X0252697Y0031926D02*
X0229050Y0031926D01*
X0229050Y0028933D02*
X0257400Y0028933D01*
X0257400Y0028334D02*
X0258000Y0028334D01*
X0258000Y0027736D02*
X0257400Y0027736D01*
X0257400Y0027137D02*
X0258000Y0027137D01*
X0258000Y0026539D02*
X0257400Y0026539D01*
X0257400Y0025940D02*
X0258000Y0025940D01*
X0258000Y0022450D02*
X0258000Y0019300D01*
X0257400Y0019300D01*
X0257400Y0022450D01*
X0253579Y0022450D01*
X0253248Y0022361D01*
X0252952Y0022190D01*
X0252710Y0021948D01*
X0252539Y0021652D01*
X0252450Y0021321D01*
X0252450Y0019300D01*
X0257400Y0019300D01*
X0257400Y0018700D01*
X0258000Y0018700D01*
X0258000Y0019300D01*
X0262950Y0019300D01*
X0262950Y0021321D01*
X0262861Y0021652D01*
X0262690Y0021948D01*
X0262448Y0022190D01*
X0262152Y0022361D01*
X0261821Y0022450D01*
X0258000Y0022450D01*
X0258000Y0022349D02*
X0257400Y0022349D01*
X0257400Y0021751D02*
X0258000Y0021751D01*
X0258000Y0021152D02*
X0257400Y0021152D01*
X0257400Y0020554D02*
X0258000Y0020554D01*
X0258000Y0019955D02*
X0257400Y0019955D01*
X0257400Y0019357D02*
X0258000Y0019357D01*
X0258000Y0018758D02*
X0265000Y0018758D01*
X0265000Y0018160D02*
X0262950Y0018160D01*
X0262950Y0018700D02*
X0262950Y0016679D01*
X0262861Y0016348D01*
X0262690Y0016052D01*
X0262448Y0015810D01*
X0262152Y0015639D01*
X0261821Y0015550D01*
X0258000Y0015550D01*
X0258000Y0018700D01*
X0262950Y0018700D01*
X0262950Y0019357D02*
X0265000Y0019357D01*
X0265000Y0019955D02*
X0262950Y0019955D01*
X0262950Y0020554D02*
X0265000Y0020554D01*
X0265000Y0021152D02*
X0262950Y0021152D01*
X0262804Y0021751D02*
X0265000Y0021751D01*
X0265000Y0022349D02*
X0262173Y0022349D01*
X0265000Y0022948D02*
X0229050Y0022948D01*
X0229050Y0023546D02*
X0265000Y0023546D01*
X0265000Y0024145D02*
X0229050Y0024145D01*
X0229050Y0024743D02*
X0265000Y0024743D01*
X0265000Y0028933D02*
X0258000Y0028933D01*
X0258000Y0029532D02*
X0257400Y0029532D01*
X0257400Y0030130D02*
X0258000Y0030130D01*
X0258000Y0030729D02*
X0257400Y0030729D01*
X0257400Y0031327D02*
X0258000Y0031327D01*
X0258000Y0031926D02*
X0257400Y0031926D01*
X0253227Y0022349D02*
X0228895Y0022349D01*
X0228296Y0021751D02*
X0252596Y0021751D01*
X0252450Y0021152D02*
X0227750Y0021152D01*
X0227750Y0020554D02*
X0252450Y0020554D01*
X0252450Y0019955D02*
X0227750Y0019955D01*
X0227750Y0019357D02*
X0252450Y0019357D01*
X0252450Y0018700D02*
X0252450Y0016679D01*
X0252539Y0016348D01*
X0252710Y0016052D01*
X0252952Y0015810D01*
X0253248Y0015639D01*
X0253579Y0015550D01*
X0257400Y0015550D01*
X0257400Y0018700D01*
X0252450Y0018700D01*
X0252450Y0018160D02*
X0227750Y0018160D01*
X0227750Y0018758D02*
X0257400Y0018758D01*
X0257400Y0018160D02*
X0258000Y0018160D01*
X0258000Y0017561D02*
X0257400Y0017561D01*
X0257400Y0016963D02*
X0258000Y0016963D01*
X0258000Y0016364D02*
X0257400Y0016364D01*
X0257400Y0015766D02*
X0258000Y0015766D01*
X0262372Y0015766D02*
X0265000Y0015766D01*
X0265000Y0016364D02*
X0262866Y0016364D01*
X0262950Y0016963D02*
X0265000Y0016963D01*
X0265000Y0017561D02*
X0262950Y0017561D01*
X0265000Y0015167D02*
X0212900Y0015167D01*
X0212900Y0015275D02*
X0207925Y0015275D01*
X0207925Y0015725D01*
X0212900Y0015725D01*
X0212900Y0016721D01*
X0212811Y0017052D01*
X0212640Y0017348D01*
X0212398Y0017590D01*
X0212102Y0017761D01*
X0211771Y0017850D01*
X0207925Y0017850D01*
X0207925Y0015725D01*
X0207475Y0015725D01*
X0207475Y0017850D01*
X0203629Y0017850D01*
X0203298Y0017761D01*
X0203002Y0017590D01*
X0202760Y0017348D01*
X0202589Y0017052D01*
X0202500Y0016721D01*
X0202500Y0015725D01*
X0207475Y0015725D01*
X0207475Y0015275D01*
X0207925Y0015275D01*
X0207925Y0013150D01*
X0211771Y0013150D01*
X0212102Y0013239D01*
X0212398Y0013410D01*
X0212640Y0013652D01*
X0212811Y0013948D01*
X0212900Y0014279D01*
X0212900Y0015275D01*
X0212900Y0015766D02*
X0217313Y0015766D01*
X0216850Y0016364D02*
X0212900Y0016364D01*
X0212835Y0016963D02*
X0216850Y0016963D01*
X0216850Y0017561D02*
X0212427Y0017561D01*
X0212431Y0018160D02*
X0216850Y0018160D01*
X0216850Y0018758D02*
X0213030Y0018758D01*
X0215902Y0019357D02*
X0216850Y0019357D01*
X0216850Y0019955D02*
X0216501Y0019955D01*
X0216550Y0020554D02*
X0216850Y0020554D01*
X0216850Y0021152D02*
X0216550Y0021152D01*
X0216550Y0021751D02*
X0216850Y0021751D01*
X0216550Y0022349D02*
X0217428Y0022349D01*
X0216550Y0022948D02*
X0224402Y0022948D01*
X0225001Y0023546D02*
X0216550Y0023546D01*
X0216550Y0024145D02*
X0225450Y0024145D01*
X0225450Y0024743D02*
X0216550Y0024743D01*
X0216550Y0025342D02*
X0225450Y0025342D01*
X0227250Y0023250D02*
X0227250Y0098250D01*
X0222250Y0103250D01*
X0198000Y0103250D01*
X0198740Y0102510D01*
X0198740Y0093000D01*
X0198500Y0093250D01*
X0196940Y0097762D02*
X0196534Y0097762D01*
X0196940Y0098360D02*
X0195935Y0098360D01*
X0196940Y0098959D02*
X0179587Y0098959D01*
X0180185Y0098360D02*
X0186065Y0098360D01*
X0185466Y0097762D02*
X0180784Y0097762D01*
X0182655Y0097163D02*
X0185450Y0097163D01*
X0185450Y0096565D02*
X0183254Y0096565D01*
X0183522Y0095966D02*
X0184921Y0095966D01*
X0184322Y0095368D02*
X0183700Y0095368D01*
X0183700Y0094769D02*
X0183724Y0094769D01*
X0181000Y0095000D02*
X0169000Y0107000D01*
X0166465Y0107937D02*
X0163535Y0107937D01*
X0163700Y0107338D02*
X0166300Y0107338D01*
X0166300Y0106739D02*
X0163700Y0106739D01*
X0163567Y0106141D02*
X0166433Y0106141D01*
X0166681Y0105542D02*
X0163319Y0105542D01*
X0162762Y0104944D02*
X0167238Y0104944D01*
X0168353Y0104345D02*
X0161647Y0104345D01*
X0160799Y0103747D02*
X0169707Y0103747D01*
X0170306Y0103148D02*
X0160865Y0103148D01*
X0160800Y0102550D02*
X0170905Y0102550D01*
X0171503Y0101951D02*
X0160800Y0101951D01*
X0160800Y0101353D02*
X0172102Y0101353D01*
X0172700Y0100754D02*
X0161064Y0100754D01*
X0161444Y0100156D02*
X0173299Y0100156D01*
X0173897Y0099557D02*
X0161692Y0099557D01*
X0161700Y0098959D02*
X0174496Y0098959D01*
X0175094Y0098360D02*
X0161657Y0098360D01*
X0161410Y0097762D02*
X0175693Y0097762D01*
X0176291Y0097163D02*
X0160982Y0097163D01*
X0160176Y0096565D02*
X0176890Y0096565D01*
X0177488Y0095966D02*
X0155187Y0095966D01*
X0155000Y0096000D02*
X0164750Y0096000D01*
X0160640Y0091178D02*
X0180133Y0091178D01*
X0180731Y0091777D02*
X0157540Y0091777D01*
X0157540Y0092375D02*
X0180281Y0092375D01*
X0179208Y0092974D02*
X0157540Y0092974D01*
X0157540Y0093572D02*
X0178669Y0093572D01*
X0178421Y0094171D02*
X0156983Y0094171D01*
X0156384Y0094769D02*
X0178300Y0094769D01*
X0178087Y0095368D02*
X0155786Y0095368D01*
X0155000Y0096000D02*
X0138238Y0112762D01*
X0132000Y0119000D01*
X0131000Y0119000D01*
X0129000Y0117000D01*
X0135454Y0110546D01*
X0135454Y0110370D01*
X0136846Y0111762D02*
X0155740Y0092868D01*
X0155740Y0087000D01*
X0157000Y0087000D01*
X0159000Y0089000D01*
X0161516Y0089981D02*
X0178936Y0089981D01*
X0179534Y0090580D02*
X0161239Y0090580D01*
X0161700Y0089383D02*
X0178337Y0089383D01*
X0177739Y0088784D02*
X0161700Y0088784D01*
X0161585Y0088186D02*
X0168367Y0088186D01*
X0167769Y0087587D02*
X0161337Y0087587D01*
X0160807Y0086989D02*
X0167487Y0086989D01*
X0167300Y0086390D02*
X0159755Y0086390D01*
X0158337Y0085792D02*
X0167300Y0085792D01*
X0167412Y0085193D02*
X0157540Y0085193D01*
X0157540Y0084595D02*
X0167660Y0084595D01*
X0168186Y0083996D02*
X0157540Y0083996D01*
X0158976Y0083398D02*
X0167024Y0083398D01*
X0166426Y0082799D02*
X0159574Y0082799D01*
X0159799Y0082201D02*
X0166201Y0082201D01*
X0166201Y0081602D02*
X0159799Y0081602D01*
X0159799Y0081003D02*
X0166201Y0081003D01*
X0166201Y0080405D02*
X0159799Y0080405D01*
X0159799Y0079806D02*
X0166201Y0079806D01*
X0166201Y0079208D02*
X0160338Y0079208D01*
X0160936Y0078609D02*
X0166201Y0078609D01*
X0166201Y0078011D02*
X0161535Y0078011D01*
X0162133Y0077412D02*
X0166201Y0077412D01*
X0166201Y0076814D02*
X0162732Y0076814D01*
X0162800Y0076215D02*
X0166201Y0076215D01*
X0166201Y0075617D02*
X0163201Y0075617D01*
X0163501Y0075018D02*
X0166608Y0075018D01*
X0163700Y0074420D02*
X0175666Y0074420D01*
X0175418Y0073821D02*
X0163700Y0073821D01*
X0163601Y0073223D02*
X0175300Y0073223D01*
X0175300Y0072624D02*
X0163353Y0072624D01*
X0163520Y0072026D02*
X0175481Y0072026D01*
X0175754Y0071427D02*
X0164050Y0071427D01*
X0164050Y0070829D02*
X0176353Y0070829D01*
X0176685Y0070230D02*
X0164050Y0070230D01*
X0164050Y0069632D02*
X0176086Y0069632D01*
X0175488Y0069033D02*
X0164050Y0069033D01*
X0164050Y0068435D02*
X0174889Y0068435D01*
X0174291Y0067836D02*
X0164050Y0067836D01*
X0164050Y0067238D02*
X0173692Y0067238D01*
X0173094Y0066639D02*
X0164050Y0066639D01*
X0164050Y0066041D02*
X0172495Y0066041D01*
X0173995Y0062450D02*
X0174472Y0062450D01*
X0174472Y0061700D02*
X0174472Y0059467D01*
X0174560Y0059136D01*
X0174731Y0058840D01*
X0174973Y0058598D01*
X0175270Y0058426D01*
X0175600Y0058338D01*
X0177834Y0058338D01*
X0177834Y0061700D01*
X0178434Y0061700D01*
X0178434Y0062300D01*
X0181796Y0062300D01*
X0181796Y0064533D01*
X0181707Y0064864D01*
X0181536Y0065160D01*
X0181294Y0065402D01*
X0180998Y0065574D01*
X0180667Y0065662D01*
X0178434Y0065662D01*
X0178434Y0062300D01*
X0177834Y0062300D01*
X0177834Y0061700D01*
X0174472Y0061700D01*
X0174472Y0061253D02*
X0173728Y0061253D01*
X0173728Y0061851D02*
X0177834Y0061851D01*
X0177834Y0061253D02*
X0178434Y0061253D01*
X0178434Y0061700D02*
X0178434Y0058338D01*
X0180667Y0058338D01*
X0180998Y0058426D01*
X0181294Y0058598D01*
X0181536Y0058840D01*
X0181707Y0059136D01*
X0181796Y0059467D01*
X0181796Y0061700D01*
X0178434Y0061700D01*
X0178434Y0061851D02*
X0186603Y0061851D01*
X0187201Y0061253D02*
X0181796Y0061253D01*
X0181796Y0060654D02*
X0187109Y0060654D01*
X0186510Y0060056D02*
X0181796Y0060056D01*
X0181793Y0059457D02*
X0185912Y0059457D01*
X0185313Y0058859D02*
X0181547Y0058859D01*
X0183517Y0057063D02*
X0164050Y0057063D01*
X0164050Y0056465D02*
X0182919Y0056465D01*
X0182320Y0055866D02*
X0164050Y0055866D01*
X0164050Y0055268D02*
X0181722Y0055268D01*
X0181700Y0054669D02*
X0164050Y0054669D01*
X0164050Y0054070D02*
X0181700Y0054070D01*
X0181700Y0053472D02*
X0164050Y0053472D01*
X0164050Y0052873D02*
X0181700Y0052873D01*
X0181700Y0052275D02*
X0164050Y0052275D01*
X0164050Y0051676D02*
X0181700Y0051676D01*
X0181700Y0051078D02*
X0164050Y0051078D01*
X0164050Y0050479D02*
X0181700Y0050479D01*
X0181700Y0049881D02*
X0164050Y0049881D01*
X0164050Y0049282D02*
X0181700Y0049282D01*
X0181700Y0048684D02*
X0164050Y0048684D01*
X0164050Y0048085D02*
X0181700Y0048085D01*
X0181700Y0047487D02*
X0164050Y0047487D01*
X0164050Y0046888D02*
X0181700Y0046888D01*
X0181700Y0046290D02*
X0164256Y0046290D01*
X0164854Y0045691D02*
X0181700Y0045691D01*
X0181700Y0045093D02*
X0165453Y0045093D01*
X0166051Y0044494D02*
X0181700Y0044494D01*
X0181700Y0043896D02*
X0166650Y0043896D01*
X0167248Y0043297D02*
X0181700Y0043297D01*
X0181700Y0042699D02*
X0167847Y0042699D01*
X0168445Y0042100D02*
X0181700Y0042100D01*
X0181700Y0041502D02*
X0169044Y0041502D01*
X0169642Y0040903D02*
X0181700Y0040903D01*
X0181700Y0040305D02*
X0170241Y0040305D01*
X0170839Y0039706D02*
X0181700Y0039706D01*
X0181700Y0039108D02*
X0171438Y0039108D01*
X0172036Y0038509D02*
X0181700Y0038509D01*
X0181700Y0037911D02*
X0172635Y0037911D01*
X0173233Y0037312D02*
X0181700Y0037312D01*
X0181700Y0036714D02*
X0173832Y0036714D01*
X0174430Y0036115D02*
X0181700Y0036115D01*
X0181700Y0035517D02*
X0175029Y0035517D01*
X0175300Y0034918D02*
X0181700Y0034918D01*
X0181700Y0034320D02*
X0181377Y0034320D01*
X0178434Y0034320D02*
X0177834Y0034320D01*
X0177834Y0033721D02*
X0178434Y0033721D01*
X0178434Y0033123D02*
X0177834Y0033123D01*
X0177834Y0032524D02*
X0178434Y0032524D01*
X0178434Y0031926D02*
X0177834Y0031926D01*
X0177834Y0031327D02*
X0178434Y0031327D01*
X0178434Y0030700D02*
X0178434Y0027338D01*
X0180667Y0027338D01*
X0180998Y0027426D01*
X0181294Y0027598D01*
X0181536Y0027840D01*
X0181700Y0028123D01*
X0181700Y0027504D01*
X0182900Y0026304D01*
X0182900Y0023829D01*
X0183729Y0023000D01*
X0183279Y0022550D01*
X0181746Y0022550D01*
X0176958Y0027338D01*
X0177834Y0027338D01*
X0177834Y0030700D01*
X0178434Y0030700D01*
X0178434Y0030130D02*
X0177834Y0030130D01*
X0177834Y0029532D02*
X0178434Y0029532D01*
X0178434Y0028933D02*
X0177834Y0028933D01*
X0177834Y0028334D02*
X0178434Y0028334D01*
X0178434Y0027736D02*
X0177834Y0027736D01*
X0177158Y0027137D02*
X0182067Y0027137D01*
X0181700Y0027736D02*
X0181433Y0027736D01*
X0182665Y0026539D02*
X0177757Y0026539D01*
X0178355Y0025940D02*
X0182900Y0025940D01*
X0182900Y0025342D02*
X0178954Y0025342D01*
X0179552Y0024743D02*
X0182900Y0024743D01*
X0182900Y0024145D02*
X0180151Y0024145D01*
X0180749Y0023546D02*
X0183182Y0023546D01*
X0183677Y0022948D02*
X0181348Y0022948D01*
X0181000Y0020750D02*
X0187250Y0020750D01*
X0188300Y0020500D01*
X0192923Y0022948D02*
X0203077Y0022948D01*
X0202582Y0023546D02*
X0193418Y0023546D01*
X0193700Y0024145D02*
X0202300Y0024145D01*
X0201246Y0024743D02*
X0193700Y0024743D01*
X0193700Y0025342D02*
X0200340Y0025342D01*
X0199870Y0025940D02*
X0193700Y0025940D01*
X0193700Y0026539D02*
X0199622Y0026539D01*
X0199550Y0027137D02*
X0193700Y0027137D01*
X0193135Y0027736D02*
X0199550Y0027736D01*
X0199777Y0028334D02*
X0193206Y0028334D01*
X0193700Y0028933D02*
X0200115Y0028933D01*
X0200713Y0029532D02*
X0193700Y0029532D01*
X0193700Y0030130D02*
X0202300Y0030130D01*
X0202300Y0030729D02*
X0193700Y0030729D01*
X0193700Y0031327D02*
X0202300Y0031327D01*
X0202300Y0031926D02*
X0193700Y0031926D01*
X0193347Y0032524D02*
X0202653Y0032524D01*
X0205450Y0033123D02*
X0185300Y0033123D01*
X0185300Y0033721D02*
X0205450Y0033721D01*
X0205450Y0034320D02*
X0185300Y0034320D01*
X0185300Y0034918D02*
X0205450Y0034918D01*
X0205450Y0035517D02*
X0185300Y0035517D01*
X0185300Y0036115D02*
X0205450Y0036115D01*
X0205450Y0036714D02*
X0185300Y0036714D01*
X0185300Y0037312D02*
X0205450Y0037312D01*
X0205450Y0037911D02*
X0185300Y0037911D01*
X0185300Y0038509D02*
X0205450Y0038509D01*
X0205450Y0039108D02*
X0185300Y0039108D01*
X0185300Y0039706D02*
X0205450Y0039706D01*
X0205450Y0040305D02*
X0185300Y0040305D01*
X0185300Y0040903D02*
X0205450Y0040903D01*
X0205450Y0041502D02*
X0185300Y0041502D01*
X0185300Y0042100D02*
X0205450Y0042100D01*
X0205450Y0042699D02*
X0185300Y0042699D01*
X0185300Y0043297D02*
X0205450Y0043297D01*
X0205450Y0043896D02*
X0185300Y0043896D01*
X0185300Y0044494D02*
X0205450Y0044494D01*
X0205450Y0045093D02*
X0185300Y0045093D01*
X0185300Y0045691D02*
X0205450Y0045691D01*
X0205450Y0046290D02*
X0185300Y0046290D01*
X0185300Y0046888D02*
X0205450Y0046888D01*
X0205450Y0047487D02*
X0185300Y0047487D01*
X0185300Y0048085D02*
X0205450Y0048085D01*
X0205450Y0048684D02*
X0185300Y0048684D01*
X0185300Y0049282D02*
X0205450Y0049282D01*
X0205450Y0049881D02*
X0185300Y0049881D01*
X0185300Y0050479D02*
X0205450Y0050479D01*
X0205450Y0051078D02*
X0185300Y0051078D01*
X0185300Y0051676D02*
X0205450Y0051676D01*
X0205450Y0052275D02*
X0185300Y0052275D01*
X0185300Y0052873D02*
X0205450Y0052873D01*
X0205450Y0053472D02*
X0185300Y0053472D01*
X0185616Y0054070D02*
X0205450Y0054070D01*
X0205450Y0054669D02*
X0186215Y0054669D01*
X0186813Y0055268D02*
X0205450Y0055268D01*
X0205450Y0055866D02*
X0187412Y0055866D01*
X0188010Y0056465D02*
X0205450Y0056465D01*
X0205450Y0057063D02*
X0188609Y0057063D01*
X0184714Y0058260D02*
X0172972Y0058260D01*
X0173570Y0058859D02*
X0174720Y0058859D01*
X0174474Y0059457D02*
X0173728Y0059457D01*
X0173728Y0060056D02*
X0174472Y0060056D01*
X0174472Y0060654D02*
X0173728Y0060654D01*
X0171000Y0062000D02*
X0169866Y0062000D01*
X0171000Y0062000D02*
X0183500Y0074500D01*
X0198500Y0074500D01*
X0198500Y0078250D01*
X0198740Y0079000D01*
X0199750Y0084500D02*
X0207250Y0084500D01*
X0207250Y0030750D01*
X0207700Y0030500D01*
X0216550Y0030729D02*
X0216850Y0030729D01*
X0216850Y0031327D02*
X0216550Y0031327D01*
X0216550Y0031926D02*
X0217004Y0031926D01*
X0216550Y0032524D02*
X0217603Y0032524D01*
X0216550Y0033123D02*
X0220500Y0033123D01*
X0220500Y0033721D02*
X0216550Y0033721D01*
X0216550Y0034320D02*
X0220500Y0034320D01*
X0220500Y0034918D02*
X0216550Y0034918D01*
X0216550Y0035517D02*
X0220500Y0035517D01*
X0220500Y0036115D02*
X0216550Y0036115D01*
X0216550Y0036714D02*
X0220500Y0036714D01*
X0220500Y0037312D02*
X0216550Y0037312D01*
X0216550Y0037911D02*
X0220500Y0037911D01*
X0220500Y0038509D02*
X0216550Y0038509D01*
X0216550Y0039108D02*
X0220500Y0039108D01*
X0220500Y0039706D02*
X0216550Y0039706D01*
X0216550Y0040305D02*
X0220500Y0040305D01*
X0220500Y0040903D02*
X0216550Y0040903D01*
X0216550Y0041502D02*
X0220500Y0041502D01*
X0220500Y0042100D02*
X0216550Y0042100D01*
X0216550Y0042699D02*
X0220500Y0042699D01*
X0220500Y0043297D02*
X0216550Y0043297D01*
X0216550Y0043896D02*
X0220500Y0043896D01*
X0220500Y0044494D02*
X0216550Y0044494D01*
X0216550Y0045093D02*
X0220500Y0045093D01*
X0220500Y0045691D02*
X0216550Y0045691D01*
X0216550Y0046290D02*
X0220500Y0046290D01*
X0220500Y0046888D02*
X0216550Y0046888D01*
X0216550Y0047487D02*
X0220500Y0047487D01*
X0220500Y0048085D02*
X0216550Y0048085D01*
X0216550Y0048684D02*
X0220500Y0048684D01*
X0220500Y0049282D02*
X0216550Y0049282D01*
X0216550Y0049881D02*
X0220500Y0049881D01*
X0220500Y0050479D02*
X0216550Y0050479D01*
X0216550Y0051078D02*
X0220500Y0051078D01*
X0220500Y0051676D02*
X0216550Y0051676D01*
X0216550Y0052275D02*
X0220500Y0052275D01*
X0220500Y0052873D02*
X0216550Y0052873D01*
X0216550Y0053472D02*
X0220500Y0053472D01*
X0220500Y0054070D02*
X0216550Y0054070D01*
X0216550Y0054669D02*
X0220399Y0054669D01*
X0219899Y0055268D02*
X0216550Y0055268D01*
X0216550Y0055866D02*
X0219399Y0055866D01*
X0218900Y0056465D02*
X0216550Y0056465D01*
X0216550Y0057063D02*
X0218400Y0057063D01*
X0217901Y0057662D02*
X0216550Y0057662D01*
X0216550Y0058260D02*
X0217401Y0058260D01*
X0217250Y0061250D02*
X0222300Y0055200D01*
X0222300Y0029000D01*
X0216850Y0028933D02*
X0216550Y0028933D01*
X0216550Y0028334D02*
X0216850Y0028334D01*
X0216850Y0027736D02*
X0216550Y0027736D01*
X0216550Y0027137D02*
X0216850Y0027137D01*
X0216850Y0026539D02*
X0216550Y0026539D01*
X0216550Y0025940D02*
X0217138Y0025940D01*
X0216850Y0029532D02*
X0216550Y0029532D01*
X0216550Y0030130D02*
X0216850Y0030130D01*
X0227250Y0023250D02*
X0223500Y0019500D01*
X0222300Y0019000D01*
X0227750Y0017561D02*
X0252450Y0017561D01*
X0252450Y0016963D02*
X0227750Y0016963D01*
X0227750Y0016364D02*
X0252534Y0016364D01*
X0253028Y0015766D02*
X0227287Y0015766D01*
X0212900Y0014569D02*
X0265000Y0014569D01*
X0265000Y0013970D02*
X0212817Y0013970D01*
X0212332Y0013372D02*
X0265000Y0013372D01*
X0265000Y0012773D02*
X0129050Y0012773D01*
X0129050Y0012175D02*
X0265000Y0012175D01*
X0265000Y0011576D02*
X0129050Y0011576D01*
X0129050Y0010978D02*
X0265000Y0010978D01*
X0265000Y0010379D02*
X0129050Y0010379D01*
X0129050Y0009781D02*
X0265000Y0009781D01*
X0265000Y0009182D02*
X0129050Y0009182D01*
X0128879Y0008584D02*
X0265000Y0008584D01*
X0265000Y0007985D02*
X0128281Y0007985D01*
X0127250Y0009500D02*
X0127250Y0030750D01*
X0128260Y0031000D01*
X0128500Y0030750D01*
X0133500Y0025750D01*
X0148500Y0025750D01*
X0148500Y0030750D01*
X0149260Y0031000D01*
X0145201Y0030729D02*
X0136040Y0030729D01*
X0136040Y0031300D02*
X0139599Y0031300D01*
X0139599Y0034124D01*
X0139511Y0034455D01*
X0139339Y0034751D01*
X0139097Y0034993D01*
X0138801Y0035164D01*
X0138470Y0035253D01*
X0136040Y0035253D01*
X0136040Y0031300D01*
X0136040Y0031327D02*
X0135440Y0031327D01*
X0135440Y0031926D02*
X0136040Y0031926D01*
X0136040Y0032524D02*
X0135440Y0032524D01*
X0135440Y0033123D02*
X0136040Y0033123D01*
X0136040Y0033721D02*
X0135440Y0033721D01*
X0135440Y0034320D02*
X0136040Y0034320D01*
X0136040Y0034918D02*
X0135440Y0034918D01*
X0132308Y0034918D02*
X0131975Y0034918D01*
X0139172Y0034918D02*
X0145545Y0034918D01*
X0145201Y0034320D02*
X0139547Y0034320D01*
X0139599Y0033721D02*
X0145201Y0033721D01*
X0145201Y0033123D02*
X0139599Y0033123D01*
X0139599Y0032524D02*
X0145201Y0032524D01*
X0145201Y0031926D02*
X0139599Y0031926D01*
X0139599Y0031327D02*
X0145201Y0031327D01*
X0145201Y0030130D02*
X0139599Y0030130D01*
X0139599Y0029532D02*
X0145201Y0029532D01*
X0145201Y0028933D02*
X0139599Y0028933D01*
X0139599Y0028334D02*
X0145201Y0028334D01*
X0145201Y0027736D02*
X0139562Y0027736D01*
X0132559Y0024145D02*
X0129050Y0024145D01*
X0129050Y0024743D02*
X0131961Y0024743D01*
X0131362Y0025342D02*
X0129050Y0025342D01*
X0129050Y0025940D02*
X0130764Y0025940D01*
X0130165Y0026539D02*
X0129050Y0026539D01*
X0129050Y0023546D02*
X0175658Y0023546D01*
X0176257Y0022948D02*
X0129050Y0022948D01*
X0129050Y0022349D02*
X0176855Y0022349D01*
X0177454Y0021751D02*
X0129050Y0021751D01*
X0129050Y0021152D02*
X0178052Y0021152D01*
X0178651Y0020554D02*
X0129050Y0020554D01*
X0129050Y0019955D02*
X0179249Y0019955D01*
X0179848Y0019357D02*
X0129050Y0019357D01*
X0129050Y0018758D02*
X0182970Y0018758D01*
X0183569Y0018160D02*
X0129050Y0018160D01*
X0129050Y0017561D02*
X0183290Y0017561D01*
X0182900Y0016963D02*
X0129050Y0016963D01*
X0129050Y0016364D02*
X0182900Y0016364D01*
X0182900Y0015766D02*
X0129050Y0015766D01*
X0129050Y0015167D02*
X0182900Y0015167D01*
X0182900Y0014569D02*
X0129050Y0014569D01*
X0129050Y0013970D02*
X0182900Y0013970D01*
X0183357Y0013372D02*
X0129050Y0013372D01*
X0125450Y0013372D02*
X0095300Y0013372D01*
X0095300Y0013970D02*
X0125450Y0013970D01*
X0125450Y0014569D02*
X0095300Y0014569D01*
X0095300Y0015167D02*
X0125450Y0015167D01*
X0125450Y0015766D02*
X0095300Y0015766D01*
X0095300Y0016364D02*
X0125450Y0016364D01*
X0125450Y0016963D02*
X0095300Y0016963D01*
X0095300Y0017561D02*
X0125450Y0017561D01*
X0125450Y0018160D02*
X0095300Y0018160D01*
X0095300Y0018758D02*
X0125450Y0018758D01*
X0125450Y0019357D02*
X0095300Y0019357D01*
X0095300Y0019955D02*
X0125450Y0019955D01*
X0125450Y0020554D02*
X0095300Y0020554D01*
X0095300Y0021152D02*
X0125450Y0021152D01*
X0125450Y0021751D02*
X0095300Y0021751D01*
X0095300Y0022349D02*
X0125450Y0022349D01*
X0125450Y0022948D02*
X0095300Y0022948D01*
X0095300Y0023546D02*
X0125450Y0023546D01*
X0125450Y0024145D02*
X0118191Y0024145D01*
X0118789Y0024743D02*
X0125450Y0024743D01*
X0125450Y0025342D02*
X0119388Y0025342D01*
X0119986Y0025940D02*
X0125450Y0025940D01*
X0125450Y0026539D02*
X0120585Y0026539D01*
X0121183Y0027137D02*
X0124489Y0027137D01*
X0124201Y0027736D02*
X0121782Y0027736D01*
X0122380Y0028334D02*
X0124201Y0028334D01*
X0124201Y0028933D02*
X0122979Y0028933D01*
X0123577Y0029532D02*
X0124201Y0029532D01*
X0124201Y0030130D02*
X0124050Y0030130D01*
X0124050Y0030729D02*
X0124201Y0030729D01*
X0124201Y0031327D02*
X0124050Y0031327D01*
X0124050Y0031926D02*
X0124201Y0031926D01*
X0124201Y0032524D02*
X0124050Y0032524D01*
X0124050Y0033123D02*
X0124201Y0033123D01*
X0124201Y0033721D02*
X0124050Y0033721D01*
X0124050Y0034320D02*
X0124201Y0034320D01*
X0124050Y0034918D02*
X0124545Y0034918D01*
X0124050Y0035517D02*
X0163688Y0035517D01*
X0163089Y0036115D02*
X0124050Y0036115D01*
X0124050Y0036714D02*
X0162491Y0036714D01*
X0161892Y0037312D02*
X0124050Y0037312D01*
X0124050Y0037911D02*
X0161294Y0037911D01*
X0160695Y0038509D02*
X0124050Y0038509D01*
X0124050Y0039108D02*
X0160097Y0039108D01*
X0159498Y0039706D02*
X0124050Y0039706D01*
X0124050Y0040305D02*
X0158900Y0040305D01*
X0158301Y0040903D02*
X0124050Y0040903D01*
X0124050Y0041502D02*
X0157950Y0041502D01*
X0157950Y0042100D02*
X0124050Y0042100D01*
X0124050Y0042699D02*
X0157950Y0042699D01*
X0157950Y0043297D02*
X0124050Y0043297D01*
X0124050Y0043896D02*
X0157950Y0043896D01*
X0157950Y0044494D02*
X0124050Y0044494D01*
X0124050Y0045093D02*
X0157950Y0045093D01*
X0157950Y0045691D02*
X0124050Y0045691D01*
X0124050Y0046290D02*
X0157950Y0046290D01*
X0157950Y0046888D02*
X0124050Y0046888D01*
X0124050Y0047487D02*
X0157950Y0047487D01*
X0157950Y0048085D02*
X0124050Y0048085D01*
X0124050Y0048684D02*
X0157950Y0048684D01*
X0157950Y0049282D02*
X0124050Y0049282D01*
X0124050Y0049881D02*
X0157950Y0049881D01*
X0157950Y0050479D02*
X0124050Y0050479D01*
X0124050Y0051078D02*
X0157950Y0051078D01*
X0157950Y0051676D02*
X0124050Y0051676D01*
X0124050Y0052275D02*
X0157950Y0052275D01*
X0157950Y0052873D02*
X0124050Y0052873D01*
X0124050Y0053472D02*
X0157950Y0053472D01*
X0157950Y0054070D02*
X0124050Y0054070D01*
X0124050Y0054669D02*
X0157950Y0054669D01*
X0157950Y0055268D02*
X0139508Y0055268D01*
X0139710Y0055385D02*
X0140115Y0055790D01*
X0140402Y0056285D01*
X0140550Y0056839D01*
X0140550Y0057700D01*
X0137300Y0057700D01*
X0137300Y0054950D01*
X0138661Y0054950D01*
X0139215Y0055098D01*
X0139710Y0055385D01*
X0140160Y0055866D02*
X0157950Y0055866D01*
X0157950Y0056465D02*
X0140450Y0056465D01*
X0140550Y0057063D02*
X0157950Y0057063D01*
X0155740Y0062000D02*
X0154750Y0062000D01*
X0154750Y0067000D01*
X0146000Y0067000D01*
X0144000Y0065000D01*
X0143000Y0067000D01*
X0144000Y0065000D02*
X0143500Y0064500D01*
X0143500Y0063250D01*
X0136000Y0063250D01*
X0133500Y0060750D01*
X0133500Y0058250D01*
X0127250Y0058250D01*
X0127000Y0058000D01*
X0124124Y0055268D02*
X0124050Y0055268D01*
X0120450Y0055268D02*
X0112800Y0055268D01*
X0112800Y0055866D02*
X0120450Y0055866D01*
X0120450Y0056465D02*
X0112800Y0056465D01*
X0112800Y0057063D02*
X0120450Y0057063D01*
X0120450Y0057662D02*
X0112800Y0057662D01*
X0112800Y0057804D02*
X0113010Y0057747D01*
X0115440Y0057747D01*
X0115440Y0061700D01*
X0112319Y0061700D01*
X0112319Y0062300D01*
X0115440Y0062300D01*
X0115440Y0061700D01*
X0116040Y0061700D01*
X0116040Y0057747D01*
X0118470Y0057747D01*
X0118801Y0057836D01*
X0119097Y0058007D01*
X0119339Y0058249D01*
X0119511Y0058545D01*
X0119599Y0058876D01*
X0119599Y0061700D01*
X0116040Y0061700D01*
X0116040Y0062300D01*
X0115440Y0062300D01*
X0115440Y0066253D01*
X0113010Y0066253D01*
X0112679Y0066164D01*
X0112383Y0065993D01*
X0112141Y0065752D01*
X0111440Y0066453D01*
X0106998Y0066453D01*
X0110846Y0070300D01*
X0111537Y0070300D01*
X0112529Y0070711D01*
X0113289Y0071471D01*
X0113700Y0072463D01*
X0113700Y0073537D01*
X0113289Y0074529D01*
X0112529Y0075289D01*
X0111537Y0075700D01*
X0110700Y0075700D01*
X0110700Y0076537D01*
X0110289Y0077529D01*
X0109529Y0078289D01*
X0108537Y0078700D01*
X0107463Y0078700D01*
X0106471Y0078289D01*
X0105711Y0077529D01*
X0105300Y0076537D01*
X0105300Y0075846D01*
X0104492Y0075038D01*
X0104289Y0075529D01*
X0103800Y0076018D01*
X0103800Y0078982D01*
X0104289Y0079471D01*
X0104700Y0080463D01*
X0104700Y0081537D01*
X0104289Y0082529D01*
X0103529Y0083289D01*
X0102537Y0083700D01*
X0101463Y0083700D01*
X0100586Y0083337D01*
X0100071Y0083853D01*
X0097800Y0083853D01*
X0097800Y0086496D01*
X0096746Y0087550D01*
X0095548Y0088747D01*
X0096046Y0088747D01*
X0096046Y0092700D01*
X0096646Y0092700D01*
X0096646Y0088747D01*
X0099077Y0088747D01*
X0099407Y0088836D01*
X0099704Y0089007D01*
X0099946Y0089249D01*
X0100117Y0089545D01*
X0100205Y0089876D01*
X0100205Y0092700D01*
X0096646Y0092700D01*
X0096646Y0093300D01*
X0100205Y0093300D01*
X0100205Y0094999D01*
X0117700Y0077504D01*
X0117700Y0068754D01*
X0118754Y0067700D01*
X0123594Y0067700D01*
X0123450Y0067161D01*
X0123450Y0066300D01*
X0126700Y0066300D01*
X0126700Y0065700D01*
X0127300Y0065700D01*
X0127300Y0062950D01*
X0128661Y0062950D01*
X0129215Y0063098D01*
X0129710Y0063385D01*
X0129754Y0063428D01*
X0130443Y0062739D01*
X0130254Y0062550D01*
X0121504Y0062550D01*
X0120450Y0061496D01*
X0120450Y0031496D01*
X0118599Y0029645D01*
X0118599Y0030700D01*
X0115040Y0030700D01*
X0115040Y0031300D01*
X0114440Y0031300D01*
X0114440Y0035253D01*
X0112800Y0035253D01*
X0112800Y0057804D01*
X0111000Y0059500D02*
X0108500Y0062000D01*
X0108260Y0062000D01*
X0111000Y0059500D02*
X0111000Y0025750D01*
X0117250Y0025750D01*
X0122250Y0030750D01*
X0122250Y0060750D01*
X0131000Y0060750D01*
X0133625Y0063375D01*
X0132000Y0065000D01*
X0133625Y0063375D02*
X0136000Y0065750D01*
X0137000Y0066000D01*
X0136548Y0061253D02*
X0144401Y0061253D01*
X0144496Y0061700D02*
X0145096Y0062300D01*
X0147960Y0062300D01*
X0147960Y0061700D01*
X0144496Y0061700D01*
X0144647Y0061851D02*
X0147960Y0061851D01*
X0147960Y0061253D02*
X0148560Y0061253D01*
X0148560Y0060654D02*
X0147960Y0060654D01*
X0147960Y0060056D02*
X0148560Y0060056D01*
X0148560Y0059457D02*
X0147960Y0059457D01*
X0147960Y0058859D02*
X0148560Y0058859D01*
X0148560Y0058260D02*
X0147960Y0058260D01*
X0152445Y0057662D02*
X0140550Y0057662D01*
X0140550Y0058300D02*
X0140550Y0059161D01*
X0140402Y0059715D01*
X0140115Y0060210D01*
X0139710Y0060615D01*
X0139215Y0060902D01*
X0138661Y0061050D01*
X0137300Y0061050D01*
X0137300Y0058300D01*
X0140550Y0058300D01*
X0140550Y0058859D02*
X0144405Y0058859D01*
X0144401Y0059457D02*
X0140471Y0059457D01*
X0140205Y0060056D02*
X0144401Y0060056D01*
X0144401Y0060654D02*
X0139643Y0060654D01*
X0137300Y0060654D02*
X0136700Y0060654D01*
X0136700Y0060056D02*
X0137300Y0060056D01*
X0137300Y0059457D02*
X0136700Y0059457D01*
X0136700Y0058859D02*
X0137300Y0058859D01*
X0137300Y0058260D02*
X0144654Y0058260D01*
X0137300Y0057662D02*
X0136700Y0057662D01*
X0136700Y0057063D02*
X0137300Y0057063D01*
X0137300Y0056465D02*
X0136700Y0056465D01*
X0136700Y0055866D02*
X0137300Y0055866D01*
X0137300Y0055268D02*
X0136700Y0055268D01*
X0134492Y0055268D02*
X0129876Y0055268D01*
X0130475Y0055866D02*
X0133840Y0055866D01*
X0130133Y0063048D02*
X0129028Y0063048D01*
X0127300Y0063048D02*
X0126700Y0063048D01*
X0126700Y0062950D02*
X0126700Y0065700D01*
X0123450Y0065700D01*
X0123450Y0064839D01*
X0123598Y0064285D01*
X0123885Y0063790D01*
X0124290Y0063385D01*
X0124785Y0063098D01*
X0125339Y0062950D01*
X0126700Y0062950D01*
X0126700Y0063647D02*
X0127300Y0063647D01*
X0127300Y0064245D02*
X0126700Y0064245D01*
X0126700Y0064844D02*
X0127300Y0064844D01*
X0127300Y0065442D02*
X0126700Y0065442D01*
X0126700Y0066041D02*
X0119015Y0066041D01*
X0119097Y0065993D02*
X0118801Y0066164D01*
X0118470Y0066253D01*
X0116040Y0066253D01*
X0116040Y0062300D01*
X0119599Y0062300D01*
X0119599Y0065124D01*
X0119511Y0065455D01*
X0119339Y0065751D01*
X0119097Y0065993D01*
X0119740Y0066000D02*
X0127000Y0066000D01*
X0124972Y0063048D02*
X0119599Y0063048D01*
X0119599Y0062450D02*
X0121404Y0062450D01*
X0120806Y0061851D02*
X0116040Y0061851D01*
X0115740Y0062000D02*
X0119740Y0066000D01*
X0119514Y0065442D02*
X0123450Y0065442D01*
X0123450Y0064844D02*
X0119599Y0064844D01*
X0119599Y0064245D02*
X0123621Y0064245D01*
X0124027Y0063647D02*
X0119599Y0063647D01*
X0119599Y0061253D02*
X0120450Y0061253D01*
X0120450Y0060654D02*
X0119599Y0060654D01*
X0119599Y0060056D02*
X0120450Y0060056D01*
X0120450Y0059457D02*
X0119599Y0059457D01*
X0119595Y0058859D02*
X0120450Y0058859D01*
X0120450Y0058260D02*
X0119346Y0058260D01*
X0116040Y0058260D02*
X0115440Y0058260D01*
X0115440Y0058859D02*
X0116040Y0058859D01*
X0116040Y0059457D02*
X0115440Y0059457D01*
X0115440Y0060056D02*
X0116040Y0060056D01*
X0116040Y0060654D02*
X0115440Y0060654D01*
X0115440Y0061253D02*
X0116040Y0061253D01*
X0115440Y0061851D02*
X0112319Y0061851D01*
X0115440Y0062450D02*
X0116040Y0062450D01*
X0116040Y0063048D02*
X0115440Y0063048D01*
X0115440Y0063647D02*
X0116040Y0063647D01*
X0116040Y0064245D02*
X0115440Y0064245D01*
X0115440Y0064844D02*
X0116040Y0064844D01*
X0116040Y0065442D02*
X0115440Y0065442D01*
X0115440Y0066041D02*
X0116040Y0066041D01*
X0118020Y0068435D02*
X0108980Y0068435D01*
X0108382Y0067836D02*
X0118618Y0067836D01*
X0117700Y0069033D02*
X0109579Y0069033D01*
X0110177Y0069632D02*
X0117700Y0069632D01*
X0117700Y0070230D02*
X0110776Y0070230D01*
X0112647Y0070829D02*
X0117700Y0070829D01*
X0117700Y0071427D02*
X0113246Y0071427D01*
X0113519Y0072026D02*
X0117700Y0072026D01*
X0117700Y0072624D02*
X0113700Y0072624D01*
X0113700Y0073223D02*
X0117700Y0073223D01*
X0117700Y0073821D02*
X0113582Y0073821D01*
X0113334Y0074420D02*
X0117700Y0074420D01*
X0117700Y0075018D02*
X0112800Y0075018D01*
X0111738Y0075617D02*
X0117700Y0075617D01*
X0117700Y0076215D02*
X0110700Y0076215D01*
X0110585Y0076814D02*
X0117700Y0076814D01*
X0117700Y0077412D02*
X0110337Y0077412D01*
X0109807Y0078011D02*
X0117193Y0078011D01*
X0116595Y0078609D02*
X0108756Y0078609D01*
X0107244Y0078609D02*
X0103800Y0078609D01*
X0103800Y0078011D02*
X0106193Y0078011D01*
X0105663Y0077412D02*
X0103800Y0077412D01*
X0103800Y0076814D02*
X0105415Y0076814D01*
X0105300Y0076215D02*
X0103800Y0076215D01*
X0104201Y0075617D02*
X0105071Y0075617D01*
X0108000Y0076000D02*
X0101000Y0069000D01*
X0101000Y0067000D01*
X0103500Y0065500D02*
X0103500Y0062000D01*
X0096740Y0062000D01*
X0101000Y0058000D02*
X0097000Y0055000D01*
X0097000Y0048000D01*
X0093500Y0042000D02*
X0089750Y0045750D01*
X0089750Y0062000D01*
X0089260Y0062000D01*
X0089750Y0062000D02*
X0096000Y0068250D01*
X0096000Y0078250D01*
X0096890Y0079400D01*
X0096000Y0079500D01*
X0096000Y0085750D01*
X0089750Y0092000D01*
X0089654Y0093000D01*
X0082000Y0093000D01*
X0082000Y0087000D01*
X0081000Y0086000D01*
X0076654Y0090055D02*
X0072055Y0090055D01*
X0072000Y0090000D01*
X0072000Y0106000D01*
X0075000Y0108000D01*
X0077700Y0107937D02*
X0085201Y0107937D01*
X0085201Y0108535D02*
X0077700Y0108535D01*
X0077453Y0109134D02*
X0085201Y0109134D01*
X0085359Y0109732D02*
X0077086Y0109732D01*
X0076429Y0110331D02*
X0085957Y0110331D01*
X0085201Y0107338D02*
X0077648Y0107338D01*
X0077400Y0106739D02*
X0085201Y0106739D01*
X0085201Y0106141D02*
X0076959Y0106141D01*
X0076122Y0105542D02*
X0085201Y0105542D01*
X0085201Y0104944D02*
X0079287Y0104944D01*
X0080075Y0104345D02*
X0085201Y0104345D01*
X0085201Y0103747D02*
X0080620Y0103747D01*
X0080867Y0103148D02*
X0085201Y0103148D01*
X0085201Y0102550D02*
X0081106Y0102550D01*
X0081106Y0101951D02*
X0085675Y0101951D01*
X0087950Y0101353D02*
X0081106Y0101353D01*
X0080938Y0100754D02*
X0087950Y0100754D01*
X0087950Y0100156D02*
X0080874Y0100156D01*
X0081622Y0099557D02*
X0087950Y0099557D01*
X0087950Y0098959D02*
X0083860Y0098959D01*
X0084458Y0098360D02*
X0087950Y0098360D01*
X0087950Y0097762D02*
X0084753Y0097762D01*
X0084950Y0097163D02*
X0086184Y0097163D01*
X0086000Y0097000D02*
X0082000Y0101000D01*
X0082000Y0113000D01*
X0079000Y0116000D01*
X0071000Y0116000D01*
X0070891Y0113922D02*
X0070291Y0113922D01*
X0070291Y0113323D02*
X0070891Y0113323D01*
X0070891Y0112725D02*
X0070291Y0112725D01*
X0070291Y0112126D02*
X0070891Y0112126D01*
X0070891Y0111528D02*
X0070291Y0111528D01*
X0070291Y0110929D02*
X0070891Y0110929D01*
X0070891Y0110331D02*
X0070291Y0110331D01*
X0067803Y0112725D02*
X0067731Y0112725D01*
X0067279Y0113323D02*
X0068280Y0113323D01*
X0069087Y0113922D02*
X0066680Y0113922D01*
X0064700Y0114520D02*
X0094707Y0114520D01*
X0094459Y0113922D02*
X0072094Y0113922D01*
X0072901Y0113323D02*
X0094300Y0113323D01*
X0094300Y0112725D02*
X0073378Y0112725D01*
X0073668Y0112126D02*
X0094440Y0112126D01*
X0094687Y0111528D02*
X0073822Y0111528D01*
X0073859Y0110929D02*
X0094940Y0110929D01*
X0093438Y0110331D02*
X0092562Y0110331D01*
X0096740Y0112740D02*
X0096740Y0106000D01*
X0096000Y0105750D01*
X0096000Y0104500D01*
X0092250Y0100750D01*
X0094950Y0100754D02*
X0103390Y0100754D01*
X0103300Y0100156D02*
X0094926Y0100156D01*
X0095398Y0101353D02*
X0103638Y0101353D01*
X0104133Y0101951D02*
X0100325Y0101951D01*
X0100799Y0102550D02*
X0105101Y0102550D01*
X0106899Y0102550D02*
X0107075Y0102550D01*
X0108272Y0103148D02*
X0100799Y0103148D01*
X0100799Y0103747D02*
X0109201Y0103747D01*
X0109800Y0104345D02*
X0100799Y0104345D01*
X0100799Y0104944D02*
X0110398Y0104944D01*
X0110997Y0105542D02*
X0100799Y0105542D01*
X0100799Y0106141D02*
X0111595Y0106141D01*
X0112194Y0106739D02*
X0109558Y0106739D01*
X0108000Y0109000D02*
X0114040Y0109000D01*
X0120978Y0115938D01*
X0119586Y0117330D02*
X0113916Y0123000D01*
X0097000Y0123000D01*
X0098033Y0120505D02*
X0113865Y0120505D01*
X0114229Y0119907D02*
X0063800Y0119907D01*
X0063800Y0120505D02*
X0095967Y0120505D01*
X0095078Y0121104D02*
X0063800Y0121104D01*
X0063800Y0121702D02*
X0094615Y0121702D01*
X0094367Y0122301D02*
X0063800Y0122301D01*
X0063800Y0122899D02*
X0094300Y0122899D01*
X0094300Y0123498D02*
X0063800Y0123498D01*
X0063800Y0124096D02*
X0094532Y0124096D01*
X0094876Y0124695D02*
X0063800Y0124695D01*
X0063800Y0125293D02*
X0095481Y0125293D01*
X0098300Y0125892D02*
X0063800Y0125892D01*
X0063800Y0126490D02*
X0098300Y0126490D01*
X0098529Y0127089D02*
X0063800Y0127089D01*
X0064061Y0127687D02*
X0065528Y0127687D01*
X0067000Y0130000D02*
X0063228Y0130000D01*
X0062559Y0130669D01*
X0062000Y0130669D01*
X0062000Y0115000D01*
X0063904Y0116914D02*
X0115408Y0116914D01*
X0116007Y0116316D02*
X0064377Y0116316D01*
X0064625Y0115717D02*
X0116605Y0115717D01*
X0117204Y0115119D02*
X0098700Y0115119D01*
X0099293Y0114520D02*
X0117015Y0114520D01*
X0116416Y0113922D02*
X0099541Y0113922D01*
X0099700Y0113323D02*
X0115818Y0113323D01*
X0115219Y0112725D02*
X0099700Y0112725D01*
X0099560Y0112126D02*
X0114621Y0112126D01*
X0114022Y0111528D02*
X0108953Y0111528D01*
X0109889Y0110929D02*
X0113424Y0110929D01*
X0107047Y0111528D02*
X0099313Y0111528D01*
X0098747Y0110929D02*
X0106111Y0110929D01*
X0105629Y0110331D02*
X0100043Y0110331D01*
X0100641Y0109732D02*
X0105381Y0109732D01*
X0105300Y0109134D02*
X0100799Y0109134D01*
X0100799Y0108535D02*
X0105300Y0108535D01*
X0105518Y0107937D02*
X0100799Y0107937D01*
X0100799Y0107338D02*
X0105844Y0107338D01*
X0106442Y0106739D02*
X0100799Y0106739D01*
X0100738Y0099557D02*
X0103300Y0099557D01*
X0103509Y0098959D02*
X0101337Y0098959D01*
X0101935Y0098360D02*
X0103821Y0098360D01*
X0104420Y0097762D02*
X0102534Y0097762D01*
X0103132Y0097163D02*
X0105559Y0097163D01*
X0105311Y0096565D02*
X0103731Y0096565D01*
X0104329Y0095966D02*
X0105300Y0095966D01*
X0105339Y0095368D02*
X0104928Y0095368D01*
X0105526Y0094769D02*
X0105587Y0094769D01*
X0108000Y0096000D02*
X0130000Y0096000D01*
X0140000Y0086000D01*
X0143000Y0089000D02*
X0143000Y0082000D01*
X0139000Y0079000D02*
X0148260Y0079000D01*
X0148500Y0078250D01*
X0156000Y0070750D01*
X0162250Y0070750D01*
X0162250Y0045750D01*
X0173500Y0034500D01*
X0173500Y0028250D01*
X0181000Y0020750D01*
X0175059Y0024145D02*
X0149441Y0024145D01*
X0150039Y0024743D02*
X0174461Y0024743D01*
X0173862Y0025342D02*
X0150300Y0025342D01*
X0150300Y0025940D02*
X0173264Y0025940D01*
X0172665Y0026539D02*
X0150300Y0026539D01*
X0153030Y0027137D02*
X0153252Y0027137D01*
X0156440Y0027137D02*
X0157040Y0027137D01*
X0157040Y0027736D02*
X0156440Y0027736D01*
X0156440Y0028334D02*
X0157040Y0028334D01*
X0157040Y0028933D02*
X0156440Y0028933D01*
X0156440Y0029532D02*
X0157040Y0029532D01*
X0157040Y0030130D02*
X0156440Y0030130D01*
X0157040Y0030729D02*
X0166004Y0030729D01*
X0166004Y0031327D02*
X0160599Y0031327D01*
X0160599Y0031300D02*
X0160599Y0034124D01*
X0160511Y0034455D01*
X0160339Y0034751D01*
X0160097Y0034993D01*
X0159801Y0035164D01*
X0159470Y0035253D01*
X0157040Y0035253D01*
X0157040Y0031300D01*
X0160599Y0031300D01*
X0160599Y0031926D02*
X0166004Y0031926D01*
X0166004Y0032524D02*
X0160599Y0032524D01*
X0160599Y0033123D02*
X0166004Y0033123D01*
X0165483Y0033721D02*
X0160599Y0033721D01*
X0160547Y0034320D02*
X0164885Y0034320D01*
X0164286Y0034918D02*
X0160172Y0034918D01*
X0157040Y0034918D02*
X0156440Y0034918D01*
X0156440Y0034320D02*
X0157040Y0034320D01*
X0157040Y0033721D02*
X0156440Y0033721D01*
X0156440Y0033123D02*
X0157040Y0033123D01*
X0157040Y0032524D02*
X0156440Y0032524D01*
X0156440Y0031926D02*
X0157040Y0031926D01*
X0157040Y0031327D02*
X0156440Y0031327D01*
X0160599Y0030130D02*
X0166004Y0030130D01*
X0166004Y0029532D02*
X0160599Y0029532D01*
X0160599Y0028933D02*
X0166004Y0028933D01*
X0166004Y0028334D02*
X0160599Y0028334D01*
X0160562Y0027736D02*
X0166284Y0027736D01*
X0169866Y0031000D02*
X0169750Y0032000D01*
X0159750Y0042000D01*
X0159750Y0065750D01*
X0156000Y0069500D01*
X0119500Y0069500D01*
X0119500Y0078250D01*
X0099500Y0098250D01*
X0089750Y0098250D01*
X0089750Y0105750D01*
X0089260Y0106000D01*
X0096740Y0112740D02*
X0097000Y0113000D01*
X0095300Y0115119D02*
X0064700Y0115119D01*
X0063800Y0117513D02*
X0114810Y0117513D01*
X0114211Y0118111D02*
X0063800Y0118111D01*
X0063800Y0118710D02*
X0113944Y0118710D01*
X0113944Y0119308D02*
X0063800Y0119308D01*
X0060200Y0119308D02*
X0033672Y0119308D01*
X0033549Y0119185D02*
X0034815Y0120451D01*
X0035500Y0122105D01*
X0035500Y0123895D01*
X0034815Y0125549D01*
X0033549Y0126815D01*
X0031895Y0127500D01*
X0024105Y0127500D01*
X0022451Y0126815D01*
X0021185Y0125549D01*
X0020500Y0123895D01*
X0020500Y0122105D01*
X0021185Y0120451D01*
X0022451Y0119185D01*
X0024105Y0118500D01*
X0031895Y0118500D01*
X0033549Y0119185D01*
X0034271Y0119907D02*
X0060200Y0119907D01*
X0060200Y0120505D02*
X0034837Y0120505D01*
X0035085Y0121104D02*
X0060200Y0121104D01*
X0060200Y0121702D02*
X0035333Y0121702D01*
X0035500Y0122301D02*
X0060200Y0122301D01*
X0060200Y0122899D02*
X0035500Y0122899D01*
X0035500Y0123498D02*
X0060200Y0123498D01*
X0060200Y0124096D02*
X0035417Y0124096D01*
X0035169Y0124695D02*
X0060200Y0124695D01*
X0060200Y0125293D02*
X0034921Y0125293D01*
X0034472Y0125892D02*
X0060200Y0125892D01*
X0060200Y0126490D02*
X0033874Y0126490D01*
X0032888Y0127089D02*
X0060200Y0127089D01*
X0060200Y0127687D02*
X0058943Y0127687D01*
X0058751Y0127496D02*
X0059630Y0128375D01*
X0059630Y0129427D01*
X0059937Y0130154D01*
X0059944Y0131149D01*
X0059630Y0131924D01*
X0059630Y0132964D01*
X0058751Y0133843D01*
X0057693Y0133843D01*
X0057250Y0134286D01*
X0057250Y0136157D01*
X0058751Y0136157D01*
X0058991Y0136397D01*
X0059140Y0136357D01*
X0059955Y0136357D01*
X0059955Y0139286D01*
X0060044Y0139286D01*
X0060044Y0136357D01*
X0060860Y0136357D01*
X0061009Y0136397D01*
X0061249Y0136157D01*
X0063869Y0136157D01*
X0064748Y0137036D01*
X0064748Y0141625D01*
X0063869Y0142504D01*
X0061249Y0142504D01*
X0061009Y0142264D01*
X0060860Y0142304D01*
X0060044Y0142304D01*
X0060044Y0139375D01*
X0059955Y0139375D01*
X0059955Y0142304D01*
X0059140Y0142304D01*
X0058991Y0142264D01*
X0058751Y0142504D01*
X0057250Y0142504D01*
X0057250Y0173464D01*
X0057572Y0173787D01*
X0057875Y0173661D01*
X0059999Y0173661D01*
X0061961Y0174474D01*
X0063463Y0175976D01*
X0064276Y0177938D01*
X0064276Y0180062D01*
X0063463Y0182024D01*
X0062237Y0183250D01*
X0079750Y0183250D01*
X0079750Y0173699D01*
X0078979Y0173699D01*
X0078100Y0172820D01*
X0078100Y0163800D01*
X0076801Y0163800D01*
X0076801Y0172820D01*
X0075923Y0173699D01*
X0069881Y0173699D01*
X0069002Y0172820D01*
X0069002Y0162778D01*
X0069881Y0161900D01*
X0071700Y0161900D01*
X0071700Y0161254D01*
X0072754Y0160200D01*
X0075201Y0160200D01*
X0075201Y0156746D01*
X0075200Y0156746D01*
X0075200Y0146254D01*
X0076254Y0145200D01*
X0076300Y0145154D01*
X0076300Y0144463D01*
X0076711Y0143471D01*
X0077471Y0142711D01*
X0078463Y0142300D01*
X0079537Y0142300D01*
X0080529Y0142711D01*
X0081289Y0143471D01*
X0081700Y0144463D01*
X0081700Y0145537D01*
X0081289Y0146529D01*
X0080529Y0147289D01*
X0079537Y0147700D01*
X0078846Y0147700D01*
X0078800Y0147746D01*
X0078800Y0152547D01*
X0082440Y0152547D01*
X0083000Y0153107D01*
X0083560Y0152547D01*
X0089921Y0152547D01*
X0090799Y0153426D01*
X0090799Y0160574D01*
X0089921Y0161453D01*
X0085300Y0161453D01*
X0085300Y0161496D01*
X0084896Y0161900D01*
X0085021Y0161900D01*
X0085900Y0162778D01*
X0085900Y0172820D01*
X0085021Y0173699D01*
X0084750Y0173699D01*
X0084750Y0186370D01*
X0089708Y0186370D01*
X0090587Y0187249D01*
X0090587Y0197153D01*
X0089708Y0198031D01*
X0074292Y0198031D01*
X0073413Y0197153D01*
X0073413Y0188250D01*
X0056753Y0188250D01*
X0055834Y0187869D01*
X0055131Y0187166D01*
X0038881Y0170916D01*
X0038500Y0169997D01*
X0038500Y0156786D01*
X0035500Y0153786D01*
X0035500Y0153895D01*
X0034815Y0155549D01*
X0033549Y0156815D01*
X0031895Y0157500D01*
X0024105Y0157500D01*
X0022451Y0156815D01*
X0021185Y0155549D01*
X0020500Y0153895D01*
X0020500Y0152105D01*
X0021185Y0150451D01*
X0022451Y0149185D01*
X0024105Y0148500D01*
X0030214Y0148500D01*
X0029214Y0147500D01*
X0024105Y0147500D01*
X0022451Y0146815D01*
X0021185Y0145549D01*
X0020500Y0143895D01*
X0020500Y0142105D01*
X0021185Y0140451D01*
X0022451Y0139185D01*
X0024105Y0138500D01*
X0031895Y0138500D01*
X0033549Y0139185D01*
X0034815Y0140451D01*
X0035500Y0142105D01*
X0035500Y0143895D01*
X0034815Y0145549D01*
X0034575Y0145789D01*
X0042416Y0153631D01*
X0043119Y0154334D01*
X0043500Y0155253D01*
X0043500Y0156178D01*
X0044102Y0155577D01*
X0046064Y0154764D01*
X0048188Y0154764D01*
X0050150Y0155577D01*
X0051652Y0157078D01*
X0052250Y0158522D01*
X0052250Y0132753D01*
X0052631Y0131834D01*
X0053334Y0131131D01*
X0055252Y0129212D01*
X0055252Y0128375D01*
X0056131Y0127496D01*
X0058751Y0127496D01*
X0059541Y0128286D02*
X0060200Y0128286D01*
X0060200Y0128884D02*
X0059630Y0128884D01*
X0059654Y0129483D02*
X0060200Y0129483D01*
X0060200Y0130081D02*
X0059907Y0130081D01*
X0059941Y0130680D02*
X0060200Y0130680D01*
X0060200Y0131278D02*
X0059892Y0131278D01*
X0059649Y0131877D02*
X0060370Y0131877D01*
X0060370Y0132475D02*
X0059630Y0132475D01*
X0059520Y0133074D02*
X0060480Y0133074D01*
X0061079Y0133672D02*
X0058921Y0133672D01*
X0057265Y0134271D02*
X0075911Y0134271D01*
X0075711Y0134471D02*
X0076471Y0133711D01*
X0076936Y0133518D01*
X0077454Y0133000D01*
X0077154Y0132700D01*
X0076463Y0132700D01*
X0075471Y0132289D01*
X0074711Y0131529D01*
X0074300Y0130537D01*
X0074300Y0129463D01*
X0074711Y0128471D01*
X0075471Y0127711D01*
X0076463Y0127300D01*
X0077537Y0127300D01*
X0078529Y0127711D01*
X0079289Y0128471D01*
X0079700Y0129463D01*
X0079700Y0130154D01*
X0081800Y0132254D01*
X0082746Y0133200D01*
X0085201Y0133200D01*
X0085201Y0131426D01*
X0086079Y0130547D01*
X0092440Y0130547D01*
X0093141Y0131248D01*
X0093383Y0131007D01*
X0093679Y0130836D01*
X0094010Y0130747D01*
X0096440Y0130747D01*
X0096440Y0134700D01*
X0097040Y0134700D01*
X0097040Y0130747D01*
X0099470Y0130747D01*
X0099801Y0130836D01*
X0100097Y0131007D01*
X0100339Y0131249D01*
X0100511Y0131545D01*
X0100599Y0131876D01*
X0100599Y0134700D01*
X0097040Y0134700D01*
X0097040Y0135300D01*
X0096440Y0135300D01*
X0096440Y0139253D01*
X0094010Y0139253D01*
X0093679Y0139164D01*
X0093383Y0138993D01*
X0093141Y0138752D01*
X0092440Y0139453D01*
X0086079Y0139453D01*
X0085201Y0138574D01*
X0085201Y0136800D01*
X0081254Y0136800D01*
X0080700Y0136246D01*
X0080700Y0136537D01*
X0080289Y0137529D01*
X0079529Y0138289D01*
X0078537Y0138700D01*
X0077463Y0138700D01*
X0076471Y0138289D01*
X0075711Y0137529D01*
X0075300Y0136537D01*
X0075300Y0135463D01*
X0075711Y0134471D01*
X0075546Y0134870D02*
X0057250Y0134870D01*
X0057250Y0135468D02*
X0075300Y0135468D01*
X0075300Y0136067D02*
X0057250Y0136067D01*
X0059955Y0136665D02*
X0060044Y0136665D01*
X0060044Y0137264D02*
X0059955Y0137264D01*
X0059955Y0137862D02*
X0060044Y0137862D01*
X0060044Y0138461D02*
X0059955Y0138461D01*
X0059955Y0139059D02*
X0060044Y0139059D01*
X0060000Y0139331D02*
X0060000Y0142000D01*
X0061000Y0143000D01*
X0068750Y0143000D01*
X0071000Y0140750D01*
X0075601Y0137264D02*
X0064748Y0137264D01*
X0064748Y0137862D02*
X0076044Y0137862D01*
X0076885Y0138461D02*
X0064748Y0138461D01*
X0064748Y0139059D02*
X0085686Y0139059D01*
X0085201Y0138461D02*
X0079115Y0138461D01*
X0079956Y0137862D02*
X0085201Y0137862D01*
X0085201Y0137264D02*
X0080399Y0137264D01*
X0080647Y0136665D02*
X0081119Y0136665D01*
X0082000Y0135000D02*
X0080000Y0133000D01*
X0078000Y0135000D01*
X0078000Y0136000D01*
X0075353Y0136665D02*
X0064377Y0136665D01*
X0064039Y0133672D02*
X0076564Y0133672D01*
X0077380Y0133074D02*
X0064638Y0133074D01*
X0064748Y0132475D02*
X0065921Y0132475D01*
X0065059Y0131877D02*
X0064748Y0131877D01*
X0068079Y0132475D02*
X0075921Y0132475D01*
X0075059Y0131877D02*
X0068941Y0131877D01*
X0069393Y0131278D02*
X0074607Y0131278D01*
X0074359Y0130680D02*
X0069641Y0130680D01*
X0069700Y0130081D02*
X0074300Y0130081D01*
X0074300Y0129483D02*
X0069700Y0129483D01*
X0069460Y0128884D02*
X0074540Y0128884D01*
X0074896Y0128286D02*
X0069104Y0128286D01*
X0068472Y0127687D02*
X0075528Y0127687D01*
X0077000Y0130000D02*
X0080000Y0133000D01*
X0081423Y0131877D02*
X0085201Y0131877D01*
X0085201Y0132475D02*
X0082021Y0132475D01*
X0082620Y0133074D02*
X0085201Y0133074D01*
X0085348Y0131278D02*
X0080824Y0131278D01*
X0080226Y0130680D02*
X0085947Y0130680D01*
X0089260Y0135000D02*
X0082000Y0135000D01*
X0079700Y0130081D02*
X0103525Y0130081D01*
X0103300Y0129483D02*
X0079700Y0129483D01*
X0079460Y0128884D02*
X0103300Y0128884D01*
X0103373Y0128286D02*
X0102532Y0128286D01*
X0103862Y0130680D02*
X0092573Y0130680D01*
X0096440Y0131278D02*
X0097040Y0131278D01*
X0097040Y0131877D02*
X0096440Y0131877D01*
X0096440Y0132475D02*
X0097040Y0132475D01*
X0097040Y0133074D02*
X0096440Y0133074D01*
X0096440Y0133672D02*
X0097040Y0133672D01*
X0097040Y0134271D02*
X0096440Y0134271D01*
X0097040Y0134870D02*
X0104200Y0134870D01*
X0104200Y0135468D02*
X0100599Y0135468D01*
X0100599Y0135300D02*
X0100599Y0138124D01*
X0100511Y0138455D01*
X0100339Y0138751D01*
X0100097Y0138993D01*
X0099801Y0139164D01*
X0099470Y0139253D01*
X0097040Y0139253D01*
X0097040Y0135300D01*
X0100599Y0135300D01*
X0100599Y0136067D02*
X0104200Y0136067D01*
X0104200Y0136665D02*
X0100599Y0136665D01*
X0100599Y0137264D02*
X0104200Y0137264D01*
X0104200Y0137862D02*
X0100599Y0137862D01*
X0100507Y0138461D02*
X0104200Y0138461D01*
X0104200Y0139059D02*
X0099983Y0139059D01*
X0097040Y0139059D02*
X0096440Y0139059D01*
X0096440Y0138461D02*
X0097040Y0138461D01*
X0097040Y0137862D02*
X0096440Y0137862D01*
X0096440Y0137264D02*
X0097040Y0137264D01*
X0097040Y0136665D02*
X0096440Y0136665D01*
X0096440Y0136067D02*
X0097040Y0136067D01*
X0097040Y0135468D02*
X0096440Y0135468D01*
X0100599Y0134271D02*
X0104200Y0134271D01*
X0104200Y0133672D02*
X0100599Y0133672D01*
X0100599Y0133074D02*
X0104200Y0133074D01*
X0104200Y0132475D02*
X0100599Y0132475D01*
X0100599Y0131877D02*
X0104200Y0131877D01*
X0104200Y0131278D02*
X0100356Y0131278D01*
X0099468Y0128286D02*
X0079104Y0128286D01*
X0078472Y0127687D02*
X0098869Y0127687D01*
X0101000Y0126000D02*
X0114256Y0126000D01*
X0119586Y0120670D01*
X0120978Y0122062D02*
X0113000Y0130040D01*
X0113000Y0144000D01*
X0110510Y0145044D02*
X0108490Y0145044D01*
X0108700Y0144446D02*
X0110300Y0144446D01*
X0110300Y0143847D02*
X0108700Y0143847D01*
X0108611Y0143249D02*
X0110389Y0143249D01*
X0110637Y0142650D02*
X0108363Y0142650D01*
X0107870Y0142052D02*
X0111130Y0142052D01*
X0111200Y0141453D02*
X0107800Y0141453D01*
X0107800Y0140855D02*
X0111200Y0140855D01*
X0111200Y0140256D02*
X0107800Y0140256D01*
X0107800Y0139658D02*
X0111200Y0139658D01*
X0111200Y0139059D02*
X0107800Y0139059D01*
X0107800Y0138461D02*
X0111200Y0138461D01*
X0111200Y0137862D02*
X0107800Y0137862D01*
X0107800Y0137264D02*
X0111200Y0137264D01*
X0111200Y0136665D02*
X0107800Y0136665D01*
X0107800Y0136067D02*
X0111200Y0136067D01*
X0111200Y0135468D02*
X0107800Y0135468D01*
X0107800Y0134870D02*
X0111200Y0134870D01*
X0111200Y0134271D02*
X0107800Y0134271D01*
X0107800Y0133672D02*
X0111200Y0133672D01*
X0111200Y0133074D02*
X0107800Y0133074D01*
X0107800Y0132475D02*
X0111200Y0132475D01*
X0111200Y0131877D02*
X0107800Y0131877D01*
X0107800Y0131278D02*
X0111200Y0131278D01*
X0111200Y0130680D02*
X0108138Y0130680D01*
X0108475Y0130081D02*
X0111200Y0130081D01*
X0111200Y0129483D02*
X0108700Y0129483D01*
X0108700Y0128884D02*
X0111610Y0128884D01*
X0112209Y0128286D02*
X0108627Y0128286D01*
X0106000Y0129000D02*
X0106000Y0144000D01*
X0103510Y0145044D02*
X0081700Y0145044D01*
X0081693Y0144446D02*
X0103300Y0144446D01*
X0103300Y0143847D02*
X0081445Y0143847D01*
X0081067Y0143249D02*
X0103389Y0143249D01*
X0103637Y0142650D02*
X0080382Y0142650D01*
X0079000Y0145000D02*
X0077000Y0147000D01*
X0077000Y0156000D01*
X0078000Y0157000D01*
X0079260Y0157000D01*
X0075201Y0157014D02*
X0057250Y0157014D01*
X0057250Y0156416D02*
X0075200Y0156416D01*
X0075200Y0155817D02*
X0057250Y0155817D01*
X0057250Y0155219D02*
X0075200Y0155219D01*
X0075200Y0154620D02*
X0057250Y0154620D01*
X0057250Y0154022D02*
X0075200Y0154022D01*
X0075200Y0153423D02*
X0057250Y0153423D01*
X0057250Y0152825D02*
X0075200Y0152825D01*
X0075200Y0152226D02*
X0057250Y0152226D01*
X0057250Y0151628D02*
X0075200Y0151628D01*
X0075200Y0151029D02*
X0057250Y0151029D01*
X0057250Y0150431D02*
X0075200Y0150431D01*
X0075200Y0149832D02*
X0057250Y0149832D01*
X0057250Y0149234D02*
X0075200Y0149234D01*
X0075200Y0148635D02*
X0057250Y0148635D01*
X0057250Y0148037D02*
X0075200Y0148037D01*
X0075200Y0147438D02*
X0057250Y0147438D01*
X0057250Y0146840D02*
X0075200Y0146840D01*
X0075213Y0146241D02*
X0057250Y0146241D01*
X0057250Y0145643D02*
X0075812Y0145643D01*
X0076300Y0145044D02*
X0057250Y0145044D01*
X0057250Y0144446D02*
X0076307Y0144446D01*
X0076555Y0143847D02*
X0057250Y0143847D01*
X0057250Y0143249D02*
X0076933Y0143249D01*
X0077618Y0142650D02*
X0057250Y0142650D01*
X0059955Y0142052D02*
X0060044Y0142052D01*
X0060044Y0141453D02*
X0059955Y0141453D01*
X0059955Y0140855D02*
X0060044Y0140855D01*
X0060044Y0140256D02*
X0059955Y0140256D01*
X0059955Y0139658D02*
X0060044Y0139658D01*
X0064322Y0142052D02*
X0104130Y0142052D01*
X0104200Y0141453D02*
X0064748Y0141453D01*
X0064748Y0140855D02*
X0104200Y0140855D01*
X0104200Y0140256D02*
X0064748Y0140256D01*
X0064748Y0139658D02*
X0104200Y0139658D01*
X0103824Y0145643D02*
X0081656Y0145643D01*
X0081408Y0146241D02*
X0104423Y0146241D01*
X0107577Y0146241D02*
X0111423Y0146241D01*
X0110824Y0145643D02*
X0108176Y0145643D01*
X0114577Y0146241D02*
X0118423Y0146241D01*
X0117824Y0145643D02*
X0115176Y0145643D01*
X0115490Y0145044D02*
X0117510Y0145044D01*
X0117300Y0144446D02*
X0115700Y0144446D01*
X0115700Y0143847D02*
X0117300Y0143847D01*
X0117389Y0143249D02*
X0115611Y0143249D01*
X0115363Y0142650D02*
X0117637Y0142650D01*
X0118130Y0142052D02*
X0114870Y0142052D01*
X0114800Y0141453D02*
X0118200Y0141453D01*
X0118200Y0140855D02*
X0114800Y0140855D01*
X0114800Y0140256D02*
X0118200Y0140256D01*
X0118200Y0139658D02*
X0114800Y0139658D01*
X0114800Y0139059D02*
X0118200Y0139059D01*
X0118200Y0138461D02*
X0114800Y0138461D01*
X0114800Y0137862D02*
X0118200Y0137862D01*
X0118200Y0137264D02*
X0114800Y0137264D01*
X0114800Y0136665D02*
X0118200Y0136665D01*
X0118200Y0136067D02*
X0114800Y0136067D01*
X0114800Y0135468D02*
X0118200Y0135468D01*
X0118200Y0134870D02*
X0114800Y0134870D01*
X0114800Y0134271D02*
X0118200Y0134271D01*
X0118200Y0133672D02*
X0114800Y0133672D01*
X0114800Y0133074D02*
X0118380Y0133074D01*
X0118979Y0132475D02*
X0114800Y0132475D01*
X0114800Y0131877D02*
X0119577Y0131877D01*
X0120176Y0131278D02*
X0114800Y0131278D01*
X0114906Y0130680D02*
X0120774Y0130680D01*
X0121373Y0130081D02*
X0115504Y0130081D01*
X0116103Y0129483D02*
X0121971Y0129483D01*
X0122570Y0128884D02*
X0116701Y0128884D01*
X0117300Y0128286D02*
X0122608Y0128286D01*
X0122010Y0127687D02*
X0117898Y0127687D01*
X0118497Y0127089D02*
X0121411Y0127089D01*
X0120813Y0126490D02*
X0119095Y0126490D01*
X0119694Y0125892D02*
X0120214Y0125892D01*
X0123762Y0124846D02*
X0116000Y0132608D01*
X0116000Y0147000D01*
X0116463Y0148300D02*
X0117537Y0148300D01*
X0118529Y0148711D01*
X0119289Y0149471D01*
X0119700Y0150463D01*
X0119700Y0151537D01*
X0119289Y0152529D01*
X0119271Y0152547D01*
X0119921Y0152547D01*
X0120799Y0153426D01*
X0120799Y0160574D01*
X0119921Y0161453D01*
X0117738Y0161453D01*
X0118185Y0161900D01*
X0123021Y0161900D01*
X0123900Y0162778D01*
X0123900Y0172820D01*
X0123500Y0173220D01*
X0123500Y0186370D01*
X0127708Y0186370D01*
X0128587Y0187249D01*
X0128587Y0197153D01*
X0127708Y0198031D01*
X0112292Y0198031D01*
X0111413Y0197153D01*
X0111413Y0187249D01*
X0112292Y0186370D01*
X0118500Y0186370D01*
X0118500Y0173699D01*
X0116979Y0173699D01*
X0116100Y0172820D01*
X0116100Y0166886D01*
X0114801Y0165587D01*
X0114801Y0172820D01*
X0113923Y0173699D01*
X0107881Y0173699D01*
X0107002Y0172820D01*
X0107002Y0162778D01*
X0107881Y0161900D01*
X0107950Y0161900D01*
X0107950Y0161453D01*
X0106079Y0161453D01*
X0105201Y0160574D01*
X0105201Y0153426D01*
X0106079Y0152547D01*
X0112440Y0152547D01*
X0113000Y0153107D01*
X0113560Y0152547D01*
X0114729Y0152547D01*
X0114711Y0152529D01*
X0114300Y0151537D01*
X0114300Y0150463D01*
X0114711Y0149471D01*
X0115471Y0148711D01*
X0116463Y0148300D01*
X0115654Y0148635D02*
X0078800Y0148635D01*
X0078800Y0148037D02*
X0265000Y0148037D01*
X0265000Y0148635D02*
X0118346Y0148635D01*
X0119052Y0149234D02*
X0265000Y0149234D01*
X0265000Y0149832D02*
X0119439Y0149832D01*
X0119687Y0150431D02*
X0265000Y0150431D01*
X0265000Y0151029D02*
X0119700Y0151029D01*
X0119662Y0151628D02*
X0265000Y0151628D01*
X0265000Y0152226D02*
X0119414Y0152226D01*
X0120198Y0152825D02*
X0132357Y0152825D01*
X0132471Y0152711D02*
X0133463Y0152300D01*
X0134537Y0152300D01*
X0135529Y0152711D01*
X0136018Y0153200D01*
X0136427Y0153200D01*
X0137079Y0152547D01*
X0143440Y0152547D01*
X0144000Y0153107D01*
X0144560Y0152547D01*
X0150921Y0152547D01*
X0151799Y0153426D01*
X0151799Y0156132D01*
X0151971Y0155961D01*
X0152963Y0155550D01*
X0154037Y0155550D01*
X0155029Y0155961D01*
X0155789Y0156721D01*
X0155989Y0157203D01*
X0158666Y0159881D01*
X0159369Y0160584D01*
X0159750Y0161503D01*
X0159750Y0161900D01*
X0161021Y0161900D01*
X0161900Y0162778D01*
X0161900Y0172820D01*
X0161021Y0173699D01*
X0161000Y0173699D01*
X0161000Y0186370D01*
X0165708Y0186370D01*
X0166587Y0187249D01*
X0166587Y0197153D01*
X0165708Y0198031D01*
X0150292Y0198031D01*
X0149413Y0197153D01*
X0149413Y0187249D01*
X0150292Y0186370D01*
X0156000Y0186370D01*
X0156000Y0173699D01*
X0154979Y0173699D01*
X0154100Y0172820D01*
X0154100Y0162778D01*
X0154297Y0162582D01*
X0152453Y0160739D01*
X0151971Y0160539D01*
X0151799Y0160368D01*
X0151799Y0160574D01*
X0150921Y0161453D01*
X0150300Y0161453D01*
X0150300Y0161900D01*
X0151923Y0161900D01*
X0152801Y0162778D01*
X0152801Y0172820D01*
X0151923Y0173699D01*
X0145881Y0173699D01*
X0145002Y0172820D01*
X0145002Y0162778D01*
X0145881Y0161900D01*
X0146700Y0161900D01*
X0146700Y0161453D01*
X0144560Y0161453D01*
X0144000Y0160893D01*
X0143440Y0161453D01*
X0137079Y0161453D01*
X0136201Y0160574D01*
X0136201Y0156800D01*
X0136018Y0156800D01*
X0135529Y0157289D01*
X0134537Y0157700D01*
X0133463Y0157700D01*
X0132471Y0157289D01*
X0131711Y0156529D01*
X0131300Y0155537D01*
X0131300Y0154463D01*
X0131711Y0153471D01*
X0132471Y0152711D01*
X0131758Y0153423D02*
X0120797Y0153423D01*
X0120799Y0154022D02*
X0131483Y0154022D01*
X0131300Y0154620D02*
X0120799Y0154620D01*
X0120799Y0155219D02*
X0131300Y0155219D01*
X0131416Y0155817D02*
X0120799Y0155817D01*
X0120799Y0156416D02*
X0131664Y0156416D01*
X0132196Y0157014D02*
X0120799Y0157014D01*
X0120799Y0157613D02*
X0133253Y0157613D01*
X0134747Y0157613D02*
X0136201Y0157613D01*
X0136201Y0158211D02*
X0120799Y0158211D01*
X0120799Y0158810D02*
X0136201Y0158810D01*
X0136201Y0159408D02*
X0120799Y0159408D01*
X0120799Y0160007D02*
X0136201Y0160007D01*
X0136232Y0160605D02*
X0120768Y0160605D01*
X0120169Y0161204D02*
X0136831Y0161204D01*
X0136201Y0157014D02*
X0135804Y0157014D01*
X0134000Y0155000D02*
X0140000Y0155000D01*
X0140260Y0155260D01*
X0140260Y0157000D01*
X0143718Y0152825D02*
X0144282Y0152825D01*
X0147740Y0157000D02*
X0148500Y0157000D01*
X0148500Y0167000D01*
X0148902Y0167799D01*
X0152801Y0167788D02*
X0154100Y0167788D01*
X0154100Y0168386D02*
X0152801Y0168386D01*
X0152801Y0168985D02*
X0154100Y0168985D01*
X0154100Y0169583D02*
X0152801Y0169583D01*
X0152801Y0170182D02*
X0154100Y0170182D01*
X0154100Y0170780D02*
X0152801Y0170780D01*
X0152801Y0171379D02*
X0154100Y0171379D01*
X0154100Y0171977D02*
X0152801Y0171977D01*
X0152801Y0172576D02*
X0154100Y0172576D01*
X0154454Y0173174D02*
X0152447Y0173174D01*
X0156000Y0173773D02*
X0123500Y0173773D01*
X0123500Y0174371D02*
X0156000Y0174371D01*
X0156000Y0174970D02*
X0123500Y0174970D01*
X0123500Y0175568D02*
X0156000Y0175568D01*
X0156000Y0176167D02*
X0123500Y0176167D01*
X0123500Y0176765D02*
X0156000Y0176765D01*
X0156000Y0177364D02*
X0123500Y0177364D01*
X0123500Y0177962D02*
X0156000Y0177962D01*
X0156000Y0178561D02*
X0123500Y0178561D01*
X0123500Y0179159D02*
X0156000Y0179159D01*
X0156000Y0179758D02*
X0123500Y0179758D01*
X0123500Y0180356D02*
X0156000Y0180356D01*
X0156000Y0180955D02*
X0123500Y0180955D01*
X0123500Y0181553D02*
X0156000Y0181553D01*
X0156000Y0182152D02*
X0123500Y0182152D01*
X0123500Y0182750D02*
X0156000Y0182750D01*
X0156000Y0183349D02*
X0123500Y0183349D01*
X0123500Y0183947D02*
X0156000Y0183947D01*
X0156000Y0184546D02*
X0123500Y0184546D01*
X0123500Y0185144D02*
X0156000Y0185144D01*
X0156000Y0185743D02*
X0123500Y0185743D01*
X0123500Y0186341D02*
X0156000Y0186341D01*
X0161000Y0186341D02*
X0265000Y0186341D01*
X0265000Y0185743D02*
X0161000Y0185743D01*
X0161000Y0185144D02*
X0265000Y0185144D01*
X0265000Y0184546D02*
X0161000Y0184546D01*
X0161000Y0183947D02*
X0265000Y0183947D01*
X0265000Y0183349D02*
X0161000Y0183349D01*
X0161000Y0182750D02*
X0265000Y0182750D01*
X0265000Y0182152D02*
X0161000Y0182152D01*
X0161000Y0181553D02*
X0215719Y0181553D01*
X0215888Y0181722D02*
X0212900Y0178735D01*
X0212900Y0176922D01*
X0217700Y0176922D01*
X0217700Y0176322D01*
X0218300Y0176322D01*
X0218300Y0171522D01*
X0220112Y0171522D01*
X0223100Y0174510D01*
X0223100Y0176322D01*
X0218300Y0176322D01*
X0218300Y0176922D01*
X0223100Y0176922D01*
X0223100Y0178735D01*
X0220112Y0181722D01*
X0218300Y0181722D01*
X0218300Y0176922D01*
X0217700Y0176922D01*
X0217700Y0181722D01*
X0215888Y0181722D01*
X0215120Y0180955D02*
X0161000Y0180955D01*
X0161000Y0180356D02*
X0214522Y0180356D01*
X0213923Y0179758D02*
X0161000Y0179758D01*
X0161000Y0179159D02*
X0213325Y0179159D01*
X0212900Y0178561D02*
X0161000Y0178561D01*
X0161000Y0177962D02*
X0212900Y0177962D01*
X0212900Y0177364D02*
X0161000Y0177364D01*
X0161000Y0176765D02*
X0217700Y0176765D01*
X0217700Y0176322D02*
X0212900Y0176322D01*
X0212900Y0174510D01*
X0215888Y0171522D01*
X0217700Y0171522D01*
X0217700Y0176322D01*
X0217700Y0176167D02*
X0218300Y0176167D01*
X0218300Y0176765D02*
X0265000Y0176765D01*
X0265000Y0176167D02*
X0223100Y0176167D01*
X0223100Y0175568D02*
X0265000Y0175568D01*
X0265000Y0174970D02*
X0223100Y0174970D01*
X0222962Y0174371D02*
X0265000Y0174371D01*
X0265000Y0173773D02*
X0222363Y0173773D01*
X0221765Y0173174D02*
X0265000Y0173174D01*
X0265000Y0172576D02*
X0221166Y0172576D01*
X0220568Y0171977D02*
X0265000Y0171977D01*
X0265000Y0171379D02*
X0170798Y0171379D01*
X0170798Y0171977D02*
X0215432Y0171977D01*
X0214834Y0172576D02*
X0170743Y0172576D01*
X0170709Y0172701D02*
X0170538Y0172997D01*
X0170296Y0173239D01*
X0170000Y0173410D01*
X0169669Y0173499D01*
X0167398Y0173499D01*
X0167398Y0168099D01*
X0166798Y0168099D01*
X0166798Y0167499D01*
X0163399Y0167499D01*
X0163399Y0163228D01*
X0163487Y0162898D01*
X0163659Y0162601D01*
X0163901Y0162359D01*
X0164197Y0162188D01*
X0164528Y0162100D01*
X0166798Y0162100D01*
X0166798Y0167499D01*
X0167398Y0167499D01*
X0167398Y0162100D01*
X0169669Y0162100D01*
X0170000Y0162188D01*
X0170296Y0162359D01*
X0170538Y0162601D01*
X0170709Y0162898D01*
X0170798Y0163228D01*
X0170798Y0167499D01*
X0167398Y0167499D01*
X0167398Y0168099D01*
X0170798Y0168099D01*
X0170798Y0172370D01*
X0170709Y0172701D01*
X0170361Y0173174D02*
X0214235Y0173174D01*
X0213637Y0173773D02*
X0161000Y0173773D01*
X0161000Y0174371D02*
X0213038Y0174371D01*
X0212900Y0174970D02*
X0161000Y0174970D01*
X0161000Y0175568D02*
X0212900Y0175568D01*
X0212900Y0176167D02*
X0161000Y0176167D01*
X0161545Y0173174D02*
X0163836Y0173174D01*
X0163901Y0173239D02*
X0163659Y0172997D01*
X0163487Y0172701D01*
X0163399Y0172370D01*
X0163399Y0168099D01*
X0166798Y0168099D01*
X0166798Y0173499D01*
X0164528Y0173499D01*
X0164197Y0173410D01*
X0163901Y0173239D01*
X0163454Y0172576D02*
X0161900Y0172576D01*
X0161900Y0171977D02*
X0163399Y0171977D01*
X0163399Y0171379D02*
X0161900Y0171379D01*
X0161900Y0170780D02*
X0163399Y0170780D01*
X0163399Y0170182D02*
X0161900Y0170182D01*
X0161900Y0169583D02*
X0163399Y0169583D01*
X0163399Y0168985D02*
X0161900Y0168985D01*
X0161900Y0168386D02*
X0163399Y0168386D01*
X0163399Y0167189D02*
X0161900Y0167189D01*
X0161900Y0166591D02*
X0163399Y0166591D01*
X0163399Y0165992D02*
X0161900Y0165992D01*
X0161900Y0165394D02*
X0163399Y0165394D01*
X0163399Y0164795D02*
X0161900Y0164795D01*
X0161900Y0164197D02*
X0163399Y0164197D01*
X0163399Y0163598D02*
X0161900Y0163598D01*
X0161900Y0163000D02*
X0163460Y0163000D01*
X0163859Y0162401D02*
X0161522Y0162401D01*
X0159750Y0161803D02*
X0265000Y0161803D01*
X0265000Y0162401D02*
X0170338Y0162401D01*
X0170737Y0163000D02*
X0265000Y0163000D01*
X0265000Y0163598D02*
X0170798Y0163598D01*
X0170798Y0164197D02*
X0265000Y0164197D01*
X0265000Y0164795D02*
X0170798Y0164795D01*
X0170798Y0165394D02*
X0265000Y0165394D01*
X0265000Y0165992D02*
X0170798Y0165992D01*
X0170798Y0166591D02*
X0265000Y0166591D01*
X0265000Y0167189D02*
X0170798Y0167189D01*
X0170798Y0168386D02*
X0265000Y0168386D01*
X0265000Y0167788D02*
X0167398Y0167788D01*
X0167398Y0168386D02*
X0166798Y0168386D01*
X0166798Y0167788D02*
X0161900Y0167788D01*
X0166798Y0167189D02*
X0167398Y0167189D01*
X0167398Y0166591D02*
X0166798Y0166591D01*
X0166798Y0165992D02*
X0167398Y0165992D01*
X0167398Y0165394D02*
X0166798Y0165394D01*
X0166798Y0164795D02*
X0167398Y0164795D01*
X0167398Y0164197D02*
X0166798Y0164197D01*
X0166798Y0163598D02*
X0167398Y0163598D01*
X0167398Y0163000D02*
X0166798Y0163000D01*
X0166798Y0162401D02*
X0167398Y0162401D01*
X0167398Y0168985D02*
X0166798Y0168985D01*
X0166798Y0169583D02*
X0167398Y0169583D01*
X0167398Y0170182D02*
X0166798Y0170182D01*
X0166798Y0170780D02*
X0167398Y0170780D01*
X0167398Y0171379D02*
X0166798Y0171379D01*
X0166798Y0171977D02*
X0167398Y0171977D01*
X0167398Y0172576D02*
X0166798Y0172576D01*
X0166798Y0173174D02*
X0167398Y0173174D01*
X0170798Y0170780D02*
X0265000Y0170780D01*
X0265000Y0170182D02*
X0170798Y0170182D01*
X0170798Y0169583D02*
X0265000Y0169583D01*
X0265000Y0168985D02*
X0170798Y0168985D01*
X0159626Y0161204D02*
X0265000Y0161204D01*
X0265000Y0160605D02*
X0159378Y0160605D01*
X0158793Y0160007D02*
X0265000Y0160007D01*
X0265000Y0159408D02*
X0158194Y0159408D01*
X0158666Y0159881D02*
X0158666Y0159881D01*
X0157595Y0158810D02*
X0265000Y0158810D01*
X0265000Y0158211D02*
X0156997Y0158211D01*
X0156398Y0157613D02*
X0265000Y0157613D01*
X0265000Y0157014D02*
X0155911Y0157014D01*
X0155484Y0156416D02*
X0265000Y0156416D01*
X0265000Y0155817D02*
X0154683Y0155817D01*
X0152317Y0155817D02*
X0151799Y0155817D01*
X0151799Y0155219D02*
X0265000Y0155219D01*
X0265000Y0154620D02*
X0151799Y0154620D01*
X0151799Y0154022D02*
X0265000Y0154022D01*
X0265000Y0153423D02*
X0151797Y0153423D01*
X0151198Y0152825D02*
X0265000Y0152825D01*
X0265000Y0147438D02*
X0080169Y0147438D01*
X0080979Y0146840D02*
X0265000Y0146840D01*
X0265000Y0146241D02*
X0161577Y0146241D01*
X0162176Y0145643D02*
X0265000Y0145643D01*
X0265000Y0145044D02*
X0162490Y0145044D01*
X0162700Y0144446D02*
X0265000Y0144446D01*
X0265000Y0143847D02*
X0162700Y0143847D01*
X0162611Y0143249D02*
X0265000Y0143249D01*
X0265000Y0142650D02*
X0162363Y0142650D01*
X0161870Y0142052D02*
X0265000Y0142052D01*
X0265000Y0141453D02*
X0160907Y0141453D01*
X0159093Y0141453D02*
X0128800Y0141453D01*
X0128800Y0140855D02*
X0265000Y0140855D01*
X0265000Y0140256D02*
X0128800Y0140256D01*
X0128800Y0139658D02*
X0265000Y0139658D01*
X0265000Y0139059D02*
X0128800Y0139059D01*
X0128800Y0138461D02*
X0265000Y0138461D01*
X0265000Y0137862D02*
X0128800Y0137862D01*
X0128800Y0137264D02*
X0152445Y0137264D01*
X0154000Y0135000D02*
X0137000Y0135000D01*
X0133256Y0131256D01*
X0133256Y0131000D01*
X0132670Y0130414D01*
X0134062Y0129062D02*
X0137000Y0132000D01*
X0153978Y0132022D01*
X0161000Y0127000D01*
X0162061Y0129483D02*
X0265000Y0129483D01*
X0265000Y0130081D02*
X0159786Y0130081D01*
X0158949Y0130680D02*
X0265000Y0130680D01*
X0265000Y0131278D02*
X0158112Y0131278D01*
X0157275Y0131877D02*
X0265000Y0131877D01*
X0265000Y0132475D02*
X0156438Y0132475D01*
X0155892Y0133074D02*
X0265000Y0133074D01*
X0265000Y0133672D02*
X0156373Y0133672D01*
X0156620Y0134271D02*
X0265000Y0134271D01*
X0265000Y0134870D02*
X0156700Y0134870D01*
X0156700Y0135468D02*
X0265000Y0135468D01*
X0265000Y0136067D02*
X0156481Y0136067D01*
X0156153Y0136665D02*
X0265000Y0136665D01*
X0265000Y0137264D02*
X0155555Y0137264D01*
X0158130Y0142052D02*
X0128800Y0142052D01*
X0127000Y0143000D02*
X0128000Y0144000D01*
X0160000Y0144000D01*
X0158423Y0146241D02*
X0121577Y0146241D01*
X0122176Y0145643D02*
X0127097Y0145643D01*
X0126499Y0145044D02*
X0122490Y0145044D01*
X0122700Y0144446D02*
X0125900Y0144446D01*
X0125302Y0143847D02*
X0122700Y0143847D01*
X0122611Y0143249D02*
X0125200Y0143249D01*
X0125200Y0142650D02*
X0122363Y0142650D01*
X0121870Y0142052D02*
X0125200Y0142052D01*
X0125200Y0141453D02*
X0125133Y0141453D01*
X0122867Y0141453D02*
X0121800Y0141453D01*
X0121800Y0140855D02*
X0122036Y0140855D01*
X0124000Y0139000D02*
X0124000Y0132960D01*
X0127938Y0129022D01*
X0129330Y0130414D02*
X0127000Y0132744D01*
X0127000Y0143000D01*
X0128800Y0136665D02*
X0136119Y0136665D01*
X0135521Y0136067D02*
X0128800Y0136067D01*
X0128800Y0135468D02*
X0129790Y0135468D01*
X0129192Y0134870D02*
X0128800Y0134870D01*
X0132210Y0135468D02*
X0134922Y0135468D01*
X0134324Y0134870D02*
X0132808Y0134870D01*
X0133407Y0134271D02*
X0133725Y0134271D01*
X0137627Y0130081D02*
X0153597Y0130081D01*
X0154434Y0129483D02*
X0138195Y0129483D01*
X0138793Y0128884D02*
X0155271Y0128884D01*
X0156108Y0128286D02*
X0139392Y0128286D01*
X0139990Y0127687D02*
X0156945Y0127687D01*
X0157781Y0127089D02*
X0140589Y0127089D01*
X0141187Y0126490D02*
X0158300Y0126490D01*
X0158537Y0125892D02*
X0141786Y0125892D01*
X0142960Y0124000D02*
X0144000Y0124000D01*
X0161000Y0107000D01*
X0162685Y0109134D02*
X0167315Y0109134D01*
X0166717Y0108535D02*
X0163283Y0108535D01*
X0160814Y0109732D02*
X0233200Y0109732D01*
X0233200Y0109134D02*
X0170685Y0109134D01*
X0171283Y0108535D02*
X0233200Y0108535D01*
X0233200Y0107937D02*
X0171535Y0107937D01*
X0171700Y0107338D02*
X0233200Y0107338D01*
X0233200Y0106739D02*
X0171806Y0106739D01*
X0172405Y0106141D02*
X0233200Y0106141D01*
X0233200Y0105542D02*
X0199521Y0105542D01*
X0196479Y0105542D02*
X0173003Y0105542D01*
X0173602Y0104944D02*
X0195876Y0104944D01*
X0195531Y0104345D02*
X0174200Y0104345D01*
X0174799Y0103747D02*
X0195300Y0103747D01*
X0195300Y0103148D02*
X0175397Y0103148D01*
X0175996Y0102550D02*
X0195368Y0102550D01*
X0195615Y0101951D02*
X0176594Y0101951D01*
X0177193Y0101353D02*
X0196079Y0101353D01*
X0196940Y0100754D02*
X0177791Y0100754D01*
X0178390Y0100156D02*
X0196940Y0100156D01*
X0196940Y0099557D02*
X0178988Y0099557D01*
X0187250Y0097000D02*
X0194750Y0097000D01*
X0194750Y0089500D01*
X0199750Y0084500D01*
X0191000Y0085000D02*
X0191000Y0079260D01*
X0191260Y0079000D01*
X0185000Y0079000D02*
X0179000Y0079000D01*
X0178500Y0079500D01*
X0177740Y0079000D01*
X0177740Y0073260D01*
X0178000Y0073000D01*
X0174089Y0075018D02*
X0173911Y0075018D01*
X0171000Y0079500D02*
X0170260Y0079000D01*
X0170000Y0079260D01*
X0170000Y0086000D01*
X0172513Y0086989D02*
X0175943Y0086989D01*
X0176542Y0087587D02*
X0172231Y0087587D01*
X0171633Y0088186D02*
X0177140Y0088186D01*
X0175345Y0086390D02*
X0172700Y0086390D01*
X0172700Y0085792D02*
X0174746Y0085792D01*
X0174148Y0085193D02*
X0172588Y0085193D01*
X0172340Y0084595D02*
X0173549Y0084595D01*
X0172950Y0083996D02*
X0171814Y0083996D01*
X0171000Y0079500D02*
X0187250Y0095750D01*
X0187250Y0097000D01*
X0191260Y0093000D02*
X0191000Y0092000D01*
X0178500Y0079500D01*
X0184170Y0072624D02*
X0195079Y0072624D01*
X0194394Y0072026D02*
X0183571Y0072026D01*
X0182973Y0071427D02*
X0193636Y0071427D01*
X0192877Y0070829D02*
X0182374Y0070829D01*
X0181776Y0070230D02*
X0192119Y0070230D01*
X0191360Y0069632D02*
X0186702Y0069632D01*
X0187785Y0069033D02*
X0190488Y0069033D01*
X0189843Y0068435D02*
X0188328Y0068435D01*
X0188576Y0067836D02*
X0189460Y0067836D01*
X0189445Y0067238D02*
X0188700Y0067238D01*
X0188700Y0066639D02*
X0189457Y0066639D01*
X0191260Y0067260D02*
X0196000Y0071000D01*
X0203000Y0071000D01*
X0201148Y0069033D02*
X0196413Y0069033D01*
X0195655Y0068435D02*
X0202138Y0068435D01*
X0203862Y0068435D02*
X0205450Y0068435D01*
X0205450Y0069033D02*
X0204852Y0069033D01*
X0205356Y0069632D02*
X0205450Y0069632D01*
X0205450Y0067836D02*
X0194896Y0067836D01*
X0194138Y0067238D02*
X0205450Y0067238D01*
X0205450Y0066639D02*
X0193379Y0066639D01*
X0194852Y0066041D02*
X0195466Y0066041D01*
X0198440Y0066041D02*
X0199040Y0066041D01*
X0199040Y0066253D02*
X0199040Y0062300D01*
X0202599Y0062300D01*
X0202599Y0065124D01*
X0202511Y0065455D01*
X0202339Y0065751D01*
X0202097Y0065993D01*
X0201801Y0066164D01*
X0201470Y0066253D01*
X0199040Y0066253D01*
X0199040Y0065442D02*
X0198440Y0065442D01*
X0198440Y0064844D02*
X0199040Y0064844D01*
X0199040Y0064245D02*
X0198440Y0064245D01*
X0198440Y0063647D02*
X0199040Y0063647D01*
X0199040Y0063048D02*
X0198440Y0063048D01*
X0198440Y0062450D02*
X0199040Y0062450D01*
X0199040Y0061851D02*
X0205450Y0061851D01*
X0205450Y0061253D02*
X0202599Y0061253D01*
X0202599Y0060654D02*
X0205450Y0060654D01*
X0205450Y0060056D02*
X0202599Y0060056D01*
X0202599Y0059457D02*
X0205450Y0059457D01*
X0205450Y0058859D02*
X0202595Y0058859D01*
X0202346Y0058260D02*
X0205450Y0058260D01*
X0205450Y0057662D02*
X0194555Y0057662D01*
X0198440Y0058260D02*
X0199040Y0058260D01*
X0199040Y0058859D02*
X0198440Y0058859D01*
X0198440Y0059457D02*
X0199040Y0059457D01*
X0199040Y0060056D02*
X0198440Y0060056D01*
X0198440Y0060654D02*
X0199040Y0060654D01*
X0199040Y0061253D02*
X0198440Y0061253D01*
X0202599Y0062450D02*
X0205450Y0062450D01*
X0205450Y0063048D02*
X0202599Y0063048D01*
X0202599Y0063647D02*
X0205450Y0063647D01*
X0205450Y0064245D02*
X0202599Y0064245D01*
X0202599Y0064844D02*
X0205450Y0064844D01*
X0205450Y0065442D02*
X0202514Y0065442D01*
X0202015Y0066041D02*
X0205450Y0066041D01*
X0191260Y0067260D02*
X0191260Y0062000D01*
X0189000Y0062000D01*
X0186000Y0065000D01*
X0186000Y0067000D01*
X0183475Y0066041D02*
X0177586Y0066041D01*
X0177834Y0065442D02*
X0178434Y0065442D01*
X0178434Y0064844D02*
X0177834Y0064844D01*
X0177834Y0064245D02*
X0178434Y0064245D01*
X0178434Y0063647D02*
X0177834Y0063647D01*
X0177834Y0063048D02*
X0178434Y0063048D01*
X0178434Y0062450D02*
X0177834Y0062450D01*
X0177834Y0060654D02*
X0178434Y0060654D01*
X0178434Y0060056D02*
X0177834Y0060056D01*
X0177834Y0059457D02*
X0178434Y0059457D01*
X0178434Y0058859D02*
X0177834Y0058859D01*
X0181796Y0062450D02*
X0186005Y0062450D01*
X0185406Y0063048D02*
X0181796Y0063048D01*
X0181796Y0063647D02*
X0184808Y0063647D01*
X0184209Y0064245D02*
X0181796Y0064245D01*
X0181713Y0064844D02*
X0184200Y0064844D01*
X0183739Y0065442D02*
X0181225Y0065442D01*
X0183300Y0066639D02*
X0178185Y0066639D01*
X0178783Y0067238D02*
X0183300Y0067238D01*
X0183424Y0067836D02*
X0179382Y0067836D01*
X0179980Y0068435D02*
X0183672Y0068435D01*
X0184215Y0069033D02*
X0180579Y0069033D01*
X0181177Y0069632D02*
X0185298Y0069632D01*
X0191000Y0062000D02*
X0191260Y0062000D01*
X0191000Y0062000D02*
X0183500Y0054500D01*
X0183500Y0028250D01*
X0187250Y0024500D01*
X0188300Y0025500D01*
X0193522Y0022349D02*
X0202478Y0022349D01*
X0202300Y0021751D02*
X0193700Y0021751D01*
X0193700Y0021152D02*
X0202300Y0021152D01*
X0202300Y0020554D02*
X0193700Y0020554D01*
X0193700Y0019955D02*
X0202300Y0019955D01*
X0202300Y0019357D02*
X0193700Y0019357D01*
X0193630Y0018758D02*
X0202370Y0018758D01*
X0202969Y0018160D02*
X0193031Y0018160D01*
X0193310Y0017561D02*
X0202973Y0017561D01*
X0202565Y0016963D02*
X0193700Y0016963D01*
X0193700Y0016364D02*
X0202500Y0016364D01*
X0202500Y0015766D02*
X0193700Y0015766D01*
X0193700Y0015167D02*
X0202500Y0015167D01*
X0202500Y0015275D02*
X0202500Y0014279D01*
X0202589Y0013948D01*
X0202760Y0013652D01*
X0203002Y0013410D01*
X0203298Y0013239D01*
X0203629Y0013150D01*
X0207475Y0013150D01*
X0207475Y0015275D01*
X0202500Y0015275D01*
X0202500Y0014569D02*
X0193700Y0014569D01*
X0193700Y0013970D02*
X0202583Y0013970D01*
X0203068Y0013372D02*
X0193243Y0013372D01*
X0207475Y0013372D02*
X0207925Y0013372D01*
X0207925Y0013970D02*
X0207475Y0013970D01*
X0207475Y0014569D02*
X0207925Y0014569D01*
X0207925Y0015167D02*
X0207475Y0015167D01*
X0207475Y0015766D02*
X0207925Y0015766D01*
X0207925Y0016364D02*
X0207475Y0016364D01*
X0207475Y0016963D02*
X0207925Y0016963D01*
X0207925Y0017561D02*
X0207475Y0017561D01*
X0172067Y0027137D02*
X0160228Y0027137D01*
X0153308Y0034918D02*
X0152975Y0034918D01*
X0164050Y0057662D02*
X0184116Y0057662D01*
X0166760Y0058260D02*
X0164050Y0058260D01*
X0164050Y0058859D02*
X0166162Y0058859D01*
X0166004Y0059457D02*
X0164050Y0059457D01*
X0164050Y0060056D02*
X0166004Y0060056D01*
X0166004Y0060654D02*
X0164050Y0060654D01*
X0164050Y0061253D02*
X0166004Y0061253D01*
X0166004Y0061851D02*
X0164050Y0061851D01*
X0164050Y0062450D02*
X0166004Y0062450D01*
X0166004Y0063048D02*
X0164050Y0063048D01*
X0164050Y0063647D02*
X0166004Y0063647D01*
X0166004Y0064245D02*
X0164050Y0064245D01*
X0164050Y0064844D02*
X0166004Y0064844D01*
X0166463Y0065442D02*
X0164050Y0065442D01*
X0161000Y0074000D02*
X0161000Y0076000D01*
X0158000Y0079000D01*
X0155740Y0079000D01*
X0155740Y0087000D01*
X0146000Y0092000D02*
X0143000Y0089000D01*
X0136000Y0086000D02*
X0132000Y0082000D01*
X0132000Y0073000D01*
X0123470Y0067238D02*
X0107783Y0067238D01*
X0107185Y0066639D02*
X0123450Y0066639D01*
X0122000Y0073000D02*
X0122000Y0080000D01*
X0109000Y0093000D01*
X0105822Y0089383D02*
X0100023Y0089383D01*
X0100205Y0089981D02*
X0105223Y0089981D01*
X0104625Y0090580D02*
X0100205Y0090580D01*
X0100205Y0091178D02*
X0104026Y0091178D01*
X0103428Y0091777D02*
X0100205Y0091777D01*
X0100205Y0092375D02*
X0102829Y0092375D01*
X0102231Y0092974D02*
X0096646Y0092974D01*
X0096346Y0093000D02*
X0095346Y0097000D01*
X0086000Y0097000D01*
X0085594Y0096565D02*
X0084950Y0096565D01*
X0084848Y0095966D02*
X0085594Y0095966D01*
X0085594Y0095368D02*
X0084600Y0095368D01*
X0082250Y0096750D02*
X0077250Y0100750D01*
X0076654Y0101866D01*
X0070200Y0101951D02*
X0023646Y0101951D01*
X0023646Y0102166D02*
X0027599Y0102166D01*
X0027599Y0102206D01*
X0027474Y0102833D01*
X0027229Y0103425D01*
X0026874Y0103957D01*
X0026421Y0104409D01*
X0025889Y0104765D01*
X0025298Y0105010D01*
X0024670Y0105135D01*
X0023646Y0105135D01*
X0023646Y0102166D01*
X0023646Y0102550D02*
X0023046Y0102550D01*
X0023046Y0103148D02*
X0023646Y0103148D01*
X0023646Y0103747D02*
X0023046Y0103747D01*
X0023046Y0104345D02*
X0023646Y0104345D01*
X0023646Y0104944D02*
X0023046Y0104944D01*
X0021236Y0104944D02*
X0020000Y0104944D01*
X0020000Y0105542D02*
X0070142Y0105542D01*
X0070200Y0104944D02*
X0025457Y0104944D01*
X0026485Y0104345D02*
X0070200Y0104345D01*
X0070200Y0103747D02*
X0027014Y0103747D01*
X0027344Y0103148D02*
X0070200Y0103148D01*
X0070200Y0102550D02*
X0027531Y0102550D01*
X0027565Y0101353D02*
X0070200Y0101353D01*
X0070200Y0100754D02*
X0027415Y0100754D01*
X0027128Y0100156D02*
X0070200Y0100156D01*
X0070200Y0099557D02*
X0065631Y0099557D01*
X0066610Y0098959D02*
X0070200Y0098959D01*
X0070200Y0098360D02*
X0067109Y0098360D01*
X0067357Y0097762D02*
X0070200Y0097762D01*
X0070200Y0097163D02*
X0067450Y0097163D01*
X0067450Y0096565D02*
X0070200Y0096565D01*
X0070200Y0095966D02*
X0067244Y0095966D01*
X0066936Y0095368D02*
X0070200Y0095368D01*
X0070200Y0094769D02*
X0066338Y0094769D01*
X0066345Y0092974D02*
X0070200Y0092974D01*
X0070200Y0093572D02*
X0026859Y0093572D01*
X0027350Y0094171D02*
X0070200Y0094171D01*
X0070200Y0092375D02*
X0066943Y0092375D01*
X0067247Y0091777D02*
X0070200Y0091777D01*
X0070200Y0091178D02*
X0067450Y0091178D01*
X0067450Y0090580D02*
X0070200Y0090580D01*
X0070200Y0089981D02*
X0067354Y0089981D01*
X0067106Y0089383D02*
X0070200Y0089383D01*
X0070670Y0088784D02*
X0066603Y0088784D01*
X0065614Y0088186D02*
X0072683Y0088186D01*
X0073221Y0087587D02*
X0026779Y0087587D01*
X0026408Y0086989D02*
X0073592Y0086989D01*
X0072993Y0086390D02*
X0027007Y0086390D01*
X0027411Y0085792D02*
X0072589Y0085792D01*
X0072341Y0085193D02*
X0027659Y0085193D01*
X0027799Y0084595D02*
X0072201Y0084595D01*
X0072201Y0083996D02*
X0027799Y0083996D01*
X0027780Y0083398D02*
X0072220Y0083398D01*
X0072468Y0082799D02*
X0027532Y0082799D01*
X0027284Y0082201D02*
X0072716Y0082201D01*
X0073300Y0081602D02*
X0026700Y0081602D01*
X0026488Y0081003D02*
X0073512Y0081003D01*
X0072913Y0080405D02*
X0027087Y0080405D01*
X0027444Y0079806D02*
X0072556Y0079806D01*
X0072308Y0079208D02*
X0027692Y0079208D01*
X0027799Y0078609D02*
X0072201Y0078609D01*
X0072201Y0078011D02*
X0027799Y0078011D01*
X0027747Y0077412D02*
X0072253Y0077412D01*
X0072501Y0076814D02*
X0027499Y0076814D01*
X0027219Y0076215D02*
X0072781Y0076215D01*
X0073380Y0075617D02*
X0026620Y0075617D01*
X0026568Y0075018D02*
X0073432Y0075018D01*
X0072834Y0074420D02*
X0027166Y0074420D01*
X0027477Y0073821D02*
X0072523Y0073821D01*
X0072275Y0073223D02*
X0027725Y0073223D01*
X0027799Y0072624D02*
X0072201Y0072624D01*
X0072201Y0072026D02*
X0027799Y0072026D01*
X0027714Y0071427D02*
X0072286Y0071427D01*
X0072534Y0070829D02*
X0027466Y0070829D01*
X0027139Y0070230D02*
X0072861Y0070230D01*
X0073459Y0069632D02*
X0026541Y0069632D01*
X0026647Y0069033D02*
X0073353Y0069033D01*
X0072754Y0068435D02*
X0027246Y0068435D01*
X0027510Y0067836D02*
X0072490Y0067836D01*
X0072242Y0067238D02*
X0027758Y0067238D01*
X0027799Y0066639D02*
X0072201Y0066639D01*
X0072201Y0066041D02*
X0027799Y0066041D01*
X0027681Y0065442D02*
X0072319Y0065442D01*
X0072567Y0064844D02*
X0027433Y0064844D01*
X0027060Y0064245D02*
X0072940Y0064245D01*
X0073539Y0063647D02*
X0026461Y0063647D01*
X0026727Y0063048D02*
X0073273Y0063048D01*
X0072705Y0062450D02*
X0027295Y0062450D01*
X0027543Y0061851D02*
X0072457Y0061851D01*
X0072209Y0061253D02*
X0027791Y0061253D01*
X0027799Y0060654D02*
X0072201Y0060654D01*
X0072201Y0060056D02*
X0027799Y0060056D01*
X0027648Y0059457D02*
X0072352Y0059457D01*
X0072600Y0058859D02*
X0027400Y0058859D01*
X0026980Y0058260D02*
X0073020Y0058260D01*
X0073619Y0057662D02*
X0026381Y0057662D01*
X0026806Y0057063D02*
X0073194Y0057063D01*
X0072672Y0056465D02*
X0027328Y0056465D01*
X0027576Y0055866D02*
X0072424Y0055866D01*
X0072201Y0055268D02*
X0027799Y0055268D01*
X0027799Y0054669D02*
X0072201Y0054669D01*
X0072201Y0054070D02*
X0027799Y0054070D01*
X0027615Y0053472D02*
X0072385Y0053472D01*
X0072633Y0052873D02*
X0027367Y0052873D01*
X0026900Y0052275D02*
X0073100Y0052275D01*
X0073701Y0051676D02*
X0026299Y0051676D01*
X0026886Y0051078D02*
X0073114Y0051078D01*
X0072639Y0050479D02*
X0027361Y0050479D01*
X0027609Y0049881D02*
X0072391Y0049881D01*
X0072201Y0049282D02*
X0027799Y0049282D01*
X0027799Y0048684D02*
X0072201Y0048684D01*
X0072201Y0048085D02*
X0027799Y0048085D01*
X0027582Y0047487D02*
X0072418Y0047487D01*
X0072666Y0046888D02*
X0027334Y0046888D01*
X0026821Y0046290D02*
X0073179Y0046290D01*
X0073633Y0045691D02*
X0026367Y0045691D01*
X0026966Y0045093D02*
X0073034Y0045093D01*
X0072606Y0044494D02*
X0027394Y0044494D01*
X0027642Y0043896D02*
X0072358Y0043896D01*
X0072201Y0043297D02*
X0027799Y0043297D01*
X0027799Y0042699D02*
X0072201Y0042699D01*
X0072203Y0042100D02*
X0027797Y0042100D01*
X0027549Y0041502D02*
X0072451Y0041502D01*
X0072699Y0040903D02*
X0027301Y0040903D01*
X0026741Y0040305D02*
X0073259Y0040305D01*
X0073553Y0039706D02*
X0026447Y0039706D01*
X0027045Y0039108D02*
X0072955Y0039108D01*
X0072573Y0038509D02*
X0027427Y0038509D01*
X0027675Y0037911D02*
X0072325Y0037911D01*
X0072201Y0037312D02*
X0027799Y0037312D01*
X0027799Y0036714D02*
X0072201Y0036714D01*
X0072236Y0036115D02*
X0027764Y0036115D01*
X0027516Y0035517D02*
X0072484Y0035517D01*
X0072740Y0034918D02*
X0027260Y0034918D01*
X0026662Y0034320D02*
X0073338Y0034320D01*
X0073474Y0033721D02*
X0026526Y0033721D01*
X0027125Y0033123D02*
X0072875Y0033123D01*
X0072540Y0032524D02*
X0027460Y0032524D01*
X0027708Y0031926D02*
X0072292Y0031926D01*
X0072201Y0031327D02*
X0027799Y0031327D01*
X0027799Y0030729D02*
X0072201Y0030729D01*
X0072269Y0030130D02*
X0027731Y0030130D01*
X0027483Y0029532D02*
X0072517Y0029532D01*
X0072820Y0028933D02*
X0027180Y0028933D01*
X0026582Y0028334D02*
X0073418Y0028334D01*
X0074470Y0027736D02*
X0025530Y0027736D01*
X0021163Y0027736D02*
X0020000Y0027736D01*
X0020000Y0028334D02*
X0020111Y0028334D01*
X0020000Y0027137D02*
X0087633Y0027137D01*
X0087633Y0026539D02*
X0082000Y0026539D01*
X0082000Y0025940D02*
X0087633Y0025940D01*
X0087633Y0025342D02*
X0082000Y0025342D01*
X0082000Y0024743D02*
X0087633Y0024743D01*
X0087633Y0024145D02*
X0082000Y0024145D01*
X0082000Y0023546D02*
X0087633Y0023546D01*
X0087633Y0022787D02*
X0087633Y0018585D01*
X0087722Y0018254D01*
X0087893Y0017958D01*
X0088135Y0017716D01*
X0088431Y0017545D01*
X0088762Y0017456D01*
X0089913Y0017456D01*
X0089913Y0022787D01*
X0087633Y0022787D01*
X0087633Y0022349D02*
X0082000Y0022349D01*
X0082000Y0021751D02*
X0087633Y0021751D01*
X0087633Y0021152D02*
X0082000Y0021152D01*
X0082000Y0020554D02*
X0087633Y0020554D01*
X0087633Y0019955D02*
X0082000Y0019955D01*
X0082000Y0019357D02*
X0087633Y0019357D01*
X0087633Y0018758D02*
X0082000Y0018758D01*
X0082000Y0018160D02*
X0087776Y0018160D01*
X0088402Y0017561D02*
X0082000Y0017561D01*
X0082000Y0016963D02*
X0091700Y0016963D01*
X0091700Y0016364D02*
X0082000Y0016364D01*
X0082000Y0015766D02*
X0091700Y0015766D01*
X0091700Y0015167D02*
X0082000Y0015167D01*
X0082000Y0014569D02*
X0091700Y0014569D01*
X0090513Y0017561D02*
X0089913Y0017561D01*
X0089913Y0018160D02*
X0090513Y0018160D01*
X0090513Y0018758D02*
X0089913Y0018758D01*
X0089913Y0019357D02*
X0090513Y0019357D01*
X0090513Y0019955D02*
X0089913Y0019955D01*
X0089913Y0020554D02*
X0090513Y0020554D01*
X0090513Y0021152D02*
X0089913Y0021152D01*
X0089913Y0021751D02*
X0090513Y0021751D01*
X0090513Y0022349D02*
X0089913Y0022349D01*
X0089913Y0022948D02*
X0082000Y0022948D01*
X0078837Y0027736D02*
X0087673Y0027736D01*
X0088012Y0028334D02*
X0082620Y0028334D01*
X0081380Y0028334D02*
X0079889Y0028334D01*
X0082000Y0031000D02*
X0076654Y0031000D01*
X0079833Y0033721D02*
X0091700Y0033721D01*
X0091700Y0033123D02*
X0083696Y0033123D01*
X0084291Y0032524D02*
X0091700Y0032524D01*
X0091700Y0031926D02*
X0084539Y0031926D01*
X0084700Y0031327D02*
X0091700Y0031327D01*
X0091700Y0030729D02*
X0084700Y0030729D01*
X0084562Y0030130D02*
X0091700Y0030130D01*
X0091700Y0029532D02*
X0084314Y0029532D01*
X0083751Y0028933D02*
X0091700Y0028933D01*
X0090513Y0028334D02*
X0089913Y0028334D01*
X0089913Y0027736D02*
X0090513Y0027736D01*
X0090513Y0027137D02*
X0089913Y0027137D01*
X0089913Y0026539D02*
X0090513Y0026539D01*
X0090513Y0025940D02*
X0089913Y0025940D01*
X0089913Y0025342D02*
X0090513Y0025342D01*
X0090513Y0024743D02*
X0089913Y0024743D01*
X0089913Y0024145D02*
X0090513Y0024145D01*
X0090513Y0023546D02*
X0089913Y0023546D01*
X0095300Y0024145D02*
X0110059Y0024145D01*
X0109461Y0024743D02*
X0095300Y0024743D01*
X0095300Y0025342D02*
X0109200Y0025342D01*
X0109200Y0025940D02*
X0095300Y0025940D01*
X0095300Y0026539D02*
X0109200Y0026539D01*
X0103489Y0027137D02*
X0095300Y0027137D01*
X0095300Y0027736D02*
X0103201Y0027736D01*
X0103201Y0028334D02*
X0095300Y0028334D01*
X0095300Y0028933D02*
X0103201Y0028933D01*
X0103201Y0029532D02*
X0095300Y0029532D01*
X0095300Y0030130D02*
X0103201Y0030130D01*
X0103201Y0030729D02*
X0095300Y0030729D01*
X0095300Y0031327D02*
X0103201Y0031327D01*
X0103201Y0031926D02*
X0095300Y0031926D01*
X0095300Y0032524D02*
X0103190Y0032524D01*
X0102592Y0033123D02*
X0095300Y0033123D01*
X0095300Y0033721D02*
X0101993Y0033721D01*
X0101395Y0034320D02*
X0095300Y0034320D01*
X0095300Y0034918D02*
X0100796Y0034918D01*
X0100198Y0035517D02*
X0095300Y0035517D01*
X0095300Y0036115D02*
X0099599Y0036115D01*
X0099001Y0036714D02*
X0095300Y0036714D01*
X0095300Y0037312D02*
X0098402Y0037312D01*
X0097804Y0037911D02*
X0095300Y0037911D01*
X0095300Y0038509D02*
X0097205Y0038509D01*
X0096607Y0039108D02*
X0095300Y0039108D01*
X0095300Y0039706D02*
X0096008Y0039706D01*
X0095410Y0040305D02*
X0095300Y0040305D01*
X0093500Y0042000D02*
X0093500Y0009500D01*
X0091000Y0009500D01*
X0090213Y0008520D01*
X0087433Y0008584D02*
X0082000Y0008584D01*
X0082000Y0009182D02*
X0087433Y0009182D01*
X0087433Y0009781D02*
X0082000Y0009781D01*
X0082000Y0010379D02*
X0087433Y0010379D01*
X0087433Y0010978D02*
X0082000Y0010978D01*
X0082000Y0011576D02*
X0087433Y0011576D01*
X0087433Y0012175D02*
X0082000Y0012175D01*
X0082000Y0012773D02*
X0087433Y0012773D01*
X0087433Y0013372D02*
X0082000Y0013372D01*
X0082000Y0013970D02*
X0087932Y0013970D01*
X0093500Y0009500D02*
X0127250Y0009500D01*
X0125450Y0011576D02*
X0095300Y0011576D01*
X0095300Y0012175D02*
X0125450Y0012175D01*
X0125450Y0012773D02*
X0095300Y0012773D01*
X0092992Y0007387D02*
X0265000Y0007387D01*
X0265000Y0006788D02*
X0092992Y0006788D01*
X0092992Y0006190D02*
X0265000Y0006190D01*
X0265000Y0005591D02*
X0092992Y0005591D01*
X0087433Y0005591D02*
X0082000Y0005591D01*
X0082000Y0006190D02*
X0087433Y0006190D01*
X0087433Y0006788D02*
X0082000Y0006788D01*
X0082000Y0007387D02*
X0087433Y0007387D01*
X0087433Y0007985D02*
X0082000Y0007985D01*
X0114440Y0031327D02*
X0115040Y0031327D01*
X0115040Y0031300D02*
X0115040Y0035253D01*
X0117470Y0035253D01*
X0117801Y0035164D01*
X0118097Y0034993D01*
X0118339Y0034751D01*
X0118511Y0034455D01*
X0118599Y0034124D01*
X0118599Y0031300D01*
X0115040Y0031300D01*
X0115040Y0030729D02*
X0119683Y0030729D01*
X0120281Y0031327D02*
X0118599Y0031327D01*
X0118599Y0031926D02*
X0120450Y0031926D01*
X0120450Y0032524D02*
X0118599Y0032524D01*
X0118599Y0033123D02*
X0120450Y0033123D01*
X0120450Y0033721D02*
X0118599Y0033721D01*
X0118547Y0034320D02*
X0120450Y0034320D01*
X0120450Y0034918D02*
X0118172Y0034918D01*
X0120450Y0035517D02*
X0112800Y0035517D01*
X0112800Y0036115D02*
X0120450Y0036115D01*
X0120450Y0036714D02*
X0112800Y0036714D01*
X0112800Y0037312D02*
X0120450Y0037312D01*
X0120450Y0037911D02*
X0112800Y0037911D01*
X0112800Y0038509D02*
X0120450Y0038509D01*
X0120450Y0039108D02*
X0112800Y0039108D01*
X0112800Y0039706D02*
X0120450Y0039706D01*
X0120450Y0040305D02*
X0112800Y0040305D01*
X0112800Y0040903D02*
X0120450Y0040903D01*
X0120450Y0041502D02*
X0112800Y0041502D01*
X0112800Y0042100D02*
X0120450Y0042100D01*
X0120450Y0042699D02*
X0112800Y0042699D01*
X0112800Y0043297D02*
X0120450Y0043297D01*
X0120450Y0043896D02*
X0112800Y0043896D01*
X0112800Y0044494D02*
X0120450Y0044494D01*
X0120450Y0045093D02*
X0112800Y0045093D01*
X0112800Y0045691D02*
X0120450Y0045691D01*
X0120450Y0046290D02*
X0112800Y0046290D01*
X0112800Y0046888D02*
X0120450Y0046888D01*
X0120450Y0047487D02*
X0112800Y0047487D01*
X0112800Y0048085D02*
X0120450Y0048085D01*
X0120450Y0048684D02*
X0112800Y0048684D01*
X0112800Y0049282D02*
X0120450Y0049282D01*
X0120450Y0049881D02*
X0112800Y0049881D01*
X0112800Y0050479D02*
X0120450Y0050479D01*
X0120450Y0051078D02*
X0112800Y0051078D01*
X0112800Y0051676D02*
X0120450Y0051676D01*
X0120450Y0052275D02*
X0112800Y0052275D01*
X0112800Y0052873D02*
X0120450Y0052873D01*
X0120450Y0053472D02*
X0112800Y0053472D01*
X0112800Y0054070D02*
X0120450Y0054070D01*
X0120450Y0054669D02*
X0112800Y0054669D01*
X0112466Y0066041D02*
X0111852Y0066041D01*
X0111000Y0073000D02*
X0103500Y0065500D01*
X0102000Y0074000D02*
X0102000Y0081000D01*
X0104700Y0081003D02*
X0114201Y0081003D01*
X0114799Y0080405D02*
X0104676Y0080405D01*
X0104428Y0079806D02*
X0115398Y0079806D01*
X0115996Y0079208D02*
X0104026Y0079208D01*
X0104673Y0081602D02*
X0113602Y0081602D01*
X0113004Y0082201D02*
X0104425Y0082201D01*
X0104019Y0082799D02*
X0112405Y0082799D01*
X0111807Y0083398D02*
X0103267Y0083398D01*
X0100733Y0083398D02*
X0100526Y0083398D01*
X0097800Y0083996D02*
X0111208Y0083996D01*
X0110610Y0084595D02*
X0097800Y0084595D01*
X0097800Y0085193D02*
X0110011Y0085193D01*
X0109413Y0085792D02*
X0097800Y0085792D01*
X0097800Y0086390D02*
X0108814Y0086390D01*
X0108216Y0086989D02*
X0097307Y0086989D01*
X0096708Y0087587D02*
X0107617Y0087587D01*
X0107019Y0088186D02*
X0096110Y0088186D01*
X0096046Y0088784D02*
X0096646Y0088784D01*
X0096646Y0089383D02*
X0096046Y0089383D01*
X0096046Y0089981D02*
X0096646Y0089981D01*
X0096646Y0090580D02*
X0096046Y0090580D01*
X0096046Y0091178D02*
X0096646Y0091178D01*
X0096646Y0091777D02*
X0096046Y0091777D01*
X0096046Y0092375D02*
X0096646Y0092375D01*
X0100205Y0093572D02*
X0101632Y0093572D01*
X0101034Y0094171D02*
X0100205Y0094171D01*
X0100205Y0094769D02*
X0100435Y0094769D01*
X0099214Y0088784D02*
X0106420Y0088784D01*
X0106000Y0100000D02*
X0110000Y0102000D01*
X0122370Y0114370D01*
X0122370Y0114546D01*
X0123762Y0113154D02*
X0114762Y0103762D01*
X0111000Y0100000D01*
X0116000Y0100000D02*
X0116000Y0102608D01*
X0125154Y0111762D01*
X0126546Y0110370D02*
X0120000Y0103824D01*
X0120000Y0100000D01*
X0125000Y0100000D02*
X0125000Y0106040D01*
X0127938Y0108978D01*
X0132670Y0107586D02*
X0132670Y0104670D01*
X0129000Y0100000D01*
X0136000Y0106000D02*
X0136000Y0093000D01*
X0136000Y0106000D02*
X0137000Y0107000D01*
X0138238Y0112762D02*
X0138238Y0113154D01*
X0139630Y0114546D02*
X0148176Y0106000D01*
X0151000Y0106000D01*
X0154000Y0110000D02*
X0154000Y0100000D01*
X0156179Y0098360D02*
X0156342Y0098360D01*
X0156590Y0097762D02*
X0155580Y0097762D01*
X0154589Y0096565D02*
X0157824Y0096565D01*
X0157018Y0097163D02*
X0153990Y0097163D01*
X0159000Y0099000D02*
X0159000Y0103000D01*
X0157000Y0106000D01*
X0160266Y0104345D02*
X0160353Y0104345D01*
X0160215Y0110331D02*
X0233200Y0110331D01*
X0233200Y0110929D02*
X0159617Y0110929D01*
X0159018Y0111528D02*
X0231914Y0111528D01*
X0231056Y0112126D02*
X0158419Y0112126D01*
X0157821Y0112725D02*
X0230606Y0112725D01*
X0230358Y0113323D02*
X0157222Y0113323D01*
X0156624Y0113922D02*
X0230300Y0113922D01*
X0230300Y0114520D02*
X0156025Y0114520D01*
X0155427Y0115119D02*
X0230541Y0115119D01*
X0230899Y0115717D02*
X0154828Y0115717D01*
X0154230Y0116316D02*
X0231535Y0116316D01*
X0233000Y0114000D02*
X0235000Y0112000D01*
X0235000Y0070000D01*
X0239000Y0066000D01*
X0243000Y0066000D01*
X0246412Y0063048D02*
X0249588Y0063048D01*
X0250186Y0062450D02*
X0245814Y0062450D01*
X0245215Y0061851D02*
X0250785Y0061851D01*
X0250974Y0060056D02*
X0245308Y0060056D01*
X0245907Y0059457D02*
X0250376Y0059457D01*
X0249777Y0058859D02*
X0246505Y0058859D01*
X0247104Y0058260D02*
X0249179Y0058260D01*
X0248700Y0057662D02*
X0247500Y0057662D01*
X0247500Y0057063D02*
X0248700Y0057063D01*
X0248700Y0056465D02*
X0247500Y0056465D01*
X0247500Y0055866D02*
X0252700Y0055866D01*
X0252700Y0055268D02*
X0253300Y0055268D01*
X0253300Y0055700D02*
X0253300Y0051700D01*
X0254781Y0051700D01*
X0257300Y0054219D01*
X0257300Y0055700D01*
X0253300Y0055700D01*
X0253300Y0055866D02*
X0265000Y0055866D01*
X0265000Y0055268D02*
X0257300Y0055268D01*
X0257300Y0054669D02*
X0265000Y0054669D01*
X0265000Y0054070D02*
X0257152Y0054070D01*
X0256553Y0053472D02*
X0265000Y0053472D01*
X0265000Y0052873D02*
X0255955Y0052873D01*
X0255356Y0052275D02*
X0265000Y0052275D01*
X0265000Y0056465D02*
X0257300Y0056465D01*
X0257300Y0057063D02*
X0265000Y0057063D01*
X0265000Y0057662D02*
X0257300Y0057662D01*
X0256821Y0058260D02*
X0265000Y0058260D01*
X0265000Y0058859D02*
X0256223Y0058859D01*
X0255624Y0059457D02*
X0265000Y0059457D01*
X0265000Y0062450D02*
X0255814Y0062450D01*
X0256412Y0063048D02*
X0265000Y0063048D01*
X0265000Y0063647D02*
X0261374Y0063647D01*
X0262064Y0064245D02*
X0265000Y0064245D01*
X0265000Y0064844D02*
X0262443Y0064844D01*
X0262691Y0065442D02*
X0265000Y0065442D01*
X0265000Y0066041D02*
X0262700Y0066041D01*
X0262658Y0066639D02*
X0265000Y0066639D01*
X0265000Y0067238D02*
X0262410Y0067238D01*
X0261982Y0067836D02*
X0265000Y0067836D01*
X0265000Y0068435D02*
X0261177Y0068435D01*
X0258823Y0068435D02*
X0256929Y0068435D01*
X0257500Y0067836D02*
X0258018Y0067836D01*
X0256331Y0069033D02*
X0265000Y0069033D01*
X0265000Y0069632D02*
X0255732Y0069632D01*
X0255134Y0070230D02*
X0265000Y0070230D01*
X0265000Y0070829D02*
X0250437Y0070829D01*
X0250482Y0070936D02*
X0251091Y0071545D01*
X0251136Y0071500D01*
X0254864Y0071500D01*
X0257500Y0074136D01*
X0257500Y0077864D01*
X0254864Y0080500D01*
X0251136Y0080500D01*
X0248500Y0077864D01*
X0248500Y0074700D01*
X0247500Y0074700D01*
X0247500Y0077864D01*
X0244864Y0080500D01*
X0244800Y0080500D01*
X0244800Y0080982D01*
X0245289Y0081471D01*
X0245700Y0082463D01*
X0245700Y0083537D01*
X0245289Y0084529D01*
X0244529Y0085289D01*
X0243537Y0085700D01*
X0242463Y0085700D01*
X0241471Y0085289D01*
X0240711Y0084529D01*
X0240300Y0083537D01*
X0240300Y0082463D01*
X0240711Y0081471D01*
X0241200Y0080982D01*
X0241200Y0080500D01*
X0241136Y0080500D01*
X0238500Y0077864D01*
X0238500Y0074136D01*
X0241136Y0071500D01*
X0244864Y0071500D01*
X0245300Y0071936D01*
X0245300Y0071463D01*
X0245711Y0070471D01*
X0246471Y0069711D01*
X0247463Y0069300D01*
X0248537Y0069300D01*
X0249529Y0069711D01*
X0250289Y0070471D01*
X0250482Y0070936D01*
X0250973Y0071427D02*
X0265000Y0071427D01*
X0265000Y0072026D02*
X0255390Y0072026D01*
X0255988Y0072624D02*
X0265000Y0072624D01*
X0265000Y0073223D02*
X0256587Y0073223D01*
X0257185Y0073821D02*
X0265000Y0073821D01*
X0265000Y0074420D02*
X0257500Y0074420D01*
X0257500Y0075018D02*
X0265000Y0075018D01*
X0265000Y0075617D02*
X0257500Y0075617D01*
X0257500Y0076215D02*
X0265000Y0076215D01*
X0265000Y0076814D02*
X0257500Y0076814D01*
X0257500Y0077412D02*
X0265000Y0077412D01*
X0265000Y0078011D02*
X0257353Y0078011D01*
X0256754Y0078609D02*
X0265000Y0078609D01*
X0265000Y0079208D02*
X0256156Y0079208D01*
X0255557Y0079806D02*
X0265000Y0079806D01*
X0265000Y0080405D02*
X0254959Y0080405D01*
X0251041Y0080405D02*
X0244959Y0080405D01*
X0244822Y0081003D02*
X0265000Y0081003D01*
X0265000Y0081602D02*
X0245343Y0081602D01*
X0245591Y0082201D02*
X0265000Y0082201D01*
X0265000Y0082799D02*
X0245700Y0082799D01*
X0245700Y0083398D02*
X0265000Y0083398D01*
X0265000Y0083996D02*
X0245510Y0083996D01*
X0245224Y0084595D02*
X0265000Y0084595D01*
X0265000Y0085193D02*
X0244625Y0085193D01*
X0243000Y0083000D02*
X0243000Y0076000D01*
X0239413Y0073223D02*
X0236800Y0073223D01*
X0236800Y0073821D02*
X0238815Y0073821D01*
X0238500Y0074420D02*
X0236800Y0074420D01*
X0236800Y0075018D02*
X0238500Y0075018D01*
X0238500Y0075617D02*
X0236800Y0075617D01*
X0236800Y0076215D02*
X0238500Y0076215D01*
X0238500Y0076814D02*
X0236800Y0076814D01*
X0236800Y0077412D02*
X0238500Y0077412D01*
X0238647Y0078011D02*
X0236800Y0078011D01*
X0236800Y0078609D02*
X0239245Y0078609D01*
X0239844Y0079208D02*
X0236800Y0079208D01*
X0236800Y0079806D02*
X0240443Y0079806D01*
X0241041Y0080405D02*
X0236800Y0080405D01*
X0236800Y0081003D02*
X0241178Y0081003D01*
X0240657Y0081602D02*
X0236800Y0081602D01*
X0236800Y0082201D02*
X0240409Y0082201D01*
X0240300Y0082799D02*
X0236800Y0082799D01*
X0236800Y0083398D02*
X0240300Y0083398D01*
X0240490Y0083996D02*
X0236800Y0083996D01*
X0236800Y0084595D02*
X0240776Y0084595D01*
X0241375Y0085193D02*
X0236800Y0085193D01*
X0236800Y0085792D02*
X0265000Y0085792D01*
X0265000Y0086390D02*
X0236800Y0086390D01*
X0236800Y0086989D02*
X0265000Y0086989D01*
X0265000Y0087587D02*
X0236800Y0087587D01*
X0236800Y0088186D02*
X0265000Y0088186D01*
X0265000Y0088784D02*
X0236800Y0088784D01*
X0236800Y0089383D02*
X0265000Y0089383D01*
X0265000Y0089981D02*
X0236800Y0089981D01*
X0236800Y0090580D02*
X0265000Y0090580D01*
X0265000Y0091178D02*
X0236800Y0091178D01*
X0236800Y0091777D02*
X0265000Y0091777D01*
X0265000Y0092375D02*
X0236800Y0092375D01*
X0236800Y0092974D02*
X0265000Y0092974D01*
X0265000Y0093572D02*
X0236800Y0093572D01*
X0236800Y0094171D02*
X0265000Y0094171D01*
X0265000Y0094769D02*
X0236800Y0094769D01*
X0236800Y0095368D02*
X0265000Y0095368D01*
X0265000Y0095966D02*
X0236800Y0095966D01*
X0236800Y0096565D02*
X0265000Y0096565D01*
X0265000Y0097163D02*
X0236800Y0097163D01*
X0236800Y0097762D02*
X0265000Y0097762D01*
X0265000Y0098360D02*
X0236800Y0098360D01*
X0236800Y0098959D02*
X0265000Y0098959D01*
X0265000Y0099557D02*
X0236800Y0099557D01*
X0236800Y0100156D02*
X0265000Y0100156D01*
X0265000Y0100754D02*
X0236800Y0100754D01*
X0236800Y0101353D02*
X0265000Y0101353D01*
X0265000Y0101951D02*
X0236800Y0101951D01*
X0236800Y0102550D02*
X0265000Y0102550D01*
X0265000Y0103148D02*
X0236800Y0103148D01*
X0236800Y0103747D02*
X0265000Y0103747D01*
X0265000Y0104345D02*
X0236800Y0104345D01*
X0236800Y0104944D02*
X0265000Y0104944D01*
X0265000Y0105542D02*
X0236800Y0105542D01*
X0236800Y0106141D02*
X0265000Y0106141D01*
X0265000Y0106739D02*
X0236800Y0106739D01*
X0236800Y0107338D02*
X0265000Y0107338D01*
X0265000Y0107937D02*
X0236800Y0107937D01*
X0236800Y0108535D02*
X0265000Y0108535D01*
X0265000Y0109134D02*
X0236800Y0109134D01*
X0236800Y0109732D02*
X0265000Y0109732D01*
X0265000Y0110331D02*
X0236800Y0110331D01*
X0236800Y0110929D02*
X0265000Y0110929D01*
X0265000Y0111528D02*
X0236800Y0111528D01*
X0236800Y0112126D02*
X0265000Y0112126D01*
X0265000Y0112725D02*
X0236800Y0112725D01*
X0236222Y0113323D02*
X0265000Y0113323D01*
X0265000Y0113922D02*
X0235700Y0113922D01*
X0235700Y0114520D02*
X0265000Y0114520D01*
X0265000Y0115119D02*
X0235459Y0115119D01*
X0235101Y0115717D02*
X0265000Y0115717D01*
X0265000Y0116316D02*
X0234465Y0116316D01*
X0233200Y0104944D02*
X0223102Y0104944D01*
X0223700Y0104345D02*
X0233200Y0104345D01*
X0233200Y0103747D02*
X0224299Y0103747D01*
X0224050Y0103996D02*
X0224050Y0103996D01*
X0245557Y0079806D02*
X0250443Y0079806D01*
X0249844Y0079208D02*
X0246156Y0079208D01*
X0246754Y0078609D02*
X0249245Y0078609D01*
X0248647Y0078011D02*
X0247353Y0078011D01*
X0247500Y0077412D02*
X0248500Y0077412D01*
X0248500Y0076814D02*
X0247500Y0076814D01*
X0247500Y0076215D02*
X0248500Y0076215D01*
X0248500Y0075617D02*
X0247500Y0075617D01*
X0247500Y0075018D02*
X0248500Y0075018D01*
X0249000Y0072000D02*
X0253000Y0076000D01*
X0249000Y0072000D02*
X0248000Y0072000D01*
X0245563Y0070829D02*
X0236800Y0070829D01*
X0236800Y0071427D02*
X0245315Y0071427D01*
X0245134Y0070230D02*
X0245951Y0070230D01*
X0245732Y0069632D02*
X0246662Y0069632D01*
X0246331Y0069033D02*
X0249669Y0069033D01*
X0249338Y0069632D02*
X0250268Y0069632D01*
X0250049Y0070230D02*
X0250866Y0070230D01*
X0249071Y0068435D02*
X0246929Y0068435D01*
X0247500Y0067836D02*
X0248500Y0067836D01*
X0248500Y0067238D02*
X0247500Y0067238D01*
X0247500Y0066639D02*
X0248500Y0066639D01*
X0248500Y0066041D02*
X0247500Y0066041D01*
X0247500Y0065442D02*
X0248500Y0065442D01*
X0248500Y0064844D02*
X0247500Y0064844D01*
X0247500Y0064245D02*
X0248500Y0064245D01*
X0248989Y0063647D02*
X0247011Y0063647D01*
X0253000Y0066000D02*
X0260000Y0066000D01*
X0258626Y0063647D02*
X0257011Y0063647D01*
X0253300Y0060056D02*
X0252700Y0060056D01*
X0252700Y0059457D02*
X0253300Y0059457D01*
X0253300Y0058859D02*
X0252700Y0058859D01*
X0252700Y0058260D02*
X0253300Y0058260D01*
X0253300Y0057662D02*
X0252700Y0057662D01*
X0252700Y0057063D02*
X0253300Y0057063D01*
X0253300Y0056465D02*
X0252700Y0056465D01*
X0252700Y0054669D02*
X0253300Y0054669D01*
X0253300Y0054070D02*
X0252700Y0054070D01*
X0252700Y0053472D02*
X0253300Y0053472D01*
X0253300Y0052873D02*
X0252700Y0052873D01*
X0252700Y0052275D02*
X0253300Y0052275D01*
X0250644Y0052275D02*
X0245639Y0052275D01*
X0246237Y0052873D02*
X0250045Y0052873D01*
X0249447Y0053472D02*
X0246836Y0053472D01*
X0247434Y0054070D02*
X0248848Y0054070D01*
X0248700Y0054669D02*
X0247500Y0054669D01*
X0247500Y0055268D02*
X0248700Y0055268D01*
X0239669Y0069033D02*
X0238512Y0069033D01*
X0237914Y0069632D02*
X0240268Y0069632D01*
X0240866Y0070230D02*
X0237315Y0070230D01*
X0236800Y0072026D02*
X0240610Y0072026D01*
X0240012Y0072624D02*
X0236800Y0072624D01*
X0265000Y0116914D02*
X0153631Y0116914D01*
X0153033Y0117513D02*
X0265000Y0117513D01*
X0265000Y0118111D02*
X0152434Y0118111D01*
X0151836Y0118710D02*
X0265000Y0118710D01*
X0265000Y0119308D02*
X0151237Y0119308D01*
X0150639Y0119907D02*
X0265000Y0119907D01*
X0265000Y0120505D02*
X0150040Y0120505D01*
X0149442Y0121104D02*
X0265000Y0121104D01*
X0265000Y0121702D02*
X0148843Y0121702D01*
X0148245Y0122301D02*
X0265000Y0122301D01*
X0265000Y0122899D02*
X0147646Y0122899D01*
X0147048Y0123498D02*
X0265000Y0123498D01*
X0265000Y0124096D02*
X0146449Y0124096D01*
X0145851Y0124695D02*
X0159510Y0124695D01*
X0158888Y0125293D02*
X0145252Y0125293D01*
X0142960Y0124000D02*
X0141022Y0122062D01*
X0142414Y0117330D02*
X0142670Y0117330D01*
X0145000Y0115000D01*
X0149000Y0115000D01*
X0154000Y0110000D01*
X0148000Y0111000D02*
X0146000Y0113000D01*
X0143960Y0113000D01*
X0141022Y0115938D01*
X0134062Y0129022D02*
X0134062Y0129062D01*
X0126546Y0127630D02*
X0124000Y0130176D01*
X0123824Y0130176D01*
X0120000Y0134000D01*
X0120000Y0144000D01*
X0114948Y0149234D02*
X0078800Y0149234D01*
X0078800Y0149832D02*
X0114561Y0149832D01*
X0114313Y0150431D02*
X0078800Y0150431D01*
X0078800Y0151029D02*
X0114300Y0151029D01*
X0114338Y0151628D02*
X0078800Y0151628D01*
X0078800Y0152226D02*
X0114586Y0152226D01*
X0113282Y0152825D02*
X0112718Y0152825D01*
X0116740Y0151260D02*
X0116740Y0157000D01*
X0118088Y0161803D02*
X0146700Y0161803D01*
X0145379Y0162401D02*
X0132338Y0162401D01*
X0132296Y0162359D02*
X0132538Y0162601D01*
X0132709Y0162898D01*
X0132798Y0163228D01*
X0132798Y0167499D01*
X0129398Y0167499D01*
X0129398Y0162100D01*
X0131669Y0162100D01*
X0132000Y0162188D01*
X0132296Y0162359D01*
X0132737Y0163000D02*
X0145002Y0163000D01*
X0145002Y0163598D02*
X0132798Y0163598D01*
X0132798Y0164197D02*
X0145002Y0164197D01*
X0145002Y0164795D02*
X0132798Y0164795D01*
X0132798Y0165394D02*
X0145002Y0165394D01*
X0145002Y0165992D02*
X0132798Y0165992D01*
X0132798Y0166591D02*
X0145002Y0166591D01*
X0145002Y0167189D02*
X0132798Y0167189D01*
X0132798Y0168099D02*
X0129398Y0168099D01*
X0128798Y0168099D01*
X0128798Y0167499D01*
X0125399Y0167499D01*
X0125399Y0163228D01*
X0125487Y0162898D01*
X0125659Y0162601D01*
X0125901Y0162359D01*
X0126197Y0162188D01*
X0126528Y0162100D01*
X0128798Y0162100D01*
X0128798Y0167499D01*
X0129398Y0167499D01*
X0129398Y0168099D01*
X0129398Y0173499D01*
X0131669Y0173499D01*
X0132000Y0173410D01*
X0132296Y0173239D01*
X0132538Y0172997D01*
X0132709Y0172701D01*
X0132798Y0172370D01*
X0132798Y0168099D01*
X0132798Y0168386D02*
X0145002Y0168386D01*
X0145002Y0167788D02*
X0129398Y0167788D01*
X0129398Y0168386D02*
X0128798Y0168386D01*
X0128798Y0168099D02*
X0128798Y0173499D01*
X0126528Y0173499D01*
X0126197Y0173410D01*
X0125901Y0173239D01*
X0125659Y0172997D01*
X0125487Y0172701D01*
X0125399Y0172370D01*
X0125399Y0168099D01*
X0128798Y0168099D01*
X0128798Y0167788D02*
X0123900Y0167788D01*
X0123900Y0168386D02*
X0125399Y0168386D01*
X0125399Y0168985D02*
X0123900Y0168985D01*
X0123900Y0169583D02*
X0125399Y0169583D01*
X0125399Y0170182D02*
X0123900Y0170182D01*
X0123900Y0170780D02*
X0125399Y0170780D01*
X0125399Y0171379D02*
X0123900Y0171379D01*
X0123900Y0171977D02*
X0125399Y0171977D01*
X0125454Y0172576D02*
X0123900Y0172576D01*
X0123545Y0173174D02*
X0125836Y0173174D01*
X0128798Y0173174D02*
X0129398Y0173174D01*
X0129398Y0172576D02*
X0128798Y0172576D01*
X0128798Y0171977D02*
X0129398Y0171977D01*
X0129398Y0171379D02*
X0128798Y0171379D01*
X0128798Y0170780D02*
X0129398Y0170780D01*
X0129398Y0170182D02*
X0128798Y0170182D01*
X0128798Y0169583D02*
X0129398Y0169583D01*
X0129398Y0168985D02*
X0128798Y0168985D01*
X0128798Y0167189D02*
X0129398Y0167189D01*
X0129398Y0166591D02*
X0128798Y0166591D01*
X0128798Y0165992D02*
X0129398Y0165992D01*
X0129398Y0165394D02*
X0128798Y0165394D01*
X0128798Y0164795D02*
X0129398Y0164795D01*
X0129398Y0164197D02*
X0128798Y0164197D01*
X0128798Y0163598D02*
X0129398Y0163598D01*
X0129398Y0163000D02*
X0128798Y0163000D01*
X0128798Y0162401D02*
X0129398Y0162401D01*
X0125859Y0162401D02*
X0123522Y0162401D01*
X0123900Y0163000D02*
X0125460Y0163000D01*
X0125399Y0163598D02*
X0123900Y0163598D01*
X0123900Y0164197D02*
X0125399Y0164197D01*
X0125399Y0164795D02*
X0123900Y0164795D01*
X0123900Y0165394D02*
X0125399Y0165394D01*
X0125399Y0165992D02*
X0123900Y0165992D01*
X0123900Y0166591D02*
X0125399Y0166591D01*
X0125399Y0167189D02*
X0123900Y0167189D01*
X0116100Y0167189D02*
X0114801Y0167189D01*
X0114801Y0166591D02*
X0115805Y0166591D01*
X0115207Y0165992D02*
X0114801Y0165992D01*
X0114801Y0167788D02*
X0116100Y0167788D01*
X0116100Y0168386D02*
X0114801Y0168386D01*
X0114801Y0168985D02*
X0116100Y0168985D01*
X0116100Y0169583D02*
X0114801Y0169583D01*
X0114801Y0170182D02*
X0116100Y0170182D01*
X0116100Y0170780D02*
X0114801Y0170780D01*
X0114801Y0171379D02*
X0116100Y0171379D01*
X0116100Y0171977D02*
X0114801Y0171977D01*
X0114801Y0172576D02*
X0116100Y0172576D01*
X0116454Y0173174D02*
X0114447Y0173174D01*
X0118500Y0173773D02*
X0084750Y0173773D01*
X0084750Y0174371D02*
X0118500Y0174371D01*
X0118500Y0174970D02*
X0084750Y0174970D01*
X0084750Y0175568D02*
X0118500Y0175568D01*
X0118500Y0176167D02*
X0084750Y0176167D01*
X0084750Y0176765D02*
X0118500Y0176765D01*
X0118500Y0177364D02*
X0084750Y0177364D01*
X0084750Y0177962D02*
X0118500Y0177962D01*
X0118500Y0178561D02*
X0084750Y0178561D01*
X0084750Y0179159D02*
X0118500Y0179159D01*
X0118500Y0179758D02*
X0084750Y0179758D01*
X0084750Y0180356D02*
X0118500Y0180356D01*
X0118500Y0180955D02*
X0084750Y0180955D01*
X0084750Y0181553D02*
X0118500Y0181553D01*
X0118500Y0182152D02*
X0084750Y0182152D01*
X0084750Y0182750D02*
X0118500Y0182750D01*
X0118500Y0183349D02*
X0084750Y0183349D01*
X0084750Y0183947D02*
X0118500Y0183947D01*
X0118500Y0184546D02*
X0084750Y0184546D01*
X0084750Y0185144D02*
X0118500Y0185144D01*
X0118500Y0185743D02*
X0084750Y0185743D01*
X0084750Y0186341D02*
X0118500Y0186341D01*
X0111722Y0186940D02*
X0090278Y0186940D01*
X0090587Y0187539D02*
X0111413Y0187539D01*
X0111413Y0188137D02*
X0090587Y0188137D01*
X0090587Y0188736D02*
X0111413Y0188736D01*
X0111413Y0189334D02*
X0090587Y0189334D01*
X0090587Y0189933D02*
X0111413Y0189933D01*
X0111413Y0190531D02*
X0090587Y0190531D01*
X0090587Y0191130D02*
X0111413Y0191130D01*
X0111413Y0191728D02*
X0090587Y0191728D01*
X0090587Y0192327D02*
X0111413Y0192327D01*
X0111413Y0192925D02*
X0090587Y0192925D01*
X0090587Y0193524D02*
X0111413Y0193524D01*
X0111413Y0194122D02*
X0090587Y0194122D01*
X0090587Y0194721D02*
X0111413Y0194721D01*
X0111413Y0195319D02*
X0090587Y0195319D01*
X0090587Y0195918D02*
X0111413Y0195918D01*
X0111413Y0196516D02*
X0090587Y0196516D01*
X0090587Y0197115D02*
X0111413Y0197115D01*
X0111974Y0197713D02*
X0090026Y0197713D01*
X0073974Y0197713D02*
X0020000Y0197713D01*
X0020000Y0197115D02*
X0073413Y0197115D01*
X0073413Y0196516D02*
X0020000Y0196516D01*
X0020000Y0195918D02*
X0073413Y0195918D01*
X0073413Y0195319D02*
X0020000Y0195319D01*
X0020000Y0194721D02*
X0073413Y0194721D01*
X0073413Y0194122D02*
X0020000Y0194122D01*
X0020000Y0193524D02*
X0073413Y0193524D01*
X0073413Y0192925D02*
X0020000Y0192925D01*
X0020000Y0192327D02*
X0073413Y0192327D01*
X0073413Y0191728D02*
X0020000Y0191728D01*
X0020000Y0191130D02*
X0073413Y0191130D01*
X0073413Y0190531D02*
X0020000Y0190531D01*
X0020000Y0189933D02*
X0073413Y0189933D01*
X0073413Y0189334D02*
X0020000Y0189334D01*
X0020000Y0188736D02*
X0073413Y0188736D01*
X0079750Y0182750D02*
X0062736Y0182750D01*
X0063335Y0182152D02*
X0079750Y0182152D01*
X0079750Y0181553D02*
X0063658Y0181553D01*
X0063906Y0180955D02*
X0079750Y0180955D01*
X0079750Y0180356D02*
X0064154Y0180356D01*
X0064276Y0179758D02*
X0079750Y0179758D01*
X0079750Y0179159D02*
X0064276Y0179159D01*
X0064276Y0178561D02*
X0079750Y0178561D01*
X0079750Y0177962D02*
X0064276Y0177962D01*
X0064038Y0177364D02*
X0079750Y0177364D01*
X0079750Y0176765D02*
X0063790Y0176765D01*
X0063542Y0176167D02*
X0079750Y0176167D01*
X0079750Y0175568D02*
X0063055Y0175568D01*
X0062457Y0174970D02*
X0079750Y0174970D01*
X0079750Y0174371D02*
X0061713Y0174371D01*
X0060268Y0173773D02*
X0079750Y0173773D01*
X0078454Y0173174D02*
X0076447Y0173174D01*
X0076801Y0172576D02*
X0078100Y0172576D01*
X0078100Y0171977D02*
X0076801Y0171977D01*
X0076801Y0171379D02*
X0078100Y0171379D01*
X0078100Y0170780D02*
X0076801Y0170780D01*
X0076801Y0170182D02*
X0078100Y0170182D01*
X0078100Y0169583D02*
X0076801Y0169583D01*
X0076801Y0168985D02*
X0078100Y0168985D01*
X0078100Y0168386D02*
X0076801Y0168386D01*
X0076801Y0167788D02*
X0078100Y0167788D01*
X0078100Y0167189D02*
X0076801Y0167189D01*
X0076801Y0166591D02*
X0078100Y0166591D01*
X0078100Y0165992D02*
X0076801Y0165992D01*
X0076801Y0165394D02*
X0078100Y0165394D01*
X0078100Y0164795D02*
X0076801Y0164795D01*
X0076801Y0164197D02*
X0078100Y0164197D01*
X0082250Y0162000D02*
X0073500Y0162000D01*
X0073500Y0167000D01*
X0072902Y0167799D01*
X0069002Y0167788D02*
X0057250Y0167788D01*
X0057250Y0168386D02*
X0069002Y0168386D01*
X0069002Y0168985D02*
X0057250Y0168985D01*
X0057250Y0169583D02*
X0069002Y0169583D01*
X0069002Y0170182D02*
X0057250Y0170182D01*
X0057250Y0170780D02*
X0069002Y0170780D01*
X0069002Y0171379D02*
X0057250Y0171379D01*
X0057250Y0171977D02*
X0069002Y0171977D01*
X0069002Y0172576D02*
X0057250Y0172576D01*
X0057250Y0173174D02*
X0069356Y0173174D01*
X0069002Y0167189D02*
X0057250Y0167189D01*
X0057250Y0166591D02*
X0069002Y0166591D01*
X0069002Y0165992D02*
X0057250Y0165992D01*
X0057250Y0165394D02*
X0069002Y0165394D01*
X0069002Y0164795D02*
X0057250Y0164795D01*
X0057250Y0164197D02*
X0069002Y0164197D01*
X0069002Y0163598D02*
X0057250Y0163598D01*
X0057250Y0163000D02*
X0069002Y0163000D01*
X0069379Y0162401D02*
X0057250Y0162401D01*
X0057250Y0161803D02*
X0071700Y0161803D01*
X0071750Y0161204D02*
X0057250Y0161204D01*
X0057250Y0160605D02*
X0072349Y0160605D01*
X0075201Y0160007D02*
X0057250Y0160007D01*
X0057250Y0159408D02*
X0075201Y0159408D01*
X0075201Y0158810D02*
X0057250Y0158810D01*
X0057250Y0158211D02*
X0075201Y0158211D01*
X0075201Y0157613D02*
X0057250Y0157613D01*
X0052250Y0157613D02*
X0051873Y0157613D01*
X0052121Y0158211D02*
X0052250Y0158211D01*
X0052250Y0157014D02*
X0051588Y0157014D01*
X0050989Y0156416D02*
X0052250Y0156416D01*
X0052250Y0155817D02*
X0050391Y0155817D01*
X0049287Y0155219D02*
X0052250Y0155219D01*
X0052250Y0154620D02*
X0043238Y0154620D01*
X0043486Y0155219D02*
X0044965Y0155219D01*
X0043861Y0155817D02*
X0043500Y0155817D01*
X0042807Y0154022D02*
X0052250Y0154022D01*
X0052250Y0153423D02*
X0042209Y0153423D01*
X0041610Y0152825D02*
X0052250Y0152825D01*
X0052250Y0152226D02*
X0041012Y0152226D01*
X0040413Y0151628D02*
X0052250Y0151628D01*
X0052250Y0151029D02*
X0039815Y0151029D01*
X0039216Y0150431D02*
X0052250Y0150431D01*
X0052250Y0149832D02*
X0038618Y0149832D01*
X0038019Y0149234D02*
X0052250Y0149234D01*
X0052250Y0148635D02*
X0037421Y0148635D01*
X0036822Y0148037D02*
X0052250Y0148037D01*
X0052250Y0147438D02*
X0036224Y0147438D01*
X0035625Y0146840D02*
X0052250Y0146840D01*
X0052250Y0146241D02*
X0035027Y0146241D01*
X0034721Y0145643D02*
X0052250Y0145643D01*
X0052250Y0145044D02*
X0035024Y0145044D01*
X0035272Y0144446D02*
X0052250Y0144446D01*
X0052250Y0143847D02*
X0035500Y0143847D01*
X0035500Y0143249D02*
X0052250Y0143249D01*
X0052250Y0142650D02*
X0035500Y0142650D01*
X0035478Y0142052D02*
X0052250Y0142052D01*
X0052250Y0141453D02*
X0035230Y0141453D01*
X0034982Y0140855D02*
X0052250Y0140855D01*
X0052250Y0140256D02*
X0034620Y0140256D01*
X0034022Y0139658D02*
X0052250Y0139658D01*
X0052250Y0139059D02*
X0033245Y0139059D01*
X0032466Y0137264D02*
X0052250Y0137264D01*
X0052250Y0137862D02*
X0020000Y0137862D01*
X0020000Y0137264D02*
X0023534Y0137264D01*
X0024105Y0137500D02*
X0022451Y0136815D01*
X0021185Y0135549D01*
X0020500Y0133895D01*
X0020500Y0132105D01*
X0021185Y0130451D01*
X0022451Y0129185D01*
X0024105Y0128500D01*
X0031895Y0128500D01*
X0033549Y0129185D01*
X0034815Y0130451D01*
X0035500Y0132105D01*
X0035500Y0133895D01*
X0034815Y0135549D01*
X0033549Y0136815D01*
X0031895Y0137500D01*
X0024105Y0137500D01*
X0022301Y0136665D02*
X0020000Y0136665D01*
X0020000Y0136067D02*
X0021703Y0136067D01*
X0021152Y0135468D02*
X0020000Y0135468D01*
X0020000Y0134870D02*
X0020904Y0134870D01*
X0020656Y0134271D02*
X0020000Y0134271D01*
X0020000Y0133672D02*
X0020500Y0133672D01*
X0020500Y0133074D02*
X0020000Y0133074D01*
X0020000Y0132475D02*
X0020500Y0132475D01*
X0020594Y0131877D02*
X0020000Y0131877D01*
X0020000Y0131278D02*
X0020842Y0131278D01*
X0021090Y0130680D02*
X0020000Y0130680D01*
X0020000Y0130081D02*
X0021555Y0130081D01*
X0022153Y0129483D02*
X0020000Y0129483D01*
X0020000Y0128884D02*
X0023177Y0128884D01*
X0023112Y0127089D02*
X0020000Y0127089D01*
X0020000Y0127687D02*
X0055939Y0127687D01*
X0055341Y0128286D02*
X0020000Y0128286D01*
X0020000Y0126490D02*
X0022126Y0126490D01*
X0021528Y0125892D02*
X0020000Y0125892D01*
X0020000Y0125293D02*
X0021079Y0125293D01*
X0020831Y0124695D02*
X0020000Y0124695D01*
X0020000Y0124096D02*
X0020583Y0124096D01*
X0020500Y0123498D02*
X0020000Y0123498D01*
X0020000Y0122899D02*
X0020500Y0122899D01*
X0020500Y0122301D02*
X0020000Y0122301D01*
X0020000Y0121702D02*
X0020667Y0121702D01*
X0020915Y0121104D02*
X0020000Y0121104D01*
X0020000Y0120505D02*
X0021163Y0120505D01*
X0021729Y0119907D02*
X0020000Y0119907D01*
X0020000Y0119308D02*
X0022328Y0119308D01*
X0023599Y0118710D02*
X0020000Y0118710D01*
X0020000Y0118111D02*
X0060200Y0118111D01*
X0060200Y0117513D02*
X0020000Y0117513D01*
X0020000Y0116914D02*
X0060096Y0116914D01*
X0059623Y0116316D02*
X0020000Y0116316D01*
X0020000Y0115717D02*
X0059375Y0115717D01*
X0059300Y0115119D02*
X0020000Y0115119D01*
X0020000Y0114520D02*
X0059300Y0114520D01*
X0056784Y0113922D02*
X0054869Y0113922D01*
X0055468Y0113323D02*
X0056186Y0113323D01*
X0050879Y0113922D02*
X0048964Y0113922D01*
X0049562Y0113323D02*
X0050280Y0113323D01*
X0044973Y0113922D02*
X0043058Y0113922D01*
X0043657Y0113323D02*
X0044375Y0113323D01*
X0039068Y0113922D02*
X0037153Y0113922D01*
X0037751Y0113323D02*
X0038469Y0113323D01*
X0033162Y0113922D02*
X0030755Y0113922D01*
X0031563Y0113323D02*
X0032564Y0113323D01*
X0032111Y0112725D02*
X0032040Y0112725D01*
X0029552Y0112725D02*
X0028952Y0112725D01*
X0028952Y0113323D02*
X0029552Y0113323D01*
X0029552Y0113922D02*
X0028952Y0113922D01*
X0027749Y0113922D02*
X0020000Y0113922D01*
X0020000Y0113323D02*
X0026941Y0113323D01*
X0026464Y0112725D02*
X0020000Y0112725D01*
X0020000Y0112126D02*
X0026174Y0112126D01*
X0026021Y0111528D02*
X0020000Y0111528D01*
X0020000Y0110929D02*
X0025983Y0110929D01*
X0025983Y0110331D02*
X0020000Y0110331D01*
X0020000Y0109732D02*
X0028952Y0109732D01*
X0028952Y0109134D02*
X0029552Y0109134D01*
X0029552Y0108535D02*
X0028952Y0108535D01*
X0028952Y0107937D02*
X0029552Y0107937D01*
X0029552Y0107338D02*
X0028952Y0107338D01*
X0028952Y0106739D02*
X0029552Y0106739D01*
X0029552Y0106141D02*
X0028952Y0106141D01*
X0027681Y0106141D02*
X0020000Y0106141D01*
X0020000Y0106739D02*
X0026910Y0106739D01*
X0026443Y0107338D02*
X0020000Y0107338D01*
X0020000Y0107937D02*
X0026161Y0107937D01*
X0026015Y0108535D02*
X0020000Y0108535D01*
X0020000Y0109134D02*
X0025983Y0109134D01*
X0028952Y0110331D02*
X0029552Y0110331D01*
X0029552Y0110929D02*
X0028952Y0110929D01*
X0028952Y0111528D02*
X0029552Y0111528D01*
X0029552Y0112126D02*
X0028952Y0112126D01*
X0032061Y0107338D02*
X0032098Y0107338D01*
X0032533Y0106739D02*
X0031594Y0106739D01*
X0030823Y0106141D02*
X0033131Y0106141D01*
X0037184Y0106141D02*
X0039037Y0106141D01*
X0038438Y0106739D02*
X0037782Y0106739D01*
X0043089Y0106141D02*
X0044942Y0106141D01*
X0044344Y0106739D02*
X0043688Y0106739D01*
X0048995Y0106141D02*
X0050848Y0106141D01*
X0050249Y0106739D02*
X0049593Y0106739D01*
X0054900Y0106141D02*
X0056753Y0106141D01*
X0056155Y0106739D02*
X0055499Y0106739D01*
X0060806Y0106141D02*
X0062659Y0106141D01*
X0062060Y0106739D02*
X0061404Y0106739D01*
X0066711Y0106141D02*
X0069020Y0106141D01*
X0068249Y0106739D02*
X0067310Y0106739D01*
X0067744Y0107338D02*
X0067782Y0107338D01*
X0063869Y0099557D02*
X0026656Y0099557D01*
X0026172Y0098959D02*
X0062890Y0098959D01*
X0064750Y0097000D02*
X0023500Y0097000D01*
X0023346Y0095961D01*
X0026329Y0092974D02*
X0063155Y0092974D01*
X0063162Y0094769D02*
X0027598Y0094769D01*
X0023500Y0090750D02*
X0023346Y0090055D01*
X0023500Y0090750D02*
X0064750Y0090750D01*
X0062897Y0088784D02*
X0027565Y0088784D01*
X0027317Y0088186D02*
X0063885Y0088186D01*
X0076654Y0095961D02*
X0079614Y0093000D01*
X0082000Y0093000D01*
X0091000Y0086000D02*
X0089000Y0084000D01*
X0089000Y0079990D01*
X0089410Y0079400D01*
X0089750Y0078250D01*
X0092250Y0075750D01*
X0092250Y0068500D01*
X0085201Y0061253D02*
X0085071Y0061253D01*
X0085201Y0060654D02*
X0084800Y0060654D01*
X0084800Y0060056D02*
X0085201Y0060056D01*
X0085201Y0059457D02*
X0084800Y0059457D01*
X0084800Y0058859D02*
X0085201Y0058859D01*
X0085367Y0058260D02*
X0084800Y0058260D01*
X0084800Y0057662D02*
X0085965Y0057662D01*
X0084800Y0057063D02*
X0087950Y0057063D01*
X0087950Y0056465D02*
X0084800Y0056465D01*
X0084800Y0055866D02*
X0087950Y0055866D01*
X0087950Y0055268D02*
X0084800Y0055268D01*
X0084800Y0054669D02*
X0087950Y0054669D01*
X0087950Y0054070D02*
X0084800Y0054070D01*
X0084800Y0053472D02*
X0087950Y0053472D01*
X0087950Y0052873D02*
X0084800Y0052873D01*
X0084800Y0052275D02*
X0087950Y0052275D01*
X0087950Y0051676D02*
X0084800Y0051676D01*
X0084800Y0051078D02*
X0087950Y0051078D01*
X0087950Y0050479D02*
X0084800Y0050479D01*
X0084800Y0049881D02*
X0087950Y0049881D01*
X0087950Y0049282D02*
X0084800Y0049282D01*
X0084800Y0048684D02*
X0087950Y0048684D01*
X0087950Y0048085D02*
X0084800Y0048085D01*
X0084800Y0047487D02*
X0087950Y0047487D01*
X0087950Y0046888D02*
X0084800Y0046888D01*
X0084800Y0046290D02*
X0087950Y0046290D01*
X0087950Y0045691D02*
X0084800Y0045691D01*
X0084800Y0045093D02*
X0087950Y0045093D01*
X0088460Y0044494D02*
X0084800Y0044494D01*
X0084800Y0043896D02*
X0089059Y0043896D01*
X0089657Y0043297D02*
X0084800Y0043297D01*
X0084800Y0042699D02*
X0090256Y0042699D01*
X0090854Y0042100D02*
X0084394Y0042100D01*
X0083795Y0041502D02*
X0091453Y0041502D01*
X0091700Y0040903D02*
X0083197Y0040903D01*
X0082598Y0040305D02*
X0091700Y0040305D01*
X0091700Y0039706D02*
X0082000Y0039706D01*
X0081401Y0039108D02*
X0091700Y0039108D01*
X0091700Y0038509D02*
X0080803Y0038509D01*
X0080982Y0037911D02*
X0091700Y0037911D01*
X0091700Y0037312D02*
X0081106Y0037312D01*
X0081106Y0036714D02*
X0091700Y0036714D01*
X0091700Y0036115D02*
X0081071Y0036115D01*
X0080823Y0035517D02*
X0091700Y0035517D01*
X0091700Y0034918D02*
X0080567Y0034918D01*
X0079969Y0034320D02*
X0091700Y0034320D01*
X0083000Y0043252D02*
X0076654Y0036906D01*
X0083000Y0043252D02*
X0083000Y0063000D01*
X0114440Y0034918D02*
X0115040Y0034918D01*
X0115040Y0034320D02*
X0114440Y0034320D01*
X0114440Y0033721D02*
X0115040Y0033721D01*
X0115040Y0033123D02*
X0114440Y0033123D01*
X0114440Y0032524D02*
X0115040Y0032524D01*
X0115040Y0031926D02*
X0114440Y0031926D01*
X0118599Y0030130D02*
X0119084Y0030130D01*
X0020208Y0104345D02*
X0020000Y0104345D01*
X0032401Y0118710D02*
X0060200Y0118710D01*
X0055252Y0128884D02*
X0032823Y0128884D01*
X0033847Y0129483D02*
X0054982Y0129483D01*
X0054383Y0130081D02*
X0034445Y0130081D01*
X0034910Y0130680D02*
X0053785Y0130680D01*
X0053186Y0131278D02*
X0035158Y0131278D01*
X0035406Y0131877D02*
X0052613Y0131877D01*
X0052365Y0132475D02*
X0035500Y0132475D01*
X0035500Y0133074D02*
X0052250Y0133074D01*
X0052250Y0133672D02*
X0035500Y0133672D01*
X0035344Y0134271D02*
X0052250Y0134271D01*
X0052250Y0134870D02*
X0035096Y0134870D01*
X0034848Y0135468D02*
X0052250Y0135468D01*
X0052250Y0136067D02*
X0034297Y0136067D01*
X0033699Y0136665D02*
X0052250Y0136665D01*
X0052250Y0138461D02*
X0020000Y0138461D01*
X0020000Y0139059D02*
X0022755Y0139059D01*
X0021978Y0139658D02*
X0020000Y0139658D01*
X0020000Y0140256D02*
X0021380Y0140256D01*
X0021018Y0140855D02*
X0020000Y0140855D01*
X0020000Y0141453D02*
X0020770Y0141453D01*
X0020522Y0142052D02*
X0020000Y0142052D01*
X0020000Y0142650D02*
X0020500Y0142650D01*
X0020500Y0143249D02*
X0020000Y0143249D01*
X0020000Y0143847D02*
X0020500Y0143847D01*
X0020728Y0144446D02*
X0020000Y0144446D01*
X0020000Y0145044D02*
X0020976Y0145044D01*
X0021279Y0145643D02*
X0020000Y0145643D01*
X0020000Y0146241D02*
X0021877Y0146241D01*
X0022511Y0146840D02*
X0020000Y0146840D01*
X0020000Y0147438D02*
X0023956Y0147438D01*
X0023778Y0148635D02*
X0020000Y0148635D01*
X0020000Y0148037D02*
X0029751Y0148037D01*
X0022402Y0149234D02*
X0020000Y0149234D01*
X0020000Y0149832D02*
X0021804Y0149832D01*
X0021205Y0150431D02*
X0020000Y0150431D01*
X0020000Y0151029D02*
X0020946Y0151029D01*
X0020698Y0151628D02*
X0020000Y0151628D01*
X0020000Y0152226D02*
X0020500Y0152226D01*
X0020500Y0152825D02*
X0020000Y0152825D01*
X0020000Y0153423D02*
X0020500Y0153423D01*
X0020553Y0154022D02*
X0020000Y0154022D01*
X0020000Y0154620D02*
X0020800Y0154620D01*
X0021048Y0155219D02*
X0020000Y0155219D01*
X0020000Y0155817D02*
X0021453Y0155817D01*
X0022052Y0156416D02*
X0020000Y0156416D01*
X0020000Y0157014D02*
X0022933Y0157014D01*
X0020000Y0157613D02*
X0038500Y0157613D01*
X0038500Y0158211D02*
X0020000Y0158211D01*
X0020000Y0158810D02*
X0038500Y0158810D01*
X0038500Y0159408D02*
X0020000Y0159408D01*
X0020000Y0160007D02*
X0038500Y0160007D01*
X0038500Y0160605D02*
X0020000Y0160605D01*
X0020000Y0161204D02*
X0038500Y0161204D01*
X0038500Y0161803D02*
X0020000Y0161803D01*
X0020000Y0162401D02*
X0038500Y0162401D01*
X0038500Y0163000D02*
X0020000Y0163000D01*
X0020000Y0163598D02*
X0038500Y0163598D01*
X0038500Y0164197D02*
X0020000Y0164197D01*
X0020000Y0164795D02*
X0038500Y0164795D01*
X0038500Y0165394D02*
X0020000Y0165394D01*
X0020000Y0165992D02*
X0038500Y0165992D01*
X0038500Y0166591D02*
X0020000Y0166591D01*
X0020000Y0167189D02*
X0038500Y0167189D01*
X0038500Y0167788D02*
X0020000Y0167788D01*
X0020000Y0168386D02*
X0038500Y0168386D01*
X0038500Y0168985D02*
X0020000Y0168985D01*
X0020000Y0169583D02*
X0038500Y0169583D01*
X0038576Y0170182D02*
X0020000Y0170182D01*
X0020000Y0170780D02*
X0038824Y0170780D01*
X0039343Y0171379D02*
X0020000Y0171379D01*
X0020000Y0171977D02*
X0039942Y0171977D01*
X0040540Y0172576D02*
X0020000Y0172576D01*
X0020000Y0173174D02*
X0041139Y0173174D01*
X0041737Y0173773D02*
X0020000Y0173773D01*
X0020000Y0174371D02*
X0033868Y0174371D01*
X0034130Y0174238D02*
X0034899Y0173988D01*
X0035698Y0173861D01*
X0035802Y0173861D01*
X0035802Y0178700D01*
X0030964Y0178700D01*
X0030964Y0178596D01*
X0031090Y0177797D01*
X0031340Y0177027D01*
X0031707Y0176307D01*
X0032183Y0175652D01*
X0032755Y0175081D01*
X0033409Y0174605D01*
X0034130Y0174238D01*
X0032907Y0174970D02*
X0020000Y0174970D01*
X0020000Y0175568D02*
X0032267Y0175568D01*
X0031809Y0176167D02*
X0020000Y0176167D01*
X0020000Y0176765D02*
X0031474Y0176765D01*
X0031231Y0177364D02*
X0020000Y0177364D01*
X0020000Y0177962D02*
X0031064Y0177962D01*
X0030969Y0178561D02*
X0020000Y0178561D01*
X0020000Y0179159D02*
X0035802Y0179159D01*
X0035802Y0179300D02*
X0035802Y0178700D01*
X0036402Y0178700D01*
X0036402Y0173861D01*
X0036507Y0173861D01*
X0037306Y0173988D01*
X0038075Y0174238D01*
X0038796Y0174605D01*
X0039450Y0175081D01*
X0040022Y0175652D01*
X0040497Y0176307D01*
X0040864Y0177027D01*
X0041114Y0177797D01*
X0041241Y0178596D01*
X0041241Y0178700D01*
X0036402Y0178700D01*
X0036402Y0179300D01*
X0035802Y0179300D01*
X0030964Y0179300D01*
X0030964Y0179404D01*
X0031090Y0180203D01*
X0031340Y0180973D01*
X0031707Y0181693D01*
X0032183Y0182348D01*
X0032755Y0182919D01*
X0033409Y0183395D01*
X0034130Y0183762D01*
X0034899Y0184012D01*
X0035698Y0184139D01*
X0035802Y0184139D01*
X0035802Y0179300D01*
X0035802Y0179758D02*
X0036402Y0179758D01*
X0036402Y0179300D02*
X0036402Y0184139D01*
X0036507Y0184139D01*
X0037306Y0184012D01*
X0038075Y0183762D01*
X0038796Y0183395D01*
X0039450Y0182919D01*
X0040022Y0182348D01*
X0040497Y0181693D01*
X0040864Y0180973D01*
X0041114Y0180203D01*
X0041241Y0179404D01*
X0041241Y0179300D01*
X0036402Y0179300D01*
X0036402Y0179159D02*
X0047124Y0179159D01*
X0046525Y0178561D02*
X0041235Y0178561D01*
X0041141Y0177962D02*
X0045927Y0177962D01*
X0045328Y0177364D02*
X0040974Y0177364D01*
X0040731Y0176765D02*
X0044730Y0176765D01*
X0044131Y0176167D02*
X0040396Y0176167D01*
X0039938Y0175568D02*
X0043533Y0175568D01*
X0042934Y0174970D02*
X0039297Y0174970D01*
X0038337Y0174371D02*
X0042336Y0174371D01*
X0041185Y0179758D02*
X0047722Y0179758D01*
X0048321Y0180356D02*
X0041065Y0180356D01*
X0040870Y0180955D02*
X0048919Y0180955D01*
X0049518Y0181553D02*
X0040568Y0181553D01*
X0040164Y0182152D02*
X0050116Y0182152D01*
X0050715Y0182750D02*
X0039619Y0182750D01*
X0038859Y0183349D02*
X0051313Y0183349D01*
X0051912Y0183947D02*
X0037504Y0183947D01*
X0036402Y0183947D02*
X0035802Y0183947D01*
X0035802Y0183349D02*
X0036402Y0183349D01*
X0036402Y0182750D02*
X0035802Y0182750D01*
X0035802Y0182152D02*
X0036402Y0182152D01*
X0036402Y0181553D02*
X0035802Y0181553D01*
X0035802Y0180955D02*
X0036402Y0180955D01*
X0036402Y0180356D02*
X0035802Y0180356D01*
X0035802Y0178561D02*
X0036402Y0178561D01*
X0036402Y0177962D02*
X0035802Y0177962D01*
X0035802Y0177364D02*
X0036402Y0177364D01*
X0036402Y0176765D02*
X0035802Y0176765D01*
X0035802Y0176167D02*
X0036402Y0176167D01*
X0036402Y0175568D02*
X0035802Y0175568D01*
X0035802Y0174970D02*
X0036402Y0174970D01*
X0036402Y0174371D02*
X0035802Y0174371D01*
X0031020Y0179758D02*
X0020000Y0179758D01*
X0020000Y0180356D02*
X0031140Y0180356D01*
X0031335Y0180955D02*
X0020000Y0180955D01*
X0020000Y0181553D02*
X0031636Y0181553D01*
X0032041Y0182152D02*
X0020000Y0182152D01*
X0020000Y0182750D02*
X0032586Y0182750D01*
X0033346Y0183349D02*
X0020000Y0183349D01*
X0020000Y0183947D02*
X0034700Y0183947D01*
X0020000Y0184546D02*
X0052510Y0184546D01*
X0053109Y0185144D02*
X0020000Y0185144D01*
X0020000Y0185743D02*
X0053707Y0185743D01*
X0054306Y0186341D02*
X0020000Y0186341D01*
X0020000Y0186940D02*
X0054904Y0186940D01*
X0055503Y0187539D02*
X0020000Y0187539D01*
X0020000Y0188137D02*
X0056480Y0188137D01*
X0057558Y0173773D02*
X0057606Y0173773D01*
X0038500Y0157014D02*
X0033067Y0157014D01*
X0033948Y0156416D02*
X0038130Y0156416D01*
X0037532Y0155817D02*
X0034547Y0155817D01*
X0034952Y0155219D02*
X0036933Y0155219D01*
X0036335Y0154620D02*
X0035200Y0154620D01*
X0035447Y0154022D02*
X0035736Y0154022D01*
X0082718Y0152825D02*
X0083282Y0152825D01*
X0086000Y0157000D02*
X0086740Y0157000D01*
X0086000Y0157000D02*
X0083500Y0159500D01*
X0083500Y0160750D01*
X0082250Y0162000D01*
X0084993Y0161803D02*
X0107950Y0161803D01*
X0107379Y0162401D02*
X0094338Y0162401D01*
X0094296Y0162359D02*
X0094538Y0162601D01*
X0094709Y0162898D01*
X0094798Y0163228D01*
X0094798Y0167499D01*
X0091398Y0167499D01*
X0091398Y0162100D01*
X0093669Y0162100D01*
X0094000Y0162188D01*
X0094296Y0162359D01*
X0094737Y0163000D02*
X0107002Y0163000D01*
X0107002Y0163598D02*
X0094798Y0163598D01*
X0094798Y0164197D02*
X0107002Y0164197D01*
X0107002Y0164795D02*
X0094798Y0164795D01*
X0094798Y0165394D02*
X0107002Y0165394D01*
X0107002Y0165992D02*
X0094798Y0165992D01*
X0094798Y0166591D02*
X0107002Y0166591D01*
X0107002Y0167189D02*
X0094798Y0167189D01*
X0094798Y0168099D02*
X0091398Y0168099D01*
X0090798Y0168099D01*
X0090798Y0167499D01*
X0087399Y0167499D01*
X0087399Y0163228D01*
X0087487Y0162898D01*
X0087659Y0162601D01*
X0087901Y0162359D01*
X0088197Y0162188D01*
X0088528Y0162100D01*
X0090798Y0162100D01*
X0090798Y0167499D01*
X0091398Y0167499D01*
X0091398Y0168099D01*
X0091398Y0173499D01*
X0093669Y0173499D01*
X0094000Y0173410D01*
X0094296Y0173239D01*
X0094538Y0172997D01*
X0094709Y0172701D01*
X0094798Y0172370D01*
X0094798Y0168099D01*
X0094798Y0168386D02*
X0107002Y0168386D01*
X0107002Y0167788D02*
X0091398Y0167788D01*
X0091398Y0168386D02*
X0090798Y0168386D01*
X0090798Y0168099D02*
X0090798Y0173499D01*
X0088528Y0173499D01*
X0088197Y0173410D01*
X0087901Y0173239D01*
X0087659Y0172997D01*
X0087487Y0172701D01*
X0087399Y0172370D01*
X0087399Y0168099D01*
X0090798Y0168099D01*
X0090798Y0167788D02*
X0085900Y0167788D01*
X0085900Y0168386D02*
X0087399Y0168386D01*
X0087399Y0168985D02*
X0085900Y0168985D01*
X0085900Y0169583D02*
X0087399Y0169583D01*
X0087399Y0170182D02*
X0085900Y0170182D01*
X0085900Y0170780D02*
X0087399Y0170780D01*
X0087399Y0171379D02*
X0085900Y0171379D01*
X0085900Y0171977D02*
X0087399Y0171977D01*
X0087454Y0172576D02*
X0085900Y0172576D01*
X0085545Y0173174D02*
X0087836Y0173174D01*
X0090798Y0173174D02*
X0091398Y0173174D01*
X0091398Y0172576D02*
X0090798Y0172576D01*
X0090798Y0171977D02*
X0091398Y0171977D01*
X0091398Y0171379D02*
X0090798Y0171379D01*
X0090798Y0170780D02*
X0091398Y0170780D01*
X0091398Y0170182D02*
X0090798Y0170182D01*
X0090798Y0169583D02*
X0091398Y0169583D01*
X0091398Y0168985D02*
X0090798Y0168985D01*
X0090798Y0167189D02*
X0091398Y0167189D01*
X0091398Y0166591D02*
X0090798Y0166591D01*
X0090798Y0165992D02*
X0091398Y0165992D01*
X0091398Y0165394D02*
X0090798Y0165394D01*
X0090798Y0164795D02*
X0091398Y0164795D01*
X0091398Y0164197D02*
X0090798Y0164197D01*
X0090798Y0163598D02*
X0091398Y0163598D01*
X0091398Y0163000D02*
X0090798Y0163000D01*
X0090798Y0162401D02*
X0091398Y0162401D01*
X0090169Y0161204D02*
X0105831Y0161204D01*
X0105232Y0160605D02*
X0090768Y0160605D01*
X0090799Y0160007D02*
X0105201Y0160007D01*
X0105201Y0159408D02*
X0090799Y0159408D01*
X0090799Y0158810D02*
X0105201Y0158810D01*
X0105201Y0158211D02*
X0090799Y0158211D01*
X0090799Y0157613D02*
X0105201Y0157613D01*
X0105201Y0157014D02*
X0090799Y0157014D01*
X0090799Y0156416D02*
X0105201Y0156416D01*
X0105201Y0155817D02*
X0090799Y0155817D01*
X0090799Y0155219D02*
X0105201Y0155219D01*
X0105201Y0154620D02*
X0090799Y0154620D01*
X0090799Y0154022D02*
X0105201Y0154022D01*
X0105203Y0153423D02*
X0090797Y0153423D01*
X0090198Y0152825D02*
X0105802Y0152825D01*
X0109260Y0157000D02*
X0109750Y0157000D01*
X0109750Y0167000D01*
X0110902Y0167799D01*
X0107002Y0168985D02*
X0094798Y0168985D01*
X0094798Y0169583D02*
X0107002Y0169583D01*
X0107002Y0170182D02*
X0094798Y0170182D01*
X0094798Y0170780D02*
X0107002Y0170780D01*
X0107002Y0171379D02*
X0094798Y0171379D01*
X0094798Y0171977D02*
X0107002Y0171977D01*
X0107002Y0172576D02*
X0094743Y0172576D01*
X0094361Y0173174D02*
X0107356Y0173174D01*
X0128278Y0186940D02*
X0149722Y0186940D01*
X0149413Y0187539D02*
X0128587Y0187539D01*
X0128587Y0188137D02*
X0149413Y0188137D01*
X0149413Y0188736D02*
X0128587Y0188736D01*
X0128587Y0189334D02*
X0149413Y0189334D01*
X0149413Y0189933D02*
X0128587Y0189933D01*
X0128587Y0190531D02*
X0149413Y0190531D01*
X0149413Y0191130D02*
X0128587Y0191130D01*
X0128587Y0191728D02*
X0149413Y0191728D01*
X0149413Y0192327D02*
X0128587Y0192327D01*
X0128587Y0192925D02*
X0149413Y0192925D01*
X0149413Y0193524D02*
X0128587Y0193524D01*
X0128587Y0194122D02*
X0149413Y0194122D01*
X0149413Y0194721D02*
X0128587Y0194721D01*
X0128587Y0195319D02*
X0149413Y0195319D01*
X0149413Y0195918D02*
X0128587Y0195918D01*
X0128587Y0196516D02*
X0149413Y0196516D01*
X0149413Y0197115D02*
X0128587Y0197115D01*
X0128026Y0197713D02*
X0149974Y0197713D01*
X0166026Y0197713D02*
X0265000Y0197713D01*
X0265000Y0197115D02*
X0166587Y0197115D01*
X0166587Y0196516D02*
X0265000Y0196516D01*
X0265000Y0195918D02*
X0166587Y0195918D01*
X0166587Y0195319D02*
X0265000Y0195319D01*
X0265000Y0194721D02*
X0166587Y0194721D01*
X0166587Y0194122D02*
X0265000Y0194122D01*
X0265000Y0193524D02*
X0166587Y0193524D01*
X0166587Y0192925D02*
X0265000Y0192925D01*
X0265000Y0192327D02*
X0166587Y0192327D01*
X0166587Y0191728D02*
X0265000Y0191728D01*
X0265000Y0191130D02*
X0166587Y0191130D01*
X0166587Y0190531D02*
X0265000Y0190531D01*
X0265000Y0189933D02*
X0166587Y0189933D01*
X0166587Y0189334D02*
X0265000Y0189334D01*
X0265000Y0188736D02*
X0166587Y0188736D01*
X0166587Y0188137D02*
X0265000Y0188137D01*
X0265000Y0187539D02*
X0166587Y0187539D01*
X0166278Y0186940D02*
X0265000Y0186940D01*
X0265000Y0181553D02*
X0220281Y0181553D01*
X0220880Y0180955D02*
X0265000Y0180955D01*
X0265000Y0180356D02*
X0221478Y0180356D01*
X0222077Y0179758D02*
X0265000Y0179758D01*
X0265000Y0179159D02*
X0222675Y0179159D01*
X0223100Y0178561D02*
X0265000Y0178561D01*
X0265000Y0177962D02*
X0223100Y0177962D01*
X0223100Y0177364D02*
X0265000Y0177364D01*
X0265000Y0198312D02*
X0020000Y0198312D01*
X0020000Y0198910D02*
X0265000Y0198910D01*
X0218300Y0181553D02*
X0217700Y0181553D01*
X0217700Y0180955D02*
X0218300Y0180955D01*
X0218300Y0180356D02*
X0217700Y0180356D01*
X0217700Y0179758D02*
X0218300Y0179758D01*
X0218300Y0179159D02*
X0217700Y0179159D01*
X0217700Y0178561D02*
X0218300Y0178561D01*
X0218300Y0177962D02*
X0217700Y0177962D01*
X0217700Y0177364D02*
X0218300Y0177364D01*
X0218300Y0175568D02*
X0217700Y0175568D01*
X0217700Y0174970D02*
X0218300Y0174970D01*
X0218300Y0174371D02*
X0217700Y0174371D01*
X0217700Y0173773D02*
X0218300Y0173773D01*
X0218300Y0173174D02*
X0217700Y0173174D01*
X0217700Y0172576D02*
X0218300Y0172576D01*
X0218300Y0171977D02*
X0217700Y0171977D01*
X0265000Y0128884D02*
X0162934Y0128884D01*
X0163390Y0128286D02*
X0265000Y0128286D01*
X0265000Y0127687D02*
X0163638Y0127687D01*
X0163700Y0127089D02*
X0265000Y0127089D01*
X0265000Y0126490D02*
X0163700Y0126490D01*
X0163463Y0125892D02*
X0265000Y0125892D01*
X0265000Y0125293D02*
X0163112Y0125293D01*
X0162490Y0124695D02*
X0265000Y0124695D01*
X0154116Y0162401D02*
X0152424Y0162401D01*
X0152801Y0163000D02*
X0154100Y0163000D01*
X0154100Y0163598D02*
X0152801Y0163598D01*
X0152801Y0164197D02*
X0154100Y0164197D01*
X0154100Y0164795D02*
X0152801Y0164795D01*
X0152801Y0165394D02*
X0154100Y0165394D01*
X0154100Y0165992D02*
X0152801Y0165992D01*
X0152801Y0166591D02*
X0154100Y0166591D01*
X0154100Y0167189D02*
X0152801Y0167189D01*
X0145002Y0168985D02*
X0132798Y0168985D01*
X0132798Y0169583D02*
X0145002Y0169583D01*
X0145002Y0170182D02*
X0132798Y0170182D01*
X0132798Y0170780D02*
X0145002Y0170780D01*
X0145002Y0171379D02*
X0132798Y0171379D01*
X0132798Y0171977D02*
X0145002Y0171977D01*
X0145002Y0172576D02*
X0132743Y0172576D01*
X0132361Y0173174D02*
X0145356Y0173174D01*
X0144311Y0161204D02*
X0143689Y0161204D01*
X0150300Y0161803D02*
X0153517Y0161803D01*
X0152918Y0161204D02*
X0151169Y0161204D01*
X0151768Y0160605D02*
X0152131Y0160605D01*
X0136802Y0152825D02*
X0135643Y0152825D01*
X0117000Y0151000D02*
X0116740Y0151260D01*
X0093497Y0139059D02*
X0092834Y0139059D01*
X0098922Y0121104D02*
X0113266Y0121104D01*
X0087859Y0162401D02*
X0085522Y0162401D01*
X0085900Y0163000D02*
X0087460Y0163000D01*
X0087399Y0163598D02*
X0085900Y0163598D01*
X0085900Y0164197D02*
X0087399Y0164197D01*
X0087399Y0164795D02*
X0085900Y0164795D01*
X0085900Y0165394D02*
X0087399Y0165394D01*
X0087399Y0165992D02*
X0085900Y0165992D01*
X0085900Y0166591D02*
X0087399Y0166591D01*
X0087399Y0167189D02*
X0085900Y0167189D01*
M02*
