G75*
%MOIN*%
%OFA0B0*%
%FSLAX25Y25*%
%IPPOS*%
%LPD*%
%AMOC8*
5,1,8,0,0,1.08239X$1,22.5*
%
%ADD10C,0.00000*%
%ADD11C,0.07677*%
%ADD12R,0.07600X0.07600*%
%ADD13OC8,0.07600*%
%ADD14C,0.06000*%
%ADD15R,0.06299X0.07098*%
%ADD16R,0.04799X0.08799*%
%ADD17R,0.14173X0.08661*%
%ADD18C,0.07400*%
%ADD19C,0.01500*%
%ADD20C,0.02400*%
%ADD21C,0.01000*%
%ADD22C,0.00600*%
D10*
X0018000Y0004000D02*
X0018000Y0207961D01*
X0227701Y0207961D01*
X0227701Y0004000D01*
X0018000Y0004000D01*
X0081063Y0011000D02*
X0081065Y0011125D01*
X0081071Y0011250D01*
X0081081Y0011374D01*
X0081095Y0011498D01*
X0081112Y0011622D01*
X0081134Y0011745D01*
X0081160Y0011867D01*
X0081189Y0011989D01*
X0081222Y0012109D01*
X0081260Y0012228D01*
X0081300Y0012347D01*
X0081345Y0012463D01*
X0081393Y0012578D01*
X0081445Y0012692D01*
X0081501Y0012804D01*
X0081560Y0012914D01*
X0081622Y0013022D01*
X0081688Y0013129D01*
X0081757Y0013233D01*
X0081830Y0013334D01*
X0081905Y0013434D01*
X0081984Y0013531D01*
X0082066Y0013625D01*
X0082151Y0013717D01*
X0082238Y0013806D01*
X0082329Y0013892D01*
X0082422Y0013975D01*
X0082518Y0014056D01*
X0082616Y0014133D01*
X0082716Y0014207D01*
X0082819Y0014278D01*
X0082924Y0014345D01*
X0083032Y0014410D01*
X0083141Y0014470D01*
X0083252Y0014528D01*
X0083365Y0014581D01*
X0083479Y0014631D01*
X0083595Y0014678D01*
X0083712Y0014720D01*
X0083831Y0014759D01*
X0083951Y0014795D01*
X0084072Y0014826D01*
X0084194Y0014854D01*
X0084316Y0014877D01*
X0084440Y0014897D01*
X0084564Y0014913D01*
X0084688Y0014925D01*
X0084813Y0014933D01*
X0084938Y0014937D01*
X0085062Y0014937D01*
X0085187Y0014933D01*
X0085312Y0014925D01*
X0085436Y0014913D01*
X0085560Y0014897D01*
X0085684Y0014877D01*
X0085806Y0014854D01*
X0085928Y0014826D01*
X0086049Y0014795D01*
X0086169Y0014759D01*
X0086288Y0014720D01*
X0086405Y0014678D01*
X0086521Y0014631D01*
X0086635Y0014581D01*
X0086748Y0014528D01*
X0086859Y0014470D01*
X0086969Y0014410D01*
X0087076Y0014345D01*
X0087181Y0014278D01*
X0087284Y0014207D01*
X0087384Y0014133D01*
X0087482Y0014056D01*
X0087578Y0013975D01*
X0087671Y0013892D01*
X0087762Y0013806D01*
X0087849Y0013717D01*
X0087934Y0013625D01*
X0088016Y0013531D01*
X0088095Y0013434D01*
X0088170Y0013334D01*
X0088243Y0013233D01*
X0088312Y0013129D01*
X0088378Y0013022D01*
X0088440Y0012914D01*
X0088499Y0012804D01*
X0088555Y0012692D01*
X0088607Y0012578D01*
X0088655Y0012463D01*
X0088700Y0012347D01*
X0088740Y0012228D01*
X0088778Y0012109D01*
X0088811Y0011989D01*
X0088840Y0011867D01*
X0088866Y0011745D01*
X0088888Y0011622D01*
X0088905Y0011498D01*
X0088919Y0011374D01*
X0088929Y0011250D01*
X0088935Y0011125D01*
X0088937Y0011000D01*
X0088935Y0010875D01*
X0088929Y0010750D01*
X0088919Y0010626D01*
X0088905Y0010502D01*
X0088888Y0010378D01*
X0088866Y0010255D01*
X0088840Y0010133D01*
X0088811Y0010011D01*
X0088778Y0009891D01*
X0088740Y0009772D01*
X0088700Y0009653D01*
X0088655Y0009537D01*
X0088607Y0009422D01*
X0088555Y0009308D01*
X0088499Y0009196D01*
X0088440Y0009086D01*
X0088378Y0008978D01*
X0088312Y0008871D01*
X0088243Y0008767D01*
X0088170Y0008666D01*
X0088095Y0008566D01*
X0088016Y0008469D01*
X0087934Y0008375D01*
X0087849Y0008283D01*
X0087762Y0008194D01*
X0087671Y0008108D01*
X0087578Y0008025D01*
X0087482Y0007944D01*
X0087384Y0007867D01*
X0087284Y0007793D01*
X0087181Y0007722D01*
X0087076Y0007655D01*
X0086968Y0007590D01*
X0086859Y0007530D01*
X0086748Y0007472D01*
X0086635Y0007419D01*
X0086521Y0007369D01*
X0086405Y0007322D01*
X0086288Y0007280D01*
X0086169Y0007241D01*
X0086049Y0007205D01*
X0085928Y0007174D01*
X0085806Y0007146D01*
X0085684Y0007123D01*
X0085560Y0007103D01*
X0085436Y0007087D01*
X0085312Y0007075D01*
X0085187Y0007067D01*
X0085062Y0007063D01*
X0084938Y0007063D01*
X0084813Y0007067D01*
X0084688Y0007075D01*
X0084564Y0007087D01*
X0084440Y0007103D01*
X0084316Y0007123D01*
X0084194Y0007146D01*
X0084072Y0007174D01*
X0083951Y0007205D01*
X0083831Y0007241D01*
X0083712Y0007280D01*
X0083595Y0007322D01*
X0083479Y0007369D01*
X0083365Y0007419D01*
X0083252Y0007472D01*
X0083141Y0007530D01*
X0083031Y0007590D01*
X0082924Y0007655D01*
X0082819Y0007722D01*
X0082716Y0007793D01*
X0082616Y0007867D01*
X0082518Y0007944D01*
X0082422Y0008025D01*
X0082329Y0008108D01*
X0082238Y0008194D01*
X0082151Y0008283D01*
X0082066Y0008375D01*
X0081984Y0008469D01*
X0081905Y0008566D01*
X0081830Y0008666D01*
X0081757Y0008767D01*
X0081688Y0008871D01*
X0081622Y0008978D01*
X0081560Y0009086D01*
X0081501Y0009196D01*
X0081445Y0009308D01*
X0081393Y0009422D01*
X0081345Y0009537D01*
X0081300Y0009653D01*
X0081260Y0009772D01*
X0081222Y0009891D01*
X0081189Y0010011D01*
X0081160Y0010133D01*
X0081134Y0010255D01*
X0081112Y0010378D01*
X0081095Y0010502D01*
X0081081Y0010626D01*
X0081071Y0010750D01*
X0081065Y0010875D01*
X0081063Y0011000D01*
X0212063Y0011000D02*
X0212065Y0011125D01*
X0212071Y0011250D01*
X0212081Y0011374D01*
X0212095Y0011498D01*
X0212112Y0011622D01*
X0212134Y0011745D01*
X0212160Y0011867D01*
X0212189Y0011989D01*
X0212222Y0012109D01*
X0212260Y0012228D01*
X0212300Y0012347D01*
X0212345Y0012463D01*
X0212393Y0012578D01*
X0212445Y0012692D01*
X0212501Y0012804D01*
X0212560Y0012914D01*
X0212622Y0013022D01*
X0212688Y0013129D01*
X0212757Y0013233D01*
X0212830Y0013334D01*
X0212905Y0013434D01*
X0212984Y0013531D01*
X0213066Y0013625D01*
X0213151Y0013717D01*
X0213238Y0013806D01*
X0213329Y0013892D01*
X0213422Y0013975D01*
X0213518Y0014056D01*
X0213616Y0014133D01*
X0213716Y0014207D01*
X0213819Y0014278D01*
X0213924Y0014345D01*
X0214032Y0014410D01*
X0214141Y0014470D01*
X0214252Y0014528D01*
X0214365Y0014581D01*
X0214479Y0014631D01*
X0214595Y0014678D01*
X0214712Y0014720D01*
X0214831Y0014759D01*
X0214951Y0014795D01*
X0215072Y0014826D01*
X0215194Y0014854D01*
X0215316Y0014877D01*
X0215440Y0014897D01*
X0215564Y0014913D01*
X0215688Y0014925D01*
X0215813Y0014933D01*
X0215938Y0014937D01*
X0216062Y0014937D01*
X0216187Y0014933D01*
X0216312Y0014925D01*
X0216436Y0014913D01*
X0216560Y0014897D01*
X0216684Y0014877D01*
X0216806Y0014854D01*
X0216928Y0014826D01*
X0217049Y0014795D01*
X0217169Y0014759D01*
X0217288Y0014720D01*
X0217405Y0014678D01*
X0217521Y0014631D01*
X0217635Y0014581D01*
X0217748Y0014528D01*
X0217859Y0014470D01*
X0217969Y0014410D01*
X0218076Y0014345D01*
X0218181Y0014278D01*
X0218284Y0014207D01*
X0218384Y0014133D01*
X0218482Y0014056D01*
X0218578Y0013975D01*
X0218671Y0013892D01*
X0218762Y0013806D01*
X0218849Y0013717D01*
X0218934Y0013625D01*
X0219016Y0013531D01*
X0219095Y0013434D01*
X0219170Y0013334D01*
X0219243Y0013233D01*
X0219312Y0013129D01*
X0219378Y0013022D01*
X0219440Y0012914D01*
X0219499Y0012804D01*
X0219555Y0012692D01*
X0219607Y0012578D01*
X0219655Y0012463D01*
X0219700Y0012347D01*
X0219740Y0012228D01*
X0219778Y0012109D01*
X0219811Y0011989D01*
X0219840Y0011867D01*
X0219866Y0011745D01*
X0219888Y0011622D01*
X0219905Y0011498D01*
X0219919Y0011374D01*
X0219929Y0011250D01*
X0219935Y0011125D01*
X0219937Y0011000D01*
X0219935Y0010875D01*
X0219929Y0010750D01*
X0219919Y0010626D01*
X0219905Y0010502D01*
X0219888Y0010378D01*
X0219866Y0010255D01*
X0219840Y0010133D01*
X0219811Y0010011D01*
X0219778Y0009891D01*
X0219740Y0009772D01*
X0219700Y0009653D01*
X0219655Y0009537D01*
X0219607Y0009422D01*
X0219555Y0009308D01*
X0219499Y0009196D01*
X0219440Y0009086D01*
X0219378Y0008978D01*
X0219312Y0008871D01*
X0219243Y0008767D01*
X0219170Y0008666D01*
X0219095Y0008566D01*
X0219016Y0008469D01*
X0218934Y0008375D01*
X0218849Y0008283D01*
X0218762Y0008194D01*
X0218671Y0008108D01*
X0218578Y0008025D01*
X0218482Y0007944D01*
X0218384Y0007867D01*
X0218284Y0007793D01*
X0218181Y0007722D01*
X0218076Y0007655D01*
X0217968Y0007590D01*
X0217859Y0007530D01*
X0217748Y0007472D01*
X0217635Y0007419D01*
X0217521Y0007369D01*
X0217405Y0007322D01*
X0217288Y0007280D01*
X0217169Y0007241D01*
X0217049Y0007205D01*
X0216928Y0007174D01*
X0216806Y0007146D01*
X0216684Y0007123D01*
X0216560Y0007103D01*
X0216436Y0007087D01*
X0216312Y0007075D01*
X0216187Y0007067D01*
X0216062Y0007063D01*
X0215938Y0007063D01*
X0215813Y0007067D01*
X0215688Y0007075D01*
X0215564Y0007087D01*
X0215440Y0007103D01*
X0215316Y0007123D01*
X0215194Y0007146D01*
X0215072Y0007174D01*
X0214951Y0007205D01*
X0214831Y0007241D01*
X0214712Y0007280D01*
X0214595Y0007322D01*
X0214479Y0007369D01*
X0214365Y0007419D01*
X0214252Y0007472D01*
X0214141Y0007530D01*
X0214031Y0007590D01*
X0213924Y0007655D01*
X0213819Y0007722D01*
X0213716Y0007793D01*
X0213616Y0007867D01*
X0213518Y0007944D01*
X0213422Y0008025D01*
X0213329Y0008108D01*
X0213238Y0008194D01*
X0213151Y0008283D01*
X0213066Y0008375D01*
X0212984Y0008469D01*
X0212905Y0008566D01*
X0212830Y0008666D01*
X0212757Y0008767D01*
X0212688Y0008871D01*
X0212622Y0008978D01*
X0212560Y0009086D01*
X0212501Y0009196D01*
X0212445Y0009308D01*
X0212393Y0009422D01*
X0212345Y0009537D01*
X0212300Y0009653D01*
X0212260Y0009772D01*
X0212222Y0009891D01*
X0212189Y0010011D01*
X0212160Y0010133D01*
X0212134Y0010255D01*
X0212112Y0010378D01*
X0212095Y0010502D01*
X0212081Y0010626D01*
X0212071Y0010750D01*
X0212065Y0010875D01*
X0212063Y0011000D01*
X0212063Y0199000D02*
X0212065Y0199125D01*
X0212071Y0199250D01*
X0212081Y0199374D01*
X0212095Y0199498D01*
X0212112Y0199622D01*
X0212134Y0199745D01*
X0212160Y0199867D01*
X0212189Y0199989D01*
X0212222Y0200109D01*
X0212260Y0200228D01*
X0212300Y0200347D01*
X0212345Y0200463D01*
X0212393Y0200578D01*
X0212445Y0200692D01*
X0212501Y0200804D01*
X0212560Y0200914D01*
X0212622Y0201022D01*
X0212688Y0201129D01*
X0212757Y0201233D01*
X0212830Y0201334D01*
X0212905Y0201434D01*
X0212984Y0201531D01*
X0213066Y0201625D01*
X0213151Y0201717D01*
X0213238Y0201806D01*
X0213329Y0201892D01*
X0213422Y0201975D01*
X0213518Y0202056D01*
X0213616Y0202133D01*
X0213716Y0202207D01*
X0213819Y0202278D01*
X0213924Y0202345D01*
X0214032Y0202410D01*
X0214141Y0202470D01*
X0214252Y0202528D01*
X0214365Y0202581D01*
X0214479Y0202631D01*
X0214595Y0202678D01*
X0214712Y0202720D01*
X0214831Y0202759D01*
X0214951Y0202795D01*
X0215072Y0202826D01*
X0215194Y0202854D01*
X0215316Y0202877D01*
X0215440Y0202897D01*
X0215564Y0202913D01*
X0215688Y0202925D01*
X0215813Y0202933D01*
X0215938Y0202937D01*
X0216062Y0202937D01*
X0216187Y0202933D01*
X0216312Y0202925D01*
X0216436Y0202913D01*
X0216560Y0202897D01*
X0216684Y0202877D01*
X0216806Y0202854D01*
X0216928Y0202826D01*
X0217049Y0202795D01*
X0217169Y0202759D01*
X0217288Y0202720D01*
X0217405Y0202678D01*
X0217521Y0202631D01*
X0217635Y0202581D01*
X0217748Y0202528D01*
X0217859Y0202470D01*
X0217969Y0202410D01*
X0218076Y0202345D01*
X0218181Y0202278D01*
X0218284Y0202207D01*
X0218384Y0202133D01*
X0218482Y0202056D01*
X0218578Y0201975D01*
X0218671Y0201892D01*
X0218762Y0201806D01*
X0218849Y0201717D01*
X0218934Y0201625D01*
X0219016Y0201531D01*
X0219095Y0201434D01*
X0219170Y0201334D01*
X0219243Y0201233D01*
X0219312Y0201129D01*
X0219378Y0201022D01*
X0219440Y0200914D01*
X0219499Y0200804D01*
X0219555Y0200692D01*
X0219607Y0200578D01*
X0219655Y0200463D01*
X0219700Y0200347D01*
X0219740Y0200228D01*
X0219778Y0200109D01*
X0219811Y0199989D01*
X0219840Y0199867D01*
X0219866Y0199745D01*
X0219888Y0199622D01*
X0219905Y0199498D01*
X0219919Y0199374D01*
X0219929Y0199250D01*
X0219935Y0199125D01*
X0219937Y0199000D01*
X0219935Y0198875D01*
X0219929Y0198750D01*
X0219919Y0198626D01*
X0219905Y0198502D01*
X0219888Y0198378D01*
X0219866Y0198255D01*
X0219840Y0198133D01*
X0219811Y0198011D01*
X0219778Y0197891D01*
X0219740Y0197772D01*
X0219700Y0197653D01*
X0219655Y0197537D01*
X0219607Y0197422D01*
X0219555Y0197308D01*
X0219499Y0197196D01*
X0219440Y0197086D01*
X0219378Y0196978D01*
X0219312Y0196871D01*
X0219243Y0196767D01*
X0219170Y0196666D01*
X0219095Y0196566D01*
X0219016Y0196469D01*
X0218934Y0196375D01*
X0218849Y0196283D01*
X0218762Y0196194D01*
X0218671Y0196108D01*
X0218578Y0196025D01*
X0218482Y0195944D01*
X0218384Y0195867D01*
X0218284Y0195793D01*
X0218181Y0195722D01*
X0218076Y0195655D01*
X0217968Y0195590D01*
X0217859Y0195530D01*
X0217748Y0195472D01*
X0217635Y0195419D01*
X0217521Y0195369D01*
X0217405Y0195322D01*
X0217288Y0195280D01*
X0217169Y0195241D01*
X0217049Y0195205D01*
X0216928Y0195174D01*
X0216806Y0195146D01*
X0216684Y0195123D01*
X0216560Y0195103D01*
X0216436Y0195087D01*
X0216312Y0195075D01*
X0216187Y0195067D01*
X0216062Y0195063D01*
X0215938Y0195063D01*
X0215813Y0195067D01*
X0215688Y0195075D01*
X0215564Y0195087D01*
X0215440Y0195103D01*
X0215316Y0195123D01*
X0215194Y0195146D01*
X0215072Y0195174D01*
X0214951Y0195205D01*
X0214831Y0195241D01*
X0214712Y0195280D01*
X0214595Y0195322D01*
X0214479Y0195369D01*
X0214365Y0195419D01*
X0214252Y0195472D01*
X0214141Y0195530D01*
X0214031Y0195590D01*
X0213924Y0195655D01*
X0213819Y0195722D01*
X0213716Y0195793D01*
X0213616Y0195867D01*
X0213518Y0195944D01*
X0213422Y0196025D01*
X0213329Y0196108D01*
X0213238Y0196194D01*
X0213151Y0196283D01*
X0213066Y0196375D01*
X0212984Y0196469D01*
X0212905Y0196566D01*
X0212830Y0196666D01*
X0212757Y0196767D01*
X0212688Y0196871D01*
X0212622Y0196978D01*
X0212560Y0197086D01*
X0212501Y0197196D01*
X0212445Y0197308D01*
X0212393Y0197422D01*
X0212345Y0197537D01*
X0212300Y0197653D01*
X0212260Y0197772D01*
X0212222Y0197891D01*
X0212189Y0198011D01*
X0212160Y0198133D01*
X0212134Y0198255D01*
X0212112Y0198378D01*
X0212095Y0198502D01*
X0212081Y0198626D01*
X0212071Y0198750D01*
X0212065Y0198875D01*
X0212063Y0199000D01*
X0068063Y0199000D02*
X0068065Y0199125D01*
X0068071Y0199250D01*
X0068081Y0199374D01*
X0068095Y0199498D01*
X0068112Y0199622D01*
X0068134Y0199745D01*
X0068160Y0199867D01*
X0068189Y0199989D01*
X0068222Y0200109D01*
X0068260Y0200228D01*
X0068300Y0200347D01*
X0068345Y0200463D01*
X0068393Y0200578D01*
X0068445Y0200692D01*
X0068501Y0200804D01*
X0068560Y0200914D01*
X0068622Y0201022D01*
X0068688Y0201129D01*
X0068757Y0201233D01*
X0068830Y0201334D01*
X0068905Y0201434D01*
X0068984Y0201531D01*
X0069066Y0201625D01*
X0069151Y0201717D01*
X0069238Y0201806D01*
X0069329Y0201892D01*
X0069422Y0201975D01*
X0069518Y0202056D01*
X0069616Y0202133D01*
X0069716Y0202207D01*
X0069819Y0202278D01*
X0069924Y0202345D01*
X0070032Y0202410D01*
X0070141Y0202470D01*
X0070252Y0202528D01*
X0070365Y0202581D01*
X0070479Y0202631D01*
X0070595Y0202678D01*
X0070712Y0202720D01*
X0070831Y0202759D01*
X0070951Y0202795D01*
X0071072Y0202826D01*
X0071194Y0202854D01*
X0071316Y0202877D01*
X0071440Y0202897D01*
X0071564Y0202913D01*
X0071688Y0202925D01*
X0071813Y0202933D01*
X0071938Y0202937D01*
X0072062Y0202937D01*
X0072187Y0202933D01*
X0072312Y0202925D01*
X0072436Y0202913D01*
X0072560Y0202897D01*
X0072684Y0202877D01*
X0072806Y0202854D01*
X0072928Y0202826D01*
X0073049Y0202795D01*
X0073169Y0202759D01*
X0073288Y0202720D01*
X0073405Y0202678D01*
X0073521Y0202631D01*
X0073635Y0202581D01*
X0073748Y0202528D01*
X0073859Y0202470D01*
X0073969Y0202410D01*
X0074076Y0202345D01*
X0074181Y0202278D01*
X0074284Y0202207D01*
X0074384Y0202133D01*
X0074482Y0202056D01*
X0074578Y0201975D01*
X0074671Y0201892D01*
X0074762Y0201806D01*
X0074849Y0201717D01*
X0074934Y0201625D01*
X0075016Y0201531D01*
X0075095Y0201434D01*
X0075170Y0201334D01*
X0075243Y0201233D01*
X0075312Y0201129D01*
X0075378Y0201022D01*
X0075440Y0200914D01*
X0075499Y0200804D01*
X0075555Y0200692D01*
X0075607Y0200578D01*
X0075655Y0200463D01*
X0075700Y0200347D01*
X0075740Y0200228D01*
X0075778Y0200109D01*
X0075811Y0199989D01*
X0075840Y0199867D01*
X0075866Y0199745D01*
X0075888Y0199622D01*
X0075905Y0199498D01*
X0075919Y0199374D01*
X0075929Y0199250D01*
X0075935Y0199125D01*
X0075937Y0199000D01*
X0075935Y0198875D01*
X0075929Y0198750D01*
X0075919Y0198626D01*
X0075905Y0198502D01*
X0075888Y0198378D01*
X0075866Y0198255D01*
X0075840Y0198133D01*
X0075811Y0198011D01*
X0075778Y0197891D01*
X0075740Y0197772D01*
X0075700Y0197653D01*
X0075655Y0197537D01*
X0075607Y0197422D01*
X0075555Y0197308D01*
X0075499Y0197196D01*
X0075440Y0197086D01*
X0075378Y0196978D01*
X0075312Y0196871D01*
X0075243Y0196767D01*
X0075170Y0196666D01*
X0075095Y0196566D01*
X0075016Y0196469D01*
X0074934Y0196375D01*
X0074849Y0196283D01*
X0074762Y0196194D01*
X0074671Y0196108D01*
X0074578Y0196025D01*
X0074482Y0195944D01*
X0074384Y0195867D01*
X0074284Y0195793D01*
X0074181Y0195722D01*
X0074076Y0195655D01*
X0073968Y0195590D01*
X0073859Y0195530D01*
X0073748Y0195472D01*
X0073635Y0195419D01*
X0073521Y0195369D01*
X0073405Y0195322D01*
X0073288Y0195280D01*
X0073169Y0195241D01*
X0073049Y0195205D01*
X0072928Y0195174D01*
X0072806Y0195146D01*
X0072684Y0195123D01*
X0072560Y0195103D01*
X0072436Y0195087D01*
X0072312Y0195075D01*
X0072187Y0195067D01*
X0072062Y0195063D01*
X0071938Y0195063D01*
X0071813Y0195067D01*
X0071688Y0195075D01*
X0071564Y0195087D01*
X0071440Y0195103D01*
X0071316Y0195123D01*
X0071194Y0195146D01*
X0071072Y0195174D01*
X0070951Y0195205D01*
X0070831Y0195241D01*
X0070712Y0195280D01*
X0070595Y0195322D01*
X0070479Y0195369D01*
X0070365Y0195419D01*
X0070252Y0195472D01*
X0070141Y0195530D01*
X0070031Y0195590D01*
X0069924Y0195655D01*
X0069819Y0195722D01*
X0069716Y0195793D01*
X0069616Y0195867D01*
X0069518Y0195944D01*
X0069422Y0196025D01*
X0069329Y0196108D01*
X0069238Y0196194D01*
X0069151Y0196283D01*
X0069066Y0196375D01*
X0068984Y0196469D01*
X0068905Y0196566D01*
X0068830Y0196666D01*
X0068757Y0196767D01*
X0068688Y0196871D01*
X0068622Y0196978D01*
X0068560Y0197086D01*
X0068501Y0197196D01*
X0068445Y0197308D01*
X0068393Y0197422D01*
X0068345Y0197537D01*
X0068300Y0197653D01*
X0068260Y0197772D01*
X0068222Y0197891D01*
X0068189Y0198011D01*
X0068160Y0198133D01*
X0068134Y0198255D01*
X0068112Y0198378D01*
X0068095Y0198502D01*
X0068081Y0198626D01*
X0068071Y0198750D01*
X0068065Y0198875D01*
X0068063Y0199000D01*
D11*
X0058937Y0188000D03*
X0047126Y0169102D03*
X0036102Y0188000D03*
D12*
X0086882Y0160000D03*
D13*
X0165622Y0160000D03*
D14*
X0034000Y0157000D02*
X0028000Y0157000D01*
X0028000Y0147000D02*
X0034000Y0147000D01*
X0034000Y0137000D02*
X0028000Y0137000D01*
X0028000Y0127000D02*
X0034000Y0127000D01*
D15*
X0088402Y0146000D03*
X0099598Y0146000D03*
X0123402Y0146000D03*
X0134598Y0146000D03*
X0158402Y0146000D03*
X0169598Y0146000D03*
D16*
X0174098Y0172799D03*
X0165000Y0172799D03*
X0155902Y0172799D03*
X0138098Y0172799D03*
X0129000Y0172799D03*
X0119902Y0172799D03*
X0102098Y0172799D03*
X0093000Y0172799D03*
X0083902Y0172799D03*
D17*
X0093000Y0197201D03*
X0129000Y0197201D03*
X0165000Y0197201D03*
D18*
X0202000Y0152000D03*
X0202000Y0142000D03*
X0202000Y0132000D03*
X0202000Y0122000D03*
X0202000Y0112000D03*
X0212000Y0112000D03*
X0212000Y0122000D03*
X0212000Y0132000D03*
X0212000Y0142000D03*
X0212000Y0152000D03*
D19*
X0212000Y0122000D02*
X0212000Y0112000D01*
X0193850Y0093850D01*
X0153500Y0134200D01*
X0153500Y0150100D01*
X0163100Y0159700D01*
X0164900Y0159700D01*
X0165622Y0160000D01*
X0165500Y0160000D01*
X0165500Y0163000D01*
X0156200Y0172300D01*
X0155902Y0172799D01*
X0155900Y0172900D01*
X0149900Y0178900D01*
X0135200Y0178900D01*
X0134000Y0177700D01*
X0134000Y0168700D01*
X0131900Y0166600D01*
X0126200Y0166600D01*
X0120200Y0172600D01*
X0119902Y0172799D01*
X0129000Y0172799D02*
X0129200Y0172900D01*
X0129200Y0178900D01*
X0099200Y0178900D01*
X0097700Y0177400D01*
X0097700Y0160900D01*
X0091400Y0154600D01*
X0088100Y0154600D01*
X0070700Y0137200D01*
X0031100Y0137200D01*
X0031000Y0137000D01*
X0023300Y0135100D02*
X0030800Y0127600D01*
X0030800Y0127000D01*
X0031000Y0127000D01*
X0023300Y0135100D02*
X0023300Y0183100D01*
X0033800Y0193600D01*
X0070100Y0193600D01*
X0070400Y0193300D01*
X0075200Y0193300D01*
X0085100Y0203200D01*
X0158600Y0203200D01*
X0164300Y0197500D01*
X0165000Y0197201D01*
X0165200Y0197200D01*
X0165200Y0172900D01*
X0165000Y0172799D01*
X0129200Y0178900D02*
X0129200Y0197200D01*
X0129000Y0197201D01*
X0093200Y0197200D02*
X0093200Y0172900D01*
X0093000Y0172799D01*
X0092600Y0172300D01*
X0086900Y0166600D01*
X0083600Y0166600D01*
X0064100Y0147100D01*
X0031100Y0147100D01*
X0031000Y0147000D01*
X0051200Y0172900D02*
X0036200Y0187900D01*
X0036102Y0188000D01*
X0051200Y0172900D02*
X0083900Y0172900D01*
X0083902Y0172799D01*
X0093000Y0197201D02*
X0093200Y0197200D01*
X0132800Y0092200D02*
X0132800Y0075100D01*
X0116600Y0075100D01*
X0132800Y0075100D02*
X0155300Y0075100D01*
X0158900Y0071500D01*
X0159500Y0071200D01*
X0171200Y0071200D01*
X0193850Y0093850D01*
D20*
X0206600Y0076000D03*
X0184400Y0060100D03*
X0194600Y0046900D03*
X0198500Y0038500D03*
X0192200Y0025300D03*
X0173300Y0044200D03*
X0149900Y0059200D03*
X0148400Y0065200D03*
X0144800Y0067300D03*
X0135800Y0062500D03*
X0131300Y0067000D03*
X0116600Y0075100D03*
X0108500Y0061600D03*
X0108800Y0043900D03*
X0101600Y0036700D03*
X0103700Y0033100D03*
X0127700Y0034600D03*
X0127700Y0045400D03*
X0134300Y0021100D03*
X0155000Y0066700D03*
X0159500Y0071200D03*
X0148400Y0092800D03*
X0162200Y0100900D03*
X0173600Y0118300D03*
X0132800Y0092200D03*
X0098600Y0091900D03*
X0082100Y0087700D03*
X0072800Y0091900D03*
D21*
X0084000Y0093900D02*
X0084000Y0109000D01*
X0077000Y0116000D01*
X0021000Y0116000D01*
X0021000Y0134251D01*
X0021223Y0133712D01*
X0021912Y0133023D01*
X0021912Y0133023D01*
X0024644Y0130291D01*
X0024016Y0129662D01*
X0023300Y0127935D01*
X0023300Y0126065D01*
X0024016Y0124338D01*
X0025338Y0123016D01*
X0027065Y0122300D01*
X0034935Y0122300D01*
X0036662Y0123016D01*
X0037984Y0124338D01*
X0038700Y0126065D01*
X0038700Y0127935D01*
X0037984Y0129662D01*
X0036662Y0130984D01*
X0034935Y0131700D01*
X0030165Y0131700D01*
X0029565Y0132300D01*
X0034935Y0132300D01*
X0036662Y0133016D01*
X0037984Y0134338D01*
X0038155Y0134750D01*
X0071187Y0134750D01*
X0072088Y0135123D01*
X0083552Y0146587D01*
X0083552Y0141747D01*
X0084548Y0140751D01*
X0091021Y0140751D01*
X0139800Y0091972D01*
X0139800Y0091972D01*
X0140972Y0090800D01*
X0146299Y0090800D01*
X0146757Y0090341D01*
X0147823Y0089900D01*
X0148977Y0089900D01*
X0150043Y0090341D01*
X0150858Y0091157D01*
X0151300Y0092223D01*
X0151300Y0093377D01*
X0150858Y0094443D01*
X0150043Y0095258D01*
X0148977Y0095700D01*
X0147823Y0095700D01*
X0146757Y0095258D01*
X0146299Y0094800D01*
X0142628Y0094800D01*
X0096678Y0140751D01*
X0103452Y0140751D01*
X0104448Y0141747D01*
X0104448Y0150253D01*
X0103452Y0151249D01*
X0101800Y0151249D01*
X0101800Y0166700D01*
X0105202Y0166700D01*
X0106198Y0167695D01*
X0106198Y0176450D01*
X0116002Y0176450D01*
X0116002Y0173299D01*
X0119402Y0173299D01*
X0119402Y0172299D01*
X0120402Y0172299D01*
X0120402Y0173299D01*
X0123801Y0173299D01*
X0123801Y0176450D01*
X0124900Y0176450D01*
X0124900Y0167695D01*
X0125896Y0166700D01*
X0132104Y0166700D01*
X0132600Y0167196D01*
X0132600Y0151249D01*
X0130745Y0151249D01*
X0129749Y0150253D01*
X0129749Y0142480D01*
X0128251Y0143977D01*
X0128251Y0150253D01*
X0127255Y0151249D01*
X0119548Y0151249D01*
X0118552Y0150253D01*
X0118552Y0141747D01*
X0119548Y0140751D01*
X0125821Y0140751D01*
X0160200Y0106372D01*
X0160200Y0103001D01*
X0159741Y0102543D01*
X0159300Y0101477D01*
X0159300Y0100323D01*
X0159741Y0099257D01*
X0160557Y0098441D01*
X0161623Y0098000D01*
X0162777Y0098000D01*
X0163843Y0098441D01*
X0164658Y0099257D01*
X0165100Y0100323D01*
X0165100Y0101477D01*
X0164658Y0102543D01*
X0164200Y0103001D01*
X0164200Y0108028D01*
X0131478Y0140751D01*
X0138452Y0140751D01*
X0139448Y0141747D01*
X0139448Y0150253D01*
X0138452Y0151249D01*
X0136600Y0151249D01*
X0136600Y0165772D01*
X0137528Y0166700D01*
X0141202Y0166700D01*
X0142198Y0167695D01*
X0142198Y0177903D01*
X0141202Y0178899D01*
X0134995Y0178899D01*
X0133999Y0177903D01*
X0133999Y0168827D01*
X0133100Y0167928D01*
X0133100Y0177903D01*
X0132104Y0178899D01*
X0131650Y0178899D01*
X0131650Y0191170D01*
X0136791Y0191170D01*
X0137787Y0192166D01*
X0137787Y0200750D01*
X0156213Y0200750D01*
X0156213Y0192166D01*
X0157209Y0191170D01*
X0162750Y0191170D01*
X0162750Y0178899D01*
X0161896Y0178899D01*
X0160900Y0177903D01*
X0160900Y0167695D01*
X0161896Y0166700D01*
X0168104Y0166700D01*
X0169100Y0167695D01*
X0169100Y0177903D01*
X0168104Y0178899D01*
X0167650Y0178899D01*
X0167650Y0191170D01*
X0172791Y0191170D01*
X0173787Y0192166D01*
X0173787Y0202236D01*
X0172791Y0203231D01*
X0162033Y0203231D01*
X0159988Y0205277D01*
X0159087Y0205650D01*
X0084613Y0205650D01*
X0083712Y0205277D01*
X0083023Y0204588D01*
X0077637Y0199202D01*
X0077637Y0200121D01*
X0076779Y0202193D01*
X0075193Y0203779D01*
X0073121Y0204637D01*
X0070879Y0204637D01*
X0068807Y0203779D01*
X0067221Y0202193D01*
X0066363Y0200121D01*
X0066363Y0197879D01*
X0067120Y0196050D01*
X0033313Y0196050D01*
X0032412Y0195677D01*
X0031723Y0194988D01*
X0031723Y0194988D01*
X0021223Y0184488D01*
X0021000Y0183949D01*
X0021000Y0206000D01*
X0225000Y0206000D01*
X0225000Y0007000D01*
X0219972Y0007000D01*
X0220779Y0007807D01*
X0221637Y0009879D01*
X0221637Y0012121D01*
X0220779Y0014193D01*
X0219193Y0015779D01*
X0217121Y0016637D01*
X0214879Y0016637D01*
X0212807Y0015779D01*
X0211221Y0014193D01*
X0210363Y0012121D01*
X0210363Y0009879D01*
X0211221Y0007807D01*
X0212028Y0007000D01*
X0099000Y0007000D01*
X0084000Y0022000D01*
X0084000Y0082972D01*
X0096272Y0070700D01*
X0127772Y0070700D01*
X0129335Y0069136D01*
X0129199Y0069000D01*
X0113072Y0069000D01*
X0108572Y0064500D01*
X0107923Y0064500D01*
X0106857Y0064058D01*
X0106041Y0063243D01*
X0105600Y0062177D01*
X0105600Y0061528D01*
X0097500Y0053428D01*
X0097500Y0033472D01*
X0098672Y0032300D01*
X0113972Y0017000D01*
X0136028Y0017000D01*
X0137200Y0018172D01*
X0142328Y0023300D01*
X0190099Y0023300D01*
X0190557Y0022841D01*
X0191623Y0022400D01*
X0192777Y0022400D01*
X0193843Y0022841D01*
X0194658Y0023657D01*
X0195100Y0024723D01*
X0195100Y0025877D01*
X0194658Y0026943D01*
X0193843Y0027758D01*
X0192777Y0028200D01*
X0191623Y0028200D01*
X0190557Y0027758D01*
X0190099Y0027300D01*
X0143328Y0027300D01*
X0190028Y0074000D01*
X0204499Y0074000D01*
X0204957Y0073541D01*
X0206023Y0073100D01*
X0207177Y0073100D01*
X0208243Y0073541D01*
X0209058Y0074357D01*
X0209500Y0075423D01*
X0209500Y0076577D01*
X0209058Y0077643D01*
X0208243Y0078458D01*
X0207177Y0078900D01*
X0206023Y0078900D01*
X0204957Y0078458D01*
X0204499Y0078000D01*
X0191328Y0078000D01*
X0220028Y0106700D01*
X0221200Y0107872D01*
X0221200Y0135628D01*
X0216961Y0139867D01*
X0217400Y0140926D01*
X0217400Y0143074D01*
X0216578Y0145059D01*
X0215059Y0146578D01*
X0214040Y0147000D01*
X0215059Y0147422D01*
X0216578Y0148941D01*
X0217400Y0150926D01*
X0217400Y0153074D01*
X0216578Y0155059D01*
X0215059Y0156578D01*
X0213074Y0157400D01*
X0210926Y0157400D01*
X0208941Y0156578D01*
X0207422Y0155059D01*
X0207000Y0154040D01*
X0206578Y0155059D01*
X0205059Y0156578D01*
X0203074Y0157400D01*
X0200926Y0157400D01*
X0198941Y0156578D01*
X0197422Y0155059D01*
X0196942Y0153900D01*
X0182372Y0153900D01*
X0174448Y0145976D01*
X0174448Y0150253D01*
X0173452Y0151249D01*
X0166478Y0151249D01*
X0168128Y0152900D01*
X0168428Y0152900D01*
X0174728Y0159200D01*
X0175900Y0160372D01*
X0175900Y0166700D01*
X0177202Y0166700D01*
X0178198Y0167695D01*
X0178198Y0177903D01*
X0177202Y0178899D01*
X0170995Y0178899D01*
X0169999Y0177903D01*
X0169999Y0167695D01*
X0170995Y0166700D01*
X0171900Y0166700D01*
X0171900Y0162028D01*
X0170922Y0161050D01*
X0170922Y0162195D01*
X0167817Y0165300D01*
X0166008Y0165300D01*
X0166008Y0160386D01*
X0165236Y0160386D01*
X0165236Y0159614D01*
X0160322Y0159614D01*
X0160322Y0157805D01*
X0163427Y0154700D01*
X0164272Y0154700D01*
X0160821Y0151249D01*
X0154548Y0151249D01*
X0153552Y0150253D01*
X0153552Y0141747D01*
X0154548Y0140751D01*
X0162255Y0140751D01*
X0163251Y0141747D01*
X0163251Y0148023D01*
X0164749Y0149520D01*
X0164749Y0141747D01*
X0165745Y0140751D01*
X0171600Y0140751D01*
X0171600Y0120401D01*
X0171141Y0119943D01*
X0170700Y0118877D01*
X0170700Y0117723D01*
X0171141Y0116657D01*
X0171957Y0115841D01*
X0173023Y0115400D01*
X0174177Y0115400D01*
X0175243Y0115841D01*
X0176058Y0116657D01*
X0176500Y0117723D01*
X0176500Y0118877D01*
X0176058Y0119943D01*
X0175600Y0120401D01*
X0175600Y0141472D01*
X0184028Y0149900D01*
X0197025Y0149900D01*
X0197422Y0148941D01*
X0198941Y0147422D01*
X0199960Y0147000D01*
X0198941Y0146578D01*
X0197422Y0145059D01*
X0196600Y0143074D01*
X0196600Y0140926D01*
X0197422Y0138941D01*
X0198941Y0137422D01*
X0199960Y0137000D01*
X0198941Y0136578D01*
X0197422Y0135059D01*
X0196600Y0133074D01*
X0196600Y0130926D01*
X0197422Y0128941D01*
X0198941Y0127422D01*
X0199960Y0127000D01*
X0198941Y0126578D01*
X0197422Y0125059D01*
X0196600Y0123074D01*
X0196600Y0120926D01*
X0197422Y0118941D01*
X0198941Y0117422D01*
X0199960Y0117000D01*
X0198941Y0116578D01*
X0197422Y0115059D01*
X0196600Y0113074D01*
X0196600Y0110926D01*
X0197422Y0108941D01*
X0198941Y0107422D01*
X0200926Y0106600D01*
X0203074Y0106600D01*
X0205059Y0107422D01*
X0206578Y0108941D01*
X0207109Y0110224D01*
X0207181Y0110004D01*
X0207553Y0109275D01*
X0208034Y0108612D01*
X0208612Y0108034D01*
X0209275Y0107553D01*
X0210004Y0107181D01*
X0210782Y0106928D01*
X0210970Y0106898D01*
X0174872Y0070800D01*
X0153272Y0070800D01*
X0152100Y0069628D01*
X0151772Y0069300D01*
X0146901Y0069300D01*
X0146443Y0069758D01*
X0145377Y0070200D01*
X0144223Y0070200D01*
X0143157Y0069758D01*
X0142341Y0068943D01*
X0141900Y0067877D01*
X0141900Y0067200D01*
X0136928Y0067200D01*
X0130600Y0073528D01*
X0129428Y0074700D01*
X0097928Y0074700D01*
X0085000Y0087628D01*
X0085000Y0088277D01*
X0084558Y0089343D01*
X0084001Y0089900D01*
X0096499Y0089900D01*
X0096957Y0089441D01*
X0098023Y0089000D01*
X0099177Y0089000D01*
X0100243Y0089441D01*
X0101058Y0090257D01*
X0101500Y0091323D01*
X0101500Y0092477D01*
X0101058Y0093543D01*
X0100243Y0094358D01*
X0099177Y0094800D01*
X0098023Y0094800D01*
X0096957Y0094358D01*
X0096499Y0093900D01*
X0084000Y0093900D01*
X0084000Y0094865D02*
X0136907Y0094865D01*
X0135909Y0095863D02*
X0084000Y0095863D01*
X0084000Y0096862D02*
X0134910Y0096862D01*
X0133912Y0097860D02*
X0084000Y0097860D01*
X0084000Y0098859D02*
X0132913Y0098859D01*
X0131914Y0099857D02*
X0084000Y0099857D01*
X0084000Y0100856D02*
X0130916Y0100856D01*
X0129917Y0101854D02*
X0084000Y0101854D01*
X0084000Y0102853D02*
X0128919Y0102853D01*
X0127920Y0103851D02*
X0084000Y0103851D01*
X0084000Y0104850D02*
X0126922Y0104850D01*
X0125923Y0105848D02*
X0084000Y0105848D01*
X0084000Y0106847D02*
X0124925Y0106847D01*
X0123926Y0107845D02*
X0084000Y0107845D01*
X0084000Y0108844D02*
X0122928Y0108844D01*
X0121929Y0109842D02*
X0083158Y0109842D01*
X0082159Y0110841D02*
X0120931Y0110841D01*
X0119932Y0111839D02*
X0081161Y0111839D01*
X0080162Y0112838D02*
X0118934Y0112838D01*
X0117935Y0113836D02*
X0079164Y0113836D01*
X0078165Y0114835D02*
X0116937Y0114835D01*
X0115938Y0115833D02*
X0077167Y0115833D01*
X0071320Y0134805D02*
X0096967Y0134805D01*
X0097965Y0133806D02*
X0037453Y0133806D01*
X0036161Y0132808D02*
X0098964Y0132808D01*
X0099962Y0131809D02*
X0030055Y0131809D01*
X0024124Y0130811D02*
X0021000Y0130811D01*
X0021000Y0131809D02*
X0023126Y0131809D01*
X0022127Y0132808D02*
X0021000Y0132808D01*
X0021000Y0133806D02*
X0021184Y0133806D01*
X0021000Y0129812D02*
X0024166Y0129812D01*
X0023664Y0128814D02*
X0021000Y0128814D01*
X0021000Y0127815D02*
X0023300Y0127815D01*
X0023300Y0126817D02*
X0021000Y0126817D01*
X0021000Y0125818D02*
X0023402Y0125818D01*
X0023816Y0124820D02*
X0021000Y0124820D01*
X0021000Y0123821D02*
X0024532Y0123821D01*
X0025803Y0122823D02*
X0021000Y0122823D01*
X0021000Y0121824D02*
X0109947Y0121824D01*
X0110946Y0120826D02*
X0021000Y0120826D01*
X0021000Y0119827D02*
X0111944Y0119827D01*
X0112943Y0118829D02*
X0021000Y0118829D01*
X0021000Y0117830D02*
X0113941Y0117830D01*
X0114940Y0116832D02*
X0021000Y0116832D01*
X0036197Y0122823D02*
X0108949Y0122823D01*
X0107950Y0123821D02*
X0037468Y0123821D01*
X0038184Y0124820D02*
X0106952Y0124820D01*
X0105953Y0125818D02*
X0038598Y0125818D01*
X0038700Y0126817D02*
X0104955Y0126817D01*
X0103956Y0127815D02*
X0038700Y0127815D01*
X0038336Y0128814D02*
X0102958Y0128814D01*
X0101959Y0129812D02*
X0037834Y0129812D01*
X0036836Y0130811D02*
X0100961Y0130811D01*
X0103622Y0133806D02*
X0132765Y0133806D01*
X0133764Y0132808D02*
X0104620Y0132808D01*
X0105619Y0131809D02*
X0134762Y0131809D01*
X0135761Y0130811D02*
X0106617Y0130811D01*
X0107616Y0129812D02*
X0136759Y0129812D01*
X0137758Y0128814D02*
X0108614Y0128814D01*
X0109613Y0127815D02*
X0138756Y0127815D01*
X0139755Y0126817D02*
X0110612Y0126817D01*
X0111610Y0125818D02*
X0140753Y0125818D01*
X0141752Y0124820D02*
X0112609Y0124820D01*
X0113607Y0123821D02*
X0142750Y0123821D01*
X0143749Y0122823D02*
X0114606Y0122823D01*
X0115604Y0121824D02*
X0144747Y0121824D01*
X0145746Y0120826D02*
X0116603Y0120826D01*
X0117601Y0119827D02*
X0146744Y0119827D01*
X0147743Y0118829D02*
X0118600Y0118829D01*
X0119598Y0117830D02*
X0148741Y0117830D01*
X0149740Y0116832D02*
X0120597Y0116832D01*
X0121595Y0115833D02*
X0150738Y0115833D01*
X0151737Y0114835D02*
X0122594Y0114835D01*
X0123592Y0113836D02*
X0152735Y0113836D01*
X0153734Y0112838D02*
X0124591Y0112838D01*
X0125589Y0111839D02*
X0154732Y0111839D01*
X0155731Y0110841D02*
X0126588Y0110841D01*
X0127586Y0109842D02*
X0156729Y0109842D01*
X0157728Y0108844D02*
X0128585Y0108844D01*
X0129583Y0107845D02*
X0158726Y0107845D01*
X0159725Y0106847D02*
X0130582Y0106847D01*
X0131580Y0105848D02*
X0160200Y0105848D01*
X0160200Y0104850D02*
X0132579Y0104850D01*
X0133577Y0103851D02*
X0160200Y0103851D01*
X0160051Y0102853D02*
X0134576Y0102853D01*
X0135574Y0101854D02*
X0159456Y0101854D01*
X0159300Y0100856D02*
X0136573Y0100856D01*
X0137571Y0099857D02*
X0159493Y0099857D01*
X0160140Y0098859D02*
X0138570Y0098859D01*
X0139568Y0097860D02*
X0201932Y0097860D01*
X0202930Y0098859D02*
X0164260Y0098859D01*
X0164907Y0099857D02*
X0203929Y0099857D01*
X0204927Y0100856D02*
X0165100Y0100856D01*
X0164944Y0101854D02*
X0205926Y0101854D01*
X0206924Y0102853D02*
X0164349Y0102853D01*
X0164200Y0103851D02*
X0207923Y0103851D01*
X0208921Y0104850D02*
X0164200Y0104850D01*
X0164200Y0105848D02*
X0209920Y0105848D01*
X0210918Y0106847D02*
X0203670Y0106847D01*
X0205482Y0107845D02*
X0208872Y0107845D01*
X0207866Y0108844D02*
X0206480Y0108844D01*
X0206951Y0109842D02*
X0207263Y0109842D01*
X0211500Y0112500D02*
X0211500Y0117186D01*
X0211500Y0121500D01*
X0212500Y0121500D01*
X0212500Y0112500D01*
X0211500Y0112500D01*
X0211500Y0112838D02*
X0212500Y0112838D01*
X0212500Y0113836D02*
X0211500Y0113836D01*
X0211500Y0114835D02*
X0212500Y0114835D01*
X0212500Y0115833D02*
X0211500Y0115833D01*
X0211500Y0116832D02*
X0212500Y0116832D01*
X0212500Y0117830D02*
X0211500Y0117830D01*
X0211500Y0118829D02*
X0212500Y0118829D01*
X0212500Y0119827D02*
X0211500Y0119827D01*
X0211500Y0120826D02*
X0212500Y0120826D01*
X0221200Y0120826D02*
X0225000Y0120826D01*
X0225000Y0121824D02*
X0221200Y0121824D01*
X0221200Y0122823D02*
X0225000Y0122823D01*
X0225000Y0123821D02*
X0221200Y0123821D01*
X0221200Y0124820D02*
X0225000Y0124820D01*
X0225000Y0125818D02*
X0221200Y0125818D01*
X0221200Y0126817D02*
X0225000Y0126817D01*
X0225000Y0127815D02*
X0221200Y0127815D01*
X0221200Y0128814D02*
X0225000Y0128814D01*
X0225000Y0129812D02*
X0221200Y0129812D01*
X0221200Y0130811D02*
X0225000Y0130811D01*
X0225000Y0131809D02*
X0221200Y0131809D01*
X0221200Y0132808D02*
X0225000Y0132808D01*
X0225000Y0133806D02*
X0221200Y0133806D01*
X0221200Y0134805D02*
X0225000Y0134805D01*
X0225000Y0135803D02*
X0221025Y0135803D01*
X0220026Y0136802D02*
X0225000Y0136802D01*
X0225000Y0137801D02*
X0219028Y0137801D01*
X0218029Y0138799D02*
X0225000Y0138799D01*
X0225000Y0139798D02*
X0217031Y0139798D01*
X0217346Y0140796D02*
X0225000Y0140796D01*
X0225000Y0141795D02*
X0217400Y0141795D01*
X0217400Y0142793D02*
X0225000Y0142793D01*
X0225000Y0143792D02*
X0217103Y0143792D01*
X0216689Y0144790D02*
X0225000Y0144790D01*
X0225000Y0145789D02*
X0215848Y0145789D01*
X0214554Y0146787D02*
X0225000Y0146787D01*
X0225000Y0147786D02*
X0215422Y0147786D01*
X0216421Y0148784D02*
X0225000Y0148784D01*
X0225000Y0149783D02*
X0216926Y0149783D01*
X0217340Y0150781D02*
X0225000Y0150781D01*
X0225000Y0151780D02*
X0217400Y0151780D01*
X0217400Y0152778D02*
X0225000Y0152778D01*
X0225000Y0153777D02*
X0217109Y0153777D01*
X0216695Y0154775D02*
X0225000Y0154775D01*
X0225000Y0155774D02*
X0215863Y0155774D01*
X0214590Y0156772D02*
X0225000Y0156772D01*
X0225000Y0157771D02*
X0173299Y0157771D01*
X0174298Y0158769D02*
X0225000Y0158769D01*
X0225000Y0159768D02*
X0175296Y0159768D01*
X0175900Y0160766D02*
X0225000Y0160766D01*
X0225000Y0161765D02*
X0175900Y0161765D01*
X0175900Y0162763D02*
X0225000Y0162763D01*
X0225000Y0163762D02*
X0175900Y0163762D01*
X0175900Y0164760D02*
X0225000Y0164760D01*
X0225000Y0165759D02*
X0175900Y0165759D01*
X0177260Y0166757D02*
X0225000Y0166757D01*
X0225000Y0167756D02*
X0178198Y0167756D01*
X0178198Y0168754D02*
X0225000Y0168754D01*
X0225000Y0169753D02*
X0178198Y0169753D01*
X0178198Y0170751D02*
X0225000Y0170751D01*
X0225000Y0171750D02*
X0178198Y0171750D01*
X0178198Y0172748D02*
X0225000Y0172748D01*
X0225000Y0173747D02*
X0178198Y0173747D01*
X0178198Y0174745D02*
X0225000Y0174745D01*
X0225000Y0175744D02*
X0178198Y0175744D01*
X0178198Y0176742D02*
X0225000Y0176742D01*
X0225000Y0177741D02*
X0178198Y0177741D01*
X0177362Y0178739D02*
X0225000Y0178739D01*
X0225000Y0179738D02*
X0167650Y0179738D01*
X0167650Y0180737D02*
X0225000Y0180737D01*
X0225000Y0181735D02*
X0167650Y0181735D01*
X0167650Y0182734D02*
X0225000Y0182734D01*
X0225000Y0183732D02*
X0167650Y0183732D01*
X0167650Y0184731D02*
X0225000Y0184731D01*
X0225000Y0185729D02*
X0167650Y0185729D01*
X0167650Y0186728D02*
X0225000Y0186728D01*
X0225000Y0187726D02*
X0167650Y0187726D01*
X0167650Y0188725D02*
X0225000Y0188725D01*
X0225000Y0189723D02*
X0167650Y0189723D01*
X0167650Y0190722D02*
X0225000Y0190722D01*
X0225000Y0191720D02*
X0173341Y0191720D01*
X0173787Y0192719D02*
X0225000Y0192719D01*
X0225000Y0193717D02*
X0217976Y0193717D01*
X0217121Y0193363D02*
X0219193Y0194221D01*
X0220779Y0195807D01*
X0221637Y0197879D01*
X0221637Y0200121D01*
X0220779Y0202193D01*
X0219193Y0203779D01*
X0217121Y0204637D01*
X0214879Y0204637D01*
X0212807Y0203779D01*
X0211221Y0202193D01*
X0210363Y0200121D01*
X0210363Y0197879D01*
X0211221Y0195807D01*
X0212807Y0194221D01*
X0214879Y0193363D01*
X0217121Y0193363D01*
X0219688Y0194716D02*
X0225000Y0194716D01*
X0225000Y0195714D02*
X0220686Y0195714D01*
X0221154Y0196713D02*
X0225000Y0196713D01*
X0225000Y0197711D02*
X0221568Y0197711D01*
X0221637Y0198710D02*
X0225000Y0198710D01*
X0225000Y0199708D02*
X0221637Y0199708D01*
X0221395Y0200707D02*
X0225000Y0200707D01*
X0225000Y0201705D02*
X0220981Y0201705D01*
X0220268Y0202704D02*
X0225000Y0202704D01*
X0225000Y0203702D02*
X0219270Y0203702D01*
X0225000Y0204701D02*
X0160564Y0204701D01*
X0161563Y0203702D02*
X0212730Y0203702D01*
X0211732Y0202704D02*
X0173319Y0202704D01*
X0173787Y0201705D02*
X0211019Y0201705D01*
X0210605Y0200707D02*
X0173787Y0200707D01*
X0173787Y0199708D02*
X0210363Y0199708D01*
X0210363Y0198710D02*
X0173787Y0198710D01*
X0173787Y0197711D02*
X0210432Y0197711D01*
X0210846Y0196713D02*
X0173787Y0196713D01*
X0173787Y0195714D02*
X0211314Y0195714D01*
X0212312Y0194716D02*
X0173787Y0194716D01*
X0173787Y0193717D02*
X0214024Y0193717D01*
X0225000Y0205699D02*
X0021000Y0205699D01*
X0021000Y0204701D02*
X0083136Y0204701D01*
X0082137Y0203702D02*
X0075270Y0203702D01*
X0076268Y0202704D02*
X0081139Y0202704D01*
X0080140Y0201705D02*
X0076981Y0201705D01*
X0077395Y0200707D02*
X0079142Y0200707D01*
X0078143Y0199708D02*
X0077637Y0199708D01*
X0082077Y0196713D02*
X0084213Y0196713D01*
X0084213Y0197711D02*
X0083076Y0197711D01*
X0084075Y0198710D02*
X0084213Y0198710D01*
X0084213Y0198849D02*
X0084213Y0192166D01*
X0085209Y0191170D01*
X0090750Y0191170D01*
X0090750Y0178899D01*
X0089896Y0178899D01*
X0088900Y0177903D01*
X0088900Y0172065D01*
X0087801Y0170966D01*
X0087801Y0172299D01*
X0084402Y0172299D01*
X0084402Y0173299D01*
X0087801Y0173299D01*
X0087801Y0177396D01*
X0087699Y0177778D01*
X0087501Y0178120D01*
X0087222Y0178399D01*
X0086880Y0178597D01*
X0086499Y0178699D01*
X0084402Y0178699D01*
X0084402Y0173299D01*
X0083402Y0173299D01*
X0083402Y0178699D01*
X0081304Y0178699D01*
X0080923Y0178597D01*
X0080581Y0178399D01*
X0080302Y0178120D01*
X0080104Y0177778D01*
X0080002Y0177396D01*
X0080002Y0173299D01*
X0083402Y0173299D01*
X0083402Y0172299D01*
X0080002Y0172299D01*
X0080002Y0168202D01*
X0080104Y0167821D01*
X0080302Y0167479D01*
X0080581Y0167199D01*
X0080678Y0167143D01*
X0063085Y0149550D01*
X0038031Y0149550D01*
X0037984Y0149662D01*
X0036662Y0150984D01*
X0034935Y0151700D01*
X0027065Y0151700D01*
X0025750Y0151155D01*
X0025750Y0152845D01*
X0027065Y0152300D01*
X0034935Y0152300D01*
X0036662Y0153016D01*
X0037984Y0154338D01*
X0038700Y0156065D01*
X0038700Y0157935D01*
X0037984Y0159662D01*
X0036662Y0160984D01*
X0034935Y0161700D01*
X0027065Y0161700D01*
X0025750Y0161155D01*
X0025750Y0182085D01*
X0030830Y0187165D01*
X0030895Y0186750D01*
X0031155Y0185951D01*
X0031536Y0185202D01*
X0032030Y0184522D01*
X0032625Y0183928D01*
X0033304Y0183434D01*
X0034053Y0183053D01*
X0034852Y0182793D01*
X0035602Y0182674D01*
X0035602Y0187500D01*
X0036602Y0187500D01*
X0036602Y0182674D01*
X0037352Y0182793D01*
X0038152Y0183053D01*
X0038900Y0183434D01*
X0039580Y0183928D01*
X0040174Y0184522D01*
X0040668Y0185202D01*
X0041050Y0185951D01*
X0041309Y0186750D01*
X0041428Y0187500D01*
X0036602Y0187500D01*
X0036602Y0188500D01*
X0041428Y0188500D01*
X0041309Y0189250D01*
X0041050Y0190049D01*
X0040668Y0190798D01*
X0040413Y0191150D01*
X0054254Y0191150D01*
X0054242Y0191137D01*
X0053398Y0189102D01*
X0053398Y0186898D01*
X0054242Y0184863D01*
X0055800Y0183305D01*
X0057835Y0182461D01*
X0060039Y0182461D01*
X0062074Y0183305D01*
X0063632Y0184863D01*
X0064476Y0186898D01*
X0064476Y0189102D01*
X0063632Y0191137D01*
X0063620Y0191150D01*
X0069188Y0191150D01*
X0069913Y0190850D01*
X0075687Y0190850D01*
X0076588Y0191223D01*
X0084213Y0198849D01*
X0084213Y0195714D02*
X0081079Y0195714D01*
X0080080Y0194716D02*
X0084213Y0194716D01*
X0084213Y0193717D02*
X0079082Y0193717D01*
X0078083Y0192719D02*
X0084213Y0192719D01*
X0084659Y0191720D02*
X0077085Y0191720D01*
X0066846Y0196713D02*
X0021000Y0196713D01*
X0021000Y0197711D02*
X0066432Y0197711D01*
X0066363Y0198710D02*
X0021000Y0198710D01*
X0021000Y0199708D02*
X0066363Y0199708D01*
X0066605Y0200707D02*
X0021000Y0200707D01*
X0021000Y0201705D02*
X0067019Y0201705D01*
X0067732Y0202704D02*
X0021000Y0202704D01*
X0021000Y0203702D02*
X0068730Y0203702D01*
X0063805Y0190722D02*
X0090750Y0190722D01*
X0090750Y0189723D02*
X0064218Y0189723D01*
X0064476Y0188725D02*
X0090750Y0188725D01*
X0090750Y0187726D02*
X0064476Y0187726D01*
X0064405Y0186728D02*
X0090750Y0186728D01*
X0090750Y0185729D02*
X0063991Y0185729D01*
X0063500Y0184731D02*
X0090750Y0184731D01*
X0090750Y0183732D02*
X0062502Y0183732D01*
X0060696Y0182734D02*
X0090750Y0182734D01*
X0090750Y0181735D02*
X0025750Y0181735D01*
X0025750Y0180737D02*
X0090750Y0180737D01*
X0090750Y0179738D02*
X0025750Y0179738D01*
X0025750Y0178739D02*
X0089737Y0178739D01*
X0088900Y0177741D02*
X0087709Y0177741D01*
X0087801Y0176742D02*
X0088900Y0176742D01*
X0088900Y0175744D02*
X0087801Y0175744D01*
X0087801Y0174745D02*
X0088900Y0174745D01*
X0088900Y0173747D02*
X0087801Y0173747D01*
X0088900Y0172748D02*
X0084402Y0172748D01*
X0084402Y0173747D02*
X0083402Y0173747D01*
X0083402Y0174745D02*
X0084402Y0174745D01*
X0084402Y0175744D02*
X0083402Y0175744D01*
X0083402Y0176742D02*
X0084402Y0176742D01*
X0084402Y0177741D02*
X0083402Y0177741D01*
X0080094Y0177741D02*
X0025750Y0177741D01*
X0025750Y0176742D02*
X0080002Y0176742D01*
X0080002Y0175744D02*
X0025750Y0175744D01*
X0025750Y0174745D02*
X0080002Y0174745D01*
X0080002Y0173747D02*
X0050314Y0173747D01*
X0050263Y0173798D02*
X0048228Y0174641D01*
X0046024Y0174641D01*
X0043989Y0173798D01*
X0042431Y0172240D01*
X0041587Y0170204D01*
X0041587Y0168001D01*
X0042431Y0165965D01*
X0043989Y0164407D01*
X0046024Y0163564D01*
X0048228Y0163564D01*
X0050263Y0164407D01*
X0051821Y0165965D01*
X0052665Y0168001D01*
X0052665Y0170204D01*
X0051821Y0172240D01*
X0050263Y0173798D01*
X0051313Y0172748D02*
X0083402Y0172748D01*
X0080002Y0171750D02*
X0052024Y0171750D01*
X0052438Y0170751D02*
X0080002Y0170751D01*
X0080002Y0169753D02*
X0052665Y0169753D01*
X0052665Y0168754D02*
X0080002Y0168754D01*
X0080142Y0167756D02*
X0052563Y0167756D01*
X0052150Y0166757D02*
X0080293Y0166757D01*
X0079294Y0165759D02*
X0051615Y0165759D01*
X0050617Y0164760D02*
X0078296Y0164760D01*
X0077297Y0163762D02*
X0048706Y0163762D01*
X0045546Y0163762D02*
X0025750Y0163762D01*
X0025750Y0164760D02*
X0043635Y0164760D01*
X0042637Y0165759D02*
X0025750Y0165759D01*
X0025750Y0166757D02*
X0042102Y0166757D01*
X0041689Y0167756D02*
X0025750Y0167756D01*
X0025750Y0168754D02*
X0041587Y0168754D01*
X0041587Y0169753D02*
X0025750Y0169753D01*
X0025750Y0170751D02*
X0041814Y0170751D01*
X0042228Y0171750D02*
X0025750Y0171750D01*
X0025750Y0172748D02*
X0042939Y0172748D01*
X0043938Y0173747D02*
X0025750Y0173747D01*
X0026398Y0182734D02*
X0035227Y0182734D01*
X0035602Y0182734D02*
X0036602Y0182734D01*
X0036978Y0182734D02*
X0057178Y0182734D01*
X0055372Y0183732D02*
X0039311Y0183732D01*
X0040326Y0184731D02*
X0054374Y0184731D01*
X0053883Y0185729D02*
X0040937Y0185729D01*
X0041302Y0186728D02*
X0053469Y0186728D01*
X0053398Y0187726D02*
X0036602Y0187726D01*
X0036602Y0186728D02*
X0035602Y0186728D01*
X0035602Y0185729D02*
X0036602Y0185729D01*
X0036602Y0184731D02*
X0035602Y0184731D01*
X0035602Y0183732D02*
X0036602Y0183732D01*
X0032894Y0183732D02*
X0027397Y0183732D01*
X0028395Y0184731D02*
X0031879Y0184731D01*
X0031268Y0185729D02*
X0029394Y0185729D01*
X0030392Y0186728D02*
X0030902Y0186728D01*
X0027457Y0190722D02*
X0021000Y0190722D01*
X0021000Y0191720D02*
X0028455Y0191720D01*
X0029454Y0192719D02*
X0021000Y0192719D01*
X0021000Y0193717D02*
X0030452Y0193717D01*
X0031451Y0194716D02*
X0021000Y0194716D01*
X0021000Y0195714D02*
X0032502Y0195714D01*
X0026458Y0189723D02*
X0021000Y0189723D01*
X0021000Y0188725D02*
X0025460Y0188725D01*
X0024461Y0187726D02*
X0021000Y0187726D01*
X0021000Y0186728D02*
X0023463Y0186728D01*
X0022464Y0185729D02*
X0021000Y0185729D01*
X0021000Y0184731D02*
X0021466Y0184731D01*
X0040707Y0190722D02*
X0054069Y0190722D01*
X0053656Y0189723D02*
X0041156Y0189723D01*
X0041393Y0188725D02*
X0053398Y0188725D01*
X0076298Y0162763D02*
X0025750Y0162763D01*
X0025750Y0161765D02*
X0075300Y0161765D01*
X0074301Y0160766D02*
X0036881Y0160766D01*
X0037879Y0159768D02*
X0073303Y0159768D01*
X0072304Y0158769D02*
X0038354Y0158769D01*
X0038700Y0157771D02*
X0071306Y0157771D01*
X0070307Y0156772D02*
X0038700Y0156772D01*
X0038579Y0155774D02*
X0069309Y0155774D01*
X0068310Y0154775D02*
X0038166Y0154775D01*
X0037423Y0153777D02*
X0067312Y0153777D01*
X0066313Y0152778D02*
X0036089Y0152778D01*
X0036866Y0150781D02*
X0064316Y0150781D01*
X0063318Y0149783D02*
X0037864Y0149783D01*
X0025911Y0152778D02*
X0025750Y0152778D01*
X0025750Y0151780D02*
X0065315Y0151780D01*
X0076762Y0139798D02*
X0091974Y0139798D01*
X0092973Y0138799D02*
X0075764Y0138799D01*
X0074765Y0137801D02*
X0093971Y0137801D01*
X0094970Y0136802D02*
X0073767Y0136802D01*
X0072768Y0135803D02*
X0095968Y0135803D01*
X0098629Y0138799D02*
X0127773Y0138799D01*
X0128771Y0137801D02*
X0099628Y0137801D01*
X0100626Y0136802D02*
X0129770Y0136802D01*
X0130768Y0135803D02*
X0101625Y0135803D01*
X0102623Y0134805D02*
X0131767Y0134805D01*
X0134428Y0137801D02*
X0171600Y0137801D01*
X0171600Y0138799D02*
X0133429Y0138799D01*
X0132431Y0139798D02*
X0171600Y0139798D01*
X0171600Y0136802D02*
X0135426Y0136802D01*
X0136425Y0135803D02*
X0171600Y0135803D01*
X0171600Y0134805D02*
X0137423Y0134805D01*
X0138422Y0133806D02*
X0171600Y0133806D01*
X0171600Y0132808D02*
X0139420Y0132808D01*
X0140419Y0131809D02*
X0171600Y0131809D01*
X0171600Y0130811D02*
X0141417Y0130811D01*
X0142416Y0129812D02*
X0171600Y0129812D01*
X0171600Y0128814D02*
X0143414Y0128814D01*
X0144413Y0127815D02*
X0171600Y0127815D01*
X0171600Y0126817D02*
X0145412Y0126817D01*
X0146410Y0125818D02*
X0171600Y0125818D01*
X0171600Y0124820D02*
X0147409Y0124820D01*
X0148407Y0123821D02*
X0171600Y0123821D01*
X0171600Y0122823D02*
X0149406Y0122823D01*
X0150404Y0121824D02*
X0171600Y0121824D01*
X0171600Y0120826D02*
X0151403Y0120826D01*
X0152401Y0119827D02*
X0171094Y0119827D01*
X0170700Y0118829D02*
X0153400Y0118829D01*
X0154398Y0117830D02*
X0170700Y0117830D01*
X0171069Y0116832D02*
X0155397Y0116832D01*
X0156395Y0115833D02*
X0171977Y0115833D01*
X0175223Y0115833D02*
X0198197Y0115833D01*
X0197329Y0114835D02*
X0157394Y0114835D01*
X0158392Y0113836D02*
X0196916Y0113836D01*
X0196600Y0112838D02*
X0159391Y0112838D01*
X0160389Y0111839D02*
X0196600Y0111839D01*
X0196635Y0110841D02*
X0161388Y0110841D01*
X0162386Y0109842D02*
X0197049Y0109842D01*
X0197520Y0108844D02*
X0163385Y0108844D01*
X0164200Y0107845D02*
X0198518Y0107845D01*
X0200330Y0106847D02*
X0164200Y0106847D01*
X0176131Y0116832D02*
X0199554Y0116832D01*
X0198533Y0117830D02*
X0176500Y0117830D01*
X0176500Y0118829D02*
X0197534Y0118829D01*
X0197055Y0119827D02*
X0176106Y0119827D01*
X0175600Y0120826D02*
X0196641Y0120826D01*
X0196600Y0121824D02*
X0175600Y0121824D01*
X0175600Y0122823D02*
X0196600Y0122823D01*
X0196910Y0123821D02*
X0175600Y0123821D01*
X0175600Y0124820D02*
X0197323Y0124820D01*
X0198182Y0125818D02*
X0175600Y0125818D01*
X0175600Y0126817D02*
X0199518Y0126817D01*
X0198548Y0127815D02*
X0175600Y0127815D01*
X0175600Y0128814D02*
X0197549Y0128814D01*
X0197061Y0129812D02*
X0175600Y0129812D01*
X0175600Y0130811D02*
X0196648Y0130811D01*
X0196600Y0131809D02*
X0175600Y0131809D01*
X0175600Y0132808D02*
X0196600Y0132808D01*
X0196903Y0133806D02*
X0175600Y0133806D01*
X0175600Y0134805D02*
X0197317Y0134805D01*
X0198167Y0135803D02*
X0175600Y0135803D01*
X0175600Y0136802D02*
X0199482Y0136802D01*
X0198563Y0137801D02*
X0175600Y0137801D01*
X0175600Y0138799D02*
X0197564Y0138799D01*
X0197067Y0139798D02*
X0175600Y0139798D01*
X0175600Y0140796D02*
X0196654Y0140796D01*
X0196600Y0141795D02*
X0175923Y0141795D01*
X0176921Y0142793D02*
X0196600Y0142793D01*
X0196897Y0143792D02*
X0177920Y0143792D01*
X0178919Y0144790D02*
X0197311Y0144790D01*
X0198152Y0145789D02*
X0179917Y0145789D01*
X0180916Y0146787D02*
X0199446Y0146787D01*
X0198578Y0147786D02*
X0181914Y0147786D01*
X0182913Y0148784D02*
X0197579Y0148784D01*
X0197074Y0149783D02*
X0183911Y0149783D01*
X0181250Y0152778D02*
X0168007Y0152778D01*
X0167008Y0151780D02*
X0180251Y0151780D01*
X0179253Y0150781D02*
X0173920Y0150781D01*
X0174448Y0149783D02*
X0178254Y0149783D01*
X0177256Y0148784D02*
X0174448Y0148784D01*
X0174448Y0147786D02*
X0176257Y0147786D01*
X0175259Y0146787D02*
X0174448Y0146787D01*
X0169305Y0153777D02*
X0182248Y0153777D01*
X0172301Y0156772D02*
X0199410Y0156772D01*
X0198137Y0155774D02*
X0171302Y0155774D01*
X0170304Y0154775D02*
X0197305Y0154775D01*
X0204590Y0156772D02*
X0209410Y0156772D01*
X0208137Y0155774D02*
X0205863Y0155774D01*
X0206695Y0154775D02*
X0207305Y0154775D01*
X0171900Y0162763D02*
X0170354Y0162763D01*
X0170922Y0161765D02*
X0171636Y0161765D01*
X0171900Y0163762D02*
X0169356Y0163762D01*
X0168357Y0164760D02*
X0171900Y0164760D01*
X0171900Y0165759D02*
X0136600Y0165759D01*
X0136600Y0164760D02*
X0162887Y0164760D01*
X0163427Y0165300D02*
X0160322Y0162195D01*
X0160322Y0160386D01*
X0165236Y0160386D01*
X0165236Y0165300D01*
X0163427Y0165300D01*
X0165236Y0164760D02*
X0166008Y0164760D01*
X0166008Y0163762D02*
X0165236Y0163762D01*
X0165236Y0162763D02*
X0166008Y0162763D01*
X0166008Y0161765D02*
X0165236Y0161765D01*
X0165236Y0160766D02*
X0166008Y0160766D01*
X0165236Y0159768D02*
X0136600Y0159768D01*
X0136600Y0160766D02*
X0160322Y0160766D01*
X0160322Y0161765D02*
X0136600Y0161765D01*
X0136600Y0162763D02*
X0160890Y0162763D01*
X0161889Y0163762D02*
X0136600Y0163762D01*
X0132600Y0163762D02*
X0101800Y0163762D01*
X0101800Y0164760D02*
X0132600Y0164760D01*
X0132600Y0165759D02*
X0101800Y0165759D01*
X0105260Y0166757D02*
X0125838Y0166757D01*
X0124900Y0167756D02*
X0123662Y0167756D01*
X0123699Y0167821D02*
X0123801Y0168202D01*
X0123801Y0172299D01*
X0120402Y0172299D01*
X0120402Y0166900D01*
X0122499Y0166900D01*
X0122880Y0167002D01*
X0123222Y0167199D01*
X0123501Y0167479D01*
X0123699Y0167821D01*
X0123801Y0168754D02*
X0124900Y0168754D01*
X0124900Y0169753D02*
X0123801Y0169753D01*
X0123801Y0170751D02*
X0124900Y0170751D01*
X0124900Y0171750D02*
X0123801Y0171750D01*
X0124900Y0172748D02*
X0120402Y0172748D01*
X0120402Y0171750D02*
X0119402Y0171750D01*
X0119402Y0172299D02*
X0119402Y0166900D01*
X0117304Y0166900D01*
X0116923Y0167002D01*
X0116581Y0167199D01*
X0116302Y0167479D01*
X0116104Y0167821D01*
X0116002Y0168202D01*
X0116002Y0172299D01*
X0119402Y0172299D01*
X0119402Y0172748D02*
X0106198Y0172748D01*
X0106198Y0171750D02*
X0116002Y0171750D01*
X0116002Y0170751D02*
X0106198Y0170751D01*
X0106198Y0169753D02*
X0116002Y0169753D01*
X0116002Y0168754D02*
X0106198Y0168754D01*
X0106198Y0167756D02*
X0116142Y0167756D01*
X0119402Y0167756D02*
X0120402Y0167756D01*
X0120402Y0168754D02*
X0119402Y0168754D01*
X0119402Y0169753D02*
X0120402Y0169753D01*
X0120402Y0170751D02*
X0119402Y0170751D01*
X0116002Y0173747D02*
X0106198Y0173747D01*
X0106198Y0174745D02*
X0116002Y0174745D01*
X0116002Y0175744D02*
X0106198Y0175744D01*
X0101800Y0162763D02*
X0132600Y0162763D01*
X0132600Y0161765D02*
X0101800Y0161765D01*
X0101800Y0160766D02*
X0132600Y0160766D01*
X0132600Y0159768D02*
X0101800Y0159768D01*
X0101800Y0158769D02*
X0132600Y0158769D01*
X0132600Y0157771D02*
X0101800Y0157771D01*
X0101800Y0156772D02*
X0132600Y0156772D01*
X0132600Y0155774D02*
X0101800Y0155774D01*
X0101800Y0154775D02*
X0132600Y0154775D01*
X0132600Y0153777D02*
X0101800Y0153777D01*
X0101800Y0152778D02*
X0132600Y0152778D01*
X0132600Y0151780D02*
X0101800Y0151780D01*
X0103920Y0150781D02*
X0119080Y0150781D01*
X0118552Y0149783D02*
X0104448Y0149783D01*
X0104448Y0148784D02*
X0118552Y0148784D01*
X0118552Y0147786D02*
X0104448Y0147786D01*
X0104448Y0146787D02*
X0118552Y0146787D01*
X0118552Y0145789D02*
X0104448Y0145789D01*
X0104448Y0144790D02*
X0118552Y0144790D01*
X0118552Y0143792D02*
X0104448Y0143792D01*
X0104448Y0142793D02*
X0118552Y0142793D01*
X0118552Y0141795D02*
X0104448Y0141795D01*
X0103497Y0140796D02*
X0119503Y0140796D01*
X0126774Y0139798D02*
X0097631Y0139798D01*
X0084503Y0140796D02*
X0077761Y0140796D01*
X0078759Y0141795D02*
X0083552Y0141795D01*
X0083552Y0142793D02*
X0079758Y0142793D01*
X0080756Y0143792D02*
X0083552Y0143792D01*
X0083552Y0144790D02*
X0081755Y0144790D01*
X0082753Y0145789D02*
X0083552Y0145789D01*
X0087801Y0171750D02*
X0088585Y0171750D01*
X0123801Y0173747D02*
X0124900Y0173747D01*
X0124900Y0174745D02*
X0123801Y0174745D01*
X0123801Y0175744D02*
X0124900Y0175744D01*
X0131650Y0179738D02*
X0162750Y0179738D01*
X0162750Y0180737D02*
X0131650Y0180737D01*
X0131650Y0181735D02*
X0162750Y0181735D01*
X0162750Y0182734D02*
X0131650Y0182734D01*
X0131650Y0183732D02*
X0162750Y0183732D01*
X0162750Y0184731D02*
X0131650Y0184731D01*
X0131650Y0185729D02*
X0162750Y0185729D01*
X0162750Y0186728D02*
X0131650Y0186728D01*
X0131650Y0187726D02*
X0162750Y0187726D01*
X0162750Y0188725D02*
X0131650Y0188725D01*
X0131650Y0189723D02*
X0162750Y0189723D01*
X0162750Y0190722D02*
X0131650Y0190722D01*
X0137341Y0191720D02*
X0156659Y0191720D01*
X0156213Y0192719D02*
X0137787Y0192719D01*
X0137787Y0193717D02*
X0156213Y0193717D01*
X0156213Y0194716D02*
X0137787Y0194716D01*
X0137787Y0195714D02*
X0156213Y0195714D01*
X0156213Y0196713D02*
X0137787Y0196713D01*
X0137787Y0197711D02*
X0156213Y0197711D01*
X0156213Y0198710D02*
X0137787Y0198710D01*
X0137787Y0199708D02*
X0156213Y0199708D01*
X0156213Y0200707D02*
X0137787Y0200707D01*
X0134835Y0178739D02*
X0132263Y0178739D01*
X0133100Y0177741D02*
X0133999Y0177741D01*
X0133999Y0176742D02*
X0133100Y0176742D01*
X0133100Y0175744D02*
X0133999Y0175744D01*
X0133999Y0174745D02*
X0133100Y0174745D01*
X0133100Y0173747D02*
X0133999Y0173747D01*
X0133999Y0172748D02*
X0133100Y0172748D01*
X0133100Y0171750D02*
X0133999Y0171750D01*
X0133999Y0170751D02*
X0133100Y0170751D01*
X0133100Y0169753D02*
X0133999Y0169753D01*
X0133926Y0168754D02*
X0133100Y0168754D01*
X0132600Y0166757D02*
X0132161Y0166757D01*
X0141260Y0166757D02*
X0161838Y0166757D01*
X0160900Y0167756D02*
X0159662Y0167756D01*
X0159699Y0167821D02*
X0159801Y0168202D01*
X0159801Y0172299D01*
X0156402Y0172299D01*
X0156402Y0173299D01*
X0159801Y0173299D01*
X0159801Y0177396D01*
X0159699Y0177778D01*
X0159501Y0178120D01*
X0159222Y0178399D01*
X0158880Y0178597D01*
X0158499Y0178699D01*
X0156402Y0178699D01*
X0156402Y0173299D01*
X0155402Y0173299D01*
X0155402Y0178699D01*
X0153304Y0178699D01*
X0152923Y0178597D01*
X0152581Y0178399D01*
X0152302Y0178120D01*
X0152104Y0177778D01*
X0152002Y0177396D01*
X0152002Y0173299D01*
X0155402Y0173299D01*
X0155402Y0172299D01*
X0156402Y0172299D01*
X0156402Y0166900D01*
X0158499Y0166900D01*
X0158880Y0167002D01*
X0159222Y0167199D01*
X0159501Y0167479D01*
X0159699Y0167821D01*
X0159801Y0168754D02*
X0160900Y0168754D01*
X0160900Y0169753D02*
X0159801Y0169753D01*
X0159801Y0170751D02*
X0160900Y0170751D01*
X0160900Y0171750D02*
X0159801Y0171750D01*
X0160900Y0172748D02*
X0156402Y0172748D01*
X0156402Y0171750D02*
X0155402Y0171750D01*
X0155402Y0172299D02*
X0155402Y0166900D01*
X0153304Y0166900D01*
X0152923Y0167002D01*
X0152581Y0167199D01*
X0152302Y0167479D01*
X0152104Y0167821D01*
X0152002Y0168202D01*
X0152002Y0172299D01*
X0155402Y0172299D01*
X0155402Y0172748D02*
X0142198Y0172748D01*
X0142198Y0171750D02*
X0152002Y0171750D01*
X0152002Y0170751D02*
X0142198Y0170751D01*
X0142198Y0169753D02*
X0152002Y0169753D01*
X0152002Y0168754D02*
X0142198Y0168754D01*
X0142198Y0167756D02*
X0152142Y0167756D01*
X0155402Y0167756D02*
X0156402Y0167756D01*
X0156402Y0168754D02*
X0155402Y0168754D01*
X0155402Y0169753D02*
X0156402Y0169753D01*
X0156402Y0170751D02*
X0155402Y0170751D01*
X0155402Y0173747D02*
X0156402Y0173747D01*
X0156402Y0174745D02*
X0155402Y0174745D01*
X0155402Y0175744D02*
X0156402Y0175744D01*
X0156402Y0176742D02*
X0155402Y0176742D01*
X0155402Y0177741D02*
X0156402Y0177741D01*
X0159709Y0177741D02*
X0160900Y0177741D01*
X0160900Y0176742D02*
X0159801Y0176742D01*
X0159801Y0175744D02*
X0160900Y0175744D01*
X0160900Y0174745D02*
X0159801Y0174745D01*
X0159801Y0173747D02*
X0160900Y0173747D01*
X0161737Y0178739D02*
X0141362Y0178739D01*
X0142198Y0177741D02*
X0152094Y0177741D01*
X0152002Y0176742D02*
X0142198Y0176742D01*
X0142198Y0175744D02*
X0152002Y0175744D01*
X0152002Y0174745D02*
X0142198Y0174745D01*
X0142198Y0173747D02*
X0152002Y0173747D01*
X0168263Y0178739D02*
X0170835Y0178739D01*
X0169999Y0177741D02*
X0169100Y0177741D01*
X0169100Y0176742D02*
X0169999Y0176742D01*
X0169999Y0175744D02*
X0169100Y0175744D01*
X0169100Y0174745D02*
X0169999Y0174745D01*
X0169999Y0173747D02*
X0169100Y0173747D01*
X0169100Y0172748D02*
X0169999Y0172748D01*
X0169999Y0171750D02*
X0169100Y0171750D01*
X0169100Y0170751D02*
X0169999Y0170751D01*
X0169999Y0169753D02*
X0169100Y0169753D01*
X0169100Y0168754D02*
X0169999Y0168754D01*
X0169999Y0167756D02*
X0169100Y0167756D01*
X0168162Y0166757D02*
X0170937Y0166757D01*
X0160322Y0158769D02*
X0136600Y0158769D01*
X0136600Y0157771D02*
X0160356Y0157771D01*
X0161354Y0156772D02*
X0136600Y0156772D01*
X0136600Y0155774D02*
X0162353Y0155774D01*
X0163352Y0154775D02*
X0136600Y0154775D01*
X0136600Y0153777D02*
X0163348Y0153777D01*
X0162350Y0152778D02*
X0136600Y0152778D01*
X0136600Y0151780D02*
X0161351Y0151780D01*
X0164013Y0148784D02*
X0164749Y0148784D01*
X0164749Y0147786D02*
X0163251Y0147786D01*
X0163251Y0146787D02*
X0164749Y0146787D01*
X0164749Y0145789D02*
X0163251Y0145789D01*
X0163251Y0144790D02*
X0164749Y0144790D01*
X0164749Y0143792D02*
X0163251Y0143792D01*
X0163251Y0142793D02*
X0164749Y0142793D01*
X0164749Y0141795D02*
X0163251Y0141795D01*
X0162301Y0140796D02*
X0165699Y0140796D01*
X0154503Y0140796D02*
X0138497Y0140796D01*
X0139448Y0141795D02*
X0153552Y0141795D01*
X0153552Y0142793D02*
X0139448Y0142793D01*
X0139448Y0143792D02*
X0153552Y0143792D01*
X0153552Y0144790D02*
X0139448Y0144790D01*
X0139448Y0145789D02*
X0153552Y0145789D01*
X0153552Y0146787D02*
X0139448Y0146787D01*
X0139448Y0147786D02*
X0153552Y0147786D01*
X0153552Y0148784D02*
X0139448Y0148784D01*
X0139448Y0149783D02*
X0153552Y0149783D01*
X0154080Y0150781D02*
X0138920Y0150781D01*
X0130277Y0150781D02*
X0127723Y0150781D01*
X0128251Y0149783D02*
X0129749Y0149783D01*
X0129749Y0148784D02*
X0128251Y0148784D01*
X0128251Y0147786D02*
X0129749Y0147786D01*
X0129749Y0146787D02*
X0128251Y0146787D01*
X0128251Y0145789D02*
X0129749Y0145789D01*
X0129749Y0144790D02*
X0128251Y0144790D01*
X0128437Y0143792D02*
X0129749Y0143792D01*
X0129749Y0142793D02*
X0129435Y0142793D01*
X0140567Y0096862D02*
X0200933Y0096862D01*
X0199935Y0095863D02*
X0141565Y0095863D01*
X0142564Y0094865D02*
X0146363Y0094865D01*
X0150437Y0094865D02*
X0198936Y0094865D01*
X0197938Y0093866D02*
X0151097Y0093866D01*
X0151300Y0092868D02*
X0196939Y0092868D01*
X0195941Y0091869D02*
X0151153Y0091869D01*
X0150572Y0090870D02*
X0194942Y0090870D01*
X0193944Y0089872D02*
X0100673Y0089872D01*
X0101312Y0090870D02*
X0140901Y0090870D01*
X0139903Y0091869D02*
X0101500Y0091869D01*
X0101338Y0092868D02*
X0138904Y0092868D01*
X0137906Y0093866D02*
X0100735Y0093866D01*
X0096527Y0089872D02*
X0084029Y0089872D01*
X0084753Y0088873D02*
X0192945Y0088873D01*
X0191947Y0087875D02*
X0085000Y0087875D01*
X0085752Y0086876D02*
X0190948Y0086876D01*
X0189950Y0085878D02*
X0086750Y0085878D01*
X0087749Y0084879D02*
X0188951Y0084879D01*
X0187952Y0083881D02*
X0088748Y0083881D01*
X0089746Y0082882D02*
X0186954Y0082882D01*
X0185955Y0081884D02*
X0090745Y0081884D01*
X0091743Y0080885D02*
X0184957Y0080885D01*
X0183958Y0079887D02*
X0092742Y0079887D01*
X0093740Y0078888D02*
X0182960Y0078888D01*
X0181961Y0077890D02*
X0094739Y0077890D01*
X0095737Y0076891D02*
X0180963Y0076891D01*
X0179964Y0075893D02*
X0096736Y0075893D01*
X0097734Y0074894D02*
X0178966Y0074894D01*
X0177967Y0073896D02*
X0130233Y0073896D01*
X0131231Y0072897D02*
X0176969Y0072897D01*
X0175970Y0071899D02*
X0132230Y0071899D01*
X0133228Y0070900D02*
X0174972Y0070900D01*
X0180938Y0064909D02*
X0225000Y0064909D01*
X0225000Y0063911D02*
X0179939Y0063911D01*
X0178941Y0062912D02*
X0183611Y0062912D01*
X0183823Y0063000D02*
X0182757Y0062558D01*
X0181941Y0061743D01*
X0181500Y0060677D01*
X0181500Y0059523D01*
X0181941Y0058457D01*
X0182757Y0057641D01*
X0183823Y0057200D01*
X0184472Y0057200D01*
X0192635Y0049036D01*
X0192141Y0048543D01*
X0191700Y0047477D01*
X0191700Y0046828D01*
X0191072Y0046200D01*
X0175401Y0046200D01*
X0174943Y0046658D01*
X0173877Y0047100D01*
X0172723Y0047100D01*
X0171657Y0046658D01*
X0170841Y0045843D01*
X0170400Y0044777D01*
X0170400Y0043623D01*
X0170841Y0042557D01*
X0171657Y0041741D01*
X0172723Y0041300D01*
X0173877Y0041300D01*
X0174943Y0041741D01*
X0175401Y0042200D01*
X0191072Y0042200D01*
X0192728Y0042200D01*
X0194528Y0044000D01*
X0195177Y0044000D01*
X0196243Y0044441D01*
X0196500Y0044699D01*
X0196500Y0040601D01*
X0196041Y0040143D01*
X0195600Y0039077D01*
X0195600Y0037923D01*
X0196041Y0036857D01*
X0196857Y0036041D01*
X0197923Y0035600D01*
X0199077Y0035600D01*
X0200143Y0036041D01*
X0200958Y0036857D01*
X0201400Y0037923D01*
X0201400Y0039077D01*
X0200958Y0040143D01*
X0200500Y0040601D01*
X0200500Y0046828D01*
X0187300Y0060028D01*
X0187300Y0060677D01*
X0186858Y0061743D01*
X0186043Y0062558D01*
X0184977Y0063000D01*
X0183823Y0063000D01*
X0185189Y0062912D02*
X0225000Y0062912D01*
X0225000Y0061914D02*
X0186688Y0061914D01*
X0187201Y0060915D02*
X0225000Y0060915D01*
X0225000Y0059917D02*
X0187412Y0059917D01*
X0188410Y0058918D02*
X0225000Y0058918D01*
X0225000Y0057920D02*
X0189409Y0057920D01*
X0190407Y0056921D02*
X0225000Y0056921D01*
X0225000Y0055923D02*
X0191406Y0055923D01*
X0192404Y0054924D02*
X0225000Y0054924D01*
X0225000Y0053926D02*
X0193403Y0053926D01*
X0194401Y0052927D02*
X0225000Y0052927D01*
X0225000Y0051929D02*
X0195400Y0051929D01*
X0196398Y0050930D02*
X0225000Y0050930D01*
X0225000Y0049932D02*
X0197397Y0049932D01*
X0198395Y0048933D02*
X0225000Y0048933D01*
X0225000Y0047934D02*
X0199394Y0047934D01*
X0200392Y0046936D02*
X0225000Y0046936D01*
X0225000Y0045937D02*
X0200500Y0045937D01*
X0200500Y0044939D02*
X0225000Y0044939D01*
X0225000Y0043940D02*
X0200500Y0043940D01*
X0200500Y0042942D02*
X0225000Y0042942D01*
X0225000Y0041943D02*
X0200500Y0041943D01*
X0200500Y0040945D02*
X0225000Y0040945D01*
X0225000Y0039946D02*
X0201040Y0039946D01*
X0201400Y0038948D02*
X0225000Y0038948D01*
X0225000Y0037949D02*
X0201400Y0037949D01*
X0200997Y0036951D02*
X0225000Y0036951D01*
X0225000Y0035952D02*
X0199928Y0035952D01*
X0197072Y0035952D02*
X0151981Y0035952D01*
X0150982Y0034954D02*
X0225000Y0034954D01*
X0225000Y0033955D02*
X0149984Y0033955D01*
X0148985Y0032957D02*
X0225000Y0032957D01*
X0225000Y0031958D02*
X0147987Y0031958D01*
X0146988Y0030960D02*
X0225000Y0030960D01*
X0225000Y0029961D02*
X0145990Y0029961D01*
X0144991Y0028963D02*
X0225000Y0028963D01*
X0225000Y0027964D02*
X0193346Y0027964D01*
X0194635Y0026966D02*
X0225000Y0026966D01*
X0225000Y0025967D02*
X0195063Y0025967D01*
X0195100Y0024969D02*
X0225000Y0024969D01*
X0225000Y0023970D02*
X0194788Y0023970D01*
X0193973Y0022972D02*
X0225000Y0022972D01*
X0225000Y0021973D02*
X0141002Y0021973D01*
X0142000Y0022972D02*
X0190427Y0022972D01*
X0191054Y0027964D02*
X0143993Y0027964D01*
X0140003Y0020975D02*
X0225000Y0020975D01*
X0225000Y0019976D02*
X0139005Y0019976D01*
X0138006Y0018978D02*
X0225000Y0018978D01*
X0225000Y0017979D02*
X0137008Y0017979D01*
X0152979Y0036951D02*
X0196003Y0036951D01*
X0195600Y0037949D02*
X0153978Y0037949D01*
X0154976Y0038948D02*
X0195600Y0038948D01*
X0195960Y0039946D02*
X0155975Y0039946D01*
X0156973Y0040945D02*
X0196500Y0040945D01*
X0196500Y0041943D02*
X0175145Y0041943D01*
X0171455Y0041943D02*
X0157972Y0041943D01*
X0158970Y0042942D02*
X0170682Y0042942D01*
X0170400Y0043940D02*
X0159969Y0043940D01*
X0160967Y0044939D02*
X0170467Y0044939D01*
X0170936Y0045937D02*
X0161966Y0045937D01*
X0162964Y0046936D02*
X0172327Y0046936D01*
X0174273Y0046936D02*
X0191700Y0046936D01*
X0191890Y0047934D02*
X0163963Y0047934D01*
X0164961Y0048933D02*
X0192532Y0048933D01*
X0191740Y0049932D02*
X0165960Y0049932D01*
X0166958Y0050930D02*
X0190742Y0050930D01*
X0189743Y0051929D02*
X0167957Y0051929D01*
X0168955Y0052927D02*
X0188745Y0052927D01*
X0187746Y0053926D02*
X0169954Y0053926D01*
X0170952Y0054924D02*
X0186747Y0054924D01*
X0185749Y0055923D02*
X0171951Y0055923D01*
X0172950Y0056921D02*
X0184750Y0056921D01*
X0182479Y0057920D02*
X0173948Y0057920D01*
X0174947Y0058918D02*
X0181751Y0058918D01*
X0181500Y0059917D02*
X0175945Y0059917D01*
X0176944Y0060915D02*
X0181599Y0060915D01*
X0182112Y0061914D02*
X0177942Y0061914D01*
X0181936Y0065908D02*
X0225000Y0065908D01*
X0225000Y0066906D02*
X0182935Y0066906D01*
X0183933Y0067905D02*
X0225000Y0067905D01*
X0225000Y0068903D02*
X0184932Y0068903D01*
X0185930Y0069902D02*
X0225000Y0069902D01*
X0225000Y0070900D02*
X0186929Y0070900D01*
X0187927Y0071899D02*
X0225000Y0071899D01*
X0225000Y0072897D02*
X0188926Y0072897D01*
X0189924Y0073896D02*
X0204603Y0073896D01*
X0208597Y0073896D02*
X0225000Y0073896D01*
X0225000Y0074894D02*
X0209281Y0074894D01*
X0209500Y0075893D02*
X0225000Y0075893D01*
X0225000Y0076891D02*
X0209370Y0076891D01*
X0208811Y0077890D02*
X0225000Y0077890D01*
X0225000Y0078888D02*
X0207205Y0078888D01*
X0205995Y0078888D02*
X0192217Y0078888D01*
X0193215Y0079887D02*
X0225000Y0079887D01*
X0225000Y0080885D02*
X0194214Y0080885D01*
X0195212Y0081884D02*
X0225000Y0081884D01*
X0225000Y0082882D02*
X0196211Y0082882D01*
X0197209Y0083881D02*
X0225000Y0083881D01*
X0225000Y0084879D02*
X0198208Y0084879D01*
X0199206Y0085878D02*
X0225000Y0085878D01*
X0225000Y0086876D02*
X0200205Y0086876D01*
X0201203Y0087875D02*
X0225000Y0087875D01*
X0225000Y0088873D02*
X0202202Y0088873D01*
X0203200Y0089872D02*
X0225000Y0089872D01*
X0225000Y0090870D02*
X0204199Y0090870D01*
X0205197Y0091869D02*
X0225000Y0091869D01*
X0225000Y0092868D02*
X0206196Y0092868D01*
X0207194Y0093866D02*
X0225000Y0093866D01*
X0225000Y0094865D02*
X0208193Y0094865D01*
X0209191Y0095863D02*
X0225000Y0095863D01*
X0225000Y0096862D02*
X0210190Y0096862D01*
X0211188Y0097860D02*
X0225000Y0097860D01*
X0225000Y0098859D02*
X0212187Y0098859D01*
X0213185Y0099857D02*
X0225000Y0099857D01*
X0225000Y0100856D02*
X0214184Y0100856D01*
X0215183Y0101854D02*
X0225000Y0101854D01*
X0225000Y0102853D02*
X0216181Y0102853D01*
X0217180Y0103851D02*
X0225000Y0103851D01*
X0225000Y0104850D02*
X0218178Y0104850D01*
X0219177Y0105848D02*
X0225000Y0105848D01*
X0225000Y0106847D02*
X0220175Y0106847D01*
X0221174Y0107845D02*
X0225000Y0107845D01*
X0225000Y0108844D02*
X0221200Y0108844D01*
X0221200Y0109842D02*
X0225000Y0109842D01*
X0225000Y0110841D02*
X0221200Y0110841D01*
X0221200Y0111839D02*
X0225000Y0111839D01*
X0225000Y0112838D02*
X0221200Y0112838D01*
X0221200Y0113836D02*
X0225000Y0113836D01*
X0225000Y0114835D02*
X0221200Y0114835D01*
X0221200Y0115833D02*
X0225000Y0115833D01*
X0225000Y0116832D02*
X0221200Y0116832D01*
X0221200Y0117830D02*
X0225000Y0117830D01*
X0225000Y0118829D02*
X0221200Y0118829D01*
X0221200Y0119827D02*
X0225000Y0119827D01*
X0152373Y0069902D02*
X0146097Y0069902D01*
X0143503Y0069902D02*
X0134227Y0069902D01*
X0135225Y0068903D02*
X0142325Y0068903D01*
X0141912Y0067905D02*
X0136224Y0067905D01*
X0128570Y0069902D02*
X0084000Y0069902D01*
X0084000Y0070900D02*
X0096071Y0070900D01*
X0095073Y0071899D02*
X0084000Y0071899D01*
X0084000Y0072897D02*
X0094074Y0072897D01*
X0093076Y0073896D02*
X0084000Y0073896D01*
X0084000Y0074894D02*
X0092077Y0074894D01*
X0091079Y0075893D02*
X0084000Y0075893D01*
X0084000Y0076891D02*
X0090080Y0076891D01*
X0089082Y0077890D02*
X0084000Y0077890D01*
X0084000Y0078888D02*
X0088083Y0078888D01*
X0087085Y0079887D02*
X0084000Y0079887D01*
X0084000Y0080885D02*
X0086086Y0080885D01*
X0085088Y0081884D02*
X0084000Y0081884D01*
X0084000Y0082882D02*
X0084089Y0082882D01*
X0084000Y0068903D02*
X0112975Y0068903D01*
X0111976Y0067905D02*
X0084000Y0067905D01*
X0084000Y0066906D02*
X0110978Y0066906D01*
X0109979Y0065908D02*
X0084000Y0065908D01*
X0084000Y0064909D02*
X0108981Y0064909D01*
X0106709Y0063911D02*
X0084000Y0063911D01*
X0084000Y0062912D02*
X0105905Y0062912D01*
X0105600Y0061914D02*
X0084000Y0061914D01*
X0084000Y0060915D02*
X0104987Y0060915D01*
X0103988Y0059917D02*
X0084000Y0059917D01*
X0084000Y0058918D02*
X0102990Y0058918D01*
X0101991Y0057920D02*
X0084000Y0057920D01*
X0084000Y0056921D02*
X0100993Y0056921D01*
X0099994Y0055923D02*
X0084000Y0055923D01*
X0084000Y0054924D02*
X0098996Y0054924D01*
X0097997Y0053926D02*
X0084000Y0053926D01*
X0084000Y0052927D02*
X0097500Y0052927D01*
X0097500Y0051929D02*
X0084000Y0051929D01*
X0084000Y0050930D02*
X0097500Y0050930D01*
X0097500Y0049932D02*
X0084000Y0049932D01*
X0084000Y0048933D02*
X0097500Y0048933D01*
X0097500Y0047934D02*
X0084000Y0047934D01*
X0084000Y0046936D02*
X0097500Y0046936D01*
X0097500Y0045937D02*
X0084000Y0045937D01*
X0084000Y0044939D02*
X0097500Y0044939D01*
X0097500Y0043940D02*
X0084000Y0043940D01*
X0084000Y0042942D02*
X0097500Y0042942D01*
X0097500Y0041943D02*
X0084000Y0041943D01*
X0084000Y0040945D02*
X0097500Y0040945D01*
X0097500Y0039946D02*
X0084000Y0039946D01*
X0084000Y0038948D02*
X0097500Y0038948D01*
X0097500Y0037949D02*
X0084000Y0037949D01*
X0084000Y0036951D02*
X0097500Y0036951D01*
X0097500Y0035952D02*
X0084000Y0035952D01*
X0084000Y0034954D02*
X0097500Y0034954D01*
X0097500Y0033955D02*
X0084000Y0033955D01*
X0084000Y0032957D02*
X0098015Y0032957D01*
X0099013Y0031958D02*
X0084000Y0031958D01*
X0084000Y0030960D02*
X0100012Y0030960D01*
X0101010Y0029961D02*
X0084000Y0029961D01*
X0084000Y0028963D02*
X0102009Y0028963D01*
X0103007Y0027964D02*
X0084000Y0027964D01*
X0084000Y0026966D02*
X0104006Y0026966D01*
X0105004Y0025967D02*
X0084000Y0025967D01*
X0084000Y0024969D02*
X0106003Y0024969D01*
X0107001Y0023970D02*
X0084000Y0023970D01*
X0084000Y0022972D02*
X0108000Y0022972D01*
X0108998Y0021973D02*
X0084027Y0021973D01*
X0085025Y0020975D02*
X0109997Y0020975D01*
X0110995Y0019976D02*
X0086024Y0019976D01*
X0087022Y0018978D02*
X0111994Y0018978D01*
X0112992Y0017979D02*
X0088021Y0017979D01*
X0089019Y0016981D02*
X0225000Y0016981D01*
X0225000Y0015982D02*
X0218702Y0015982D01*
X0219988Y0014984D02*
X0225000Y0014984D01*
X0225000Y0013985D02*
X0220865Y0013985D01*
X0221279Y0012987D02*
X0225000Y0012987D01*
X0225000Y0011988D02*
X0221637Y0011988D01*
X0221637Y0010990D02*
X0225000Y0010990D01*
X0225000Y0009991D02*
X0221637Y0009991D01*
X0221270Y0008993D02*
X0225000Y0008993D01*
X0225000Y0007994D02*
X0220856Y0007994D01*
X0211144Y0007994D02*
X0098006Y0007994D01*
X0097007Y0008993D02*
X0210730Y0008993D01*
X0210363Y0009991D02*
X0096009Y0009991D01*
X0095010Y0010990D02*
X0210363Y0010990D01*
X0210363Y0011988D02*
X0094012Y0011988D01*
X0093013Y0012987D02*
X0210721Y0012987D01*
X0211135Y0013985D02*
X0092015Y0013985D01*
X0091016Y0014984D02*
X0212012Y0014984D01*
X0213298Y0015982D02*
X0090018Y0015982D01*
X0193470Y0042942D02*
X0196500Y0042942D01*
X0196500Y0043940D02*
X0194469Y0043940D01*
D22*
X0191900Y0044200D02*
X0194600Y0046900D01*
X0191900Y0044200D02*
X0173300Y0044200D01*
X0169700Y0059200D02*
X0219200Y0108700D01*
X0219200Y0134800D01*
X0212000Y0142000D01*
X0214100Y0136600D02*
X0209900Y0136600D01*
X0205400Y0132100D01*
X0202100Y0132100D01*
X0202000Y0132000D01*
X0212000Y0132000D02*
X0212000Y0131800D01*
X0216800Y0127000D01*
X0216800Y0109900D01*
X0175700Y0068800D01*
X0154100Y0068800D01*
X0152600Y0067300D01*
X0150500Y0067300D01*
X0150500Y0064300D01*
X0149300Y0063100D01*
X0142400Y0063100D01*
X0116000Y0036700D01*
X0101600Y0036700D01*
X0099500Y0034300D02*
X0099500Y0052600D01*
X0108500Y0061600D01*
X0113900Y0067000D01*
X0131300Y0067000D01*
X0136100Y0065200D02*
X0128600Y0072700D01*
X0097100Y0072700D01*
X0082100Y0087700D01*
X0072800Y0091900D02*
X0098600Y0091900D01*
X0127400Y0062500D02*
X0108800Y0043900D01*
X0099500Y0034300D02*
X0114800Y0019000D01*
X0135200Y0019000D01*
X0141500Y0025300D01*
X0192200Y0025300D01*
X0198500Y0038500D02*
X0198500Y0046000D01*
X0184400Y0060100D01*
X0175400Y0066700D02*
X0155000Y0066700D01*
X0150500Y0067300D02*
X0144800Y0067300D01*
X0148400Y0065200D02*
X0136100Y0065200D01*
X0135800Y0062500D02*
X0127400Y0062500D01*
X0127700Y0045400D02*
X0127700Y0034600D01*
X0126200Y0033100D02*
X0126800Y0032500D01*
X0128600Y0032500D01*
X0149900Y0053800D01*
X0149900Y0059200D01*
X0169700Y0059200D01*
X0175400Y0066700D02*
X0218000Y0109300D01*
X0218000Y0132700D01*
X0214100Y0136600D01*
X0202000Y0152000D02*
X0201800Y0151900D01*
X0183200Y0151900D01*
X0173450Y0142150D01*
X0173600Y0142000D01*
X0173600Y0118300D01*
X0162200Y0107200D02*
X0123500Y0145900D01*
X0123402Y0146000D01*
X0134598Y0146000D02*
X0134600Y0146200D01*
X0134600Y0166600D01*
X0137900Y0169900D01*
X0137900Y0172600D01*
X0138098Y0172799D01*
X0158600Y0146200D02*
X0158402Y0146000D01*
X0158600Y0146200D02*
X0167300Y0154900D01*
X0167600Y0154900D01*
X0173900Y0161200D01*
X0173900Y0172600D01*
X0174098Y0172799D01*
X0169598Y0146000D02*
X0169700Y0145900D01*
X0173450Y0142150D01*
X0162200Y0107200D02*
X0162200Y0100900D01*
X0148400Y0092800D02*
X0141800Y0092800D01*
X0088700Y0145900D01*
X0088402Y0146000D01*
X0099598Y0146000D02*
X0099800Y0146200D01*
X0099800Y0170500D01*
X0101900Y0172600D01*
X0102098Y0172799D01*
X0189200Y0076000D02*
X0134300Y0021100D01*
X0126200Y0033100D02*
X0103700Y0033100D01*
X0189200Y0076000D02*
X0206600Y0076000D01*
M02*
