%
M48
M72
T01C0.01200
T02C0.03543
T03C0.04000
T04C0.05118
%
T01
X82000Y31000
X92250Y48250
X97000Y48000
X101000Y58000
X103500Y62000
X101000Y67000
X102000Y74000
X108000Y76000
X111000Y73000
X122000Y73000
X132000Y73000
X139000Y79000
X143000Y82000
X140000Y86000
X136000Y86000
X136000Y93000
X129000Y100000
X125000Y100000
X120000Y100000
X116000Y100000
X111000Y100000
X108000Y96000
X109000Y93000
X106000Y100000
X108000Y109000
X97000Y113000
X97000Y123000
X101000Y126000
X106000Y129000
X124000Y139000
X120000Y144000
X113000Y144000
X106000Y144000
X117000Y151000
X114750Y162000
X134000Y155000
X153500Y158250
X160000Y144000
X154000Y135000
X161000Y127000
X148000Y111000
X151000Y106000
X157000Y106000
X161000Y107000
X169000Y107000
X159000Y99000
X154000Y100000
X146000Y92000
X159000Y89000
X170000Y86000
X181000Y95000
X191000Y85000
X185000Y79000
X178000Y73000
X186000Y67000
X203000Y71000
X217250Y61250
X248000Y72000
X260000Y66000
X243000Y83000
X233000Y114000
X198000Y103250
X161000Y74000
X143000Y67000
X132000Y65000
X119750Y50750
X92250Y68500
X83000Y63000
X102000Y81000
X91000Y86000
X81000Y86000
X82250Y96750
X92250Y100750
X75000Y108000
X62000Y115000
X67000Y130000
X77000Y130000
X78000Y136000
X79000Y145000
X137000Y107000
X64750Y97000
X64750Y90750
X202250Y27250
T02
X218000Y97882
X218000Y176622
T03
X28000Y153000
X28000Y143000
X28000Y133000
X28000Y123000
X243000Y76000
X253000Y76000
X253000Y66000
X243000Y66000
X243000Y56000
X253000Y56000
T04
X47126Y160102
X36102Y179000
X58937Y179000
M30
