%
M48
M72
T01C0.01200
T02C0.03543
T03C0.04000
T04C0.05118
T05C0.07874
%
T01
X82100Y41300
X87200Y39200
X108800Y43100
X131300Y55100
X137600Y58400
X139700Y56000
X150800Y55400
X154700Y63200
X141500Y66800
X125300Y66800
X109700Y79100
X92600Y81500
X71600Y89900
X108500Y102800
X108500Y111800
X124400Y93800
X144500Y87800
X148700Y89900
X150800Y98300
X162200Y96500
X169700Y106700
X173300Y55400
X202100Y31400
X199700Y17300
X142700Y41900
X137900Y41900
T02
X83942Y153350
X162682Y153350
T03
X31000Y125000
X31000Y135000
X31000Y145000
X31000Y155000
X202900Y169320
X212900Y169320
X212900Y159320
X202900Y159320
X202900Y149320
X212900Y149320
X212900Y139320
X202900Y139320
X202900Y129320
X212900Y129320
T04
X47126Y167102
X36102Y186000
X58937Y186000
T05
X72000Y197000
X216000Y197000
X216000Y9000
X85000Y9000
M30
