G75*
%MOIN*%
%OFA0B0*%
%FSLAX25Y25*%
%IPPOS*%
%LPD*%
%AMOC8*
5,1,8,0,0,1.08239X$1,22.5*
%
%ADD10C,0.00000*%
%ADD11R,0.05118X0.05906*%
%ADD12R,0.07900X0.04300*%
%ADD13R,0.07800X0.02100*%
%ADD14R,0.01378X0.03346*%
%ADD15R,0.04799X0.08799*%
%ADD16R,0.14173X0.08661*%
%ADD17R,0.02559X0.08661*%
%ADD18C,0.00591*%
%ADD19R,0.02000X0.02000*%
%ADD20R,0.04724X0.04724*%
%ADD21C,0.01750*%
%ADD22C,0.03898*%
D10*
X0017000Y0002000D02*
X0017000Y0200961D01*
X0266701Y0200961D01*
X0266701Y0002000D01*
X0017000Y0002000D01*
D11*
X0089260Y0062000D03*
X0096740Y0062000D03*
X0108260Y0062000D03*
X0115740Y0062000D03*
X0096890Y0079400D03*
X0089410Y0079400D03*
X0089654Y0093000D03*
X0096346Y0093000D03*
X0096740Y0106000D03*
X0089260Y0106000D03*
X0089260Y0135000D03*
X0096740Y0135000D03*
X0086740Y0157000D03*
X0079260Y0157000D03*
X0109260Y0157000D03*
X0116740Y0157000D03*
X0140260Y0157000D03*
X0147740Y0157000D03*
X0191260Y0093000D03*
X0198740Y0093000D03*
X0198740Y0079000D03*
X0191260Y0079000D03*
X0177740Y0079000D03*
X0170260Y0079000D03*
X0155740Y0079000D03*
X0148260Y0079000D03*
X0148260Y0062000D03*
X0155740Y0062000D03*
X0191260Y0062000D03*
X0198740Y0062000D03*
X0156740Y0031000D03*
X0149260Y0031000D03*
X0135740Y0031000D03*
X0128260Y0031000D03*
X0114740Y0031000D03*
X0107260Y0031000D03*
D12*
X0222300Y0029000D03*
X0222300Y0019000D03*
X0257700Y0019000D03*
X0257700Y0029000D03*
D13*
X0207700Y0030500D03*
X0207700Y0025500D03*
X0207700Y0020500D03*
X0207700Y0015500D03*
X0188300Y0015500D03*
X0188300Y0020500D03*
X0188300Y0025500D03*
X0188300Y0030500D03*
D14*
X0062559Y0130669D03*
X0057441Y0130669D03*
X0057441Y0139331D03*
X0060000Y0139331D03*
X0062559Y0139331D03*
D15*
X0072902Y0167799D03*
X0082000Y0167799D03*
X0091098Y0167799D03*
X0110902Y0167799D03*
X0120000Y0167799D03*
X0129098Y0167799D03*
X0148902Y0167799D03*
X0158000Y0167799D03*
X0167098Y0167799D03*
D16*
X0158000Y0192201D03*
X0120000Y0192201D03*
X0082000Y0192201D03*
D17*
X0090213Y0023087D03*
X0090213Y0008520D03*
D18*
X0130304Y0108143D02*
X0129887Y0108560D01*
X0130304Y0108143D02*
X0128773Y0106612D01*
X0128356Y0107029D01*
X0129887Y0108560D01*
X0129363Y0107202D02*
X0128529Y0107202D01*
X0129119Y0107792D02*
X0129953Y0107792D01*
X0130065Y0108382D02*
X0129709Y0108382D01*
X0128912Y0109535D02*
X0128495Y0109952D01*
X0128912Y0109535D02*
X0127381Y0108004D01*
X0126964Y0108421D01*
X0128495Y0109952D01*
X0127971Y0108594D02*
X0127137Y0108594D01*
X0127727Y0109184D02*
X0128561Y0109184D01*
X0128673Y0109774D02*
X0128317Y0109774D01*
X0127520Y0110927D02*
X0127103Y0111344D01*
X0127520Y0110927D02*
X0125989Y0109396D01*
X0125572Y0109813D01*
X0127103Y0111344D01*
X0126579Y0109986D02*
X0125745Y0109986D01*
X0126335Y0110576D02*
X0127169Y0110576D01*
X0127281Y0111166D02*
X0126925Y0111166D01*
X0126128Y0112319D02*
X0125711Y0112736D01*
X0126128Y0112319D02*
X0124597Y0110788D01*
X0124180Y0111205D01*
X0125711Y0112736D01*
X0125187Y0111378D02*
X0124353Y0111378D01*
X0124943Y0111968D02*
X0125777Y0111968D01*
X0125889Y0112558D02*
X0125533Y0112558D01*
X0124736Y0113711D02*
X0124319Y0114128D01*
X0124736Y0113711D02*
X0123205Y0112180D01*
X0122788Y0112597D01*
X0124319Y0114128D01*
X0123795Y0112770D02*
X0122961Y0112770D01*
X0123551Y0113360D02*
X0124385Y0113360D01*
X0124497Y0113950D02*
X0124141Y0113950D01*
X0123344Y0115103D02*
X0122927Y0115520D01*
X0123344Y0115103D02*
X0121813Y0113572D01*
X0121396Y0113989D01*
X0122927Y0115520D01*
X0122403Y0114162D02*
X0121569Y0114162D01*
X0122159Y0114752D02*
X0122993Y0114752D01*
X0123105Y0115342D02*
X0122749Y0115342D01*
X0121952Y0116495D02*
X0121535Y0116912D01*
X0121952Y0116495D02*
X0120421Y0114964D01*
X0120004Y0115381D01*
X0121535Y0116912D01*
X0121011Y0115554D02*
X0120177Y0115554D01*
X0120767Y0116144D02*
X0121601Y0116144D01*
X0121713Y0116734D02*
X0121357Y0116734D01*
X0120560Y0117887D02*
X0120143Y0118304D01*
X0120560Y0117887D02*
X0119029Y0116356D01*
X0118612Y0116773D01*
X0120143Y0118304D01*
X0119619Y0116946D02*
X0118785Y0116946D01*
X0119375Y0117536D02*
X0120209Y0117536D01*
X0120321Y0118126D02*
X0119965Y0118126D01*
X0120560Y0120113D02*
X0119029Y0121644D01*
X0120560Y0120113D02*
X0120143Y0119696D01*
X0118612Y0121227D01*
X0119029Y0121644D01*
X0119553Y0120286D02*
X0120387Y0120286D01*
X0119797Y0120876D02*
X0118963Y0120876D01*
X0118851Y0121466D02*
X0119207Y0121466D01*
X0120421Y0123036D02*
X0121952Y0121505D01*
X0121535Y0121088D01*
X0120004Y0122619D01*
X0120421Y0123036D01*
X0120945Y0121678D02*
X0121779Y0121678D01*
X0121189Y0122268D02*
X0120355Y0122268D01*
X0120243Y0122858D02*
X0120599Y0122858D01*
X0121813Y0124428D02*
X0123344Y0122897D01*
X0122927Y0122480D01*
X0121396Y0124011D01*
X0121813Y0124428D01*
X0122337Y0123070D02*
X0123171Y0123070D01*
X0122581Y0123660D02*
X0121747Y0123660D01*
X0121635Y0124250D02*
X0121991Y0124250D01*
X0123205Y0125820D02*
X0124736Y0124289D01*
X0124319Y0123872D01*
X0122788Y0125403D01*
X0123205Y0125820D01*
X0123729Y0124462D02*
X0124563Y0124462D01*
X0123973Y0125052D02*
X0123139Y0125052D01*
X0123027Y0125642D02*
X0123383Y0125642D01*
X0124597Y0127212D02*
X0126128Y0125681D01*
X0125711Y0125264D01*
X0124180Y0126795D01*
X0124597Y0127212D01*
X0125121Y0125854D02*
X0125955Y0125854D01*
X0125365Y0126444D02*
X0124531Y0126444D01*
X0124419Y0127034D02*
X0124775Y0127034D01*
X0125989Y0128604D02*
X0127520Y0127073D01*
X0127103Y0126656D01*
X0125572Y0128187D01*
X0125989Y0128604D01*
X0126513Y0127246D02*
X0127347Y0127246D01*
X0126757Y0127836D02*
X0125923Y0127836D01*
X0125811Y0128426D02*
X0126167Y0128426D01*
X0127381Y0129996D02*
X0128912Y0128465D01*
X0128495Y0128048D01*
X0126964Y0129579D01*
X0127381Y0129996D01*
X0127905Y0128638D02*
X0128739Y0128638D01*
X0128149Y0129228D02*
X0127315Y0129228D01*
X0127203Y0129818D02*
X0127559Y0129818D01*
X0128773Y0131388D02*
X0130304Y0129857D01*
X0129887Y0129440D01*
X0128356Y0130971D01*
X0128773Y0131388D01*
X0129297Y0130030D02*
X0130131Y0130030D01*
X0129541Y0130620D02*
X0128707Y0130620D01*
X0128595Y0131210D02*
X0128951Y0131210D01*
X0133227Y0131388D02*
X0133644Y0130971D01*
X0132113Y0129440D01*
X0131696Y0129857D01*
X0133227Y0131388D01*
X0132703Y0130030D02*
X0131869Y0130030D01*
X0132459Y0130620D02*
X0133293Y0130620D01*
X0133405Y0131210D02*
X0133049Y0131210D01*
X0134619Y0129996D02*
X0135036Y0129579D01*
X0133505Y0128048D01*
X0133088Y0128465D01*
X0134619Y0129996D01*
X0134095Y0128638D02*
X0133261Y0128638D01*
X0133851Y0129228D02*
X0134685Y0129228D01*
X0134797Y0129818D02*
X0134441Y0129818D01*
X0136011Y0128604D02*
X0136428Y0128187D01*
X0134897Y0126656D01*
X0134480Y0127073D01*
X0136011Y0128604D01*
X0135487Y0127246D02*
X0134653Y0127246D01*
X0135243Y0127836D02*
X0136077Y0127836D01*
X0136189Y0128426D02*
X0135833Y0128426D01*
X0137403Y0127212D02*
X0137820Y0126795D01*
X0136289Y0125264D01*
X0135872Y0125681D01*
X0137403Y0127212D01*
X0136879Y0125854D02*
X0136045Y0125854D01*
X0136635Y0126444D02*
X0137469Y0126444D01*
X0137581Y0127034D02*
X0137225Y0127034D01*
X0138795Y0125820D02*
X0139212Y0125403D01*
X0137681Y0123872D01*
X0137264Y0124289D01*
X0138795Y0125820D01*
X0138271Y0124462D02*
X0137437Y0124462D01*
X0138027Y0125052D02*
X0138861Y0125052D01*
X0138973Y0125642D02*
X0138617Y0125642D01*
X0140187Y0124428D02*
X0140604Y0124011D01*
X0139073Y0122480D01*
X0138656Y0122897D01*
X0140187Y0124428D01*
X0139663Y0123070D02*
X0138829Y0123070D01*
X0139419Y0123660D02*
X0140253Y0123660D01*
X0140365Y0124250D02*
X0140009Y0124250D01*
X0141579Y0123036D02*
X0141996Y0122619D01*
X0140465Y0121088D01*
X0140048Y0121505D01*
X0141579Y0123036D01*
X0141055Y0121678D02*
X0140221Y0121678D01*
X0140811Y0122268D02*
X0141645Y0122268D01*
X0141757Y0122858D02*
X0141401Y0122858D01*
X0142971Y0121644D02*
X0143388Y0121227D01*
X0141857Y0119696D01*
X0141440Y0120113D01*
X0142971Y0121644D01*
X0142447Y0120286D02*
X0141613Y0120286D01*
X0142203Y0120876D02*
X0143037Y0120876D01*
X0143149Y0121466D02*
X0142793Y0121466D01*
X0141857Y0118304D02*
X0143388Y0116773D01*
X0142971Y0116356D01*
X0141440Y0117887D01*
X0141857Y0118304D01*
X0142381Y0116946D02*
X0143215Y0116946D01*
X0142625Y0117536D02*
X0141791Y0117536D01*
X0141679Y0118126D02*
X0142035Y0118126D01*
X0140465Y0116912D02*
X0141996Y0115381D01*
X0141579Y0114964D01*
X0140048Y0116495D01*
X0140465Y0116912D01*
X0140989Y0115554D02*
X0141823Y0115554D01*
X0141233Y0116144D02*
X0140399Y0116144D01*
X0140287Y0116734D02*
X0140643Y0116734D01*
X0139073Y0115520D02*
X0140604Y0113989D01*
X0140187Y0113572D01*
X0138656Y0115103D01*
X0139073Y0115520D01*
X0139597Y0114162D02*
X0140431Y0114162D01*
X0139841Y0114752D02*
X0139007Y0114752D01*
X0138895Y0115342D02*
X0139251Y0115342D01*
X0137681Y0114128D02*
X0139212Y0112597D01*
X0138795Y0112180D01*
X0137264Y0113711D01*
X0137681Y0114128D01*
X0138205Y0112770D02*
X0139039Y0112770D01*
X0138449Y0113360D02*
X0137615Y0113360D01*
X0137503Y0113950D02*
X0137859Y0113950D01*
X0136289Y0112736D02*
X0137820Y0111205D01*
X0137403Y0110788D01*
X0135872Y0112319D01*
X0136289Y0112736D01*
X0136813Y0111378D02*
X0137647Y0111378D01*
X0137057Y0111968D02*
X0136223Y0111968D01*
X0136111Y0112558D02*
X0136467Y0112558D01*
X0134897Y0111344D02*
X0136428Y0109813D01*
X0136011Y0109396D01*
X0134480Y0110927D01*
X0134897Y0111344D01*
X0135421Y0109986D02*
X0136255Y0109986D01*
X0135665Y0110576D02*
X0134831Y0110576D01*
X0134719Y0111166D02*
X0135075Y0111166D01*
X0133505Y0109952D02*
X0135036Y0108421D01*
X0134619Y0108004D01*
X0133088Y0109535D01*
X0133505Y0109952D01*
X0134029Y0108594D02*
X0134863Y0108594D01*
X0134273Y0109184D02*
X0133439Y0109184D01*
X0133327Y0109774D02*
X0133683Y0109774D01*
X0132113Y0108560D02*
X0133644Y0107029D01*
X0133227Y0106612D01*
X0131696Y0108143D01*
X0132113Y0108560D01*
X0132637Y0107202D02*
X0133471Y0107202D01*
X0132881Y0107792D02*
X0132047Y0107792D01*
X0131935Y0108382D02*
X0132291Y0108382D01*
D19*
G36*
X0131000Y0115464D02*
X0132414Y0114050D01*
X0131000Y0112636D01*
X0129586Y0114050D01*
X0131000Y0115464D01*
G37*
G36*
X0133475Y0117939D02*
X0134889Y0116525D01*
X0133475Y0115111D01*
X0132061Y0116525D01*
X0133475Y0117939D01*
G37*
G36*
X0135950Y0120414D02*
X0137364Y0119000D01*
X0135950Y0117586D01*
X0134536Y0119000D01*
X0135950Y0120414D01*
G37*
G36*
X0133475Y0122889D02*
X0134889Y0121475D01*
X0133475Y0120061D01*
X0132061Y0121475D01*
X0133475Y0122889D01*
G37*
G36*
X0131000Y0125364D02*
X0132414Y0123950D01*
X0131000Y0122536D01*
X0129586Y0123950D01*
X0131000Y0125364D01*
G37*
G36*
X0128525Y0122889D02*
X0129939Y0121475D01*
X0128525Y0120061D01*
X0127111Y0121475D01*
X0128525Y0122889D01*
G37*
G36*
X0126050Y0120414D02*
X0127464Y0119000D01*
X0126050Y0117586D01*
X0124636Y0119000D01*
X0126050Y0120414D01*
G37*
G36*
X0131000Y0120414D02*
X0132414Y0119000D01*
X0131000Y0117586D01*
X0129586Y0119000D01*
X0131000Y0120414D01*
G37*
G36*
X0128525Y0117939D02*
X0129939Y0116525D01*
X0128525Y0115111D01*
X0127111Y0116525D01*
X0128525Y0117939D01*
G37*
D20*
X0169866Y0062000D03*
X0178134Y0062000D03*
X0178134Y0031000D03*
X0169866Y0031000D03*
D21*
X0138375Y0057125D02*
X0135625Y0057125D01*
X0135625Y0058875D01*
X0138375Y0058875D01*
X0138375Y0057125D01*
X0138375Y0058874D02*
X0135625Y0058874D01*
X0135625Y0065125D02*
X0138375Y0065125D01*
X0135625Y0065125D02*
X0135625Y0066875D01*
X0138375Y0066875D01*
X0138375Y0065125D01*
X0138375Y0066874D02*
X0135625Y0066874D01*
X0128375Y0065125D02*
X0125625Y0065125D01*
X0125625Y0066875D01*
X0128375Y0066875D01*
X0128375Y0065125D01*
X0128375Y0066874D02*
X0125625Y0066874D01*
X0125625Y0057125D02*
X0128375Y0057125D01*
X0125625Y0057125D02*
X0125625Y0058875D01*
X0128375Y0058875D01*
X0128375Y0057125D01*
X0128375Y0058874D02*
X0125625Y0058874D01*
D22*
X0077658Y0060547D02*
X0075650Y0060547D01*
X0077658Y0060547D02*
X0077658Y0060509D01*
X0075650Y0060509D01*
X0075650Y0060547D01*
X0075650Y0066452D02*
X0077658Y0066452D01*
X0077658Y0066414D01*
X0075650Y0066414D01*
X0075650Y0066452D01*
X0075650Y0072358D02*
X0077658Y0072358D01*
X0077658Y0072320D01*
X0075650Y0072320D01*
X0075650Y0072358D01*
X0075650Y0078263D02*
X0077658Y0078263D01*
X0077658Y0078225D01*
X0075650Y0078225D01*
X0075650Y0078263D01*
X0075650Y0084169D02*
X0077658Y0084169D01*
X0077658Y0084131D01*
X0075650Y0084131D01*
X0075650Y0084169D01*
X0075650Y0090074D02*
X0077658Y0090074D01*
X0077658Y0090036D01*
X0075650Y0090036D01*
X0075650Y0090074D01*
X0075650Y0095980D02*
X0077658Y0095980D01*
X0077658Y0095942D01*
X0075650Y0095942D01*
X0075650Y0095980D01*
X0075650Y0101885D02*
X0077658Y0101885D01*
X0077658Y0101847D01*
X0075650Y0101847D01*
X0075650Y0101885D01*
X0070572Y0109012D02*
X0070572Y0111020D01*
X0070610Y0111020D01*
X0070610Y0109012D01*
X0070572Y0109012D01*
X0064666Y0109012D02*
X0064666Y0111020D01*
X0064704Y0111020D01*
X0064704Y0109012D01*
X0064666Y0109012D01*
X0058761Y0109012D02*
X0058761Y0111020D01*
X0058799Y0111020D01*
X0058799Y0109012D01*
X0058761Y0109012D01*
X0052855Y0109012D02*
X0052855Y0111020D01*
X0052893Y0111020D01*
X0052893Y0109012D01*
X0052855Y0109012D01*
X0046950Y0109012D02*
X0046950Y0111020D01*
X0046988Y0111020D01*
X0046988Y0109012D01*
X0046950Y0109012D01*
X0041044Y0109012D02*
X0041044Y0111020D01*
X0041082Y0111020D01*
X0041082Y0109012D01*
X0041044Y0109012D01*
X0035138Y0109012D02*
X0035138Y0111020D01*
X0035176Y0111020D01*
X0035176Y0109012D01*
X0035138Y0109012D01*
X0029233Y0109012D02*
X0029233Y0111020D01*
X0029271Y0111020D01*
X0029271Y0109012D01*
X0029233Y0109012D01*
X0024350Y0101847D02*
X0022342Y0101847D01*
X0022342Y0101885D01*
X0024350Y0101885D01*
X0024350Y0101847D01*
X0024350Y0095942D02*
X0022342Y0095942D01*
X0022342Y0095980D01*
X0024350Y0095980D01*
X0024350Y0095942D01*
X0024350Y0090036D02*
X0022342Y0090036D01*
X0022342Y0090074D01*
X0024350Y0090074D01*
X0024350Y0090036D01*
X0024350Y0084131D02*
X0022342Y0084131D01*
X0022342Y0084169D01*
X0024350Y0084169D01*
X0024350Y0084131D01*
X0024350Y0078225D02*
X0022342Y0078225D01*
X0022342Y0078263D01*
X0024350Y0078263D01*
X0024350Y0078225D01*
X0024350Y0072320D02*
X0022342Y0072320D01*
X0022342Y0072358D01*
X0024350Y0072358D01*
X0024350Y0072320D01*
X0024350Y0066414D02*
X0022342Y0066414D01*
X0022342Y0066452D01*
X0024350Y0066452D01*
X0024350Y0066414D01*
X0024350Y0060509D02*
X0022342Y0060509D01*
X0022342Y0060547D01*
X0024350Y0060547D01*
X0024350Y0060509D01*
X0024350Y0054603D02*
X0022342Y0054603D01*
X0022342Y0054641D01*
X0024350Y0054641D01*
X0024350Y0054603D01*
X0024350Y0048698D02*
X0022342Y0048698D01*
X0022342Y0048736D01*
X0024350Y0048736D01*
X0024350Y0048698D01*
X0024350Y0042792D02*
X0022342Y0042792D01*
X0022342Y0042830D01*
X0024350Y0042830D01*
X0024350Y0042792D01*
X0024350Y0036887D02*
X0022342Y0036887D01*
X0022342Y0036925D01*
X0024350Y0036925D01*
X0024350Y0036887D01*
X0024350Y0030981D02*
X0022342Y0030981D01*
X0022342Y0031019D01*
X0024350Y0031019D01*
X0024350Y0030981D01*
X0075650Y0031019D02*
X0077658Y0031019D01*
X0077658Y0030981D01*
X0075650Y0030981D01*
X0075650Y0031019D01*
X0075650Y0036925D02*
X0077658Y0036925D01*
X0077658Y0036887D01*
X0075650Y0036887D01*
X0075650Y0036925D01*
X0075650Y0042830D02*
X0077658Y0042830D01*
X0077658Y0042792D01*
X0075650Y0042792D01*
X0075650Y0042830D01*
X0075650Y0048736D02*
X0077658Y0048736D01*
X0077658Y0048698D01*
X0075650Y0048698D01*
X0075650Y0048736D01*
X0075650Y0054641D02*
X0077658Y0054641D01*
X0077658Y0054603D01*
X0075650Y0054603D01*
X0075650Y0054641D01*
M02*
