G75*
%MOIN*%
%OFA0B0*%
%FSLAX25Y25*%
%IPPOS*%
%LPD*%
%AMOC8*
5,1,8,0,0,1.08239X$1,22.5*
%
%ADD10C,0.00000*%
%ADD11C,0.00400*%
%ADD12C,0.00800*%
D10*
X0011520Y0002000D02*
X0011520Y0205961D01*
X0221220Y0205961D01*
X0221220Y0002000D01*
X0011520Y0002000D01*
X0075583Y0009000D02*
X0075585Y0009125D01*
X0075591Y0009250D01*
X0075601Y0009374D01*
X0075615Y0009498D01*
X0075632Y0009622D01*
X0075654Y0009745D01*
X0075680Y0009867D01*
X0075709Y0009989D01*
X0075742Y0010109D01*
X0075780Y0010228D01*
X0075820Y0010347D01*
X0075865Y0010463D01*
X0075913Y0010578D01*
X0075965Y0010692D01*
X0076021Y0010804D01*
X0076080Y0010914D01*
X0076142Y0011022D01*
X0076208Y0011129D01*
X0076277Y0011233D01*
X0076350Y0011334D01*
X0076425Y0011434D01*
X0076504Y0011531D01*
X0076586Y0011625D01*
X0076671Y0011717D01*
X0076758Y0011806D01*
X0076849Y0011892D01*
X0076942Y0011975D01*
X0077038Y0012056D01*
X0077136Y0012133D01*
X0077236Y0012207D01*
X0077339Y0012278D01*
X0077444Y0012345D01*
X0077552Y0012410D01*
X0077661Y0012470D01*
X0077772Y0012528D01*
X0077885Y0012581D01*
X0077999Y0012631D01*
X0078115Y0012678D01*
X0078232Y0012720D01*
X0078351Y0012759D01*
X0078471Y0012795D01*
X0078592Y0012826D01*
X0078714Y0012854D01*
X0078836Y0012877D01*
X0078960Y0012897D01*
X0079084Y0012913D01*
X0079208Y0012925D01*
X0079333Y0012933D01*
X0079458Y0012937D01*
X0079582Y0012937D01*
X0079707Y0012933D01*
X0079832Y0012925D01*
X0079956Y0012913D01*
X0080080Y0012897D01*
X0080204Y0012877D01*
X0080326Y0012854D01*
X0080448Y0012826D01*
X0080569Y0012795D01*
X0080689Y0012759D01*
X0080808Y0012720D01*
X0080925Y0012678D01*
X0081041Y0012631D01*
X0081155Y0012581D01*
X0081268Y0012528D01*
X0081379Y0012470D01*
X0081489Y0012410D01*
X0081596Y0012345D01*
X0081701Y0012278D01*
X0081804Y0012207D01*
X0081904Y0012133D01*
X0082002Y0012056D01*
X0082098Y0011975D01*
X0082191Y0011892D01*
X0082282Y0011806D01*
X0082369Y0011717D01*
X0082454Y0011625D01*
X0082536Y0011531D01*
X0082615Y0011434D01*
X0082690Y0011334D01*
X0082763Y0011233D01*
X0082832Y0011129D01*
X0082898Y0011022D01*
X0082960Y0010914D01*
X0083019Y0010804D01*
X0083075Y0010692D01*
X0083127Y0010578D01*
X0083175Y0010463D01*
X0083220Y0010347D01*
X0083260Y0010228D01*
X0083298Y0010109D01*
X0083331Y0009989D01*
X0083360Y0009867D01*
X0083386Y0009745D01*
X0083408Y0009622D01*
X0083425Y0009498D01*
X0083439Y0009374D01*
X0083449Y0009250D01*
X0083455Y0009125D01*
X0083457Y0009000D01*
X0083455Y0008875D01*
X0083449Y0008750D01*
X0083439Y0008626D01*
X0083425Y0008502D01*
X0083408Y0008378D01*
X0083386Y0008255D01*
X0083360Y0008133D01*
X0083331Y0008011D01*
X0083298Y0007891D01*
X0083260Y0007772D01*
X0083220Y0007653D01*
X0083175Y0007537D01*
X0083127Y0007422D01*
X0083075Y0007308D01*
X0083019Y0007196D01*
X0082960Y0007086D01*
X0082898Y0006978D01*
X0082832Y0006871D01*
X0082763Y0006767D01*
X0082690Y0006666D01*
X0082615Y0006566D01*
X0082536Y0006469D01*
X0082454Y0006375D01*
X0082369Y0006283D01*
X0082282Y0006194D01*
X0082191Y0006108D01*
X0082098Y0006025D01*
X0082002Y0005944D01*
X0081904Y0005867D01*
X0081804Y0005793D01*
X0081701Y0005722D01*
X0081596Y0005655D01*
X0081488Y0005590D01*
X0081379Y0005530D01*
X0081268Y0005472D01*
X0081155Y0005419D01*
X0081041Y0005369D01*
X0080925Y0005322D01*
X0080808Y0005280D01*
X0080689Y0005241D01*
X0080569Y0005205D01*
X0080448Y0005174D01*
X0080326Y0005146D01*
X0080204Y0005123D01*
X0080080Y0005103D01*
X0079956Y0005087D01*
X0079832Y0005075D01*
X0079707Y0005067D01*
X0079582Y0005063D01*
X0079458Y0005063D01*
X0079333Y0005067D01*
X0079208Y0005075D01*
X0079084Y0005087D01*
X0078960Y0005103D01*
X0078836Y0005123D01*
X0078714Y0005146D01*
X0078592Y0005174D01*
X0078471Y0005205D01*
X0078351Y0005241D01*
X0078232Y0005280D01*
X0078115Y0005322D01*
X0077999Y0005369D01*
X0077885Y0005419D01*
X0077772Y0005472D01*
X0077661Y0005530D01*
X0077551Y0005590D01*
X0077444Y0005655D01*
X0077339Y0005722D01*
X0077236Y0005793D01*
X0077136Y0005867D01*
X0077038Y0005944D01*
X0076942Y0006025D01*
X0076849Y0006108D01*
X0076758Y0006194D01*
X0076671Y0006283D01*
X0076586Y0006375D01*
X0076504Y0006469D01*
X0076425Y0006566D01*
X0076350Y0006666D01*
X0076277Y0006767D01*
X0076208Y0006871D01*
X0076142Y0006978D01*
X0076080Y0007086D01*
X0076021Y0007196D01*
X0075965Y0007308D01*
X0075913Y0007422D01*
X0075865Y0007537D01*
X0075820Y0007653D01*
X0075780Y0007772D01*
X0075742Y0007891D01*
X0075709Y0008011D01*
X0075680Y0008133D01*
X0075654Y0008255D01*
X0075632Y0008378D01*
X0075615Y0008502D01*
X0075601Y0008626D01*
X0075591Y0008750D01*
X0075585Y0008875D01*
X0075583Y0009000D01*
X0205583Y0009000D02*
X0205585Y0009125D01*
X0205591Y0009250D01*
X0205601Y0009374D01*
X0205615Y0009498D01*
X0205632Y0009622D01*
X0205654Y0009745D01*
X0205680Y0009867D01*
X0205709Y0009989D01*
X0205742Y0010109D01*
X0205780Y0010228D01*
X0205820Y0010347D01*
X0205865Y0010463D01*
X0205913Y0010578D01*
X0205965Y0010692D01*
X0206021Y0010804D01*
X0206080Y0010914D01*
X0206142Y0011022D01*
X0206208Y0011129D01*
X0206277Y0011233D01*
X0206350Y0011334D01*
X0206425Y0011434D01*
X0206504Y0011531D01*
X0206586Y0011625D01*
X0206671Y0011717D01*
X0206758Y0011806D01*
X0206849Y0011892D01*
X0206942Y0011975D01*
X0207038Y0012056D01*
X0207136Y0012133D01*
X0207236Y0012207D01*
X0207339Y0012278D01*
X0207444Y0012345D01*
X0207552Y0012410D01*
X0207661Y0012470D01*
X0207772Y0012528D01*
X0207885Y0012581D01*
X0207999Y0012631D01*
X0208115Y0012678D01*
X0208232Y0012720D01*
X0208351Y0012759D01*
X0208471Y0012795D01*
X0208592Y0012826D01*
X0208714Y0012854D01*
X0208836Y0012877D01*
X0208960Y0012897D01*
X0209084Y0012913D01*
X0209208Y0012925D01*
X0209333Y0012933D01*
X0209458Y0012937D01*
X0209582Y0012937D01*
X0209707Y0012933D01*
X0209832Y0012925D01*
X0209956Y0012913D01*
X0210080Y0012897D01*
X0210204Y0012877D01*
X0210326Y0012854D01*
X0210448Y0012826D01*
X0210569Y0012795D01*
X0210689Y0012759D01*
X0210808Y0012720D01*
X0210925Y0012678D01*
X0211041Y0012631D01*
X0211155Y0012581D01*
X0211268Y0012528D01*
X0211379Y0012470D01*
X0211489Y0012410D01*
X0211596Y0012345D01*
X0211701Y0012278D01*
X0211804Y0012207D01*
X0211904Y0012133D01*
X0212002Y0012056D01*
X0212098Y0011975D01*
X0212191Y0011892D01*
X0212282Y0011806D01*
X0212369Y0011717D01*
X0212454Y0011625D01*
X0212536Y0011531D01*
X0212615Y0011434D01*
X0212690Y0011334D01*
X0212763Y0011233D01*
X0212832Y0011129D01*
X0212898Y0011022D01*
X0212960Y0010914D01*
X0213019Y0010804D01*
X0213075Y0010692D01*
X0213127Y0010578D01*
X0213175Y0010463D01*
X0213220Y0010347D01*
X0213260Y0010228D01*
X0213298Y0010109D01*
X0213331Y0009989D01*
X0213360Y0009867D01*
X0213386Y0009745D01*
X0213408Y0009622D01*
X0213425Y0009498D01*
X0213439Y0009374D01*
X0213449Y0009250D01*
X0213455Y0009125D01*
X0213457Y0009000D01*
X0213455Y0008875D01*
X0213449Y0008750D01*
X0213439Y0008626D01*
X0213425Y0008502D01*
X0213408Y0008378D01*
X0213386Y0008255D01*
X0213360Y0008133D01*
X0213331Y0008011D01*
X0213298Y0007891D01*
X0213260Y0007772D01*
X0213220Y0007653D01*
X0213175Y0007537D01*
X0213127Y0007422D01*
X0213075Y0007308D01*
X0213019Y0007196D01*
X0212960Y0007086D01*
X0212898Y0006978D01*
X0212832Y0006871D01*
X0212763Y0006767D01*
X0212690Y0006666D01*
X0212615Y0006566D01*
X0212536Y0006469D01*
X0212454Y0006375D01*
X0212369Y0006283D01*
X0212282Y0006194D01*
X0212191Y0006108D01*
X0212098Y0006025D01*
X0212002Y0005944D01*
X0211904Y0005867D01*
X0211804Y0005793D01*
X0211701Y0005722D01*
X0211596Y0005655D01*
X0211488Y0005590D01*
X0211379Y0005530D01*
X0211268Y0005472D01*
X0211155Y0005419D01*
X0211041Y0005369D01*
X0210925Y0005322D01*
X0210808Y0005280D01*
X0210689Y0005241D01*
X0210569Y0005205D01*
X0210448Y0005174D01*
X0210326Y0005146D01*
X0210204Y0005123D01*
X0210080Y0005103D01*
X0209956Y0005087D01*
X0209832Y0005075D01*
X0209707Y0005067D01*
X0209582Y0005063D01*
X0209458Y0005063D01*
X0209333Y0005067D01*
X0209208Y0005075D01*
X0209084Y0005087D01*
X0208960Y0005103D01*
X0208836Y0005123D01*
X0208714Y0005146D01*
X0208592Y0005174D01*
X0208471Y0005205D01*
X0208351Y0005241D01*
X0208232Y0005280D01*
X0208115Y0005322D01*
X0207999Y0005369D01*
X0207885Y0005419D01*
X0207772Y0005472D01*
X0207661Y0005530D01*
X0207551Y0005590D01*
X0207444Y0005655D01*
X0207339Y0005722D01*
X0207236Y0005793D01*
X0207136Y0005867D01*
X0207038Y0005944D01*
X0206942Y0006025D01*
X0206849Y0006108D01*
X0206758Y0006194D01*
X0206671Y0006283D01*
X0206586Y0006375D01*
X0206504Y0006469D01*
X0206425Y0006566D01*
X0206350Y0006666D01*
X0206277Y0006767D01*
X0206208Y0006871D01*
X0206142Y0006978D01*
X0206080Y0007086D01*
X0206021Y0007196D01*
X0205965Y0007308D01*
X0205913Y0007422D01*
X0205865Y0007537D01*
X0205820Y0007653D01*
X0205780Y0007772D01*
X0205742Y0007891D01*
X0205709Y0008011D01*
X0205680Y0008133D01*
X0205654Y0008255D01*
X0205632Y0008378D01*
X0205615Y0008502D01*
X0205601Y0008626D01*
X0205591Y0008750D01*
X0205585Y0008875D01*
X0205583Y0009000D01*
X0205583Y0197000D02*
X0205585Y0197125D01*
X0205591Y0197250D01*
X0205601Y0197374D01*
X0205615Y0197498D01*
X0205632Y0197622D01*
X0205654Y0197745D01*
X0205680Y0197867D01*
X0205709Y0197989D01*
X0205742Y0198109D01*
X0205780Y0198228D01*
X0205820Y0198347D01*
X0205865Y0198463D01*
X0205913Y0198578D01*
X0205965Y0198692D01*
X0206021Y0198804D01*
X0206080Y0198914D01*
X0206142Y0199022D01*
X0206208Y0199129D01*
X0206277Y0199233D01*
X0206350Y0199334D01*
X0206425Y0199434D01*
X0206504Y0199531D01*
X0206586Y0199625D01*
X0206671Y0199717D01*
X0206758Y0199806D01*
X0206849Y0199892D01*
X0206942Y0199975D01*
X0207038Y0200056D01*
X0207136Y0200133D01*
X0207236Y0200207D01*
X0207339Y0200278D01*
X0207444Y0200345D01*
X0207552Y0200410D01*
X0207661Y0200470D01*
X0207772Y0200528D01*
X0207885Y0200581D01*
X0207999Y0200631D01*
X0208115Y0200678D01*
X0208232Y0200720D01*
X0208351Y0200759D01*
X0208471Y0200795D01*
X0208592Y0200826D01*
X0208714Y0200854D01*
X0208836Y0200877D01*
X0208960Y0200897D01*
X0209084Y0200913D01*
X0209208Y0200925D01*
X0209333Y0200933D01*
X0209458Y0200937D01*
X0209582Y0200937D01*
X0209707Y0200933D01*
X0209832Y0200925D01*
X0209956Y0200913D01*
X0210080Y0200897D01*
X0210204Y0200877D01*
X0210326Y0200854D01*
X0210448Y0200826D01*
X0210569Y0200795D01*
X0210689Y0200759D01*
X0210808Y0200720D01*
X0210925Y0200678D01*
X0211041Y0200631D01*
X0211155Y0200581D01*
X0211268Y0200528D01*
X0211379Y0200470D01*
X0211489Y0200410D01*
X0211596Y0200345D01*
X0211701Y0200278D01*
X0211804Y0200207D01*
X0211904Y0200133D01*
X0212002Y0200056D01*
X0212098Y0199975D01*
X0212191Y0199892D01*
X0212282Y0199806D01*
X0212369Y0199717D01*
X0212454Y0199625D01*
X0212536Y0199531D01*
X0212615Y0199434D01*
X0212690Y0199334D01*
X0212763Y0199233D01*
X0212832Y0199129D01*
X0212898Y0199022D01*
X0212960Y0198914D01*
X0213019Y0198804D01*
X0213075Y0198692D01*
X0213127Y0198578D01*
X0213175Y0198463D01*
X0213220Y0198347D01*
X0213260Y0198228D01*
X0213298Y0198109D01*
X0213331Y0197989D01*
X0213360Y0197867D01*
X0213386Y0197745D01*
X0213408Y0197622D01*
X0213425Y0197498D01*
X0213439Y0197374D01*
X0213449Y0197250D01*
X0213455Y0197125D01*
X0213457Y0197000D01*
X0213455Y0196875D01*
X0213449Y0196750D01*
X0213439Y0196626D01*
X0213425Y0196502D01*
X0213408Y0196378D01*
X0213386Y0196255D01*
X0213360Y0196133D01*
X0213331Y0196011D01*
X0213298Y0195891D01*
X0213260Y0195772D01*
X0213220Y0195653D01*
X0213175Y0195537D01*
X0213127Y0195422D01*
X0213075Y0195308D01*
X0213019Y0195196D01*
X0212960Y0195086D01*
X0212898Y0194978D01*
X0212832Y0194871D01*
X0212763Y0194767D01*
X0212690Y0194666D01*
X0212615Y0194566D01*
X0212536Y0194469D01*
X0212454Y0194375D01*
X0212369Y0194283D01*
X0212282Y0194194D01*
X0212191Y0194108D01*
X0212098Y0194025D01*
X0212002Y0193944D01*
X0211904Y0193867D01*
X0211804Y0193793D01*
X0211701Y0193722D01*
X0211596Y0193655D01*
X0211488Y0193590D01*
X0211379Y0193530D01*
X0211268Y0193472D01*
X0211155Y0193419D01*
X0211041Y0193369D01*
X0210925Y0193322D01*
X0210808Y0193280D01*
X0210689Y0193241D01*
X0210569Y0193205D01*
X0210448Y0193174D01*
X0210326Y0193146D01*
X0210204Y0193123D01*
X0210080Y0193103D01*
X0209956Y0193087D01*
X0209832Y0193075D01*
X0209707Y0193067D01*
X0209582Y0193063D01*
X0209458Y0193063D01*
X0209333Y0193067D01*
X0209208Y0193075D01*
X0209084Y0193087D01*
X0208960Y0193103D01*
X0208836Y0193123D01*
X0208714Y0193146D01*
X0208592Y0193174D01*
X0208471Y0193205D01*
X0208351Y0193241D01*
X0208232Y0193280D01*
X0208115Y0193322D01*
X0207999Y0193369D01*
X0207885Y0193419D01*
X0207772Y0193472D01*
X0207661Y0193530D01*
X0207551Y0193590D01*
X0207444Y0193655D01*
X0207339Y0193722D01*
X0207236Y0193793D01*
X0207136Y0193867D01*
X0207038Y0193944D01*
X0206942Y0194025D01*
X0206849Y0194108D01*
X0206758Y0194194D01*
X0206671Y0194283D01*
X0206586Y0194375D01*
X0206504Y0194469D01*
X0206425Y0194566D01*
X0206350Y0194666D01*
X0206277Y0194767D01*
X0206208Y0194871D01*
X0206142Y0194978D01*
X0206080Y0195086D01*
X0206021Y0195196D01*
X0205965Y0195308D01*
X0205913Y0195422D01*
X0205865Y0195537D01*
X0205820Y0195653D01*
X0205780Y0195772D01*
X0205742Y0195891D01*
X0205709Y0196011D01*
X0205680Y0196133D01*
X0205654Y0196255D01*
X0205632Y0196378D01*
X0205615Y0196502D01*
X0205601Y0196626D01*
X0205591Y0196750D01*
X0205585Y0196875D01*
X0205583Y0197000D01*
X0062583Y0197000D02*
X0062585Y0197125D01*
X0062591Y0197250D01*
X0062601Y0197374D01*
X0062615Y0197498D01*
X0062632Y0197622D01*
X0062654Y0197745D01*
X0062680Y0197867D01*
X0062709Y0197989D01*
X0062742Y0198109D01*
X0062780Y0198228D01*
X0062820Y0198347D01*
X0062865Y0198463D01*
X0062913Y0198578D01*
X0062965Y0198692D01*
X0063021Y0198804D01*
X0063080Y0198914D01*
X0063142Y0199022D01*
X0063208Y0199129D01*
X0063277Y0199233D01*
X0063350Y0199334D01*
X0063425Y0199434D01*
X0063504Y0199531D01*
X0063586Y0199625D01*
X0063671Y0199717D01*
X0063758Y0199806D01*
X0063849Y0199892D01*
X0063942Y0199975D01*
X0064038Y0200056D01*
X0064136Y0200133D01*
X0064236Y0200207D01*
X0064339Y0200278D01*
X0064444Y0200345D01*
X0064552Y0200410D01*
X0064661Y0200470D01*
X0064772Y0200528D01*
X0064885Y0200581D01*
X0064999Y0200631D01*
X0065115Y0200678D01*
X0065232Y0200720D01*
X0065351Y0200759D01*
X0065471Y0200795D01*
X0065592Y0200826D01*
X0065714Y0200854D01*
X0065836Y0200877D01*
X0065960Y0200897D01*
X0066084Y0200913D01*
X0066208Y0200925D01*
X0066333Y0200933D01*
X0066458Y0200937D01*
X0066582Y0200937D01*
X0066707Y0200933D01*
X0066832Y0200925D01*
X0066956Y0200913D01*
X0067080Y0200897D01*
X0067204Y0200877D01*
X0067326Y0200854D01*
X0067448Y0200826D01*
X0067569Y0200795D01*
X0067689Y0200759D01*
X0067808Y0200720D01*
X0067925Y0200678D01*
X0068041Y0200631D01*
X0068155Y0200581D01*
X0068268Y0200528D01*
X0068379Y0200470D01*
X0068489Y0200410D01*
X0068596Y0200345D01*
X0068701Y0200278D01*
X0068804Y0200207D01*
X0068904Y0200133D01*
X0069002Y0200056D01*
X0069098Y0199975D01*
X0069191Y0199892D01*
X0069282Y0199806D01*
X0069369Y0199717D01*
X0069454Y0199625D01*
X0069536Y0199531D01*
X0069615Y0199434D01*
X0069690Y0199334D01*
X0069763Y0199233D01*
X0069832Y0199129D01*
X0069898Y0199022D01*
X0069960Y0198914D01*
X0070019Y0198804D01*
X0070075Y0198692D01*
X0070127Y0198578D01*
X0070175Y0198463D01*
X0070220Y0198347D01*
X0070260Y0198228D01*
X0070298Y0198109D01*
X0070331Y0197989D01*
X0070360Y0197867D01*
X0070386Y0197745D01*
X0070408Y0197622D01*
X0070425Y0197498D01*
X0070439Y0197374D01*
X0070449Y0197250D01*
X0070455Y0197125D01*
X0070457Y0197000D01*
X0070455Y0196875D01*
X0070449Y0196750D01*
X0070439Y0196626D01*
X0070425Y0196502D01*
X0070408Y0196378D01*
X0070386Y0196255D01*
X0070360Y0196133D01*
X0070331Y0196011D01*
X0070298Y0195891D01*
X0070260Y0195772D01*
X0070220Y0195653D01*
X0070175Y0195537D01*
X0070127Y0195422D01*
X0070075Y0195308D01*
X0070019Y0195196D01*
X0069960Y0195086D01*
X0069898Y0194978D01*
X0069832Y0194871D01*
X0069763Y0194767D01*
X0069690Y0194666D01*
X0069615Y0194566D01*
X0069536Y0194469D01*
X0069454Y0194375D01*
X0069369Y0194283D01*
X0069282Y0194194D01*
X0069191Y0194108D01*
X0069098Y0194025D01*
X0069002Y0193944D01*
X0068904Y0193867D01*
X0068804Y0193793D01*
X0068701Y0193722D01*
X0068596Y0193655D01*
X0068488Y0193590D01*
X0068379Y0193530D01*
X0068268Y0193472D01*
X0068155Y0193419D01*
X0068041Y0193369D01*
X0067925Y0193322D01*
X0067808Y0193280D01*
X0067689Y0193241D01*
X0067569Y0193205D01*
X0067448Y0193174D01*
X0067326Y0193146D01*
X0067204Y0193123D01*
X0067080Y0193103D01*
X0066956Y0193087D01*
X0066832Y0193075D01*
X0066707Y0193067D01*
X0066582Y0193063D01*
X0066458Y0193063D01*
X0066333Y0193067D01*
X0066208Y0193075D01*
X0066084Y0193087D01*
X0065960Y0193103D01*
X0065836Y0193123D01*
X0065714Y0193146D01*
X0065592Y0193174D01*
X0065471Y0193205D01*
X0065351Y0193241D01*
X0065232Y0193280D01*
X0065115Y0193322D01*
X0064999Y0193369D01*
X0064885Y0193419D01*
X0064772Y0193472D01*
X0064661Y0193530D01*
X0064551Y0193590D01*
X0064444Y0193655D01*
X0064339Y0193722D01*
X0064236Y0193793D01*
X0064136Y0193867D01*
X0064038Y0193944D01*
X0063942Y0194025D01*
X0063849Y0194108D01*
X0063758Y0194194D01*
X0063671Y0194283D01*
X0063586Y0194375D01*
X0063504Y0194469D01*
X0063425Y0194566D01*
X0063350Y0194666D01*
X0063277Y0194767D01*
X0063208Y0194871D01*
X0063142Y0194978D01*
X0063080Y0195086D01*
X0063021Y0195196D01*
X0062965Y0195308D01*
X0062913Y0195422D01*
X0062865Y0195537D01*
X0062820Y0195653D01*
X0062780Y0195772D01*
X0062742Y0195891D01*
X0062709Y0196011D01*
X0062680Y0196133D01*
X0062654Y0196255D01*
X0062632Y0196378D01*
X0062615Y0196502D01*
X0062601Y0196626D01*
X0062591Y0196750D01*
X0062585Y0196875D01*
X0062583Y0197000D01*
D11*
X0071181Y0196004D02*
X0071181Y0191400D01*
X0072716Y0191400D02*
X0069646Y0191400D01*
X0072716Y0194469D02*
X0071181Y0196004D01*
X0074250Y0195237D02*
X0074250Y0192167D01*
X0075018Y0191400D01*
X0076552Y0191400D01*
X0077320Y0192167D01*
X0077320Y0195237D01*
X0076552Y0196004D01*
X0075018Y0196004D01*
X0074250Y0195237D01*
X0075785Y0192935D02*
X0074250Y0191400D01*
X0082646Y0200200D02*
X0084181Y0201735D01*
X0083414Y0201735D02*
X0085716Y0201735D01*
X0085716Y0200200D02*
X0085716Y0204804D01*
X0083414Y0204804D01*
X0082646Y0204037D01*
X0082646Y0202502D01*
X0083414Y0201735D01*
X0087250Y0202502D02*
X0088785Y0202502D01*
X0087250Y0202502D02*
X0087250Y0200967D01*
X0088018Y0200200D01*
X0089552Y0200200D01*
X0090320Y0200967D01*
X0090320Y0204037D01*
X0089552Y0204804D01*
X0088018Y0204804D01*
X0087250Y0204037D01*
X0105646Y0195237D02*
X0106414Y0196004D01*
X0107948Y0196004D01*
X0108716Y0195237D01*
X0110250Y0195237D02*
X0110250Y0192167D01*
X0111018Y0191400D01*
X0112552Y0191400D01*
X0113320Y0192167D01*
X0113320Y0195237D01*
X0112552Y0196004D01*
X0111018Y0196004D01*
X0110250Y0195237D01*
X0111785Y0192935D02*
X0110250Y0191400D01*
X0108716Y0191400D02*
X0105646Y0194469D01*
X0105646Y0195237D01*
X0105646Y0191400D02*
X0108716Y0191400D01*
X0116810Y0200200D02*
X0116043Y0200967D01*
X0116043Y0204037D01*
X0116810Y0204804D01*
X0119112Y0204804D01*
X0119112Y0200200D01*
X0116810Y0200200D01*
X0120646Y0200200D02*
X0123716Y0200200D01*
X0123716Y0204804D01*
X0120646Y0204804D01*
X0122181Y0202502D02*
X0123716Y0202502D01*
X0125250Y0202502D02*
X0126018Y0201735D01*
X0128320Y0201735D01*
X0126785Y0201735D02*
X0125250Y0200200D01*
X0125250Y0202502D02*
X0125250Y0204037D01*
X0126018Y0204804D01*
X0128320Y0204804D01*
X0128320Y0200200D01*
X0141646Y0195237D02*
X0141646Y0194469D01*
X0142414Y0193702D01*
X0141646Y0192935D01*
X0141646Y0192167D01*
X0142414Y0191400D01*
X0143948Y0191400D01*
X0144716Y0192167D01*
X0146250Y0192167D02*
X0147018Y0191400D01*
X0148552Y0191400D01*
X0149320Y0192167D01*
X0149320Y0195237D01*
X0148552Y0196004D01*
X0147018Y0196004D01*
X0146250Y0195237D01*
X0146250Y0192167D01*
X0146250Y0191400D02*
X0147785Y0192935D01*
X0144716Y0195237D02*
X0143948Y0196004D01*
X0142414Y0196004D01*
X0141646Y0195237D01*
X0142414Y0193702D02*
X0143181Y0193702D01*
X0149439Y0200200D02*
X0152508Y0200200D01*
X0152508Y0204804D01*
X0149439Y0204804D01*
X0150973Y0202502D02*
X0152508Y0202502D01*
X0154043Y0200967D02*
X0154043Y0204804D01*
X0154043Y0200967D02*
X0154810Y0200200D01*
X0156345Y0200200D01*
X0157112Y0200967D01*
X0157112Y0204804D01*
X0161716Y0204804D02*
X0161716Y0200200D01*
X0158646Y0200200D01*
X0163250Y0200967D02*
X0164018Y0200200D01*
X0166320Y0200200D01*
X0166320Y0204804D01*
X0164018Y0204804D01*
X0163250Y0204037D01*
X0163250Y0203269D01*
X0164018Y0202502D01*
X0166320Y0202502D01*
X0164018Y0202502D02*
X0163250Y0201735D01*
X0163250Y0200967D01*
X0161470Y0131994D02*
X0159168Y0131994D01*
X0158400Y0131227D01*
X0158400Y0129692D01*
X0159168Y0128925D01*
X0161470Y0128925D01*
X0159935Y0128925D02*
X0158400Y0127390D01*
X0156866Y0128157D02*
X0156098Y0127390D01*
X0154564Y0127390D01*
X0153796Y0128157D01*
X0153796Y0129692D01*
X0154564Y0130459D01*
X0155331Y0130459D01*
X0156866Y0129692D01*
X0156866Y0131994D01*
X0153796Y0131994D01*
X0161470Y0131994D02*
X0161470Y0127390D01*
X0126678Y0127390D02*
X0126678Y0131994D01*
X0124376Y0131994D01*
X0123608Y0131227D01*
X0123608Y0129692D01*
X0124376Y0128925D01*
X0126678Y0128925D01*
X0125143Y0128925D02*
X0123608Y0127390D01*
X0122074Y0129692D02*
X0119004Y0129692D01*
X0119772Y0127390D02*
X0119772Y0131994D01*
X0122074Y0129692D01*
X0091678Y0128925D02*
X0089376Y0128925D01*
X0088608Y0129692D01*
X0088608Y0131227D01*
X0089376Y0131994D01*
X0091678Y0131994D01*
X0091678Y0127390D01*
X0090143Y0128925D02*
X0088608Y0127390D01*
X0087074Y0128157D02*
X0086306Y0127390D01*
X0084772Y0127390D01*
X0084004Y0128157D01*
X0084004Y0128925D01*
X0084772Y0129692D01*
X0085539Y0129692D01*
X0084772Y0129692D02*
X0084004Y0130459D01*
X0084004Y0131227D01*
X0084772Y0131994D01*
X0086306Y0131994D01*
X0087074Y0131227D01*
D12*
X0099421Y0176000D02*
X0073618Y0176000D01*
X0073618Y0190000D01*
X0099421Y0190000D01*
X0099421Y0176000D01*
X0109618Y0176000D02*
X0135421Y0176000D01*
X0135421Y0190000D01*
X0109618Y0190000D01*
X0109618Y0176000D01*
X0145618Y0176000D02*
X0171421Y0176000D01*
X0171421Y0190000D01*
X0145618Y0190000D01*
X0145618Y0176000D01*
X0210839Y0162500D02*
X0210839Y0157500D01*
M02*
