G75*
%MOIN*%
%OFA0B0*%
%FSLAX25Y25*%
%IPPOS*%
%LPD*%
%AMOC8*
5,1,8,0,0,1.08239X$1,22.5*
%
%ADD10C,0.00000*%
%ADD11C,0.00300*%
%ADD12C,0.00600*%
%ADD13R,0.06000X0.06000*%
%ADD14C,0.01000*%
%ADD15C,0.00500*%
%ADD16C,0.00800*%
%ADD17C,0.00100*%
%ADD18R,0.01673X0.01280*%
%ADD19R,0.01378X0.01378*%
%ADD20C,0.01600*%
%ADD21C,0.00400*%
%ADD22C,0.00394*%
D10*
X0011520Y0002000D02*
X0011520Y0205961D01*
X0221220Y0205961D01*
X0221220Y0002000D01*
X0011520Y0002000D01*
X0075583Y0009000D02*
X0075585Y0009125D01*
X0075591Y0009250D01*
X0075601Y0009374D01*
X0075615Y0009498D01*
X0075632Y0009622D01*
X0075654Y0009745D01*
X0075680Y0009867D01*
X0075709Y0009989D01*
X0075742Y0010109D01*
X0075780Y0010228D01*
X0075820Y0010347D01*
X0075865Y0010463D01*
X0075913Y0010578D01*
X0075965Y0010692D01*
X0076021Y0010804D01*
X0076080Y0010914D01*
X0076142Y0011022D01*
X0076208Y0011129D01*
X0076277Y0011233D01*
X0076350Y0011334D01*
X0076425Y0011434D01*
X0076504Y0011531D01*
X0076586Y0011625D01*
X0076671Y0011717D01*
X0076758Y0011806D01*
X0076849Y0011892D01*
X0076942Y0011975D01*
X0077038Y0012056D01*
X0077136Y0012133D01*
X0077236Y0012207D01*
X0077339Y0012278D01*
X0077444Y0012345D01*
X0077552Y0012410D01*
X0077661Y0012470D01*
X0077772Y0012528D01*
X0077885Y0012581D01*
X0077999Y0012631D01*
X0078115Y0012678D01*
X0078232Y0012720D01*
X0078351Y0012759D01*
X0078471Y0012795D01*
X0078592Y0012826D01*
X0078714Y0012854D01*
X0078836Y0012877D01*
X0078960Y0012897D01*
X0079084Y0012913D01*
X0079208Y0012925D01*
X0079333Y0012933D01*
X0079458Y0012937D01*
X0079582Y0012937D01*
X0079707Y0012933D01*
X0079832Y0012925D01*
X0079956Y0012913D01*
X0080080Y0012897D01*
X0080204Y0012877D01*
X0080326Y0012854D01*
X0080448Y0012826D01*
X0080569Y0012795D01*
X0080689Y0012759D01*
X0080808Y0012720D01*
X0080925Y0012678D01*
X0081041Y0012631D01*
X0081155Y0012581D01*
X0081268Y0012528D01*
X0081379Y0012470D01*
X0081489Y0012410D01*
X0081596Y0012345D01*
X0081701Y0012278D01*
X0081804Y0012207D01*
X0081904Y0012133D01*
X0082002Y0012056D01*
X0082098Y0011975D01*
X0082191Y0011892D01*
X0082282Y0011806D01*
X0082369Y0011717D01*
X0082454Y0011625D01*
X0082536Y0011531D01*
X0082615Y0011434D01*
X0082690Y0011334D01*
X0082763Y0011233D01*
X0082832Y0011129D01*
X0082898Y0011022D01*
X0082960Y0010914D01*
X0083019Y0010804D01*
X0083075Y0010692D01*
X0083127Y0010578D01*
X0083175Y0010463D01*
X0083220Y0010347D01*
X0083260Y0010228D01*
X0083298Y0010109D01*
X0083331Y0009989D01*
X0083360Y0009867D01*
X0083386Y0009745D01*
X0083408Y0009622D01*
X0083425Y0009498D01*
X0083439Y0009374D01*
X0083449Y0009250D01*
X0083455Y0009125D01*
X0083457Y0009000D01*
X0083455Y0008875D01*
X0083449Y0008750D01*
X0083439Y0008626D01*
X0083425Y0008502D01*
X0083408Y0008378D01*
X0083386Y0008255D01*
X0083360Y0008133D01*
X0083331Y0008011D01*
X0083298Y0007891D01*
X0083260Y0007772D01*
X0083220Y0007653D01*
X0083175Y0007537D01*
X0083127Y0007422D01*
X0083075Y0007308D01*
X0083019Y0007196D01*
X0082960Y0007086D01*
X0082898Y0006978D01*
X0082832Y0006871D01*
X0082763Y0006767D01*
X0082690Y0006666D01*
X0082615Y0006566D01*
X0082536Y0006469D01*
X0082454Y0006375D01*
X0082369Y0006283D01*
X0082282Y0006194D01*
X0082191Y0006108D01*
X0082098Y0006025D01*
X0082002Y0005944D01*
X0081904Y0005867D01*
X0081804Y0005793D01*
X0081701Y0005722D01*
X0081596Y0005655D01*
X0081488Y0005590D01*
X0081379Y0005530D01*
X0081268Y0005472D01*
X0081155Y0005419D01*
X0081041Y0005369D01*
X0080925Y0005322D01*
X0080808Y0005280D01*
X0080689Y0005241D01*
X0080569Y0005205D01*
X0080448Y0005174D01*
X0080326Y0005146D01*
X0080204Y0005123D01*
X0080080Y0005103D01*
X0079956Y0005087D01*
X0079832Y0005075D01*
X0079707Y0005067D01*
X0079582Y0005063D01*
X0079458Y0005063D01*
X0079333Y0005067D01*
X0079208Y0005075D01*
X0079084Y0005087D01*
X0078960Y0005103D01*
X0078836Y0005123D01*
X0078714Y0005146D01*
X0078592Y0005174D01*
X0078471Y0005205D01*
X0078351Y0005241D01*
X0078232Y0005280D01*
X0078115Y0005322D01*
X0077999Y0005369D01*
X0077885Y0005419D01*
X0077772Y0005472D01*
X0077661Y0005530D01*
X0077551Y0005590D01*
X0077444Y0005655D01*
X0077339Y0005722D01*
X0077236Y0005793D01*
X0077136Y0005867D01*
X0077038Y0005944D01*
X0076942Y0006025D01*
X0076849Y0006108D01*
X0076758Y0006194D01*
X0076671Y0006283D01*
X0076586Y0006375D01*
X0076504Y0006469D01*
X0076425Y0006566D01*
X0076350Y0006666D01*
X0076277Y0006767D01*
X0076208Y0006871D01*
X0076142Y0006978D01*
X0076080Y0007086D01*
X0076021Y0007196D01*
X0075965Y0007308D01*
X0075913Y0007422D01*
X0075865Y0007537D01*
X0075820Y0007653D01*
X0075780Y0007772D01*
X0075742Y0007891D01*
X0075709Y0008011D01*
X0075680Y0008133D01*
X0075654Y0008255D01*
X0075632Y0008378D01*
X0075615Y0008502D01*
X0075601Y0008626D01*
X0075591Y0008750D01*
X0075585Y0008875D01*
X0075583Y0009000D01*
X0205583Y0009000D02*
X0205585Y0009125D01*
X0205591Y0009250D01*
X0205601Y0009374D01*
X0205615Y0009498D01*
X0205632Y0009622D01*
X0205654Y0009745D01*
X0205680Y0009867D01*
X0205709Y0009989D01*
X0205742Y0010109D01*
X0205780Y0010228D01*
X0205820Y0010347D01*
X0205865Y0010463D01*
X0205913Y0010578D01*
X0205965Y0010692D01*
X0206021Y0010804D01*
X0206080Y0010914D01*
X0206142Y0011022D01*
X0206208Y0011129D01*
X0206277Y0011233D01*
X0206350Y0011334D01*
X0206425Y0011434D01*
X0206504Y0011531D01*
X0206586Y0011625D01*
X0206671Y0011717D01*
X0206758Y0011806D01*
X0206849Y0011892D01*
X0206942Y0011975D01*
X0207038Y0012056D01*
X0207136Y0012133D01*
X0207236Y0012207D01*
X0207339Y0012278D01*
X0207444Y0012345D01*
X0207552Y0012410D01*
X0207661Y0012470D01*
X0207772Y0012528D01*
X0207885Y0012581D01*
X0207999Y0012631D01*
X0208115Y0012678D01*
X0208232Y0012720D01*
X0208351Y0012759D01*
X0208471Y0012795D01*
X0208592Y0012826D01*
X0208714Y0012854D01*
X0208836Y0012877D01*
X0208960Y0012897D01*
X0209084Y0012913D01*
X0209208Y0012925D01*
X0209333Y0012933D01*
X0209458Y0012937D01*
X0209582Y0012937D01*
X0209707Y0012933D01*
X0209832Y0012925D01*
X0209956Y0012913D01*
X0210080Y0012897D01*
X0210204Y0012877D01*
X0210326Y0012854D01*
X0210448Y0012826D01*
X0210569Y0012795D01*
X0210689Y0012759D01*
X0210808Y0012720D01*
X0210925Y0012678D01*
X0211041Y0012631D01*
X0211155Y0012581D01*
X0211268Y0012528D01*
X0211379Y0012470D01*
X0211489Y0012410D01*
X0211596Y0012345D01*
X0211701Y0012278D01*
X0211804Y0012207D01*
X0211904Y0012133D01*
X0212002Y0012056D01*
X0212098Y0011975D01*
X0212191Y0011892D01*
X0212282Y0011806D01*
X0212369Y0011717D01*
X0212454Y0011625D01*
X0212536Y0011531D01*
X0212615Y0011434D01*
X0212690Y0011334D01*
X0212763Y0011233D01*
X0212832Y0011129D01*
X0212898Y0011022D01*
X0212960Y0010914D01*
X0213019Y0010804D01*
X0213075Y0010692D01*
X0213127Y0010578D01*
X0213175Y0010463D01*
X0213220Y0010347D01*
X0213260Y0010228D01*
X0213298Y0010109D01*
X0213331Y0009989D01*
X0213360Y0009867D01*
X0213386Y0009745D01*
X0213408Y0009622D01*
X0213425Y0009498D01*
X0213439Y0009374D01*
X0213449Y0009250D01*
X0213455Y0009125D01*
X0213457Y0009000D01*
X0213455Y0008875D01*
X0213449Y0008750D01*
X0213439Y0008626D01*
X0213425Y0008502D01*
X0213408Y0008378D01*
X0213386Y0008255D01*
X0213360Y0008133D01*
X0213331Y0008011D01*
X0213298Y0007891D01*
X0213260Y0007772D01*
X0213220Y0007653D01*
X0213175Y0007537D01*
X0213127Y0007422D01*
X0213075Y0007308D01*
X0213019Y0007196D01*
X0212960Y0007086D01*
X0212898Y0006978D01*
X0212832Y0006871D01*
X0212763Y0006767D01*
X0212690Y0006666D01*
X0212615Y0006566D01*
X0212536Y0006469D01*
X0212454Y0006375D01*
X0212369Y0006283D01*
X0212282Y0006194D01*
X0212191Y0006108D01*
X0212098Y0006025D01*
X0212002Y0005944D01*
X0211904Y0005867D01*
X0211804Y0005793D01*
X0211701Y0005722D01*
X0211596Y0005655D01*
X0211488Y0005590D01*
X0211379Y0005530D01*
X0211268Y0005472D01*
X0211155Y0005419D01*
X0211041Y0005369D01*
X0210925Y0005322D01*
X0210808Y0005280D01*
X0210689Y0005241D01*
X0210569Y0005205D01*
X0210448Y0005174D01*
X0210326Y0005146D01*
X0210204Y0005123D01*
X0210080Y0005103D01*
X0209956Y0005087D01*
X0209832Y0005075D01*
X0209707Y0005067D01*
X0209582Y0005063D01*
X0209458Y0005063D01*
X0209333Y0005067D01*
X0209208Y0005075D01*
X0209084Y0005087D01*
X0208960Y0005103D01*
X0208836Y0005123D01*
X0208714Y0005146D01*
X0208592Y0005174D01*
X0208471Y0005205D01*
X0208351Y0005241D01*
X0208232Y0005280D01*
X0208115Y0005322D01*
X0207999Y0005369D01*
X0207885Y0005419D01*
X0207772Y0005472D01*
X0207661Y0005530D01*
X0207551Y0005590D01*
X0207444Y0005655D01*
X0207339Y0005722D01*
X0207236Y0005793D01*
X0207136Y0005867D01*
X0207038Y0005944D01*
X0206942Y0006025D01*
X0206849Y0006108D01*
X0206758Y0006194D01*
X0206671Y0006283D01*
X0206586Y0006375D01*
X0206504Y0006469D01*
X0206425Y0006566D01*
X0206350Y0006666D01*
X0206277Y0006767D01*
X0206208Y0006871D01*
X0206142Y0006978D01*
X0206080Y0007086D01*
X0206021Y0007196D01*
X0205965Y0007308D01*
X0205913Y0007422D01*
X0205865Y0007537D01*
X0205820Y0007653D01*
X0205780Y0007772D01*
X0205742Y0007891D01*
X0205709Y0008011D01*
X0205680Y0008133D01*
X0205654Y0008255D01*
X0205632Y0008378D01*
X0205615Y0008502D01*
X0205601Y0008626D01*
X0205591Y0008750D01*
X0205585Y0008875D01*
X0205583Y0009000D01*
X0205583Y0197000D02*
X0205585Y0197125D01*
X0205591Y0197250D01*
X0205601Y0197374D01*
X0205615Y0197498D01*
X0205632Y0197622D01*
X0205654Y0197745D01*
X0205680Y0197867D01*
X0205709Y0197989D01*
X0205742Y0198109D01*
X0205780Y0198228D01*
X0205820Y0198347D01*
X0205865Y0198463D01*
X0205913Y0198578D01*
X0205965Y0198692D01*
X0206021Y0198804D01*
X0206080Y0198914D01*
X0206142Y0199022D01*
X0206208Y0199129D01*
X0206277Y0199233D01*
X0206350Y0199334D01*
X0206425Y0199434D01*
X0206504Y0199531D01*
X0206586Y0199625D01*
X0206671Y0199717D01*
X0206758Y0199806D01*
X0206849Y0199892D01*
X0206942Y0199975D01*
X0207038Y0200056D01*
X0207136Y0200133D01*
X0207236Y0200207D01*
X0207339Y0200278D01*
X0207444Y0200345D01*
X0207552Y0200410D01*
X0207661Y0200470D01*
X0207772Y0200528D01*
X0207885Y0200581D01*
X0207999Y0200631D01*
X0208115Y0200678D01*
X0208232Y0200720D01*
X0208351Y0200759D01*
X0208471Y0200795D01*
X0208592Y0200826D01*
X0208714Y0200854D01*
X0208836Y0200877D01*
X0208960Y0200897D01*
X0209084Y0200913D01*
X0209208Y0200925D01*
X0209333Y0200933D01*
X0209458Y0200937D01*
X0209582Y0200937D01*
X0209707Y0200933D01*
X0209832Y0200925D01*
X0209956Y0200913D01*
X0210080Y0200897D01*
X0210204Y0200877D01*
X0210326Y0200854D01*
X0210448Y0200826D01*
X0210569Y0200795D01*
X0210689Y0200759D01*
X0210808Y0200720D01*
X0210925Y0200678D01*
X0211041Y0200631D01*
X0211155Y0200581D01*
X0211268Y0200528D01*
X0211379Y0200470D01*
X0211489Y0200410D01*
X0211596Y0200345D01*
X0211701Y0200278D01*
X0211804Y0200207D01*
X0211904Y0200133D01*
X0212002Y0200056D01*
X0212098Y0199975D01*
X0212191Y0199892D01*
X0212282Y0199806D01*
X0212369Y0199717D01*
X0212454Y0199625D01*
X0212536Y0199531D01*
X0212615Y0199434D01*
X0212690Y0199334D01*
X0212763Y0199233D01*
X0212832Y0199129D01*
X0212898Y0199022D01*
X0212960Y0198914D01*
X0213019Y0198804D01*
X0213075Y0198692D01*
X0213127Y0198578D01*
X0213175Y0198463D01*
X0213220Y0198347D01*
X0213260Y0198228D01*
X0213298Y0198109D01*
X0213331Y0197989D01*
X0213360Y0197867D01*
X0213386Y0197745D01*
X0213408Y0197622D01*
X0213425Y0197498D01*
X0213439Y0197374D01*
X0213449Y0197250D01*
X0213455Y0197125D01*
X0213457Y0197000D01*
X0213455Y0196875D01*
X0213449Y0196750D01*
X0213439Y0196626D01*
X0213425Y0196502D01*
X0213408Y0196378D01*
X0213386Y0196255D01*
X0213360Y0196133D01*
X0213331Y0196011D01*
X0213298Y0195891D01*
X0213260Y0195772D01*
X0213220Y0195653D01*
X0213175Y0195537D01*
X0213127Y0195422D01*
X0213075Y0195308D01*
X0213019Y0195196D01*
X0212960Y0195086D01*
X0212898Y0194978D01*
X0212832Y0194871D01*
X0212763Y0194767D01*
X0212690Y0194666D01*
X0212615Y0194566D01*
X0212536Y0194469D01*
X0212454Y0194375D01*
X0212369Y0194283D01*
X0212282Y0194194D01*
X0212191Y0194108D01*
X0212098Y0194025D01*
X0212002Y0193944D01*
X0211904Y0193867D01*
X0211804Y0193793D01*
X0211701Y0193722D01*
X0211596Y0193655D01*
X0211488Y0193590D01*
X0211379Y0193530D01*
X0211268Y0193472D01*
X0211155Y0193419D01*
X0211041Y0193369D01*
X0210925Y0193322D01*
X0210808Y0193280D01*
X0210689Y0193241D01*
X0210569Y0193205D01*
X0210448Y0193174D01*
X0210326Y0193146D01*
X0210204Y0193123D01*
X0210080Y0193103D01*
X0209956Y0193087D01*
X0209832Y0193075D01*
X0209707Y0193067D01*
X0209582Y0193063D01*
X0209458Y0193063D01*
X0209333Y0193067D01*
X0209208Y0193075D01*
X0209084Y0193087D01*
X0208960Y0193103D01*
X0208836Y0193123D01*
X0208714Y0193146D01*
X0208592Y0193174D01*
X0208471Y0193205D01*
X0208351Y0193241D01*
X0208232Y0193280D01*
X0208115Y0193322D01*
X0207999Y0193369D01*
X0207885Y0193419D01*
X0207772Y0193472D01*
X0207661Y0193530D01*
X0207551Y0193590D01*
X0207444Y0193655D01*
X0207339Y0193722D01*
X0207236Y0193793D01*
X0207136Y0193867D01*
X0207038Y0193944D01*
X0206942Y0194025D01*
X0206849Y0194108D01*
X0206758Y0194194D01*
X0206671Y0194283D01*
X0206586Y0194375D01*
X0206504Y0194469D01*
X0206425Y0194566D01*
X0206350Y0194666D01*
X0206277Y0194767D01*
X0206208Y0194871D01*
X0206142Y0194978D01*
X0206080Y0195086D01*
X0206021Y0195196D01*
X0205965Y0195308D01*
X0205913Y0195422D01*
X0205865Y0195537D01*
X0205820Y0195653D01*
X0205780Y0195772D01*
X0205742Y0195891D01*
X0205709Y0196011D01*
X0205680Y0196133D01*
X0205654Y0196255D01*
X0205632Y0196378D01*
X0205615Y0196502D01*
X0205601Y0196626D01*
X0205591Y0196750D01*
X0205585Y0196875D01*
X0205583Y0197000D01*
X0062583Y0197000D02*
X0062585Y0197125D01*
X0062591Y0197250D01*
X0062601Y0197374D01*
X0062615Y0197498D01*
X0062632Y0197622D01*
X0062654Y0197745D01*
X0062680Y0197867D01*
X0062709Y0197989D01*
X0062742Y0198109D01*
X0062780Y0198228D01*
X0062820Y0198347D01*
X0062865Y0198463D01*
X0062913Y0198578D01*
X0062965Y0198692D01*
X0063021Y0198804D01*
X0063080Y0198914D01*
X0063142Y0199022D01*
X0063208Y0199129D01*
X0063277Y0199233D01*
X0063350Y0199334D01*
X0063425Y0199434D01*
X0063504Y0199531D01*
X0063586Y0199625D01*
X0063671Y0199717D01*
X0063758Y0199806D01*
X0063849Y0199892D01*
X0063942Y0199975D01*
X0064038Y0200056D01*
X0064136Y0200133D01*
X0064236Y0200207D01*
X0064339Y0200278D01*
X0064444Y0200345D01*
X0064552Y0200410D01*
X0064661Y0200470D01*
X0064772Y0200528D01*
X0064885Y0200581D01*
X0064999Y0200631D01*
X0065115Y0200678D01*
X0065232Y0200720D01*
X0065351Y0200759D01*
X0065471Y0200795D01*
X0065592Y0200826D01*
X0065714Y0200854D01*
X0065836Y0200877D01*
X0065960Y0200897D01*
X0066084Y0200913D01*
X0066208Y0200925D01*
X0066333Y0200933D01*
X0066458Y0200937D01*
X0066582Y0200937D01*
X0066707Y0200933D01*
X0066832Y0200925D01*
X0066956Y0200913D01*
X0067080Y0200897D01*
X0067204Y0200877D01*
X0067326Y0200854D01*
X0067448Y0200826D01*
X0067569Y0200795D01*
X0067689Y0200759D01*
X0067808Y0200720D01*
X0067925Y0200678D01*
X0068041Y0200631D01*
X0068155Y0200581D01*
X0068268Y0200528D01*
X0068379Y0200470D01*
X0068489Y0200410D01*
X0068596Y0200345D01*
X0068701Y0200278D01*
X0068804Y0200207D01*
X0068904Y0200133D01*
X0069002Y0200056D01*
X0069098Y0199975D01*
X0069191Y0199892D01*
X0069282Y0199806D01*
X0069369Y0199717D01*
X0069454Y0199625D01*
X0069536Y0199531D01*
X0069615Y0199434D01*
X0069690Y0199334D01*
X0069763Y0199233D01*
X0069832Y0199129D01*
X0069898Y0199022D01*
X0069960Y0198914D01*
X0070019Y0198804D01*
X0070075Y0198692D01*
X0070127Y0198578D01*
X0070175Y0198463D01*
X0070220Y0198347D01*
X0070260Y0198228D01*
X0070298Y0198109D01*
X0070331Y0197989D01*
X0070360Y0197867D01*
X0070386Y0197745D01*
X0070408Y0197622D01*
X0070425Y0197498D01*
X0070439Y0197374D01*
X0070449Y0197250D01*
X0070455Y0197125D01*
X0070457Y0197000D01*
X0070455Y0196875D01*
X0070449Y0196750D01*
X0070439Y0196626D01*
X0070425Y0196502D01*
X0070408Y0196378D01*
X0070386Y0196255D01*
X0070360Y0196133D01*
X0070331Y0196011D01*
X0070298Y0195891D01*
X0070260Y0195772D01*
X0070220Y0195653D01*
X0070175Y0195537D01*
X0070127Y0195422D01*
X0070075Y0195308D01*
X0070019Y0195196D01*
X0069960Y0195086D01*
X0069898Y0194978D01*
X0069832Y0194871D01*
X0069763Y0194767D01*
X0069690Y0194666D01*
X0069615Y0194566D01*
X0069536Y0194469D01*
X0069454Y0194375D01*
X0069369Y0194283D01*
X0069282Y0194194D01*
X0069191Y0194108D01*
X0069098Y0194025D01*
X0069002Y0193944D01*
X0068904Y0193867D01*
X0068804Y0193793D01*
X0068701Y0193722D01*
X0068596Y0193655D01*
X0068488Y0193590D01*
X0068379Y0193530D01*
X0068268Y0193472D01*
X0068155Y0193419D01*
X0068041Y0193369D01*
X0067925Y0193322D01*
X0067808Y0193280D01*
X0067689Y0193241D01*
X0067569Y0193205D01*
X0067448Y0193174D01*
X0067326Y0193146D01*
X0067204Y0193123D01*
X0067080Y0193103D01*
X0066956Y0193087D01*
X0066832Y0193075D01*
X0066707Y0193067D01*
X0066582Y0193063D01*
X0066458Y0193063D01*
X0066333Y0193067D01*
X0066208Y0193075D01*
X0066084Y0193087D01*
X0065960Y0193103D01*
X0065836Y0193123D01*
X0065714Y0193146D01*
X0065592Y0193174D01*
X0065471Y0193205D01*
X0065351Y0193241D01*
X0065232Y0193280D01*
X0065115Y0193322D01*
X0064999Y0193369D01*
X0064885Y0193419D01*
X0064772Y0193472D01*
X0064661Y0193530D01*
X0064551Y0193590D01*
X0064444Y0193655D01*
X0064339Y0193722D01*
X0064236Y0193793D01*
X0064136Y0193867D01*
X0064038Y0193944D01*
X0063942Y0194025D01*
X0063849Y0194108D01*
X0063758Y0194194D01*
X0063671Y0194283D01*
X0063586Y0194375D01*
X0063504Y0194469D01*
X0063425Y0194566D01*
X0063350Y0194666D01*
X0063277Y0194767D01*
X0063208Y0194871D01*
X0063142Y0194978D01*
X0063080Y0195086D01*
X0063021Y0195196D01*
X0062965Y0195308D01*
X0062913Y0195422D01*
X0062865Y0195537D01*
X0062820Y0195653D01*
X0062780Y0195772D01*
X0062742Y0195891D01*
X0062709Y0196011D01*
X0062680Y0196133D01*
X0062654Y0196255D01*
X0062632Y0196378D01*
X0062615Y0196502D01*
X0062601Y0196626D01*
X0062591Y0196750D01*
X0062585Y0196875D01*
X0062583Y0197000D01*
D11*
X0039838Y0121853D02*
X0040455Y0121236D01*
X0040455Y0120619D01*
X0039838Y0120002D01*
X0040455Y0119384D01*
X0040455Y0118767D01*
X0039838Y0118150D01*
X0038604Y0118150D01*
X0037987Y0118767D01*
X0036772Y0118150D02*
X0034303Y0118150D01*
X0036772Y0120619D01*
X0036772Y0121236D01*
X0036155Y0121853D01*
X0034921Y0121853D01*
X0034303Y0121236D01*
X0033089Y0121236D02*
X0032472Y0121853D01*
X0031237Y0121853D01*
X0030620Y0121236D01*
X0030620Y0118767D01*
X0031237Y0118150D01*
X0032472Y0118150D01*
X0033089Y0118767D01*
X0037987Y0121236D02*
X0038604Y0121853D01*
X0039838Y0121853D01*
X0039838Y0120002D02*
X0039221Y0120002D01*
X0100303Y0112236D02*
X0100303Y0109767D01*
X0100921Y0109150D01*
X0102155Y0109150D01*
X0102772Y0109767D01*
X0103987Y0109767D02*
X0103987Y0109150D01*
X0103987Y0109767D02*
X0106455Y0112236D01*
X0106455Y0112853D01*
X0103987Y0112853D01*
X0102772Y0112236D02*
X0102155Y0112853D01*
X0100921Y0112853D01*
X0100303Y0112236D01*
X0101921Y0101853D02*
X0101303Y0101236D01*
X0101303Y0098767D01*
X0101921Y0098150D01*
X0103155Y0098150D01*
X0103772Y0098767D01*
X0104987Y0098767D02*
X0105604Y0098150D01*
X0106838Y0098150D01*
X0107455Y0098767D01*
X0107455Y0099384D01*
X0106838Y0100002D01*
X0104987Y0100002D01*
X0104987Y0098767D01*
X0104987Y0100002D02*
X0106221Y0101236D01*
X0107455Y0101853D01*
X0103772Y0101236D02*
X0103155Y0101853D01*
X0101921Y0101853D01*
X0112670Y0104767D02*
X0113287Y0104150D01*
X0114521Y0104150D01*
X0115138Y0104767D01*
X0116353Y0104150D02*
X0118822Y0106619D01*
X0118822Y0107236D01*
X0118204Y0107853D01*
X0116970Y0107853D01*
X0116353Y0107236D01*
X0115138Y0107236D02*
X0114521Y0107853D01*
X0113287Y0107853D01*
X0112670Y0107236D01*
X0112670Y0104767D01*
X0116353Y0104150D02*
X0118822Y0104150D01*
X0120036Y0106002D02*
X0122505Y0106002D01*
X0121888Y0107853D02*
X0121888Y0104150D01*
X0120036Y0106002D02*
X0121888Y0107853D01*
X0138512Y0102094D02*
X0138512Y0101410D01*
X0139197Y0100726D01*
X0139881Y0100726D01*
X0141591Y0102436D01*
X0141964Y0101378D02*
X0142648Y0101378D01*
X0143332Y0100694D01*
X0143332Y0100010D01*
X0142990Y0099668D01*
X0142306Y0099668D01*
X0142306Y0098984D01*
X0141964Y0098642D01*
X0141280Y0098642D01*
X0140596Y0099326D01*
X0140596Y0100010D01*
X0141964Y0100010D02*
X0142306Y0099668D01*
X0138512Y0102094D02*
X0140223Y0103804D01*
X0110270Y0089853D02*
X0110270Y0086150D01*
X0109036Y0086150D02*
X0111505Y0086150D01*
X0109036Y0088619D02*
X0110270Y0089853D01*
X0106587Y0089853D02*
X0106587Y0086150D01*
X0105353Y0086150D02*
X0107822Y0086150D01*
X0105353Y0088619D02*
X0106587Y0089853D01*
X0104138Y0089236D02*
X0104138Y0088002D01*
X0103521Y0087384D01*
X0101670Y0087384D01*
X0101670Y0086150D02*
X0101670Y0089853D01*
X0103521Y0089853D01*
X0104138Y0089236D01*
X0102904Y0087384D02*
X0104138Y0086150D01*
X0102521Y0074853D02*
X0101287Y0074853D01*
X0100670Y0074236D01*
X0100670Y0071767D01*
X0101287Y0071150D01*
X0102521Y0071150D01*
X0103138Y0071767D01*
X0104353Y0073002D02*
X0106822Y0073002D01*
X0106204Y0074853D02*
X0106204Y0071150D01*
X0104353Y0073002D02*
X0106204Y0074853D01*
X0103138Y0074236D02*
X0102521Y0074853D01*
X0102371Y0059453D02*
X0100520Y0059453D01*
X0100520Y0055750D01*
X0100520Y0056984D02*
X0102371Y0056984D01*
X0102988Y0057602D01*
X0102988Y0058836D01*
X0102371Y0059453D01*
X0104203Y0058219D02*
X0105437Y0059453D01*
X0105437Y0055750D01*
X0104203Y0055750D02*
X0106672Y0055750D01*
X0102988Y0055750D02*
X0101754Y0056984D01*
X0102670Y0049853D02*
X0104521Y0049853D01*
X0105138Y0049236D01*
X0105138Y0048619D01*
X0104521Y0048002D01*
X0102670Y0048002D01*
X0102670Y0049853D02*
X0102670Y0046150D01*
X0104521Y0046150D01*
X0105138Y0046767D01*
X0105138Y0047384D01*
X0104521Y0048002D01*
X0106353Y0049853D02*
X0106353Y0046150D01*
X0108822Y0046150D01*
X0110036Y0046767D02*
X0110653Y0046150D01*
X0111888Y0046150D01*
X0112505Y0046767D01*
X0112505Y0049853D01*
X0110036Y0049853D02*
X0110036Y0046767D01*
X0113719Y0045533D02*
X0116188Y0045533D01*
X0117402Y0046767D02*
X0118019Y0046150D01*
X0119254Y0046150D01*
X0119871Y0046767D01*
X0119871Y0047384D01*
X0119254Y0048002D01*
X0118019Y0048002D01*
X0117402Y0048619D01*
X0117402Y0049236D01*
X0118019Y0049853D01*
X0119254Y0049853D01*
X0119871Y0049236D01*
X0121085Y0049853D02*
X0123554Y0049853D01*
X0122320Y0049853D02*
X0122320Y0046150D01*
X0124769Y0046150D02*
X0124769Y0048619D01*
X0126003Y0049853D01*
X0127237Y0048619D01*
X0127237Y0046150D01*
X0127237Y0048002D02*
X0124769Y0048002D01*
X0128452Y0049853D02*
X0130920Y0049853D01*
X0132135Y0049853D02*
X0132135Y0046150D01*
X0134604Y0046150D01*
X0133369Y0048002D02*
X0132135Y0048002D01*
X0132135Y0049853D02*
X0134604Y0049853D01*
X0129686Y0049853D02*
X0129686Y0046150D01*
X0134905Y0037853D02*
X0136756Y0037853D01*
X0137373Y0037236D01*
X0137373Y0036619D01*
X0136756Y0036002D01*
X0134905Y0036002D01*
X0136756Y0036002D02*
X0137373Y0035384D01*
X0137373Y0034767D01*
X0136756Y0034150D01*
X0134905Y0034150D01*
X0134905Y0037853D01*
X0138588Y0037853D02*
X0138588Y0034150D01*
X0141056Y0034150D01*
X0142271Y0034150D02*
X0144740Y0034150D01*
X0145954Y0033533D02*
X0148423Y0033533D01*
X0149637Y0034767D02*
X0150254Y0034150D01*
X0151489Y0034150D01*
X0152106Y0034767D01*
X0153320Y0034767D02*
X0153937Y0034150D01*
X0155172Y0034150D01*
X0155789Y0034767D01*
X0155789Y0037236D01*
X0155172Y0037853D01*
X0153937Y0037853D01*
X0153320Y0037236D01*
X0153320Y0034767D01*
X0152106Y0037236D02*
X0151489Y0037853D01*
X0150254Y0037853D01*
X0149637Y0037236D01*
X0149637Y0034767D01*
X0144740Y0037853D02*
X0142271Y0037853D01*
X0142271Y0034150D01*
X0142271Y0036002D02*
X0143505Y0036002D01*
X0145260Y0024086D02*
X0145260Y0021617D01*
X0145260Y0022851D02*
X0141557Y0022851D01*
X0142791Y0021617D01*
X0157003Y0034150D02*
X0157003Y0037853D01*
X0159472Y0034150D01*
X0159472Y0037853D01*
X0160687Y0037853D02*
X0163155Y0034150D01*
X0163155Y0037853D01*
X0160687Y0037853D02*
X0160687Y0034150D01*
X0173903Y0033850D02*
X0173903Y0037553D01*
X0175755Y0037553D01*
X0176372Y0036936D01*
X0176372Y0035702D01*
X0175755Y0035084D01*
X0173903Y0035084D01*
X0175138Y0035084D02*
X0176372Y0033850D01*
X0176420Y0033700D02*
X0179556Y0030564D01*
X0179556Y0032132D02*
X0176420Y0032132D01*
X0176420Y0030564D02*
X0179556Y0033700D01*
X0179438Y0033850D02*
X0180055Y0034467D01*
X0180055Y0036936D01*
X0179438Y0037553D01*
X0178204Y0037553D01*
X0177587Y0036936D01*
X0177587Y0036319D01*
X0178204Y0035702D01*
X0180055Y0035702D01*
X0179438Y0033850D02*
X0178204Y0033850D01*
X0177587Y0034467D01*
X0177988Y0033700D02*
X0177988Y0030564D01*
X0198370Y0034567D02*
X0198987Y0033950D01*
X0200221Y0033950D01*
X0200838Y0034567D01*
X0202053Y0033950D02*
X0204522Y0033950D01*
X0203287Y0033950D02*
X0203287Y0037653D01*
X0202053Y0036419D01*
X0200838Y0037036D02*
X0200221Y0037653D01*
X0198987Y0037653D01*
X0198370Y0037036D01*
X0198370Y0034567D01*
X0203520Y0028884D02*
X0203520Y0024964D01*
X0204304Y0024180D01*
X0205872Y0024180D01*
X0206656Y0024964D01*
X0206656Y0028884D01*
X0208124Y0028100D02*
X0208908Y0028884D01*
X0210476Y0028884D01*
X0211260Y0028100D01*
X0211260Y0027316D01*
X0208124Y0024180D01*
X0211260Y0024180D01*
X0212089Y0056150D02*
X0210855Y0057384D01*
X0211472Y0057384D02*
X0209620Y0057384D01*
X0209620Y0056150D02*
X0209620Y0059853D01*
X0211472Y0059853D01*
X0212089Y0059236D01*
X0212089Y0058002D01*
X0211472Y0057384D01*
X0213303Y0056150D02*
X0215772Y0056150D01*
X0214538Y0056150D02*
X0214538Y0059853D01*
X0213303Y0058619D01*
X0216987Y0058619D02*
X0217604Y0058002D01*
X0219455Y0058002D01*
X0219455Y0059236D02*
X0218838Y0059853D01*
X0217604Y0059853D01*
X0216987Y0059236D01*
X0216987Y0058619D01*
X0216987Y0056767D02*
X0217604Y0056150D01*
X0218838Y0056150D01*
X0219455Y0056767D01*
X0219455Y0059236D01*
X0219888Y0073150D02*
X0218653Y0073150D01*
X0218036Y0073767D01*
X0220505Y0076236D01*
X0220505Y0073767D01*
X0219888Y0073150D01*
X0218036Y0073767D02*
X0218036Y0076236D01*
X0218653Y0076853D01*
X0219888Y0076853D01*
X0220505Y0076236D01*
X0216822Y0073150D02*
X0214353Y0073150D01*
X0213138Y0073150D02*
X0211904Y0074384D01*
X0212521Y0074384D02*
X0210670Y0074384D01*
X0210670Y0073150D02*
X0210670Y0076853D01*
X0212521Y0076853D01*
X0213138Y0076236D01*
X0213138Y0075002D01*
X0212521Y0074384D01*
X0214353Y0075619D02*
X0215587Y0076853D01*
X0215587Y0073150D01*
X0167455Y0058236D02*
X0167455Y0057619D01*
X0164987Y0055150D01*
X0167455Y0055150D01*
X0163772Y0055150D02*
X0162538Y0056384D01*
X0163155Y0056384D02*
X0161303Y0056384D01*
X0161303Y0055150D02*
X0161303Y0058853D01*
X0163155Y0058853D01*
X0163772Y0058236D01*
X0163772Y0057002D01*
X0163155Y0056384D01*
X0164987Y0058236D02*
X0165604Y0058853D01*
X0166838Y0058853D01*
X0167455Y0058236D01*
X0107455Y0039853D02*
X0106221Y0039236D01*
X0104987Y0038002D01*
X0106838Y0038002D01*
X0107455Y0037384D01*
X0107455Y0036767D01*
X0106838Y0036150D01*
X0105604Y0036150D01*
X0104987Y0036767D01*
X0104987Y0038002D01*
X0103772Y0038002D02*
X0103155Y0037384D01*
X0101303Y0037384D01*
X0101303Y0036150D02*
X0101303Y0039853D01*
X0103155Y0039853D01*
X0103772Y0039236D01*
X0103772Y0038002D01*
X0102538Y0037384D02*
X0103772Y0036150D01*
D12*
X0133810Y0032150D02*
X0133810Y0007150D01*
X0159010Y0007150D01*
X0159010Y0032150D01*
X0133810Y0032150D01*
X0138410Y0027650D02*
X0154410Y0027650D01*
X0154410Y0021650D01*
X0138410Y0021650D01*
X0138410Y0027650D01*
X0138410Y0017650D02*
X0154410Y0017650D01*
X0154410Y0011650D01*
X0138410Y0011650D01*
X0138410Y0017650D01*
X0142106Y0054363D02*
X0142108Y0054438D01*
X0142114Y0054512D01*
X0142124Y0054586D01*
X0142137Y0054659D01*
X0142155Y0054732D01*
X0142176Y0054803D01*
X0142201Y0054874D01*
X0142230Y0054943D01*
X0142263Y0055010D01*
X0142299Y0055075D01*
X0142338Y0055139D01*
X0142380Y0055200D01*
X0142426Y0055259D01*
X0142475Y0055316D01*
X0142527Y0055369D01*
X0142581Y0055420D01*
X0142638Y0055469D01*
X0142698Y0055513D01*
X0142760Y0055555D01*
X0142824Y0055594D01*
X0142890Y0055629D01*
X0142957Y0055660D01*
X0143027Y0055688D01*
X0143097Y0055712D01*
X0143169Y0055733D01*
X0143242Y0055749D01*
X0143315Y0055762D01*
X0143390Y0055771D01*
X0143464Y0055776D01*
X0143539Y0055777D01*
X0143613Y0055774D01*
X0143688Y0055767D01*
X0143761Y0055756D01*
X0143835Y0055742D01*
X0143907Y0055723D01*
X0143978Y0055701D01*
X0144048Y0055675D01*
X0144117Y0055645D01*
X0144183Y0055612D01*
X0144248Y0055575D01*
X0144311Y0055535D01*
X0144372Y0055491D01*
X0144430Y0055445D01*
X0144486Y0055395D01*
X0144539Y0055343D01*
X0144590Y0055288D01*
X0144637Y0055230D01*
X0144681Y0055170D01*
X0144722Y0055107D01*
X0144760Y0055043D01*
X0144794Y0054977D01*
X0144825Y0054908D01*
X0144852Y0054839D01*
X0144875Y0054768D01*
X0144894Y0054696D01*
X0144910Y0054623D01*
X0144922Y0054549D01*
X0144930Y0054475D01*
X0144934Y0054400D01*
X0144934Y0054326D01*
X0144930Y0054251D01*
X0144922Y0054177D01*
X0144910Y0054103D01*
X0144894Y0054030D01*
X0144875Y0053958D01*
X0144852Y0053887D01*
X0144825Y0053818D01*
X0144794Y0053749D01*
X0144760Y0053683D01*
X0144722Y0053619D01*
X0144681Y0053556D01*
X0144637Y0053496D01*
X0144590Y0053438D01*
X0144539Y0053383D01*
X0144486Y0053331D01*
X0144430Y0053281D01*
X0144372Y0053235D01*
X0144311Y0053191D01*
X0144248Y0053151D01*
X0144183Y0053114D01*
X0144117Y0053081D01*
X0144048Y0053051D01*
X0143978Y0053025D01*
X0143907Y0053003D01*
X0143835Y0052984D01*
X0143761Y0052970D01*
X0143688Y0052959D01*
X0143613Y0052952D01*
X0143539Y0052949D01*
X0143464Y0052950D01*
X0143390Y0052955D01*
X0143315Y0052964D01*
X0143242Y0052977D01*
X0143169Y0052993D01*
X0143097Y0053014D01*
X0143027Y0053038D01*
X0142957Y0053066D01*
X0142890Y0053097D01*
X0142824Y0053132D01*
X0142760Y0053171D01*
X0142698Y0053213D01*
X0142638Y0053257D01*
X0142581Y0053306D01*
X0142527Y0053357D01*
X0142475Y0053410D01*
X0142426Y0053467D01*
X0142380Y0053526D01*
X0142338Y0053587D01*
X0142299Y0053651D01*
X0142263Y0053716D01*
X0142230Y0053783D01*
X0142201Y0053852D01*
X0142176Y0053923D01*
X0142155Y0053994D01*
X0142137Y0054067D01*
X0142124Y0054140D01*
X0142114Y0054214D01*
X0142108Y0054288D01*
X0142106Y0054363D01*
X0142531Y0057473D02*
X0144508Y0057473D01*
X0163035Y0076000D01*
X0143520Y0095515D01*
X0124005Y0076000D01*
X0142531Y0057473D01*
X0180870Y0030930D02*
X0197670Y0030930D01*
X0197670Y0010130D02*
X0180870Y0010130D01*
X0202020Y0124000D02*
X0199520Y0126500D01*
X0199520Y0131500D01*
X0202020Y0134000D01*
X0199520Y0136500D01*
X0199520Y0141500D01*
X0202020Y0144000D01*
X0207020Y0144000D01*
X0209520Y0141500D01*
X0209520Y0136500D01*
X0207020Y0134000D01*
X0209520Y0131500D01*
X0209520Y0126500D01*
X0207020Y0124000D01*
X0202020Y0124000D01*
X0202020Y0134000D02*
X0207020Y0134000D01*
X0029520Y0132500D02*
X0027020Y0130000D01*
X0029520Y0127500D01*
X0029520Y0122500D01*
X0027020Y0120000D01*
X0022020Y0120000D01*
X0019520Y0122500D01*
X0019520Y0127500D01*
X0022020Y0130000D01*
X0019520Y0132500D01*
X0019520Y0137500D01*
X0022020Y0140000D01*
X0019520Y0142500D01*
X0019520Y0147500D01*
X0022020Y0150000D01*
X0019520Y0152500D01*
X0019520Y0157500D01*
X0022020Y0160000D01*
X0027020Y0160000D01*
X0029520Y0157500D01*
X0029520Y0152500D01*
X0027020Y0150000D01*
X0029520Y0147500D01*
X0029520Y0142500D01*
X0027020Y0140000D01*
X0022020Y0140000D01*
X0027020Y0140000D02*
X0029520Y0137500D01*
X0029520Y0132500D01*
X0027020Y0130000D02*
X0022020Y0130000D01*
X0022020Y0150000D02*
X0027020Y0150000D01*
D13*
X0151410Y0024650D03*
X0151410Y0014650D03*
D14*
X0170343Y0151244D02*
X0170343Y0155456D01*
X0099714Y0153350D02*
X0095501Y0153350D01*
X0097607Y0151244D02*
X0097607Y0155456D01*
D15*
X0090186Y0166342D02*
X0077588Y0166342D01*
X0077588Y0166145D02*
X0077588Y0140555D01*
X0077588Y0140358D02*
X0090186Y0140358D01*
X0062921Y0138504D02*
X0038118Y0138504D01*
X0038118Y0151496D01*
X0062921Y0151496D01*
X0062921Y0138504D01*
X0070110Y0108953D02*
X0018929Y0108953D01*
X0018929Y0003047D01*
X0070110Y0003047D01*
X0070110Y0108953D01*
X0018220Y0134362D02*
X0018220Y0137364D01*
X0016719Y0138966D02*
X0017470Y0139716D01*
X0017470Y0141218D01*
X0016719Y0141968D01*
X0015968Y0141968D01*
X0015218Y0141218D01*
X0015218Y0139716D01*
X0014467Y0138966D01*
X0013716Y0138966D01*
X0012966Y0139716D01*
X0012966Y0141218D01*
X0013716Y0141968D01*
X0012966Y0143570D02*
X0012966Y0146572D01*
X0012966Y0145071D02*
X0017470Y0145071D01*
X0017470Y0148174D02*
X0012966Y0148174D01*
X0012966Y0150425D01*
X0013716Y0151176D01*
X0015218Y0151176D01*
X0015968Y0150425D01*
X0015968Y0148174D01*
X0015968Y0149675D02*
X0017470Y0151176D01*
X0017470Y0152777D02*
X0017470Y0154279D01*
X0017470Y0153528D02*
X0012966Y0153528D01*
X0012966Y0152777D02*
X0012966Y0154279D01*
X0012966Y0155847D02*
X0012966Y0158099D01*
X0013716Y0158849D01*
X0015218Y0158849D01*
X0015968Y0158099D01*
X0015968Y0155847D01*
X0017470Y0155847D02*
X0012966Y0155847D01*
X0013716Y0132760D02*
X0012966Y0132010D01*
X0012966Y0129758D01*
X0017470Y0129758D01*
X0017470Y0132010D01*
X0016719Y0132760D01*
X0013716Y0132760D01*
X0012966Y0128156D02*
X0012966Y0125154D01*
X0017470Y0125154D01*
X0017470Y0128156D01*
X0015218Y0126655D02*
X0015218Y0125154D01*
X0017470Y0123553D02*
X0017470Y0120550D01*
X0012966Y0120550D01*
X0088336Y0153350D02*
X0088349Y0154413D01*
X0088388Y0155475D01*
X0088453Y0156536D01*
X0088545Y0157595D01*
X0088662Y0158651D01*
X0088805Y0159704D01*
X0088974Y0160754D01*
X0089168Y0161799D01*
X0089388Y0162839D01*
X0089634Y0163873D01*
X0089905Y0164901D01*
X0090201Y0165921D01*
X0090522Y0166935D01*
X0090868Y0167940D01*
X0091238Y0168936D01*
X0091633Y0169923D01*
X0092051Y0170900D01*
X0092494Y0171866D01*
X0092960Y0172821D01*
X0093450Y0173765D01*
X0093962Y0174696D01*
X0094497Y0175614D01*
X0095055Y0176519D01*
X0095635Y0177410D01*
X0096236Y0178287D01*
X0096858Y0179148D01*
X0097502Y0179994D01*
X0098166Y0180824D01*
X0098851Y0181637D01*
X0099555Y0182433D01*
X0100278Y0183212D01*
X0101020Y0183973D01*
X0101781Y0184715D01*
X0102560Y0185438D01*
X0103356Y0186142D01*
X0104169Y0186827D01*
X0104999Y0187491D01*
X0105845Y0188135D01*
X0106706Y0188757D01*
X0107583Y0189358D01*
X0108474Y0189938D01*
X0109379Y0190496D01*
X0110297Y0191031D01*
X0111228Y0191543D01*
X0112172Y0192033D01*
X0113127Y0192499D01*
X0114093Y0192942D01*
X0115070Y0193360D01*
X0116057Y0193755D01*
X0117053Y0194125D01*
X0118058Y0194471D01*
X0119072Y0194792D01*
X0120092Y0195088D01*
X0121120Y0195359D01*
X0122154Y0195605D01*
X0123194Y0195825D01*
X0124239Y0196019D01*
X0125289Y0196188D01*
X0126342Y0196331D01*
X0127398Y0196448D01*
X0128457Y0196540D01*
X0129518Y0196605D01*
X0130580Y0196644D01*
X0131643Y0196657D01*
X0132706Y0196644D01*
X0133768Y0196605D01*
X0134829Y0196540D01*
X0135888Y0196448D01*
X0136944Y0196331D01*
X0137997Y0196188D01*
X0139047Y0196019D01*
X0140092Y0195825D01*
X0141132Y0195605D01*
X0142166Y0195359D01*
X0143194Y0195088D01*
X0144214Y0194792D01*
X0145228Y0194471D01*
X0146233Y0194125D01*
X0147229Y0193755D01*
X0148216Y0193360D01*
X0149193Y0192942D01*
X0150159Y0192499D01*
X0151114Y0192033D01*
X0152058Y0191543D01*
X0152989Y0191031D01*
X0153907Y0190496D01*
X0154812Y0189938D01*
X0155703Y0189358D01*
X0156580Y0188757D01*
X0157441Y0188135D01*
X0158287Y0187491D01*
X0159117Y0186827D01*
X0159930Y0186142D01*
X0160726Y0185438D01*
X0161505Y0184715D01*
X0162266Y0183973D01*
X0163008Y0183212D01*
X0163731Y0182433D01*
X0164435Y0181637D01*
X0165120Y0180824D01*
X0165784Y0179994D01*
X0166428Y0179148D01*
X0167050Y0178287D01*
X0167651Y0177410D01*
X0168231Y0176519D01*
X0168789Y0175614D01*
X0169324Y0174696D01*
X0169836Y0173765D01*
X0170326Y0172821D01*
X0170792Y0171866D01*
X0171235Y0170900D01*
X0171653Y0169923D01*
X0172048Y0168936D01*
X0172418Y0167940D01*
X0172764Y0166935D01*
X0173085Y0165921D01*
X0173381Y0164901D01*
X0173652Y0163873D01*
X0173898Y0162839D01*
X0174118Y0161799D01*
X0174312Y0160754D01*
X0174481Y0159704D01*
X0174624Y0158651D01*
X0174741Y0157595D01*
X0174833Y0156536D01*
X0174898Y0155475D01*
X0174937Y0154413D01*
X0174950Y0153350D01*
X0174937Y0152287D01*
X0174898Y0151225D01*
X0174833Y0150164D01*
X0174741Y0149105D01*
X0174624Y0148049D01*
X0174481Y0146996D01*
X0174312Y0145946D01*
X0174118Y0144901D01*
X0173898Y0143861D01*
X0173652Y0142827D01*
X0173381Y0141799D01*
X0173085Y0140779D01*
X0172764Y0139765D01*
X0172418Y0138760D01*
X0172048Y0137764D01*
X0171653Y0136777D01*
X0171235Y0135800D01*
X0170792Y0134834D01*
X0170326Y0133879D01*
X0169836Y0132935D01*
X0169324Y0132004D01*
X0168789Y0131086D01*
X0168231Y0130181D01*
X0167651Y0129290D01*
X0167050Y0128413D01*
X0166428Y0127552D01*
X0165784Y0126706D01*
X0165120Y0125876D01*
X0164435Y0125063D01*
X0163731Y0124267D01*
X0163008Y0123488D01*
X0162266Y0122727D01*
X0161505Y0121985D01*
X0160726Y0121262D01*
X0159930Y0120558D01*
X0159117Y0119873D01*
X0158287Y0119209D01*
X0157441Y0118565D01*
X0156580Y0117943D01*
X0155703Y0117342D01*
X0154812Y0116762D01*
X0153907Y0116204D01*
X0152989Y0115669D01*
X0152058Y0115157D01*
X0151114Y0114667D01*
X0150159Y0114201D01*
X0149193Y0113758D01*
X0148216Y0113340D01*
X0147229Y0112945D01*
X0146233Y0112575D01*
X0145228Y0112229D01*
X0144214Y0111908D01*
X0143194Y0111612D01*
X0142166Y0111341D01*
X0141132Y0111095D01*
X0140092Y0110875D01*
X0139047Y0110681D01*
X0137997Y0110512D01*
X0136944Y0110369D01*
X0135888Y0110252D01*
X0134829Y0110160D01*
X0133768Y0110095D01*
X0132706Y0110056D01*
X0131643Y0110043D01*
X0130580Y0110056D01*
X0129518Y0110095D01*
X0128457Y0110160D01*
X0127398Y0110252D01*
X0126342Y0110369D01*
X0125289Y0110512D01*
X0124239Y0110681D01*
X0123194Y0110875D01*
X0122154Y0111095D01*
X0121120Y0111341D01*
X0120092Y0111612D01*
X0119072Y0111908D01*
X0118058Y0112229D01*
X0117053Y0112575D01*
X0116057Y0112945D01*
X0115070Y0113340D01*
X0114093Y0113758D01*
X0113127Y0114201D01*
X0112172Y0114667D01*
X0111228Y0115157D01*
X0110297Y0115669D01*
X0109379Y0116204D01*
X0108474Y0116762D01*
X0107583Y0117342D01*
X0106706Y0117943D01*
X0105845Y0118565D01*
X0104999Y0119209D01*
X0104169Y0119873D01*
X0103356Y0120558D01*
X0102560Y0121262D01*
X0101781Y0121985D01*
X0101020Y0122727D01*
X0100278Y0123488D01*
X0099555Y0124267D01*
X0098851Y0125063D01*
X0098166Y0125876D01*
X0097502Y0126706D01*
X0096858Y0127552D01*
X0096236Y0128413D01*
X0095635Y0129290D01*
X0095055Y0130181D01*
X0094497Y0131086D01*
X0093962Y0132004D01*
X0093450Y0132935D01*
X0092960Y0133879D01*
X0092494Y0134834D01*
X0092051Y0135800D01*
X0091633Y0136777D01*
X0091238Y0137764D01*
X0090868Y0138760D01*
X0090522Y0139765D01*
X0090201Y0140779D01*
X0089905Y0141799D01*
X0089634Y0142827D01*
X0089388Y0143861D01*
X0089168Y0144901D01*
X0088974Y0145946D01*
X0088805Y0146996D01*
X0088662Y0148049D01*
X0088545Y0149105D01*
X0088453Y0150164D01*
X0088388Y0151225D01*
X0088349Y0152287D01*
X0088336Y0153350D01*
X0148658Y0147848D02*
X0149409Y0147848D01*
X0150910Y0147848D02*
X0150910Y0147098D01*
X0150910Y0147848D02*
X0153912Y0147848D01*
X0153912Y0147098D02*
X0153912Y0148599D01*
X0153162Y0150918D02*
X0150159Y0150918D01*
X0150910Y0151668D02*
X0150910Y0150167D01*
X0153162Y0150918D02*
X0153912Y0151668D01*
X0153912Y0153236D02*
X0153912Y0153987D01*
X0153162Y0153987D01*
X0153162Y0153236D01*
X0153912Y0153236D01*
X0153162Y0155538D02*
X0153912Y0156289D01*
X0153912Y0157790D01*
X0153162Y0158541D01*
X0152411Y0158541D01*
X0151660Y0157790D01*
X0151660Y0157039D01*
X0151660Y0157790D02*
X0150910Y0158541D01*
X0150159Y0158541D01*
X0149409Y0157790D01*
X0149409Y0156289D01*
X0150159Y0155538D01*
X0149409Y0160142D02*
X0152411Y0160142D01*
X0153912Y0161643D01*
X0152411Y0163145D01*
X0149409Y0163145D01*
X0153912Y0145496D02*
X0153912Y0142494D01*
X0149409Y0142494D01*
X0186368Y0155250D02*
X0186368Y0155884D01*
X0186368Y0155567D02*
X0188270Y0155567D01*
X0188270Y0155250D02*
X0188270Y0155884D01*
X0187953Y0156723D02*
X0188270Y0157040D01*
X0188270Y0157674D01*
X0187953Y0157991D01*
X0187953Y0158933D02*
X0188270Y0159250D01*
X0188270Y0159884D01*
X0187953Y0160201D01*
X0187636Y0160201D01*
X0187319Y0159884D01*
X0187319Y0159250D01*
X0187002Y0158933D01*
X0186685Y0158933D01*
X0186368Y0159250D01*
X0186368Y0159884D01*
X0186685Y0160201D01*
X0186368Y0161143D02*
X0186368Y0162094D01*
X0186685Y0162411D01*
X0187319Y0162411D01*
X0187636Y0162094D01*
X0187636Y0161143D01*
X0188270Y0161143D02*
X0186368Y0161143D01*
X0186685Y0157991D02*
X0186368Y0157674D01*
X0186368Y0157040D01*
X0186685Y0156723D01*
X0187953Y0156723D01*
X0197070Y0136160D02*
X0197070Y0133158D01*
X0197070Y0134659D02*
X0192566Y0134659D01*
X0194067Y0133158D01*
X0193316Y0131556D02*
X0194818Y0131556D01*
X0195568Y0130806D01*
X0195568Y0128554D01*
X0197070Y0128554D02*
X0192566Y0128554D01*
X0192566Y0130806D01*
X0193316Y0131556D01*
X0192566Y0126953D02*
X0192566Y0125451D01*
X0192566Y0126202D02*
X0196319Y0126202D01*
X0197070Y0125451D01*
X0197070Y0124701D01*
X0196319Y0123950D01*
X0194453Y0101518D02*
X0194770Y0101201D01*
X0194770Y0100567D01*
X0194453Y0100250D01*
X0193819Y0100884D02*
X0193819Y0101201D01*
X0194136Y0101518D01*
X0194453Y0101518D01*
X0193819Y0101201D02*
X0193502Y0101518D01*
X0193185Y0101518D01*
X0192868Y0101201D01*
X0192868Y0100567D01*
X0193185Y0100250D01*
X0193185Y0099308D02*
X0192868Y0098991D01*
X0192868Y0098357D01*
X0193185Y0098040D01*
X0193502Y0098040D01*
X0193819Y0098357D01*
X0193819Y0098991D01*
X0194136Y0099308D01*
X0194453Y0099308D01*
X0194770Y0098991D01*
X0194770Y0098357D01*
X0194453Y0098040D01*
D16*
X0199567Y0094094D02*
X0205472Y0094094D01*
X0205472Y0105906D01*
X0199567Y0105906D01*
X0199567Y0094094D01*
X0195630Y0089173D02*
X0195632Y0089111D01*
X0195638Y0089050D01*
X0195647Y0088989D01*
X0195661Y0088928D01*
X0195678Y0088869D01*
X0195699Y0088811D01*
X0195724Y0088754D01*
X0195752Y0088699D01*
X0195783Y0088646D01*
X0195818Y0088595D01*
X0195856Y0088546D01*
X0195897Y0088499D01*
X0195940Y0088456D01*
X0195987Y0088415D01*
X0196036Y0088377D01*
X0196087Y0088342D01*
X0196140Y0088311D01*
X0196195Y0088283D01*
X0196252Y0088258D01*
X0196310Y0088237D01*
X0196369Y0088220D01*
X0196430Y0088206D01*
X0196491Y0088197D01*
X0196552Y0088191D01*
X0196614Y0088189D01*
X0198189Y0088189D01*
X0195630Y0089173D02*
X0195630Y0110827D01*
X0195632Y0110889D01*
X0195638Y0110950D01*
X0195647Y0111011D01*
X0195661Y0111072D01*
X0195678Y0111131D01*
X0195699Y0111189D01*
X0195724Y0111246D01*
X0195752Y0111301D01*
X0195783Y0111354D01*
X0195818Y0111405D01*
X0195856Y0111454D01*
X0195897Y0111501D01*
X0195940Y0111544D01*
X0195987Y0111585D01*
X0196036Y0111623D01*
X0196087Y0111658D01*
X0196140Y0111689D01*
X0196195Y0111717D01*
X0196252Y0111742D01*
X0196310Y0111763D01*
X0196369Y0111780D01*
X0196430Y0111794D01*
X0196491Y0111803D01*
X0196552Y0111809D01*
X0196614Y0111811D01*
X0198189Y0111811D01*
X0206850Y0111811D02*
X0208425Y0111811D01*
X0208487Y0111809D01*
X0208548Y0111803D01*
X0208609Y0111794D01*
X0208670Y0111780D01*
X0208729Y0111763D01*
X0208787Y0111742D01*
X0208844Y0111717D01*
X0208899Y0111689D01*
X0208952Y0111658D01*
X0209003Y0111623D01*
X0209052Y0111585D01*
X0209099Y0111544D01*
X0209142Y0111501D01*
X0209183Y0111454D01*
X0209221Y0111405D01*
X0209256Y0111354D01*
X0209287Y0111301D01*
X0209315Y0111246D01*
X0209340Y0111189D01*
X0209361Y0111131D01*
X0209378Y0111072D01*
X0209392Y0111011D01*
X0209401Y0110950D01*
X0209407Y0110889D01*
X0209409Y0110827D01*
X0209409Y0089173D01*
X0209407Y0089111D01*
X0209401Y0089050D01*
X0209392Y0088989D01*
X0209378Y0088928D01*
X0209361Y0088869D01*
X0209340Y0088811D01*
X0209315Y0088754D01*
X0209287Y0088699D01*
X0209256Y0088646D01*
X0209221Y0088595D01*
X0209183Y0088546D01*
X0209142Y0088499D01*
X0209099Y0088456D01*
X0209052Y0088415D01*
X0209003Y0088377D01*
X0208952Y0088342D01*
X0208899Y0088311D01*
X0208844Y0088283D01*
X0208787Y0088258D01*
X0208729Y0088237D01*
X0208670Y0088220D01*
X0208609Y0088206D01*
X0208548Y0088197D01*
X0208487Y0088191D01*
X0208425Y0088189D01*
X0206850Y0088189D01*
X0207020Y0155000D02*
X0192020Y0155000D01*
X0189520Y0157500D01*
X0189520Y0162500D01*
X0192020Y0165000D01*
X0207020Y0165000D01*
X0209520Y0167500D01*
X0209520Y0172500D01*
X0207020Y0175000D01*
X0192020Y0175000D01*
X0189520Y0177500D01*
X0189520Y0182500D01*
X0192020Y0185000D01*
X0207020Y0185000D01*
X0209520Y0182500D01*
X0209520Y0177500D01*
X0207020Y0175000D01*
X0207020Y0165000D02*
X0209520Y0162500D01*
X0209520Y0157500D01*
X0207020Y0155000D01*
X0210839Y0157500D02*
X0210839Y0162500D01*
X0192020Y0165000D02*
X0189520Y0167500D01*
X0189520Y0172500D01*
X0192020Y0175000D01*
X0106879Y0028720D02*
X0102746Y0028720D01*
X0098612Y0028720D02*
X0094675Y0028720D01*
X0090344Y0024389D01*
X0090344Y0007854D01*
X0098612Y0007854D01*
X0102942Y0007854D02*
X0111210Y0007854D01*
X0111210Y0024389D01*
X0106879Y0028720D01*
X0102746Y0027933D02*
X0102980Y0027879D01*
X0103214Y0027821D01*
X0103445Y0027756D01*
X0103675Y0027686D01*
X0103903Y0027610D01*
X0104130Y0027529D01*
X0104354Y0027443D01*
X0104576Y0027350D01*
X0104796Y0027253D01*
X0105013Y0027150D01*
X0105228Y0027042D01*
X0105440Y0026929D01*
X0105650Y0026810D01*
X0105856Y0026687D01*
X0106059Y0026559D01*
X0106259Y0026425D01*
X0106456Y0026287D01*
X0106650Y0026144D01*
X0106840Y0025997D01*
X0107026Y0025845D01*
X0107208Y0025688D01*
X0107387Y0025527D01*
X0107561Y0025362D01*
X0107732Y0025192D01*
X0107898Y0025019D01*
X0108061Y0024841D01*
X0108218Y0024660D01*
X0108372Y0024474D01*
X0108520Y0024285D01*
X0108664Y0024093D01*
X0108804Y0023897D01*
X0108938Y0023698D01*
X0109068Y0023495D01*
X0109193Y0023290D01*
X0109313Y0023081D01*
X0109427Y0022870D01*
X0109537Y0022656D01*
X0109641Y0022439D01*
X0109740Y0022220D01*
X0109833Y0021998D01*
X0109921Y0021774D01*
X0110004Y0021549D01*
X0110081Y0021321D01*
X0110152Y0021091D01*
X0110218Y0020860D01*
X0110279Y0020627D01*
X0110333Y0020393D01*
X0110382Y0020158D01*
X0110425Y0019921D01*
X0110463Y0019684D01*
X0110494Y0019445D01*
X0110520Y0019206D01*
X0110540Y0018966D01*
X0110554Y0018726D01*
X0110563Y0018486D01*
X0110565Y0018246D01*
X0110562Y0018005D01*
X0110552Y0017765D01*
X0110537Y0017525D01*
X0110516Y0017285D01*
X0110490Y0017046D01*
X0110457Y0016808D01*
X0110419Y0016571D01*
X0110375Y0016334D01*
X0110325Y0016099D01*
X0110269Y0015865D01*
X0110208Y0015633D01*
X0110141Y0015402D01*
X0110069Y0015172D01*
X0109991Y0014945D01*
X0109907Y0014719D01*
X0109818Y0014496D01*
X0109724Y0014275D01*
X0109624Y0014056D01*
X0109519Y0013840D01*
X0109409Y0013626D01*
X0109294Y0013415D01*
X0109173Y0013207D01*
X0109048Y0013002D01*
X0108917Y0012800D01*
X0108782Y0012601D01*
X0108642Y0012406D01*
X0108497Y0012214D01*
X0108347Y0012026D01*
X0108193Y0011841D01*
X0108035Y0011660D01*
X0107872Y0011483D01*
X0107705Y0011310D01*
X0107534Y0011141D01*
X0107358Y0010977D01*
X0107179Y0010816D01*
X0106996Y0010661D01*
X0106809Y0010509D01*
X0106619Y0010362D01*
X0106425Y0010220D01*
X0106227Y0010083D01*
X0106027Y0009950D01*
X0105823Y0009823D01*
X0105616Y0009700D01*
X0105406Y0009583D01*
X0105194Y0009470D01*
X0104979Y0009363D01*
X0104761Y0009261D01*
X0104541Y0009164D01*
X0104318Y0009073D01*
X0104093Y0008987D01*
X0103867Y0008907D01*
X0103638Y0008832D01*
X0103408Y0008763D01*
X0103176Y0008700D01*
X0102943Y0008642D01*
X0098612Y0008641D02*
X0098380Y0008694D01*
X0098149Y0008753D01*
X0097920Y0008817D01*
X0097693Y0008888D01*
X0097467Y0008963D01*
X0097243Y0009044D01*
X0097021Y0009131D01*
X0096802Y0009223D01*
X0096585Y0009320D01*
X0096370Y0009423D01*
X0096158Y0009531D01*
X0095948Y0009644D01*
X0095741Y0009762D01*
X0095538Y0009885D01*
X0095337Y0010013D01*
X0095139Y0010146D01*
X0094945Y0010283D01*
X0094754Y0010426D01*
X0094567Y0010573D01*
X0094383Y0010724D01*
X0094204Y0010880D01*
X0094028Y0011040D01*
X0093856Y0011205D01*
X0093688Y0011374D01*
X0093524Y0011546D01*
X0093364Y0011723D01*
X0093209Y0011904D01*
X0093058Y0012088D01*
X0092912Y0012276D01*
X0092771Y0012467D01*
X0092634Y0012662D01*
X0092502Y0012860D01*
X0092375Y0013061D01*
X0092252Y0013266D01*
X0092135Y0013473D01*
X0092023Y0013683D01*
X0091916Y0013896D01*
X0091814Y0014111D01*
X0091718Y0014328D01*
X0091627Y0014548D01*
X0091541Y0014770D01*
X0091461Y0014995D01*
X0091386Y0015221D01*
X0091317Y0015448D01*
X0091253Y0015678D01*
X0091195Y0015909D01*
X0091143Y0016141D01*
X0091096Y0016374D01*
X0091055Y0016609D01*
X0091020Y0016844D01*
X0090991Y0017080D01*
X0090967Y0017317D01*
X0090949Y0017555D01*
X0090937Y0017792D01*
X0090931Y0018030D01*
X0090931Y0018268D01*
X0090936Y0018506D01*
X0090947Y0018744D01*
X0090964Y0018982D01*
X0090987Y0019219D01*
X0091015Y0019455D01*
X0091050Y0019691D01*
X0091090Y0019925D01*
X0091135Y0020159D01*
X0091187Y0020391D01*
X0091244Y0020622D01*
X0091307Y0020852D01*
X0091375Y0021080D01*
X0091449Y0021306D01*
X0091528Y0021531D01*
X0091613Y0021753D01*
X0091703Y0021974D01*
X0091799Y0022192D01*
X0091900Y0022407D01*
X0092006Y0022620D01*
X0092117Y0022831D01*
X0092234Y0023038D01*
X0092355Y0023243D01*
X0092482Y0023445D01*
X0092613Y0023643D01*
X0092749Y0023839D01*
X0092890Y0024031D01*
X0093035Y0024219D01*
X0093185Y0024404D01*
X0093340Y0024585D01*
X0093499Y0024762D01*
X0093662Y0024936D01*
X0093829Y0025105D01*
X0094001Y0025270D01*
X0094176Y0025431D01*
X0094355Y0025588D01*
X0094538Y0025740D01*
X0094725Y0025888D01*
X0094915Y0026031D01*
X0095109Y0026169D01*
X0095306Y0026303D01*
X0095506Y0026431D01*
X0095709Y0026555D01*
X0095916Y0026674D01*
X0096125Y0026788D01*
X0096337Y0026897D01*
X0096551Y0027000D01*
X0096768Y0027098D01*
X0096987Y0027191D01*
X0097209Y0027278D01*
X0097432Y0027360D01*
X0097657Y0027437D01*
X0097885Y0027508D01*
X0098114Y0027573D01*
X0098344Y0027633D01*
X0098576Y0027687D01*
X0098809Y0027736D01*
D17*
X0089060Y0010378D02*
X0089310Y0010128D01*
X0089310Y0009627D01*
X0089060Y0009377D01*
X0089060Y0008905D02*
X0089310Y0008654D01*
X0089310Y0008154D01*
X0089060Y0007904D01*
X0088059Y0007904D01*
X0087808Y0008154D01*
X0087808Y0008654D01*
X0088059Y0008905D01*
X0088059Y0009377D02*
X0087808Y0009627D01*
X0087808Y0010128D01*
X0088059Y0010378D01*
X0088309Y0010378D01*
X0088559Y0010128D01*
X0088809Y0010378D01*
X0089060Y0010378D01*
X0088559Y0010128D02*
X0088559Y0009877D01*
D18*
X0121734Y0039293D03*
X0121734Y0044707D03*
X0147005Y0044707D03*
X0147005Y0039293D03*
D19*
X0148531Y0042000D03*
X0120209Y0042000D03*
D20*
X0062236Y0020567D02*
X0062236Y0008756D01*
X0056331Y0008756D01*
X0056331Y0020567D01*
X0050425Y0014661D02*
X0044520Y0014661D01*
X0044520Y0008756D01*
X0038614Y0008756D01*
X0038614Y0014661D01*
X0032709Y0014661D01*
X0032709Y0008756D01*
X0026803Y0008756D01*
X0026803Y0014661D01*
X0050425Y0014661D02*
X0050425Y0008756D01*
X0056331Y0008756D01*
D21*
X0047815Y0038483D02*
X0047815Y0043087D01*
X0045513Y0040785D01*
X0048582Y0040785D01*
X0043978Y0039251D02*
X0043978Y0043087D01*
X0040909Y0043087D02*
X0040909Y0039251D01*
X0041676Y0038483D01*
X0043211Y0038483D01*
X0043978Y0039251D01*
X0058909Y0158027D02*
X0060444Y0158027D01*
X0061211Y0158794D01*
X0061211Y0162631D01*
X0062746Y0161096D02*
X0064280Y0162631D01*
X0064280Y0158027D01*
X0062746Y0158027D02*
X0065815Y0158027D01*
X0058909Y0158027D02*
X0058142Y0158794D01*
X0058142Y0162631D01*
X0011393Y0206967D02*
X0010626Y0206200D01*
X0009091Y0206200D01*
X0008324Y0206967D01*
X0009858Y0208502D02*
X0010626Y0208502D01*
X0011393Y0207735D01*
X0011393Y0206967D01*
X0010626Y0208502D02*
X0011393Y0209269D01*
X0011393Y0210037D01*
X0010626Y0210804D01*
X0009091Y0210804D01*
X0008324Y0210037D01*
X0006789Y0210804D02*
X0005254Y0210804D01*
X0006022Y0210804D02*
X0006022Y0206967D01*
X0005254Y0206200D01*
X0004487Y0206200D01*
X0003720Y0206967D01*
D22*
X0001197Y0203717D02*
X0048441Y0203717D01*
X0048441Y0201748D01*
X0048441Y0175252D01*
X0054346Y0176748D02*
X0054346Y0170252D01*
X0056315Y0170252D01*
X0056315Y0176748D01*
X0056315Y0195252D02*
X0056315Y0201748D01*
X0054346Y0201748D01*
X0054346Y0195252D01*
X0054346Y0201748D02*
X0048441Y0201748D01*
X0014976Y0201748D01*
X0014976Y0203717D01*
X0014976Y0201748D02*
X0014976Y0168283D01*
X0013008Y0173402D02*
X0009071Y0173402D01*
X0005134Y0173402D02*
X0001197Y0173402D01*
X0001197Y0198598D01*
X0005134Y0198598D01*
X0009071Y0198598D02*
X0013008Y0198598D01*
X0016945Y0198598D02*
X0020882Y0198598D01*
X0024819Y0198598D02*
X0028756Y0198598D01*
X0032693Y0198598D02*
X0036630Y0198598D01*
X0036630Y0196236D01*
X0036630Y0192299D02*
X0036630Y0189937D01*
X0036630Y0182063D01*
X0036630Y0179701D01*
X0036630Y0175764D02*
X0036630Y0173402D01*
X0032693Y0173402D01*
X0028756Y0173402D02*
X0024819Y0173402D01*
X0020882Y0173402D02*
X0016945Y0173402D01*
X0009071Y0182063D02*
X0008947Y0182065D01*
X0008824Y0182071D01*
X0008700Y0182080D01*
X0008578Y0182094D01*
X0008455Y0182111D01*
X0008333Y0182133D01*
X0008212Y0182158D01*
X0008092Y0182187D01*
X0007973Y0182219D01*
X0007854Y0182256D01*
X0007737Y0182296D01*
X0007622Y0182339D01*
X0007507Y0182387D01*
X0007395Y0182438D01*
X0007284Y0182492D01*
X0007174Y0182550D01*
X0007067Y0182611D01*
X0006961Y0182676D01*
X0006858Y0182744D01*
X0006757Y0182815D01*
X0006658Y0182889D01*
X0006561Y0182966D01*
X0006467Y0183047D01*
X0006376Y0183130D01*
X0006287Y0183216D01*
X0006201Y0183305D01*
X0006118Y0183396D01*
X0006037Y0183490D01*
X0005960Y0183587D01*
X0005886Y0183686D01*
X0005815Y0183787D01*
X0005747Y0183890D01*
X0005682Y0183996D01*
X0005621Y0184103D01*
X0005563Y0184213D01*
X0005509Y0184324D01*
X0005458Y0184436D01*
X0005410Y0184551D01*
X0005367Y0184666D01*
X0005327Y0184783D01*
X0005290Y0184902D01*
X0005258Y0185021D01*
X0005229Y0185141D01*
X0005204Y0185262D01*
X0005182Y0185384D01*
X0005165Y0185507D01*
X0005151Y0185629D01*
X0005142Y0185753D01*
X0005136Y0185876D01*
X0005134Y0186000D01*
X0005136Y0186124D01*
X0005142Y0186247D01*
X0005151Y0186371D01*
X0005165Y0186493D01*
X0005182Y0186616D01*
X0005204Y0186738D01*
X0005229Y0186859D01*
X0005258Y0186979D01*
X0005290Y0187098D01*
X0005327Y0187217D01*
X0005367Y0187334D01*
X0005410Y0187449D01*
X0005458Y0187564D01*
X0005509Y0187676D01*
X0005563Y0187787D01*
X0005621Y0187897D01*
X0005682Y0188004D01*
X0005747Y0188110D01*
X0005815Y0188213D01*
X0005886Y0188314D01*
X0005960Y0188413D01*
X0006037Y0188510D01*
X0006118Y0188604D01*
X0006201Y0188695D01*
X0006287Y0188784D01*
X0006376Y0188870D01*
X0006467Y0188953D01*
X0006561Y0189034D01*
X0006658Y0189111D01*
X0006757Y0189185D01*
X0006858Y0189256D01*
X0006961Y0189324D01*
X0007067Y0189389D01*
X0007174Y0189450D01*
X0007284Y0189508D01*
X0007395Y0189562D01*
X0007507Y0189613D01*
X0007622Y0189661D01*
X0007737Y0189704D01*
X0007854Y0189744D01*
X0007973Y0189781D01*
X0008092Y0189813D01*
X0008212Y0189842D01*
X0008333Y0189867D01*
X0008455Y0189889D01*
X0008578Y0189906D01*
X0008700Y0189920D01*
X0008824Y0189929D01*
X0008947Y0189935D01*
X0009071Y0189937D01*
X0001197Y0198598D02*
X0001197Y0203717D01*
X0001197Y0173402D02*
X0001197Y0168283D01*
X0033441Y0168283D01*
M02*
