G75*
%MOIN*%
%OFA0B0*%
%FSLAX25Y25*%
%IPPOS*%
%LPD*%
%AMOC8*
5,1,8,0,0,1.08239X$1,22.5*
%
%ADD10C,0.00000*%
%ADD11R,0.06299X0.07098*%
%ADD12R,0.06299X0.07087*%
%ADD13R,0.07900X0.04300*%
%ADD14R,0.07800X0.02100*%
%ADD15R,0.02559X0.08661*%
%ADD16R,0.05000X0.02200*%
%ADD17R,0.02200X0.05000*%
%ADD18R,0.05906X0.05906*%
%ADD19C,0.03898*%
%ADD20R,0.03740X0.08465*%
%ADD21R,0.12795X0.08465*%
D10*
X0018000Y0002000D02*
X0018000Y0205961D01*
X0227701Y0205961D01*
X0227701Y0002000D01*
X0018000Y0002000D01*
X0081063Y0009000D02*
X0081065Y0009125D01*
X0081071Y0009250D01*
X0081081Y0009374D01*
X0081095Y0009498D01*
X0081112Y0009622D01*
X0081134Y0009745D01*
X0081160Y0009867D01*
X0081189Y0009989D01*
X0081222Y0010109D01*
X0081260Y0010228D01*
X0081300Y0010347D01*
X0081345Y0010463D01*
X0081393Y0010578D01*
X0081445Y0010692D01*
X0081501Y0010804D01*
X0081560Y0010914D01*
X0081622Y0011022D01*
X0081688Y0011129D01*
X0081757Y0011233D01*
X0081830Y0011334D01*
X0081905Y0011434D01*
X0081984Y0011531D01*
X0082066Y0011625D01*
X0082151Y0011717D01*
X0082238Y0011806D01*
X0082329Y0011892D01*
X0082422Y0011975D01*
X0082518Y0012056D01*
X0082616Y0012133D01*
X0082716Y0012207D01*
X0082819Y0012278D01*
X0082924Y0012345D01*
X0083032Y0012410D01*
X0083141Y0012470D01*
X0083252Y0012528D01*
X0083365Y0012581D01*
X0083479Y0012631D01*
X0083595Y0012678D01*
X0083712Y0012720D01*
X0083831Y0012759D01*
X0083951Y0012795D01*
X0084072Y0012826D01*
X0084194Y0012854D01*
X0084316Y0012877D01*
X0084440Y0012897D01*
X0084564Y0012913D01*
X0084688Y0012925D01*
X0084813Y0012933D01*
X0084938Y0012937D01*
X0085062Y0012937D01*
X0085187Y0012933D01*
X0085312Y0012925D01*
X0085436Y0012913D01*
X0085560Y0012897D01*
X0085684Y0012877D01*
X0085806Y0012854D01*
X0085928Y0012826D01*
X0086049Y0012795D01*
X0086169Y0012759D01*
X0086288Y0012720D01*
X0086405Y0012678D01*
X0086521Y0012631D01*
X0086635Y0012581D01*
X0086748Y0012528D01*
X0086859Y0012470D01*
X0086969Y0012410D01*
X0087076Y0012345D01*
X0087181Y0012278D01*
X0087284Y0012207D01*
X0087384Y0012133D01*
X0087482Y0012056D01*
X0087578Y0011975D01*
X0087671Y0011892D01*
X0087762Y0011806D01*
X0087849Y0011717D01*
X0087934Y0011625D01*
X0088016Y0011531D01*
X0088095Y0011434D01*
X0088170Y0011334D01*
X0088243Y0011233D01*
X0088312Y0011129D01*
X0088378Y0011022D01*
X0088440Y0010914D01*
X0088499Y0010804D01*
X0088555Y0010692D01*
X0088607Y0010578D01*
X0088655Y0010463D01*
X0088700Y0010347D01*
X0088740Y0010228D01*
X0088778Y0010109D01*
X0088811Y0009989D01*
X0088840Y0009867D01*
X0088866Y0009745D01*
X0088888Y0009622D01*
X0088905Y0009498D01*
X0088919Y0009374D01*
X0088929Y0009250D01*
X0088935Y0009125D01*
X0088937Y0009000D01*
X0088935Y0008875D01*
X0088929Y0008750D01*
X0088919Y0008626D01*
X0088905Y0008502D01*
X0088888Y0008378D01*
X0088866Y0008255D01*
X0088840Y0008133D01*
X0088811Y0008011D01*
X0088778Y0007891D01*
X0088740Y0007772D01*
X0088700Y0007653D01*
X0088655Y0007537D01*
X0088607Y0007422D01*
X0088555Y0007308D01*
X0088499Y0007196D01*
X0088440Y0007086D01*
X0088378Y0006978D01*
X0088312Y0006871D01*
X0088243Y0006767D01*
X0088170Y0006666D01*
X0088095Y0006566D01*
X0088016Y0006469D01*
X0087934Y0006375D01*
X0087849Y0006283D01*
X0087762Y0006194D01*
X0087671Y0006108D01*
X0087578Y0006025D01*
X0087482Y0005944D01*
X0087384Y0005867D01*
X0087284Y0005793D01*
X0087181Y0005722D01*
X0087076Y0005655D01*
X0086968Y0005590D01*
X0086859Y0005530D01*
X0086748Y0005472D01*
X0086635Y0005419D01*
X0086521Y0005369D01*
X0086405Y0005322D01*
X0086288Y0005280D01*
X0086169Y0005241D01*
X0086049Y0005205D01*
X0085928Y0005174D01*
X0085806Y0005146D01*
X0085684Y0005123D01*
X0085560Y0005103D01*
X0085436Y0005087D01*
X0085312Y0005075D01*
X0085187Y0005067D01*
X0085062Y0005063D01*
X0084938Y0005063D01*
X0084813Y0005067D01*
X0084688Y0005075D01*
X0084564Y0005087D01*
X0084440Y0005103D01*
X0084316Y0005123D01*
X0084194Y0005146D01*
X0084072Y0005174D01*
X0083951Y0005205D01*
X0083831Y0005241D01*
X0083712Y0005280D01*
X0083595Y0005322D01*
X0083479Y0005369D01*
X0083365Y0005419D01*
X0083252Y0005472D01*
X0083141Y0005530D01*
X0083031Y0005590D01*
X0082924Y0005655D01*
X0082819Y0005722D01*
X0082716Y0005793D01*
X0082616Y0005867D01*
X0082518Y0005944D01*
X0082422Y0006025D01*
X0082329Y0006108D01*
X0082238Y0006194D01*
X0082151Y0006283D01*
X0082066Y0006375D01*
X0081984Y0006469D01*
X0081905Y0006566D01*
X0081830Y0006666D01*
X0081757Y0006767D01*
X0081688Y0006871D01*
X0081622Y0006978D01*
X0081560Y0007086D01*
X0081501Y0007196D01*
X0081445Y0007308D01*
X0081393Y0007422D01*
X0081345Y0007537D01*
X0081300Y0007653D01*
X0081260Y0007772D01*
X0081222Y0007891D01*
X0081189Y0008011D01*
X0081160Y0008133D01*
X0081134Y0008255D01*
X0081112Y0008378D01*
X0081095Y0008502D01*
X0081081Y0008626D01*
X0081071Y0008750D01*
X0081065Y0008875D01*
X0081063Y0009000D01*
X0212063Y0009000D02*
X0212065Y0009125D01*
X0212071Y0009250D01*
X0212081Y0009374D01*
X0212095Y0009498D01*
X0212112Y0009622D01*
X0212134Y0009745D01*
X0212160Y0009867D01*
X0212189Y0009989D01*
X0212222Y0010109D01*
X0212260Y0010228D01*
X0212300Y0010347D01*
X0212345Y0010463D01*
X0212393Y0010578D01*
X0212445Y0010692D01*
X0212501Y0010804D01*
X0212560Y0010914D01*
X0212622Y0011022D01*
X0212688Y0011129D01*
X0212757Y0011233D01*
X0212830Y0011334D01*
X0212905Y0011434D01*
X0212984Y0011531D01*
X0213066Y0011625D01*
X0213151Y0011717D01*
X0213238Y0011806D01*
X0213329Y0011892D01*
X0213422Y0011975D01*
X0213518Y0012056D01*
X0213616Y0012133D01*
X0213716Y0012207D01*
X0213819Y0012278D01*
X0213924Y0012345D01*
X0214032Y0012410D01*
X0214141Y0012470D01*
X0214252Y0012528D01*
X0214365Y0012581D01*
X0214479Y0012631D01*
X0214595Y0012678D01*
X0214712Y0012720D01*
X0214831Y0012759D01*
X0214951Y0012795D01*
X0215072Y0012826D01*
X0215194Y0012854D01*
X0215316Y0012877D01*
X0215440Y0012897D01*
X0215564Y0012913D01*
X0215688Y0012925D01*
X0215813Y0012933D01*
X0215938Y0012937D01*
X0216062Y0012937D01*
X0216187Y0012933D01*
X0216312Y0012925D01*
X0216436Y0012913D01*
X0216560Y0012897D01*
X0216684Y0012877D01*
X0216806Y0012854D01*
X0216928Y0012826D01*
X0217049Y0012795D01*
X0217169Y0012759D01*
X0217288Y0012720D01*
X0217405Y0012678D01*
X0217521Y0012631D01*
X0217635Y0012581D01*
X0217748Y0012528D01*
X0217859Y0012470D01*
X0217969Y0012410D01*
X0218076Y0012345D01*
X0218181Y0012278D01*
X0218284Y0012207D01*
X0218384Y0012133D01*
X0218482Y0012056D01*
X0218578Y0011975D01*
X0218671Y0011892D01*
X0218762Y0011806D01*
X0218849Y0011717D01*
X0218934Y0011625D01*
X0219016Y0011531D01*
X0219095Y0011434D01*
X0219170Y0011334D01*
X0219243Y0011233D01*
X0219312Y0011129D01*
X0219378Y0011022D01*
X0219440Y0010914D01*
X0219499Y0010804D01*
X0219555Y0010692D01*
X0219607Y0010578D01*
X0219655Y0010463D01*
X0219700Y0010347D01*
X0219740Y0010228D01*
X0219778Y0010109D01*
X0219811Y0009989D01*
X0219840Y0009867D01*
X0219866Y0009745D01*
X0219888Y0009622D01*
X0219905Y0009498D01*
X0219919Y0009374D01*
X0219929Y0009250D01*
X0219935Y0009125D01*
X0219937Y0009000D01*
X0219935Y0008875D01*
X0219929Y0008750D01*
X0219919Y0008626D01*
X0219905Y0008502D01*
X0219888Y0008378D01*
X0219866Y0008255D01*
X0219840Y0008133D01*
X0219811Y0008011D01*
X0219778Y0007891D01*
X0219740Y0007772D01*
X0219700Y0007653D01*
X0219655Y0007537D01*
X0219607Y0007422D01*
X0219555Y0007308D01*
X0219499Y0007196D01*
X0219440Y0007086D01*
X0219378Y0006978D01*
X0219312Y0006871D01*
X0219243Y0006767D01*
X0219170Y0006666D01*
X0219095Y0006566D01*
X0219016Y0006469D01*
X0218934Y0006375D01*
X0218849Y0006283D01*
X0218762Y0006194D01*
X0218671Y0006108D01*
X0218578Y0006025D01*
X0218482Y0005944D01*
X0218384Y0005867D01*
X0218284Y0005793D01*
X0218181Y0005722D01*
X0218076Y0005655D01*
X0217968Y0005590D01*
X0217859Y0005530D01*
X0217748Y0005472D01*
X0217635Y0005419D01*
X0217521Y0005369D01*
X0217405Y0005322D01*
X0217288Y0005280D01*
X0217169Y0005241D01*
X0217049Y0005205D01*
X0216928Y0005174D01*
X0216806Y0005146D01*
X0216684Y0005123D01*
X0216560Y0005103D01*
X0216436Y0005087D01*
X0216312Y0005075D01*
X0216187Y0005067D01*
X0216062Y0005063D01*
X0215938Y0005063D01*
X0215813Y0005067D01*
X0215688Y0005075D01*
X0215564Y0005087D01*
X0215440Y0005103D01*
X0215316Y0005123D01*
X0215194Y0005146D01*
X0215072Y0005174D01*
X0214951Y0005205D01*
X0214831Y0005241D01*
X0214712Y0005280D01*
X0214595Y0005322D01*
X0214479Y0005369D01*
X0214365Y0005419D01*
X0214252Y0005472D01*
X0214141Y0005530D01*
X0214031Y0005590D01*
X0213924Y0005655D01*
X0213819Y0005722D01*
X0213716Y0005793D01*
X0213616Y0005867D01*
X0213518Y0005944D01*
X0213422Y0006025D01*
X0213329Y0006108D01*
X0213238Y0006194D01*
X0213151Y0006283D01*
X0213066Y0006375D01*
X0212984Y0006469D01*
X0212905Y0006566D01*
X0212830Y0006666D01*
X0212757Y0006767D01*
X0212688Y0006871D01*
X0212622Y0006978D01*
X0212560Y0007086D01*
X0212501Y0007196D01*
X0212445Y0007308D01*
X0212393Y0007422D01*
X0212345Y0007537D01*
X0212300Y0007653D01*
X0212260Y0007772D01*
X0212222Y0007891D01*
X0212189Y0008011D01*
X0212160Y0008133D01*
X0212134Y0008255D01*
X0212112Y0008378D01*
X0212095Y0008502D01*
X0212081Y0008626D01*
X0212071Y0008750D01*
X0212065Y0008875D01*
X0212063Y0009000D01*
X0212063Y0197000D02*
X0212065Y0197125D01*
X0212071Y0197250D01*
X0212081Y0197374D01*
X0212095Y0197498D01*
X0212112Y0197622D01*
X0212134Y0197745D01*
X0212160Y0197867D01*
X0212189Y0197989D01*
X0212222Y0198109D01*
X0212260Y0198228D01*
X0212300Y0198347D01*
X0212345Y0198463D01*
X0212393Y0198578D01*
X0212445Y0198692D01*
X0212501Y0198804D01*
X0212560Y0198914D01*
X0212622Y0199022D01*
X0212688Y0199129D01*
X0212757Y0199233D01*
X0212830Y0199334D01*
X0212905Y0199434D01*
X0212984Y0199531D01*
X0213066Y0199625D01*
X0213151Y0199717D01*
X0213238Y0199806D01*
X0213329Y0199892D01*
X0213422Y0199975D01*
X0213518Y0200056D01*
X0213616Y0200133D01*
X0213716Y0200207D01*
X0213819Y0200278D01*
X0213924Y0200345D01*
X0214032Y0200410D01*
X0214141Y0200470D01*
X0214252Y0200528D01*
X0214365Y0200581D01*
X0214479Y0200631D01*
X0214595Y0200678D01*
X0214712Y0200720D01*
X0214831Y0200759D01*
X0214951Y0200795D01*
X0215072Y0200826D01*
X0215194Y0200854D01*
X0215316Y0200877D01*
X0215440Y0200897D01*
X0215564Y0200913D01*
X0215688Y0200925D01*
X0215813Y0200933D01*
X0215938Y0200937D01*
X0216062Y0200937D01*
X0216187Y0200933D01*
X0216312Y0200925D01*
X0216436Y0200913D01*
X0216560Y0200897D01*
X0216684Y0200877D01*
X0216806Y0200854D01*
X0216928Y0200826D01*
X0217049Y0200795D01*
X0217169Y0200759D01*
X0217288Y0200720D01*
X0217405Y0200678D01*
X0217521Y0200631D01*
X0217635Y0200581D01*
X0217748Y0200528D01*
X0217859Y0200470D01*
X0217969Y0200410D01*
X0218076Y0200345D01*
X0218181Y0200278D01*
X0218284Y0200207D01*
X0218384Y0200133D01*
X0218482Y0200056D01*
X0218578Y0199975D01*
X0218671Y0199892D01*
X0218762Y0199806D01*
X0218849Y0199717D01*
X0218934Y0199625D01*
X0219016Y0199531D01*
X0219095Y0199434D01*
X0219170Y0199334D01*
X0219243Y0199233D01*
X0219312Y0199129D01*
X0219378Y0199022D01*
X0219440Y0198914D01*
X0219499Y0198804D01*
X0219555Y0198692D01*
X0219607Y0198578D01*
X0219655Y0198463D01*
X0219700Y0198347D01*
X0219740Y0198228D01*
X0219778Y0198109D01*
X0219811Y0197989D01*
X0219840Y0197867D01*
X0219866Y0197745D01*
X0219888Y0197622D01*
X0219905Y0197498D01*
X0219919Y0197374D01*
X0219929Y0197250D01*
X0219935Y0197125D01*
X0219937Y0197000D01*
X0219935Y0196875D01*
X0219929Y0196750D01*
X0219919Y0196626D01*
X0219905Y0196502D01*
X0219888Y0196378D01*
X0219866Y0196255D01*
X0219840Y0196133D01*
X0219811Y0196011D01*
X0219778Y0195891D01*
X0219740Y0195772D01*
X0219700Y0195653D01*
X0219655Y0195537D01*
X0219607Y0195422D01*
X0219555Y0195308D01*
X0219499Y0195196D01*
X0219440Y0195086D01*
X0219378Y0194978D01*
X0219312Y0194871D01*
X0219243Y0194767D01*
X0219170Y0194666D01*
X0219095Y0194566D01*
X0219016Y0194469D01*
X0218934Y0194375D01*
X0218849Y0194283D01*
X0218762Y0194194D01*
X0218671Y0194108D01*
X0218578Y0194025D01*
X0218482Y0193944D01*
X0218384Y0193867D01*
X0218284Y0193793D01*
X0218181Y0193722D01*
X0218076Y0193655D01*
X0217968Y0193590D01*
X0217859Y0193530D01*
X0217748Y0193472D01*
X0217635Y0193419D01*
X0217521Y0193369D01*
X0217405Y0193322D01*
X0217288Y0193280D01*
X0217169Y0193241D01*
X0217049Y0193205D01*
X0216928Y0193174D01*
X0216806Y0193146D01*
X0216684Y0193123D01*
X0216560Y0193103D01*
X0216436Y0193087D01*
X0216312Y0193075D01*
X0216187Y0193067D01*
X0216062Y0193063D01*
X0215938Y0193063D01*
X0215813Y0193067D01*
X0215688Y0193075D01*
X0215564Y0193087D01*
X0215440Y0193103D01*
X0215316Y0193123D01*
X0215194Y0193146D01*
X0215072Y0193174D01*
X0214951Y0193205D01*
X0214831Y0193241D01*
X0214712Y0193280D01*
X0214595Y0193322D01*
X0214479Y0193369D01*
X0214365Y0193419D01*
X0214252Y0193472D01*
X0214141Y0193530D01*
X0214031Y0193590D01*
X0213924Y0193655D01*
X0213819Y0193722D01*
X0213716Y0193793D01*
X0213616Y0193867D01*
X0213518Y0193944D01*
X0213422Y0194025D01*
X0213329Y0194108D01*
X0213238Y0194194D01*
X0213151Y0194283D01*
X0213066Y0194375D01*
X0212984Y0194469D01*
X0212905Y0194566D01*
X0212830Y0194666D01*
X0212757Y0194767D01*
X0212688Y0194871D01*
X0212622Y0194978D01*
X0212560Y0195086D01*
X0212501Y0195196D01*
X0212445Y0195308D01*
X0212393Y0195422D01*
X0212345Y0195537D01*
X0212300Y0195653D01*
X0212260Y0195772D01*
X0212222Y0195891D01*
X0212189Y0196011D01*
X0212160Y0196133D01*
X0212134Y0196255D01*
X0212112Y0196378D01*
X0212095Y0196502D01*
X0212081Y0196626D01*
X0212071Y0196750D01*
X0212065Y0196875D01*
X0212063Y0197000D01*
X0068063Y0197000D02*
X0068065Y0197125D01*
X0068071Y0197250D01*
X0068081Y0197374D01*
X0068095Y0197498D01*
X0068112Y0197622D01*
X0068134Y0197745D01*
X0068160Y0197867D01*
X0068189Y0197989D01*
X0068222Y0198109D01*
X0068260Y0198228D01*
X0068300Y0198347D01*
X0068345Y0198463D01*
X0068393Y0198578D01*
X0068445Y0198692D01*
X0068501Y0198804D01*
X0068560Y0198914D01*
X0068622Y0199022D01*
X0068688Y0199129D01*
X0068757Y0199233D01*
X0068830Y0199334D01*
X0068905Y0199434D01*
X0068984Y0199531D01*
X0069066Y0199625D01*
X0069151Y0199717D01*
X0069238Y0199806D01*
X0069329Y0199892D01*
X0069422Y0199975D01*
X0069518Y0200056D01*
X0069616Y0200133D01*
X0069716Y0200207D01*
X0069819Y0200278D01*
X0069924Y0200345D01*
X0070032Y0200410D01*
X0070141Y0200470D01*
X0070252Y0200528D01*
X0070365Y0200581D01*
X0070479Y0200631D01*
X0070595Y0200678D01*
X0070712Y0200720D01*
X0070831Y0200759D01*
X0070951Y0200795D01*
X0071072Y0200826D01*
X0071194Y0200854D01*
X0071316Y0200877D01*
X0071440Y0200897D01*
X0071564Y0200913D01*
X0071688Y0200925D01*
X0071813Y0200933D01*
X0071938Y0200937D01*
X0072062Y0200937D01*
X0072187Y0200933D01*
X0072312Y0200925D01*
X0072436Y0200913D01*
X0072560Y0200897D01*
X0072684Y0200877D01*
X0072806Y0200854D01*
X0072928Y0200826D01*
X0073049Y0200795D01*
X0073169Y0200759D01*
X0073288Y0200720D01*
X0073405Y0200678D01*
X0073521Y0200631D01*
X0073635Y0200581D01*
X0073748Y0200528D01*
X0073859Y0200470D01*
X0073969Y0200410D01*
X0074076Y0200345D01*
X0074181Y0200278D01*
X0074284Y0200207D01*
X0074384Y0200133D01*
X0074482Y0200056D01*
X0074578Y0199975D01*
X0074671Y0199892D01*
X0074762Y0199806D01*
X0074849Y0199717D01*
X0074934Y0199625D01*
X0075016Y0199531D01*
X0075095Y0199434D01*
X0075170Y0199334D01*
X0075243Y0199233D01*
X0075312Y0199129D01*
X0075378Y0199022D01*
X0075440Y0198914D01*
X0075499Y0198804D01*
X0075555Y0198692D01*
X0075607Y0198578D01*
X0075655Y0198463D01*
X0075700Y0198347D01*
X0075740Y0198228D01*
X0075778Y0198109D01*
X0075811Y0197989D01*
X0075840Y0197867D01*
X0075866Y0197745D01*
X0075888Y0197622D01*
X0075905Y0197498D01*
X0075919Y0197374D01*
X0075929Y0197250D01*
X0075935Y0197125D01*
X0075937Y0197000D01*
X0075935Y0196875D01*
X0075929Y0196750D01*
X0075919Y0196626D01*
X0075905Y0196502D01*
X0075888Y0196378D01*
X0075866Y0196255D01*
X0075840Y0196133D01*
X0075811Y0196011D01*
X0075778Y0195891D01*
X0075740Y0195772D01*
X0075700Y0195653D01*
X0075655Y0195537D01*
X0075607Y0195422D01*
X0075555Y0195308D01*
X0075499Y0195196D01*
X0075440Y0195086D01*
X0075378Y0194978D01*
X0075312Y0194871D01*
X0075243Y0194767D01*
X0075170Y0194666D01*
X0075095Y0194566D01*
X0075016Y0194469D01*
X0074934Y0194375D01*
X0074849Y0194283D01*
X0074762Y0194194D01*
X0074671Y0194108D01*
X0074578Y0194025D01*
X0074482Y0193944D01*
X0074384Y0193867D01*
X0074284Y0193793D01*
X0074181Y0193722D01*
X0074076Y0193655D01*
X0073968Y0193590D01*
X0073859Y0193530D01*
X0073748Y0193472D01*
X0073635Y0193419D01*
X0073521Y0193369D01*
X0073405Y0193322D01*
X0073288Y0193280D01*
X0073169Y0193241D01*
X0073049Y0193205D01*
X0072928Y0193174D01*
X0072806Y0193146D01*
X0072684Y0193123D01*
X0072560Y0193103D01*
X0072436Y0193087D01*
X0072312Y0193075D01*
X0072187Y0193067D01*
X0072062Y0193063D01*
X0071938Y0193063D01*
X0071813Y0193067D01*
X0071688Y0193075D01*
X0071564Y0193087D01*
X0071440Y0193103D01*
X0071316Y0193123D01*
X0071194Y0193146D01*
X0071072Y0193174D01*
X0070951Y0193205D01*
X0070831Y0193241D01*
X0070712Y0193280D01*
X0070595Y0193322D01*
X0070479Y0193369D01*
X0070365Y0193419D01*
X0070252Y0193472D01*
X0070141Y0193530D01*
X0070031Y0193590D01*
X0069924Y0193655D01*
X0069819Y0193722D01*
X0069716Y0193793D01*
X0069616Y0193867D01*
X0069518Y0193944D01*
X0069422Y0194025D01*
X0069329Y0194108D01*
X0069238Y0194194D01*
X0069151Y0194283D01*
X0069066Y0194375D01*
X0068984Y0194469D01*
X0068905Y0194566D01*
X0068830Y0194666D01*
X0068757Y0194767D01*
X0068688Y0194871D01*
X0068622Y0194978D01*
X0068560Y0195086D01*
X0068501Y0195196D01*
X0068445Y0195308D01*
X0068393Y0195422D01*
X0068345Y0195537D01*
X0068300Y0195653D01*
X0068260Y0195772D01*
X0068222Y0195891D01*
X0068189Y0196011D01*
X0068160Y0196133D01*
X0068134Y0196255D01*
X0068112Y0196378D01*
X0068095Y0196502D01*
X0068081Y0196626D01*
X0068071Y0196750D01*
X0068065Y0196875D01*
X0068063Y0197000D01*
D11*
X0092402Y0087000D03*
X0103598Y0087000D03*
X0103448Y0057600D03*
X0092252Y0057600D03*
X0092402Y0042000D03*
X0103598Y0042000D03*
X0178402Y0042000D03*
X0189598Y0042000D03*
X0189598Y0058000D03*
X0178402Y0058000D03*
X0201402Y0058000D03*
X0212598Y0058000D03*
X0212598Y0074000D03*
X0201402Y0074000D03*
D12*
X0201488Y0042000D03*
X0212512Y0042000D03*
X0130512Y0100000D03*
X0119488Y0100000D03*
X0103512Y0100000D03*
X0092488Y0100000D03*
X0092488Y0112000D03*
X0103512Y0112000D03*
X0062512Y0121000D03*
X0051488Y0121000D03*
X0092488Y0073000D03*
X0103512Y0073000D03*
D13*
X0135190Y0024650D03*
X0135190Y0014650D03*
X0170590Y0014650D03*
X0170590Y0024650D03*
D14*
X0186050Y0023030D03*
X0186050Y0028030D03*
X0186050Y0018030D03*
X0186050Y0013030D03*
X0205450Y0013030D03*
X0205450Y0018030D03*
X0205450Y0023030D03*
X0205450Y0028030D03*
D15*
X0107257Y0025570D03*
X0107257Y0011003D03*
D16*
G36*
X0153166Y0058800D02*
X0156700Y0055266D01*
X0155144Y0053710D01*
X0151610Y0057244D01*
X0153166Y0058800D01*
G37*
G36*
X0155393Y0061027D02*
X0158927Y0057493D01*
X0157371Y0055937D01*
X0153837Y0059471D01*
X0155393Y0061027D01*
G37*
G36*
X0157620Y0063254D02*
X0161154Y0059720D01*
X0159598Y0058164D01*
X0156064Y0061698D01*
X0157620Y0063254D01*
G37*
G36*
X0159848Y0065481D02*
X0163382Y0061947D01*
X0161826Y0060391D01*
X0158292Y0063925D01*
X0159848Y0065481D01*
G37*
G36*
X0162075Y0067708D02*
X0165609Y0064174D01*
X0164053Y0062618D01*
X0160519Y0066152D01*
X0162075Y0067708D01*
G37*
G36*
X0164302Y0069936D02*
X0167836Y0066402D01*
X0166280Y0064846D01*
X0162746Y0068380D01*
X0164302Y0069936D01*
G37*
G36*
X0166529Y0072163D02*
X0170063Y0068629D01*
X0168507Y0067073D01*
X0164973Y0070607D01*
X0166529Y0072163D01*
G37*
G36*
X0168756Y0074390D02*
X0172290Y0070856D01*
X0170734Y0069300D01*
X0167200Y0072834D01*
X0168756Y0074390D01*
G37*
G36*
X0144856Y0098290D02*
X0148390Y0094756D01*
X0146834Y0093200D01*
X0143300Y0096734D01*
X0144856Y0098290D01*
G37*
G36*
X0142629Y0096063D02*
X0146163Y0092529D01*
X0144607Y0090973D01*
X0141073Y0094507D01*
X0142629Y0096063D01*
G37*
G36*
X0140402Y0093836D02*
X0143936Y0090302D01*
X0142380Y0088746D01*
X0138846Y0092280D01*
X0140402Y0093836D01*
G37*
G36*
X0138174Y0091609D02*
X0141708Y0088075D01*
X0140152Y0086519D01*
X0136618Y0090053D01*
X0138174Y0091609D01*
G37*
G36*
X0135947Y0089382D02*
X0139481Y0085848D01*
X0137925Y0084292D01*
X0134391Y0087826D01*
X0135947Y0089382D01*
G37*
G36*
X0133720Y0087154D02*
X0137254Y0083620D01*
X0135698Y0082064D01*
X0132164Y0085598D01*
X0133720Y0087154D01*
G37*
G36*
X0131493Y0084927D02*
X0135027Y0081393D01*
X0133471Y0079837D01*
X0129937Y0083371D01*
X0131493Y0084927D01*
G37*
G36*
X0129266Y0082700D02*
X0132800Y0079166D01*
X0131244Y0077610D01*
X0127710Y0081144D01*
X0129266Y0082700D01*
G37*
D17*
G36*
X0131244Y0074390D02*
X0132800Y0072834D01*
X0129266Y0069300D01*
X0127710Y0070856D01*
X0131244Y0074390D01*
G37*
G36*
X0133471Y0072163D02*
X0135027Y0070607D01*
X0131493Y0067073D01*
X0129937Y0068629D01*
X0133471Y0072163D01*
G37*
G36*
X0135698Y0069936D02*
X0137254Y0068380D01*
X0133720Y0064846D01*
X0132164Y0066402D01*
X0135698Y0069936D01*
G37*
G36*
X0137925Y0067708D02*
X0139481Y0066152D01*
X0135947Y0062618D01*
X0134391Y0064174D01*
X0137925Y0067708D01*
G37*
G36*
X0140152Y0065481D02*
X0141708Y0063925D01*
X0138174Y0060391D01*
X0136618Y0061947D01*
X0140152Y0065481D01*
G37*
G36*
X0142380Y0063254D02*
X0143936Y0061698D01*
X0140402Y0058164D01*
X0138846Y0059720D01*
X0142380Y0063254D01*
G37*
G36*
X0144607Y0061027D02*
X0146163Y0059471D01*
X0142629Y0055937D01*
X0141073Y0057493D01*
X0144607Y0061027D01*
G37*
G36*
X0146834Y0058800D02*
X0148390Y0057244D01*
X0144856Y0053710D01*
X0143300Y0055266D01*
X0146834Y0058800D01*
G37*
G36*
X0170734Y0082700D02*
X0172290Y0081144D01*
X0168756Y0077610D01*
X0167200Y0079166D01*
X0170734Y0082700D01*
G37*
G36*
X0168507Y0084927D02*
X0170063Y0083371D01*
X0166529Y0079837D01*
X0164973Y0081393D01*
X0168507Y0084927D01*
G37*
G36*
X0166280Y0087154D02*
X0167836Y0085598D01*
X0164302Y0082064D01*
X0162746Y0083620D01*
X0166280Y0087154D01*
G37*
G36*
X0164053Y0089382D02*
X0165609Y0087826D01*
X0162075Y0084292D01*
X0160519Y0085848D01*
X0164053Y0089382D01*
G37*
G36*
X0161826Y0091609D02*
X0163382Y0090053D01*
X0159848Y0086519D01*
X0158292Y0088075D01*
X0161826Y0091609D01*
G37*
G36*
X0159598Y0093836D02*
X0161154Y0092280D01*
X0157620Y0088746D01*
X0156064Y0090302D01*
X0159598Y0093836D01*
G37*
G36*
X0157371Y0096063D02*
X0158927Y0094507D01*
X0155393Y0090973D01*
X0153837Y0092529D01*
X0157371Y0096063D01*
G37*
G36*
X0155144Y0098290D02*
X0156700Y0096734D01*
X0153166Y0093200D01*
X0151610Y0094756D01*
X0155144Y0098290D01*
G37*
D18*
X0148810Y0042000D03*
X0162590Y0042000D03*
X0132890Y0042000D03*
X0119110Y0042000D03*
D19*
X0078658Y0042830D02*
X0076650Y0042830D01*
X0078658Y0042830D02*
X0078658Y0042792D01*
X0076650Y0042792D01*
X0076650Y0042830D01*
X0076650Y0048736D02*
X0078658Y0048736D01*
X0078658Y0048698D01*
X0076650Y0048698D01*
X0076650Y0048736D01*
X0076650Y0054641D02*
X0078658Y0054641D01*
X0078658Y0054603D01*
X0076650Y0054603D01*
X0076650Y0054641D01*
X0076650Y0060547D02*
X0078658Y0060547D01*
X0078658Y0060509D01*
X0076650Y0060509D01*
X0076650Y0060547D01*
X0076650Y0066452D02*
X0078658Y0066452D01*
X0078658Y0066414D01*
X0076650Y0066414D01*
X0076650Y0066452D01*
X0076650Y0072358D02*
X0078658Y0072358D01*
X0078658Y0072320D01*
X0076650Y0072320D01*
X0076650Y0072358D01*
X0076650Y0078263D02*
X0078658Y0078263D01*
X0078658Y0078225D01*
X0076650Y0078225D01*
X0076650Y0078263D01*
X0076650Y0084169D02*
X0078658Y0084169D01*
X0078658Y0084131D01*
X0076650Y0084131D01*
X0076650Y0084169D01*
X0076650Y0090074D02*
X0078658Y0090074D01*
X0078658Y0090036D01*
X0076650Y0090036D01*
X0076650Y0090074D01*
X0076650Y0095980D02*
X0078658Y0095980D01*
X0078658Y0095942D01*
X0076650Y0095942D01*
X0076650Y0095980D01*
X0076650Y0101885D02*
X0078658Y0101885D01*
X0078658Y0101847D01*
X0076650Y0101847D01*
X0076650Y0101885D01*
X0071572Y0109012D02*
X0071572Y0111020D01*
X0071610Y0111020D01*
X0071610Y0109012D01*
X0071572Y0109012D01*
X0065666Y0109012D02*
X0065666Y0111020D01*
X0065704Y0111020D01*
X0065704Y0109012D01*
X0065666Y0109012D01*
X0059761Y0109012D02*
X0059761Y0111020D01*
X0059799Y0111020D01*
X0059799Y0109012D01*
X0059761Y0109012D01*
X0053855Y0109012D02*
X0053855Y0111020D01*
X0053893Y0111020D01*
X0053893Y0109012D01*
X0053855Y0109012D01*
X0047950Y0109012D02*
X0047950Y0111020D01*
X0047988Y0111020D01*
X0047988Y0109012D01*
X0047950Y0109012D01*
X0042044Y0109012D02*
X0042044Y0111020D01*
X0042082Y0111020D01*
X0042082Y0109012D01*
X0042044Y0109012D01*
X0036138Y0109012D02*
X0036138Y0111020D01*
X0036176Y0111020D01*
X0036176Y0109012D01*
X0036138Y0109012D01*
X0030233Y0109012D02*
X0030233Y0111020D01*
X0030271Y0111020D01*
X0030271Y0109012D01*
X0030233Y0109012D01*
X0025350Y0101847D02*
X0023342Y0101847D01*
X0023342Y0101885D01*
X0025350Y0101885D01*
X0025350Y0101847D01*
X0025350Y0095942D02*
X0023342Y0095942D01*
X0023342Y0095980D01*
X0025350Y0095980D01*
X0025350Y0095942D01*
X0025350Y0090036D02*
X0023342Y0090036D01*
X0023342Y0090074D01*
X0025350Y0090074D01*
X0025350Y0090036D01*
X0025350Y0084131D02*
X0023342Y0084131D01*
X0023342Y0084169D01*
X0025350Y0084169D01*
X0025350Y0084131D01*
X0025350Y0078225D02*
X0023342Y0078225D01*
X0023342Y0078263D01*
X0025350Y0078263D01*
X0025350Y0078225D01*
X0025350Y0072320D02*
X0023342Y0072320D01*
X0023342Y0072358D01*
X0025350Y0072358D01*
X0025350Y0072320D01*
X0025350Y0066414D02*
X0023342Y0066414D01*
X0023342Y0066452D01*
X0025350Y0066452D01*
X0025350Y0066414D01*
X0025350Y0060509D02*
X0023342Y0060509D01*
X0023342Y0060547D01*
X0025350Y0060547D01*
X0025350Y0060509D01*
X0025350Y0054603D02*
X0023342Y0054603D01*
X0023342Y0054641D01*
X0025350Y0054641D01*
X0025350Y0054603D01*
X0025350Y0048698D02*
X0023342Y0048698D01*
X0023342Y0048736D01*
X0025350Y0048736D01*
X0025350Y0048698D01*
X0025350Y0042792D02*
X0023342Y0042792D01*
X0023342Y0042830D01*
X0025350Y0042830D01*
X0025350Y0042792D01*
X0025350Y0036887D02*
X0023342Y0036887D01*
X0023342Y0036925D01*
X0025350Y0036925D01*
X0025350Y0036887D01*
X0025350Y0030981D02*
X0023342Y0030981D01*
X0023342Y0031019D01*
X0025350Y0031019D01*
X0025350Y0030981D01*
X0076650Y0031019D02*
X0078658Y0031019D01*
X0078658Y0030981D01*
X0076650Y0030981D01*
X0076650Y0031019D01*
X0076650Y0036925D02*
X0078658Y0036925D01*
X0078658Y0036887D01*
X0076650Y0036887D01*
X0076650Y0036925D01*
D20*
X0066055Y0133583D03*
X0057000Y0133583D03*
X0047945Y0133583D03*
D21*
X0057000Y0156417D03*
M02*
