%
M48
M72
T01C0.01200
T02C0.03150
T03C0.03543
T04C0.03937
T05C0.04000
T06C0.07874
%
T01
X102320Y44000
X111920Y37100
X116420Y46700
X120020Y45200
X120320Y54800
X126920Y61700
X133220Y56300
X135320Y53900
X130520Y47900
X117620Y24800
X132920Y19100
X166820Y42200
X166820Y56000
X201320Y53300
X201320Y69500
X197420Y107300
X163220Y107000
X155720Y96500
X157820Y91700
X140720Y89900
X106520Y89000
X96920Y81200
X92120Y89900
X91220Y97700
X80720Y96200
X81620Y92000
X63620Y89900
X66620Y75800
X53720Y162800
X189020Y23000
T02
X43520Y167102
X31709Y186000
T03
X85462Y153350
X164202Y153350
T04
X55331Y186000
T05
X24520Y155000
X24520Y145000
X24520Y135000
X24520Y125000
X194520Y180000
X204520Y180000
X204520Y170000
X204520Y160000
X194520Y160000
X194520Y170000
X204520Y139000
X204520Y129000
T06
X79520Y9000
X209520Y9000
X209520Y197000
X66520Y197000
M30
