G75*
%MOIN*%
%OFA0B0*%
%FSLAX25Y25*%
%IPPOS*%
%LPD*%
%AMOC8*
5,1,8,0,0,1.08239X$1,22.5*
%
%ADD10C,0.00000*%
%ADD11C,0.00400*%
%ADD12C,0.00500*%
%ADD13C,0.00800*%
%ADD14C,0.00600*%
%ADD15C,0.00300*%
%ADD16R,0.06000X0.06000*%
%ADD17C,0.01000*%
%ADD18C,0.00394*%
%ADD19C,0.00100*%
%ADD20C,0.00700*%
%ADD21R,0.01181X0.00591*%
%ADD22R,0.01181X0.01181*%
%ADD23C,0.01600*%
D10*
X0017000Y0002000D02*
X0017000Y0200961D01*
X0266701Y0200961D01*
X0266701Y0002000D01*
X0017000Y0002000D01*
D11*
X0039156Y0038483D02*
X0040691Y0038483D01*
X0041458Y0039251D01*
X0041458Y0043087D01*
X0042993Y0040785D02*
X0046062Y0040785D01*
X0045295Y0038483D02*
X0045295Y0043087D01*
X0042993Y0040785D01*
X0039156Y0038483D02*
X0038389Y0039251D01*
X0038389Y0043087D01*
X0086492Y0052200D02*
X0086492Y0056804D01*
X0088794Y0056804D01*
X0089561Y0056037D01*
X0089561Y0054502D01*
X0088794Y0053735D01*
X0086492Y0053735D01*
X0088027Y0053735D02*
X0089561Y0052200D01*
X0091096Y0052967D02*
X0091863Y0052200D01*
X0093398Y0052200D01*
X0094165Y0052967D01*
X0094165Y0053735D01*
X0093398Y0054502D01*
X0091096Y0054502D01*
X0091096Y0052967D01*
X0091096Y0054502D02*
X0092631Y0056037D01*
X0094165Y0056804D01*
X0107992Y0056037D02*
X0107992Y0052967D01*
X0108759Y0052200D01*
X0110294Y0052200D01*
X0111061Y0052967D01*
X0112596Y0052200D02*
X0115665Y0055269D01*
X0115665Y0056037D01*
X0114898Y0056804D01*
X0113363Y0056804D01*
X0112596Y0056037D01*
X0111061Y0056037D02*
X0110294Y0056804D01*
X0108759Y0056804D01*
X0107992Y0056037D01*
X0112596Y0052200D02*
X0115665Y0052200D01*
X0127200Y0040037D02*
X0127967Y0040804D01*
X0129502Y0040804D01*
X0130269Y0040037D01*
X0131804Y0040804D02*
X0134873Y0040804D01*
X0134873Y0040037D01*
X0131804Y0036967D01*
X0131804Y0036200D01*
X0130269Y0036967D02*
X0129502Y0036200D01*
X0127967Y0036200D01*
X0127200Y0036967D01*
X0127200Y0040037D01*
X0113898Y0025804D02*
X0112363Y0025804D01*
X0111596Y0025037D01*
X0110061Y0025037D02*
X0109294Y0025804D01*
X0107759Y0025804D01*
X0106992Y0025037D01*
X0105457Y0025037D02*
X0104690Y0025804D01*
X0103156Y0025804D01*
X0102388Y0025037D01*
X0102388Y0021967D01*
X0103156Y0021200D01*
X0104690Y0021200D01*
X0105457Y0021967D01*
X0106992Y0021200D02*
X0110061Y0024269D01*
X0110061Y0025037D01*
X0113131Y0023502D02*
X0113898Y0023502D01*
X0114665Y0022735D01*
X0114665Y0021967D01*
X0113898Y0021200D01*
X0112363Y0021200D01*
X0111596Y0021967D01*
X0110061Y0021200D02*
X0106992Y0021200D01*
X0113898Y0023502D02*
X0114665Y0024269D01*
X0114665Y0025037D01*
X0113898Y0025804D01*
X0131200Y0009537D02*
X0132067Y0010404D01*
X0133802Y0010404D01*
X0134670Y0009537D01*
X0136356Y0008670D02*
X0137224Y0008670D01*
X0138091Y0007802D01*
X0138959Y0008670D01*
X0139826Y0007802D01*
X0139826Y0005200D01*
X0138091Y0005200D02*
X0138091Y0007802D01*
X0136356Y0008670D02*
X0136356Y0005200D01*
X0134670Y0006067D02*
X0133802Y0005200D01*
X0132067Y0005200D01*
X0131200Y0006067D01*
X0132067Y0007802D02*
X0133802Y0007802D01*
X0134670Y0006935D01*
X0134670Y0006067D01*
X0132067Y0007802D02*
X0131200Y0008670D01*
X0131200Y0009537D01*
X0141513Y0006067D02*
X0142380Y0006935D01*
X0144982Y0006935D01*
X0144982Y0007802D02*
X0144982Y0005200D01*
X0142380Y0005200D01*
X0141513Y0006067D01*
X0142380Y0008670D02*
X0144115Y0008670D01*
X0144982Y0007802D01*
X0146669Y0006935D02*
X0148404Y0008670D01*
X0149271Y0008670D01*
X0150966Y0008670D02*
X0152701Y0008670D01*
X0151834Y0009537D02*
X0151834Y0006067D01*
X0152701Y0005200D01*
X0154404Y0005200D02*
X0157873Y0005200D01*
X0159560Y0006067D02*
X0160428Y0006935D01*
X0163030Y0006935D01*
X0163030Y0007802D02*
X0163030Y0005200D01*
X0160428Y0005200D01*
X0159560Y0006067D01*
X0162162Y0008670D02*
X0163030Y0007802D01*
X0162162Y0008670D02*
X0160428Y0008670D01*
X0164717Y0008670D02*
X0164717Y0005200D01*
X0166451Y0005200D02*
X0166451Y0007802D01*
X0167319Y0008670D01*
X0168186Y0007802D01*
X0168186Y0005200D01*
X0169873Y0005200D02*
X0172475Y0005200D01*
X0173343Y0006067D01*
X0173343Y0007802D01*
X0172475Y0008670D01*
X0169873Y0008670D01*
X0169873Y0003465D01*
X0166451Y0007802D02*
X0165584Y0008670D01*
X0164717Y0008670D01*
X0154404Y0010404D02*
X0154404Y0005200D01*
X0146669Y0005200D02*
X0146669Y0008670D01*
X0148967Y0036200D02*
X0150502Y0036200D01*
X0151269Y0036967D01*
X0152804Y0036967D02*
X0153571Y0036200D01*
X0155106Y0036200D01*
X0155873Y0036967D01*
X0155873Y0037735D01*
X0155106Y0038502D01*
X0152804Y0038502D01*
X0152804Y0036967D01*
X0152804Y0038502D02*
X0154339Y0040037D01*
X0155873Y0040804D01*
X0151269Y0040037D02*
X0150502Y0040804D01*
X0148967Y0040804D01*
X0148200Y0040037D01*
X0148200Y0036967D01*
X0148967Y0036200D01*
X0169200Y0036200D02*
X0172269Y0036200D01*
X0173804Y0036200D02*
X0176873Y0036200D01*
X0178408Y0036200D02*
X0180710Y0036200D01*
X0181477Y0036967D01*
X0181477Y0040037D01*
X0180710Y0040804D01*
X0178408Y0040804D01*
X0178408Y0036200D01*
X0175339Y0038502D02*
X0173804Y0038502D01*
X0173804Y0040804D02*
X0173804Y0036200D01*
X0169200Y0036200D02*
X0169200Y0040804D01*
X0173804Y0040804D02*
X0176873Y0040804D01*
X0183012Y0040037D02*
X0183779Y0040804D01*
X0185314Y0040804D01*
X0186081Y0040037D01*
X0186081Y0039269D01*
X0183012Y0036200D01*
X0186081Y0036200D01*
X0187077Y0010404D02*
X0187077Y0005200D01*
X0185342Y0005200D02*
X0188812Y0005200D01*
X0190499Y0005200D02*
X0191366Y0005200D01*
X0191366Y0006067D01*
X0190499Y0006067D01*
X0190499Y0005200D01*
X0193077Y0006067D02*
X0196546Y0009537D01*
X0196546Y0006067D01*
X0195679Y0005200D01*
X0193944Y0005200D01*
X0193077Y0006067D01*
X0193077Y0009537D01*
X0193944Y0010404D01*
X0195679Y0010404D01*
X0196546Y0009537D01*
X0187077Y0010404D02*
X0185342Y0008670D01*
X0183655Y0008670D02*
X0181921Y0005200D01*
X0180186Y0008670D01*
X0183012Y0066433D02*
X0186081Y0066433D01*
X0187616Y0067967D02*
X0188383Y0067200D01*
X0189918Y0067200D01*
X0190685Y0067967D01*
X0190200Y0067967D02*
X0190967Y0067200D01*
X0192502Y0067200D01*
X0193269Y0067967D01*
X0192987Y0067200D02*
X0194522Y0067200D01*
X0195289Y0067967D01*
X0195289Y0071037D01*
X0194522Y0071804D01*
X0192987Y0071804D01*
X0192220Y0071037D01*
X0192220Y0067967D01*
X0192987Y0067200D01*
X0194804Y0067200D02*
X0197873Y0067200D01*
X0196824Y0067200D02*
X0196824Y0071804D01*
X0199893Y0067200D01*
X0199893Y0071804D01*
X0201427Y0071804D02*
X0204497Y0067200D01*
X0204497Y0071804D01*
X0201427Y0071804D02*
X0201427Y0067200D01*
X0196339Y0067200D02*
X0196339Y0071804D01*
X0194804Y0070269D01*
X0195398Y0069200D02*
X0196165Y0069967D01*
X0196165Y0073037D01*
X0195398Y0073804D01*
X0193863Y0073804D01*
X0193096Y0073037D01*
X0193096Y0072269D01*
X0193863Y0071502D01*
X0196165Y0071502D01*
X0195398Y0069200D02*
X0193863Y0069200D01*
X0193096Y0069967D01*
X0193269Y0071037D02*
X0192502Y0071804D01*
X0190967Y0071804D01*
X0190200Y0071037D01*
X0190200Y0067967D01*
X0190027Y0069200D02*
X0190027Y0073804D01*
X0188492Y0072269D01*
X0188383Y0071804D02*
X0187616Y0071037D01*
X0187616Y0067967D01*
X0186957Y0069200D02*
X0185423Y0070735D01*
X0186190Y0070735D02*
X0183888Y0070735D01*
X0183888Y0069200D02*
X0183888Y0073804D01*
X0186190Y0073804D01*
X0186957Y0073037D01*
X0186957Y0071502D01*
X0186190Y0070735D01*
X0188383Y0071804D02*
X0189918Y0071804D01*
X0190685Y0071037D01*
X0191561Y0069200D02*
X0188492Y0069200D01*
X0181477Y0067200D02*
X0178408Y0067200D01*
X0178408Y0071804D01*
X0181477Y0071804D01*
X0179942Y0069502D02*
X0178408Y0069502D01*
X0176873Y0067200D02*
X0173804Y0067200D01*
X0173804Y0071804D01*
X0175165Y0072269D02*
X0172096Y0069200D01*
X0175165Y0069200D01*
X0172269Y0068735D02*
X0172269Y0067967D01*
X0171502Y0067200D01*
X0169200Y0067200D01*
X0169200Y0071804D01*
X0171502Y0071804D01*
X0172269Y0071037D01*
X0172269Y0070269D01*
X0171502Y0069502D01*
X0169200Y0069502D01*
X0169027Y0070735D02*
X0170561Y0069200D01*
X0171502Y0069502D02*
X0172269Y0068735D01*
X0169794Y0070735D02*
X0167492Y0070735D01*
X0167492Y0069200D02*
X0167492Y0073804D01*
X0169794Y0073804D01*
X0170561Y0073037D01*
X0170561Y0071502D01*
X0169794Y0070735D01*
X0172096Y0073037D02*
X0172863Y0073804D01*
X0174398Y0073804D01*
X0175165Y0073037D01*
X0175165Y0072269D01*
X0154873Y0071804D02*
X0151804Y0071804D01*
X0151804Y0069502D01*
X0153339Y0070269D01*
X0154106Y0070269D01*
X0154873Y0069502D01*
X0154873Y0067967D01*
X0154106Y0067200D01*
X0152571Y0067200D01*
X0151804Y0067967D01*
X0152398Y0069200D02*
X0153165Y0069967D01*
X0153165Y0073037D01*
X0152398Y0073804D01*
X0150863Y0073804D01*
X0150096Y0073037D01*
X0150096Y0072269D01*
X0150863Y0071502D01*
X0153165Y0071502D01*
X0152398Y0069200D02*
X0150863Y0069200D01*
X0150096Y0069967D01*
X0150269Y0071037D02*
X0149502Y0071804D01*
X0147967Y0071804D01*
X0147200Y0071037D01*
X0147200Y0067967D01*
X0147967Y0067200D01*
X0149502Y0067200D01*
X0150269Y0067967D01*
X0148561Y0069200D02*
X0147027Y0070735D01*
X0147794Y0070735D02*
X0145492Y0070735D01*
X0145492Y0069200D02*
X0145492Y0073804D01*
X0147794Y0073804D01*
X0148561Y0073037D01*
X0148561Y0071502D01*
X0147794Y0070735D01*
X0192700Y0098200D02*
X0192700Y0102804D01*
X0195002Y0102804D01*
X0195769Y0102037D01*
X0195769Y0100502D01*
X0195002Y0099735D01*
X0192700Y0099735D01*
X0194235Y0099735D02*
X0195769Y0098200D01*
X0197304Y0098200D02*
X0200373Y0098200D01*
X0198839Y0098200D02*
X0198839Y0102804D01*
X0197304Y0101269D01*
X0201908Y0102037D02*
X0201908Y0098967D01*
X0204977Y0102037D01*
X0204977Y0098967D01*
X0204210Y0098200D01*
X0202675Y0098200D01*
X0201908Y0098967D01*
X0201908Y0102037D02*
X0202675Y0102804D01*
X0204210Y0102804D01*
X0204977Y0102037D01*
X0148606Y0162200D02*
X0147071Y0162200D01*
X0146304Y0162967D01*
X0146304Y0164502D02*
X0147839Y0165269D01*
X0148606Y0165269D01*
X0149373Y0164502D01*
X0149373Y0162967D01*
X0148606Y0162200D01*
X0146304Y0164502D02*
X0146304Y0166804D01*
X0149373Y0166804D01*
X0144769Y0166037D02*
X0144769Y0164502D01*
X0144002Y0163735D01*
X0141700Y0163735D01*
X0143235Y0163735D02*
X0144769Y0162200D01*
X0141700Y0162200D02*
X0141700Y0166804D01*
X0144002Y0166804D01*
X0144769Y0166037D01*
X0148967Y0180400D02*
X0148200Y0181167D01*
X0148200Y0184237D01*
X0148967Y0185004D01*
X0150502Y0185004D01*
X0151269Y0184237D01*
X0151269Y0181167D01*
X0150502Y0180400D01*
X0148967Y0180400D01*
X0149735Y0181935D02*
X0151269Y0180400D01*
X0152804Y0181167D02*
X0153571Y0180400D01*
X0155106Y0180400D01*
X0155873Y0181167D01*
X0155873Y0181935D01*
X0155106Y0182702D01*
X0154339Y0182702D01*
X0155106Y0182702D02*
X0155873Y0183469D01*
X0155873Y0184237D01*
X0155106Y0185004D01*
X0153571Y0185004D01*
X0152804Y0184237D01*
X0117873Y0184237D02*
X0117873Y0183469D01*
X0114804Y0180400D01*
X0117873Y0180400D01*
X0113269Y0180400D02*
X0111735Y0181935D01*
X0113269Y0181167D02*
X0112502Y0180400D01*
X0110967Y0180400D01*
X0110200Y0181167D01*
X0110200Y0184237D01*
X0110967Y0185004D01*
X0112502Y0185004D01*
X0113269Y0184237D01*
X0113269Y0181167D01*
X0114804Y0184237D02*
X0115571Y0185004D01*
X0117106Y0185004D01*
X0117873Y0184237D01*
X0088373Y0166037D02*
X0088373Y0165269D01*
X0087606Y0164502D01*
X0088373Y0163735D01*
X0088373Y0162967D01*
X0087606Y0162200D01*
X0086071Y0162200D01*
X0085304Y0162967D01*
X0083769Y0162200D02*
X0082235Y0163735D01*
X0083002Y0163735D02*
X0080700Y0163735D01*
X0080700Y0162200D02*
X0080700Y0166804D01*
X0083002Y0166804D01*
X0083769Y0166037D01*
X0083769Y0164502D01*
X0083002Y0163735D01*
X0085304Y0166037D02*
X0086071Y0166804D01*
X0087606Y0166804D01*
X0088373Y0166037D01*
X0087606Y0164502D02*
X0086839Y0164502D01*
X0106492Y0151804D02*
X0108794Y0151804D01*
X0109561Y0151037D01*
X0109561Y0149502D01*
X0108794Y0148735D01*
X0106492Y0148735D01*
X0108027Y0148735D02*
X0109561Y0147200D01*
X0111096Y0149502D02*
X0114165Y0149502D01*
X0113398Y0147200D02*
X0113398Y0151804D01*
X0111096Y0149502D01*
X0106492Y0147200D02*
X0106492Y0151804D01*
X0095898Y0129804D02*
X0093596Y0127502D01*
X0096665Y0127502D01*
X0095898Y0125200D02*
X0095898Y0129804D01*
X0092061Y0129037D02*
X0091294Y0129804D01*
X0089759Y0129804D01*
X0088992Y0129037D01*
X0087457Y0129037D02*
X0086690Y0129804D01*
X0085156Y0129804D01*
X0084388Y0129037D01*
X0084388Y0125967D01*
X0085156Y0125200D01*
X0086690Y0125200D01*
X0087457Y0125967D01*
X0088992Y0125200D02*
X0092061Y0128269D01*
X0092061Y0129037D01*
X0092061Y0125200D02*
X0088992Y0125200D01*
X0090700Y0115804D02*
X0093002Y0115804D01*
X0093769Y0115037D01*
X0093769Y0113502D01*
X0093002Y0112735D01*
X0090700Y0112735D01*
X0092235Y0112735D02*
X0093769Y0111200D01*
X0095304Y0111200D02*
X0098373Y0111200D01*
X0096839Y0111200D02*
X0096839Y0115804D01*
X0095304Y0114269D01*
X0099908Y0114269D02*
X0101442Y0115804D01*
X0101442Y0111200D01*
X0099908Y0111200D02*
X0102977Y0111200D01*
X0096606Y0101804D02*
X0094304Y0099502D01*
X0097373Y0099502D01*
X0096606Y0097200D02*
X0096606Y0101804D01*
X0092769Y0101037D02*
X0092002Y0101804D01*
X0090467Y0101804D01*
X0089700Y0101037D01*
X0089700Y0097967D01*
X0090467Y0097200D01*
X0092002Y0097200D01*
X0092769Y0097967D01*
X0090700Y0111200D02*
X0090700Y0115804D01*
X0067346Y0123881D02*
X0064277Y0123881D01*
X0065812Y0123881D02*
X0065812Y0128485D01*
X0064277Y0126950D01*
X0062743Y0128485D02*
X0062743Y0124648D01*
X0061975Y0123881D01*
X0060441Y0123881D01*
X0059673Y0124648D01*
X0059673Y0128485D01*
X0072967Y0180400D02*
X0072200Y0181167D01*
X0072200Y0184237D01*
X0072967Y0185004D01*
X0074502Y0185004D01*
X0075269Y0184237D01*
X0075269Y0181167D01*
X0074502Y0180400D01*
X0072967Y0180400D01*
X0073735Y0181935D02*
X0075269Y0180400D01*
X0076804Y0180400D02*
X0079873Y0180400D01*
X0078339Y0180400D02*
X0078339Y0185004D01*
X0076804Y0183469D01*
X0086642Y0074204D02*
X0088944Y0074204D01*
X0089711Y0073437D01*
X0089711Y0071902D01*
X0088944Y0071135D01*
X0086642Y0071135D01*
X0088177Y0071135D02*
X0089711Y0069600D01*
X0091246Y0069600D02*
X0094315Y0069600D01*
X0092781Y0069600D02*
X0092781Y0074204D01*
X0091246Y0072669D01*
X0086642Y0074204D02*
X0086642Y0069600D01*
D12*
X0129882Y0104151D02*
X0129884Y0104217D01*
X0129890Y0104283D01*
X0129900Y0104349D01*
X0129913Y0104414D01*
X0129931Y0104478D01*
X0129952Y0104540D01*
X0129977Y0104602D01*
X0130005Y0104662D01*
X0130037Y0104720D01*
X0130073Y0104776D01*
X0130111Y0104829D01*
X0130153Y0104881D01*
X0130198Y0104930D01*
X0130245Y0104976D01*
X0130296Y0105019D01*
X0130348Y0105059D01*
X0130403Y0105096D01*
X0130460Y0105130D01*
X0130519Y0105160D01*
X0130580Y0105187D01*
X0130642Y0105210D01*
X0130705Y0105229D01*
X0130770Y0105245D01*
X0130835Y0105257D01*
X0130901Y0105265D01*
X0130967Y0105269D01*
X0131033Y0105269D01*
X0131099Y0105265D01*
X0131165Y0105257D01*
X0131230Y0105245D01*
X0131295Y0105229D01*
X0131358Y0105210D01*
X0131420Y0105187D01*
X0131481Y0105160D01*
X0131540Y0105130D01*
X0131597Y0105096D01*
X0131652Y0105059D01*
X0131704Y0105019D01*
X0131755Y0104976D01*
X0131802Y0104930D01*
X0131847Y0104881D01*
X0131889Y0104829D01*
X0131927Y0104776D01*
X0131963Y0104720D01*
X0131995Y0104662D01*
X0132023Y0104602D01*
X0132048Y0104540D01*
X0132069Y0104478D01*
X0132087Y0104414D01*
X0132100Y0104349D01*
X0132110Y0104283D01*
X0132116Y0104217D01*
X0132118Y0104151D01*
X0132116Y0104085D01*
X0132110Y0104019D01*
X0132100Y0103953D01*
X0132087Y0103888D01*
X0132069Y0103824D01*
X0132048Y0103762D01*
X0132023Y0103700D01*
X0131995Y0103640D01*
X0131963Y0103582D01*
X0131927Y0103526D01*
X0131889Y0103473D01*
X0131847Y0103421D01*
X0131802Y0103372D01*
X0131755Y0103326D01*
X0131704Y0103283D01*
X0131652Y0103243D01*
X0131597Y0103206D01*
X0131540Y0103172D01*
X0131481Y0103142D01*
X0131420Y0103115D01*
X0131358Y0103092D01*
X0131295Y0103073D01*
X0131230Y0103057D01*
X0131165Y0103045D01*
X0131099Y0103037D01*
X0131033Y0103033D01*
X0130967Y0103033D01*
X0130901Y0103037D01*
X0130835Y0103045D01*
X0130770Y0103057D01*
X0130705Y0103073D01*
X0130642Y0103092D01*
X0130580Y0103115D01*
X0130519Y0103142D01*
X0130460Y0103172D01*
X0130403Y0103206D01*
X0130348Y0103243D01*
X0130296Y0103283D01*
X0130245Y0103326D01*
X0130198Y0103372D01*
X0130153Y0103421D01*
X0130111Y0103473D01*
X0130073Y0103526D01*
X0130037Y0103582D01*
X0130005Y0103640D01*
X0129977Y0103700D01*
X0129952Y0103762D01*
X0129931Y0103824D01*
X0129913Y0103888D01*
X0129900Y0103953D01*
X0129890Y0104019D01*
X0129884Y0104085D01*
X0129882Y0104151D01*
X0075591Y0108953D02*
X0024409Y0108953D01*
X0024409Y0003047D01*
X0075591Y0003047D01*
X0075591Y0108953D01*
X0040701Y0132461D02*
X0040701Y0135464D01*
X0039199Y0137065D02*
X0039950Y0137816D01*
X0039950Y0139317D01*
X0039199Y0140067D01*
X0038449Y0140067D01*
X0037698Y0139317D01*
X0037698Y0137816D01*
X0036947Y0137065D01*
X0036197Y0137065D01*
X0035446Y0137816D01*
X0035446Y0139317D01*
X0036197Y0140067D01*
X0035446Y0141669D02*
X0035446Y0144671D01*
X0035446Y0143170D02*
X0039950Y0143170D01*
X0039950Y0146273D02*
X0035446Y0146273D01*
X0035446Y0148525D01*
X0036197Y0149275D01*
X0037698Y0149275D01*
X0038449Y0148525D01*
X0038449Y0146273D01*
X0038449Y0147774D02*
X0039950Y0149275D01*
X0039950Y0150877D02*
X0039950Y0152378D01*
X0039950Y0151627D02*
X0035446Y0151627D01*
X0035446Y0150877D02*
X0035446Y0152378D01*
X0035446Y0153946D02*
X0035446Y0156198D01*
X0036197Y0156949D01*
X0037698Y0156949D01*
X0038449Y0156198D01*
X0038449Y0153946D01*
X0039950Y0153946D02*
X0035446Y0153946D01*
X0036197Y0130860D02*
X0035446Y0130109D01*
X0035446Y0127857D01*
X0039950Y0127857D01*
X0039950Y0130109D01*
X0039199Y0130860D01*
X0036197Y0130860D01*
X0035446Y0126256D02*
X0035446Y0123253D01*
X0039950Y0123253D01*
X0039950Y0126256D01*
X0037698Y0124754D02*
X0037698Y0123253D01*
X0039950Y0121652D02*
X0039950Y0118649D01*
X0035446Y0118649D01*
X0015333Y0181030D02*
X0015650Y0181347D01*
X0015650Y0181664D01*
X0015333Y0181981D01*
X0013748Y0181981D01*
X0013748Y0181664D02*
X0013748Y0182298D01*
X0014382Y0183240D02*
X0013748Y0183874D01*
X0015650Y0183874D01*
X0015650Y0183240D02*
X0015650Y0184508D01*
X0204963Y0143302D02*
X0204963Y0140300D01*
X0205713Y0139549D01*
X0207215Y0139549D01*
X0207965Y0140300D01*
X0209567Y0141050D02*
X0211818Y0141050D01*
X0212569Y0141801D01*
X0212569Y0143302D01*
X0211818Y0144053D01*
X0209567Y0144053D01*
X0209567Y0139549D01*
X0211068Y0141050D02*
X0212569Y0139549D01*
X0214170Y0139549D02*
X0217173Y0142552D01*
X0217173Y0143302D01*
X0216422Y0144053D01*
X0214921Y0144053D01*
X0214170Y0143302D01*
X0214170Y0139549D02*
X0217173Y0139549D01*
X0218774Y0140300D02*
X0221777Y0143302D01*
X0221777Y0140300D01*
X0221026Y0139549D01*
X0219525Y0139549D01*
X0218774Y0140300D01*
X0218774Y0143302D01*
X0219525Y0144053D01*
X0221026Y0144053D01*
X0221777Y0143302D01*
X0223378Y0143302D02*
X0224129Y0144053D01*
X0225630Y0144053D01*
X0226381Y0143302D01*
X0226381Y0142552D01*
X0225630Y0141801D01*
X0226381Y0141050D01*
X0226381Y0140300D01*
X0225630Y0139549D01*
X0224129Y0139549D01*
X0223378Y0140300D01*
X0224880Y0141801D02*
X0225630Y0141801D01*
X0227982Y0143302D02*
X0228733Y0144053D01*
X0230234Y0144053D01*
X0230985Y0143302D01*
X0230985Y0142552D01*
X0227982Y0139549D01*
X0230985Y0139549D01*
X0232586Y0138799D02*
X0235589Y0138799D01*
X0237190Y0139549D02*
X0240193Y0139549D01*
X0241794Y0139549D02*
X0244046Y0139549D01*
X0244797Y0140300D01*
X0244797Y0141050D01*
X0244046Y0141801D01*
X0241794Y0141801D01*
X0241794Y0139549D02*
X0241794Y0144053D01*
X0244046Y0144053D01*
X0244797Y0143302D01*
X0244797Y0142552D01*
X0244046Y0141801D01*
X0246398Y0139549D02*
X0246398Y0144053D01*
X0247899Y0142552D01*
X0249400Y0144053D01*
X0249400Y0139549D01*
X0240193Y0144053D02*
X0237190Y0144053D01*
X0237190Y0139549D01*
X0237190Y0141801D02*
X0238691Y0141801D01*
X0226328Y0128108D02*
X0226328Y0123604D01*
X0224827Y0123604D02*
X0227830Y0123604D01*
X0224827Y0126607D02*
X0226328Y0128108D01*
X0223226Y0127358D02*
X0222475Y0128108D01*
X0220974Y0128108D01*
X0220223Y0127358D01*
X0220223Y0124355D01*
X0220974Y0123604D01*
X0222475Y0123604D01*
X0223226Y0124355D01*
X0223226Y0125856D01*
X0221725Y0125856D01*
X0230992Y0110087D02*
X0230992Y0091976D01*
X0230795Y0091976D02*
X0205205Y0091976D01*
X0205008Y0091976D02*
X0205008Y0110087D01*
X0204963Y0143302D02*
X0205713Y0144053D01*
X0207215Y0144053D01*
X0207965Y0143302D01*
X0173118Y0153000D02*
X0173132Y0154101D01*
X0173172Y0155202D01*
X0173240Y0156302D01*
X0173334Y0157399D01*
X0173456Y0158494D01*
X0173604Y0159586D01*
X0173779Y0160673D01*
X0173980Y0161756D01*
X0174209Y0162834D01*
X0174463Y0163905D01*
X0174744Y0164971D01*
X0175051Y0166029D01*
X0175383Y0167079D01*
X0175742Y0168120D01*
X0176125Y0169153D01*
X0176534Y0170176D01*
X0176968Y0171188D01*
X0177427Y0172190D01*
X0177910Y0173179D01*
X0178418Y0174157D01*
X0178949Y0175122D01*
X0179503Y0176074D01*
X0180081Y0177012D01*
X0180682Y0177935D01*
X0181305Y0178843D01*
X0181950Y0179736D01*
X0182617Y0180613D01*
X0183306Y0181473D01*
X0184015Y0182316D01*
X0184745Y0183141D01*
X0185494Y0183948D01*
X0186264Y0184736D01*
X0187052Y0185506D01*
X0187859Y0186255D01*
X0188684Y0186985D01*
X0189527Y0187694D01*
X0190387Y0188383D01*
X0191264Y0189050D01*
X0192157Y0189695D01*
X0193065Y0190318D01*
X0193988Y0190919D01*
X0194926Y0191497D01*
X0195878Y0192051D01*
X0196843Y0192582D01*
X0197821Y0193090D01*
X0198810Y0193573D01*
X0199812Y0194032D01*
X0200824Y0194466D01*
X0201847Y0194875D01*
X0202880Y0195258D01*
X0203921Y0195617D01*
X0204971Y0195949D01*
X0206029Y0196256D01*
X0207095Y0196537D01*
X0208166Y0196791D01*
X0209244Y0197020D01*
X0210327Y0197221D01*
X0211414Y0197396D01*
X0212506Y0197544D01*
X0213601Y0197666D01*
X0214698Y0197760D01*
X0215798Y0197828D01*
X0216899Y0197868D01*
X0218000Y0197882D01*
X0219101Y0197868D01*
X0220202Y0197828D01*
X0221302Y0197760D01*
X0222399Y0197666D01*
X0223494Y0197544D01*
X0224586Y0197396D01*
X0225673Y0197221D01*
X0226756Y0197020D01*
X0227834Y0196791D01*
X0228905Y0196537D01*
X0229971Y0196256D01*
X0231029Y0195949D01*
X0232079Y0195617D01*
X0233120Y0195258D01*
X0234153Y0194875D01*
X0235176Y0194466D01*
X0236188Y0194032D01*
X0237190Y0193573D01*
X0238179Y0193090D01*
X0239157Y0192582D01*
X0240122Y0192051D01*
X0241074Y0191497D01*
X0242012Y0190919D01*
X0242935Y0190318D01*
X0243843Y0189695D01*
X0244736Y0189050D01*
X0245613Y0188383D01*
X0246473Y0187694D01*
X0247316Y0186985D01*
X0248141Y0186255D01*
X0248948Y0185506D01*
X0249736Y0184736D01*
X0250506Y0183948D01*
X0251255Y0183141D01*
X0251985Y0182316D01*
X0252694Y0181473D01*
X0253383Y0180613D01*
X0254050Y0179736D01*
X0254695Y0178843D01*
X0255318Y0177935D01*
X0255919Y0177012D01*
X0256497Y0176074D01*
X0257051Y0175122D01*
X0257582Y0174157D01*
X0258090Y0173179D01*
X0258573Y0172190D01*
X0259032Y0171188D01*
X0259466Y0170176D01*
X0259875Y0169153D01*
X0260258Y0168120D01*
X0260617Y0167079D01*
X0260949Y0166029D01*
X0261256Y0164971D01*
X0261537Y0163905D01*
X0261791Y0162834D01*
X0262020Y0161756D01*
X0262221Y0160673D01*
X0262396Y0159586D01*
X0262544Y0158494D01*
X0262666Y0157399D01*
X0262760Y0156302D01*
X0262828Y0155202D01*
X0262868Y0154101D01*
X0262882Y0153000D01*
X0262868Y0151899D01*
X0262828Y0150798D01*
X0262760Y0149698D01*
X0262666Y0148601D01*
X0262544Y0147506D01*
X0262396Y0146414D01*
X0262221Y0145327D01*
X0262020Y0144244D01*
X0261791Y0143166D01*
X0261537Y0142095D01*
X0261256Y0141029D01*
X0260949Y0139971D01*
X0260617Y0138921D01*
X0260258Y0137880D01*
X0259875Y0136847D01*
X0259466Y0135824D01*
X0259032Y0134812D01*
X0258573Y0133810D01*
X0258090Y0132821D01*
X0257582Y0131843D01*
X0257051Y0130878D01*
X0256497Y0129926D01*
X0255919Y0128988D01*
X0255318Y0128065D01*
X0254695Y0127157D01*
X0254050Y0126264D01*
X0253383Y0125387D01*
X0252694Y0124527D01*
X0251985Y0123684D01*
X0251255Y0122859D01*
X0250506Y0122052D01*
X0249736Y0121264D01*
X0248948Y0120494D01*
X0248141Y0119745D01*
X0247316Y0119015D01*
X0246473Y0118306D01*
X0245613Y0117617D01*
X0244736Y0116950D01*
X0243843Y0116305D01*
X0242935Y0115682D01*
X0242012Y0115081D01*
X0241074Y0114503D01*
X0240122Y0113949D01*
X0239157Y0113418D01*
X0238179Y0112910D01*
X0237190Y0112427D01*
X0236188Y0111968D01*
X0235176Y0111534D01*
X0234153Y0111125D01*
X0233120Y0110742D01*
X0232079Y0110383D01*
X0231029Y0110051D01*
X0229971Y0109744D01*
X0228905Y0109463D01*
X0227834Y0109209D01*
X0226756Y0108980D01*
X0225673Y0108779D01*
X0224586Y0108604D01*
X0223494Y0108456D01*
X0222399Y0108334D01*
X0221302Y0108240D01*
X0220202Y0108172D01*
X0219101Y0108132D01*
X0218000Y0108118D01*
X0216899Y0108132D01*
X0215798Y0108172D01*
X0214698Y0108240D01*
X0213601Y0108334D01*
X0212506Y0108456D01*
X0211414Y0108604D01*
X0210327Y0108779D01*
X0209244Y0108980D01*
X0208166Y0109209D01*
X0207095Y0109463D01*
X0206029Y0109744D01*
X0204971Y0110051D01*
X0203921Y0110383D01*
X0202880Y0110742D01*
X0201847Y0111125D01*
X0200824Y0111534D01*
X0199812Y0111968D01*
X0198810Y0112427D01*
X0197821Y0112910D01*
X0196843Y0113418D01*
X0195878Y0113949D01*
X0194926Y0114503D01*
X0193988Y0115081D01*
X0193065Y0115682D01*
X0192157Y0116305D01*
X0191264Y0116950D01*
X0190387Y0117617D01*
X0189527Y0118306D01*
X0188684Y0119015D01*
X0187859Y0119745D01*
X0187052Y0120494D01*
X0186264Y0121264D01*
X0185494Y0122052D01*
X0184745Y0122859D01*
X0184015Y0123684D01*
X0183306Y0124527D01*
X0182617Y0125387D01*
X0181950Y0126264D01*
X0181305Y0127157D01*
X0180682Y0128065D01*
X0180081Y0128988D01*
X0179503Y0129926D01*
X0178949Y0130878D01*
X0178418Y0131843D01*
X0177910Y0132821D01*
X0177427Y0133810D01*
X0176968Y0134812D01*
X0176534Y0135824D01*
X0176125Y0136847D01*
X0175742Y0137880D01*
X0175383Y0138921D01*
X0175051Y0139971D01*
X0174744Y0141029D01*
X0174463Y0142095D01*
X0174209Y0143166D01*
X0173980Y0144244D01*
X0173779Y0145327D01*
X0173604Y0146414D01*
X0173456Y0147506D01*
X0173334Y0148601D01*
X0173240Y0149698D01*
X0173172Y0150798D01*
X0173132Y0151899D01*
X0173118Y0153000D01*
X0207104Y0161833D02*
X0210107Y0161833D01*
X0211708Y0161833D02*
X0213209Y0161833D01*
X0212459Y0161833D02*
X0212459Y0164835D01*
X0211708Y0164835D01*
X0212459Y0166337D02*
X0212459Y0167087D01*
X0214777Y0164835D02*
X0216278Y0164835D01*
X0215528Y0165586D02*
X0215528Y0162583D01*
X0216278Y0161833D01*
X0217846Y0161833D02*
X0217846Y0162583D01*
X0218597Y0162583D01*
X0218597Y0161833D01*
X0217846Y0161833D01*
X0220148Y0162583D02*
X0220899Y0161833D01*
X0222400Y0161833D01*
X0223151Y0162583D01*
X0223151Y0163334D01*
X0222400Y0164085D01*
X0221650Y0164085D01*
X0222400Y0164085D02*
X0223151Y0164835D01*
X0223151Y0165586D01*
X0222400Y0166337D01*
X0220899Y0166337D01*
X0220148Y0165586D01*
X0224752Y0166337D02*
X0224752Y0163334D01*
X0226254Y0161833D01*
X0227755Y0163334D01*
X0227755Y0166337D01*
X0207104Y0166337D02*
X0207104Y0161833D01*
X0254645Y0188268D02*
X0255662Y0187250D01*
X0259732Y0187250D01*
X0260750Y0188268D01*
X0260750Y0190303D01*
X0259732Y0191320D01*
X0257697Y0191320D01*
X0257697Y0189285D01*
X0255662Y0191320D02*
X0254645Y0190303D01*
X0254645Y0188268D01*
X0254645Y0193327D02*
X0254645Y0196380D01*
X0255662Y0197397D01*
X0256680Y0197397D01*
X0257697Y0196380D01*
X0257697Y0193327D01*
X0254645Y0193327D02*
X0260750Y0193327D01*
X0260750Y0196380D01*
X0259732Y0197397D01*
X0258715Y0197397D01*
X0257697Y0196380D01*
X0265250Y0079649D02*
X0265250Y0076646D01*
X0265250Y0078147D02*
X0260746Y0078147D01*
X0262247Y0076646D01*
X0261497Y0075045D02*
X0262998Y0075045D01*
X0263749Y0074294D01*
X0263749Y0072042D01*
X0265250Y0072042D02*
X0260746Y0072042D01*
X0260746Y0074294D01*
X0261497Y0075045D01*
X0260746Y0070441D02*
X0260746Y0068939D01*
X0260746Y0069690D02*
X0264499Y0069690D01*
X0265250Y0068939D01*
X0265250Y0068189D01*
X0264499Y0067438D01*
X0233855Y0042754D02*
X0233855Y0038250D01*
X0232354Y0038250D02*
X0235356Y0038250D01*
X0230753Y0039001D02*
X0230002Y0038250D01*
X0228501Y0038250D01*
X0227750Y0039001D01*
X0228501Y0040502D02*
X0227750Y0041253D01*
X0227750Y0042003D01*
X0228501Y0042754D01*
X0230002Y0042754D01*
X0230753Y0042003D01*
X0230002Y0040502D02*
X0230753Y0039751D01*
X0230753Y0039001D01*
X0230002Y0040502D02*
X0228501Y0040502D01*
X0232354Y0041253D02*
X0233855Y0042754D01*
D13*
X0100646Y0026236D02*
X0100646Y0009701D01*
X0096315Y0005370D01*
X0092378Y0005370D01*
X0088244Y0005370D02*
X0084110Y0005370D01*
X0079780Y0009701D01*
X0079780Y0026236D01*
X0088047Y0026236D01*
X0092378Y0026236D02*
X0100646Y0026236D01*
X0092378Y0025449D02*
X0092610Y0025396D01*
X0092841Y0025337D01*
X0093070Y0025273D01*
X0093297Y0025202D01*
X0093523Y0025127D01*
X0093747Y0025046D01*
X0093969Y0024959D01*
X0094188Y0024867D01*
X0094405Y0024770D01*
X0094620Y0024667D01*
X0094832Y0024559D01*
X0095042Y0024446D01*
X0095249Y0024328D01*
X0095452Y0024205D01*
X0095653Y0024077D01*
X0095851Y0023944D01*
X0096045Y0023807D01*
X0096236Y0023664D01*
X0096423Y0023517D01*
X0096607Y0023366D01*
X0096786Y0023210D01*
X0096962Y0023050D01*
X0097134Y0022885D01*
X0097302Y0022716D01*
X0097466Y0022544D01*
X0097626Y0022367D01*
X0097781Y0022186D01*
X0097932Y0022002D01*
X0098078Y0021814D01*
X0098219Y0021623D01*
X0098356Y0021428D01*
X0098488Y0021230D01*
X0098615Y0021029D01*
X0098738Y0020824D01*
X0098855Y0020617D01*
X0098967Y0020407D01*
X0099074Y0020194D01*
X0099176Y0019979D01*
X0099272Y0019762D01*
X0099363Y0019542D01*
X0099449Y0019320D01*
X0099529Y0019095D01*
X0099604Y0018869D01*
X0099673Y0018642D01*
X0099737Y0018412D01*
X0099795Y0018181D01*
X0099847Y0017949D01*
X0099894Y0017716D01*
X0099935Y0017481D01*
X0099970Y0017246D01*
X0099999Y0017010D01*
X0100023Y0016773D01*
X0100041Y0016535D01*
X0100053Y0016298D01*
X0100059Y0016060D01*
X0100059Y0015822D01*
X0100054Y0015584D01*
X0100043Y0015346D01*
X0100026Y0015108D01*
X0100003Y0014871D01*
X0099975Y0014635D01*
X0099940Y0014399D01*
X0099900Y0014165D01*
X0099855Y0013931D01*
X0099803Y0013699D01*
X0099746Y0013468D01*
X0099683Y0013238D01*
X0099615Y0013010D01*
X0099541Y0012784D01*
X0099462Y0012559D01*
X0099377Y0012337D01*
X0099287Y0012116D01*
X0099191Y0011898D01*
X0099090Y0011683D01*
X0098984Y0011470D01*
X0098873Y0011259D01*
X0098756Y0011052D01*
X0098635Y0010847D01*
X0098508Y0010645D01*
X0098377Y0010447D01*
X0098241Y0010251D01*
X0098100Y0010059D01*
X0097955Y0009871D01*
X0097805Y0009686D01*
X0097650Y0009505D01*
X0097491Y0009328D01*
X0097328Y0009154D01*
X0097161Y0008985D01*
X0096989Y0008820D01*
X0096814Y0008659D01*
X0096635Y0008502D01*
X0096452Y0008350D01*
X0096265Y0008202D01*
X0096075Y0008059D01*
X0095881Y0007921D01*
X0095684Y0007787D01*
X0095484Y0007659D01*
X0095281Y0007535D01*
X0095074Y0007416D01*
X0094865Y0007302D01*
X0094653Y0007193D01*
X0094439Y0007090D01*
X0094222Y0006992D01*
X0094003Y0006899D01*
X0093781Y0006812D01*
X0093558Y0006730D01*
X0093333Y0006653D01*
X0093105Y0006582D01*
X0092876Y0006517D01*
X0092646Y0006457D01*
X0092414Y0006403D01*
X0092181Y0006354D01*
X0088244Y0006157D02*
X0088010Y0006211D01*
X0087776Y0006269D01*
X0087545Y0006334D01*
X0087315Y0006404D01*
X0087087Y0006480D01*
X0086860Y0006561D01*
X0086636Y0006647D01*
X0086414Y0006740D01*
X0086194Y0006837D01*
X0085977Y0006940D01*
X0085762Y0007048D01*
X0085550Y0007161D01*
X0085340Y0007280D01*
X0085134Y0007403D01*
X0084931Y0007531D01*
X0084731Y0007665D01*
X0084534Y0007803D01*
X0084340Y0007946D01*
X0084150Y0008093D01*
X0083964Y0008245D01*
X0083782Y0008402D01*
X0083603Y0008563D01*
X0083429Y0008728D01*
X0083258Y0008898D01*
X0083092Y0009071D01*
X0082929Y0009249D01*
X0082772Y0009430D01*
X0082618Y0009616D01*
X0082470Y0009805D01*
X0082326Y0009997D01*
X0082186Y0010193D01*
X0082052Y0010392D01*
X0081922Y0010595D01*
X0081797Y0010800D01*
X0081677Y0011009D01*
X0081563Y0011220D01*
X0081453Y0011434D01*
X0081349Y0011651D01*
X0081250Y0011870D01*
X0081157Y0012092D01*
X0081069Y0012316D01*
X0080986Y0012541D01*
X0080909Y0012769D01*
X0080838Y0012999D01*
X0080772Y0013230D01*
X0080711Y0013463D01*
X0080657Y0013697D01*
X0080608Y0013932D01*
X0080565Y0014169D01*
X0080527Y0014406D01*
X0080496Y0014645D01*
X0080470Y0014884D01*
X0080450Y0015124D01*
X0080436Y0015364D01*
X0080427Y0015604D01*
X0080425Y0015844D01*
X0080428Y0016085D01*
X0080438Y0016325D01*
X0080453Y0016565D01*
X0080474Y0016805D01*
X0080500Y0017044D01*
X0080533Y0017282D01*
X0080571Y0017519D01*
X0080615Y0017756D01*
X0080665Y0017991D01*
X0080721Y0018225D01*
X0080782Y0018457D01*
X0080849Y0018688D01*
X0080921Y0018918D01*
X0080999Y0019145D01*
X0081083Y0019371D01*
X0081172Y0019594D01*
X0081266Y0019815D01*
X0081366Y0020034D01*
X0081471Y0020250D01*
X0081581Y0020464D01*
X0081696Y0020675D01*
X0081817Y0020883D01*
X0081942Y0021088D01*
X0082073Y0021290D01*
X0082208Y0021489D01*
X0082348Y0021684D01*
X0082493Y0021876D01*
X0082643Y0022064D01*
X0082797Y0022249D01*
X0082955Y0022430D01*
X0083118Y0022607D01*
X0083285Y0022780D01*
X0083456Y0022949D01*
X0083632Y0023113D01*
X0083811Y0023274D01*
X0083994Y0023429D01*
X0084181Y0023581D01*
X0084371Y0023728D01*
X0084565Y0023870D01*
X0084763Y0024007D01*
X0084963Y0024140D01*
X0085167Y0024267D01*
X0085374Y0024390D01*
X0085584Y0024507D01*
X0085796Y0024620D01*
X0086011Y0024727D01*
X0086229Y0024829D01*
X0086449Y0024926D01*
X0086672Y0025017D01*
X0086897Y0025103D01*
X0087123Y0025183D01*
X0087352Y0025258D01*
X0087582Y0025327D01*
X0087814Y0025390D01*
X0088047Y0025448D01*
X0062480Y0161283D02*
X0051850Y0161283D01*
X0042402Y0161283D02*
X0019173Y0161283D01*
X0019173Y0196717D01*
X0062480Y0196717D01*
X0062480Y0182543D01*
X0069098Y0187000D02*
X0094902Y0187000D01*
X0094902Y0173000D01*
X0069098Y0173000D01*
X0069098Y0187000D01*
X0062480Y0175457D02*
X0062480Y0161283D01*
X0107098Y0173000D02*
X0107098Y0187000D01*
X0132902Y0187000D01*
X0132902Y0173000D01*
X0107098Y0173000D01*
X0145098Y0173000D02*
X0145098Y0187000D01*
X0170902Y0187000D01*
X0170902Y0173000D01*
X0145098Y0173000D01*
D14*
X0033000Y0155500D02*
X0033000Y0150500D01*
X0030500Y0148000D01*
X0033000Y0145500D01*
X0033000Y0140500D01*
X0030500Y0138000D01*
X0025500Y0138000D01*
X0023000Y0140500D01*
X0023000Y0145500D01*
X0025500Y0148000D01*
X0023000Y0150500D01*
X0023000Y0155500D01*
X0025500Y0158000D01*
X0030500Y0158000D01*
X0033000Y0155500D01*
X0030500Y0148000D02*
X0025500Y0148000D01*
X0025500Y0138000D02*
X0023000Y0135500D01*
X0023000Y0130500D01*
X0025500Y0128000D01*
X0023000Y0125500D01*
X0023000Y0120500D01*
X0025500Y0118000D01*
X0030500Y0118000D01*
X0033000Y0120500D01*
X0033000Y0125500D01*
X0030500Y0128000D01*
X0025500Y0128000D01*
X0030500Y0128000D02*
X0033000Y0130500D01*
X0033000Y0135500D01*
X0030500Y0138000D01*
X0189600Y0033400D02*
X0206400Y0033400D01*
X0227400Y0036500D02*
X0252600Y0036500D01*
X0252600Y0011500D01*
X0227400Y0011500D01*
X0227400Y0036500D01*
X0232000Y0032000D02*
X0248000Y0032000D01*
X0248000Y0026000D01*
X0232000Y0026000D01*
X0232000Y0032000D01*
X0232000Y0022000D02*
X0248000Y0022000D01*
X0248000Y0016000D01*
X0232000Y0016000D01*
X0232000Y0022000D01*
X0206400Y0012600D02*
X0189600Y0012600D01*
X0238000Y0053500D02*
X0240500Y0051000D01*
X0255500Y0051000D01*
X0258000Y0053500D01*
X0258000Y0058500D01*
X0255500Y0061000D01*
X0240500Y0061000D01*
X0238000Y0058500D01*
X0238000Y0053500D01*
X0240500Y0061000D02*
X0238000Y0063500D01*
X0238000Y0068500D01*
X0240500Y0071000D01*
X0255500Y0071000D01*
X0258000Y0068500D01*
X0258000Y0063500D01*
X0255500Y0061000D01*
X0255500Y0071000D02*
X0258000Y0073500D01*
X0258000Y0078500D01*
X0255500Y0081000D01*
X0240500Y0081000D01*
X0238000Y0078500D01*
X0238000Y0073500D01*
X0240500Y0071000D01*
D15*
X0188286Y0036170D02*
X0185150Y0033034D01*
X0186718Y0033034D02*
X0186718Y0036170D01*
X0185150Y0036170D02*
X0188286Y0033034D01*
X0188286Y0034602D02*
X0185150Y0034602D01*
X0185250Y0025354D02*
X0185250Y0021434D01*
X0186034Y0020650D01*
X0187602Y0020650D01*
X0188386Y0021434D01*
X0188386Y0025354D01*
X0189854Y0024570D02*
X0190638Y0025354D01*
X0192206Y0025354D01*
X0192990Y0024570D01*
X0192990Y0023786D01*
X0189854Y0020650D01*
X0192990Y0020650D01*
X0167233Y0033701D02*
X0164764Y0033701D01*
X0165998Y0032467D02*
X0165998Y0034936D01*
X0165998Y0063467D02*
X0165998Y0065936D01*
X0164764Y0064701D02*
X0167233Y0064701D01*
X0129531Y0069119D02*
X0127597Y0069119D01*
X0128564Y0069119D02*
X0128564Y0072021D01*
X0127597Y0071053D01*
X0126585Y0072021D02*
X0124650Y0069119D01*
X0126585Y0069119D02*
X0124650Y0072021D01*
X0125417Y0104713D02*
X0124733Y0105397D01*
X0124733Y0106081D01*
X0124018Y0106797D02*
X0125728Y0108507D01*
X0126101Y0107450D02*
X0126785Y0107450D01*
X0127470Y0106765D01*
X0127470Y0106081D01*
X0127127Y0105739D01*
X0126443Y0105739D01*
X0126443Y0105055D01*
X0126101Y0104713D01*
X0125417Y0104713D01*
X0126443Y0105739D02*
X0126101Y0106081D01*
X0124018Y0106797D02*
X0123334Y0106797D01*
X0122650Y0107481D01*
X0122650Y0108165D01*
X0124360Y0109875D01*
X0140692Y0126207D02*
X0142060Y0124839D01*
X0142776Y0124124D02*
X0144828Y0126176D01*
X0146196Y0124808D01*
X0144486Y0124466D02*
X0143802Y0125150D01*
X0142745Y0128260D02*
X0140692Y0126207D01*
X0139977Y0126923D02*
X0142029Y0128975D01*
X0140661Y0128975D01*
X0140661Y0130343D01*
X0138609Y0128291D01*
X0138236Y0129348D02*
X0137551Y0129348D01*
X0136867Y0130032D01*
X0136867Y0130716D01*
X0137209Y0131059D01*
X0137893Y0131059D01*
X0138578Y0130374D01*
X0138578Y0129690D01*
X0138236Y0129348D01*
X0138578Y0130374D02*
X0139262Y0130374D01*
X0139604Y0130716D01*
X0139604Y0131401D01*
X0138920Y0132085D01*
X0138236Y0132085D01*
X0137893Y0131743D01*
X0137893Y0131059D01*
X0137178Y0132458D02*
X0134442Y0132458D01*
X0135810Y0131090D01*
X0137178Y0132458D02*
X0137520Y0132800D01*
X0137520Y0133484D01*
X0136836Y0134168D01*
X0136152Y0134168D01*
X0135437Y0134883D02*
X0135095Y0134541D01*
X0134411Y0134541D01*
X0134411Y0133857D01*
X0134069Y0133515D01*
X0133384Y0133515D01*
X0132700Y0134199D01*
X0132700Y0134883D01*
X0134069Y0134883D02*
X0134411Y0134541D01*
X0135437Y0134883D02*
X0135437Y0135568D01*
X0134753Y0136252D01*
X0134069Y0136252D01*
X0133695Y0137309D02*
X0130275Y0136625D01*
X0129902Y0137682D02*
X0129217Y0137682D01*
X0128533Y0138366D01*
X0128533Y0139051D01*
X0128875Y0139393D01*
X0129559Y0139393D01*
X0130244Y0138708D01*
X0130244Y0138024D01*
X0129902Y0137682D01*
X0130244Y0138708D02*
X0130928Y0138708D01*
X0131270Y0139051D01*
X0131270Y0139735D01*
X0130586Y0140419D01*
X0129902Y0140419D01*
X0129559Y0140077D01*
X0129559Y0139393D01*
X0128160Y0140108D02*
X0128160Y0140792D01*
X0127134Y0141818D01*
X0126450Y0141134D01*
X0126450Y0140450D01*
X0127134Y0139766D01*
X0127818Y0139766D01*
X0128160Y0140108D01*
X0128502Y0141818D02*
X0127134Y0141818D01*
X0128502Y0141818D02*
X0129528Y0141476D01*
X0126761Y0144244D02*
X0125392Y0144244D01*
X0126761Y0144244D02*
X0124708Y0142191D01*
X0124024Y0142875D02*
X0125392Y0141507D01*
X0125361Y0145643D02*
X0121941Y0144959D01*
X0121568Y0146016D02*
X0120883Y0146016D01*
X0120199Y0146700D01*
X0120199Y0147385D01*
X0120541Y0147727D01*
X0121225Y0147727D01*
X0121910Y0147043D01*
X0121910Y0146358D01*
X0121568Y0146016D01*
X0121910Y0147043D02*
X0122594Y0147043D01*
X0122936Y0147385D01*
X0122936Y0148069D01*
X0122252Y0148753D01*
X0121568Y0148753D01*
X0121225Y0148411D01*
X0121225Y0147727D01*
X0120168Y0148784D02*
X0118800Y0150152D01*
X0119142Y0150494D02*
X0120510Y0150494D01*
X0120510Y0149126D01*
X0119142Y0147758D01*
X0117774Y0149126D02*
X0119142Y0150494D01*
X0118085Y0150867D02*
X0117401Y0151552D01*
X0118085Y0150867D02*
X0117401Y0150183D01*
X0116716Y0150183D01*
X0116032Y0150867D01*
X0116032Y0151552D01*
X0117401Y0152920D01*
X0118085Y0152920D01*
X0118769Y0152236D01*
X0118769Y0151552D01*
X0115317Y0153635D02*
X0114633Y0154319D01*
X0113607Y0153293D02*
X0114975Y0151925D01*
X0113607Y0153293D02*
X0115659Y0155345D01*
X0117027Y0153977D01*
X0114944Y0156061D02*
X0112891Y0154008D01*
X0111523Y0155377D02*
X0113576Y0157429D01*
X0113576Y0156061D01*
X0114944Y0156061D01*
X0112860Y0158144D02*
X0111492Y0159512D01*
X0112176Y0158828D02*
X0110124Y0156776D01*
X0108724Y0158175D02*
X0110093Y0159544D01*
X0110093Y0160912D01*
X0108724Y0160912D01*
X0107356Y0159544D01*
X0108382Y0160570D02*
X0109751Y0159202D01*
X0238850Y0028436D02*
X0238850Y0025967D01*
X0238850Y0027201D02*
X0235147Y0027201D01*
X0236381Y0025967D01*
D16*
X0245000Y0029000D03*
X0245000Y0019000D03*
D17*
X0218000Y0102921D02*
X0218000Y0107134D01*
X0220106Y0105028D02*
X0215894Y0105028D01*
X0215894Y0182764D02*
X0220106Y0182764D01*
D18*
X0063937Y0137756D02*
X0063937Y0132244D01*
X0062756Y0132244D01*
X0062756Y0130669D01*
X0062362Y0130669D01*
X0062362Y0132244D01*
X0057638Y0132244D01*
X0057638Y0130669D01*
X0057244Y0130669D01*
X0057244Y0132244D01*
X0057638Y0132244D01*
X0057244Y0132244D02*
X0056063Y0132244D01*
X0056063Y0137756D01*
X0057244Y0137756D01*
X0057244Y0139331D01*
X0057638Y0139331D01*
X0057638Y0137756D01*
X0059803Y0137756D01*
X0059803Y0139331D01*
X0060197Y0139331D01*
X0060197Y0137756D01*
X0062362Y0137756D01*
X0062362Y0139331D01*
X0062756Y0139331D01*
X0062756Y0137756D01*
X0062362Y0137756D01*
X0062756Y0137756D02*
X0063937Y0137756D01*
X0062362Y0136575D02*
X0062364Y0136614D01*
X0062370Y0136653D01*
X0062380Y0136691D01*
X0062393Y0136728D01*
X0062410Y0136763D01*
X0062430Y0136797D01*
X0062454Y0136828D01*
X0062481Y0136857D01*
X0062510Y0136883D01*
X0062542Y0136906D01*
X0062576Y0136926D01*
X0062612Y0136942D01*
X0062649Y0136954D01*
X0062688Y0136963D01*
X0062727Y0136968D01*
X0062766Y0136969D01*
X0062805Y0136966D01*
X0062844Y0136959D01*
X0062881Y0136948D01*
X0062918Y0136934D01*
X0062953Y0136916D01*
X0062986Y0136895D01*
X0063017Y0136870D01*
X0063045Y0136843D01*
X0063070Y0136813D01*
X0063092Y0136780D01*
X0063111Y0136746D01*
X0063126Y0136710D01*
X0063138Y0136672D01*
X0063146Y0136634D01*
X0063150Y0136595D01*
X0063150Y0136555D01*
X0063146Y0136516D01*
X0063138Y0136478D01*
X0063126Y0136440D01*
X0063111Y0136404D01*
X0063092Y0136370D01*
X0063070Y0136337D01*
X0063045Y0136307D01*
X0063017Y0136280D01*
X0062986Y0136255D01*
X0062953Y0136234D01*
X0062918Y0136216D01*
X0062881Y0136202D01*
X0062844Y0136191D01*
X0062805Y0136184D01*
X0062766Y0136181D01*
X0062727Y0136182D01*
X0062688Y0136187D01*
X0062649Y0136196D01*
X0062612Y0136208D01*
X0062576Y0136224D01*
X0062542Y0136244D01*
X0062510Y0136267D01*
X0062481Y0136293D01*
X0062454Y0136322D01*
X0062430Y0136353D01*
X0062410Y0136387D01*
X0062393Y0136422D01*
X0062380Y0136459D01*
X0062370Y0136497D01*
X0062364Y0136536D01*
X0062362Y0136575D01*
X0060197Y0137756D02*
X0059803Y0137756D01*
X0057638Y0137756D02*
X0057244Y0137756D01*
X0062362Y0132244D02*
X0062756Y0132244D01*
D19*
X0101929Y0025814D02*
X0101679Y0025564D01*
X0101679Y0025063D01*
X0101929Y0024813D01*
X0101929Y0024341D02*
X0101679Y0024090D01*
X0101679Y0023590D01*
X0101929Y0023340D01*
X0102930Y0023340D01*
X0103180Y0023590D01*
X0103180Y0024090D01*
X0102930Y0024341D01*
X0102930Y0024813D02*
X0103180Y0025063D01*
X0103180Y0025564D01*
X0102930Y0025814D01*
X0102680Y0025814D01*
X0102429Y0025564D01*
X0102429Y0025313D01*
X0102429Y0025564D02*
X0102179Y0025814D01*
X0101929Y0025814D01*
D20*
X0130165Y0106751D02*
X0131835Y0106751D01*
X0143249Y0118165D02*
X0143249Y0119835D01*
X0131835Y0131249D02*
X0130165Y0131249D01*
X0118751Y0119835D02*
X0118751Y0118165D01*
D21*
X0174591Y0064362D03*
X0174591Y0059638D03*
X0174591Y0033362D03*
X0174591Y0028638D03*
D22*
X0174591Y0031000D03*
X0174591Y0062000D03*
D23*
X0067717Y0020567D02*
X0067717Y0008756D01*
X0061811Y0008756D01*
X0061811Y0020567D01*
X0055906Y0014661D02*
X0050000Y0014661D01*
X0050000Y0008756D01*
X0044094Y0008756D01*
X0044094Y0014661D01*
X0038189Y0014661D01*
X0038189Y0008756D01*
X0032283Y0008756D01*
X0032283Y0014661D01*
X0055906Y0014661D02*
X0055906Y0008756D01*
X0061811Y0008756D01*
M02*
