G75*
%MOIN*%
%OFA0B0*%
%FSLAX25Y25*%
%IPPOS*%
%LPD*%
%AMOC8*
5,1,8,0,0,1.08239X$1,22.5*
%
%ADD10C,0.00000*%
%ADD11R,0.06299X0.07098*%
%ADD12R,0.06299X0.07087*%
%ADD13R,0.07900X0.04300*%
%ADD14R,0.07800X0.02100*%
%ADD15R,0.02559X0.08661*%
%ADD16R,0.05000X0.02200*%
%ADD17R,0.02200X0.05000*%
%ADD18R,0.05906X0.05906*%
%ADD19C,0.03898*%
%ADD20R,0.03740X0.08465*%
%ADD21R,0.12795X0.08465*%
%ADD22R,0.06299X0.09055*%
D10*
X0011520Y0002000D02*
X0011520Y0205961D01*
X0221220Y0205961D01*
X0221220Y0002000D01*
X0011520Y0002000D01*
X0075583Y0009000D02*
X0075585Y0009125D01*
X0075591Y0009250D01*
X0075601Y0009374D01*
X0075615Y0009498D01*
X0075632Y0009622D01*
X0075654Y0009745D01*
X0075680Y0009867D01*
X0075709Y0009989D01*
X0075742Y0010109D01*
X0075780Y0010228D01*
X0075820Y0010347D01*
X0075865Y0010463D01*
X0075913Y0010578D01*
X0075965Y0010692D01*
X0076021Y0010804D01*
X0076080Y0010914D01*
X0076142Y0011022D01*
X0076208Y0011129D01*
X0076277Y0011233D01*
X0076350Y0011334D01*
X0076425Y0011434D01*
X0076504Y0011531D01*
X0076586Y0011625D01*
X0076671Y0011717D01*
X0076758Y0011806D01*
X0076849Y0011892D01*
X0076942Y0011975D01*
X0077038Y0012056D01*
X0077136Y0012133D01*
X0077236Y0012207D01*
X0077339Y0012278D01*
X0077444Y0012345D01*
X0077552Y0012410D01*
X0077661Y0012470D01*
X0077772Y0012528D01*
X0077885Y0012581D01*
X0077999Y0012631D01*
X0078115Y0012678D01*
X0078232Y0012720D01*
X0078351Y0012759D01*
X0078471Y0012795D01*
X0078592Y0012826D01*
X0078714Y0012854D01*
X0078836Y0012877D01*
X0078960Y0012897D01*
X0079084Y0012913D01*
X0079208Y0012925D01*
X0079333Y0012933D01*
X0079458Y0012937D01*
X0079582Y0012937D01*
X0079707Y0012933D01*
X0079832Y0012925D01*
X0079956Y0012913D01*
X0080080Y0012897D01*
X0080204Y0012877D01*
X0080326Y0012854D01*
X0080448Y0012826D01*
X0080569Y0012795D01*
X0080689Y0012759D01*
X0080808Y0012720D01*
X0080925Y0012678D01*
X0081041Y0012631D01*
X0081155Y0012581D01*
X0081268Y0012528D01*
X0081379Y0012470D01*
X0081489Y0012410D01*
X0081596Y0012345D01*
X0081701Y0012278D01*
X0081804Y0012207D01*
X0081904Y0012133D01*
X0082002Y0012056D01*
X0082098Y0011975D01*
X0082191Y0011892D01*
X0082282Y0011806D01*
X0082369Y0011717D01*
X0082454Y0011625D01*
X0082536Y0011531D01*
X0082615Y0011434D01*
X0082690Y0011334D01*
X0082763Y0011233D01*
X0082832Y0011129D01*
X0082898Y0011022D01*
X0082960Y0010914D01*
X0083019Y0010804D01*
X0083075Y0010692D01*
X0083127Y0010578D01*
X0083175Y0010463D01*
X0083220Y0010347D01*
X0083260Y0010228D01*
X0083298Y0010109D01*
X0083331Y0009989D01*
X0083360Y0009867D01*
X0083386Y0009745D01*
X0083408Y0009622D01*
X0083425Y0009498D01*
X0083439Y0009374D01*
X0083449Y0009250D01*
X0083455Y0009125D01*
X0083457Y0009000D01*
X0083455Y0008875D01*
X0083449Y0008750D01*
X0083439Y0008626D01*
X0083425Y0008502D01*
X0083408Y0008378D01*
X0083386Y0008255D01*
X0083360Y0008133D01*
X0083331Y0008011D01*
X0083298Y0007891D01*
X0083260Y0007772D01*
X0083220Y0007653D01*
X0083175Y0007537D01*
X0083127Y0007422D01*
X0083075Y0007308D01*
X0083019Y0007196D01*
X0082960Y0007086D01*
X0082898Y0006978D01*
X0082832Y0006871D01*
X0082763Y0006767D01*
X0082690Y0006666D01*
X0082615Y0006566D01*
X0082536Y0006469D01*
X0082454Y0006375D01*
X0082369Y0006283D01*
X0082282Y0006194D01*
X0082191Y0006108D01*
X0082098Y0006025D01*
X0082002Y0005944D01*
X0081904Y0005867D01*
X0081804Y0005793D01*
X0081701Y0005722D01*
X0081596Y0005655D01*
X0081488Y0005590D01*
X0081379Y0005530D01*
X0081268Y0005472D01*
X0081155Y0005419D01*
X0081041Y0005369D01*
X0080925Y0005322D01*
X0080808Y0005280D01*
X0080689Y0005241D01*
X0080569Y0005205D01*
X0080448Y0005174D01*
X0080326Y0005146D01*
X0080204Y0005123D01*
X0080080Y0005103D01*
X0079956Y0005087D01*
X0079832Y0005075D01*
X0079707Y0005067D01*
X0079582Y0005063D01*
X0079458Y0005063D01*
X0079333Y0005067D01*
X0079208Y0005075D01*
X0079084Y0005087D01*
X0078960Y0005103D01*
X0078836Y0005123D01*
X0078714Y0005146D01*
X0078592Y0005174D01*
X0078471Y0005205D01*
X0078351Y0005241D01*
X0078232Y0005280D01*
X0078115Y0005322D01*
X0077999Y0005369D01*
X0077885Y0005419D01*
X0077772Y0005472D01*
X0077661Y0005530D01*
X0077551Y0005590D01*
X0077444Y0005655D01*
X0077339Y0005722D01*
X0077236Y0005793D01*
X0077136Y0005867D01*
X0077038Y0005944D01*
X0076942Y0006025D01*
X0076849Y0006108D01*
X0076758Y0006194D01*
X0076671Y0006283D01*
X0076586Y0006375D01*
X0076504Y0006469D01*
X0076425Y0006566D01*
X0076350Y0006666D01*
X0076277Y0006767D01*
X0076208Y0006871D01*
X0076142Y0006978D01*
X0076080Y0007086D01*
X0076021Y0007196D01*
X0075965Y0007308D01*
X0075913Y0007422D01*
X0075865Y0007537D01*
X0075820Y0007653D01*
X0075780Y0007772D01*
X0075742Y0007891D01*
X0075709Y0008011D01*
X0075680Y0008133D01*
X0075654Y0008255D01*
X0075632Y0008378D01*
X0075615Y0008502D01*
X0075601Y0008626D01*
X0075591Y0008750D01*
X0075585Y0008875D01*
X0075583Y0009000D01*
X0205583Y0009000D02*
X0205585Y0009125D01*
X0205591Y0009250D01*
X0205601Y0009374D01*
X0205615Y0009498D01*
X0205632Y0009622D01*
X0205654Y0009745D01*
X0205680Y0009867D01*
X0205709Y0009989D01*
X0205742Y0010109D01*
X0205780Y0010228D01*
X0205820Y0010347D01*
X0205865Y0010463D01*
X0205913Y0010578D01*
X0205965Y0010692D01*
X0206021Y0010804D01*
X0206080Y0010914D01*
X0206142Y0011022D01*
X0206208Y0011129D01*
X0206277Y0011233D01*
X0206350Y0011334D01*
X0206425Y0011434D01*
X0206504Y0011531D01*
X0206586Y0011625D01*
X0206671Y0011717D01*
X0206758Y0011806D01*
X0206849Y0011892D01*
X0206942Y0011975D01*
X0207038Y0012056D01*
X0207136Y0012133D01*
X0207236Y0012207D01*
X0207339Y0012278D01*
X0207444Y0012345D01*
X0207552Y0012410D01*
X0207661Y0012470D01*
X0207772Y0012528D01*
X0207885Y0012581D01*
X0207999Y0012631D01*
X0208115Y0012678D01*
X0208232Y0012720D01*
X0208351Y0012759D01*
X0208471Y0012795D01*
X0208592Y0012826D01*
X0208714Y0012854D01*
X0208836Y0012877D01*
X0208960Y0012897D01*
X0209084Y0012913D01*
X0209208Y0012925D01*
X0209333Y0012933D01*
X0209458Y0012937D01*
X0209582Y0012937D01*
X0209707Y0012933D01*
X0209832Y0012925D01*
X0209956Y0012913D01*
X0210080Y0012897D01*
X0210204Y0012877D01*
X0210326Y0012854D01*
X0210448Y0012826D01*
X0210569Y0012795D01*
X0210689Y0012759D01*
X0210808Y0012720D01*
X0210925Y0012678D01*
X0211041Y0012631D01*
X0211155Y0012581D01*
X0211268Y0012528D01*
X0211379Y0012470D01*
X0211489Y0012410D01*
X0211596Y0012345D01*
X0211701Y0012278D01*
X0211804Y0012207D01*
X0211904Y0012133D01*
X0212002Y0012056D01*
X0212098Y0011975D01*
X0212191Y0011892D01*
X0212282Y0011806D01*
X0212369Y0011717D01*
X0212454Y0011625D01*
X0212536Y0011531D01*
X0212615Y0011434D01*
X0212690Y0011334D01*
X0212763Y0011233D01*
X0212832Y0011129D01*
X0212898Y0011022D01*
X0212960Y0010914D01*
X0213019Y0010804D01*
X0213075Y0010692D01*
X0213127Y0010578D01*
X0213175Y0010463D01*
X0213220Y0010347D01*
X0213260Y0010228D01*
X0213298Y0010109D01*
X0213331Y0009989D01*
X0213360Y0009867D01*
X0213386Y0009745D01*
X0213408Y0009622D01*
X0213425Y0009498D01*
X0213439Y0009374D01*
X0213449Y0009250D01*
X0213455Y0009125D01*
X0213457Y0009000D01*
X0213455Y0008875D01*
X0213449Y0008750D01*
X0213439Y0008626D01*
X0213425Y0008502D01*
X0213408Y0008378D01*
X0213386Y0008255D01*
X0213360Y0008133D01*
X0213331Y0008011D01*
X0213298Y0007891D01*
X0213260Y0007772D01*
X0213220Y0007653D01*
X0213175Y0007537D01*
X0213127Y0007422D01*
X0213075Y0007308D01*
X0213019Y0007196D01*
X0212960Y0007086D01*
X0212898Y0006978D01*
X0212832Y0006871D01*
X0212763Y0006767D01*
X0212690Y0006666D01*
X0212615Y0006566D01*
X0212536Y0006469D01*
X0212454Y0006375D01*
X0212369Y0006283D01*
X0212282Y0006194D01*
X0212191Y0006108D01*
X0212098Y0006025D01*
X0212002Y0005944D01*
X0211904Y0005867D01*
X0211804Y0005793D01*
X0211701Y0005722D01*
X0211596Y0005655D01*
X0211488Y0005590D01*
X0211379Y0005530D01*
X0211268Y0005472D01*
X0211155Y0005419D01*
X0211041Y0005369D01*
X0210925Y0005322D01*
X0210808Y0005280D01*
X0210689Y0005241D01*
X0210569Y0005205D01*
X0210448Y0005174D01*
X0210326Y0005146D01*
X0210204Y0005123D01*
X0210080Y0005103D01*
X0209956Y0005087D01*
X0209832Y0005075D01*
X0209707Y0005067D01*
X0209582Y0005063D01*
X0209458Y0005063D01*
X0209333Y0005067D01*
X0209208Y0005075D01*
X0209084Y0005087D01*
X0208960Y0005103D01*
X0208836Y0005123D01*
X0208714Y0005146D01*
X0208592Y0005174D01*
X0208471Y0005205D01*
X0208351Y0005241D01*
X0208232Y0005280D01*
X0208115Y0005322D01*
X0207999Y0005369D01*
X0207885Y0005419D01*
X0207772Y0005472D01*
X0207661Y0005530D01*
X0207551Y0005590D01*
X0207444Y0005655D01*
X0207339Y0005722D01*
X0207236Y0005793D01*
X0207136Y0005867D01*
X0207038Y0005944D01*
X0206942Y0006025D01*
X0206849Y0006108D01*
X0206758Y0006194D01*
X0206671Y0006283D01*
X0206586Y0006375D01*
X0206504Y0006469D01*
X0206425Y0006566D01*
X0206350Y0006666D01*
X0206277Y0006767D01*
X0206208Y0006871D01*
X0206142Y0006978D01*
X0206080Y0007086D01*
X0206021Y0007196D01*
X0205965Y0007308D01*
X0205913Y0007422D01*
X0205865Y0007537D01*
X0205820Y0007653D01*
X0205780Y0007772D01*
X0205742Y0007891D01*
X0205709Y0008011D01*
X0205680Y0008133D01*
X0205654Y0008255D01*
X0205632Y0008378D01*
X0205615Y0008502D01*
X0205601Y0008626D01*
X0205591Y0008750D01*
X0205585Y0008875D01*
X0205583Y0009000D01*
X0205583Y0197000D02*
X0205585Y0197125D01*
X0205591Y0197250D01*
X0205601Y0197374D01*
X0205615Y0197498D01*
X0205632Y0197622D01*
X0205654Y0197745D01*
X0205680Y0197867D01*
X0205709Y0197989D01*
X0205742Y0198109D01*
X0205780Y0198228D01*
X0205820Y0198347D01*
X0205865Y0198463D01*
X0205913Y0198578D01*
X0205965Y0198692D01*
X0206021Y0198804D01*
X0206080Y0198914D01*
X0206142Y0199022D01*
X0206208Y0199129D01*
X0206277Y0199233D01*
X0206350Y0199334D01*
X0206425Y0199434D01*
X0206504Y0199531D01*
X0206586Y0199625D01*
X0206671Y0199717D01*
X0206758Y0199806D01*
X0206849Y0199892D01*
X0206942Y0199975D01*
X0207038Y0200056D01*
X0207136Y0200133D01*
X0207236Y0200207D01*
X0207339Y0200278D01*
X0207444Y0200345D01*
X0207552Y0200410D01*
X0207661Y0200470D01*
X0207772Y0200528D01*
X0207885Y0200581D01*
X0207999Y0200631D01*
X0208115Y0200678D01*
X0208232Y0200720D01*
X0208351Y0200759D01*
X0208471Y0200795D01*
X0208592Y0200826D01*
X0208714Y0200854D01*
X0208836Y0200877D01*
X0208960Y0200897D01*
X0209084Y0200913D01*
X0209208Y0200925D01*
X0209333Y0200933D01*
X0209458Y0200937D01*
X0209582Y0200937D01*
X0209707Y0200933D01*
X0209832Y0200925D01*
X0209956Y0200913D01*
X0210080Y0200897D01*
X0210204Y0200877D01*
X0210326Y0200854D01*
X0210448Y0200826D01*
X0210569Y0200795D01*
X0210689Y0200759D01*
X0210808Y0200720D01*
X0210925Y0200678D01*
X0211041Y0200631D01*
X0211155Y0200581D01*
X0211268Y0200528D01*
X0211379Y0200470D01*
X0211489Y0200410D01*
X0211596Y0200345D01*
X0211701Y0200278D01*
X0211804Y0200207D01*
X0211904Y0200133D01*
X0212002Y0200056D01*
X0212098Y0199975D01*
X0212191Y0199892D01*
X0212282Y0199806D01*
X0212369Y0199717D01*
X0212454Y0199625D01*
X0212536Y0199531D01*
X0212615Y0199434D01*
X0212690Y0199334D01*
X0212763Y0199233D01*
X0212832Y0199129D01*
X0212898Y0199022D01*
X0212960Y0198914D01*
X0213019Y0198804D01*
X0213075Y0198692D01*
X0213127Y0198578D01*
X0213175Y0198463D01*
X0213220Y0198347D01*
X0213260Y0198228D01*
X0213298Y0198109D01*
X0213331Y0197989D01*
X0213360Y0197867D01*
X0213386Y0197745D01*
X0213408Y0197622D01*
X0213425Y0197498D01*
X0213439Y0197374D01*
X0213449Y0197250D01*
X0213455Y0197125D01*
X0213457Y0197000D01*
X0213455Y0196875D01*
X0213449Y0196750D01*
X0213439Y0196626D01*
X0213425Y0196502D01*
X0213408Y0196378D01*
X0213386Y0196255D01*
X0213360Y0196133D01*
X0213331Y0196011D01*
X0213298Y0195891D01*
X0213260Y0195772D01*
X0213220Y0195653D01*
X0213175Y0195537D01*
X0213127Y0195422D01*
X0213075Y0195308D01*
X0213019Y0195196D01*
X0212960Y0195086D01*
X0212898Y0194978D01*
X0212832Y0194871D01*
X0212763Y0194767D01*
X0212690Y0194666D01*
X0212615Y0194566D01*
X0212536Y0194469D01*
X0212454Y0194375D01*
X0212369Y0194283D01*
X0212282Y0194194D01*
X0212191Y0194108D01*
X0212098Y0194025D01*
X0212002Y0193944D01*
X0211904Y0193867D01*
X0211804Y0193793D01*
X0211701Y0193722D01*
X0211596Y0193655D01*
X0211488Y0193590D01*
X0211379Y0193530D01*
X0211268Y0193472D01*
X0211155Y0193419D01*
X0211041Y0193369D01*
X0210925Y0193322D01*
X0210808Y0193280D01*
X0210689Y0193241D01*
X0210569Y0193205D01*
X0210448Y0193174D01*
X0210326Y0193146D01*
X0210204Y0193123D01*
X0210080Y0193103D01*
X0209956Y0193087D01*
X0209832Y0193075D01*
X0209707Y0193067D01*
X0209582Y0193063D01*
X0209458Y0193063D01*
X0209333Y0193067D01*
X0209208Y0193075D01*
X0209084Y0193087D01*
X0208960Y0193103D01*
X0208836Y0193123D01*
X0208714Y0193146D01*
X0208592Y0193174D01*
X0208471Y0193205D01*
X0208351Y0193241D01*
X0208232Y0193280D01*
X0208115Y0193322D01*
X0207999Y0193369D01*
X0207885Y0193419D01*
X0207772Y0193472D01*
X0207661Y0193530D01*
X0207551Y0193590D01*
X0207444Y0193655D01*
X0207339Y0193722D01*
X0207236Y0193793D01*
X0207136Y0193867D01*
X0207038Y0193944D01*
X0206942Y0194025D01*
X0206849Y0194108D01*
X0206758Y0194194D01*
X0206671Y0194283D01*
X0206586Y0194375D01*
X0206504Y0194469D01*
X0206425Y0194566D01*
X0206350Y0194666D01*
X0206277Y0194767D01*
X0206208Y0194871D01*
X0206142Y0194978D01*
X0206080Y0195086D01*
X0206021Y0195196D01*
X0205965Y0195308D01*
X0205913Y0195422D01*
X0205865Y0195537D01*
X0205820Y0195653D01*
X0205780Y0195772D01*
X0205742Y0195891D01*
X0205709Y0196011D01*
X0205680Y0196133D01*
X0205654Y0196255D01*
X0205632Y0196378D01*
X0205615Y0196502D01*
X0205601Y0196626D01*
X0205591Y0196750D01*
X0205585Y0196875D01*
X0205583Y0197000D01*
X0062583Y0197000D02*
X0062585Y0197125D01*
X0062591Y0197250D01*
X0062601Y0197374D01*
X0062615Y0197498D01*
X0062632Y0197622D01*
X0062654Y0197745D01*
X0062680Y0197867D01*
X0062709Y0197989D01*
X0062742Y0198109D01*
X0062780Y0198228D01*
X0062820Y0198347D01*
X0062865Y0198463D01*
X0062913Y0198578D01*
X0062965Y0198692D01*
X0063021Y0198804D01*
X0063080Y0198914D01*
X0063142Y0199022D01*
X0063208Y0199129D01*
X0063277Y0199233D01*
X0063350Y0199334D01*
X0063425Y0199434D01*
X0063504Y0199531D01*
X0063586Y0199625D01*
X0063671Y0199717D01*
X0063758Y0199806D01*
X0063849Y0199892D01*
X0063942Y0199975D01*
X0064038Y0200056D01*
X0064136Y0200133D01*
X0064236Y0200207D01*
X0064339Y0200278D01*
X0064444Y0200345D01*
X0064552Y0200410D01*
X0064661Y0200470D01*
X0064772Y0200528D01*
X0064885Y0200581D01*
X0064999Y0200631D01*
X0065115Y0200678D01*
X0065232Y0200720D01*
X0065351Y0200759D01*
X0065471Y0200795D01*
X0065592Y0200826D01*
X0065714Y0200854D01*
X0065836Y0200877D01*
X0065960Y0200897D01*
X0066084Y0200913D01*
X0066208Y0200925D01*
X0066333Y0200933D01*
X0066458Y0200937D01*
X0066582Y0200937D01*
X0066707Y0200933D01*
X0066832Y0200925D01*
X0066956Y0200913D01*
X0067080Y0200897D01*
X0067204Y0200877D01*
X0067326Y0200854D01*
X0067448Y0200826D01*
X0067569Y0200795D01*
X0067689Y0200759D01*
X0067808Y0200720D01*
X0067925Y0200678D01*
X0068041Y0200631D01*
X0068155Y0200581D01*
X0068268Y0200528D01*
X0068379Y0200470D01*
X0068489Y0200410D01*
X0068596Y0200345D01*
X0068701Y0200278D01*
X0068804Y0200207D01*
X0068904Y0200133D01*
X0069002Y0200056D01*
X0069098Y0199975D01*
X0069191Y0199892D01*
X0069282Y0199806D01*
X0069369Y0199717D01*
X0069454Y0199625D01*
X0069536Y0199531D01*
X0069615Y0199434D01*
X0069690Y0199334D01*
X0069763Y0199233D01*
X0069832Y0199129D01*
X0069898Y0199022D01*
X0069960Y0198914D01*
X0070019Y0198804D01*
X0070075Y0198692D01*
X0070127Y0198578D01*
X0070175Y0198463D01*
X0070220Y0198347D01*
X0070260Y0198228D01*
X0070298Y0198109D01*
X0070331Y0197989D01*
X0070360Y0197867D01*
X0070386Y0197745D01*
X0070408Y0197622D01*
X0070425Y0197498D01*
X0070439Y0197374D01*
X0070449Y0197250D01*
X0070455Y0197125D01*
X0070457Y0197000D01*
X0070455Y0196875D01*
X0070449Y0196750D01*
X0070439Y0196626D01*
X0070425Y0196502D01*
X0070408Y0196378D01*
X0070386Y0196255D01*
X0070360Y0196133D01*
X0070331Y0196011D01*
X0070298Y0195891D01*
X0070260Y0195772D01*
X0070220Y0195653D01*
X0070175Y0195537D01*
X0070127Y0195422D01*
X0070075Y0195308D01*
X0070019Y0195196D01*
X0069960Y0195086D01*
X0069898Y0194978D01*
X0069832Y0194871D01*
X0069763Y0194767D01*
X0069690Y0194666D01*
X0069615Y0194566D01*
X0069536Y0194469D01*
X0069454Y0194375D01*
X0069369Y0194283D01*
X0069282Y0194194D01*
X0069191Y0194108D01*
X0069098Y0194025D01*
X0069002Y0193944D01*
X0068904Y0193867D01*
X0068804Y0193793D01*
X0068701Y0193722D01*
X0068596Y0193655D01*
X0068488Y0193590D01*
X0068379Y0193530D01*
X0068268Y0193472D01*
X0068155Y0193419D01*
X0068041Y0193369D01*
X0067925Y0193322D01*
X0067808Y0193280D01*
X0067689Y0193241D01*
X0067569Y0193205D01*
X0067448Y0193174D01*
X0067326Y0193146D01*
X0067204Y0193123D01*
X0067080Y0193103D01*
X0066956Y0193087D01*
X0066832Y0193075D01*
X0066707Y0193067D01*
X0066582Y0193063D01*
X0066458Y0193063D01*
X0066333Y0193067D01*
X0066208Y0193075D01*
X0066084Y0193087D01*
X0065960Y0193103D01*
X0065836Y0193123D01*
X0065714Y0193146D01*
X0065592Y0193174D01*
X0065471Y0193205D01*
X0065351Y0193241D01*
X0065232Y0193280D01*
X0065115Y0193322D01*
X0064999Y0193369D01*
X0064885Y0193419D01*
X0064772Y0193472D01*
X0064661Y0193530D01*
X0064551Y0193590D01*
X0064444Y0193655D01*
X0064339Y0193722D01*
X0064236Y0193793D01*
X0064136Y0193867D01*
X0064038Y0193944D01*
X0063942Y0194025D01*
X0063849Y0194108D01*
X0063758Y0194194D01*
X0063671Y0194283D01*
X0063586Y0194375D01*
X0063504Y0194469D01*
X0063425Y0194566D01*
X0063350Y0194666D01*
X0063277Y0194767D01*
X0063208Y0194871D01*
X0063142Y0194978D01*
X0063080Y0195086D01*
X0063021Y0195196D01*
X0062965Y0195308D01*
X0062913Y0195422D01*
X0062865Y0195537D01*
X0062820Y0195653D01*
X0062780Y0195772D01*
X0062742Y0195891D01*
X0062709Y0196011D01*
X0062680Y0196133D01*
X0062654Y0196255D01*
X0062632Y0196378D01*
X0062615Y0196502D01*
X0062601Y0196626D01*
X0062591Y0196750D01*
X0062585Y0196875D01*
X0062583Y0197000D01*
D11*
X0085921Y0087000D03*
X0097118Y0087000D03*
X0096968Y0057600D03*
X0085771Y0057600D03*
X0085921Y0042000D03*
X0097118Y0042000D03*
X0171921Y0042000D03*
X0183118Y0042000D03*
X0183118Y0058000D03*
X0171921Y0058000D03*
X0194921Y0058000D03*
X0206118Y0058000D03*
X0206118Y0074000D03*
X0194921Y0074000D03*
D12*
X0195008Y0042000D03*
X0206031Y0042000D03*
X0124031Y0100000D03*
X0113008Y0100000D03*
X0097031Y0100000D03*
X0086008Y0100000D03*
X0086008Y0112000D03*
X0097031Y0112000D03*
X0097031Y0073000D03*
X0086008Y0073000D03*
X0056031Y0121000D03*
X0045008Y0121000D03*
D13*
X0128710Y0024650D03*
X0128710Y0014650D03*
X0164110Y0014650D03*
X0164110Y0024650D03*
D14*
X0179570Y0023030D03*
X0179570Y0018030D03*
X0179570Y0013030D03*
X0179570Y0028030D03*
X0198970Y0028030D03*
X0198970Y0023030D03*
X0198970Y0018030D03*
X0198970Y0013030D03*
D15*
X0100777Y0011003D03*
X0100777Y0025570D03*
D16*
G36*
X0146686Y0058800D02*
X0150220Y0055266D01*
X0148664Y0053710D01*
X0145130Y0057244D01*
X0146686Y0058800D01*
G37*
G36*
X0148913Y0061027D02*
X0152447Y0057493D01*
X0150891Y0055937D01*
X0147357Y0059471D01*
X0148913Y0061027D01*
G37*
G36*
X0151140Y0063254D02*
X0154674Y0059720D01*
X0153118Y0058164D01*
X0149584Y0061698D01*
X0151140Y0063254D01*
G37*
G36*
X0153367Y0065481D02*
X0156901Y0061947D01*
X0155345Y0060391D01*
X0151811Y0063925D01*
X0153367Y0065481D01*
G37*
G36*
X0155594Y0067708D02*
X0159128Y0064174D01*
X0157572Y0062618D01*
X0154038Y0066152D01*
X0155594Y0067708D01*
G37*
G36*
X0157821Y0069936D02*
X0161355Y0066402D01*
X0159799Y0064846D01*
X0156265Y0068380D01*
X0157821Y0069936D01*
G37*
G36*
X0160049Y0072163D02*
X0163583Y0068629D01*
X0162027Y0067073D01*
X0158493Y0070607D01*
X0160049Y0072163D01*
G37*
G36*
X0162276Y0074390D02*
X0165810Y0070856D01*
X0164254Y0069300D01*
X0160720Y0072834D01*
X0162276Y0074390D01*
G37*
G36*
X0138375Y0098290D02*
X0141909Y0094756D01*
X0140353Y0093200D01*
X0136819Y0096734D01*
X0138375Y0098290D01*
G37*
G36*
X0136148Y0096063D02*
X0139682Y0092529D01*
X0138126Y0090973D01*
X0134592Y0094507D01*
X0136148Y0096063D01*
G37*
G36*
X0133921Y0093836D02*
X0137455Y0090302D01*
X0135899Y0088746D01*
X0132365Y0092280D01*
X0133921Y0093836D01*
G37*
G36*
X0131694Y0091609D02*
X0135228Y0088075D01*
X0133672Y0086519D01*
X0130138Y0090053D01*
X0131694Y0091609D01*
G37*
G36*
X0129467Y0089382D02*
X0133001Y0085848D01*
X0131445Y0084292D01*
X0127911Y0087826D01*
X0129467Y0089382D01*
G37*
G36*
X0127240Y0087154D02*
X0130774Y0083620D01*
X0129218Y0082064D01*
X0125684Y0085598D01*
X0127240Y0087154D01*
G37*
G36*
X0125013Y0084927D02*
X0128547Y0081393D01*
X0126991Y0079837D01*
X0123457Y0083371D01*
X0125013Y0084927D01*
G37*
G36*
X0122786Y0082700D02*
X0126320Y0079166D01*
X0124764Y0077610D01*
X0121230Y0081144D01*
X0122786Y0082700D01*
G37*
D17*
G36*
X0124764Y0074390D02*
X0126320Y0072834D01*
X0122786Y0069300D01*
X0121230Y0070856D01*
X0124764Y0074390D01*
G37*
G36*
X0126991Y0072163D02*
X0128547Y0070607D01*
X0125013Y0067073D01*
X0123457Y0068629D01*
X0126991Y0072163D01*
G37*
G36*
X0129218Y0069936D02*
X0130774Y0068380D01*
X0127240Y0064846D01*
X0125684Y0066402D01*
X0129218Y0069936D01*
G37*
G36*
X0131445Y0067708D02*
X0133001Y0066152D01*
X0129467Y0062618D01*
X0127911Y0064174D01*
X0131445Y0067708D01*
G37*
G36*
X0133672Y0065481D02*
X0135228Y0063925D01*
X0131694Y0060391D01*
X0130138Y0061947D01*
X0133672Y0065481D01*
G37*
G36*
X0135899Y0063254D02*
X0137455Y0061698D01*
X0133921Y0058164D01*
X0132365Y0059720D01*
X0135899Y0063254D01*
G37*
G36*
X0138126Y0061027D02*
X0139682Y0059471D01*
X0136148Y0055937D01*
X0134592Y0057493D01*
X0138126Y0061027D01*
G37*
G36*
X0140353Y0058800D02*
X0141909Y0057244D01*
X0138375Y0053710D01*
X0136819Y0055266D01*
X0140353Y0058800D01*
G37*
G36*
X0164254Y0082700D02*
X0165810Y0081144D01*
X0162276Y0077610D01*
X0160720Y0079166D01*
X0164254Y0082700D01*
G37*
G36*
X0162027Y0084927D02*
X0163583Y0083371D01*
X0160049Y0079837D01*
X0158493Y0081393D01*
X0162027Y0084927D01*
G37*
G36*
X0159799Y0087154D02*
X0161355Y0085598D01*
X0157821Y0082064D01*
X0156265Y0083620D01*
X0159799Y0087154D01*
G37*
G36*
X0157572Y0089382D02*
X0159128Y0087826D01*
X0155594Y0084292D01*
X0154038Y0085848D01*
X0157572Y0089382D01*
G37*
G36*
X0155345Y0091609D02*
X0156901Y0090053D01*
X0153367Y0086519D01*
X0151811Y0088075D01*
X0155345Y0091609D01*
G37*
G36*
X0153118Y0093836D02*
X0154674Y0092280D01*
X0151140Y0088746D01*
X0149584Y0090302D01*
X0153118Y0093836D01*
G37*
G36*
X0150891Y0096063D02*
X0152447Y0094507D01*
X0148913Y0090973D01*
X0147357Y0092529D01*
X0150891Y0096063D01*
G37*
G36*
X0148664Y0098290D02*
X0150220Y0096734D01*
X0146686Y0093200D01*
X0145130Y0094756D01*
X0148664Y0098290D01*
G37*
D18*
X0142330Y0042000D03*
X0156109Y0042000D03*
X0126409Y0042000D03*
X0112630Y0042000D03*
D19*
X0072177Y0042830D02*
X0070169Y0042830D01*
X0072177Y0042830D02*
X0072177Y0042792D01*
X0070169Y0042792D01*
X0070169Y0042830D01*
X0070169Y0036925D02*
X0072177Y0036925D01*
X0072177Y0036887D01*
X0070169Y0036887D01*
X0070169Y0036925D01*
X0070169Y0031019D02*
X0072177Y0031019D01*
X0072177Y0030981D01*
X0070169Y0030981D01*
X0070169Y0031019D01*
X0070169Y0048736D02*
X0072177Y0048736D01*
X0072177Y0048698D01*
X0070169Y0048698D01*
X0070169Y0048736D01*
X0070169Y0054641D02*
X0072177Y0054641D01*
X0072177Y0054603D01*
X0070169Y0054603D01*
X0070169Y0054641D01*
X0070169Y0060547D02*
X0072177Y0060547D01*
X0072177Y0060509D01*
X0070169Y0060509D01*
X0070169Y0060547D01*
X0070169Y0066452D02*
X0072177Y0066452D01*
X0072177Y0066414D01*
X0070169Y0066414D01*
X0070169Y0066452D01*
X0070169Y0072358D02*
X0072177Y0072358D01*
X0072177Y0072320D01*
X0070169Y0072320D01*
X0070169Y0072358D01*
X0070169Y0078263D02*
X0072177Y0078263D01*
X0072177Y0078225D01*
X0070169Y0078225D01*
X0070169Y0078263D01*
X0070169Y0084169D02*
X0072177Y0084169D01*
X0072177Y0084131D01*
X0070169Y0084131D01*
X0070169Y0084169D01*
X0070169Y0090074D02*
X0072177Y0090074D01*
X0072177Y0090036D01*
X0070169Y0090036D01*
X0070169Y0090074D01*
X0070169Y0095980D02*
X0072177Y0095980D01*
X0072177Y0095942D01*
X0070169Y0095942D01*
X0070169Y0095980D01*
X0070169Y0101885D02*
X0072177Y0101885D01*
X0072177Y0101847D01*
X0070169Y0101847D01*
X0070169Y0101885D01*
X0065091Y0109012D02*
X0065091Y0111020D01*
X0065129Y0111020D01*
X0065129Y0109012D01*
X0065091Y0109012D01*
X0059186Y0109012D02*
X0059186Y0111020D01*
X0059224Y0111020D01*
X0059224Y0109012D01*
X0059186Y0109012D01*
X0053280Y0109012D02*
X0053280Y0111020D01*
X0053318Y0111020D01*
X0053318Y0109012D01*
X0053280Y0109012D01*
X0047375Y0109012D02*
X0047375Y0111020D01*
X0047413Y0111020D01*
X0047413Y0109012D01*
X0047375Y0109012D01*
X0041469Y0109012D02*
X0041469Y0111020D01*
X0041507Y0111020D01*
X0041507Y0109012D01*
X0041469Y0109012D01*
X0035564Y0109012D02*
X0035564Y0111020D01*
X0035602Y0111020D01*
X0035602Y0109012D01*
X0035564Y0109012D01*
X0029658Y0109012D02*
X0029658Y0111020D01*
X0029696Y0111020D01*
X0029696Y0109012D01*
X0029658Y0109012D01*
X0023753Y0109012D02*
X0023753Y0111020D01*
X0023791Y0111020D01*
X0023791Y0109012D01*
X0023753Y0109012D01*
X0018870Y0101847D02*
X0016862Y0101847D01*
X0016862Y0101885D01*
X0018870Y0101885D01*
X0018870Y0101847D01*
X0018870Y0095942D02*
X0016862Y0095942D01*
X0016862Y0095980D01*
X0018870Y0095980D01*
X0018870Y0095942D01*
X0018870Y0090036D02*
X0016862Y0090036D01*
X0016862Y0090074D01*
X0018870Y0090074D01*
X0018870Y0090036D01*
X0018870Y0084131D02*
X0016862Y0084131D01*
X0016862Y0084169D01*
X0018870Y0084169D01*
X0018870Y0084131D01*
X0018870Y0078225D02*
X0016862Y0078225D01*
X0016862Y0078263D01*
X0018870Y0078263D01*
X0018870Y0078225D01*
X0018870Y0072320D02*
X0016862Y0072320D01*
X0016862Y0072358D01*
X0018870Y0072358D01*
X0018870Y0072320D01*
X0018870Y0066414D02*
X0016862Y0066414D01*
X0016862Y0066452D01*
X0018870Y0066452D01*
X0018870Y0066414D01*
X0018870Y0060509D02*
X0016862Y0060509D01*
X0016862Y0060547D01*
X0018870Y0060547D01*
X0018870Y0060509D01*
X0018870Y0054603D02*
X0016862Y0054603D01*
X0016862Y0054641D01*
X0018870Y0054641D01*
X0018870Y0054603D01*
X0018870Y0048698D02*
X0016862Y0048698D01*
X0016862Y0048736D01*
X0018870Y0048736D01*
X0018870Y0048698D01*
X0018870Y0042792D02*
X0016862Y0042792D01*
X0016862Y0042830D01*
X0018870Y0042830D01*
X0018870Y0042792D01*
X0018870Y0036887D02*
X0016862Y0036887D01*
X0016862Y0036925D01*
X0018870Y0036925D01*
X0018870Y0036887D01*
X0018870Y0030981D02*
X0016862Y0030981D01*
X0016862Y0031019D01*
X0018870Y0031019D01*
X0018870Y0030981D01*
D20*
X0041465Y0133583D03*
X0050520Y0133583D03*
X0059575Y0133583D03*
D21*
X0050520Y0156417D03*
D22*
X0202520Y0112402D03*
X0202520Y0087598D03*
M02*
