G75*
%MOIN*%
%OFA0B0*%
%FSLAX25Y25*%
%IPPOS*%
%LPD*%
%AMOC8*
5,1,8,0,0,1.08239X$1,22.5*
%
%ADD10C,0.00000*%
%ADD11R,0.06299X0.07098*%
%ADD12C,0.07677*%
%ADD13R,0.06299X0.07087*%
%ADD14R,0.07900X0.04300*%
%ADD15R,0.07600X0.07600*%
%ADD16OC8,0.07600*%
%ADD17R,0.07800X0.02100*%
%ADD18C,0.06000*%
%ADD19R,0.02559X0.08661*%
%ADD20R,0.05000X0.02200*%
%ADD21R,0.02200X0.05000*%
%ADD22R,0.05906X0.05906*%
%ADD23C,0.03898*%
%ADD24R,0.03740X0.08465*%
%ADD25R,0.12795X0.08465*%
%ADD26C,0.07400*%
%ADD27C,0.01500*%
%ADD28C,0.02400*%
%ADD29C,0.00600*%
D10*
X0018000Y0002000D02*
X0018000Y0205961D01*
X0227701Y0205961D01*
X0227701Y0002000D01*
X0018000Y0002000D01*
X0081063Y0009000D02*
X0081065Y0009125D01*
X0081071Y0009250D01*
X0081081Y0009374D01*
X0081095Y0009498D01*
X0081112Y0009622D01*
X0081134Y0009745D01*
X0081160Y0009867D01*
X0081189Y0009989D01*
X0081222Y0010109D01*
X0081260Y0010228D01*
X0081300Y0010347D01*
X0081345Y0010463D01*
X0081393Y0010578D01*
X0081445Y0010692D01*
X0081501Y0010804D01*
X0081560Y0010914D01*
X0081622Y0011022D01*
X0081688Y0011129D01*
X0081757Y0011233D01*
X0081830Y0011334D01*
X0081905Y0011434D01*
X0081984Y0011531D01*
X0082066Y0011625D01*
X0082151Y0011717D01*
X0082238Y0011806D01*
X0082329Y0011892D01*
X0082422Y0011975D01*
X0082518Y0012056D01*
X0082616Y0012133D01*
X0082716Y0012207D01*
X0082819Y0012278D01*
X0082924Y0012345D01*
X0083032Y0012410D01*
X0083141Y0012470D01*
X0083252Y0012528D01*
X0083365Y0012581D01*
X0083479Y0012631D01*
X0083595Y0012678D01*
X0083712Y0012720D01*
X0083831Y0012759D01*
X0083951Y0012795D01*
X0084072Y0012826D01*
X0084194Y0012854D01*
X0084316Y0012877D01*
X0084440Y0012897D01*
X0084564Y0012913D01*
X0084688Y0012925D01*
X0084813Y0012933D01*
X0084938Y0012937D01*
X0085062Y0012937D01*
X0085187Y0012933D01*
X0085312Y0012925D01*
X0085436Y0012913D01*
X0085560Y0012897D01*
X0085684Y0012877D01*
X0085806Y0012854D01*
X0085928Y0012826D01*
X0086049Y0012795D01*
X0086169Y0012759D01*
X0086288Y0012720D01*
X0086405Y0012678D01*
X0086521Y0012631D01*
X0086635Y0012581D01*
X0086748Y0012528D01*
X0086859Y0012470D01*
X0086969Y0012410D01*
X0087076Y0012345D01*
X0087181Y0012278D01*
X0087284Y0012207D01*
X0087384Y0012133D01*
X0087482Y0012056D01*
X0087578Y0011975D01*
X0087671Y0011892D01*
X0087762Y0011806D01*
X0087849Y0011717D01*
X0087934Y0011625D01*
X0088016Y0011531D01*
X0088095Y0011434D01*
X0088170Y0011334D01*
X0088243Y0011233D01*
X0088312Y0011129D01*
X0088378Y0011022D01*
X0088440Y0010914D01*
X0088499Y0010804D01*
X0088555Y0010692D01*
X0088607Y0010578D01*
X0088655Y0010463D01*
X0088700Y0010347D01*
X0088740Y0010228D01*
X0088778Y0010109D01*
X0088811Y0009989D01*
X0088840Y0009867D01*
X0088866Y0009745D01*
X0088888Y0009622D01*
X0088905Y0009498D01*
X0088919Y0009374D01*
X0088929Y0009250D01*
X0088935Y0009125D01*
X0088937Y0009000D01*
X0088935Y0008875D01*
X0088929Y0008750D01*
X0088919Y0008626D01*
X0088905Y0008502D01*
X0088888Y0008378D01*
X0088866Y0008255D01*
X0088840Y0008133D01*
X0088811Y0008011D01*
X0088778Y0007891D01*
X0088740Y0007772D01*
X0088700Y0007653D01*
X0088655Y0007537D01*
X0088607Y0007422D01*
X0088555Y0007308D01*
X0088499Y0007196D01*
X0088440Y0007086D01*
X0088378Y0006978D01*
X0088312Y0006871D01*
X0088243Y0006767D01*
X0088170Y0006666D01*
X0088095Y0006566D01*
X0088016Y0006469D01*
X0087934Y0006375D01*
X0087849Y0006283D01*
X0087762Y0006194D01*
X0087671Y0006108D01*
X0087578Y0006025D01*
X0087482Y0005944D01*
X0087384Y0005867D01*
X0087284Y0005793D01*
X0087181Y0005722D01*
X0087076Y0005655D01*
X0086968Y0005590D01*
X0086859Y0005530D01*
X0086748Y0005472D01*
X0086635Y0005419D01*
X0086521Y0005369D01*
X0086405Y0005322D01*
X0086288Y0005280D01*
X0086169Y0005241D01*
X0086049Y0005205D01*
X0085928Y0005174D01*
X0085806Y0005146D01*
X0085684Y0005123D01*
X0085560Y0005103D01*
X0085436Y0005087D01*
X0085312Y0005075D01*
X0085187Y0005067D01*
X0085062Y0005063D01*
X0084938Y0005063D01*
X0084813Y0005067D01*
X0084688Y0005075D01*
X0084564Y0005087D01*
X0084440Y0005103D01*
X0084316Y0005123D01*
X0084194Y0005146D01*
X0084072Y0005174D01*
X0083951Y0005205D01*
X0083831Y0005241D01*
X0083712Y0005280D01*
X0083595Y0005322D01*
X0083479Y0005369D01*
X0083365Y0005419D01*
X0083252Y0005472D01*
X0083141Y0005530D01*
X0083031Y0005590D01*
X0082924Y0005655D01*
X0082819Y0005722D01*
X0082716Y0005793D01*
X0082616Y0005867D01*
X0082518Y0005944D01*
X0082422Y0006025D01*
X0082329Y0006108D01*
X0082238Y0006194D01*
X0082151Y0006283D01*
X0082066Y0006375D01*
X0081984Y0006469D01*
X0081905Y0006566D01*
X0081830Y0006666D01*
X0081757Y0006767D01*
X0081688Y0006871D01*
X0081622Y0006978D01*
X0081560Y0007086D01*
X0081501Y0007196D01*
X0081445Y0007308D01*
X0081393Y0007422D01*
X0081345Y0007537D01*
X0081300Y0007653D01*
X0081260Y0007772D01*
X0081222Y0007891D01*
X0081189Y0008011D01*
X0081160Y0008133D01*
X0081134Y0008255D01*
X0081112Y0008378D01*
X0081095Y0008502D01*
X0081081Y0008626D01*
X0081071Y0008750D01*
X0081065Y0008875D01*
X0081063Y0009000D01*
X0212063Y0009000D02*
X0212065Y0009125D01*
X0212071Y0009250D01*
X0212081Y0009374D01*
X0212095Y0009498D01*
X0212112Y0009622D01*
X0212134Y0009745D01*
X0212160Y0009867D01*
X0212189Y0009989D01*
X0212222Y0010109D01*
X0212260Y0010228D01*
X0212300Y0010347D01*
X0212345Y0010463D01*
X0212393Y0010578D01*
X0212445Y0010692D01*
X0212501Y0010804D01*
X0212560Y0010914D01*
X0212622Y0011022D01*
X0212688Y0011129D01*
X0212757Y0011233D01*
X0212830Y0011334D01*
X0212905Y0011434D01*
X0212984Y0011531D01*
X0213066Y0011625D01*
X0213151Y0011717D01*
X0213238Y0011806D01*
X0213329Y0011892D01*
X0213422Y0011975D01*
X0213518Y0012056D01*
X0213616Y0012133D01*
X0213716Y0012207D01*
X0213819Y0012278D01*
X0213924Y0012345D01*
X0214032Y0012410D01*
X0214141Y0012470D01*
X0214252Y0012528D01*
X0214365Y0012581D01*
X0214479Y0012631D01*
X0214595Y0012678D01*
X0214712Y0012720D01*
X0214831Y0012759D01*
X0214951Y0012795D01*
X0215072Y0012826D01*
X0215194Y0012854D01*
X0215316Y0012877D01*
X0215440Y0012897D01*
X0215564Y0012913D01*
X0215688Y0012925D01*
X0215813Y0012933D01*
X0215938Y0012937D01*
X0216062Y0012937D01*
X0216187Y0012933D01*
X0216312Y0012925D01*
X0216436Y0012913D01*
X0216560Y0012897D01*
X0216684Y0012877D01*
X0216806Y0012854D01*
X0216928Y0012826D01*
X0217049Y0012795D01*
X0217169Y0012759D01*
X0217288Y0012720D01*
X0217405Y0012678D01*
X0217521Y0012631D01*
X0217635Y0012581D01*
X0217748Y0012528D01*
X0217859Y0012470D01*
X0217969Y0012410D01*
X0218076Y0012345D01*
X0218181Y0012278D01*
X0218284Y0012207D01*
X0218384Y0012133D01*
X0218482Y0012056D01*
X0218578Y0011975D01*
X0218671Y0011892D01*
X0218762Y0011806D01*
X0218849Y0011717D01*
X0218934Y0011625D01*
X0219016Y0011531D01*
X0219095Y0011434D01*
X0219170Y0011334D01*
X0219243Y0011233D01*
X0219312Y0011129D01*
X0219378Y0011022D01*
X0219440Y0010914D01*
X0219499Y0010804D01*
X0219555Y0010692D01*
X0219607Y0010578D01*
X0219655Y0010463D01*
X0219700Y0010347D01*
X0219740Y0010228D01*
X0219778Y0010109D01*
X0219811Y0009989D01*
X0219840Y0009867D01*
X0219866Y0009745D01*
X0219888Y0009622D01*
X0219905Y0009498D01*
X0219919Y0009374D01*
X0219929Y0009250D01*
X0219935Y0009125D01*
X0219937Y0009000D01*
X0219935Y0008875D01*
X0219929Y0008750D01*
X0219919Y0008626D01*
X0219905Y0008502D01*
X0219888Y0008378D01*
X0219866Y0008255D01*
X0219840Y0008133D01*
X0219811Y0008011D01*
X0219778Y0007891D01*
X0219740Y0007772D01*
X0219700Y0007653D01*
X0219655Y0007537D01*
X0219607Y0007422D01*
X0219555Y0007308D01*
X0219499Y0007196D01*
X0219440Y0007086D01*
X0219378Y0006978D01*
X0219312Y0006871D01*
X0219243Y0006767D01*
X0219170Y0006666D01*
X0219095Y0006566D01*
X0219016Y0006469D01*
X0218934Y0006375D01*
X0218849Y0006283D01*
X0218762Y0006194D01*
X0218671Y0006108D01*
X0218578Y0006025D01*
X0218482Y0005944D01*
X0218384Y0005867D01*
X0218284Y0005793D01*
X0218181Y0005722D01*
X0218076Y0005655D01*
X0217968Y0005590D01*
X0217859Y0005530D01*
X0217748Y0005472D01*
X0217635Y0005419D01*
X0217521Y0005369D01*
X0217405Y0005322D01*
X0217288Y0005280D01*
X0217169Y0005241D01*
X0217049Y0005205D01*
X0216928Y0005174D01*
X0216806Y0005146D01*
X0216684Y0005123D01*
X0216560Y0005103D01*
X0216436Y0005087D01*
X0216312Y0005075D01*
X0216187Y0005067D01*
X0216062Y0005063D01*
X0215938Y0005063D01*
X0215813Y0005067D01*
X0215688Y0005075D01*
X0215564Y0005087D01*
X0215440Y0005103D01*
X0215316Y0005123D01*
X0215194Y0005146D01*
X0215072Y0005174D01*
X0214951Y0005205D01*
X0214831Y0005241D01*
X0214712Y0005280D01*
X0214595Y0005322D01*
X0214479Y0005369D01*
X0214365Y0005419D01*
X0214252Y0005472D01*
X0214141Y0005530D01*
X0214031Y0005590D01*
X0213924Y0005655D01*
X0213819Y0005722D01*
X0213716Y0005793D01*
X0213616Y0005867D01*
X0213518Y0005944D01*
X0213422Y0006025D01*
X0213329Y0006108D01*
X0213238Y0006194D01*
X0213151Y0006283D01*
X0213066Y0006375D01*
X0212984Y0006469D01*
X0212905Y0006566D01*
X0212830Y0006666D01*
X0212757Y0006767D01*
X0212688Y0006871D01*
X0212622Y0006978D01*
X0212560Y0007086D01*
X0212501Y0007196D01*
X0212445Y0007308D01*
X0212393Y0007422D01*
X0212345Y0007537D01*
X0212300Y0007653D01*
X0212260Y0007772D01*
X0212222Y0007891D01*
X0212189Y0008011D01*
X0212160Y0008133D01*
X0212134Y0008255D01*
X0212112Y0008378D01*
X0212095Y0008502D01*
X0212081Y0008626D01*
X0212071Y0008750D01*
X0212065Y0008875D01*
X0212063Y0009000D01*
X0212063Y0197000D02*
X0212065Y0197125D01*
X0212071Y0197250D01*
X0212081Y0197374D01*
X0212095Y0197498D01*
X0212112Y0197622D01*
X0212134Y0197745D01*
X0212160Y0197867D01*
X0212189Y0197989D01*
X0212222Y0198109D01*
X0212260Y0198228D01*
X0212300Y0198347D01*
X0212345Y0198463D01*
X0212393Y0198578D01*
X0212445Y0198692D01*
X0212501Y0198804D01*
X0212560Y0198914D01*
X0212622Y0199022D01*
X0212688Y0199129D01*
X0212757Y0199233D01*
X0212830Y0199334D01*
X0212905Y0199434D01*
X0212984Y0199531D01*
X0213066Y0199625D01*
X0213151Y0199717D01*
X0213238Y0199806D01*
X0213329Y0199892D01*
X0213422Y0199975D01*
X0213518Y0200056D01*
X0213616Y0200133D01*
X0213716Y0200207D01*
X0213819Y0200278D01*
X0213924Y0200345D01*
X0214032Y0200410D01*
X0214141Y0200470D01*
X0214252Y0200528D01*
X0214365Y0200581D01*
X0214479Y0200631D01*
X0214595Y0200678D01*
X0214712Y0200720D01*
X0214831Y0200759D01*
X0214951Y0200795D01*
X0215072Y0200826D01*
X0215194Y0200854D01*
X0215316Y0200877D01*
X0215440Y0200897D01*
X0215564Y0200913D01*
X0215688Y0200925D01*
X0215813Y0200933D01*
X0215938Y0200937D01*
X0216062Y0200937D01*
X0216187Y0200933D01*
X0216312Y0200925D01*
X0216436Y0200913D01*
X0216560Y0200897D01*
X0216684Y0200877D01*
X0216806Y0200854D01*
X0216928Y0200826D01*
X0217049Y0200795D01*
X0217169Y0200759D01*
X0217288Y0200720D01*
X0217405Y0200678D01*
X0217521Y0200631D01*
X0217635Y0200581D01*
X0217748Y0200528D01*
X0217859Y0200470D01*
X0217969Y0200410D01*
X0218076Y0200345D01*
X0218181Y0200278D01*
X0218284Y0200207D01*
X0218384Y0200133D01*
X0218482Y0200056D01*
X0218578Y0199975D01*
X0218671Y0199892D01*
X0218762Y0199806D01*
X0218849Y0199717D01*
X0218934Y0199625D01*
X0219016Y0199531D01*
X0219095Y0199434D01*
X0219170Y0199334D01*
X0219243Y0199233D01*
X0219312Y0199129D01*
X0219378Y0199022D01*
X0219440Y0198914D01*
X0219499Y0198804D01*
X0219555Y0198692D01*
X0219607Y0198578D01*
X0219655Y0198463D01*
X0219700Y0198347D01*
X0219740Y0198228D01*
X0219778Y0198109D01*
X0219811Y0197989D01*
X0219840Y0197867D01*
X0219866Y0197745D01*
X0219888Y0197622D01*
X0219905Y0197498D01*
X0219919Y0197374D01*
X0219929Y0197250D01*
X0219935Y0197125D01*
X0219937Y0197000D01*
X0219935Y0196875D01*
X0219929Y0196750D01*
X0219919Y0196626D01*
X0219905Y0196502D01*
X0219888Y0196378D01*
X0219866Y0196255D01*
X0219840Y0196133D01*
X0219811Y0196011D01*
X0219778Y0195891D01*
X0219740Y0195772D01*
X0219700Y0195653D01*
X0219655Y0195537D01*
X0219607Y0195422D01*
X0219555Y0195308D01*
X0219499Y0195196D01*
X0219440Y0195086D01*
X0219378Y0194978D01*
X0219312Y0194871D01*
X0219243Y0194767D01*
X0219170Y0194666D01*
X0219095Y0194566D01*
X0219016Y0194469D01*
X0218934Y0194375D01*
X0218849Y0194283D01*
X0218762Y0194194D01*
X0218671Y0194108D01*
X0218578Y0194025D01*
X0218482Y0193944D01*
X0218384Y0193867D01*
X0218284Y0193793D01*
X0218181Y0193722D01*
X0218076Y0193655D01*
X0217968Y0193590D01*
X0217859Y0193530D01*
X0217748Y0193472D01*
X0217635Y0193419D01*
X0217521Y0193369D01*
X0217405Y0193322D01*
X0217288Y0193280D01*
X0217169Y0193241D01*
X0217049Y0193205D01*
X0216928Y0193174D01*
X0216806Y0193146D01*
X0216684Y0193123D01*
X0216560Y0193103D01*
X0216436Y0193087D01*
X0216312Y0193075D01*
X0216187Y0193067D01*
X0216062Y0193063D01*
X0215938Y0193063D01*
X0215813Y0193067D01*
X0215688Y0193075D01*
X0215564Y0193087D01*
X0215440Y0193103D01*
X0215316Y0193123D01*
X0215194Y0193146D01*
X0215072Y0193174D01*
X0214951Y0193205D01*
X0214831Y0193241D01*
X0214712Y0193280D01*
X0214595Y0193322D01*
X0214479Y0193369D01*
X0214365Y0193419D01*
X0214252Y0193472D01*
X0214141Y0193530D01*
X0214031Y0193590D01*
X0213924Y0193655D01*
X0213819Y0193722D01*
X0213716Y0193793D01*
X0213616Y0193867D01*
X0213518Y0193944D01*
X0213422Y0194025D01*
X0213329Y0194108D01*
X0213238Y0194194D01*
X0213151Y0194283D01*
X0213066Y0194375D01*
X0212984Y0194469D01*
X0212905Y0194566D01*
X0212830Y0194666D01*
X0212757Y0194767D01*
X0212688Y0194871D01*
X0212622Y0194978D01*
X0212560Y0195086D01*
X0212501Y0195196D01*
X0212445Y0195308D01*
X0212393Y0195422D01*
X0212345Y0195537D01*
X0212300Y0195653D01*
X0212260Y0195772D01*
X0212222Y0195891D01*
X0212189Y0196011D01*
X0212160Y0196133D01*
X0212134Y0196255D01*
X0212112Y0196378D01*
X0212095Y0196502D01*
X0212081Y0196626D01*
X0212071Y0196750D01*
X0212065Y0196875D01*
X0212063Y0197000D01*
X0068063Y0197000D02*
X0068065Y0197125D01*
X0068071Y0197250D01*
X0068081Y0197374D01*
X0068095Y0197498D01*
X0068112Y0197622D01*
X0068134Y0197745D01*
X0068160Y0197867D01*
X0068189Y0197989D01*
X0068222Y0198109D01*
X0068260Y0198228D01*
X0068300Y0198347D01*
X0068345Y0198463D01*
X0068393Y0198578D01*
X0068445Y0198692D01*
X0068501Y0198804D01*
X0068560Y0198914D01*
X0068622Y0199022D01*
X0068688Y0199129D01*
X0068757Y0199233D01*
X0068830Y0199334D01*
X0068905Y0199434D01*
X0068984Y0199531D01*
X0069066Y0199625D01*
X0069151Y0199717D01*
X0069238Y0199806D01*
X0069329Y0199892D01*
X0069422Y0199975D01*
X0069518Y0200056D01*
X0069616Y0200133D01*
X0069716Y0200207D01*
X0069819Y0200278D01*
X0069924Y0200345D01*
X0070032Y0200410D01*
X0070141Y0200470D01*
X0070252Y0200528D01*
X0070365Y0200581D01*
X0070479Y0200631D01*
X0070595Y0200678D01*
X0070712Y0200720D01*
X0070831Y0200759D01*
X0070951Y0200795D01*
X0071072Y0200826D01*
X0071194Y0200854D01*
X0071316Y0200877D01*
X0071440Y0200897D01*
X0071564Y0200913D01*
X0071688Y0200925D01*
X0071813Y0200933D01*
X0071938Y0200937D01*
X0072062Y0200937D01*
X0072187Y0200933D01*
X0072312Y0200925D01*
X0072436Y0200913D01*
X0072560Y0200897D01*
X0072684Y0200877D01*
X0072806Y0200854D01*
X0072928Y0200826D01*
X0073049Y0200795D01*
X0073169Y0200759D01*
X0073288Y0200720D01*
X0073405Y0200678D01*
X0073521Y0200631D01*
X0073635Y0200581D01*
X0073748Y0200528D01*
X0073859Y0200470D01*
X0073969Y0200410D01*
X0074076Y0200345D01*
X0074181Y0200278D01*
X0074284Y0200207D01*
X0074384Y0200133D01*
X0074482Y0200056D01*
X0074578Y0199975D01*
X0074671Y0199892D01*
X0074762Y0199806D01*
X0074849Y0199717D01*
X0074934Y0199625D01*
X0075016Y0199531D01*
X0075095Y0199434D01*
X0075170Y0199334D01*
X0075243Y0199233D01*
X0075312Y0199129D01*
X0075378Y0199022D01*
X0075440Y0198914D01*
X0075499Y0198804D01*
X0075555Y0198692D01*
X0075607Y0198578D01*
X0075655Y0198463D01*
X0075700Y0198347D01*
X0075740Y0198228D01*
X0075778Y0198109D01*
X0075811Y0197989D01*
X0075840Y0197867D01*
X0075866Y0197745D01*
X0075888Y0197622D01*
X0075905Y0197498D01*
X0075919Y0197374D01*
X0075929Y0197250D01*
X0075935Y0197125D01*
X0075937Y0197000D01*
X0075935Y0196875D01*
X0075929Y0196750D01*
X0075919Y0196626D01*
X0075905Y0196502D01*
X0075888Y0196378D01*
X0075866Y0196255D01*
X0075840Y0196133D01*
X0075811Y0196011D01*
X0075778Y0195891D01*
X0075740Y0195772D01*
X0075700Y0195653D01*
X0075655Y0195537D01*
X0075607Y0195422D01*
X0075555Y0195308D01*
X0075499Y0195196D01*
X0075440Y0195086D01*
X0075378Y0194978D01*
X0075312Y0194871D01*
X0075243Y0194767D01*
X0075170Y0194666D01*
X0075095Y0194566D01*
X0075016Y0194469D01*
X0074934Y0194375D01*
X0074849Y0194283D01*
X0074762Y0194194D01*
X0074671Y0194108D01*
X0074578Y0194025D01*
X0074482Y0193944D01*
X0074384Y0193867D01*
X0074284Y0193793D01*
X0074181Y0193722D01*
X0074076Y0193655D01*
X0073968Y0193590D01*
X0073859Y0193530D01*
X0073748Y0193472D01*
X0073635Y0193419D01*
X0073521Y0193369D01*
X0073405Y0193322D01*
X0073288Y0193280D01*
X0073169Y0193241D01*
X0073049Y0193205D01*
X0072928Y0193174D01*
X0072806Y0193146D01*
X0072684Y0193123D01*
X0072560Y0193103D01*
X0072436Y0193087D01*
X0072312Y0193075D01*
X0072187Y0193067D01*
X0072062Y0193063D01*
X0071938Y0193063D01*
X0071813Y0193067D01*
X0071688Y0193075D01*
X0071564Y0193087D01*
X0071440Y0193103D01*
X0071316Y0193123D01*
X0071194Y0193146D01*
X0071072Y0193174D01*
X0070951Y0193205D01*
X0070831Y0193241D01*
X0070712Y0193280D01*
X0070595Y0193322D01*
X0070479Y0193369D01*
X0070365Y0193419D01*
X0070252Y0193472D01*
X0070141Y0193530D01*
X0070031Y0193590D01*
X0069924Y0193655D01*
X0069819Y0193722D01*
X0069716Y0193793D01*
X0069616Y0193867D01*
X0069518Y0193944D01*
X0069422Y0194025D01*
X0069329Y0194108D01*
X0069238Y0194194D01*
X0069151Y0194283D01*
X0069066Y0194375D01*
X0068984Y0194469D01*
X0068905Y0194566D01*
X0068830Y0194666D01*
X0068757Y0194767D01*
X0068688Y0194871D01*
X0068622Y0194978D01*
X0068560Y0195086D01*
X0068501Y0195196D01*
X0068445Y0195308D01*
X0068393Y0195422D01*
X0068345Y0195537D01*
X0068300Y0195653D01*
X0068260Y0195772D01*
X0068222Y0195891D01*
X0068189Y0196011D01*
X0068160Y0196133D01*
X0068134Y0196255D01*
X0068112Y0196378D01*
X0068095Y0196502D01*
X0068081Y0196626D01*
X0068071Y0196750D01*
X0068065Y0196875D01*
X0068063Y0197000D01*
D11*
X0092402Y0087000D03*
X0103598Y0087000D03*
X0103448Y0057600D03*
X0092252Y0057600D03*
X0092402Y0042000D03*
X0103598Y0042000D03*
X0178402Y0042000D03*
X0189598Y0042000D03*
X0189598Y0058000D03*
X0178402Y0058000D03*
X0201402Y0058000D03*
X0212598Y0058000D03*
X0212598Y0074000D03*
X0201402Y0074000D03*
D12*
X0058937Y0186000D03*
X0047126Y0167102D03*
X0036102Y0186000D03*
D13*
X0051488Y0121000D03*
X0062512Y0121000D03*
X0092488Y0112000D03*
X0103512Y0112000D03*
X0103512Y0100000D03*
X0092488Y0100000D03*
X0119488Y0100000D03*
X0130512Y0100000D03*
X0103512Y0073000D03*
X0092488Y0073000D03*
X0201488Y0042000D03*
X0212512Y0042000D03*
D14*
X0170590Y0024650D03*
X0170590Y0014650D03*
X0135190Y0014650D03*
X0135190Y0024650D03*
D15*
X0083942Y0153350D03*
D16*
X0162682Y0153350D03*
D17*
X0186050Y0028030D03*
X0186050Y0023030D03*
X0186050Y0018030D03*
X0186050Y0013030D03*
X0205450Y0013030D03*
X0205450Y0018030D03*
X0205450Y0023030D03*
X0205450Y0028030D03*
D18*
X0034000Y0125000D02*
X0028000Y0125000D01*
X0028000Y0135000D02*
X0034000Y0135000D01*
X0034000Y0145000D02*
X0028000Y0145000D01*
X0028000Y0155000D02*
X0034000Y0155000D01*
D19*
X0107257Y0025570D03*
X0107257Y0011003D03*
D20*
G36*
X0153166Y0058800D02*
X0156700Y0055266D01*
X0155144Y0053710D01*
X0151610Y0057244D01*
X0153166Y0058800D01*
G37*
G36*
X0155393Y0061027D02*
X0158927Y0057493D01*
X0157371Y0055937D01*
X0153837Y0059471D01*
X0155393Y0061027D01*
G37*
G36*
X0157620Y0063254D02*
X0161154Y0059720D01*
X0159598Y0058164D01*
X0156064Y0061698D01*
X0157620Y0063254D01*
G37*
G36*
X0159848Y0065481D02*
X0163382Y0061947D01*
X0161826Y0060391D01*
X0158292Y0063925D01*
X0159848Y0065481D01*
G37*
G36*
X0162075Y0067708D02*
X0165609Y0064174D01*
X0164053Y0062618D01*
X0160519Y0066152D01*
X0162075Y0067708D01*
G37*
G36*
X0164302Y0069936D02*
X0167836Y0066402D01*
X0166280Y0064846D01*
X0162746Y0068380D01*
X0164302Y0069936D01*
G37*
G36*
X0166529Y0072163D02*
X0170063Y0068629D01*
X0168507Y0067073D01*
X0164973Y0070607D01*
X0166529Y0072163D01*
G37*
G36*
X0168756Y0074390D02*
X0172290Y0070856D01*
X0170734Y0069300D01*
X0167200Y0072834D01*
X0168756Y0074390D01*
G37*
G36*
X0144856Y0098290D02*
X0148390Y0094756D01*
X0146834Y0093200D01*
X0143300Y0096734D01*
X0144856Y0098290D01*
G37*
G36*
X0142629Y0096063D02*
X0146163Y0092529D01*
X0144607Y0090973D01*
X0141073Y0094507D01*
X0142629Y0096063D01*
G37*
G36*
X0140402Y0093836D02*
X0143936Y0090302D01*
X0142380Y0088746D01*
X0138846Y0092280D01*
X0140402Y0093836D01*
G37*
G36*
X0138174Y0091609D02*
X0141708Y0088075D01*
X0140152Y0086519D01*
X0136618Y0090053D01*
X0138174Y0091609D01*
G37*
G36*
X0135947Y0089382D02*
X0139481Y0085848D01*
X0137925Y0084292D01*
X0134391Y0087826D01*
X0135947Y0089382D01*
G37*
G36*
X0133720Y0087154D02*
X0137254Y0083620D01*
X0135698Y0082064D01*
X0132164Y0085598D01*
X0133720Y0087154D01*
G37*
G36*
X0131493Y0084927D02*
X0135027Y0081393D01*
X0133471Y0079837D01*
X0129937Y0083371D01*
X0131493Y0084927D01*
G37*
G36*
X0129266Y0082700D02*
X0132800Y0079166D01*
X0131244Y0077610D01*
X0127710Y0081144D01*
X0129266Y0082700D01*
G37*
D21*
G36*
X0131244Y0074390D02*
X0132800Y0072834D01*
X0129266Y0069300D01*
X0127710Y0070856D01*
X0131244Y0074390D01*
G37*
G36*
X0133471Y0072163D02*
X0135027Y0070607D01*
X0131493Y0067073D01*
X0129937Y0068629D01*
X0133471Y0072163D01*
G37*
G36*
X0135698Y0069936D02*
X0137254Y0068380D01*
X0133720Y0064846D01*
X0132164Y0066402D01*
X0135698Y0069936D01*
G37*
G36*
X0137925Y0067708D02*
X0139481Y0066152D01*
X0135947Y0062618D01*
X0134391Y0064174D01*
X0137925Y0067708D01*
G37*
G36*
X0140152Y0065481D02*
X0141708Y0063925D01*
X0138174Y0060391D01*
X0136618Y0061947D01*
X0140152Y0065481D01*
G37*
G36*
X0142380Y0063254D02*
X0143936Y0061698D01*
X0140402Y0058164D01*
X0138846Y0059720D01*
X0142380Y0063254D01*
G37*
G36*
X0144607Y0061027D02*
X0146163Y0059471D01*
X0142629Y0055937D01*
X0141073Y0057493D01*
X0144607Y0061027D01*
G37*
G36*
X0146834Y0058800D02*
X0148390Y0057244D01*
X0144856Y0053710D01*
X0143300Y0055266D01*
X0146834Y0058800D01*
G37*
G36*
X0170734Y0082700D02*
X0172290Y0081144D01*
X0168756Y0077610D01*
X0167200Y0079166D01*
X0170734Y0082700D01*
G37*
G36*
X0168507Y0084927D02*
X0170063Y0083371D01*
X0166529Y0079837D01*
X0164973Y0081393D01*
X0168507Y0084927D01*
G37*
G36*
X0166280Y0087154D02*
X0167836Y0085598D01*
X0164302Y0082064D01*
X0162746Y0083620D01*
X0166280Y0087154D01*
G37*
G36*
X0164053Y0089382D02*
X0165609Y0087826D01*
X0162075Y0084292D01*
X0160519Y0085848D01*
X0164053Y0089382D01*
G37*
G36*
X0161826Y0091609D02*
X0163382Y0090053D01*
X0159848Y0086519D01*
X0158292Y0088075D01*
X0161826Y0091609D01*
G37*
G36*
X0159598Y0093836D02*
X0161154Y0092280D01*
X0157620Y0088746D01*
X0156064Y0090302D01*
X0159598Y0093836D01*
G37*
G36*
X0157371Y0096063D02*
X0158927Y0094507D01*
X0155393Y0090973D01*
X0153837Y0092529D01*
X0157371Y0096063D01*
G37*
G36*
X0155144Y0098290D02*
X0156700Y0096734D01*
X0153166Y0093200D01*
X0151610Y0094756D01*
X0155144Y0098290D01*
G37*
D22*
X0148810Y0042000D03*
X0162590Y0042000D03*
X0132890Y0042000D03*
X0119110Y0042000D03*
D23*
X0078658Y0042830D02*
X0076650Y0042830D01*
X0078658Y0042830D02*
X0078658Y0042792D01*
X0076650Y0042792D01*
X0076650Y0042830D01*
X0076650Y0048736D02*
X0078658Y0048736D01*
X0078658Y0048698D01*
X0076650Y0048698D01*
X0076650Y0048736D01*
X0076650Y0054641D02*
X0078658Y0054641D01*
X0078658Y0054603D01*
X0076650Y0054603D01*
X0076650Y0054641D01*
X0076650Y0060547D02*
X0078658Y0060547D01*
X0078658Y0060509D01*
X0076650Y0060509D01*
X0076650Y0060547D01*
X0076650Y0066452D02*
X0078658Y0066452D01*
X0078658Y0066414D01*
X0076650Y0066414D01*
X0076650Y0066452D01*
X0076650Y0072358D02*
X0078658Y0072358D01*
X0078658Y0072320D01*
X0076650Y0072320D01*
X0076650Y0072358D01*
X0076650Y0078263D02*
X0078658Y0078263D01*
X0078658Y0078225D01*
X0076650Y0078225D01*
X0076650Y0078263D01*
X0076650Y0084169D02*
X0078658Y0084169D01*
X0078658Y0084131D01*
X0076650Y0084131D01*
X0076650Y0084169D01*
X0076650Y0090074D02*
X0078658Y0090074D01*
X0078658Y0090036D01*
X0076650Y0090036D01*
X0076650Y0090074D01*
X0076650Y0095980D02*
X0078658Y0095980D01*
X0078658Y0095942D01*
X0076650Y0095942D01*
X0076650Y0095980D01*
X0076650Y0101885D02*
X0078658Y0101885D01*
X0078658Y0101847D01*
X0076650Y0101847D01*
X0076650Y0101885D01*
X0071572Y0109012D02*
X0071572Y0111020D01*
X0071610Y0111020D01*
X0071610Y0109012D01*
X0071572Y0109012D01*
X0065666Y0109012D02*
X0065666Y0111020D01*
X0065704Y0111020D01*
X0065704Y0109012D01*
X0065666Y0109012D01*
X0059761Y0109012D02*
X0059761Y0111020D01*
X0059799Y0111020D01*
X0059799Y0109012D01*
X0059761Y0109012D01*
X0053855Y0109012D02*
X0053855Y0111020D01*
X0053893Y0111020D01*
X0053893Y0109012D01*
X0053855Y0109012D01*
X0047950Y0109012D02*
X0047950Y0111020D01*
X0047988Y0111020D01*
X0047988Y0109012D01*
X0047950Y0109012D01*
X0042044Y0109012D02*
X0042044Y0111020D01*
X0042082Y0111020D01*
X0042082Y0109012D01*
X0042044Y0109012D01*
X0036138Y0109012D02*
X0036138Y0111020D01*
X0036176Y0111020D01*
X0036176Y0109012D01*
X0036138Y0109012D01*
X0030233Y0109012D02*
X0030233Y0111020D01*
X0030271Y0111020D01*
X0030271Y0109012D01*
X0030233Y0109012D01*
X0025350Y0101847D02*
X0023342Y0101847D01*
X0023342Y0101885D01*
X0025350Y0101885D01*
X0025350Y0101847D01*
X0025350Y0095942D02*
X0023342Y0095942D01*
X0023342Y0095980D01*
X0025350Y0095980D01*
X0025350Y0095942D01*
X0025350Y0090036D02*
X0023342Y0090036D01*
X0023342Y0090074D01*
X0025350Y0090074D01*
X0025350Y0090036D01*
X0025350Y0084131D02*
X0023342Y0084131D01*
X0023342Y0084169D01*
X0025350Y0084169D01*
X0025350Y0084131D01*
X0025350Y0078225D02*
X0023342Y0078225D01*
X0023342Y0078263D01*
X0025350Y0078263D01*
X0025350Y0078225D01*
X0025350Y0072320D02*
X0023342Y0072320D01*
X0023342Y0072358D01*
X0025350Y0072358D01*
X0025350Y0072320D01*
X0025350Y0066414D02*
X0023342Y0066414D01*
X0023342Y0066452D01*
X0025350Y0066452D01*
X0025350Y0066414D01*
X0025350Y0060509D02*
X0023342Y0060509D01*
X0023342Y0060547D01*
X0025350Y0060547D01*
X0025350Y0060509D01*
X0025350Y0054603D02*
X0023342Y0054603D01*
X0023342Y0054641D01*
X0025350Y0054641D01*
X0025350Y0054603D01*
X0025350Y0048698D02*
X0023342Y0048698D01*
X0023342Y0048736D01*
X0025350Y0048736D01*
X0025350Y0048698D01*
X0025350Y0042792D02*
X0023342Y0042792D01*
X0023342Y0042830D01*
X0025350Y0042830D01*
X0025350Y0042792D01*
X0025350Y0036887D02*
X0023342Y0036887D01*
X0023342Y0036925D01*
X0025350Y0036925D01*
X0025350Y0036887D01*
X0025350Y0030981D02*
X0023342Y0030981D01*
X0023342Y0031019D01*
X0025350Y0031019D01*
X0025350Y0030981D01*
X0076650Y0031019D02*
X0078658Y0031019D01*
X0078658Y0030981D01*
X0076650Y0030981D01*
X0076650Y0031019D01*
X0076650Y0036925D02*
X0078658Y0036925D01*
X0078658Y0036887D01*
X0076650Y0036887D01*
X0076650Y0036925D01*
D24*
X0066055Y0133583D03*
X0057000Y0133583D03*
X0047945Y0133583D03*
D25*
X0057000Y0156417D03*
D26*
X0202900Y0159320D03*
X0212900Y0159320D03*
X0212900Y0149320D03*
X0212900Y0139320D03*
X0202900Y0139320D03*
X0202900Y0149320D03*
X0202900Y0129320D03*
X0212900Y0129320D03*
X0212900Y0169320D03*
X0202900Y0169320D03*
D27*
X0198892Y0165338D02*
X0052661Y0165338D01*
X0052915Y0165951D02*
X0052915Y0168254D01*
X0052033Y0170381D01*
X0050405Y0172010D01*
X0048724Y0172706D01*
X0056685Y0180667D01*
X0057786Y0180211D01*
X0060088Y0180211D01*
X0062216Y0181093D01*
X0063844Y0182721D01*
X0064726Y0184849D01*
X0064726Y0187151D01*
X0063844Y0189279D01*
X0062216Y0190907D01*
X0060088Y0191789D01*
X0057786Y0191789D01*
X0055658Y0190907D01*
X0054030Y0189279D01*
X0053148Y0187151D01*
X0053148Y0184849D01*
X0053172Y0184791D01*
X0029871Y0161489D01*
X0029111Y0160729D01*
X0028788Y0159950D01*
X0027015Y0159950D01*
X0025196Y0159196D01*
X0023804Y0157804D01*
X0023050Y0155985D01*
X0023050Y0154015D01*
X0023804Y0152196D01*
X0025196Y0150804D01*
X0027015Y0150050D01*
X0031632Y0150050D01*
X0031732Y0149950D01*
X0027015Y0149950D01*
X0025196Y0149196D01*
X0023804Y0147804D01*
X0023050Y0145985D01*
X0023050Y0144015D01*
X0023804Y0142196D01*
X0025196Y0140804D01*
X0027015Y0140050D01*
X0034985Y0140050D01*
X0036804Y0140804D01*
X0038196Y0142196D01*
X0038574Y0143108D01*
X0044125Y0137557D01*
X0044125Y0128543D01*
X0045267Y0127400D01*
X0048500Y0127400D01*
X0048500Y0126493D01*
X0047531Y0126493D01*
X0046389Y0125351D01*
X0046389Y0116649D01*
X0047531Y0115507D01*
X0055446Y0115507D01*
X0056588Y0116649D01*
X0056588Y0125351D01*
X0055446Y0126493D01*
X0053900Y0126493D01*
X0053900Y0128105D01*
X0054055Y0127950D01*
X0054454Y0127720D01*
X0054900Y0127600D01*
X0056815Y0127600D01*
X0056815Y0133398D01*
X0053380Y0133398D01*
X0053380Y0132038D01*
X0051765Y0133653D01*
X0051765Y0138623D01*
X0050623Y0139765D01*
X0049553Y0139765D01*
X0049429Y0139889D01*
X0037659Y0151659D01*
X0038196Y0152196D01*
X0038950Y0154015D01*
X0038950Y0155985D01*
X0038196Y0157804D01*
X0036804Y0159196D01*
X0035680Y0159662D01*
X0041522Y0165504D01*
X0042219Y0163823D01*
X0043847Y0162195D01*
X0045975Y0161314D01*
X0048277Y0161314D01*
X0049181Y0161688D01*
X0048972Y0161325D01*
X0048852Y0160880D01*
X0048852Y0157167D01*
X0056250Y0157167D01*
X0056250Y0155667D01*
X0057750Y0155667D01*
X0057750Y0150435D01*
X0063628Y0150435D01*
X0064073Y0150554D01*
X0064472Y0150785D01*
X0064798Y0151111D01*
X0065028Y0151510D01*
X0065148Y0151955D01*
X0065148Y0155667D01*
X0057750Y0155667D01*
X0057750Y0157167D01*
X0065148Y0157167D01*
X0065148Y0160880D01*
X0065028Y0161325D01*
X0064798Y0161724D01*
X0064472Y0162050D01*
X0064073Y0162280D01*
X0063628Y0162400D01*
X0057750Y0162400D01*
X0057750Y0157167D01*
X0056250Y0157167D01*
X0056250Y0162400D01*
X0050609Y0162400D01*
X0052033Y0163823D01*
X0052915Y0165951D01*
X0052915Y0166836D02*
X0197813Y0166836D01*
X0198110Y0166120D02*
X0197250Y0168196D01*
X0197250Y0170444D01*
X0198110Y0172520D01*
X0199700Y0174110D01*
X0201776Y0174970D01*
X0204024Y0174970D01*
X0206100Y0174110D01*
X0206964Y0173246D01*
X0210168Y0176450D01*
X0215632Y0176450D01*
X0216950Y0175132D01*
X0219950Y0172132D01*
X0219950Y0156468D01*
X0218632Y0155150D01*
X0216846Y0153364D01*
X0217690Y0152520D01*
X0218550Y0150444D01*
X0218550Y0148196D01*
X0217690Y0146120D01*
X0216100Y0144530D01*
X0215316Y0144205D01*
X0215756Y0143981D01*
X0216450Y0143477D01*
X0217057Y0142870D01*
X0217561Y0142176D01*
X0217951Y0141412D01*
X0218216Y0140596D01*
X0218350Y0139749D01*
X0218350Y0139570D01*
X0213150Y0139570D01*
X0213150Y0139070D01*
X0218350Y0139070D01*
X0218350Y0138891D01*
X0218216Y0138044D01*
X0217951Y0137228D01*
X0217561Y0136464D01*
X0217057Y0135770D01*
X0216450Y0135163D01*
X0215756Y0134659D01*
X0215092Y0134320D01*
X0215756Y0133981D01*
X0216450Y0133477D01*
X0217057Y0132870D01*
X0217561Y0132176D01*
X0217951Y0131412D01*
X0218216Y0130596D01*
X0218350Y0129749D01*
X0218350Y0129570D01*
X0213150Y0129570D01*
X0213150Y0129070D01*
X0218350Y0129070D01*
X0218350Y0128891D01*
X0218216Y0128044D01*
X0217951Y0127228D01*
X0217561Y0126464D01*
X0217057Y0125770D01*
X0216450Y0125163D01*
X0215756Y0124659D01*
X0214992Y0124269D01*
X0214176Y0124004D01*
X0213329Y0123870D01*
X0213150Y0123870D01*
X0213150Y0129070D01*
X0212650Y0129070D01*
X0212650Y0123870D01*
X0212471Y0123870D01*
X0211624Y0124004D01*
X0210808Y0124269D01*
X0210044Y0124659D01*
X0209750Y0124872D01*
X0209750Y0079668D01*
X0209581Y0079499D01*
X0216556Y0079499D01*
X0217698Y0078357D01*
X0217698Y0069643D01*
X0216818Y0068763D01*
X0220432Y0065150D01*
X0221750Y0063832D01*
X0221750Y0019368D01*
X0217240Y0014858D01*
X0219335Y0013991D01*
X0220991Y0012335D01*
X0221887Y0010171D01*
X0221887Y0007829D01*
X0220991Y0005665D01*
X0219335Y0004009D01*
X0219312Y0004000D01*
X0225751Y0004000D01*
X0225751Y0204011D01*
X0020000Y0204011D01*
X0020000Y0112000D01*
X0026000Y0106000D01*
X0028082Y0106000D01*
X0027874Y0106139D01*
X0027359Y0106654D01*
X0026954Y0107260D01*
X0026676Y0107933D01*
X0026533Y0108648D01*
X0026533Y0109781D01*
X0030018Y0109781D01*
X0030018Y0110250D01*
X0030018Y0114718D01*
X0029868Y0114718D01*
X0029153Y0114576D01*
X0028480Y0114298D01*
X0027874Y0113893D01*
X0027359Y0113378D01*
X0026954Y0112772D01*
X0026676Y0112099D01*
X0026533Y0111384D01*
X0026533Y0110250D01*
X0030018Y0110250D01*
X0030486Y0110250D01*
X0030486Y0114718D01*
X0030636Y0114718D01*
X0031351Y0114576D01*
X0032024Y0114298D01*
X0032630Y0113893D01*
X0033063Y0113459D01*
X0033929Y0114325D01*
X0035362Y0114918D01*
X0036953Y0114918D01*
X0038386Y0114325D01*
X0039110Y0113600D01*
X0039835Y0114325D01*
X0041268Y0114918D01*
X0042858Y0114918D01*
X0044291Y0114325D01*
X0045016Y0113600D01*
X0045740Y0114325D01*
X0047173Y0114918D01*
X0048764Y0114918D01*
X0050197Y0114325D01*
X0050921Y0113600D01*
X0051646Y0114325D01*
X0053079Y0114918D01*
X0054669Y0114918D01*
X0056102Y0114325D01*
X0056827Y0113600D01*
X0057551Y0114325D01*
X0058984Y0114918D01*
X0060575Y0114918D01*
X0062008Y0114325D01*
X0062732Y0113600D01*
X0063457Y0114325D01*
X0064890Y0114918D01*
X0066480Y0114918D01*
X0067913Y0114325D01*
X0068779Y0113459D01*
X0069213Y0113893D01*
X0069819Y0114298D01*
X0070492Y0114576D01*
X0071207Y0114718D01*
X0071356Y0114718D01*
X0071356Y0110250D01*
X0071825Y0110250D01*
X0075309Y0110250D01*
X0075309Y0111384D01*
X0075167Y0112099D01*
X0074888Y0112772D01*
X0074483Y0113378D01*
X0073968Y0113893D01*
X0073362Y0114298D01*
X0072689Y0114576D01*
X0071975Y0114718D01*
X0071825Y0114718D01*
X0071825Y0110250D01*
X0071825Y0109781D01*
X0075309Y0109781D01*
X0075309Y0108648D01*
X0075167Y0107933D01*
X0074888Y0107260D01*
X0074483Y0106654D01*
X0073968Y0106139D01*
X0073760Y0106000D01*
X0081000Y0106000D01*
X0084000Y0103000D01*
X0084000Y0098150D01*
X0087589Y0098150D01*
X0087589Y0099250D01*
X0091738Y0099250D01*
X0091738Y0100750D01*
X0087589Y0100750D01*
X0087589Y0103774D01*
X0087708Y0104219D01*
X0087938Y0104618D01*
X0088264Y0104944D01*
X0088663Y0105174D01*
X0089108Y0105293D01*
X0091738Y0105293D01*
X0091738Y0100750D01*
X0093238Y0100750D01*
X0093238Y0105293D01*
X0095868Y0105293D01*
X0096313Y0105174D01*
X0096712Y0104944D01*
X0097038Y0104618D01*
X0097269Y0104219D01*
X0097388Y0103774D01*
X0097388Y0100750D01*
X0093238Y0100750D01*
X0093238Y0099250D01*
X0097388Y0099250D01*
X0097388Y0097550D01*
X0097968Y0097550D01*
X0098412Y0097994D01*
X0098412Y0104351D01*
X0099554Y0105493D01*
X0106771Y0105493D01*
X0107873Y0105950D01*
X0109127Y0105950D01*
X0110284Y0105470D01*
X0111170Y0104584D01*
X0111650Y0103427D01*
X0111650Y0102173D01*
X0111170Y0101016D01*
X0110284Y0100130D01*
X0109127Y0099650D01*
X0108611Y0099650D01*
X0108611Y0095649D01*
X0107469Y0094507D01*
X0101289Y0094507D01*
X0100732Y0093950D01*
X0107932Y0093950D01*
X0109250Y0092632D01*
X0122932Y0078950D01*
X0127147Y0078950D01*
X0125759Y0080337D01*
X0125759Y0081953D01*
X0128457Y0084651D01*
X0130684Y0086878D01*
X0132912Y0089105D01*
X0133194Y0089105D01*
X0133931Y0089842D01*
X0136936Y0086837D01*
X0136936Y0086837D01*
X0133931Y0089842D01*
X0134668Y0090578D01*
X0134668Y0090861D01*
X0137366Y0093559D01*
X0139593Y0095786D01*
X0141820Y0098013D01*
X0144047Y0100241D01*
X0145663Y0100241D01*
X0147650Y0098253D01*
X0147650Y0098927D01*
X0148130Y0100084D01*
X0149016Y0100970D01*
X0150173Y0101450D01*
X0150768Y0101450D01*
X0162350Y0113032D01*
X0162350Y0128632D01*
X0163668Y0129950D01*
X0198974Y0165256D01*
X0198110Y0166120D01*
X0197557Y0163839D02*
X0052040Y0163839D01*
X0048852Y0160842D02*
X0036861Y0160842D01*
X0036448Y0159344D02*
X0048852Y0159344D01*
X0048852Y0157845D02*
X0038155Y0157845D01*
X0038800Y0156347D02*
X0056250Y0156347D01*
X0056250Y0155667D02*
X0048852Y0155667D01*
X0048852Y0151955D01*
X0048972Y0151510D01*
X0049202Y0151111D01*
X0049528Y0150785D01*
X0049927Y0150554D01*
X0050372Y0150435D01*
X0056250Y0150435D01*
X0056250Y0155667D01*
X0056250Y0154848D02*
X0057750Y0154848D01*
X0057200Y0156200D02*
X0057000Y0156417D01*
X0057200Y0157100D01*
X0064400Y0164300D01*
X0064400Y0188300D01*
X0061100Y0191600D01*
X0056900Y0191600D01*
X0051500Y0186200D01*
X0036200Y0186200D01*
X0036102Y0186000D01*
X0035573Y0186317D02*
X0020000Y0186317D01*
X0020000Y0187815D02*
X0030816Y0187815D01*
X0030923Y0188145D02*
X0030651Y0187309D01*
X0030528Y0186530D01*
X0035573Y0186530D01*
X0035573Y0191574D01*
X0034794Y0191451D01*
X0033957Y0191179D01*
X0033173Y0190780D01*
X0032462Y0190263D01*
X0031840Y0189641D01*
X0031323Y0188929D01*
X0030923Y0188145D01*
X0031602Y0189314D02*
X0020000Y0189314D01*
X0020000Y0190812D02*
X0033237Y0190812D01*
X0035573Y0190812D02*
X0036632Y0190812D01*
X0036632Y0191574D02*
X0036632Y0186530D01*
X0035573Y0186530D01*
X0035573Y0185470D01*
X0036632Y0185470D01*
X0036632Y0180426D01*
X0037411Y0180549D01*
X0038248Y0180821D01*
X0039031Y0181220D01*
X0039743Y0181737D01*
X0040365Y0182359D01*
X0040882Y0183071D01*
X0041281Y0183855D01*
X0041553Y0184691D01*
X0041677Y0185470D01*
X0036632Y0185470D01*
X0036632Y0186530D01*
X0041677Y0186530D01*
X0041553Y0187309D01*
X0041281Y0188145D01*
X0040882Y0188929D01*
X0040365Y0189641D01*
X0039743Y0190263D01*
X0039031Y0190780D01*
X0038248Y0191179D01*
X0037411Y0191451D01*
X0036632Y0191574D01*
X0036632Y0189314D02*
X0035573Y0189314D01*
X0035573Y0187815D02*
X0036632Y0187815D01*
X0036632Y0186317D02*
X0053148Y0186317D01*
X0053161Y0184818D02*
X0041573Y0184818D01*
X0041009Y0183320D02*
X0051702Y0183320D01*
X0050203Y0181821D02*
X0039827Y0181821D01*
X0036632Y0181821D02*
X0035573Y0181821D01*
X0035573Y0180426D02*
X0035573Y0185470D01*
X0030528Y0185470D01*
X0030651Y0184691D01*
X0030923Y0183855D01*
X0031323Y0183071D01*
X0031840Y0182359D01*
X0032462Y0181737D01*
X0033173Y0181220D01*
X0033957Y0180821D01*
X0034794Y0180549D01*
X0035573Y0180426D01*
X0032378Y0181821D02*
X0020000Y0181821D01*
X0020000Y0180323D02*
X0048704Y0180323D01*
X0047206Y0178824D02*
X0020000Y0178824D01*
X0020000Y0177326D02*
X0045707Y0177326D01*
X0044209Y0175827D02*
X0020000Y0175827D01*
X0020000Y0174329D02*
X0042710Y0174329D01*
X0041212Y0172830D02*
X0020000Y0172830D01*
X0020000Y0171332D02*
X0039713Y0171332D01*
X0038215Y0169833D02*
X0020000Y0169833D01*
X0020000Y0168335D02*
X0036716Y0168335D01*
X0035218Y0166836D02*
X0020000Y0166836D01*
X0020000Y0165338D02*
X0033719Y0165338D01*
X0032221Y0163839D02*
X0020000Y0163839D01*
X0020000Y0162341D02*
X0030722Y0162341D01*
X0029224Y0160842D02*
X0020000Y0160842D01*
X0020000Y0159344D02*
X0025552Y0159344D01*
X0023845Y0157845D02*
X0020000Y0157845D01*
X0020000Y0156347D02*
X0023200Y0156347D01*
X0023050Y0154848D02*
X0020000Y0154848D01*
X0020000Y0153350D02*
X0023326Y0153350D01*
X0024149Y0151851D02*
X0020000Y0151851D01*
X0020000Y0150353D02*
X0026285Y0150353D01*
X0024854Y0148854D02*
X0020000Y0148854D01*
X0020000Y0147356D02*
X0023618Y0147356D01*
X0023050Y0145857D02*
X0020000Y0145857D01*
X0020000Y0144359D02*
X0023050Y0144359D01*
X0023529Y0142860D02*
X0020000Y0142860D01*
X0020000Y0141362D02*
X0024638Y0141362D01*
X0025196Y0139196D02*
X0023804Y0137804D01*
X0023050Y0135985D01*
X0023050Y0134015D01*
X0023804Y0132196D01*
X0025196Y0130804D01*
X0027015Y0130050D01*
X0034985Y0130050D01*
X0036804Y0130804D01*
X0038196Y0132196D01*
X0038950Y0134015D01*
X0038950Y0135985D01*
X0038196Y0137804D01*
X0036804Y0139196D01*
X0034985Y0139950D01*
X0027015Y0139950D01*
X0025196Y0139196D01*
X0024364Y0138365D02*
X0020000Y0138365D01*
X0020000Y0139863D02*
X0026805Y0139863D01*
X0023415Y0136866D02*
X0020000Y0136866D01*
X0020000Y0135368D02*
X0023050Y0135368D01*
X0023111Y0133869D02*
X0020000Y0133869D01*
X0020000Y0132370D02*
X0023731Y0132370D01*
X0025128Y0130872D02*
X0020000Y0130872D01*
X0020000Y0129373D02*
X0025624Y0129373D01*
X0025196Y0129196D02*
X0027015Y0129950D01*
X0034985Y0129950D01*
X0036804Y0129196D01*
X0038196Y0127804D01*
X0038950Y0125985D01*
X0038950Y0124015D01*
X0038196Y0122196D01*
X0036804Y0120804D01*
X0034985Y0120050D01*
X0027015Y0120050D01*
X0025196Y0120804D01*
X0023804Y0122196D01*
X0023050Y0124015D01*
X0023050Y0125985D01*
X0023804Y0127804D01*
X0025196Y0129196D01*
X0023875Y0127875D02*
X0020000Y0127875D01*
X0020000Y0126376D02*
X0023212Y0126376D01*
X0023050Y0124878D02*
X0020000Y0124878D01*
X0020000Y0123379D02*
X0023313Y0123379D01*
X0024119Y0121881D02*
X0020000Y0121881D01*
X0020000Y0120382D02*
X0026213Y0120382D01*
X0028699Y0114388D02*
X0020000Y0114388D01*
X0020000Y0112890D02*
X0027033Y0112890D01*
X0026535Y0111391D02*
X0020609Y0111391D01*
X0022107Y0109893D02*
X0030018Y0109893D01*
X0030200Y0110000D02*
X0030252Y0110016D01*
X0030500Y0110600D01*
X0035600Y0115700D01*
X0057200Y0115700D01*
X0062000Y0120500D01*
X0062512Y0121000D01*
X0062300Y0121700D01*
X0057200Y0126800D01*
X0057200Y0133400D01*
X0057000Y0133583D01*
X0057200Y0134300D01*
X0057200Y0156200D01*
X0057750Y0156347D02*
X0078192Y0156347D01*
X0078192Y0157845D02*
X0065148Y0157845D01*
X0065148Y0159344D02*
X0193062Y0159344D01*
X0194560Y0160842D02*
X0065148Y0160842D01*
X0063848Y0162341D02*
X0196059Y0162341D01*
X0191563Y0157845D02*
X0166036Y0157845D01*
X0164981Y0158900D02*
X0162818Y0158900D01*
X0162818Y0153486D01*
X0162546Y0153486D01*
X0162546Y0153214D01*
X0157132Y0153214D01*
X0157132Y0151051D01*
X0160383Y0147800D01*
X0162546Y0147800D01*
X0162546Y0153214D01*
X0162818Y0153214D01*
X0162818Y0153486D01*
X0168232Y0153486D01*
X0168232Y0155649D01*
X0164981Y0158900D01*
X0162818Y0157845D02*
X0162546Y0157845D01*
X0162546Y0158900D02*
X0160383Y0158900D01*
X0157132Y0155649D01*
X0157132Y0153486D01*
X0162546Y0153486D01*
X0162546Y0158900D01*
X0162546Y0156347D02*
X0162818Y0156347D01*
X0162818Y0154848D02*
X0162546Y0154848D01*
X0162546Y0153350D02*
X0089692Y0153350D01*
X0089692Y0154848D02*
X0157132Y0154848D01*
X0157830Y0156347D02*
X0089692Y0156347D01*
X0089692Y0157845D02*
X0159328Y0157845D01*
X0162682Y0153350D02*
X0162500Y0153200D01*
X0162500Y0122600D01*
X0131750Y0091850D01*
X0136700Y0086900D01*
X0136936Y0086837D01*
X0137300Y0086300D01*
X0157850Y0065750D01*
X0156500Y0064400D01*
X0156500Y0063500D01*
X0155900Y0063200D01*
X0154700Y0063200D01*
X0154585Y0062978D02*
X0153344Y0061737D01*
X0147050Y0068032D01*
X0147050Y0069232D01*
X0138650Y0077632D01*
X0137332Y0078950D01*
X0135343Y0078950D01*
X0136978Y0080585D01*
X0139205Y0082812D01*
X0139205Y0083095D01*
X0139941Y0083831D01*
X0136936Y0086836D01*
X0136936Y0086836D01*
X0139942Y0083831D01*
X0140678Y0084568D01*
X0140961Y0084568D01*
X0142119Y0085726D01*
X0142716Y0085130D01*
X0143873Y0084650D01*
X0145127Y0084650D01*
X0146284Y0085130D01*
X0146786Y0085632D01*
X0161750Y0070668D01*
X0161750Y0070143D01*
X0160795Y0069188D01*
X0160795Y0068905D01*
X0160058Y0068169D01*
X0159322Y0067432D01*
X0159039Y0067432D01*
X0156341Y0064734D01*
X0156341Y0064451D01*
X0155604Y0063714D01*
X0154867Y0062978D01*
X0154585Y0062978D01*
X0155329Y0063439D02*
X0151643Y0063439D01*
X0150144Y0064937D02*
X0156544Y0064937D01*
X0156500Y0063500D02*
X0158600Y0061400D01*
X0158600Y0060800D01*
X0158609Y0060709D01*
X0155604Y0063714D01*
X0158609Y0060709D01*
X0158609Y0060709D01*
X0158610Y0060709D01*
X0161615Y0057704D01*
X0162351Y0058441D01*
X0162634Y0058441D01*
X0163343Y0059150D01*
X0165532Y0059150D01*
X0167632Y0061250D01*
X0173302Y0061250D01*
X0173302Y0058550D01*
X0172673Y0058550D01*
X0171516Y0058070D01*
X0170630Y0057184D01*
X0170150Y0056027D01*
X0170150Y0054773D01*
X0170630Y0053616D01*
X0171516Y0052730D01*
X0172673Y0052250D01*
X0173927Y0052250D01*
X0174532Y0052501D01*
X0182359Y0052501D01*
X0183501Y0053643D01*
X0183501Y0060317D01*
X0184499Y0059319D01*
X0184499Y0053643D01*
X0185641Y0052501D01*
X0187250Y0052501D01*
X0187250Y0047499D01*
X0185641Y0047499D01*
X0184499Y0046357D01*
X0184499Y0037643D01*
X0185641Y0036501D01*
X0188750Y0036501D01*
X0188750Y0031030D01*
X0181342Y0031030D01*
X0180950Y0030638D01*
X0180950Y0036501D01*
X0182359Y0036501D01*
X0183501Y0037643D01*
X0183501Y0046357D01*
X0182359Y0047499D01*
X0174444Y0047499D01*
X0173302Y0046357D01*
X0173302Y0045980D01*
X0161596Y0057686D01*
X0161615Y0057704D01*
X0158609Y0060709D01*
X0158877Y0060442D02*
X0158877Y0060442D01*
X0160375Y0058943D02*
X0160375Y0058943D01*
X0161837Y0057445D02*
X0170890Y0057445D01*
X0170150Y0055946D02*
X0163336Y0055946D01*
X0164834Y0054448D02*
X0170285Y0054448D01*
X0171296Y0052949D02*
X0166333Y0052949D01*
X0167831Y0051451D02*
X0187250Y0051451D01*
X0187250Y0049952D02*
X0169330Y0049952D01*
X0170828Y0048454D02*
X0187250Y0048454D01*
X0185097Y0046955D02*
X0182903Y0046955D01*
X0183501Y0045457D02*
X0184499Y0045457D01*
X0184499Y0043958D02*
X0183501Y0043958D01*
X0183501Y0042460D02*
X0184499Y0042460D01*
X0184499Y0040961D02*
X0183501Y0040961D01*
X0183501Y0039463D02*
X0184499Y0039463D01*
X0184499Y0037964D02*
X0183501Y0037964D01*
X0180950Y0036466D02*
X0188750Y0036466D01*
X0188750Y0034967D02*
X0180950Y0034967D01*
X0180950Y0033469D02*
X0188750Y0033469D01*
X0188750Y0031970D02*
X0180950Y0031970D01*
X0171168Y0028550D02*
X0170915Y0028550D01*
X0170915Y0024975D01*
X0170265Y0024975D01*
X0170265Y0028550D01*
X0166410Y0028550D01*
X0165965Y0028431D01*
X0165565Y0028200D01*
X0165240Y0027875D01*
X0165009Y0027475D01*
X0153107Y0027475D01*
X0151609Y0028973D02*
X0170745Y0028973D01*
X0171168Y0028550D02*
X0162621Y0037097D01*
X0158829Y0037097D01*
X0157687Y0038240D01*
X0157687Y0045760D01*
X0158829Y0046903D01*
X0166015Y0046903D01*
X0158556Y0054362D01*
X0158180Y0053987D01*
X0155953Y0051759D01*
X0154337Y0051759D01*
X0152976Y0053121D01*
X0152584Y0052730D01*
X0151427Y0052250D01*
X0150173Y0052250D01*
X0149016Y0052730D01*
X0148130Y0053616D01*
X0147951Y0054048D01*
X0145663Y0051759D01*
X0144047Y0051759D01*
X0141981Y0053826D01*
X0141484Y0053330D01*
X0140327Y0052850D01*
X0139073Y0052850D01*
X0137916Y0053330D01*
X0137030Y0054216D01*
X0136550Y0055373D01*
X0136550Y0055425D01*
X0135816Y0055730D01*
X0135464Y0056082D01*
X0134450Y0055068D01*
X0134450Y0054473D01*
X0133970Y0053316D01*
X0133618Y0052964D01*
X0142550Y0044032D01*
X0142550Y0038032D01*
X0164890Y0015692D01*
X0164890Y0017030D01*
X0165009Y0017475D01*
X0165240Y0017875D01*
X0165565Y0018200D01*
X0165965Y0018431D01*
X0166410Y0018550D01*
X0170265Y0018550D01*
X0170265Y0014975D01*
X0170915Y0014975D01*
X0170915Y0018550D01*
X0174770Y0018550D01*
X0175215Y0018431D01*
X0175615Y0018200D01*
X0175940Y0017875D01*
X0176171Y0017475D01*
X0176290Y0017030D01*
X0176290Y0014975D01*
X0170915Y0014975D01*
X0170915Y0014325D01*
X0176290Y0014325D01*
X0176290Y0013250D01*
X0180200Y0013250D01*
X0180200Y0014418D01*
X0179750Y0014868D01*
X0175250Y0019368D01*
X0175250Y0020889D01*
X0175215Y0020869D01*
X0174770Y0020750D01*
X0170915Y0020750D01*
X0170915Y0024325D01*
X0170265Y0024325D01*
X0170265Y0020750D01*
X0166410Y0020750D01*
X0165965Y0020869D01*
X0165565Y0021100D01*
X0165240Y0021425D01*
X0165009Y0021825D01*
X0164890Y0022270D01*
X0164890Y0024325D01*
X0170265Y0024325D01*
X0170265Y0024975D01*
X0164890Y0024975D01*
X0164890Y0027030D01*
X0165009Y0027475D01*
X0164890Y0025976D02*
X0154606Y0025976D01*
X0156104Y0024478D02*
X0170265Y0024478D01*
X0170300Y0024800D02*
X0170590Y0024650D01*
X0170600Y0023900D01*
X0170600Y0014900D01*
X0170590Y0014650D01*
X0170265Y0015487D02*
X0170915Y0015487D01*
X0170915Y0016985D02*
X0170265Y0016985D01*
X0170265Y0018484D02*
X0170915Y0018484D01*
X0175018Y0018484D02*
X0176134Y0018484D01*
X0176290Y0016985D02*
X0177633Y0016985D01*
X0176290Y0015487D02*
X0179131Y0015487D01*
X0180200Y0013988D02*
X0176290Y0013988D01*
X0175250Y0019982D02*
X0160600Y0019982D01*
X0162098Y0018484D02*
X0166162Y0018484D01*
X0164890Y0016985D02*
X0163597Y0016985D01*
X0160230Y0013988D02*
X0141090Y0013988D01*
X0141090Y0012490D02*
X0161728Y0012490D01*
X0163227Y0010991D02*
X0142291Y0010991D01*
X0141090Y0012192D02*
X0141090Y0017608D01*
X0139948Y0018750D01*
X0130432Y0018750D01*
X0129290Y0017608D01*
X0129290Y0012172D01*
X0124668Y0007550D01*
X0110287Y0007550D01*
X0110287Y0011003D01*
X0107258Y0011003D01*
X0107258Y0011003D01*
X0110287Y0011003D01*
X0110287Y0015564D01*
X0110168Y0016010D01*
X0109937Y0016409D01*
X0109611Y0016734D01*
X0109212Y0016965D01*
X0108767Y0017084D01*
X0107257Y0017084D01*
X0105747Y0017084D01*
X0105302Y0016965D01*
X0104903Y0016734D01*
X0104578Y0016409D01*
X0104347Y0016010D01*
X0104228Y0015564D01*
X0104228Y0011003D01*
X0104228Y0007550D01*
X0098450Y0007550D01*
X0097250Y0008750D01*
X0097250Y0017104D01*
X0096304Y0018050D01*
X0126832Y0018050D01*
X0129882Y0021100D01*
X0130432Y0020550D01*
X0139948Y0020550D01*
X0141090Y0021692D01*
X0141090Y0027608D01*
X0139948Y0028750D01*
X0130432Y0028750D01*
X0129290Y0027608D01*
X0129290Y0026750D01*
X0129168Y0026750D01*
X0127850Y0025432D01*
X0124968Y0022550D01*
X0110487Y0022550D01*
X0110487Y0030709D01*
X0109345Y0031851D01*
X0105831Y0031851D01*
X0101181Y0036501D01*
X0107556Y0036501D01*
X0108698Y0037643D01*
X0108698Y0039950D01*
X0109427Y0039950D01*
X0110584Y0040430D01*
X0110936Y0040782D01*
X0111768Y0039950D01*
X0114207Y0039950D01*
X0114207Y0038240D01*
X0115350Y0037097D01*
X0122871Y0037097D01*
X0124013Y0038240D01*
X0124013Y0045760D01*
X0122871Y0046903D01*
X0115350Y0046903D01*
X0114207Y0045760D01*
X0114207Y0044450D01*
X0113632Y0044450D01*
X0105981Y0052101D01*
X0107406Y0052101D01*
X0108548Y0053243D01*
X0108548Y0055550D01*
X0124432Y0055550D01*
X0124550Y0055668D01*
X0133616Y0046602D01*
X0133616Y0042726D01*
X0137492Y0042726D01*
X0138050Y0042168D01*
X0138050Y0036168D01*
X0139368Y0034850D01*
X0165168Y0009050D01*
X0144232Y0009050D01*
X0141090Y0012192D01*
X0143789Y0009493D02*
X0164725Y0009493D01*
X0165800Y0008900D02*
X0200900Y0008900D01*
X0204800Y0012800D01*
X0205450Y0013030D01*
X0205700Y0013100D01*
X0207800Y0013100D01*
X0212300Y0017600D01*
X0212300Y0041900D01*
X0212512Y0042000D01*
X0212900Y0042500D01*
X0217400Y0047000D01*
X0217400Y0062300D01*
X0216500Y0063200D01*
X0214400Y0063200D01*
X0207800Y0069800D01*
X0207800Y0078200D01*
X0212600Y0083000D01*
X0212600Y0128600D01*
X0212900Y0129320D01*
X0212900Y0129500D01*
X0212900Y0139100D01*
X0212900Y0139320D01*
X0213150Y0139070D02*
X0213150Y0129570D01*
X0212650Y0129570D01*
X0212650Y0134770D01*
X0212650Y0139070D01*
X0213150Y0139070D01*
X0213150Y0138365D02*
X0212650Y0138365D01*
X0212650Y0136866D02*
X0213150Y0136866D01*
X0213150Y0135368D02*
X0212650Y0135368D01*
X0212650Y0133869D02*
X0213150Y0133869D01*
X0213150Y0132370D02*
X0212650Y0132370D01*
X0212650Y0130872D02*
X0213150Y0130872D01*
X0213150Y0129373D02*
X0225751Y0129373D01*
X0225751Y0127875D02*
X0218161Y0127875D01*
X0217498Y0126376D02*
X0225751Y0126376D01*
X0225751Y0124878D02*
X0216058Y0124878D01*
X0213150Y0124878D02*
X0212650Y0124878D01*
X0212650Y0126376D02*
X0213150Y0126376D01*
X0213150Y0127875D02*
X0212650Y0127875D01*
X0209750Y0123379D02*
X0225751Y0123379D01*
X0225751Y0121881D02*
X0209750Y0121881D01*
X0209750Y0120382D02*
X0225751Y0120382D01*
X0225751Y0118884D02*
X0209750Y0118884D01*
X0209750Y0117385D02*
X0225751Y0117385D01*
X0225751Y0115887D02*
X0209750Y0115887D01*
X0209750Y0114388D02*
X0225751Y0114388D01*
X0225751Y0112890D02*
X0209750Y0112890D01*
X0209750Y0111391D02*
X0225751Y0111391D01*
X0225751Y0109893D02*
X0209750Y0109893D01*
X0209750Y0108394D02*
X0225751Y0108394D01*
X0225751Y0106896D02*
X0209750Y0106896D01*
X0209750Y0105397D02*
X0225751Y0105397D01*
X0225751Y0103899D02*
X0209750Y0103899D01*
X0209750Y0102400D02*
X0225751Y0102400D01*
X0225751Y0100902D02*
X0209750Y0100902D01*
X0209750Y0099403D02*
X0225751Y0099403D01*
X0225751Y0097905D02*
X0209750Y0097905D01*
X0209750Y0096406D02*
X0225751Y0096406D01*
X0225751Y0094908D02*
X0209750Y0094908D01*
X0209750Y0093409D02*
X0225751Y0093409D01*
X0225751Y0091911D02*
X0209750Y0091911D01*
X0209750Y0090412D02*
X0225751Y0090412D01*
X0225751Y0088914D02*
X0209750Y0088914D01*
X0209750Y0087415D02*
X0225751Y0087415D01*
X0225751Y0085917D02*
X0209750Y0085917D01*
X0209750Y0084418D02*
X0225751Y0084418D01*
X0225751Y0082920D02*
X0209750Y0082920D01*
X0209750Y0081421D02*
X0225751Y0081421D01*
X0225751Y0079923D02*
X0209750Y0079923D01*
X0217631Y0078424D02*
X0225751Y0078424D01*
X0225751Y0076926D02*
X0217698Y0076926D01*
X0217698Y0075427D02*
X0225751Y0075427D01*
X0225751Y0073929D02*
X0217698Y0073929D01*
X0217698Y0072430D02*
X0225751Y0072430D01*
X0225751Y0070932D02*
X0217698Y0070932D01*
X0217488Y0069433D02*
X0225751Y0069433D01*
X0225751Y0067934D02*
X0217647Y0067934D01*
X0219146Y0066436D02*
X0225751Y0066436D01*
X0225751Y0064937D02*
X0220644Y0064937D01*
X0221750Y0063439D02*
X0225751Y0063439D01*
X0225751Y0061940D02*
X0221750Y0061940D01*
X0221750Y0060442D02*
X0225751Y0060442D01*
X0225751Y0058943D02*
X0221750Y0058943D01*
X0221750Y0057445D02*
X0225751Y0057445D01*
X0225751Y0055946D02*
X0221750Y0055946D01*
X0221750Y0054448D02*
X0225751Y0054448D01*
X0225751Y0052949D02*
X0221750Y0052949D01*
X0221750Y0051451D02*
X0225751Y0051451D01*
X0225751Y0049952D02*
X0221750Y0049952D01*
X0221750Y0048454D02*
X0225751Y0048454D01*
X0225751Y0046955D02*
X0221750Y0046955D01*
X0221750Y0045457D02*
X0225751Y0045457D01*
X0225751Y0043958D02*
X0221750Y0043958D01*
X0221750Y0042460D02*
X0225751Y0042460D01*
X0225751Y0040961D02*
X0221750Y0040961D01*
X0221750Y0039463D02*
X0225751Y0039463D01*
X0225751Y0037964D02*
X0221750Y0037964D01*
X0221750Y0036466D02*
X0225751Y0036466D01*
X0225751Y0034967D02*
X0221750Y0034967D01*
X0221750Y0033469D02*
X0225751Y0033469D01*
X0225751Y0031970D02*
X0221750Y0031970D01*
X0221750Y0030472D02*
X0225751Y0030472D01*
X0225751Y0028973D02*
X0221750Y0028973D01*
X0221750Y0027475D02*
X0225751Y0027475D01*
X0225751Y0025976D02*
X0221750Y0025976D01*
X0221750Y0024478D02*
X0225751Y0024478D01*
X0225751Y0022979D02*
X0221750Y0022979D01*
X0221750Y0021481D02*
X0225751Y0021481D01*
X0225751Y0019982D02*
X0221750Y0019982D01*
X0220866Y0018484D02*
X0225751Y0018484D01*
X0225751Y0016985D02*
X0219367Y0016985D01*
X0217869Y0015487D02*
X0225751Y0015487D01*
X0225751Y0013988D02*
X0219337Y0013988D01*
X0220836Y0012490D02*
X0225751Y0012490D01*
X0225751Y0010991D02*
X0221547Y0010991D01*
X0221887Y0009493D02*
X0225751Y0009493D01*
X0225751Y0007994D02*
X0221887Y0007994D01*
X0221335Y0006496D02*
X0225751Y0006496D01*
X0225751Y0004997D02*
X0220323Y0004997D01*
X0210905Y0014887D02*
X0210750Y0015155D01*
X0210516Y0015389D01*
X0211300Y0016172D01*
X0211300Y0019888D01*
X0210658Y0020530D01*
X0211300Y0021172D01*
X0211300Y0024888D01*
X0210658Y0025530D01*
X0211300Y0026172D01*
X0211300Y0029888D01*
X0210158Y0031030D01*
X0205652Y0031030D01*
X0205250Y0031432D01*
X0205250Y0032027D01*
X0204770Y0033184D01*
X0204418Y0033536D01*
X0208113Y0037231D01*
X0208288Y0037056D01*
X0208687Y0036826D01*
X0209132Y0036707D01*
X0211762Y0036707D01*
X0211762Y0041250D01*
X0213262Y0041250D01*
X0213262Y0036707D01*
X0215892Y0036707D01*
X0216337Y0036826D01*
X0216736Y0037056D01*
X0217062Y0037382D01*
X0217250Y0037708D01*
X0217250Y0021232D01*
X0210905Y0014887D01*
X0210614Y0015487D02*
X0211505Y0015487D01*
X0211300Y0016985D02*
X0213003Y0016985D01*
X0214502Y0018484D02*
X0211300Y0018484D01*
X0211206Y0019982D02*
X0216000Y0019982D01*
X0217250Y0021481D02*
X0211300Y0021481D01*
X0211300Y0022979D02*
X0217250Y0022979D01*
X0217250Y0024478D02*
X0211300Y0024478D01*
X0211104Y0025976D02*
X0217250Y0025976D01*
X0217250Y0027475D02*
X0211300Y0027475D01*
X0211300Y0028973D02*
X0217250Y0028973D01*
X0217250Y0030472D02*
X0210716Y0030472D01*
X0205250Y0031970D02*
X0217250Y0031970D01*
X0217250Y0033469D02*
X0204486Y0033469D01*
X0205849Y0034967D02*
X0217250Y0034967D01*
X0217250Y0036466D02*
X0207348Y0036466D01*
X0211762Y0037964D02*
X0213262Y0037964D01*
X0213262Y0039463D02*
X0211762Y0039463D01*
X0211762Y0040961D02*
X0213262Y0040961D01*
X0213262Y0042750D02*
X0211762Y0042750D01*
X0211762Y0047293D01*
X0210350Y0047293D01*
X0210350Y0052501D01*
X0216556Y0052501D01*
X0217250Y0053195D01*
X0217250Y0046292D01*
X0217062Y0046618D01*
X0216736Y0046944D01*
X0216337Y0047174D01*
X0215892Y0047293D01*
X0213262Y0047293D01*
X0213262Y0042750D01*
X0213262Y0043958D02*
X0211762Y0043958D01*
X0211762Y0045457D02*
X0213262Y0045457D01*
X0213262Y0046955D02*
X0211762Y0046955D01*
X0210350Y0048454D02*
X0217250Y0048454D01*
X0217250Y0049952D02*
X0210350Y0049952D01*
X0210350Y0051451D02*
X0217250Y0051451D01*
X0217250Y0052949D02*
X0217004Y0052949D01*
X0217250Y0046955D02*
X0216716Y0046955D01*
X0185192Y0052949D02*
X0182807Y0052949D01*
X0183501Y0054448D02*
X0184499Y0054448D01*
X0184499Y0055946D02*
X0183501Y0055946D01*
X0183501Y0057445D02*
X0184499Y0057445D01*
X0184499Y0058943D02*
X0183501Y0058943D01*
X0173302Y0058943D02*
X0163137Y0058943D01*
X0166824Y0060442D02*
X0173302Y0060442D01*
X0163064Y0065163D02*
X0162800Y0065300D01*
X0161000Y0067100D01*
X0159200Y0067100D01*
X0157850Y0065750D01*
X0158043Y0066436D02*
X0148646Y0066436D01*
X0147147Y0067934D02*
X0159824Y0067934D01*
X0160058Y0068169D02*
X0163064Y0065163D01*
X0163064Y0065164D01*
X0160058Y0068169D01*
X0160292Y0067934D02*
X0160293Y0067934D01*
X0161040Y0069433D02*
X0146849Y0069433D01*
X0145350Y0070932D02*
X0161486Y0070932D01*
X0159988Y0072430D02*
X0143852Y0072430D01*
X0142353Y0073929D02*
X0158489Y0073929D01*
X0156991Y0075427D02*
X0140855Y0075427D01*
X0139356Y0076926D02*
X0155492Y0076926D01*
X0153994Y0078424D02*
X0137858Y0078424D01*
X0136316Y0079923D02*
X0152495Y0079923D01*
X0150997Y0081421D02*
X0137814Y0081421D01*
X0139205Y0082920D02*
X0149498Y0082920D01*
X0148000Y0084418D02*
X0140528Y0084418D01*
X0139355Y0084418D02*
X0139355Y0084418D01*
X0137856Y0085917D02*
X0137856Y0085917D01*
X0136358Y0087415D02*
X0136358Y0087415D01*
X0134859Y0088914D02*
X0134859Y0088914D01*
X0134502Y0090412D02*
X0111470Y0090412D01*
X0112968Y0088914D02*
X0132720Y0088914D01*
X0131222Y0087415D02*
X0114467Y0087415D01*
X0115965Y0085917D02*
X0129723Y0085917D01*
X0128225Y0084418D02*
X0117464Y0084418D01*
X0118962Y0082920D02*
X0126726Y0082920D01*
X0125759Y0081421D02*
X0120461Y0081421D01*
X0121959Y0079923D02*
X0126174Y0079923D01*
X0117986Y0070932D02*
X0108411Y0070932D01*
X0108411Y0072250D02*
X0104262Y0072250D01*
X0104262Y0073750D01*
X0108411Y0073750D01*
X0108411Y0076774D01*
X0108292Y0077219D01*
X0108062Y0077618D01*
X0107736Y0077944D01*
X0107337Y0078174D01*
X0106892Y0078293D01*
X0104262Y0078293D01*
X0104262Y0073750D01*
X0102762Y0073750D01*
X0102762Y0078293D01*
X0100132Y0078293D01*
X0099687Y0078174D01*
X0099288Y0077944D01*
X0099050Y0077706D01*
X0099050Y0082092D01*
X0099641Y0081501D01*
X0107417Y0081501D01*
X0122150Y0066768D01*
X0122150Y0066173D01*
X0122630Y0065016D01*
X0123516Y0064130D01*
X0124673Y0063650D01*
X0125927Y0063650D01*
X0126339Y0063821D01*
X0123618Y0061100D01*
X0122568Y0060050D01*
X0108548Y0060050D01*
X0108548Y0061957D01*
X0107406Y0063099D01*
X0099491Y0063099D01*
X0099050Y0062658D01*
X0099050Y0068294D01*
X0099288Y0068056D01*
X0099687Y0067826D01*
X0100132Y0067707D01*
X0102762Y0067707D01*
X0102762Y0072250D01*
X0104262Y0072250D01*
X0104262Y0067707D01*
X0106892Y0067707D01*
X0107337Y0067826D01*
X0107736Y0068056D01*
X0108062Y0068382D01*
X0108292Y0068781D01*
X0108411Y0069226D01*
X0108411Y0072250D01*
X0108411Y0073929D02*
X0114989Y0073929D01*
X0113491Y0075427D02*
X0108411Y0075427D01*
X0108371Y0076926D02*
X0111992Y0076926D01*
X0110494Y0078424D02*
X0099050Y0078424D01*
X0099050Y0079923D02*
X0108995Y0079923D01*
X0109700Y0079100D02*
X0103700Y0073100D01*
X0103512Y0073000D01*
X0104262Y0072430D02*
X0116488Y0072430D01*
X0119485Y0069433D02*
X0108411Y0069433D01*
X0107525Y0067934D02*
X0120984Y0067934D01*
X0122150Y0066436D02*
X0099050Y0066436D01*
X0099050Y0067934D02*
X0099499Y0067934D01*
X0099050Y0064937D02*
X0122708Y0064937D01*
X0125957Y0063439D02*
X0099050Y0063439D01*
X0102762Y0067934D02*
X0104262Y0067934D01*
X0104262Y0069433D02*
X0102762Y0069433D01*
X0102762Y0070932D02*
X0104262Y0070932D01*
X0104262Y0073929D02*
X0102762Y0073929D01*
X0102762Y0075427D02*
X0104262Y0075427D01*
X0104262Y0076926D02*
X0102762Y0076926D01*
X0099050Y0081421D02*
X0107497Y0081421D01*
X0109971Y0091911D02*
X0135717Y0091911D01*
X0137216Y0093409D02*
X0108473Y0093409D01*
X0107870Y0094908D02*
X0115521Y0094908D01*
X0115663Y0094826D02*
X0116108Y0094707D01*
X0118738Y0094707D01*
X0118738Y0099250D01*
X0114589Y0099250D01*
X0114589Y0096226D01*
X0114708Y0095781D01*
X0114938Y0095382D01*
X0115264Y0095056D01*
X0115663Y0094826D01*
X0114589Y0096406D02*
X0108611Y0096406D01*
X0108611Y0097905D02*
X0114589Y0097905D01*
X0114589Y0100750D02*
X0118738Y0100750D01*
X0118738Y0099250D01*
X0120238Y0099250D01*
X0120238Y0094707D01*
X0122868Y0094707D01*
X0123313Y0094826D01*
X0123712Y0095056D01*
X0124038Y0095382D01*
X0124269Y0095781D01*
X0124388Y0096226D01*
X0124388Y0099250D01*
X0120238Y0099250D01*
X0120238Y0100750D01*
X0118738Y0100750D01*
X0118738Y0105293D01*
X0116108Y0105293D01*
X0115663Y0105174D01*
X0115264Y0104944D01*
X0114938Y0104618D01*
X0114708Y0104219D01*
X0114589Y0103774D01*
X0114589Y0100750D01*
X0114589Y0100902D02*
X0111057Y0100902D01*
X0111650Y0102400D02*
X0114589Y0102400D01*
X0114622Y0103899D02*
X0111454Y0103899D01*
X0110357Y0105397D02*
X0121921Y0105397D01*
X0122025Y0105293D02*
X0120238Y0105293D01*
X0120238Y0100750D01*
X0124388Y0100750D01*
X0124388Y0102930D01*
X0125412Y0101906D01*
X0125412Y0095649D01*
X0126554Y0094507D01*
X0134469Y0094507D01*
X0135611Y0095649D01*
X0135611Y0104351D01*
X0134469Y0105493D01*
X0128189Y0105493D01*
X0119632Y0114050D01*
X0110705Y0114050D01*
X0110284Y0114470D01*
X0109127Y0114950D01*
X0108611Y0114950D01*
X0108611Y0116351D01*
X0107469Y0117493D01*
X0101189Y0117493D01*
X0083032Y0135650D01*
X0069875Y0135650D01*
X0069875Y0138623D01*
X0068733Y0139765D01*
X0063377Y0139765D01*
X0062235Y0138623D01*
X0062235Y0128543D01*
X0063377Y0127400D01*
X0068733Y0127400D01*
X0069875Y0128543D01*
X0069875Y0131150D01*
X0081168Y0131150D01*
X0095025Y0117293D01*
X0093238Y0117293D01*
X0093238Y0112750D01*
X0091738Y0112750D01*
X0091738Y0111250D01*
X0087589Y0111250D01*
X0087589Y0108226D01*
X0087708Y0107781D01*
X0087938Y0107382D01*
X0088264Y0107056D01*
X0088663Y0106826D01*
X0089108Y0106707D01*
X0091738Y0106707D01*
X0091738Y0111250D01*
X0093238Y0111250D01*
X0093238Y0106707D01*
X0095868Y0106707D01*
X0096313Y0106826D01*
X0096712Y0107056D01*
X0097038Y0107382D01*
X0097269Y0107781D01*
X0097388Y0108226D01*
X0097388Y0111250D01*
X0093238Y0111250D01*
X0093238Y0112750D01*
X0097388Y0112750D01*
X0097388Y0114930D01*
X0098412Y0113906D01*
X0098412Y0107649D01*
X0099554Y0106507D01*
X0107469Y0106507D01*
X0108611Y0107649D01*
X0108611Y0108650D01*
X0109127Y0108650D01*
X0110284Y0109130D01*
X0110705Y0109550D01*
X0117768Y0109550D01*
X0122025Y0105293D01*
X0120238Y0103899D02*
X0118738Y0103899D01*
X0118738Y0102400D02*
X0120238Y0102400D01*
X0120238Y0100902D02*
X0118738Y0100902D01*
X0119000Y0100400D02*
X0119488Y0100000D01*
X0119600Y0099800D01*
X0124700Y0094700D01*
X0124400Y0094100D01*
X0124400Y0093800D01*
X0124700Y0094700D02*
X0128900Y0094700D01*
X0131750Y0091850D01*
X0134870Y0094908D02*
X0138714Y0094908D01*
X0140213Y0096406D02*
X0135611Y0096406D01*
X0135611Y0097905D02*
X0141711Y0097905D01*
X0143210Y0099403D02*
X0135611Y0099403D01*
X0135611Y0100902D02*
X0148947Y0100902D01*
X0147847Y0099403D02*
X0146500Y0099403D01*
X0151718Y0102400D02*
X0135611Y0102400D01*
X0135611Y0103899D02*
X0153217Y0103899D01*
X0154715Y0105397D02*
X0134565Y0105397D01*
X0126786Y0106896D02*
X0156214Y0106896D01*
X0157712Y0108394D02*
X0125288Y0108394D01*
X0123789Y0109893D02*
X0159211Y0109893D01*
X0160709Y0111391D02*
X0122291Y0111391D01*
X0120792Y0112890D02*
X0162208Y0112890D01*
X0162350Y0114388D02*
X0110366Y0114388D01*
X0108611Y0115887D02*
X0162350Y0115887D01*
X0162350Y0117385D02*
X0107577Y0117385D01*
X0099798Y0118884D02*
X0162350Y0118884D01*
X0162350Y0120382D02*
X0098300Y0120382D01*
X0096801Y0121881D02*
X0162350Y0121881D01*
X0162350Y0123379D02*
X0095303Y0123379D01*
X0093804Y0124878D02*
X0162350Y0124878D01*
X0162350Y0126376D02*
X0092306Y0126376D01*
X0090807Y0127875D02*
X0162350Y0127875D01*
X0163091Y0129373D02*
X0089309Y0129373D01*
X0087810Y0130872D02*
X0164590Y0130872D01*
X0166089Y0132370D02*
X0086311Y0132370D01*
X0084813Y0133869D02*
X0167587Y0133869D01*
X0169086Y0135368D02*
X0083314Y0135368D01*
X0081446Y0130872D02*
X0069875Y0130872D01*
X0069875Y0129373D02*
X0082945Y0129373D01*
X0084443Y0127875D02*
X0069207Y0127875D01*
X0067062Y0125618D02*
X0066736Y0125944D01*
X0066337Y0126174D01*
X0065892Y0126293D01*
X0063262Y0126293D01*
X0063262Y0121750D01*
X0067411Y0121750D01*
X0067411Y0124774D01*
X0067292Y0125219D01*
X0067062Y0125618D01*
X0067383Y0124878D02*
X0087440Y0124878D01*
X0085942Y0126376D02*
X0055562Y0126376D01*
X0056588Y0124878D02*
X0057640Y0124878D01*
X0057612Y0124774D02*
X0057612Y0121750D01*
X0061762Y0121750D01*
X0061762Y0126293D01*
X0059132Y0126293D01*
X0058687Y0126174D01*
X0058288Y0125944D01*
X0057962Y0125618D01*
X0057731Y0125219D01*
X0057612Y0124774D01*
X0057612Y0123379D02*
X0056588Y0123379D01*
X0056588Y0121881D02*
X0057612Y0121881D01*
X0057612Y0120250D02*
X0057612Y0117226D01*
X0057731Y0116781D01*
X0057962Y0116382D01*
X0058288Y0116056D01*
X0058687Y0115826D01*
X0059132Y0115707D01*
X0061762Y0115707D01*
X0061762Y0120250D01*
X0063262Y0120250D01*
X0063262Y0121750D01*
X0061762Y0121750D01*
X0061762Y0120250D01*
X0057612Y0120250D01*
X0056588Y0120382D02*
X0061762Y0120382D01*
X0062600Y0120800D02*
X0062512Y0121000D01*
X0062600Y0120800D02*
X0071300Y0112100D01*
X0071300Y0110300D01*
X0071591Y0110016D01*
X0072200Y0109700D01*
X0092000Y0109700D01*
X0092488Y0112000D01*
X0092600Y0111800D01*
X0092600Y0105800D01*
X0113600Y0105800D01*
X0119000Y0100400D01*
X0118738Y0099403D02*
X0108611Y0099403D01*
X0107858Y0106896D02*
X0120422Y0106896D01*
X0118924Y0108394D02*
X0108611Y0108394D01*
X0099165Y0106896D02*
X0096434Y0106896D01*
X0097388Y0108394D02*
X0098412Y0108394D01*
X0098412Y0109893D02*
X0097388Y0109893D01*
X0098412Y0111391D02*
X0093238Y0111391D01*
X0093238Y0109893D02*
X0091738Y0109893D01*
X0091738Y0111391D02*
X0075308Y0111391D01*
X0074809Y0112890D02*
X0087589Y0112890D01*
X0087589Y0112750D02*
X0091738Y0112750D01*
X0091738Y0117293D01*
X0089108Y0117293D01*
X0088663Y0117174D01*
X0088264Y0116944D01*
X0087938Y0116618D01*
X0087708Y0116219D01*
X0087589Y0115774D01*
X0087589Y0112750D01*
X0087589Y0114388D02*
X0073143Y0114388D01*
X0071825Y0114388D02*
X0071356Y0114388D01*
X0070038Y0114388D02*
X0067760Y0114388D01*
X0066736Y0116056D02*
X0067062Y0116382D01*
X0067292Y0116781D01*
X0067411Y0117226D01*
X0067411Y0120250D01*
X0063262Y0120250D01*
X0063262Y0115707D01*
X0065892Y0115707D01*
X0066337Y0115826D01*
X0066736Y0116056D01*
X0066442Y0115887D02*
X0087619Y0115887D01*
X0091738Y0115887D02*
X0093238Y0115887D01*
X0093238Y0114388D02*
X0091738Y0114388D01*
X0091738Y0112890D02*
X0093238Y0112890D01*
X0097388Y0112890D02*
X0098412Y0112890D01*
X0097930Y0114388D02*
X0097388Y0114388D01*
X0094933Y0117385D02*
X0067411Y0117385D01*
X0067411Y0118884D02*
X0093434Y0118884D01*
X0091936Y0120382D02*
X0063262Y0120382D01*
X0063262Y0118884D02*
X0061762Y0118884D01*
X0061762Y0117385D02*
X0063262Y0117385D01*
X0063262Y0115887D02*
X0061762Y0115887D01*
X0061855Y0114388D02*
X0063610Y0114388D01*
X0058581Y0115887D02*
X0055826Y0115887D01*
X0055949Y0114388D02*
X0057704Y0114388D01*
X0057612Y0117385D02*
X0056588Y0117385D01*
X0056588Y0118884D02*
X0057612Y0118884D01*
X0061762Y0121881D02*
X0063262Y0121881D01*
X0063262Y0123379D02*
X0061762Y0123379D01*
X0061762Y0124878D02*
X0063262Y0124878D01*
X0062903Y0127875D02*
X0059815Y0127875D01*
X0059945Y0127950D02*
X0059546Y0127720D01*
X0059100Y0127600D01*
X0057185Y0127600D01*
X0057185Y0133398D01*
X0057185Y0133768D01*
X0056815Y0133768D01*
X0056815Y0139565D01*
X0054900Y0139565D01*
X0054454Y0139446D01*
X0054055Y0139215D01*
X0053730Y0138889D01*
X0053499Y0138490D01*
X0053380Y0138045D01*
X0053380Y0133768D01*
X0056815Y0133768D01*
X0056815Y0133398D01*
X0057185Y0133398D01*
X0060620Y0133398D01*
X0060620Y0129120D01*
X0060501Y0128675D01*
X0060270Y0128276D01*
X0059945Y0127950D01*
X0060620Y0129373D02*
X0062235Y0129373D01*
X0062235Y0130872D02*
X0060620Y0130872D01*
X0060620Y0132370D02*
X0062235Y0132370D01*
X0062235Y0133869D02*
X0060620Y0133869D01*
X0060620Y0133768D02*
X0060620Y0138045D01*
X0060501Y0138490D01*
X0060270Y0138889D01*
X0059945Y0139215D01*
X0059546Y0139446D01*
X0059100Y0139565D01*
X0057185Y0139565D01*
X0057185Y0133768D01*
X0060620Y0133768D01*
X0060620Y0135368D02*
X0062235Y0135368D01*
X0062235Y0136866D02*
X0060620Y0136866D01*
X0060535Y0138365D02*
X0062235Y0138365D01*
X0057185Y0138365D02*
X0056815Y0138365D01*
X0056815Y0136866D02*
X0057185Y0136866D01*
X0057185Y0135368D02*
X0056815Y0135368D01*
X0056815Y0133869D02*
X0057185Y0133869D01*
X0057185Y0132370D02*
X0056815Y0132370D01*
X0056815Y0130872D02*
X0057185Y0130872D01*
X0057185Y0129373D02*
X0056815Y0129373D01*
X0056815Y0127875D02*
X0057185Y0127875D01*
X0054185Y0127875D02*
X0053900Y0127875D01*
X0051200Y0130400D02*
X0048200Y0133400D01*
X0047945Y0133583D01*
X0047900Y0134300D01*
X0047900Y0137600D01*
X0031100Y0154400D01*
X0031100Y0155000D01*
X0031000Y0155000D01*
X0031400Y0155600D01*
X0031400Y0159200D01*
X0058100Y0185900D01*
X0058700Y0185900D01*
X0058937Y0186000D01*
X0062945Y0181821D02*
X0225751Y0181821D01*
X0225751Y0180323D02*
X0060357Y0180323D01*
X0057517Y0180323D02*
X0056341Y0180323D01*
X0054843Y0178824D02*
X0225751Y0178824D01*
X0225751Y0177326D02*
X0053344Y0177326D01*
X0051846Y0175827D02*
X0209545Y0175827D01*
X0208047Y0174329D02*
X0205572Y0174329D01*
X0200228Y0174329D02*
X0050347Y0174329D01*
X0048849Y0172830D02*
X0198420Y0172830D01*
X0197618Y0171332D02*
X0051083Y0171332D01*
X0052260Y0169833D02*
X0197250Y0169833D01*
X0197250Y0168335D02*
X0052881Y0168335D01*
X0056250Y0162341D02*
X0057750Y0162341D01*
X0057750Y0160842D02*
X0056250Y0160842D01*
X0056250Y0159344D02*
X0057750Y0159344D01*
X0057750Y0157845D02*
X0056250Y0157845D01*
X0056250Y0153350D02*
X0057750Y0153350D01*
X0057750Y0151851D02*
X0056250Y0151851D01*
X0048880Y0151851D02*
X0037851Y0151851D01*
X0038674Y0153350D02*
X0048852Y0153350D01*
X0048852Y0154848D02*
X0038950Y0154848D01*
X0038966Y0150353D02*
X0078192Y0150353D01*
X0078192Y0151851D02*
X0065120Y0151851D01*
X0065148Y0153350D02*
X0078192Y0153350D01*
X0078192Y0154848D02*
X0065148Y0154848D01*
X0078192Y0157958D02*
X0078192Y0148742D01*
X0079334Y0147600D01*
X0088550Y0147600D01*
X0089692Y0148742D01*
X0089692Y0157958D01*
X0088550Y0159100D01*
X0079334Y0159100D01*
X0078192Y0157958D01*
X0078192Y0148854D02*
X0040464Y0148854D01*
X0041963Y0147356D02*
X0181074Y0147356D01*
X0182572Y0148854D02*
X0166035Y0148854D01*
X0164981Y0147800D02*
X0168232Y0151051D01*
X0168232Y0153214D01*
X0162818Y0153214D01*
X0162818Y0147800D01*
X0164981Y0147800D01*
X0162818Y0148854D02*
X0162546Y0148854D01*
X0162546Y0150353D02*
X0162818Y0150353D01*
X0162818Y0151851D02*
X0162546Y0151851D01*
X0162818Y0153350D02*
X0187068Y0153350D01*
X0188566Y0154848D02*
X0168232Y0154848D01*
X0167534Y0156347D02*
X0190065Y0156347D01*
X0185569Y0151851D02*
X0168232Y0151851D01*
X0167534Y0150353D02*
X0184071Y0150353D01*
X0179575Y0145857D02*
X0043461Y0145857D01*
X0044960Y0144359D02*
X0178077Y0144359D01*
X0176578Y0142860D02*
X0046458Y0142860D01*
X0047957Y0141362D02*
X0175080Y0141362D01*
X0173581Y0139863D02*
X0049455Y0139863D01*
X0051765Y0138365D02*
X0053465Y0138365D01*
X0053380Y0136866D02*
X0051765Y0136866D01*
X0051765Y0135368D02*
X0053380Y0135368D01*
X0053380Y0133869D02*
X0051765Y0133869D01*
X0053048Y0132370D02*
X0053380Y0132370D01*
X0051200Y0130400D02*
X0051200Y0121100D01*
X0051488Y0121000D01*
X0046389Y0120382D02*
X0035787Y0120382D01*
X0037881Y0121881D02*
X0046389Y0121881D01*
X0046389Y0123379D02*
X0038687Y0123379D01*
X0038950Y0124878D02*
X0046389Y0124878D01*
X0047414Y0126376D02*
X0038788Y0126376D01*
X0038125Y0127875D02*
X0044793Y0127875D01*
X0044125Y0129373D02*
X0036376Y0129373D01*
X0036872Y0130872D02*
X0044125Y0130872D01*
X0044125Y0132370D02*
X0038269Y0132370D01*
X0038889Y0133869D02*
X0044125Y0133869D01*
X0044125Y0135368D02*
X0038950Y0135368D01*
X0038585Y0136866D02*
X0044125Y0136866D01*
X0043317Y0138365D02*
X0037636Y0138365D01*
X0035195Y0139863D02*
X0041819Y0139863D01*
X0040320Y0141362D02*
X0037362Y0141362D01*
X0038471Y0142860D02*
X0038822Y0142860D01*
X0038359Y0162341D02*
X0043701Y0162341D01*
X0042212Y0163839D02*
X0039858Y0163839D01*
X0041356Y0165338D02*
X0041591Y0165338D01*
X0036632Y0183320D02*
X0035573Y0183320D01*
X0035573Y0184818D02*
X0036632Y0184818D01*
X0041389Y0187815D02*
X0053423Y0187815D01*
X0054065Y0189314D02*
X0040603Y0189314D01*
X0038967Y0190812D02*
X0055563Y0190812D01*
X0062311Y0190812D02*
X0225751Y0190812D01*
X0225751Y0189314D02*
X0063809Y0189314D01*
X0064451Y0187815D02*
X0225751Y0187815D01*
X0225751Y0186317D02*
X0064726Y0186317D01*
X0064713Y0184818D02*
X0225751Y0184818D01*
X0225751Y0183320D02*
X0064092Y0183320D01*
X0068665Y0192009D02*
X0070829Y0191113D01*
X0073171Y0191113D01*
X0075335Y0192009D01*
X0076991Y0193665D01*
X0077887Y0195829D01*
X0077887Y0198171D01*
X0076991Y0200335D01*
X0075335Y0201991D01*
X0073171Y0202887D01*
X0070829Y0202887D01*
X0068665Y0201991D01*
X0067009Y0200335D01*
X0066113Y0198171D01*
X0066113Y0195829D01*
X0067009Y0193665D01*
X0068665Y0192009D01*
X0068364Y0192311D02*
X0020000Y0192311D01*
X0020000Y0193809D02*
X0066950Y0193809D01*
X0066329Y0195308D02*
X0020000Y0195308D01*
X0020000Y0196806D02*
X0066113Y0196806D01*
X0066168Y0198305D02*
X0020000Y0198305D01*
X0020000Y0199803D02*
X0066789Y0199803D01*
X0067977Y0201302D02*
X0020000Y0201302D01*
X0020000Y0202801D02*
X0070620Y0202801D01*
X0073380Y0202801D02*
X0214620Y0202801D01*
X0214829Y0202887D02*
X0212665Y0201991D01*
X0211009Y0200335D01*
X0210113Y0198171D01*
X0210113Y0195829D01*
X0211009Y0193665D01*
X0212665Y0192009D01*
X0214829Y0191113D01*
X0217171Y0191113D01*
X0219335Y0192009D01*
X0220991Y0193665D01*
X0221887Y0195829D01*
X0221887Y0198171D01*
X0220991Y0200335D01*
X0219335Y0201991D01*
X0217171Y0202887D01*
X0214829Y0202887D01*
X0217380Y0202801D02*
X0225751Y0202801D01*
X0225751Y0201302D02*
X0220023Y0201302D01*
X0221211Y0199803D02*
X0225751Y0199803D01*
X0225751Y0198305D02*
X0221832Y0198305D01*
X0221887Y0196806D02*
X0225751Y0196806D01*
X0225751Y0195308D02*
X0221671Y0195308D01*
X0221050Y0193809D02*
X0225751Y0193809D01*
X0225751Y0192311D02*
X0219636Y0192311D01*
X0212364Y0192311D02*
X0075636Y0192311D01*
X0077050Y0193809D02*
X0210950Y0193809D01*
X0210329Y0195308D02*
X0077671Y0195308D01*
X0077887Y0196806D02*
X0210113Y0196806D01*
X0210168Y0198305D02*
X0077832Y0198305D01*
X0077211Y0199803D02*
X0210789Y0199803D01*
X0211977Y0201302D02*
X0076023Y0201302D01*
X0030631Y0184818D02*
X0020000Y0184818D01*
X0020000Y0183320D02*
X0031196Y0183320D01*
X0069875Y0138365D02*
X0172083Y0138365D01*
X0170584Y0136866D02*
X0069875Y0136866D01*
X0067411Y0123379D02*
X0088939Y0123379D01*
X0090437Y0121881D02*
X0067411Y0121881D01*
X0071356Y0112890D02*
X0071825Y0112890D01*
X0071825Y0111391D02*
X0071356Y0111391D01*
X0071825Y0109893D02*
X0087589Y0109893D01*
X0087589Y0108394D02*
X0075259Y0108394D01*
X0074645Y0106896D02*
X0088542Y0106896D01*
X0087622Y0103899D02*
X0083101Y0103899D01*
X0084000Y0102400D02*
X0087589Y0102400D01*
X0087589Y0100902D02*
X0084000Y0100902D01*
X0084000Y0099403D02*
X0091738Y0099403D01*
X0092488Y0100000D02*
X0092600Y0100100D01*
X0092600Y0105800D01*
X0093238Y0106896D02*
X0091738Y0106896D01*
X0091738Y0108394D02*
X0093238Y0108394D01*
X0093238Y0103899D02*
X0091738Y0103899D01*
X0091738Y0102400D02*
X0093238Y0102400D01*
X0093238Y0100902D02*
X0091738Y0100902D01*
X0093238Y0099403D02*
X0098412Y0099403D01*
X0098412Y0100902D02*
X0097388Y0100902D01*
X0097388Y0102400D02*
X0098412Y0102400D01*
X0098412Y0103899D02*
X0097354Y0103899D01*
X0099458Y0105397D02*
X0081603Y0105397D01*
X0097388Y0097905D02*
X0098323Y0097905D01*
X0118738Y0097905D02*
X0120238Y0097905D01*
X0120238Y0099403D02*
X0125412Y0099403D01*
X0125412Y0097905D02*
X0124388Y0097905D01*
X0124388Y0096406D02*
X0125412Y0096406D01*
X0126153Y0094908D02*
X0123455Y0094908D01*
X0120238Y0094908D02*
X0118738Y0094908D01*
X0118738Y0096406D02*
X0120238Y0096406D01*
X0124388Y0100902D02*
X0125412Y0100902D01*
X0124918Y0102400D02*
X0124388Y0102400D01*
X0161791Y0066436D02*
X0161791Y0066436D01*
X0157378Y0061940D02*
X0157378Y0061940D01*
X0155880Y0063439D02*
X0155880Y0063439D01*
X0153547Y0061940D02*
X0153141Y0061940D01*
X0153147Y0052949D02*
X0152804Y0052949D01*
X0148796Y0052949D02*
X0146852Y0052949D01*
X0142857Y0052949D02*
X0140567Y0052949D01*
X0138833Y0052949D02*
X0133633Y0052949D01*
X0134439Y0054448D02*
X0136933Y0054448D01*
X0135599Y0055946D02*
X0135328Y0055946D01*
X0135131Y0051451D02*
X0161467Y0051451D01*
X0159969Y0052949D02*
X0157143Y0052949D01*
X0162966Y0049952D02*
X0136630Y0049952D01*
X0138128Y0048454D02*
X0164464Y0048454D01*
X0165963Y0046955D02*
X0139627Y0046955D01*
X0141125Y0045457D02*
X0144181Y0045457D01*
X0144227Y0045628D02*
X0144107Y0045183D01*
X0144107Y0042726D01*
X0148084Y0042726D01*
X0148084Y0041274D01*
X0144107Y0041274D01*
X0144107Y0038817D01*
X0144227Y0038372D01*
X0144457Y0037973D01*
X0144783Y0037647D01*
X0145182Y0037416D01*
X0145627Y0037297D01*
X0148084Y0037297D01*
X0148084Y0041274D01*
X0149537Y0041274D01*
X0149537Y0042726D01*
X0153513Y0042726D01*
X0153513Y0045183D01*
X0153394Y0045628D01*
X0153163Y0046027D01*
X0152838Y0046353D01*
X0152438Y0046583D01*
X0151993Y0046703D01*
X0149537Y0046703D01*
X0149537Y0042726D01*
X0148084Y0042726D01*
X0148084Y0046703D01*
X0145627Y0046703D01*
X0145182Y0046583D01*
X0144783Y0046353D01*
X0144457Y0046027D01*
X0144227Y0045628D01*
X0144107Y0043958D02*
X0142550Y0043958D01*
X0142550Y0042460D02*
X0148084Y0042460D01*
X0148100Y0041900D02*
X0148810Y0042000D01*
X0149000Y0041900D01*
X0153200Y0041900D01*
X0170300Y0024800D01*
X0170265Y0025976D02*
X0170915Y0025976D01*
X0170915Y0027475D02*
X0170265Y0027475D01*
X0169246Y0030472D02*
X0150110Y0030472D01*
X0148612Y0031970D02*
X0167748Y0031970D01*
X0166249Y0033469D02*
X0147113Y0033469D01*
X0145615Y0034967D02*
X0164751Y0034967D01*
X0163252Y0036466D02*
X0144116Y0036466D01*
X0144466Y0037964D02*
X0142618Y0037964D01*
X0142550Y0039463D02*
X0144107Y0039463D01*
X0144107Y0040961D02*
X0142550Y0040961D01*
X0142700Y0041900D02*
X0148100Y0041900D01*
X0148084Y0040961D02*
X0149537Y0040961D01*
X0149537Y0041274D02*
X0149537Y0037297D01*
X0151993Y0037297D01*
X0152438Y0037416D01*
X0152838Y0037647D01*
X0153163Y0037973D01*
X0153394Y0038372D01*
X0153513Y0038817D01*
X0153513Y0041274D01*
X0149537Y0041274D01*
X0149537Y0042460D02*
X0157687Y0042460D01*
X0157687Y0043958D02*
X0153513Y0043958D01*
X0153440Y0045457D02*
X0157687Y0045457D01*
X0157687Y0040961D02*
X0153513Y0040961D01*
X0153513Y0039463D02*
X0157687Y0039463D01*
X0157962Y0037964D02*
X0153155Y0037964D01*
X0149537Y0037964D02*
X0148084Y0037964D01*
X0148084Y0039463D02*
X0149537Y0039463D01*
X0149537Y0043958D02*
X0148084Y0043958D01*
X0148084Y0045457D02*
X0149537Y0045457D01*
X0137758Y0042460D02*
X0133616Y0042460D01*
X0133616Y0042726D02*
X0133616Y0041274D01*
X0137592Y0041274D01*
X0137593Y0038817D01*
X0137473Y0038372D01*
X0137243Y0037973D01*
X0136917Y0037647D01*
X0136518Y0037416D01*
X0136073Y0037297D01*
X0133616Y0037297D01*
X0133616Y0041274D01*
X0132163Y0041274D01*
X0128187Y0041274D01*
X0128187Y0038817D01*
X0128306Y0038372D01*
X0128537Y0037973D01*
X0128862Y0037647D01*
X0129262Y0037416D01*
X0129707Y0037297D01*
X0132163Y0037297D01*
X0132163Y0041274D01*
X0132163Y0042726D01*
X0128187Y0042726D01*
X0128187Y0045183D01*
X0128306Y0045628D01*
X0128537Y0046027D01*
X0128862Y0046353D01*
X0129262Y0046583D01*
X0129707Y0046703D01*
X0132163Y0046703D01*
X0132163Y0042726D01*
X0133616Y0042726D01*
X0133700Y0041900D02*
X0132890Y0042000D01*
X0133100Y0041900D01*
X0133100Y0035300D01*
X0140900Y0027500D01*
X0140900Y0021800D01*
X0141500Y0021500D01*
X0153200Y0021500D01*
X0165800Y0008900D01*
X0158731Y0015487D02*
X0141090Y0015487D01*
X0141090Y0016985D02*
X0157233Y0016985D01*
X0155734Y0018484D02*
X0140214Y0018484D01*
X0137600Y0018500D02*
X0126800Y0018500D01*
X0119600Y0011300D01*
X0107300Y0011300D01*
X0107257Y0011003D01*
X0104228Y0011003D01*
X0107257Y0011003D01*
X0107257Y0011003D01*
X0107257Y0011004D02*
X0107257Y0017084D01*
X0107257Y0011004D01*
X0107257Y0011004D01*
X0107257Y0012490D02*
X0107257Y0012490D01*
X0107257Y0013988D02*
X0107257Y0013988D01*
X0107257Y0015487D02*
X0107257Y0015487D01*
X0107257Y0016985D02*
X0107257Y0016985D01*
X0105378Y0016985D02*
X0097250Y0016985D01*
X0097250Y0015487D02*
X0104228Y0015487D01*
X0104228Y0013988D02*
X0097250Y0013988D01*
X0097250Y0012490D02*
X0104228Y0012490D01*
X0104228Y0010991D02*
X0097250Y0010991D01*
X0097250Y0009493D02*
X0104228Y0009493D01*
X0104228Y0007994D02*
X0098006Y0007994D01*
X0110287Y0007994D02*
X0125112Y0007994D01*
X0126611Y0009493D02*
X0110287Y0009493D01*
X0110287Y0010991D02*
X0128109Y0010991D01*
X0129290Y0012490D02*
X0110287Y0012490D01*
X0110287Y0013988D02*
X0129290Y0013988D01*
X0129290Y0015487D02*
X0110287Y0015487D01*
X0109137Y0016985D02*
X0129290Y0016985D01*
X0130166Y0018484D02*
X0127266Y0018484D01*
X0128764Y0019982D02*
X0154236Y0019982D01*
X0152737Y0021481D02*
X0140878Y0021481D01*
X0140900Y0021800D02*
X0137600Y0018500D01*
X0141090Y0022979D02*
X0151239Y0022979D01*
X0149740Y0024478D02*
X0141090Y0024478D01*
X0141090Y0025976D02*
X0148242Y0025976D01*
X0146743Y0027475D02*
X0141090Y0027475D01*
X0143746Y0030472D02*
X0110487Y0030472D01*
X0110487Y0028973D02*
X0145245Y0028973D01*
X0142248Y0031970D02*
X0105712Y0031970D01*
X0104213Y0033469D02*
X0140749Y0033469D01*
X0139251Y0034967D02*
X0102715Y0034967D01*
X0101216Y0036466D02*
X0138050Y0036466D01*
X0138050Y0037964D02*
X0137234Y0037964D01*
X0137593Y0039463D02*
X0138050Y0039463D01*
X0138050Y0040961D02*
X0137593Y0040961D01*
X0137900Y0041900D02*
X0133700Y0041900D01*
X0133616Y0040961D02*
X0132163Y0040961D01*
X0132163Y0039463D02*
X0133616Y0039463D01*
X0133616Y0037964D02*
X0132163Y0037964D01*
X0128545Y0037964D02*
X0123738Y0037964D01*
X0124013Y0039463D02*
X0128187Y0039463D01*
X0128187Y0040961D02*
X0124013Y0040961D01*
X0124013Y0042460D02*
X0132163Y0042460D01*
X0132163Y0043958D02*
X0133616Y0043958D01*
X0133616Y0045457D02*
X0132163Y0045457D01*
X0133263Y0046955D02*
X0111127Y0046955D01*
X0112625Y0045457D02*
X0114207Y0045457D01*
X0109628Y0048454D02*
X0131764Y0048454D01*
X0130266Y0049952D02*
X0108130Y0049952D01*
X0106631Y0051451D02*
X0128767Y0051451D01*
X0127269Y0052949D02*
X0108254Y0052949D01*
X0108548Y0054448D02*
X0125770Y0054448D01*
X0122960Y0060442D02*
X0108548Y0060442D01*
X0108548Y0061940D02*
X0124458Y0061940D01*
X0124013Y0045457D02*
X0128260Y0045457D01*
X0128187Y0043958D02*
X0124013Y0043958D01*
X0114207Y0039463D02*
X0108698Y0039463D01*
X0108698Y0037964D02*
X0114483Y0037964D01*
X0110487Y0027475D02*
X0129290Y0027475D01*
X0128394Y0025976D02*
X0110487Y0025976D01*
X0110487Y0024478D02*
X0126896Y0024478D01*
X0125397Y0022979D02*
X0110487Y0022979D01*
X0157603Y0022979D02*
X0164890Y0022979D01*
X0165208Y0021481D02*
X0159101Y0021481D01*
X0170265Y0021481D02*
X0170915Y0021481D01*
X0170915Y0022979D02*
X0170265Y0022979D01*
X0191632Y0009050D02*
X0192650Y0010068D01*
X0197564Y0014982D01*
X0197916Y0014630D01*
X0199073Y0014150D01*
X0199800Y0014150D01*
X0199800Y0013030D01*
X0199800Y0011750D01*
X0199919Y0011305D01*
X0200150Y0010905D01*
X0200475Y0010580D01*
X0200875Y0010349D01*
X0201320Y0010230D01*
X0205450Y0010230D01*
X0206248Y0010230D01*
X0205068Y0009050D01*
X0191632Y0009050D01*
X0192075Y0009493D02*
X0205511Y0009493D01*
X0205450Y0010230D02*
X0205450Y0013030D01*
X0205450Y0013030D01*
X0205450Y0010230D01*
X0205450Y0010991D02*
X0205450Y0010991D01*
X0205450Y0012490D02*
X0205450Y0012490D01*
X0205450Y0013030D02*
X0199800Y0013030D01*
X0205450Y0013030D01*
X0205450Y0013030D01*
X0199800Y0012490D02*
X0195072Y0012490D01*
X0196570Y0013988D02*
X0199800Y0013988D01*
X0200100Y0010991D02*
X0193573Y0010991D01*
X0173900Y0046955D02*
X0172327Y0046955D01*
X0218126Y0130872D02*
X0225751Y0130872D01*
X0225751Y0132370D02*
X0217420Y0132370D01*
X0215911Y0133869D02*
X0225751Y0133869D01*
X0225751Y0135368D02*
X0216655Y0135368D01*
X0217766Y0136866D02*
X0225751Y0136866D01*
X0225751Y0138365D02*
X0218267Y0138365D01*
X0218332Y0139863D02*
X0225751Y0139863D01*
X0225751Y0141362D02*
X0217967Y0141362D01*
X0217065Y0142860D02*
X0225751Y0142860D01*
X0225751Y0144359D02*
X0215686Y0144359D01*
X0217427Y0145857D02*
X0225751Y0145857D01*
X0225751Y0147356D02*
X0218202Y0147356D01*
X0218550Y0148854D02*
X0225751Y0148854D01*
X0225751Y0150353D02*
X0218550Y0150353D01*
X0217967Y0151851D02*
X0225751Y0151851D01*
X0225751Y0153350D02*
X0216861Y0153350D01*
X0218330Y0154848D02*
X0225751Y0154848D01*
X0225751Y0156347D02*
X0219829Y0156347D01*
X0219950Y0157845D02*
X0225751Y0157845D01*
X0225751Y0159344D02*
X0219950Y0159344D01*
X0219950Y0160842D02*
X0225751Y0160842D01*
X0225751Y0162341D02*
X0219950Y0162341D01*
X0219950Y0163839D02*
X0225751Y0163839D01*
X0225751Y0165338D02*
X0219950Y0165338D01*
X0219950Y0166836D02*
X0225751Y0166836D01*
X0225751Y0168335D02*
X0219950Y0168335D01*
X0219950Y0169833D02*
X0225751Y0169833D01*
X0225751Y0171332D02*
X0219950Y0171332D01*
X0219252Y0172830D02*
X0225751Y0172830D01*
X0225751Y0174329D02*
X0217753Y0174329D01*
X0216255Y0175827D02*
X0225751Y0175827D01*
X0159329Y0148854D02*
X0089692Y0148854D01*
X0089692Y0150353D02*
X0157831Y0150353D01*
X0157132Y0151851D02*
X0089692Y0151851D01*
X0051799Y0114388D02*
X0050044Y0114388D01*
X0047151Y0115887D02*
X0020000Y0115887D01*
X0020000Y0117385D02*
X0046389Y0117385D01*
X0046389Y0118884D02*
X0020000Y0118884D01*
X0030018Y0114388D02*
X0030486Y0114388D01*
X0031804Y0114388D02*
X0034082Y0114388D01*
X0030486Y0112890D02*
X0030018Y0112890D01*
X0030018Y0111391D02*
X0030486Y0111391D01*
X0030200Y0110000D02*
X0024500Y0104300D01*
X0024500Y0101900D01*
X0024346Y0101866D01*
X0025104Y0106896D02*
X0027198Y0106896D01*
X0026584Y0108394D02*
X0023606Y0108394D01*
X0038233Y0114388D02*
X0039988Y0114388D01*
X0044138Y0114388D02*
X0045893Y0114388D01*
D28*
X0071600Y0089900D03*
X0092600Y0081500D03*
X0109700Y0079100D03*
X0125300Y0066800D03*
X0137600Y0058400D03*
X0139700Y0056000D03*
X0131300Y0055100D03*
X0137900Y0041900D03*
X0142700Y0041900D03*
X0150800Y0055400D03*
X0154700Y0063200D03*
X0141500Y0066800D03*
X0144500Y0087800D03*
X0148700Y0089900D03*
X0150800Y0098300D03*
X0162200Y0096500D03*
X0169700Y0106700D03*
X0124400Y0093800D03*
X0108500Y0102800D03*
X0108500Y0111800D03*
X0173300Y0055400D03*
X0202100Y0031400D03*
X0199700Y0017300D03*
X0108800Y0043100D03*
X0087200Y0039200D03*
X0082100Y0041300D03*
D29*
X0077900Y0037100D01*
X0077654Y0036906D01*
X0071500Y0035300D02*
X0071500Y0029300D01*
X0071700Y0028300D01*
X0082000Y0018000D01*
X0093172Y0018000D01*
X0095000Y0016172D01*
X0095000Y0008000D01*
X0096700Y0005300D01*
X0125600Y0005300D01*
X0134900Y0014600D01*
X0135190Y0014650D01*
X0135500Y0014600D01*
X0143300Y0006800D01*
X0206000Y0006800D01*
X0219500Y0020300D01*
X0219500Y0062900D01*
X0212600Y0069800D01*
X0212600Y0074000D01*
X0212598Y0074000D01*
X0207500Y0080600D02*
X0201500Y0074600D01*
X0201500Y0074000D01*
X0201402Y0074000D01*
X0201500Y0074000D02*
X0201500Y0065900D01*
X0205700Y0061700D01*
X0205700Y0047000D01*
X0201200Y0042500D01*
X0201488Y0042000D01*
X0201200Y0042200D01*
X0191000Y0042200D01*
X0189598Y0042000D01*
X0189500Y0042200D01*
X0189500Y0057800D01*
X0189598Y0058000D01*
X0189200Y0057800D01*
X0183500Y0063500D01*
X0167000Y0063500D01*
X0166850Y0063650D01*
X0164600Y0061400D01*
X0163700Y0061400D01*
X0162200Y0062900D01*
X0161000Y0062900D01*
X0160837Y0062936D01*
X0157700Y0058400D02*
X0156500Y0058400D01*
X0156382Y0058482D01*
X0157700Y0058400D02*
X0173900Y0042200D01*
X0178400Y0042200D01*
X0178402Y0042000D01*
X0178700Y0041900D01*
X0178700Y0023900D01*
X0184400Y0018200D01*
X0185900Y0018200D01*
X0186050Y0018030D01*
X0190100Y0015800D02*
X0182000Y0015800D01*
X0177500Y0020300D01*
X0177500Y0025400D01*
X0162800Y0040100D01*
X0162800Y0041900D01*
X0162590Y0042000D01*
X0173300Y0055400D02*
X0176000Y0055400D01*
X0178400Y0057800D01*
X0178402Y0058000D01*
X0167000Y0063800D02*
X0167000Y0065600D01*
X0165500Y0067100D01*
X0165291Y0067391D01*
X0165200Y0067400D01*
X0164000Y0068600D01*
X0164000Y0071600D01*
X0146150Y0089450D01*
X0144500Y0087800D01*
X0146150Y0089450D02*
X0143900Y0091700D01*
X0143900Y0093500D01*
X0143618Y0093518D01*
X0145845Y0095745D02*
X0146000Y0095900D01*
X0151400Y0095900D01*
X0194600Y0139100D01*
X0202700Y0139100D01*
X0202900Y0139320D01*
X0212900Y0149320D02*
X0212900Y0149600D01*
X0212900Y0152600D01*
X0217700Y0157400D01*
X0217700Y0171200D01*
X0214700Y0174200D01*
X0211100Y0174200D01*
X0207500Y0170600D01*
X0207500Y0167300D01*
X0204200Y0164000D01*
X0200900Y0164000D01*
X0164600Y0127700D01*
X0164600Y0112100D01*
X0150800Y0098300D01*
X0154155Y0095745D02*
X0154400Y0095900D01*
X0155900Y0095900D01*
X0189200Y0129200D01*
X0202700Y0129200D01*
X0202900Y0129320D01*
X0207500Y0160700D02*
X0207500Y0080600D01*
X0212598Y0058000D02*
X0212300Y0057800D01*
X0208100Y0053600D01*
X0208100Y0040400D01*
X0200000Y0032300D01*
X0200000Y0025700D01*
X0190100Y0015800D01*
X0190400Y0011000D02*
X0166400Y0011000D01*
X0140300Y0037100D01*
X0140300Y0043100D01*
X0124550Y0058850D01*
X0132800Y0067100D01*
X0134600Y0067100D01*
X0134709Y0067391D01*
X0137000Y0065300D02*
X0136936Y0065163D01*
X0137000Y0065300D02*
X0140600Y0068900D01*
X0142400Y0068900D01*
X0143600Y0067700D01*
X0143600Y0066500D01*
X0150500Y0059600D01*
X0150500Y0055700D01*
X0150800Y0055400D01*
X0154100Y0056300D02*
X0154155Y0056255D01*
X0154100Y0056300D02*
X0154100Y0057800D01*
X0144800Y0067100D01*
X0144800Y0068300D01*
X0136400Y0076700D01*
X0122000Y0076700D01*
X0107000Y0091700D01*
X0079400Y0091700D01*
X0077900Y0090200D01*
X0077654Y0090055D01*
X0071600Y0089900D02*
X0024500Y0089900D01*
X0024346Y0090055D01*
X0020300Y0091100D02*
X0024200Y0095000D01*
X0024200Y0095900D01*
X0024346Y0095961D01*
X0020300Y0091100D02*
X0020300Y0083000D01*
X0022100Y0081200D01*
X0026600Y0081200D01*
X0071500Y0035300D01*
X0073700Y0029900D02*
X0083300Y0020300D01*
X0125900Y0020300D01*
X0130100Y0024500D01*
X0134900Y0024500D01*
X0135190Y0024650D01*
X0119110Y0042000D02*
X0119000Y0042200D01*
X0112700Y0042200D01*
X0101900Y0053000D01*
X0099800Y0053000D01*
X0096800Y0056000D01*
X0096800Y0082700D01*
X0092600Y0086900D01*
X0092402Y0087000D01*
X0092600Y0081500D02*
X0092600Y0073100D01*
X0092488Y0073000D01*
X0092300Y0072800D01*
X0092300Y0057800D01*
X0092252Y0057600D01*
X0092300Y0057500D01*
X0092300Y0042200D01*
X0092402Y0042000D01*
X0092600Y0041900D01*
X0107000Y0027500D01*
X0107000Y0025700D01*
X0107257Y0025570D01*
X0103598Y0042000D02*
X0103700Y0042200D01*
X0104600Y0043100D01*
X0108800Y0043100D01*
X0103448Y0057600D02*
X0103700Y0057800D01*
X0123500Y0057800D01*
X0124550Y0058850D01*
X0131300Y0055100D02*
X0139100Y0062900D01*
X0139163Y0062936D01*
X0139700Y0060500D02*
X0137600Y0058400D01*
X0139700Y0060500D02*
X0141200Y0060500D01*
X0141391Y0060709D01*
X0142100Y0058400D02*
X0139700Y0056000D01*
X0142100Y0058400D02*
X0143600Y0058400D01*
X0143618Y0058482D01*
X0146000Y0057800D02*
X0147200Y0059000D01*
X0147200Y0061100D01*
X0141500Y0066800D01*
X0146000Y0057800D02*
X0146000Y0056300D01*
X0145845Y0056255D01*
X0166850Y0063650D02*
X0167000Y0063800D01*
X0167518Y0082382D02*
X0167600Y0082400D01*
X0169100Y0082400D01*
X0170600Y0083900D01*
X0175400Y0083900D01*
X0201200Y0058100D01*
X0201402Y0058000D01*
X0191000Y0042200D02*
X0191000Y0026600D01*
X0187700Y0023300D01*
X0186200Y0023300D01*
X0186050Y0023030D01*
X0190400Y0011000D02*
X0202400Y0023000D01*
X0205400Y0023000D01*
X0205450Y0023030D01*
X0205450Y0028030D02*
X0205400Y0028100D01*
X0202100Y0031400D01*
X0191000Y0042200D02*
X0189800Y0042200D01*
X0189598Y0042000D01*
X0200300Y0017900D02*
X0199700Y0017300D01*
X0200300Y0017900D02*
X0205400Y0017900D01*
X0205450Y0018030D01*
X0160837Y0089064D02*
X0161000Y0089300D01*
X0161000Y0090800D01*
X0162200Y0092000D01*
X0162200Y0096500D01*
X0156500Y0093800D02*
X0156382Y0093518D01*
X0156500Y0093800D02*
X0169400Y0106700D01*
X0169700Y0106700D01*
X0158609Y0091291D02*
X0158600Y0091100D01*
X0156800Y0091100D01*
X0155600Y0089900D01*
X0148700Y0089900D01*
X0130512Y0100000D02*
X0130400Y0100100D01*
X0118700Y0111800D01*
X0108500Y0111800D01*
X0103700Y0111800D01*
X0103512Y0112000D01*
X0103400Y0112100D01*
X0082100Y0133400D01*
X0066200Y0133400D01*
X0066055Y0133583D01*
X0077654Y0101866D02*
X0077600Y0101600D01*
X0077600Y0101000D01*
X0073700Y0097100D01*
X0073700Y0029900D01*
X0077654Y0031000D02*
X0077900Y0031100D01*
X0079700Y0031100D01*
X0087200Y0038600D01*
X0087200Y0039200D01*
X0125300Y0066800D02*
X0105200Y0086900D01*
X0103700Y0086900D01*
X0103598Y0087000D01*
X0098900Y0095300D02*
X0103400Y0099800D01*
X0103512Y0100000D01*
X0103700Y0100100D01*
X0105800Y0100100D01*
X0108500Y0102800D01*
X0098900Y0095300D02*
X0088700Y0095300D01*
X0088100Y0095900D01*
X0077900Y0095900D01*
X0077654Y0095961D01*
X0207500Y0160700D02*
X0212600Y0165800D01*
X0212600Y0169100D01*
X0212900Y0169320D01*
M02*
