G75*
%MOIN*%
%OFA0B0*%
%FSLAX25Y25*%
%IPPOS*%
%LPD*%
%AMOC8*
5,1,8,0,0,1.08239X$1,22.5*
%
%ADD10C,0.00000*%
%ADD11C,0.00300*%
%ADD12C,0.00500*%
%ADD13C,0.00400*%
%ADD14C,0.00800*%
%ADD15C,0.00600*%
%ADD16R,0.06000X0.06000*%
%ADD17C,0.01000*%
%ADD18C,0.00100*%
%ADD19R,0.01673X0.01280*%
%ADD20R,0.01378X0.01378*%
%ADD21C,0.01600*%
D10*
X0018000Y0004000D02*
X0018000Y0207961D01*
X0227701Y0207961D01*
X0227701Y0004000D01*
X0018000Y0004000D01*
X0081063Y0011000D02*
X0081065Y0011125D01*
X0081071Y0011250D01*
X0081081Y0011374D01*
X0081095Y0011498D01*
X0081112Y0011622D01*
X0081134Y0011745D01*
X0081160Y0011867D01*
X0081189Y0011989D01*
X0081222Y0012109D01*
X0081260Y0012228D01*
X0081300Y0012347D01*
X0081345Y0012463D01*
X0081393Y0012578D01*
X0081445Y0012692D01*
X0081501Y0012804D01*
X0081560Y0012914D01*
X0081622Y0013022D01*
X0081688Y0013129D01*
X0081757Y0013233D01*
X0081830Y0013334D01*
X0081905Y0013434D01*
X0081984Y0013531D01*
X0082066Y0013625D01*
X0082151Y0013717D01*
X0082238Y0013806D01*
X0082329Y0013892D01*
X0082422Y0013975D01*
X0082518Y0014056D01*
X0082616Y0014133D01*
X0082716Y0014207D01*
X0082819Y0014278D01*
X0082924Y0014345D01*
X0083032Y0014410D01*
X0083141Y0014470D01*
X0083252Y0014528D01*
X0083365Y0014581D01*
X0083479Y0014631D01*
X0083595Y0014678D01*
X0083712Y0014720D01*
X0083831Y0014759D01*
X0083951Y0014795D01*
X0084072Y0014826D01*
X0084194Y0014854D01*
X0084316Y0014877D01*
X0084440Y0014897D01*
X0084564Y0014913D01*
X0084688Y0014925D01*
X0084813Y0014933D01*
X0084938Y0014937D01*
X0085062Y0014937D01*
X0085187Y0014933D01*
X0085312Y0014925D01*
X0085436Y0014913D01*
X0085560Y0014897D01*
X0085684Y0014877D01*
X0085806Y0014854D01*
X0085928Y0014826D01*
X0086049Y0014795D01*
X0086169Y0014759D01*
X0086288Y0014720D01*
X0086405Y0014678D01*
X0086521Y0014631D01*
X0086635Y0014581D01*
X0086748Y0014528D01*
X0086859Y0014470D01*
X0086969Y0014410D01*
X0087076Y0014345D01*
X0087181Y0014278D01*
X0087284Y0014207D01*
X0087384Y0014133D01*
X0087482Y0014056D01*
X0087578Y0013975D01*
X0087671Y0013892D01*
X0087762Y0013806D01*
X0087849Y0013717D01*
X0087934Y0013625D01*
X0088016Y0013531D01*
X0088095Y0013434D01*
X0088170Y0013334D01*
X0088243Y0013233D01*
X0088312Y0013129D01*
X0088378Y0013022D01*
X0088440Y0012914D01*
X0088499Y0012804D01*
X0088555Y0012692D01*
X0088607Y0012578D01*
X0088655Y0012463D01*
X0088700Y0012347D01*
X0088740Y0012228D01*
X0088778Y0012109D01*
X0088811Y0011989D01*
X0088840Y0011867D01*
X0088866Y0011745D01*
X0088888Y0011622D01*
X0088905Y0011498D01*
X0088919Y0011374D01*
X0088929Y0011250D01*
X0088935Y0011125D01*
X0088937Y0011000D01*
X0088935Y0010875D01*
X0088929Y0010750D01*
X0088919Y0010626D01*
X0088905Y0010502D01*
X0088888Y0010378D01*
X0088866Y0010255D01*
X0088840Y0010133D01*
X0088811Y0010011D01*
X0088778Y0009891D01*
X0088740Y0009772D01*
X0088700Y0009653D01*
X0088655Y0009537D01*
X0088607Y0009422D01*
X0088555Y0009308D01*
X0088499Y0009196D01*
X0088440Y0009086D01*
X0088378Y0008978D01*
X0088312Y0008871D01*
X0088243Y0008767D01*
X0088170Y0008666D01*
X0088095Y0008566D01*
X0088016Y0008469D01*
X0087934Y0008375D01*
X0087849Y0008283D01*
X0087762Y0008194D01*
X0087671Y0008108D01*
X0087578Y0008025D01*
X0087482Y0007944D01*
X0087384Y0007867D01*
X0087284Y0007793D01*
X0087181Y0007722D01*
X0087076Y0007655D01*
X0086968Y0007590D01*
X0086859Y0007530D01*
X0086748Y0007472D01*
X0086635Y0007419D01*
X0086521Y0007369D01*
X0086405Y0007322D01*
X0086288Y0007280D01*
X0086169Y0007241D01*
X0086049Y0007205D01*
X0085928Y0007174D01*
X0085806Y0007146D01*
X0085684Y0007123D01*
X0085560Y0007103D01*
X0085436Y0007087D01*
X0085312Y0007075D01*
X0085187Y0007067D01*
X0085062Y0007063D01*
X0084938Y0007063D01*
X0084813Y0007067D01*
X0084688Y0007075D01*
X0084564Y0007087D01*
X0084440Y0007103D01*
X0084316Y0007123D01*
X0084194Y0007146D01*
X0084072Y0007174D01*
X0083951Y0007205D01*
X0083831Y0007241D01*
X0083712Y0007280D01*
X0083595Y0007322D01*
X0083479Y0007369D01*
X0083365Y0007419D01*
X0083252Y0007472D01*
X0083141Y0007530D01*
X0083031Y0007590D01*
X0082924Y0007655D01*
X0082819Y0007722D01*
X0082716Y0007793D01*
X0082616Y0007867D01*
X0082518Y0007944D01*
X0082422Y0008025D01*
X0082329Y0008108D01*
X0082238Y0008194D01*
X0082151Y0008283D01*
X0082066Y0008375D01*
X0081984Y0008469D01*
X0081905Y0008566D01*
X0081830Y0008666D01*
X0081757Y0008767D01*
X0081688Y0008871D01*
X0081622Y0008978D01*
X0081560Y0009086D01*
X0081501Y0009196D01*
X0081445Y0009308D01*
X0081393Y0009422D01*
X0081345Y0009537D01*
X0081300Y0009653D01*
X0081260Y0009772D01*
X0081222Y0009891D01*
X0081189Y0010011D01*
X0081160Y0010133D01*
X0081134Y0010255D01*
X0081112Y0010378D01*
X0081095Y0010502D01*
X0081081Y0010626D01*
X0081071Y0010750D01*
X0081065Y0010875D01*
X0081063Y0011000D01*
X0212063Y0011000D02*
X0212065Y0011125D01*
X0212071Y0011250D01*
X0212081Y0011374D01*
X0212095Y0011498D01*
X0212112Y0011622D01*
X0212134Y0011745D01*
X0212160Y0011867D01*
X0212189Y0011989D01*
X0212222Y0012109D01*
X0212260Y0012228D01*
X0212300Y0012347D01*
X0212345Y0012463D01*
X0212393Y0012578D01*
X0212445Y0012692D01*
X0212501Y0012804D01*
X0212560Y0012914D01*
X0212622Y0013022D01*
X0212688Y0013129D01*
X0212757Y0013233D01*
X0212830Y0013334D01*
X0212905Y0013434D01*
X0212984Y0013531D01*
X0213066Y0013625D01*
X0213151Y0013717D01*
X0213238Y0013806D01*
X0213329Y0013892D01*
X0213422Y0013975D01*
X0213518Y0014056D01*
X0213616Y0014133D01*
X0213716Y0014207D01*
X0213819Y0014278D01*
X0213924Y0014345D01*
X0214032Y0014410D01*
X0214141Y0014470D01*
X0214252Y0014528D01*
X0214365Y0014581D01*
X0214479Y0014631D01*
X0214595Y0014678D01*
X0214712Y0014720D01*
X0214831Y0014759D01*
X0214951Y0014795D01*
X0215072Y0014826D01*
X0215194Y0014854D01*
X0215316Y0014877D01*
X0215440Y0014897D01*
X0215564Y0014913D01*
X0215688Y0014925D01*
X0215813Y0014933D01*
X0215938Y0014937D01*
X0216062Y0014937D01*
X0216187Y0014933D01*
X0216312Y0014925D01*
X0216436Y0014913D01*
X0216560Y0014897D01*
X0216684Y0014877D01*
X0216806Y0014854D01*
X0216928Y0014826D01*
X0217049Y0014795D01*
X0217169Y0014759D01*
X0217288Y0014720D01*
X0217405Y0014678D01*
X0217521Y0014631D01*
X0217635Y0014581D01*
X0217748Y0014528D01*
X0217859Y0014470D01*
X0217969Y0014410D01*
X0218076Y0014345D01*
X0218181Y0014278D01*
X0218284Y0014207D01*
X0218384Y0014133D01*
X0218482Y0014056D01*
X0218578Y0013975D01*
X0218671Y0013892D01*
X0218762Y0013806D01*
X0218849Y0013717D01*
X0218934Y0013625D01*
X0219016Y0013531D01*
X0219095Y0013434D01*
X0219170Y0013334D01*
X0219243Y0013233D01*
X0219312Y0013129D01*
X0219378Y0013022D01*
X0219440Y0012914D01*
X0219499Y0012804D01*
X0219555Y0012692D01*
X0219607Y0012578D01*
X0219655Y0012463D01*
X0219700Y0012347D01*
X0219740Y0012228D01*
X0219778Y0012109D01*
X0219811Y0011989D01*
X0219840Y0011867D01*
X0219866Y0011745D01*
X0219888Y0011622D01*
X0219905Y0011498D01*
X0219919Y0011374D01*
X0219929Y0011250D01*
X0219935Y0011125D01*
X0219937Y0011000D01*
X0219935Y0010875D01*
X0219929Y0010750D01*
X0219919Y0010626D01*
X0219905Y0010502D01*
X0219888Y0010378D01*
X0219866Y0010255D01*
X0219840Y0010133D01*
X0219811Y0010011D01*
X0219778Y0009891D01*
X0219740Y0009772D01*
X0219700Y0009653D01*
X0219655Y0009537D01*
X0219607Y0009422D01*
X0219555Y0009308D01*
X0219499Y0009196D01*
X0219440Y0009086D01*
X0219378Y0008978D01*
X0219312Y0008871D01*
X0219243Y0008767D01*
X0219170Y0008666D01*
X0219095Y0008566D01*
X0219016Y0008469D01*
X0218934Y0008375D01*
X0218849Y0008283D01*
X0218762Y0008194D01*
X0218671Y0008108D01*
X0218578Y0008025D01*
X0218482Y0007944D01*
X0218384Y0007867D01*
X0218284Y0007793D01*
X0218181Y0007722D01*
X0218076Y0007655D01*
X0217968Y0007590D01*
X0217859Y0007530D01*
X0217748Y0007472D01*
X0217635Y0007419D01*
X0217521Y0007369D01*
X0217405Y0007322D01*
X0217288Y0007280D01*
X0217169Y0007241D01*
X0217049Y0007205D01*
X0216928Y0007174D01*
X0216806Y0007146D01*
X0216684Y0007123D01*
X0216560Y0007103D01*
X0216436Y0007087D01*
X0216312Y0007075D01*
X0216187Y0007067D01*
X0216062Y0007063D01*
X0215938Y0007063D01*
X0215813Y0007067D01*
X0215688Y0007075D01*
X0215564Y0007087D01*
X0215440Y0007103D01*
X0215316Y0007123D01*
X0215194Y0007146D01*
X0215072Y0007174D01*
X0214951Y0007205D01*
X0214831Y0007241D01*
X0214712Y0007280D01*
X0214595Y0007322D01*
X0214479Y0007369D01*
X0214365Y0007419D01*
X0214252Y0007472D01*
X0214141Y0007530D01*
X0214031Y0007590D01*
X0213924Y0007655D01*
X0213819Y0007722D01*
X0213716Y0007793D01*
X0213616Y0007867D01*
X0213518Y0007944D01*
X0213422Y0008025D01*
X0213329Y0008108D01*
X0213238Y0008194D01*
X0213151Y0008283D01*
X0213066Y0008375D01*
X0212984Y0008469D01*
X0212905Y0008566D01*
X0212830Y0008666D01*
X0212757Y0008767D01*
X0212688Y0008871D01*
X0212622Y0008978D01*
X0212560Y0009086D01*
X0212501Y0009196D01*
X0212445Y0009308D01*
X0212393Y0009422D01*
X0212345Y0009537D01*
X0212300Y0009653D01*
X0212260Y0009772D01*
X0212222Y0009891D01*
X0212189Y0010011D01*
X0212160Y0010133D01*
X0212134Y0010255D01*
X0212112Y0010378D01*
X0212095Y0010502D01*
X0212081Y0010626D01*
X0212071Y0010750D01*
X0212065Y0010875D01*
X0212063Y0011000D01*
X0212063Y0199000D02*
X0212065Y0199125D01*
X0212071Y0199250D01*
X0212081Y0199374D01*
X0212095Y0199498D01*
X0212112Y0199622D01*
X0212134Y0199745D01*
X0212160Y0199867D01*
X0212189Y0199989D01*
X0212222Y0200109D01*
X0212260Y0200228D01*
X0212300Y0200347D01*
X0212345Y0200463D01*
X0212393Y0200578D01*
X0212445Y0200692D01*
X0212501Y0200804D01*
X0212560Y0200914D01*
X0212622Y0201022D01*
X0212688Y0201129D01*
X0212757Y0201233D01*
X0212830Y0201334D01*
X0212905Y0201434D01*
X0212984Y0201531D01*
X0213066Y0201625D01*
X0213151Y0201717D01*
X0213238Y0201806D01*
X0213329Y0201892D01*
X0213422Y0201975D01*
X0213518Y0202056D01*
X0213616Y0202133D01*
X0213716Y0202207D01*
X0213819Y0202278D01*
X0213924Y0202345D01*
X0214032Y0202410D01*
X0214141Y0202470D01*
X0214252Y0202528D01*
X0214365Y0202581D01*
X0214479Y0202631D01*
X0214595Y0202678D01*
X0214712Y0202720D01*
X0214831Y0202759D01*
X0214951Y0202795D01*
X0215072Y0202826D01*
X0215194Y0202854D01*
X0215316Y0202877D01*
X0215440Y0202897D01*
X0215564Y0202913D01*
X0215688Y0202925D01*
X0215813Y0202933D01*
X0215938Y0202937D01*
X0216062Y0202937D01*
X0216187Y0202933D01*
X0216312Y0202925D01*
X0216436Y0202913D01*
X0216560Y0202897D01*
X0216684Y0202877D01*
X0216806Y0202854D01*
X0216928Y0202826D01*
X0217049Y0202795D01*
X0217169Y0202759D01*
X0217288Y0202720D01*
X0217405Y0202678D01*
X0217521Y0202631D01*
X0217635Y0202581D01*
X0217748Y0202528D01*
X0217859Y0202470D01*
X0217969Y0202410D01*
X0218076Y0202345D01*
X0218181Y0202278D01*
X0218284Y0202207D01*
X0218384Y0202133D01*
X0218482Y0202056D01*
X0218578Y0201975D01*
X0218671Y0201892D01*
X0218762Y0201806D01*
X0218849Y0201717D01*
X0218934Y0201625D01*
X0219016Y0201531D01*
X0219095Y0201434D01*
X0219170Y0201334D01*
X0219243Y0201233D01*
X0219312Y0201129D01*
X0219378Y0201022D01*
X0219440Y0200914D01*
X0219499Y0200804D01*
X0219555Y0200692D01*
X0219607Y0200578D01*
X0219655Y0200463D01*
X0219700Y0200347D01*
X0219740Y0200228D01*
X0219778Y0200109D01*
X0219811Y0199989D01*
X0219840Y0199867D01*
X0219866Y0199745D01*
X0219888Y0199622D01*
X0219905Y0199498D01*
X0219919Y0199374D01*
X0219929Y0199250D01*
X0219935Y0199125D01*
X0219937Y0199000D01*
X0219935Y0198875D01*
X0219929Y0198750D01*
X0219919Y0198626D01*
X0219905Y0198502D01*
X0219888Y0198378D01*
X0219866Y0198255D01*
X0219840Y0198133D01*
X0219811Y0198011D01*
X0219778Y0197891D01*
X0219740Y0197772D01*
X0219700Y0197653D01*
X0219655Y0197537D01*
X0219607Y0197422D01*
X0219555Y0197308D01*
X0219499Y0197196D01*
X0219440Y0197086D01*
X0219378Y0196978D01*
X0219312Y0196871D01*
X0219243Y0196767D01*
X0219170Y0196666D01*
X0219095Y0196566D01*
X0219016Y0196469D01*
X0218934Y0196375D01*
X0218849Y0196283D01*
X0218762Y0196194D01*
X0218671Y0196108D01*
X0218578Y0196025D01*
X0218482Y0195944D01*
X0218384Y0195867D01*
X0218284Y0195793D01*
X0218181Y0195722D01*
X0218076Y0195655D01*
X0217968Y0195590D01*
X0217859Y0195530D01*
X0217748Y0195472D01*
X0217635Y0195419D01*
X0217521Y0195369D01*
X0217405Y0195322D01*
X0217288Y0195280D01*
X0217169Y0195241D01*
X0217049Y0195205D01*
X0216928Y0195174D01*
X0216806Y0195146D01*
X0216684Y0195123D01*
X0216560Y0195103D01*
X0216436Y0195087D01*
X0216312Y0195075D01*
X0216187Y0195067D01*
X0216062Y0195063D01*
X0215938Y0195063D01*
X0215813Y0195067D01*
X0215688Y0195075D01*
X0215564Y0195087D01*
X0215440Y0195103D01*
X0215316Y0195123D01*
X0215194Y0195146D01*
X0215072Y0195174D01*
X0214951Y0195205D01*
X0214831Y0195241D01*
X0214712Y0195280D01*
X0214595Y0195322D01*
X0214479Y0195369D01*
X0214365Y0195419D01*
X0214252Y0195472D01*
X0214141Y0195530D01*
X0214031Y0195590D01*
X0213924Y0195655D01*
X0213819Y0195722D01*
X0213716Y0195793D01*
X0213616Y0195867D01*
X0213518Y0195944D01*
X0213422Y0196025D01*
X0213329Y0196108D01*
X0213238Y0196194D01*
X0213151Y0196283D01*
X0213066Y0196375D01*
X0212984Y0196469D01*
X0212905Y0196566D01*
X0212830Y0196666D01*
X0212757Y0196767D01*
X0212688Y0196871D01*
X0212622Y0196978D01*
X0212560Y0197086D01*
X0212501Y0197196D01*
X0212445Y0197308D01*
X0212393Y0197422D01*
X0212345Y0197537D01*
X0212300Y0197653D01*
X0212260Y0197772D01*
X0212222Y0197891D01*
X0212189Y0198011D01*
X0212160Y0198133D01*
X0212134Y0198255D01*
X0212112Y0198378D01*
X0212095Y0198502D01*
X0212081Y0198626D01*
X0212071Y0198750D01*
X0212065Y0198875D01*
X0212063Y0199000D01*
X0068063Y0199000D02*
X0068065Y0199125D01*
X0068071Y0199250D01*
X0068081Y0199374D01*
X0068095Y0199498D01*
X0068112Y0199622D01*
X0068134Y0199745D01*
X0068160Y0199867D01*
X0068189Y0199989D01*
X0068222Y0200109D01*
X0068260Y0200228D01*
X0068300Y0200347D01*
X0068345Y0200463D01*
X0068393Y0200578D01*
X0068445Y0200692D01*
X0068501Y0200804D01*
X0068560Y0200914D01*
X0068622Y0201022D01*
X0068688Y0201129D01*
X0068757Y0201233D01*
X0068830Y0201334D01*
X0068905Y0201434D01*
X0068984Y0201531D01*
X0069066Y0201625D01*
X0069151Y0201717D01*
X0069238Y0201806D01*
X0069329Y0201892D01*
X0069422Y0201975D01*
X0069518Y0202056D01*
X0069616Y0202133D01*
X0069716Y0202207D01*
X0069819Y0202278D01*
X0069924Y0202345D01*
X0070032Y0202410D01*
X0070141Y0202470D01*
X0070252Y0202528D01*
X0070365Y0202581D01*
X0070479Y0202631D01*
X0070595Y0202678D01*
X0070712Y0202720D01*
X0070831Y0202759D01*
X0070951Y0202795D01*
X0071072Y0202826D01*
X0071194Y0202854D01*
X0071316Y0202877D01*
X0071440Y0202897D01*
X0071564Y0202913D01*
X0071688Y0202925D01*
X0071813Y0202933D01*
X0071938Y0202937D01*
X0072062Y0202937D01*
X0072187Y0202933D01*
X0072312Y0202925D01*
X0072436Y0202913D01*
X0072560Y0202897D01*
X0072684Y0202877D01*
X0072806Y0202854D01*
X0072928Y0202826D01*
X0073049Y0202795D01*
X0073169Y0202759D01*
X0073288Y0202720D01*
X0073405Y0202678D01*
X0073521Y0202631D01*
X0073635Y0202581D01*
X0073748Y0202528D01*
X0073859Y0202470D01*
X0073969Y0202410D01*
X0074076Y0202345D01*
X0074181Y0202278D01*
X0074284Y0202207D01*
X0074384Y0202133D01*
X0074482Y0202056D01*
X0074578Y0201975D01*
X0074671Y0201892D01*
X0074762Y0201806D01*
X0074849Y0201717D01*
X0074934Y0201625D01*
X0075016Y0201531D01*
X0075095Y0201434D01*
X0075170Y0201334D01*
X0075243Y0201233D01*
X0075312Y0201129D01*
X0075378Y0201022D01*
X0075440Y0200914D01*
X0075499Y0200804D01*
X0075555Y0200692D01*
X0075607Y0200578D01*
X0075655Y0200463D01*
X0075700Y0200347D01*
X0075740Y0200228D01*
X0075778Y0200109D01*
X0075811Y0199989D01*
X0075840Y0199867D01*
X0075866Y0199745D01*
X0075888Y0199622D01*
X0075905Y0199498D01*
X0075919Y0199374D01*
X0075929Y0199250D01*
X0075935Y0199125D01*
X0075937Y0199000D01*
X0075935Y0198875D01*
X0075929Y0198750D01*
X0075919Y0198626D01*
X0075905Y0198502D01*
X0075888Y0198378D01*
X0075866Y0198255D01*
X0075840Y0198133D01*
X0075811Y0198011D01*
X0075778Y0197891D01*
X0075740Y0197772D01*
X0075700Y0197653D01*
X0075655Y0197537D01*
X0075607Y0197422D01*
X0075555Y0197308D01*
X0075499Y0197196D01*
X0075440Y0197086D01*
X0075378Y0196978D01*
X0075312Y0196871D01*
X0075243Y0196767D01*
X0075170Y0196666D01*
X0075095Y0196566D01*
X0075016Y0196469D01*
X0074934Y0196375D01*
X0074849Y0196283D01*
X0074762Y0196194D01*
X0074671Y0196108D01*
X0074578Y0196025D01*
X0074482Y0195944D01*
X0074384Y0195867D01*
X0074284Y0195793D01*
X0074181Y0195722D01*
X0074076Y0195655D01*
X0073968Y0195590D01*
X0073859Y0195530D01*
X0073748Y0195472D01*
X0073635Y0195419D01*
X0073521Y0195369D01*
X0073405Y0195322D01*
X0073288Y0195280D01*
X0073169Y0195241D01*
X0073049Y0195205D01*
X0072928Y0195174D01*
X0072806Y0195146D01*
X0072684Y0195123D01*
X0072560Y0195103D01*
X0072436Y0195087D01*
X0072312Y0195075D01*
X0072187Y0195067D01*
X0072062Y0195063D01*
X0071938Y0195063D01*
X0071813Y0195067D01*
X0071688Y0195075D01*
X0071564Y0195087D01*
X0071440Y0195103D01*
X0071316Y0195123D01*
X0071194Y0195146D01*
X0071072Y0195174D01*
X0070951Y0195205D01*
X0070831Y0195241D01*
X0070712Y0195280D01*
X0070595Y0195322D01*
X0070479Y0195369D01*
X0070365Y0195419D01*
X0070252Y0195472D01*
X0070141Y0195530D01*
X0070031Y0195590D01*
X0069924Y0195655D01*
X0069819Y0195722D01*
X0069716Y0195793D01*
X0069616Y0195867D01*
X0069518Y0195944D01*
X0069422Y0196025D01*
X0069329Y0196108D01*
X0069238Y0196194D01*
X0069151Y0196283D01*
X0069066Y0196375D01*
X0068984Y0196469D01*
X0068905Y0196566D01*
X0068830Y0196666D01*
X0068757Y0196767D01*
X0068688Y0196871D01*
X0068622Y0196978D01*
X0068560Y0197086D01*
X0068501Y0197196D01*
X0068445Y0197308D01*
X0068393Y0197422D01*
X0068345Y0197537D01*
X0068300Y0197653D01*
X0068260Y0197772D01*
X0068222Y0197891D01*
X0068189Y0198011D01*
X0068160Y0198133D01*
X0068134Y0198255D01*
X0068112Y0198378D01*
X0068095Y0198502D01*
X0068081Y0198626D01*
X0068071Y0198750D01*
X0068065Y0198875D01*
X0068063Y0199000D01*
D11*
X0137703Y0062804D02*
X0135993Y0061094D01*
X0135993Y0060410D01*
X0136677Y0059726D01*
X0137361Y0059726D01*
X0139071Y0061436D01*
X0139444Y0060378D02*
X0140129Y0060378D01*
X0140813Y0059694D01*
X0140813Y0059010D01*
X0140471Y0058668D01*
X0139786Y0058668D01*
X0139786Y0057984D01*
X0139444Y0057642D01*
X0138760Y0057642D01*
X0138076Y0058326D01*
X0138076Y0059010D01*
X0139444Y0059010D02*
X0139786Y0058668D01*
X0176150Y0036170D02*
X0179286Y0033034D01*
X0179286Y0034602D02*
X0176150Y0034602D01*
X0176150Y0033034D02*
X0179286Y0036170D01*
X0177718Y0036170D02*
X0177718Y0033034D01*
X0176250Y0025354D02*
X0176250Y0021434D01*
X0177034Y0020650D01*
X0178602Y0020650D01*
X0179386Y0021434D01*
X0179386Y0025354D01*
X0180854Y0024570D02*
X0181638Y0025354D01*
X0183206Y0025354D01*
X0183990Y0024570D01*
X0183990Y0023786D01*
X0180854Y0020650D01*
X0183990Y0020650D01*
X0179724Y0010853D02*
X0179724Y0007150D01*
X0182193Y0007150D01*
X0183407Y0007767D02*
X0184024Y0008384D01*
X0185876Y0008384D01*
X0185876Y0009002D02*
X0185876Y0007150D01*
X0184024Y0007150D01*
X0183407Y0007767D01*
X0184024Y0009619D02*
X0185259Y0009619D01*
X0185876Y0009002D01*
X0187090Y0009619D02*
X0187708Y0009619D01*
X0188325Y0009002D01*
X0188942Y0009619D01*
X0189559Y0009002D01*
X0189559Y0007150D01*
X0190774Y0007150D02*
X0192625Y0007150D01*
X0193242Y0007767D01*
X0193242Y0009002D01*
X0192625Y0009619D01*
X0190774Y0009619D01*
X0190774Y0005916D01*
X0188325Y0007150D02*
X0188325Y0009002D01*
X0187090Y0009619D02*
X0187090Y0007150D01*
X0178503Y0007150D02*
X0177886Y0007767D01*
X0177886Y0010236D01*
X0177269Y0009619D02*
X0178503Y0009619D01*
X0176051Y0009619D02*
X0175434Y0009619D01*
X0174199Y0008384D01*
X0172985Y0008384D02*
X0171133Y0008384D01*
X0170516Y0007767D01*
X0171133Y0007150D01*
X0172985Y0007150D01*
X0172985Y0009002D01*
X0172368Y0009619D01*
X0171133Y0009619D01*
X0169302Y0009002D02*
X0169302Y0007150D01*
X0168068Y0007150D02*
X0168068Y0009002D01*
X0168685Y0009619D01*
X0169302Y0009002D01*
X0168068Y0009002D02*
X0167450Y0009619D01*
X0166833Y0009619D01*
X0166833Y0007150D01*
X0165619Y0007767D02*
X0165002Y0007150D01*
X0163767Y0007150D01*
X0163150Y0007767D01*
X0163767Y0009002D02*
X0165002Y0009002D01*
X0165619Y0008384D01*
X0165619Y0007767D01*
X0163767Y0009002D02*
X0163150Y0009619D01*
X0163150Y0010236D01*
X0163767Y0010853D01*
X0165002Y0010853D01*
X0165619Y0010236D01*
X0174199Y0009619D02*
X0174199Y0007150D01*
X0198140Y0009619D02*
X0199374Y0007150D01*
X0200609Y0009619D01*
X0201823Y0009619D02*
X0203057Y0010853D01*
X0203057Y0007150D01*
X0201823Y0007150D02*
X0204292Y0007150D01*
X0205506Y0007150D02*
X0206123Y0007150D01*
X0206123Y0007767D01*
X0205506Y0007767D01*
X0205506Y0007150D01*
X0207348Y0007767D02*
X0207348Y0010236D01*
X0207965Y0010853D01*
X0209199Y0010853D01*
X0209816Y0010236D01*
X0207348Y0007767D01*
X0207965Y0007150D01*
X0209199Y0007150D01*
X0209816Y0007767D01*
X0209816Y0010236D01*
X0146850Y0023967D02*
X0146850Y0026436D01*
X0146850Y0025201D02*
X0143147Y0025201D01*
X0144381Y0023967D01*
D12*
X0143356Y0036250D02*
X0140354Y0036250D01*
X0141855Y0036250D02*
X0141855Y0040754D01*
X0140354Y0039253D01*
X0138753Y0040003D02*
X0138002Y0040754D01*
X0136501Y0040754D01*
X0135750Y0040003D01*
X0135750Y0039253D01*
X0136501Y0038502D01*
X0138002Y0038502D01*
X0138753Y0037751D01*
X0138753Y0037001D01*
X0138002Y0036250D01*
X0136501Y0036250D01*
X0135750Y0037001D01*
X0076591Y0005047D02*
X0025409Y0005047D01*
X0025409Y0110953D01*
X0076591Y0110953D01*
X0076591Y0005047D01*
X0042950Y0122649D02*
X0038446Y0122649D01*
X0042950Y0122649D02*
X0042950Y0125652D01*
X0042950Y0127253D02*
X0042950Y0130256D01*
X0042950Y0131857D02*
X0042950Y0134109D01*
X0042199Y0134860D01*
X0039197Y0134860D01*
X0038446Y0134109D01*
X0038446Y0131857D01*
X0042950Y0131857D01*
X0040698Y0128754D02*
X0040698Y0127253D01*
X0038446Y0127253D02*
X0042950Y0127253D01*
X0038446Y0127253D02*
X0038446Y0130256D01*
X0043701Y0136461D02*
X0043701Y0139464D01*
X0044598Y0140504D02*
X0069402Y0140504D01*
X0069402Y0153496D01*
X0044598Y0153496D01*
X0044598Y0140504D01*
X0042950Y0141816D02*
X0042199Y0141065D01*
X0042950Y0141816D02*
X0042950Y0143317D01*
X0042199Y0144067D01*
X0041449Y0144067D01*
X0040698Y0143317D01*
X0040698Y0141816D01*
X0039947Y0141065D01*
X0039197Y0141065D01*
X0038446Y0141816D01*
X0038446Y0143317D01*
X0039197Y0144067D01*
X0038446Y0145669D02*
X0038446Y0148671D01*
X0038446Y0147170D02*
X0042950Y0147170D01*
X0042950Y0150273D02*
X0038446Y0150273D01*
X0038446Y0152525D01*
X0039197Y0153275D01*
X0040698Y0153275D01*
X0041449Y0152525D01*
X0041449Y0150273D01*
X0041449Y0151774D02*
X0042950Y0153275D01*
X0042950Y0154877D02*
X0042950Y0156378D01*
X0042950Y0155627D02*
X0038446Y0155627D01*
X0038446Y0154877D02*
X0038446Y0156378D01*
X0038446Y0157946D02*
X0038446Y0160198D01*
X0039197Y0160949D01*
X0040698Y0160949D01*
X0041449Y0160198D01*
X0041449Y0157946D01*
X0042950Y0157946D02*
X0038446Y0157946D01*
X0015333Y0190030D02*
X0015650Y0190347D01*
X0015650Y0190664D01*
X0015333Y0190981D01*
X0013748Y0190981D01*
X0013748Y0190664D02*
X0013748Y0191298D01*
X0014382Y0192240D02*
X0013748Y0192874D01*
X0015650Y0192874D01*
X0015650Y0192240D02*
X0015650Y0193508D01*
X0080976Y0172992D02*
X0099087Y0172992D01*
X0080976Y0172795D02*
X0080976Y0147205D01*
X0080976Y0147008D02*
X0099087Y0147008D01*
X0112600Y0149820D02*
X0113351Y0149069D01*
X0116354Y0149069D01*
X0117104Y0149820D01*
X0117104Y0151321D01*
X0116354Y0152071D01*
X0114852Y0152071D01*
X0114852Y0150570D01*
X0113351Y0152071D02*
X0112600Y0151321D01*
X0112600Y0149820D01*
X0114102Y0153673D02*
X0112600Y0155174D01*
X0117104Y0155174D01*
X0117104Y0153673D02*
X0117104Y0156675D01*
X0128545Y0159726D02*
X0133049Y0159726D01*
X0133049Y0162728D01*
X0133049Y0164329D02*
X0133049Y0166581D01*
X0132299Y0167332D01*
X0131548Y0167332D01*
X0130797Y0166581D01*
X0130797Y0164329D01*
X0128545Y0164329D02*
X0128545Y0166581D01*
X0129296Y0167332D01*
X0130047Y0167332D01*
X0130797Y0166581D01*
X0133049Y0164329D02*
X0128545Y0164329D01*
X0128545Y0162728D02*
X0128545Y0159726D01*
X0130797Y0159726D02*
X0130797Y0161227D01*
X0133800Y0158124D02*
X0133800Y0155122D01*
X0133049Y0153520D02*
X0133049Y0150518D01*
X0130047Y0153520D01*
X0129296Y0153520D01*
X0128545Y0152770D01*
X0128545Y0151268D01*
X0129296Y0150518D01*
X0129296Y0148916D02*
X0130047Y0148916D01*
X0130797Y0148166D01*
X0131548Y0148916D01*
X0132299Y0148916D01*
X0133049Y0148166D01*
X0133049Y0146664D01*
X0132299Y0145914D01*
X0132299Y0144312D02*
X0133049Y0143562D01*
X0133049Y0142060D01*
X0132299Y0141310D01*
X0129296Y0144312D01*
X0132299Y0144312D01*
X0130797Y0147415D02*
X0130797Y0148166D01*
X0129296Y0148916D02*
X0128545Y0148166D01*
X0128545Y0146664D01*
X0129296Y0145914D01*
X0129296Y0144312D02*
X0128545Y0143562D01*
X0128545Y0142060D01*
X0129296Y0141310D01*
X0132299Y0141310D01*
X0133049Y0139708D02*
X0133049Y0136706D01*
X0130047Y0139708D01*
X0129296Y0139708D01*
X0128545Y0138958D01*
X0128545Y0137457D01*
X0129296Y0136706D01*
X0129296Y0135105D02*
X0130797Y0135105D01*
X0131548Y0134354D01*
X0131548Y0132102D01*
X0133049Y0132102D02*
X0128545Y0132102D01*
X0128545Y0134354D01*
X0129296Y0135105D01*
X0131548Y0133603D02*
X0133049Y0135105D01*
X0132299Y0130501D02*
X0133049Y0129750D01*
X0133049Y0128249D01*
X0132299Y0127498D01*
X0129296Y0127498D01*
X0128545Y0128249D01*
X0128545Y0129750D01*
X0129296Y0130501D01*
X0150829Y0149144D02*
X0155333Y0149144D01*
X0155333Y0152146D01*
X0155333Y0153748D02*
X0155333Y0155249D01*
X0155333Y0154498D02*
X0152330Y0154498D01*
X0152330Y0153748D01*
X0150829Y0154498D02*
X0150078Y0154498D01*
X0152330Y0156817D02*
X0152330Y0158318D01*
X0151579Y0157568D02*
X0154582Y0157568D01*
X0155333Y0158318D01*
X0155333Y0159886D02*
X0154582Y0159886D01*
X0154582Y0160637D01*
X0155333Y0160637D01*
X0155333Y0159886D01*
X0154582Y0162188D02*
X0155333Y0162939D01*
X0155333Y0164440D01*
X0154582Y0165191D01*
X0153831Y0165191D01*
X0153081Y0164440D01*
X0153081Y0163689D01*
X0153081Y0164440D02*
X0152330Y0165191D01*
X0151579Y0165191D01*
X0150829Y0164440D01*
X0150829Y0162939D01*
X0151579Y0162188D01*
X0150829Y0166792D02*
X0153831Y0166792D01*
X0155333Y0168293D01*
X0153831Y0169795D01*
X0150829Y0169795D01*
X0097118Y0160000D02*
X0097132Y0161101D01*
X0097172Y0162202D01*
X0097240Y0163302D01*
X0097334Y0164399D01*
X0097456Y0165494D01*
X0097604Y0166586D01*
X0097779Y0167673D01*
X0097980Y0168756D01*
X0098209Y0169834D01*
X0098463Y0170905D01*
X0098744Y0171971D01*
X0099051Y0173029D01*
X0099383Y0174079D01*
X0099742Y0175120D01*
X0100125Y0176153D01*
X0100534Y0177176D01*
X0100968Y0178188D01*
X0101427Y0179190D01*
X0101910Y0180179D01*
X0102418Y0181157D01*
X0102949Y0182122D01*
X0103503Y0183074D01*
X0104081Y0184012D01*
X0104682Y0184935D01*
X0105305Y0185843D01*
X0105950Y0186736D01*
X0106617Y0187613D01*
X0107306Y0188473D01*
X0108015Y0189316D01*
X0108745Y0190141D01*
X0109494Y0190948D01*
X0110264Y0191736D01*
X0111052Y0192506D01*
X0111859Y0193255D01*
X0112684Y0193985D01*
X0113527Y0194694D01*
X0114387Y0195383D01*
X0115264Y0196050D01*
X0116157Y0196695D01*
X0117065Y0197318D01*
X0117988Y0197919D01*
X0118926Y0198497D01*
X0119878Y0199051D01*
X0120843Y0199582D01*
X0121821Y0200090D01*
X0122810Y0200573D01*
X0123812Y0201032D01*
X0124824Y0201466D01*
X0125847Y0201875D01*
X0126880Y0202258D01*
X0127921Y0202617D01*
X0128971Y0202949D01*
X0130029Y0203256D01*
X0131095Y0203537D01*
X0132166Y0203791D01*
X0133244Y0204020D01*
X0134327Y0204221D01*
X0135414Y0204396D01*
X0136506Y0204544D01*
X0137601Y0204666D01*
X0138698Y0204760D01*
X0139798Y0204828D01*
X0140899Y0204868D01*
X0142000Y0204882D01*
X0143101Y0204868D01*
X0144202Y0204828D01*
X0145302Y0204760D01*
X0146399Y0204666D01*
X0147494Y0204544D01*
X0148586Y0204396D01*
X0149673Y0204221D01*
X0150756Y0204020D01*
X0151834Y0203791D01*
X0152905Y0203537D01*
X0153971Y0203256D01*
X0155029Y0202949D01*
X0156079Y0202617D01*
X0157120Y0202258D01*
X0158153Y0201875D01*
X0159176Y0201466D01*
X0160188Y0201032D01*
X0161190Y0200573D01*
X0162179Y0200090D01*
X0163157Y0199582D01*
X0164122Y0199051D01*
X0165074Y0198497D01*
X0166012Y0197919D01*
X0166935Y0197318D01*
X0167843Y0196695D01*
X0168736Y0196050D01*
X0169613Y0195383D01*
X0170473Y0194694D01*
X0171316Y0193985D01*
X0172141Y0193255D01*
X0172948Y0192506D01*
X0173736Y0191736D01*
X0174506Y0190948D01*
X0175255Y0190141D01*
X0175985Y0189316D01*
X0176694Y0188473D01*
X0177383Y0187613D01*
X0178050Y0186736D01*
X0178695Y0185843D01*
X0179318Y0184935D01*
X0179919Y0184012D01*
X0180497Y0183074D01*
X0181051Y0182122D01*
X0181582Y0181157D01*
X0182090Y0180179D01*
X0182573Y0179190D01*
X0183032Y0178188D01*
X0183466Y0177176D01*
X0183875Y0176153D01*
X0184258Y0175120D01*
X0184617Y0174079D01*
X0184949Y0173029D01*
X0185256Y0171971D01*
X0185537Y0170905D01*
X0185791Y0169834D01*
X0186020Y0168756D01*
X0186221Y0167673D01*
X0186396Y0166586D01*
X0186544Y0165494D01*
X0186666Y0164399D01*
X0186760Y0163302D01*
X0186828Y0162202D01*
X0186868Y0161101D01*
X0186882Y0160000D01*
X0186868Y0158899D01*
X0186828Y0157798D01*
X0186760Y0156698D01*
X0186666Y0155601D01*
X0186544Y0154506D01*
X0186396Y0153414D01*
X0186221Y0152327D01*
X0186020Y0151244D01*
X0185791Y0150166D01*
X0185537Y0149095D01*
X0185256Y0148029D01*
X0184949Y0146971D01*
X0184617Y0145921D01*
X0184258Y0144880D01*
X0183875Y0143847D01*
X0183466Y0142824D01*
X0183032Y0141812D01*
X0182573Y0140810D01*
X0182090Y0139821D01*
X0181582Y0138843D01*
X0181051Y0137878D01*
X0180497Y0136926D01*
X0179919Y0135988D01*
X0179318Y0135065D01*
X0178695Y0134157D01*
X0178050Y0133264D01*
X0177383Y0132387D01*
X0176694Y0131527D01*
X0175985Y0130684D01*
X0175255Y0129859D01*
X0174506Y0129052D01*
X0173736Y0128264D01*
X0172948Y0127494D01*
X0172141Y0126745D01*
X0171316Y0126015D01*
X0170473Y0125306D01*
X0169613Y0124617D01*
X0168736Y0123950D01*
X0167843Y0123305D01*
X0166935Y0122682D01*
X0166012Y0122081D01*
X0165074Y0121503D01*
X0164122Y0120949D01*
X0163157Y0120418D01*
X0162179Y0119910D01*
X0161190Y0119427D01*
X0160188Y0118968D01*
X0159176Y0118534D01*
X0158153Y0118125D01*
X0157120Y0117742D01*
X0156079Y0117383D01*
X0155029Y0117051D01*
X0153971Y0116744D01*
X0152905Y0116463D01*
X0151834Y0116209D01*
X0150756Y0115980D01*
X0149673Y0115779D01*
X0148586Y0115604D01*
X0147494Y0115456D01*
X0146399Y0115334D01*
X0145302Y0115240D01*
X0144202Y0115172D01*
X0143101Y0115132D01*
X0142000Y0115118D01*
X0140899Y0115132D01*
X0139798Y0115172D01*
X0138698Y0115240D01*
X0137601Y0115334D01*
X0136506Y0115456D01*
X0135414Y0115604D01*
X0134327Y0115779D01*
X0133244Y0115980D01*
X0132166Y0116209D01*
X0131095Y0116463D01*
X0130029Y0116744D01*
X0128971Y0117051D01*
X0127921Y0117383D01*
X0126880Y0117742D01*
X0125847Y0118125D01*
X0124824Y0118534D01*
X0123812Y0118968D01*
X0122810Y0119427D01*
X0121821Y0119910D01*
X0120843Y0120418D01*
X0119878Y0120949D01*
X0118926Y0121503D01*
X0117988Y0122081D01*
X0117065Y0122682D01*
X0116157Y0123305D01*
X0115264Y0123950D01*
X0114387Y0124617D01*
X0113527Y0125306D01*
X0112684Y0126015D01*
X0111859Y0126745D01*
X0111052Y0127494D01*
X0110264Y0128264D01*
X0109494Y0129052D01*
X0108745Y0129859D01*
X0108015Y0130684D01*
X0107306Y0131527D01*
X0106617Y0132387D01*
X0105950Y0133264D01*
X0105305Y0134157D01*
X0104682Y0135065D01*
X0104081Y0135988D01*
X0103503Y0136926D01*
X0102949Y0137878D01*
X0102418Y0138843D01*
X0101910Y0139821D01*
X0101427Y0140810D01*
X0100968Y0141812D01*
X0100534Y0142824D01*
X0100125Y0143847D01*
X0099742Y0144880D01*
X0099383Y0145921D01*
X0099051Y0146971D01*
X0098744Y0148029D01*
X0098463Y0149095D01*
X0098209Y0150166D01*
X0097980Y0151244D01*
X0097779Y0152327D01*
X0097604Y0153414D01*
X0097456Y0154506D01*
X0097334Y0155601D01*
X0097240Y0156698D01*
X0097172Y0157798D01*
X0097132Y0158899D01*
X0097118Y0160000D01*
X0128545Y0168933D02*
X0130047Y0170435D01*
X0128545Y0171936D01*
X0133049Y0171936D01*
X0133049Y0168933D02*
X0128545Y0168933D01*
X0190250Y0173567D02*
X0190567Y0173250D01*
X0190884Y0173250D01*
X0191201Y0173567D01*
X0191201Y0175152D01*
X0190884Y0175152D02*
X0191518Y0175152D01*
X0192460Y0174835D02*
X0192777Y0175152D01*
X0193411Y0175152D01*
X0193728Y0174835D01*
X0193728Y0174518D01*
X0192460Y0173250D01*
X0193728Y0173250D01*
X0213245Y0178113D02*
X0214262Y0177096D01*
X0218332Y0177096D01*
X0219350Y0178113D01*
X0219350Y0180148D01*
X0218332Y0181166D01*
X0216297Y0181166D01*
X0216297Y0179131D01*
X0214262Y0181166D02*
X0213245Y0180148D01*
X0213245Y0178113D01*
X0213245Y0183173D02*
X0213245Y0186225D01*
X0214262Y0187243D01*
X0215280Y0187243D01*
X0216297Y0186225D01*
X0216297Y0183173D01*
X0213245Y0183173D02*
X0219350Y0183173D01*
X0219350Y0186225D01*
X0218332Y0187243D01*
X0217315Y0187243D01*
X0216297Y0186225D01*
D13*
X0131710Y0112804D02*
X0129408Y0110502D01*
X0132477Y0110502D01*
X0131710Y0108200D02*
X0131710Y0112804D01*
X0127873Y0112037D02*
X0127106Y0112804D01*
X0125571Y0112804D01*
X0124804Y0112037D01*
X0123269Y0112037D02*
X0122502Y0112804D01*
X0120967Y0112804D01*
X0120200Y0112037D01*
X0120200Y0108967D01*
X0120967Y0108200D01*
X0122502Y0108200D01*
X0123269Y0108967D01*
X0124804Y0108200D02*
X0127873Y0111269D01*
X0127873Y0112037D01*
X0127873Y0108200D02*
X0124804Y0108200D01*
X0103942Y0098804D02*
X0103942Y0094200D01*
X0102408Y0094200D02*
X0105477Y0094200D01*
X0101665Y0093967D02*
X0101665Y0094735D01*
X0100898Y0095502D01*
X0098596Y0095502D01*
X0098596Y0093967D01*
X0099363Y0093200D01*
X0100898Y0093200D01*
X0101665Y0093967D01*
X0100873Y0094200D02*
X0097804Y0094200D01*
X0097061Y0093967D02*
X0096294Y0093200D01*
X0094759Y0093200D01*
X0093992Y0093967D01*
X0093992Y0097037D01*
X0094759Y0097804D01*
X0096294Y0097804D01*
X0097061Y0097037D01*
X0097804Y0097269D02*
X0099339Y0098804D01*
X0099339Y0094200D01*
X0098596Y0095502D02*
X0100131Y0097037D01*
X0101665Y0097804D01*
X0102408Y0097269D02*
X0103942Y0098804D01*
X0098596Y0104200D02*
X0098596Y0104967D01*
X0101665Y0108037D01*
X0101665Y0108804D01*
X0098596Y0108804D01*
X0097061Y0108037D02*
X0096294Y0108804D01*
X0094759Y0108804D01*
X0093992Y0108037D01*
X0093992Y0104967D01*
X0094759Y0104200D01*
X0096294Y0104200D01*
X0097061Y0104967D01*
X0095502Y0098804D02*
X0093200Y0098804D01*
X0093200Y0094200D01*
X0093200Y0095735D02*
X0095502Y0095735D01*
X0096269Y0096502D01*
X0096269Y0098037D01*
X0095502Y0098804D01*
X0094735Y0095735D02*
X0096269Y0094200D01*
X0095502Y0084804D02*
X0093967Y0084804D01*
X0093200Y0084037D01*
X0093200Y0080967D01*
X0093967Y0080200D01*
X0095502Y0080200D01*
X0096269Y0080967D01*
X0097804Y0082502D02*
X0100873Y0082502D01*
X0100106Y0080200D02*
X0100106Y0084804D01*
X0097804Y0082502D01*
X0096269Y0084037D02*
X0095502Y0084804D01*
X0095352Y0069404D02*
X0093050Y0069404D01*
X0093050Y0064800D01*
X0093050Y0066335D02*
X0095352Y0066335D01*
X0096119Y0067102D01*
X0096119Y0068637D01*
X0095352Y0069404D01*
X0097654Y0067869D02*
X0099189Y0069404D01*
X0099189Y0064800D01*
X0100723Y0064800D02*
X0097654Y0064800D01*
X0096119Y0064800D02*
X0094585Y0066335D01*
X0121200Y0053804D02*
X0121200Y0049200D01*
X0123502Y0049200D01*
X0124269Y0049967D01*
X0124269Y0050735D01*
X0123502Y0051502D01*
X0121200Y0051502D01*
X0121200Y0053804D02*
X0123502Y0053804D01*
X0124269Y0053037D01*
X0124269Y0052269D01*
X0123502Y0051502D01*
X0125804Y0053804D02*
X0125804Y0049200D01*
X0128873Y0049200D01*
X0130408Y0049967D02*
X0131175Y0049200D01*
X0132710Y0049200D01*
X0133477Y0049967D01*
X0133477Y0053804D01*
X0130408Y0053804D02*
X0130408Y0049967D01*
X0135012Y0048433D02*
X0138081Y0048433D01*
X0139616Y0049967D02*
X0140383Y0049200D01*
X0141918Y0049200D01*
X0142685Y0049967D01*
X0142685Y0050735D01*
X0141918Y0051502D01*
X0140383Y0051502D01*
X0139616Y0052269D01*
X0139616Y0053037D01*
X0140383Y0053804D01*
X0141918Y0053804D01*
X0142685Y0053037D01*
X0144220Y0053804D02*
X0147289Y0053804D01*
X0145754Y0053804D02*
X0145754Y0049200D01*
X0148824Y0049200D02*
X0148824Y0052269D01*
X0150358Y0053804D01*
X0151893Y0052269D01*
X0151893Y0049200D01*
X0151893Y0051502D02*
X0148824Y0051502D01*
X0153427Y0053804D02*
X0156497Y0053804D01*
X0158031Y0053804D02*
X0158031Y0049200D01*
X0161101Y0049200D01*
X0159566Y0051502D02*
X0158031Y0051502D01*
X0158031Y0053804D02*
X0161101Y0053804D01*
X0154962Y0053804D02*
X0154962Y0049200D01*
X0154761Y0038804D02*
X0154761Y0034200D01*
X0151692Y0038804D01*
X0151692Y0034200D01*
X0150157Y0034967D02*
X0150157Y0038037D01*
X0149390Y0038804D01*
X0147855Y0038804D01*
X0147088Y0038037D01*
X0147088Y0034967D01*
X0147855Y0034200D01*
X0149390Y0034200D01*
X0150157Y0034967D01*
X0145554Y0034967D02*
X0144786Y0034200D01*
X0143252Y0034200D01*
X0142484Y0034967D01*
X0142484Y0038037D01*
X0143252Y0038804D01*
X0144786Y0038804D01*
X0145554Y0038037D01*
X0140950Y0033433D02*
X0137880Y0033433D01*
X0136346Y0034200D02*
X0133276Y0034200D01*
X0133276Y0038804D01*
X0136346Y0038804D01*
X0134811Y0036502D02*
X0133276Y0036502D01*
X0131742Y0034200D02*
X0128672Y0034200D01*
X0128672Y0038804D01*
X0127138Y0038037D02*
X0127138Y0037269D01*
X0126370Y0036502D01*
X0124069Y0036502D01*
X0126370Y0036502D02*
X0127138Y0035735D01*
X0127138Y0034967D01*
X0126370Y0034200D01*
X0124069Y0034200D01*
X0124069Y0038804D01*
X0126370Y0038804D01*
X0127138Y0038037D01*
X0101665Y0038804D02*
X0100131Y0038037D01*
X0098596Y0036502D01*
X0100898Y0036502D01*
X0101665Y0035735D01*
X0101665Y0034967D01*
X0100898Y0034200D01*
X0099363Y0034200D01*
X0098596Y0034967D01*
X0098596Y0036502D01*
X0097061Y0036502D02*
X0096294Y0035735D01*
X0093992Y0035735D01*
X0095527Y0035735D02*
X0097061Y0034200D01*
X0097061Y0036502D02*
X0097061Y0038037D01*
X0096294Y0038804D01*
X0093992Y0038804D01*
X0093992Y0034200D01*
X0047062Y0042785D02*
X0043993Y0042785D01*
X0046295Y0045087D01*
X0046295Y0040483D01*
X0042458Y0041251D02*
X0042458Y0045087D01*
X0039389Y0045087D02*
X0039389Y0041251D01*
X0040156Y0040483D01*
X0041691Y0040483D01*
X0042458Y0041251D01*
X0049156Y0113200D02*
X0050690Y0113200D01*
X0051457Y0113967D01*
X0052992Y0113200D02*
X0056061Y0116269D01*
X0056061Y0117037D01*
X0055294Y0117804D01*
X0053759Y0117804D01*
X0052992Y0117037D01*
X0051457Y0117037D02*
X0050690Y0117804D01*
X0049156Y0117804D01*
X0048388Y0117037D01*
X0048388Y0113967D01*
X0049156Y0113200D01*
X0052992Y0113200D02*
X0056061Y0113200D01*
X0057596Y0113967D02*
X0058363Y0113200D01*
X0059898Y0113200D01*
X0060665Y0113967D01*
X0060665Y0114735D01*
X0059898Y0115502D01*
X0059131Y0115502D01*
X0059898Y0115502D02*
X0060665Y0116269D01*
X0060665Y0117037D01*
X0059898Y0117804D01*
X0058363Y0117804D01*
X0057596Y0117037D01*
X0041859Y0136570D02*
X0038023Y0136570D01*
X0038023Y0139639D02*
X0041859Y0139639D01*
X0042627Y0138872D01*
X0042627Y0137337D01*
X0041859Y0136570D01*
X0042627Y0141174D02*
X0042627Y0144243D01*
X0042627Y0142709D02*
X0038023Y0142709D01*
X0039557Y0141174D01*
X0156296Y0038804D02*
X0159365Y0034200D01*
X0159365Y0038804D01*
X0156296Y0038804D02*
X0156296Y0034200D01*
X0179992Y0034200D02*
X0179992Y0038804D01*
X0182294Y0038804D01*
X0183061Y0038037D01*
X0183061Y0036502D01*
X0182294Y0035735D01*
X0179992Y0035735D01*
X0181527Y0035735D02*
X0183061Y0034200D01*
X0184596Y0034967D02*
X0185363Y0034200D01*
X0186898Y0034200D01*
X0187665Y0034967D01*
X0187665Y0038037D01*
X0186898Y0038804D01*
X0185363Y0038804D01*
X0184596Y0038037D01*
X0184596Y0037269D01*
X0185363Y0036502D01*
X0187665Y0036502D01*
X0202200Y0049967D02*
X0202967Y0049200D01*
X0204502Y0049200D01*
X0205269Y0049967D01*
X0204527Y0050200D02*
X0204527Y0054804D01*
X0202992Y0053269D01*
X0202967Y0053804D02*
X0202200Y0053037D01*
X0202200Y0049967D01*
X0201457Y0050200D02*
X0199923Y0051735D01*
X0200690Y0051735D02*
X0198388Y0051735D01*
X0198388Y0050200D02*
X0198388Y0054804D01*
X0200690Y0054804D01*
X0201457Y0054037D01*
X0201457Y0052502D01*
X0200690Y0051735D01*
X0202992Y0050200D02*
X0206061Y0050200D01*
X0206804Y0049200D02*
X0209873Y0049200D01*
X0209898Y0050200D02*
X0208363Y0050200D01*
X0207596Y0050967D01*
X0206804Y0052269D02*
X0208339Y0053804D01*
X0208339Y0049200D01*
X0209898Y0050200D02*
X0210665Y0050967D01*
X0210665Y0054037D01*
X0209898Y0054804D01*
X0208363Y0054804D01*
X0207596Y0054037D01*
X0207596Y0053269D01*
X0208363Y0052502D01*
X0210665Y0052502D01*
X0205269Y0053037D02*
X0204502Y0053804D01*
X0202967Y0053804D01*
X0187665Y0054037D02*
X0186898Y0054804D01*
X0185363Y0054804D01*
X0184596Y0054037D01*
X0183061Y0054037D02*
X0182294Y0054804D01*
X0179992Y0054804D01*
X0179992Y0050200D01*
X0179992Y0051735D02*
X0182294Y0051735D01*
X0183061Y0052502D01*
X0183061Y0054037D01*
X0181527Y0051735D02*
X0183061Y0050200D01*
X0184596Y0050200D02*
X0187665Y0053269D01*
X0187665Y0054037D01*
X0187665Y0050200D02*
X0184596Y0050200D01*
X0202200Y0081200D02*
X0202200Y0085804D01*
X0204502Y0085804D01*
X0205269Y0085037D01*
X0205269Y0083502D01*
X0204502Y0082735D01*
X0202200Y0082735D01*
X0203735Y0082735D02*
X0205269Y0081200D01*
X0206804Y0081200D02*
X0209873Y0081200D01*
X0208339Y0081200D02*
X0208339Y0085804D01*
X0206804Y0084269D01*
X0211408Y0085037D02*
X0211408Y0081967D01*
X0214477Y0085037D01*
X0214477Y0081967D01*
X0213710Y0081200D01*
X0212175Y0081200D01*
X0211408Y0081967D01*
X0211408Y0085037D02*
X0212175Y0085804D01*
X0213710Y0085804D01*
X0214477Y0085037D01*
D14*
X0224717Y0092236D02*
X0189283Y0092236D01*
X0189283Y0123339D01*
X0195189Y0123339D01*
X0195189Y0140661D01*
X0189283Y0140661D01*
X0189283Y0171764D01*
X0224323Y0171764D01*
X0224717Y0171764D02*
X0224717Y0092236D01*
X0189283Y0123339D02*
X0189283Y0140661D01*
X0196075Y0149500D02*
X0196075Y0154500D01*
X0062480Y0170283D02*
X0051850Y0170283D01*
X0042402Y0170283D02*
X0019173Y0170283D01*
X0019173Y0205717D01*
X0062480Y0205717D01*
X0062480Y0191543D01*
X0062480Y0184457D02*
X0062480Y0170283D01*
X0100685Y0033630D02*
X0104622Y0033630D01*
X0100685Y0033630D02*
X0096354Y0029299D01*
X0096354Y0012764D01*
X0104622Y0012764D01*
X0108953Y0012764D02*
X0117220Y0012764D01*
X0117220Y0029299D01*
X0112890Y0033630D01*
X0108756Y0033630D01*
X0108756Y0032843D02*
X0108990Y0032789D01*
X0109224Y0032731D01*
X0109455Y0032666D01*
X0109685Y0032596D01*
X0109913Y0032520D01*
X0110140Y0032439D01*
X0110364Y0032353D01*
X0110586Y0032260D01*
X0110806Y0032163D01*
X0111023Y0032060D01*
X0111238Y0031952D01*
X0111450Y0031839D01*
X0111660Y0031720D01*
X0111866Y0031597D01*
X0112069Y0031469D01*
X0112269Y0031335D01*
X0112466Y0031197D01*
X0112660Y0031054D01*
X0112850Y0030907D01*
X0113036Y0030755D01*
X0113218Y0030598D01*
X0113397Y0030437D01*
X0113571Y0030272D01*
X0113742Y0030102D01*
X0113908Y0029929D01*
X0114071Y0029751D01*
X0114228Y0029570D01*
X0114382Y0029384D01*
X0114530Y0029195D01*
X0114674Y0029003D01*
X0114814Y0028807D01*
X0114948Y0028608D01*
X0115078Y0028405D01*
X0115203Y0028200D01*
X0115323Y0027991D01*
X0115437Y0027780D01*
X0115547Y0027566D01*
X0115651Y0027349D01*
X0115750Y0027130D01*
X0115843Y0026908D01*
X0115931Y0026684D01*
X0116014Y0026459D01*
X0116091Y0026231D01*
X0116162Y0026001D01*
X0116228Y0025770D01*
X0116289Y0025537D01*
X0116343Y0025303D01*
X0116392Y0025068D01*
X0116435Y0024831D01*
X0116473Y0024594D01*
X0116504Y0024355D01*
X0116530Y0024116D01*
X0116550Y0023876D01*
X0116564Y0023636D01*
X0116573Y0023396D01*
X0116575Y0023156D01*
X0116572Y0022915D01*
X0116562Y0022675D01*
X0116547Y0022435D01*
X0116526Y0022195D01*
X0116500Y0021956D01*
X0116467Y0021718D01*
X0116429Y0021481D01*
X0116385Y0021244D01*
X0116335Y0021009D01*
X0116279Y0020775D01*
X0116218Y0020543D01*
X0116151Y0020312D01*
X0116079Y0020082D01*
X0116001Y0019855D01*
X0115917Y0019629D01*
X0115828Y0019406D01*
X0115734Y0019185D01*
X0115634Y0018966D01*
X0115529Y0018750D01*
X0115419Y0018536D01*
X0115304Y0018325D01*
X0115183Y0018117D01*
X0115058Y0017912D01*
X0114927Y0017710D01*
X0114792Y0017511D01*
X0114652Y0017316D01*
X0114507Y0017124D01*
X0114357Y0016936D01*
X0114203Y0016751D01*
X0114045Y0016570D01*
X0113882Y0016393D01*
X0113715Y0016220D01*
X0113544Y0016051D01*
X0113368Y0015887D01*
X0113189Y0015726D01*
X0113006Y0015571D01*
X0112819Y0015419D01*
X0112629Y0015272D01*
X0112435Y0015130D01*
X0112237Y0014993D01*
X0112037Y0014860D01*
X0111833Y0014733D01*
X0111626Y0014610D01*
X0111416Y0014493D01*
X0111204Y0014380D01*
X0110989Y0014273D01*
X0110771Y0014171D01*
X0110551Y0014074D01*
X0110328Y0013983D01*
X0110103Y0013897D01*
X0109877Y0013817D01*
X0109648Y0013742D01*
X0109418Y0013673D01*
X0109186Y0013610D01*
X0108953Y0013552D01*
X0104622Y0013551D02*
X0104390Y0013604D01*
X0104159Y0013663D01*
X0103930Y0013727D01*
X0103703Y0013798D01*
X0103477Y0013873D01*
X0103253Y0013954D01*
X0103031Y0014041D01*
X0102812Y0014133D01*
X0102595Y0014230D01*
X0102380Y0014333D01*
X0102168Y0014441D01*
X0101958Y0014554D01*
X0101751Y0014672D01*
X0101548Y0014795D01*
X0101347Y0014923D01*
X0101149Y0015056D01*
X0100955Y0015193D01*
X0100764Y0015336D01*
X0100577Y0015483D01*
X0100393Y0015634D01*
X0100214Y0015790D01*
X0100038Y0015950D01*
X0099866Y0016115D01*
X0099698Y0016284D01*
X0099534Y0016456D01*
X0099374Y0016633D01*
X0099219Y0016814D01*
X0099068Y0016998D01*
X0098922Y0017186D01*
X0098781Y0017377D01*
X0098644Y0017572D01*
X0098512Y0017770D01*
X0098385Y0017971D01*
X0098262Y0018176D01*
X0098145Y0018383D01*
X0098033Y0018593D01*
X0097926Y0018806D01*
X0097824Y0019021D01*
X0097728Y0019238D01*
X0097637Y0019458D01*
X0097551Y0019680D01*
X0097471Y0019905D01*
X0097396Y0020131D01*
X0097327Y0020358D01*
X0097263Y0020588D01*
X0097205Y0020819D01*
X0097153Y0021051D01*
X0097106Y0021284D01*
X0097065Y0021519D01*
X0097030Y0021754D01*
X0097001Y0021990D01*
X0096977Y0022227D01*
X0096959Y0022465D01*
X0096947Y0022702D01*
X0096941Y0022940D01*
X0096941Y0023178D01*
X0096946Y0023416D01*
X0096957Y0023654D01*
X0096974Y0023892D01*
X0096997Y0024129D01*
X0097025Y0024365D01*
X0097060Y0024601D01*
X0097100Y0024835D01*
X0097145Y0025069D01*
X0097197Y0025301D01*
X0097254Y0025532D01*
X0097317Y0025762D01*
X0097385Y0025990D01*
X0097459Y0026216D01*
X0097538Y0026441D01*
X0097623Y0026663D01*
X0097713Y0026884D01*
X0097809Y0027102D01*
X0097910Y0027317D01*
X0098016Y0027530D01*
X0098127Y0027741D01*
X0098244Y0027948D01*
X0098365Y0028153D01*
X0098492Y0028355D01*
X0098623Y0028553D01*
X0098759Y0028749D01*
X0098900Y0028941D01*
X0099045Y0029129D01*
X0099195Y0029314D01*
X0099350Y0029495D01*
X0099509Y0029672D01*
X0099672Y0029846D01*
X0099839Y0030015D01*
X0100011Y0030180D01*
X0100186Y0030341D01*
X0100365Y0030498D01*
X0100548Y0030650D01*
X0100735Y0030798D01*
X0100925Y0030941D01*
X0101119Y0031079D01*
X0101316Y0031213D01*
X0101516Y0031341D01*
X0101719Y0031465D01*
X0101926Y0031584D01*
X0102135Y0031698D01*
X0102347Y0031807D01*
X0102561Y0031910D01*
X0102778Y0032008D01*
X0102997Y0032101D01*
X0103219Y0032188D01*
X0103442Y0032270D01*
X0103667Y0032347D01*
X0103895Y0032418D01*
X0104124Y0032483D01*
X0104354Y0032543D01*
X0104586Y0032597D01*
X0104819Y0032646D01*
D15*
X0135400Y0034500D02*
X0135400Y0009500D01*
X0160600Y0009500D01*
X0160600Y0034500D01*
X0135400Y0034500D01*
X0140000Y0030000D02*
X0156000Y0030000D01*
X0156000Y0024000D01*
X0140000Y0024000D01*
X0140000Y0030000D01*
X0140000Y0020000D02*
X0156000Y0020000D01*
X0156000Y0014000D01*
X0140000Y0014000D01*
X0140000Y0020000D01*
X0180600Y0012600D02*
X0197400Y0012600D01*
X0197400Y0033400D02*
X0180600Y0033400D01*
X0148586Y0057363D02*
X0148588Y0057438D01*
X0148594Y0057512D01*
X0148604Y0057586D01*
X0148617Y0057659D01*
X0148635Y0057732D01*
X0148656Y0057803D01*
X0148681Y0057874D01*
X0148710Y0057943D01*
X0148743Y0058010D01*
X0148779Y0058075D01*
X0148818Y0058139D01*
X0148860Y0058200D01*
X0148906Y0058259D01*
X0148955Y0058316D01*
X0149007Y0058369D01*
X0149061Y0058420D01*
X0149118Y0058469D01*
X0149178Y0058513D01*
X0149240Y0058555D01*
X0149304Y0058594D01*
X0149370Y0058629D01*
X0149437Y0058660D01*
X0149507Y0058688D01*
X0149577Y0058712D01*
X0149649Y0058733D01*
X0149722Y0058749D01*
X0149795Y0058762D01*
X0149870Y0058771D01*
X0149944Y0058776D01*
X0150019Y0058777D01*
X0150093Y0058774D01*
X0150168Y0058767D01*
X0150241Y0058756D01*
X0150315Y0058742D01*
X0150387Y0058723D01*
X0150458Y0058701D01*
X0150528Y0058675D01*
X0150597Y0058645D01*
X0150663Y0058612D01*
X0150728Y0058575D01*
X0150791Y0058535D01*
X0150852Y0058491D01*
X0150910Y0058445D01*
X0150966Y0058395D01*
X0151019Y0058343D01*
X0151070Y0058288D01*
X0151117Y0058230D01*
X0151161Y0058170D01*
X0151202Y0058107D01*
X0151240Y0058043D01*
X0151274Y0057977D01*
X0151305Y0057908D01*
X0151332Y0057839D01*
X0151355Y0057768D01*
X0151374Y0057696D01*
X0151390Y0057623D01*
X0151402Y0057549D01*
X0151410Y0057475D01*
X0151414Y0057400D01*
X0151414Y0057326D01*
X0151410Y0057251D01*
X0151402Y0057177D01*
X0151390Y0057103D01*
X0151374Y0057030D01*
X0151355Y0056958D01*
X0151332Y0056887D01*
X0151305Y0056818D01*
X0151274Y0056749D01*
X0151240Y0056683D01*
X0151202Y0056619D01*
X0151161Y0056556D01*
X0151117Y0056496D01*
X0151070Y0056438D01*
X0151019Y0056383D01*
X0150966Y0056331D01*
X0150910Y0056281D01*
X0150852Y0056235D01*
X0150791Y0056191D01*
X0150728Y0056151D01*
X0150663Y0056114D01*
X0150597Y0056081D01*
X0150528Y0056051D01*
X0150458Y0056025D01*
X0150387Y0056003D01*
X0150315Y0055984D01*
X0150241Y0055970D01*
X0150168Y0055959D01*
X0150093Y0055952D01*
X0150019Y0055949D01*
X0149944Y0055950D01*
X0149870Y0055955D01*
X0149795Y0055964D01*
X0149722Y0055977D01*
X0149649Y0055993D01*
X0149577Y0056014D01*
X0149507Y0056038D01*
X0149437Y0056066D01*
X0149370Y0056097D01*
X0149304Y0056132D01*
X0149240Y0056171D01*
X0149178Y0056213D01*
X0149118Y0056257D01*
X0149061Y0056306D01*
X0149007Y0056357D01*
X0148955Y0056410D01*
X0148906Y0056467D01*
X0148860Y0056526D01*
X0148818Y0056587D01*
X0148779Y0056651D01*
X0148743Y0056716D01*
X0148710Y0056783D01*
X0148681Y0056852D01*
X0148656Y0056923D01*
X0148635Y0056994D01*
X0148617Y0057067D01*
X0148604Y0057140D01*
X0148594Y0057214D01*
X0148588Y0057288D01*
X0148586Y0057363D01*
X0149012Y0060473D02*
X0150988Y0060473D01*
X0169515Y0079000D01*
X0150000Y0098515D01*
X0130485Y0079000D01*
X0149012Y0060473D01*
X0036000Y0124500D02*
X0033500Y0122000D01*
X0028500Y0122000D01*
X0026000Y0124500D01*
X0026000Y0129500D01*
X0028500Y0132000D01*
X0026000Y0134500D01*
X0026000Y0139500D01*
X0028500Y0142000D01*
X0026000Y0144500D01*
X0026000Y0149500D01*
X0028500Y0152000D01*
X0026000Y0154500D01*
X0026000Y0159500D01*
X0028500Y0162000D01*
X0033500Y0162000D01*
X0036000Y0159500D01*
X0036000Y0154500D01*
X0033500Y0152000D01*
X0036000Y0149500D01*
X0036000Y0144500D01*
X0033500Y0142000D01*
X0028500Y0142000D01*
X0033500Y0142000D02*
X0036000Y0139500D01*
X0036000Y0134500D01*
X0033500Y0132000D01*
X0036000Y0129500D01*
X0036000Y0124500D01*
X0033500Y0132000D02*
X0028500Y0132000D01*
X0028500Y0152000D02*
X0033500Y0152000D01*
D16*
X0153000Y0027000D03*
X0153000Y0017000D03*
D17*
X0171764Y0157894D02*
X0171764Y0162106D01*
X0096134Y0160000D02*
X0091921Y0160000D01*
X0094028Y0157894D02*
X0094028Y0162106D01*
D18*
X0094069Y0015288D02*
X0094319Y0015288D01*
X0094569Y0015038D01*
X0094820Y0015288D01*
X0095070Y0015288D01*
X0095320Y0015038D01*
X0095320Y0014537D01*
X0095070Y0014287D01*
X0095070Y0013815D02*
X0095320Y0013564D01*
X0095320Y0013064D01*
X0095070Y0012814D01*
X0094069Y0012814D01*
X0093819Y0013064D01*
X0093819Y0013564D01*
X0094069Y0013815D01*
X0094069Y0014287D02*
X0093819Y0014537D01*
X0093819Y0015038D01*
X0094069Y0015288D01*
X0094569Y0015038D02*
X0094569Y0014787D01*
D19*
X0128215Y0041293D03*
X0128215Y0046707D03*
X0153485Y0046707D03*
X0153485Y0041293D03*
D20*
X0155011Y0044000D03*
X0126689Y0044000D03*
D21*
X0068717Y0022567D02*
X0068717Y0010756D01*
X0062811Y0010756D01*
X0062811Y0022567D01*
X0056906Y0016661D02*
X0051000Y0016661D01*
X0051000Y0010756D01*
X0045094Y0010756D01*
X0045094Y0016661D01*
X0039189Y0016661D01*
X0039189Y0010756D01*
X0033283Y0010756D01*
X0033283Y0016661D01*
X0056906Y0016661D02*
X0056906Y0010756D01*
X0062811Y0010756D01*
M02*
