G75*
%MOIN*%
%OFA0B0*%
%FSLAX25Y25*%
%IPPOS*%
%LPD*%
%AMOC8*
5,1,8,0,0,1.08239X$1,22.5*
%
%ADD10C,0.00000*%
%ADD11C,0.00512*%
%ADD12C,0.00400*%
%ADD13OC8,0.05600*%
%ADD14R,0.06500X0.06500*%
%ADD15C,0.06500*%
%ADD16OC8,0.06600*%
%ADD17R,0.07500X0.07500*%
%ADD18C,0.07500*%
%ADD19C,0.05200*%
%ADD20OC8,0.05200*%
%ADD21C,0.03898*%
%ADD22C,0.06000*%
%ADD23C,0.07400*%
%ADD24C,0.07677*%
%ADD25R,0.07600X0.07600*%
%ADD26OC8,0.07600*%
%ADD27R,0.07800X0.02100*%
%ADD28C,0.06600*%
%ADD29C,0.00600*%
%ADD30C,0.02400*%
%ADD31C,0.01600*%
%ADD32C,0.03000*%
D10*
X0019428Y0012433D02*
X0019428Y0207394D01*
X0328129Y0207394D01*
X0328129Y0012433D01*
X0019428Y0012433D01*
X0157928Y0186433D02*
X0157930Y0186594D01*
X0157936Y0186754D01*
X0157946Y0186915D01*
X0157960Y0187075D01*
X0157978Y0187235D01*
X0157999Y0187394D01*
X0158025Y0187553D01*
X0158055Y0187711D01*
X0158088Y0187868D01*
X0158126Y0188025D01*
X0158167Y0188180D01*
X0158212Y0188334D01*
X0158261Y0188487D01*
X0158314Y0188639D01*
X0158370Y0188790D01*
X0158431Y0188939D01*
X0158494Y0189087D01*
X0158562Y0189233D01*
X0158633Y0189377D01*
X0158707Y0189519D01*
X0158785Y0189660D01*
X0158867Y0189798D01*
X0158952Y0189935D01*
X0159040Y0190069D01*
X0159132Y0190201D01*
X0159227Y0190331D01*
X0159325Y0190459D01*
X0159426Y0190584D01*
X0159530Y0190706D01*
X0159637Y0190826D01*
X0159747Y0190943D01*
X0159860Y0191058D01*
X0159976Y0191169D01*
X0160095Y0191278D01*
X0160216Y0191383D01*
X0160340Y0191486D01*
X0160466Y0191586D01*
X0160594Y0191682D01*
X0160725Y0191775D01*
X0160859Y0191865D01*
X0160994Y0191952D01*
X0161132Y0192035D01*
X0161271Y0192115D01*
X0161413Y0192191D01*
X0161556Y0192264D01*
X0161701Y0192333D01*
X0161848Y0192399D01*
X0161996Y0192461D01*
X0162146Y0192519D01*
X0162297Y0192574D01*
X0162450Y0192625D01*
X0162604Y0192672D01*
X0162759Y0192715D01*
X0162915Y0192754D01*
X0163071Y0192790D01*
X0163229Y0192821D01*
X0163387Y0192849D01*
X0163546Y0192873D01*
X0163706Y0192893D01*
X0163866Y0192909D01*
X0164026Y0192921D01*
X0164187Y0192929D01*
X0164348Y0192933D01*
X0164508Y0192933D01*
X0164669Y0192929D01*
X0164830Y0192921D01*
X0164990Y0192909D01*
X0165150Y0192893D01*
X0165310Y0192873D01*
X0165469Y0192849D01*
X0165627Y0192821D01*
X0165785Y0192790D01*
X0165941Y0192754D01*
X0166097Y0192715D01*
X0166252Y0192672D01*
X0166406Y0192625D01*
X0166559Y0192574D01*
X0166710Y0192519D01*
X0166860Y0192461D01*
X0167008Y0192399D01*
X0167155Y0192333D01*
X0167300Y0192264D01*
X0167443Y0192191D01*
X0167585Y0192115D01*
X0167724Y0192035D01*
X0167862Y0191952D01*
X0167997Y0191865D01*
X0168131Y0191775D01*
X0168262Y0191682D01*
X0168390Y0191586D01*
X0168516Y0191486D01*
X0168640Y0191383D01*
X0168761Y0191278D01*
X0168880Y0191169D01*
X0168996Y0191058D01*
X0169109Y0190943D01*
X0169219Y0190826D01*
X0169326Y0190706D01*
X0169430Y0190584D01*
X0169531Y0190459D01*
X0169629Y0190331D01*
X0169724Y0190201D01*
X0169816Y0190069D01*
X0169904Y0189935D01*
X0169989Y0189798D01*
X0170071Y0189660D01*
X0170149Y0189519D01*
X0170223Y0189377D01*
X0170294Y0189233D01*
X0170362Y0189087D01*
X0170425Y0188939D01*
X0170486Y0188790D01*
X0170542Y0188639D01*
X0170595Y0188487D01*
X0170644Y0188334D01*
X0170689Y0188180D01*
X0170730Y0188025D01*
X0170768Y0187868D01*
X0170801Y0187711D01*
X0170831Y0187553D01*
X0170857Y0187394D01*
X0170878Y0187235D01*
X0170896Y0187075D01*
X0170910Y0186915D01*
X0170920Y0186754D01*
X0170926Y0186594D01*
X0170928Y0186433D01*
X0170926Y0186272D01*
X0170920Y0186112D01*
X0170910Y0185951D01*
X0170896Y0185791D01*
X0170878Y0185631D01*
X0170857Y0185472D01*
X0170831Y0185313D01*
X0170801Y0185155D01*
X0170768Y0184998D01*
X0170730Y0184841D01*
X0170689Y0184686D01*
X0170644Y0184532D01*
X0170595Y0184379D01*
X0170542Y0184227D01*
X0170486Y0184076D01*
X0170425Y0183927D01*
X0170362Y0183779D01*
X0170294Y0183633D01*
X0170223Y0183489D01*
X0170149Y0183347D01*
X0170071Y0183206D01*
X0169989Y0183068D01*
X0169904Y0182931D01*
X0169816Y0182797D01*
X0169724Y0182665D01*
X0169629Y0182535D01*
X0169531Y0182407D01*
X0169430Y0182282D01*
X0169326Y0182160D01*
X0169219Y0182040D01*
X0169109Y0181923D01*
X0168996Y0181808D01*
X0168880Y0181697D01*
X0168761Y0181588D01*
X0168640Y0181483D01*
X0168516Y0181380D01*
X0168390Y0181280D01*
X0168262Y0181184D01*
X0168131Y0181091D01*
X0167997Y0181001D01*
X0167862Y0180914D01*
X0167724Y0180831D01*
X0167585Y0180751D01*
X0167443Y0180675D01*
X0167300Y0180602D01*
X0167155Y0180533D01*
X0167008Y0180467D01*
X0166860Y0180405D01*
X0166710Y0180347D01*
X0166559Y0180292D01*
X0166406Y0180241D01*
X0166252Y0180194D01*
X0166097Y0180151D01*
X0165941Y0180112D01*
X0165785Y0180076D01*
X0165627Y0180045D01*
X0165469Y0180017D01*
X0165310Y0179993D01*
X0165150Y0179973D01*
X0164990Y0179957D01*
X0164830Y0179945D01*
X0164669Y0179937D01*
X0164508Y0179933D01*
X0164348Y0179933D01*
X0164187Y0179937D01*
X0164026Y0179945D01*
X0163866Y0179957D01*
X0163706Y0179973D01*
X0163546Y0179993D01*
X0163387Y0180017D01*
X0163229Y0180045D01*
X0163071Y0180076D01*
X0162915Y0180112D01*
X0162759Y0180151D01*
X0162604Y0180194D01*
X0162450Y0180241D01*
X0162297Y0180292D01*
X0162146Y0180347D01*
X0161996Y0180405D01*
X0161848Y0180467D01*
X0161701Y0180533D01*
X0161556Y0180602D01*
X0161413Y0180675D01*
X0161271Y0180751D01*
X0161132Y0180831D01*
X0160994Y0180914D01*
X0160859Y0181001D01*
X0160725Y0181091D01*
X0160594Y0181184D01*
X0160466Y0181280D01*
X0160340Y0181380D01*
X0160216Y0181483D01*
X0160095Y0181588D01*
X0159976Y0181697D01*
X0159860Y0181808D01*
X0159747Y0181923D01*
X0159637Y0182040D01*
X0159530Y0182160D01*
X0159426Y0182282D01*
X0159325Y0182407D01*
X0159227Y0182535D01*
X0159132Y0182665D01*
X0159040Y0182797D01*
X0158952Y0182931D01*
X0158867Y0183068D01*
X0158785Y0183206D01*
X0158707Y0183347D01*
X0158633Y0183489D01*
X0158562Y0183633D01*
X0158494Y0183779D01*
X0158431Y0183927D01*
X0158370Y0184076D01*
X0158314Y0184227D01*
X0158261Y0184379D01*
X0158212Y0184532D01*
X0158167Y0184686D01*
X0158126Y0184841D01*
X0158088Y0184998D01*
X0158055Y0185155D01*
X0158025Y0185313D01*
X0157999Y0185472D01*
X0157978Y0185631D01*
X0157960Y0185791D01*
X0157946Y0185951D01*
X0157936Y0186112D01*
X0157930Y0186272D01*
X0157928Y0186433D01*
X0202928Y0186433D02*
X0202930Y0186594D01*
X0202936Y0186754D01*
X0202946Y0186915D01*
X0202960Y0187075D01*
X0202978Y0187235D01*
X0202999Y0187394D01*
X0203025Y0187553D01*
X0203055Y0187711D01*
X0203088Y0187868D01*
X0203126Y0188025D01*
X0203167Y0188180D01*
X0203212Y0188334D01*
X0203261Y0188487D01*
X0203314Y0188639D01*
X0203370Y0188790D01*
X0203431Y0188939D01*
X0203494Y0189087D01*
X0203562Y0189233D01*
X0203633Y0189377D01*
X0203707Y0189519D01*
X0203785Y0189660D01*
X0203867Y0189798D01*
X0203952Y0189935D01*
X0204040Y0190069D01*
X0204132Y0190201D01*
X0204227Y0190331D01*
X0204325Y0190459D01*
X0204426Y0190584D01*
X0204530Y0190706D01*
X0204637Y0190826D01*
X0204747Y0190943D01*
X0204860Y0191058D01*
X0204976Y0191169D01*
X0205095Y0191278D01*
X0205216Y0191383D01*
X0205340Y0191486D01*
X0205466Y0191586D01*
X0205594Y0191682D01*
X0205725Y0191775D01*
X0205859Y0191865D01*
X0205994Y0191952D01*
X0206132Y0192035D01*
X0206271Y0192115D01*
X0206413Y0192191D01*
X0206556Y0192264D01*
X0206701Y0192333D01*
X0206848Y0192399D01*
X0206996Y0192461D01*
X0207146Y0192519D01*
X0207297Y0192574D01*
X0207450Y0192625D01*
X0207604Y0192672D01*
X0207759Y0192715D01*
X0207915Y0192754D01*
X0208071Y0192790D01*
X0208229Y0192821D01*
X0208387Y0192849D01*
X0208546Y0192873D01*
X0208706Y0192893D01*
X0208866Y0192909D01*
X0209026Y0192921D01*
X0209187Y0192929D01*
X0209348Y0192933D01*
X0209508Y0192933D01*
X0209669Y0192929D01*
X0209830Y0192921D01*
X0209990Y0192909D01*
X0210150Y0192893D01*
X0210310Y0192873D01*
X0210469Y0192849D01*
X0210627Y0192821D01*
X0210785Y0192790D01*
X0210941Y0192754D01*
X0211097Y0192715D01*
X0211252Y0192672D01*
X0211406Y0192625D01*
X0211559Y0192574D01*
X0211710Y0192519D01*
X0211860Y0192461D01*
X0212008Y0192399D01*
X0212155Y0192333D01*
X0212300Y0192264D01*
X0212443Y0192191D01*
X0212585Y0192115D01*
X0212724Y0192035D01*
X0212862Y0191952D01*
X0212997Y0191865D01*
X0213131Y0191775D01*
X0213262Y0191682D01*
X0213390Y0191586D01*
X0213516Y0191486D01*
X0213640Y0191383D01*
X0213761Y0191278D01*
X0213880Y0191169D01*
X0213996Y0191058D01*
X0214109Y0190943D01*
X0214219Y0190826D01*
X0214326Y0190706D01*
X0214430Y0190584D01*
X0214531Y0190459D01*
X0214629Y0190331D01*
X0214724Y0190201D01*
X0214816Y0190069D01*
X0214904Y0189935D01*
X0214989Y0189798D01*
X0215071Y0189660D01*
X0215149Y0189519D01*
X0215223Y0189377D01*
X0215294Y0189233D01*
X0215362Y0189087D01*
X0215425Y0188939D01*
X0215486Y0188790D01*
X0215542Y0188639D01*
X0215595Y0188487D01*
X0215644Y0188334D01*
X0215689Y0188180D01*
X0215730Y0188025D01*
X0215768Y0187868D01*
X0215801Y0187711D01*
X0215831Y0187553D01*
X0215857Y0187394D01*
X0215878Y0187235D01*
X0215896Y0187075D01*
X0215910Y0186915D01*
X0215920Y0186754D01*
X0215926Y0186594D01*
X0215928Y0186433D01*
X0215926Y0186272D01*
X0215920Y0186112D01*
X0215910Y0185951D01*
X0215896Y0185791D01*
X0215878Y0185631D01*
X0215857Y0185472D01*
X0215831Y0185313D01*
X0215801Y0185155D01*
X0215768Y0184998D01*
X0215730Y0184841D01*
X0215689Y0184686D01*
X0215644Y0184532D01*
X0215595Y0184379D01*
X0215542Y0184227D01*
X0215486Y0184076D01*
X0215425Y0183927D01*
X0215362Y0183779D01*
X0215294Y0183633D01*
X0215223Y0183489D01*
X0215149Y0183347D01*
X0215071Y0183206D01*
X0214989Y0183068D01*
X0214904Y0182931D01*
X0214816Y0182797D01*
X0214724Y0182665D01*
X0214629Y0182535D01*
X0214531Y0182407D01*
X0214430Y0182282D01*
X0214326Y0182160D01*
X0214219Y0182040D01*
X0214109Y0181923D01*
X0213996Y0181808D01*
X0213880Y0181697D01*
X0213761Y0181588D01*
X0213640Y0181483D01*
X0213516Y0181380D01*
X0213390Y0181280D01*
X0213262Y0181184D01*
X0213131Y0181091D01*
X0212997Y0181001D01*
X0212862Y0180914D01*
X0212724Y0180831D01*
X0212585Y0180751D01*
X0212443Y0180675D01*
X0212300Y0180602D01*
X0212155Y0180533D01*
X0212008Y0180467D01*
X0211860Y0180405D01*
X0211710Y0180347D01*
X0211559Y0180292D01*
X0211406Y0180241D01*
X0211252Y0180194D01*
X0211097Y0180151D01*
X0210941Y0180112D01*
X0210785Y0180076D01*
X0210627Y0180045D01*
X0210469Y0180017D01*
X0210310Y0179993D01*
X0210150Y0179973D01*
X0209990Y0179957D01*
X0209830Y0179945D01*
X0209669Y0179937D01*
X0209508Y0179933D01*
X0209348Y0179933D01*
X0209187Y0179937D01*
X0209026Y0179945D01*
X0208866Y0179957D01*
X0208706Y0179973D01*
X0208546Y0179993D01*
X0208387Y0180017D01*
X0208229Y0180045D01*
X0208071Y0180076D01*
X0207915Y0180112D01*
X0207759Y0180151D01*
X0207604Y0180194D01*
X0207450Y0180241D01*
X0207297Y0180292D01*
X0207146Y0180347D01*
X0206996Y0180405D01*
X0206848Y0180467D01*
X0206701Y0180533D01*
X0206556Y0180602D01*
X0206413Y0180675D01*
X0206271Y0180751D01*
X0206132Y0180831D01*
X0205994Y0180914D01*
X0205859Y0181001D01*
X0205725Y0181091D01*
X0205594Y0181184D01*
X0205466Y0181280D01*
X0205340Y0181380D01*
X0205216Y0181483D01*
X0205095Y0181588D01*
X0204976Y0181697D01*
X0204860Y0181808D01*
X0204747Y0181923D01*
X0204637Y0182040D01*
X0204530Y0182160D01*
X0204426Y0182282D01*
X0204325Y0182407D01*
X0204227Y0182535D01*
X0204132Y0182665D01*
X0204040Y0182797D01*
X0203952Y0182931D01*
X0203867Y0183068D01*
X0203785Y0183206D01*
X0203707Y0183347D01*
X0203633Y0183489D01*
X0203562Y0183633D01*
X0203494Y0183779D01*
X0203431Y0183927D01*
X0203370Y0184076D01*
X0203314Y0184227D01*
X0203261Y0184379D01*
X0203212Y0184532D01*
X0203167Y0184686D01*
X0203126Y0184841D01*
X0203088Y0184998D01*
X0203055Y0185155D01*
X0203025Y0185313D01*
X0202999Y0185472D01*
X0202978Y0185631D01*
X0202960Y0185791D01*
X0202946Y0185951D01*
X0202936Y0186112D01*
X0202930Y0186272D01*
X0202928Y0186433D01*
X0247928Y0186433D02*
X0247930Y0186594D01*
X0247936Y0186754D01*
X0247946Y0186915D01*
X0247960Y0187075D01*
X0247978Y0187235D01*
X0247999Y0187394D01*
X0248025Y0187553D01*
X0248055Y0187711D01*
X0248088Y0187868D01*
X0248126Y0188025D01*
X0248167Y0188180D01*
X0248212Y0188334D01*
X0248261Y0188487D01*
X0248314Y0188639D01*
X0248370Y0188790D01*
X0248431Y0188939D01*
X0248494Y0189087D01*
X0248562Y0189233D01*
X0248633Y0189377D01*
X0248707Y0189519D01*
X0248785Y0189660D01*
X0248867Y0189798D01*
X0248952Y0189935D01*
X0249040Y0190069D01*
X0249132Y0190201D01*
X0249227Y0190331D01*
X0249325Y0190459D01*
X0249426Y0190584D01*
X0249530Y0190706D01*
X0249637Y0190826D01*
X0249747Y0190943D01*
X0249860Y0191058D01*
X0249976Y0191169D01*
X0250095Y0191278D01*
X0250216Y0191383D01*
X0250340Y0191486D01*
X0250466Y0191586D01*
X0250594Y0191682D01*
X0250725Y0191775D01*
X0250859Y0191865D01*
X0250994Y0191952D01*
X0251132Y0192035D01*
X0251271Y0192115D01*
X0251413Y0192191D01*
X0251556Y0192264D01*
X0251701Y0192333D01*
X0251848Y0192399D01*
X0251996Y0192461D01*
X0252146Y0192519D01*
X0252297Y0192574D01*
X0252450Y0192625D01*
X0252604Y0192672D01*
X0252759Y0192715D01*
X0252915Y0192754D01*
X0253071Y0192790D01*
X0253229Y0192821D01*
X0253387Y0192849D01*
X0253546Y0192873D01*
X0253706Y0192893D01*
X0253866Y0192909D01*
X0254026Y0192921D01*
X0254187Y0192929D01*
X0254348Y0192933D01*
X0254508Y0192933D01*
X0254669Y0192929D01*
X0254830Y0192921D01*
X0254990Y0192909D01*
X0255150Y0192893D01*
X0255310Y0192873D01*
X0255469Y0192849D01*
X0255627Y0192821D01*
X0255785Y0192790D01*
X0255941Y0192754D01*
X0256097Y0192715D01*
X0256252Y0192672D01*
X0256406Y0192625D01*
X0256559Y0192574D01*
X0256710Y0192519D01*
X0256860Y0192461D01*
X0257008Y0192399D01*
X0257155Y0192333D01*
X0257300Y0192264D01*
X0257443Y0192191D01*
X0257585Y0192115D01*
X0257724Y0192035D01*
X0257862Y0191952D01*
X0257997Y0191865D01*
X0258131Y0191775D01*
X0258262Y0191682D01*
X0258390Y0191586D01*
X0258516Y0191486D01*
X0258640Y0191383D01*
X0258761Y0191278D01*
X0258880Y0191169D01*
X0258996Y0191058D01*
X0259109Y0190943D01*
X0259219Y0190826D01*
X0259326Y0190706D01*
X0259430Y0190584D01*
X0259531Y0190459D01*
X0259629Y0190331D01*
X0259724Y0190201D01*
X0259816Y0190069D01*
X0259904Y0189935D01*
X0259989Y0189798D01*
X0260071Y0189660D01*
X0260149Y0189519D01*
X0260223Y0189377D01*
X0260294Y0189233D01*
X0260362Y0189087D01*
X0260425Y0188939D01*
X0260486Y0188790D01*
X0260542Y0188639D01*
X0260595Y0188487D01*
X0260644Y0188334D01*
X0260689Y0188180D01*
X0260730Y0188025D01*
X0260768Y0187868D01*
X0260801Y0187711D01*
X0260831Y0187553D01*
X0260857Y0187394D01*
X0260878Y0187235D01*
X0260896Y0187075D01*
X0260910Y0186915D01*
X0260920Y0186754D01*
X0260926Y0186594D01*
X0260928Y0186433D01*
X0260926Y0186272D01*
X0260920Y0186112D01*
X0260910Y0185951D01*
X0260896Y0185791D01*
X0260878Y0185631D01*
X0260857Y0185472D01*
X0260831Y0185313D01*
X0260801Y0185155D01*
X0260768Y0184998D01*
X0260730Y0184841D01*
X0260689Y0184686D01*
X0260644Y0184532D01*
X0260595Y0184379D01*
X0260542Y0184227D01*
X0260486Y0184076D01*
X0260425Y0183927D01*
X0260362Y0183779D01*
X0260294Y0183633D01*
X0260223Y0183489D01*
X0260149Y0183347D01*
X0260071Y0183206D01*
X0259989Y0183068D01*
X0259904Y0182931D01*
X0259816Y0182797D01*
X0259724Y0182665D01*
X0259629Y0182535D01*
X0259531Y0182407D01*
X0259430Y0182282D01*
X0259326Y0182160D01*
X0259219Y0182040D01*
X0259109Y0181923D01*
X0258996Y0181808D01*
X0258880Y0181697D01*
X0258761Y0181588D01*
X0258640Y0181483D01*
X0258516Y0181380D01*
X0258390Y0181280D01*
X0258262Y0181184D01*
X0258131Y0181091D01*
X0257997Y0181001D01*
X0257862Y0180914D01*
X0257724Y0180831D01*
X0257585Y0180751D01*
X0257443Y0180675D01*
X0257300Y0180602D01*
X0257155Y0180533D01*
X0257008Y0180467D01*
X0256860Y0180405D01*
X0256710Y0180347D01*
X0256559Y0180292D01*
X0256406Y0180241D01*
X0256252Y0180194D01*
X0256097Y0180151D01*
X0255941Y0180112D01*
X0255785Y0180076D01*
X0255627Y0180045D01*
X0255469Y0180017D01*
X0255310Y0179993D01*
X0255150Y0179973D01*
X0254990Y0179957D01*
X0254830Y0179945D01*
X0254669Y0179937D01*
X0254508Y0179933D01*
X0254348Y0179933D01*
X0254187Y0179937D01*
X0254026Y0179945D01*
X0253866Y0179957D01*
X0253706Y0179973D01*
X0253546Y0179993D01*
X0253387Y0180017D01*
X0253229Y0180045D01*
X0253071Y0180076D01*
X0252915Y0180112D01*
X0252759Y0180151D01*
X0252604Y0180194D01*
X0252450Y0180241D01*
X0252297Y0180292D01*
X0252146Y0180347D01*
X0251996Y0180405D01*
X0251848Y0180467D01*
X0251701Y0180533D01*
X0251556Y0180602D01*
X0251413Y0180675D01*
X0251271Y0180751D01*
X0251132Y0180831D01*
X0250994Y0180914D01*
X0250859Y0181001D01*
X0250725Y0181091D01*
X0250594Y0181184D01*
X0250466Y0181280D01*
X0250340Y0181380D01*
X0250216Y0181483D01*
X0250095Y0181588D01*
X0249976Y0181697D01*
X0249860Y0181808D01*
X0249747Y0181923D01*
X0249637Y0182040D01*
X0249530Y0182160D01*
X0249426Y0182282D01*
X0249325Y0182407D01*
X0249227Y0182535D01*
X0249132Y0182665D01*
X0249040Y0182797D01*
X0248952Y0182931D01*
X0248867Y0183068D01*
X0248785Y0183206D01*
X0248707Y0183347D01*
X0248633Y0183489D01*
X0248562Y0183633D01*
X0248494Y0183779D01*
X0248431Y0183927D01*
X0248370Y0184076D01*
X0248314Y0184227D01*
X0248261Y0184379D01*
X0248212Y0184532D01*
X0248167Y0184686D01*
X0248126Y0184841D01*
X0248088Y0184998D01*
X0248055Y0185155D01*
X0248025Y0185313D01*
X0247999Y0185472D01*
X0247978Y0185631D01*
X0247960Y0185791D01*
X0247946Y0185951D01*
X0247936Y0186112D01*
X0247930Y0186272D01*
X0247928Y0186433D01*
D11*
X0019428Y0012433D02*
X0001751Y0012433D01*
X0009428Y0012689D02*
X0010452Y0022670D01*
X0010685Y0022670D02*
X0009428Y0012689D01*
X0008405Y0022670D01*
X0008172Y0022670D02*
X0010685Y0022670D01*
X0009940Y0022670D02*
X0009428Y0012689D01*
X0008917Y0022670D01*
X0008172Y0022670D02*
X0009428Y0012689D01*
X0009428Y0207138D01*
X0010452Y0197158D01*
X0010685Y0197158D02*
X0009428Y0207138D01*
X0008405Y0197158D01*
X0008172Y0197158D02*
X0010685Y0197158D01*
X0009940Y0197158D02*
X0009428Y0207138D01*
X0008917Y0197158D01*
X0008172Y0197158D02*
X0009428Y0207138D01*
X0001751Y0207394D02*
X0019428Y0207394D01*
X0019428Y0202433D02*
X0019428Y0230110D01*
X0019684Y0222433D02*
X0029665Y0223457D01*
X0029665Y0223690D02*
X0029665Y0221176D01*
X0019684Y0222433D01*
X0029665Y0221410D01*
X0029665Y0221922D02*
X0019684Y0222433D01*
X0029665Y0222945D01*
X0029665Y0223690D02*
X0019684Y0222433D01*
X0327873Y0222433D01*
X0317893Y0221410D01*
X0317893Y0221176D02*
X0327873Y0222433D01*
X0317893Y0223457D01*
X0317893Y0223690D02*
X0317893Y0221176D01*
X0317893Y0221922D02*
X0327873Y0222433D01*
X0317893Y0222945D01*
X0317893Y0223690D02*
X0327873Y0222433D01*
X0328129Y0230110D02*
X0328129Y0207394D01*
D12*
X0187435Y0224395D02*
X0187435Y0226697D01*
X0186667Y0227464D01*
X0185900Y0226697D01*
X0185900Y0224395D01*
X0184365Y0224395D02*
X0184365Y0227464D01*
X0185133Y0227464D01*
X0185900Y0226697D01*
X0182831Y0226697D02*
X0182831Y0224395D01*
X0181296Y0224395D02*
X0181296Y0226697D01*
X0182063Y0227464D01*
X0182831Y0226697D01*
X0181296Y0226697D02*
X0180529Y0227464D01*
X0179761Y0227464D01*
X0179761Y0224395D01*
X0178227Y0224395D02*
X0175158Y0224395D01*
X0176692Y0224395D02*
X0176692Y0228999D01*
X0175158Y0227464D01*
X0173623Y0226697D02*
X0170554Y0226697D01*
X0172856Y0228999D01*
X0172856Y0224395D01*
X0169019Y0224395D02*
X0169019Y0225162D01*
X0168252Y0225162D01*
X0168252Y0224395D01*
X0169019Y0224395D01*
X0166717Y0225162D02*
X0165950Y0224395D01*
X0164415Y0224395D01*
X0163648Y0225162D01*
X0163648Y0225930D01*
X0164415Y0226697D01*
X0165950Y0226697D01*
X0166717Y0225930D01*
X0166717Y0225162D01*
X0165950Y0226697D02*
X0166717Y0227464D01*
X0166717Y0228232D01*
X0165950Y0228999D01*
X0164415Y0228999D01*
X0163648Y0228232D01*
X0163648Y0227464D01*
X0164415Y0226697D01*
X0162113Y0228232D02*
X0159044Y0225162D01*
X0159044Y0224395D01*
X0159044Y0228999D02*
X0162113Y0228999D01*
X0162113Y0228232D01*
X0007467Y0123569D02*
X0005165Y0123569D01*
X0004397Y0122802D01*
X0005165Y0122035D01*
X0007467Y0122035D01*
X0007467Y0120500D02*
X0004397Y0120500D01*
X0004397Y0121268D01*
X0005165Y0122035D01*
X0005165Y0118966D02*
X0007467Y0118966D01*
X0007467Y0117431D02*
X0005165Y0117431D01*
X0004397Y0118198D01*
X0005165Y0118966D01*
X0005165Y0117431D02*
X0004397Y0116664D01*
X0004397Y0115896D01*
X0007467Y0115896D01*
X0007467Y0114362D02*
X0007467Y0111292D01*
X0004397Y0114362D01*
X0003630Y0114362D01*
X0002863Y0113594D01*
X0002863Y0112060D01*
X0003630Y0111292D01*
X0002863Y0109758D02*
X0002863Y0106688D01*
X0005165Y0106688D01*
X0004397Y0108223D01*
X0004397Y0108990D01*
X0005165Y0109758D01*
X0006699Y0109758D01*
X0007467Y0108990D01*
X0007467Y0107456D01*
X0006699Y0106688D01*
X0006699Y0105154D02*
X0007467Y0105154D01*
X0007467Y0104386D01*
X0006699Y0104386D01*
X0006699Y0105154D01*
X0006699Y0102852D02*
X0003630Y0102852D01*
X0002863Y0102084D01*
X0002863Y0100550D01*
X0003630Y0099783D01*
X0004397Y0099783D01*
X0005165Y0100550D01*
X0005165Y0102852D01*
X0006699Y0102852D02*
X0007467Y0102084D01*
X0007467Y0100550D01*
X0006699Y0099783D01*
X0005165Y0098248D02*
X0005165Y0095179D01*
X0002863Y0097481D01*
X0007467Y0097481D01*
D13*
X0094428Y0087433D03*
X0104428Y0087433D03*
X0104428Y0062433D03*
X0094428Y0062433D03*
X0119428Y0127433D03*
X0129428Y0127433D03*
D14*
X0314428Y0102433D03*
D15*
X0314428Y0112433D03*
D16*
X0069428Y0027433D03*
X0069428Y0017433D03*
D17*
X0184428Y0023133D03*
D18*
X0194428Y0023133D03*
X0204428Y0023133D03*
D19*
X0067028Y0072433D02*
X0061828Y0072433D01*
X0061828Y0082433D02*
X0067028Y0082433D01*
X0067028Y0092433D02*
X0061828Y0092433D01*
X0061828Y0102433D02*
X0067028Y0102433D01*
X0067028Y0112433D02*
X0061828Y0112433D01*
X0061828Y0122433D02*
X0067028Y0122433D01*
X0067028Y0132433D02*
X0061828Y0132433D01*
X0037028Y0132433D02*
X0031828Y0132433D01*
X0031828Y0122433D02*
X0037028Y0122433D01*
X0037028Y0112433D02*
X0031828Y0112433D01*
X0031828Y0102433D02*
X0037028Y0102433D01*
X0037028Y0092433D02*
X0031828Y0092433D01*
X0031828Y0082433D02*
X0037028Y0082433D01*
X0037028Y0072433D02*
X0031828Y0072433D01*
X0039428Y0055033D02*
X0039428Y0049833D01*
X0049428Y0049833D02*
X0049428Y0055033D01*
X0049428Y0025033D02*
X0049428Y0019833D01*
X0039428Y0019833D02*
X0039428Y0025033D01*
D20*
X0079428Y0037433D03*
X0114428Y0057433D03*
X0114578Y0072833D03*
X0114428Y0087433D03*
X0114428Y0102433D03*
X0079428Y0087433D03*
X0164428Y0087433D03*
X0164578Y0072833D03*
X0179428Y0062433D03*
X0189428Y0062433D03*
X0199428Y0062433D03*
X0209428Y0062433D03*
X0164428Y0057433D03*
X0164428Y0102433D03*
X0179428Y0102433D03*
X0189428Y0102433D03*
X0199428Y0102433D03*
X0209428Y0102433D03*
D21*
X0134448Y0151862D02*
X0132440Y0151862D01*
X0134448Y0151862D02*
X0134448Y0151824D01*
X0132440Y0151824D01*
X0132440Y0151862D01*
X0132440Y0157767D02*
X0134448Y0157767D01*
X0134448Y0157729D01*
X0132440Y0157729D01*
X0132440Y0157767D01*
X0132440Y0163673D02*
X0134448Y0163673D01*
X0134448Y0163635D01*
X0132440Y0163635D01*
X0132440Y0163673D01*
X0132440Y0169578D02*
X0134448Y0169578D01*
X0134448Y0169540D01*
X0132440Y0169540D01*
X0132440Y0169578D01*
X0132440Y0175484D02*
X0134448Y0175484D01*
X0134448Y0175446D01*
X0132440Y0175446D01*
X0132440Y0175484D01*
X0132440Y0181389D02*
X0134448Y0181389D01*
X0134448Y0181351D01*
X0132440Y0181351D01*
X0132440Y0181389D01*
X0132440Y0187295D02*
X0134448Y0187295D01*
X0134448Y0187257D01*
X0132440Y0187257D01*
X0132440Y0187295D01*
X0132440Y0193200D02*
X0134448Y0193200D01*
X0134448Y0193162D01*
X0132440Y0193162D01*
X0132440Y0193200D01*
X0125276Y0198083D02*
X0125276Y0200091D01*
X0125314Y0200091D01*
X0125314Y0198083D01*
X0125276Y0198083D01*
X0119370Y0198083D02*
X0119370Y0200091D01*
X0119408Y0200091D01*
X0119408Y0198083D01*
X0119370Y0198083D01*
X0113465Y0198083D02*
X0113465Y0200091D01*
X0113503Y0200091D01*
X0113503Y0198083D01*
X0113465Y0198083D01*
X0107559Y0198083D02*
X0107559Y0200091D01*
X0107597Y0200091D01*
X0107597Y0198083D01*
X0107559Y0198083D01*
X0101654Y0198083D02*
X0101654Y0200091D01*
X0101692Y0200091D01*
X0101692Y0198083D01*
X0101654Y0198083D01*
X0095748Y0198083D02*
X0095748Y0200091D01*
X0095786Y0200091D01*
X0095786Y0198083D01*
X0095748Y0198083D01*
X0089843Y0198083D02*
X0089843Y0200091D01*
X0089881Y0200091D01*
X0089881Y0198083D01*
X0089843Y0198083D01*
X0083937Y0198083D02*
X0083937Y0200091D01*
X0083975Y0200091D01*
X0083975Y0198083D01*
X0083937Y0198083D01*
X0078032Y0198083D02*
X0078032Y0200091D01*
X0078070Y0200091D01*
X0078070Y0198083D01*
X0078032Y0198083D01*
X0072126Y0198083D02*
X0072126Y0200091D01*
X0072164Y0200091D01*
X0072164Y0198083D01*
X0072126Y0198083D01*
X0066220Y0198083D02*
X0066220Y0200091D01*
X0066258Y0200091D01*
X0066258Y0198083D01*
X0066220Y0198083D01*
X0060315Y0198083D02*
X0060315Y0200091D01*
X0060353Y0200091D01*
X0060353Y0198083D01*
X0060315Y0198083D01*
X0054409Y0198083D02*
X0054409Y0200091D01*
X0054447Y0200091D01*
X0054447Y0198083D01*
X0054409Y0198083D01*
X0054447Y0146784D02*
X0054447Y0144776D01*
X0054409Y0144776D01*
X0054409Y0146784D01*
X0054447Y0146784D01*
X0060353Y0146784D02*
X0060353Y0144776D01*
X0060315Y0144776D01*
X0060315Y0146784D01*
X0060353Y0146784D01*
X0066258Y0146784D02*
X0066258Y0144776D01*
X0066220Y0144776D01*
X0066220Y0146784D01*
X0066258Y0146784D01*
X0072164Y0146784D02*
X0072164Y0144776D01*
X0072126Y0144776D01*
X0072126Y0146784D01*
X0072164Y0146784D01*
X0078070Y0146784D02*
X0078070Y0144776D01*
X0078032Y0144776D01*
X0078032Y0146784D01*
X0078070Y0146784D01*
X0083975Y0146784D02*
X0083975Y0144776D01*
X0083937Y0144776D01*
X0083937Y0146784D01*
X0083975Y0146784D01*
X0089881Y0146784D02*
X0089881Y0144776D01*
X0089843Y0144776D01*
X0089843Y0146784D01*
X0089881Y0146784D01*
X0095786Y0146784D02*
X0095786Y0144776D01*
X0095748Y0144776D01*
X0095748Y0146784D01*
X0095786Y0146784D01*
X0101692Y0146784D02*
X0101692Y0144776D01*
X0101654Y0144776D01*
X0101654Y0146784D01*
X0101692Y0146784D01*
X0107597Y0146784D02*
X0107597Y0144776D01*
X0107559Y0144776D01*
X0107559Y0146784D01*
X0107597Y0146784D01*
X0113503Y0146784D02*
X0113503Y0144776D01*
X0113465Y0144776D01*
X0113465Y0146784D01*
X0113503Y0146784D01*
X0119408Y0146784D02*
X0119408Y0144776D01*
X0119370Y0144776D01*
X0119370Y0146784D01*
X0119408Y0146784D01*
X0125314Y0146784D02*
X0125314Y0144776D01*
X0125276Y0144776D01*
X0125276Y0146784D01*
X0125314Y0146784D01*
D22*
X0311428Y0167433D02*
X0317428Y0167433D01*
X0317428Y0177433D02*
X0311428Y0177433D01*
X0311428Y0187433D02*
X0317428Y0187433D01*
X0317428Y0197433D02*
X0311428Y0197433D01*
D23*
X0149428Y0037433D03*
X0139428Y0037433D03*
X0129428Y0037433D03*
X0119428Y0037433D03*
X0109428Y0037433D03*
X0109428Y0027433D03*
X0119428Y0027433D03*
X0129428Y0027433D03*
X0139428Y0027433D03*
X0149428Y0027433D03*
D24*
X0285491Y0137433D03*
X0308326Y0137433D03*
X0297302Y0156331D03*
D25*
X0224310Y0062433D03*
D26*
X0303051Y0062433D03*
D27*
X0099128Y0109933D03*
X0099128Y0114933D03*
X0099128Y0119933D03*
X0099128Y0124933D03*
X0079728Y0124933D03*
X0079728Y0119933D03*
X0079728Y0114933D03*
X0079728Y0109933D03*
D28*
X0154428Y0114133D02*
X0154428Y0120733D01*
X0164428Y0120733D02*
X0164428Y0114133D01*
X0174428Y0114133D02*
X0174428Y0120733D01*
X0199428Y0120733D02*
X0199428Y0114133D01*
X0209428Y0114133D02*
X0209428Y0120733D01*
X0219428Y0120733D02*
X0219428Y0114133D01*
X0244428Y0114133D02*
X0244428Y0120733D01*
X0254428Y0120733D02*
X0254428Y0114133D01*
X0264428Y0114133D02*
X0264428Y0120733D01*
D29*
X0264228Y0118333D02*
X0256728Y0125833D01*
X0227928Y0125833D01*
X0219528Y0117433D01*
X0219428Y0117433D01*
X0210828Y0109033D02*
X0236028Y0109033D01*
X0244428Y0117433D01*
X0264228Y0117433D02*
X0264428Y0117433D01*
X0264228Y0117433D02*
X0264228Y0118333D01*
X0303228Y0101233D02*
X0314428Y0112433D01*
X0314328Y0112633D01*
X0314328Y0131233D01*
X0308328Y0137233D01*
X0308326Y0137433D01*
X0303228Y0101233D02*
X0303228Y0062533D01*
X0303051Y0062433D01*
X0210828Y0109033D02*
X0204228Y0102433D01*
X0199428Y0102433D01*
X0189428Y0102433D02*
X0189228Y0102433D01*
X0185628Y0098833D01*
X0177828Y0098833D01*
X0175728Y0100933D01*
X0175728Y0103933D01*
X0178728Y0106933D01*
X0178728Y0153133D01*
X0128628Y0203233D01*
X0124128Y0203233D01*
X0120228Y0199333D01*
X0119628Y0199333D01*
X0119389Y0199087D01*
X0119328Y0199333D01*
X0115428Y0203233D01*
X0106428Y0203233D01*
X0104628Y0201433D01*
X0104628Y0196933D01*
X0102828Y0195133D01*
X0086928Y0195133D01*
X0026628Y0134833D01*
X0026628Y0072433D01*
X0039228Y0059833D01*
X0039228Y0052633D01*
X0039428Y0052433D01*
X0049428Y0052433D02*
X0049428Y0052633D01*
X0056028Y0052633D01*
X0086028Y0082633D01*
X0086028Y0085033D01*
X0109128Y0108133D01*
X0118428Y0108133D01*
X0125028Y0114733D01*
X0125028Y0145633D01*
X0125295Y0145780D01*
X0119389Y0145780D02*
X0119328Y0145633D01*
X0119328Y0127633D01*
X0119428Y0127433D01*
X0119028Y0127633D01*
X0095028Y0127633D01*
X0087528Y0120133D01*
X0079728Y0120133D01*
X0079728Y0119933D01*
X0079728Y0115033D02*
X0074928Y0115033D01*
X0074928Y0108433D01*
X0079428Y0103933D01*
X0079428Y0087433D01*
X0083028Y0086833D02*
X0084528Y0088333D01*
X0084528Y0111733D01*
X0097728Y0124933D01*
X0099128Y0124933D01*
X0099128Y0119933D02*
X0098928Y0119833D01*
X0097728Y0119833D01*
X0085728Y0107833D01*
X0085728Y0086833D01*
X0083178Y0084283D01*
X0083928Y0083533D01*
X0083178Y0084283D02*
X0074928Y0076033D01*
X0038028Y0076033D01*
X0034428Y0072433D01*
X0064428Y0082433D02*
X0064428Y0082633D01*
X0079728Y0082633D01*
X0083028Y0085933D01*
X0083028Y0086833D01*
X0094428Y0087433D02*
X0094428Y0088033D01*
X0112728Y0106333D01*
X0160428Y0106333D01*
X0164328Y0102433D01*
X0164428Y0102433D01*
X0164628Y0102433D01*
X0164628Y0092833D01*
X0168528Y0088933D01*
X0168528Y0076933D01*
X0164628Y0073033D01*
X0164578Y0072833D01*
X0164328Y0072733D01*
X0164328Y0066433D01*
X0181128Y0066433D01*
X0185028Y0062533D01*
X0189228Y0062533D01*
X0189428Y0062433D01*
X0189528Y0062233D01*
X0204228Y0047533D01*
X0204228Y0023233D01*
X0204428Y0023133D01*
X0194428Y0023133D02*
X0190128Y0027433D01*
X0190128Y0027733D01*
X0180528Y0037333D01*
X0149628Y0037333D01*
X0149428Y0037433D01*
X0149328Y0037633D01*
X0139428Y0037633D01*
X0139428Y0037433D01*
X0139428Y0034033D01*
X0134028Y0028633D01*
X0134028Y0025333D01*
X0131328Y0022633D01*
X0083328Y0022633D01*
X0076878Y0029083D01*
X0075228Y0027433D01*
X0069428Y0027433D01*
X0054228Y0027433D01*
X0049428Y0022633D01*
X0049428Y0022433D01*
X0049428Y0022633D02*
X0039528Y0022633D01*
X0039428Y0022433D01*
X0076878Y0029083D02*
X0104328Y0056533D01*
X0104328Y0062233D01*
X0104428Y0062433D01*
X0104628Y0062533D01*
X0104628Y0087433D01*
X0104428Y0087433D01*
X0101328Y0091333D02*
X0115728Y0091333D01*
X0129228Y0077833D01*
X0129228Y0037633D01*
X0129428Y0037433D01*
X0134028Y0035233D02*
X0134028Y0082933D01*
X0114528Y0102433D01*
X0114428Y0102433D01*
X0106728Y0109933D02*
X0110628Y0113833D01*
X0110628Y0124933D01*
X0108528Y0114733D02*
X0099228Y0114733D01*
X0099128Y0114933D01*
X0099228Y0109933D02*
X0099128Y0109933D01*
X0099228Y0109933D02*
X0106728Y0109933D01*
X0099228Y0109933D02*
X0099228Y0101233D01*
X0094428Y0087433D02*
X0094428Y0062433D01*
X0094428Y0062233D01*
X0079428Y0047233D01*
X0079428Y0037433D01*
X0080628Y0028633D02*
X0108228Y0056233D01*
X0108228Y0071533D01*
X0114228Y0077533D01*
X0114228Y0087433D01*
X0114428Y0087433D01*
X0114578Y0072833D02*
X0114828Y0072733D01*
X0114828Y0062233D01*
X0118128Y0058933D01*
X0118128Y0042733D01*
X0114528Y0039133D01*
X0114528Y0032533D01*
X0109428Y0027433D01*
X0129428Y0027433D02*
X0129528Y0027433D01*
X0129528Y0030733D01*
X0134028Y0035233D01*
X0164328Y0057433D02*
X0164428Y0057433D01*
X0164328Y0057433D02*
X0164328Y0066433D01*
X0179428Y0102433D02*
X0184428Y0102433D01*
X0199428Y0117433D01*
X0174428Y0117433D02*
X0174228Y0117433D01*
X0174228Y0118333D01*
X0161328Y0131233D01*
X0133428Y0131233D01*
X0133278Y0131383D01*
X0133428Y0131533D01*
X0133428Y0151633D01*
X0133444Y0151843D01*
X0133728Y0151933D01*
X0137328Y0155533D01*
X0137328Y0188533D01*
X0133728Y0192133D01*
X0133728Y0193033D01*
X0133444Y0193181D01*
X0133428Y0193333D01*
X0127728Y0199033D01*
X0125328Y0199033D01*
X0125295Y0199087D01*
X0113484Y0199087D02*
X0113328Y0199033D01*
X0112728Y0199033D01*
X0067128Y0153433D01*
X0047028Y0153433D01*
X0027828Y0134233D01*
X0027828Y0119233D01*
X0034428Y0112633D01*
X0034428Y0112433D01*
X0034428Y0122433D02*
X0034428Y0122533D01*
X0041028Y0129133D01*
X0041028Y0137533D01*
X0053328Y0149833D01*
X0108828Y0149833D01*
X0112728Y0145933D01*
X0113328Y0145933D01*
X0113484Y0145780D01*
X0129528Y0127633D02*
X0133278Y0131383D01*
X0129528Y0127633D02*
X0129428Y0127433D01*
X0079728Y0115033D02*
X0079728Y0114933D01*
X0074928Y0115033D02*
X0071628Y0115033D01*
X0064428Y0122233D01*
X0064428Y0122433D01*
X0058128Y0118933D02*
X0064428Y0112633D01*
X0064428Y0112433D01*
X0058128Y0118933D02*
X0058128Y0133933D01*
X0060228Y0136033D01*
X0060228Y0145633D01*
X0060334Y0145780D01*
X0054528Y0145633D02*
X0054428Y0145780D01*
X0054528Y0145633D02*
X0054528Y0112333D01*
X0064428Y0102433D01*
D30*
X0083928Y0083533D03*
X0101328Y0091333D03*
X0099228Y0101233D03*
X0108528Y0114733D03*
X0110628Y0124933D03*
X0080628Y0028633D03*
D31*
X0078765Y0026820D02*
X0074528Y0026820D01*
X0074528Y0027433D02*
X0069429Y0027433D01*
X0069429Y0027433D01*
X0069429Y0022333D01*
X0071541Y0022333D01*
X0074528Y0025321D01*
X0074528Y0027433D01*
X0074528Y0029546D01*
X0071541Y0032533D01*
X0069429Y0032533D01*
X0069429Y0027433D01*
X0069428Y0027433D01*
X0064328Y0027433D01*
X0064328Y0025321D01*
X0067316Y0022333D01*
X0069428Y0022333D01*
X0069428Y0027433D01*
X0069428Y0027433D01*
X0064328Y0027433D01*
X0064328Y0029546D01*
X0067316Y0032533D01*
X0069428Y0032533D01*
X0069428Y0027433D01*
X0069429Y0027433D01*
X0074528Y0027433D01*
X0074528Y0028418D02*
X0078028Y0028418D01*
X0078028Y0028116D02*
X0078424Y0027161D01*
X0079156Y0026429D01*
X0080111Y0026033D01*
X0081146Y0026033D01*
X0082101Y0026429D01*
X0082833Y0027161D01*
X0083228Y0028116D01*
X0083228Y0028829D01*
X0109928Y0055529D01*
X0109928Y0070829D01*
X0110578Y0071479D01*
X0110578Y0071176D01*
X0112922Y0068833D01*
X0113128Y0068833D01*
X0113128Y0061529D01*
X0113224Y0061433D01*
X0112772Y0061433D01*
X0110428Y0059090D01*
X0110428Y0055776D01*
X0112772Y0053433D01*
X0116085Y0053433D01*
X0116428Y0053777D01*
X0116428Y0043437D01*
X0113824Y0040833D01*
X0113815Y0040824D01*
X0112544Y0042096D01*
X0110522Y0042933D01*
X0108334Y0042933D01*
X0106313Y0042096D01*
X0104766Y0040549D01*
X0103928Y0038527D01*
X0103928Y0036339D01*
X0104766Y0034318D01*
X0106313Y0032771D01*
X0107650Y0032217D01*
X0106540Y0031757D01*
X0105105Y0030322D01*
X0104328Y0028448D01*
X0104328Y0026419D01*
X0105105Y0024544D01*
X0106540Y0023110D01*
X0108414Y0022333D01*
X0110443Y0022333D01*
X0112317Y0023110D01*
X0113752Y0024544D01*
X0114428Y0026177D01*
X0115105Y0024544D01*
X0116540Y0023110D01*
X0118414Y0022333D01*
X0120443Y0022333D01*
X0122317Y0023110D01*
X0123752Y0024544D01*
X0124428Y0026177D01*
X0125105Y0024544D01*
X0126540Y0023110D01*
X0128414Y0022333D01*
X0130443Y0022333D01*
X0132317Y0023110D01*
X0133752Y0024544D01*
X0134428Y0026177D01*
X0135105Y0024544D01*
X0136540Y0023110D01*
X0138414Y0022333D01*
X0140443Y0022333D01*
X0142317Y0023110D01*
X0143752Y0024544D01*
X0144428Y0026177D01*
X0145105Y0024544D01*
X0146540Y0023110D01*
X0148414Y0022333D01*
X0150443Y0022333D01*
X0152317Y0023110D01*
X0153752Y0024544D01*
X0154528Y0026419D01*
X0154528Y0028448D01*
X0153752Y0030322D01*
X0152317Y0031757D01*
X0151192Y0032223D01*
X0151540Y0032336D01*
X0152311Y0032729D01*
X0153011Y0033238D01*
X0153624Y0033850D01*
X0154132Y0034551D01*
X0154526Y0035322D01*
X0154793Y0036145D01*
X0154928Y0037000D01*
X0154928Y0037233D01*
X0149629Y0037233D01*
X0149629Y0037633D01*
X0154928Y0037633D01*
X0154928Y0037866D01*
X0154793Y0038721D01*
X0154526Y0039545D01*
X0154132Y0040316D01*
X0153624Y0041016D01*
X0153011Y0041628D01*
X0152311Y0042137D01*
X0151540Y0042530D01*
X0150716Y0042798D01*
X0149861Y0042933D01*
X0149628Y0042933D01*
X0149628Y0037633D01*
X0149228Y0037633D01*
X0149228Y0037233D01*
X0143928Y0037233D01*
X0139629Y0037233D01*
X0139629Y0037633D01*
X0149228Y0037633D01*
X0149228Y0042933D01*
X0148996Y0042933D01*
X0148141Y0042798D01*
X0147317Y0042530D01*
X0146546Y0042137D01*
X0145845Y0041628D01*
X0145233Y0041016D01*
X0144724Y0040316D01*
X0144428Y0039735D01*
X0144132Y0040316D01*
X0143624Y0041016D01*
X0143011Y0041628D01*
X0142311Y0042137D01*
X0141540Y0042530D01*
X0140716Y0042798D01*
X0139861Y0042933D01*
X0139628Y0042933D01*
X0139628Y0037633D01*
X0139228Y0037633D01*
X0139228Y0042933D01*
X0138996Y0042933D01*
X0138141Y0042798D01*
X0137317Y0042530D01*
X0136546Y0042137D01*
X0135845Y0041628D01*
X0135728Y0041511D01*
X0135728Y0083637D01*
X0118428Y0100937D01*
X0118428Y0104090D01*
X0118285Y0104233D01*
X0159559Y0104233D01*
X0160028Y0103763D01*
X0160028Y0100611D01*
X0162528Y0098111D01*
X0162528Y0091963D01*
X0163059Y0091433D01*
X0162772Y0091433D01*
X0160428Y0089090D01*
X0160428Y0085776D01*
X0162772Y0083433D01*
X0166085Y0083433D01*
X0166428Y0083777D01*
X0166428Y0077803D01*
X0165859Y0077233D01*
X0162756Y0077233D01*
X0160178Y0074656D01*
X0160178Y0071011D01*
X0162228Y0068961D01*
X0162228Y0061456D01*
X0160028Y0059256D01*
X0160028Y0055611D01*
X0162606Y0053033D01*
X0166251Y0053033D01*
X0168828Y0055611D01*
X0168828Y0059256D01*
X0166428Y0061656D01*
X0166428Y0064333D01*
X0175672Y0064333D01*
X0175428Y0064090D01*
X0175428Y0060776D01*
X0177772Y0058433D01*
X0181085Y0058433D01*
X0183428Y0060776D01*
X0183428Y0061163D01*
X0184159Y0060433D01*
X0185206Y0060433D01*
X0187606Y0058033D01*
X0190759Y0058033D01*
X0202128Y0046663D01*
X0202128Y0028188D01*
X0201285Y0027838D01*
X0199723Y0026277D01*
X0199424Y0025554D01*
X0199175Y0026042D01*
X0198662Y0026749D01*
X0198044Y0027367D01*
X0197337Y0027880D01*
X0196559Y0028277D01*
X0195728Y0028547D01*
X0194878Y0028681D01*
X0194878Y0023583D01*
X0193978Y0023583D01*
X0193978Y0028681D01*
X0193129Y0028547D01*
X0192298Y0028277D01*
X0191520Y0027880D01*
X0190813Y0027367D01*
X0190478Y0027032D01*
X0190478Y0027836D01*
X0189131Y0029183D01*
X0179726Y0029183D01*
X0178378Y0027836D01*
X0178378Y0018431D01*
X0179376Y0017433D01*
X0074128Y0017433D01*
X0074128Y0019380D01*
X0071375Y0022133D01*
X0067482Y0022133D01*
X0064728Y0019380D01*
X0064728Y0017433D01*
X0053123Y0017433D01*
X0053192Y0017527D01*
X0053506Y0018144D01*
X0053720Y0018803D01*
X0053828Y0019487D01*
X0053828Y0022433D01*
X0049429Y0022433D01*
X0049429Y0022433D01*
X0053828Y0022433D01*
X0053828Y0025380D01*
X0053720Y0026064D01*
X0053506Y0026722D01*
X0053192Y0027339D01*
X0052785Y0027900D01*
X0052295Y0028389D01*
X0051735Y0028797D01*
X0051117Y0029111D01*
X0050459Y0029325D01*
X0049775Y0029433D01*
X0049429Y0029433D01*
X0049429Y0022433D01*
X0049428Y0022433D01*
X0045028Y0022433D01*
X0045028Y0019487D01*
X0045137Y0018803D01*
X0045351Y0018144D01*
X0045665Y0017527D01*
X0045733Y0017433D01*
X0043123Y0017433D01*
X0043192Y0017527D01*
X0043506Y0018144D01*
X0043720Y0018803D01*
X0043828Y0019487D01*
X0043828Y0022433D01*
X0039429Y0022433D01*
X0039429Y0022433D01*
X0043828Y0022433D01*
X0043828Y0025380D01*
X0043720Y0026064D01*
X0043506Y0026722D01*
X0043192Y0027339D01*
X0042785Y0027900D01*
X0042295Y0028389D01*
X0041735Y0028797D01*
X0041117Y0029111D01*
X0040459Y0029325D01*
X0039775Y0029433D01*
X0039429Y0029433D01*
X0039429Y0022433D01*
X0039428Y0022433D01*
X0035028Y0022433D01*
X0035028Y0019487D01*
X0035137Y0018803D01*
X0035351Y0018144D01*
X0035665Y0017527D01*
X0035733Y0017433D01*
X0024428Y0017433D01*
X0024428Y0137433D01*
X0026824Y0137433D01*
X0024928Y0135537D01*
X0024928Y0071729D01*
X0025924Y0070733D01*
X0037528Y0059129D01*
X0037528Y0058576D01*
X0037163Y0058424D01*
X0036037Y0057299D01*
X0035428Y0055829D01*
X0035428Y0049038D01*
X0036037Y0047568D01*
X0037163Y0046442D01*
X0038633Y0045833D01*
X0040224Y0045833D01*
X0041694Y0046442D01*
X0042820Y0047568D01*
X0043428Y0049038D01*
X0043428Y0055829D01*
X0042820Y0057299D01*
X0041694Y0058424D01*
X0040928Y0058742D01*
X0040928Y0060537D01*
X0033033Y0068433D01*
X0037824Y0068433D01*
X0039294Y0069042D01*
X0040420Y0070168D01*
X0041028Y0071638D01*
X0041028Y0073229D01*
X0040571Y0074333D01*
X0058286Y0074333D01*
X0057828Y0073229D01*
X0057828Y0071638D01*
X0058437Y0070168D01*
X0059563Y0069042D01*
X0061033Y0068433D01*
X0067824Y0068433D01*
X0069294Y0069042D01*
X0070420Y0070168D01*
X0071028Y0071638D01*
X0071028Y0073229D01*
X0070571Y0074333D01*
X0075324Y0074333D01*
X0055324Y0054333D01*
X0053428Y0054333D01*
X0053428Y0055829D01*
X0052820Y0057299D01*
X0051694Y0058424D01*
X0050224Y0059033D01*
X0048633Y0059033D01*
X0047163Y0058424D01*
X0046037Y0057299D01*
X0045428Y0055829D01*
X0045428Y0049038D01*
X0046037Y0047568D01*
X0047163Y0046442D01*
X0048633Y0045833D01*
X0050224Y0045833D01*
X0051694Y0046442D01*
X0052820Y0047568D01*
X0053428Y0049038D01*
X0053428Y0050933D01*
X0056733Y0050933D01*
X0057728Y0051929D01*
X0087728Y0081929D01*
X0087728Y0084329D01*
X0089828Y0086429D01*
X0089828Y0085528D01*
X0092328Y0083028D01*
X0092328Y0066839D01*
X0089828Y0064339D01*
X0089828Y0060603D01*
X0077328Y0048103D01*
X0077328Y0041556D01*
X0075028Y0039256D01*
X0075028Y0035611D01*
X0077606Y0033033D01*
X0081251Y0033033D01*
X0083828Y0035611D01*
X0083828Y0039256D01*
X0081528Y0041556D01*
X0081528Y0046363D01*
X0092998Y0057833D01*
X0096334Y0057833D01*
X0099028Y0060528D01*
X0099028Y0064339D01*
X0096528Y0066839D01*
X0096528Y0083028D01*
X0099028Y0085528D01*
X0099028Y0089339D01*
X0098866Y0089501D01*
X0099175Y0089810D01*
X0099828Y0089156D01*
X0099828Y0087433D01*
X0099828Y0085528D01*
X0102523Y0082833D01*
X0104428Y0082833D01*
X0104428Y0087433D01*
X0099828Y0087433D01*
X0104428Y0087433D01*
X0104428Y0087433D01*
X0104429Y0087433D01*
X0104429Y0087433D01*
X0109028Y0087433D01*
X0109028Y0085528D01*
X0106334Y0082833D01*
X0104429Y0082833D01*
X0104429Y0087433D01*
X0109028Y0087433D01*
X0109028Y0089339D01*
X0108734Y0089633D01*
X0110972Y0089633D01*
X0110428Y0089090D01*
X0110428Y0085776D01*
X0112528Y0083676D01*
X0112528Y0078237D01*
X0107524Y0073233D01*
X0106528Y0072237D01*
X0106528Y0066839D01*
X0106334Y0067033D01*
X0104429Y0067033D01*
X0104429Y0062433D01*
X0104429Y0057833D01*
X0106334Y0057833D01*
X0106528Y0058028D01*
X0106528Y0056937D01*
X0080824Y0031233D01*
X0080111Y0031233D01*
X0079156Y0030837D01*
X0078424Y0030106D01*
X0078028Y0029151D01*
X0078028Y0028116D01*
X0078387Y0030017D02*
X0074057Y0030017D01*
X0072459Y0031615D02*
X0081206Y0031615D01*
X0081432Y0033214D02*
X0082805Y0033214D01*
X0083030Y0034812D02*
X0084403Y0034812D01*
X0083828Y0036411D02*
X0086002Y0036411D01*
X0087600Y0038010D02*
X0083828Y0038010D01*
X0083476Y0039608D02*
X0089199Y0039608D01*
X0090798Y0041207D02*
X0081878Y0041207D01*
X0081528Y0042805D02*
X0092396Y0042805D01*
X0093995Y0044404D02*
X0081528Y0044404D01*
X0081528Y0046002D02*
X0095593Y0046002D01*
X0097192Y0047601D02*
X0082766Y0047601D01*
X0084364Y0049199D02*
X0098790Y0049199D01*
X0100389Y0050798D02*
X0085963Y0050798D01*
X0087561Y0052396D02*
X0101987Y0052396D01*
X0103586Y0053995D02*
X0089160Y0053995D01*
X0090758Y0055593D02*
X0105184Y0055593D01*
X0106528Y0057192D02*
X0092357Y0057192D01*
X0088015Y0058790D02*
X0064589Y0058790D01*
X0062991Y0057192D02*
X0086417Y0057192D01*
X0084818Y0055593D02*
X0061392Y0055593D01*
X0059794Y0053995D02*
X0083220Y0053995D01*
X0081621Y0052396D02*
X0058195Y0052396D01*
X0056584Y0055593D02*
X0053428Y0055593D01*
X0052864Y0057192D02*
X0058183Y0057192D01*
X0059781Y0058790D02*
X0050811Y0058790D01*
X0048046Y0058790D02*
X0040928Y0058790D01*
X0040928Y0060389D02*
X0061380Y0060389D01*
X0062978Y0061987D02*
X0039479Y0061987D01*
X0037880Y0063586D02*
X0064577Y0063586D01*
X0066175Y0065184D02*
X0036282Y0065184D01*
X0034683Y0066783D02*
X0067774Y0066783D01*
X0069372Y0068381D02*
X0033085Y0068381D01*
X0031473Y0065184D02*
X0024428Y0065184D01*
X0024428Y0063586D02*
X0033072Y0063586D01*
X0034670Y0061987D02*
X0024428Y0061987D01*
X0024428Y0060389D02*
X0036269Y0060389D01*
X0037528Y0058790D02*
X0024428Y0058790D01*
X0024428Y0057192D02*
X0035993Y0057192D01*
X0035428Y0055593D02*
X0024428Y0055593D01*
X0024428Y0053995D02*
X0035428Y0053995D01*
X0035428Y0052396D02*
X0024428Y0052396D01*
X0024428Y0050798D02*
X0035428Y0050798D01*
X0035428Y0049199D02*
X0024428Y0049199D01*
X0024428Y0047601D02*
X0036024Y0047601D01*
X0038225Y0046002D02*
X0024428Y0046002D01*
X0024428Y0044404D02*
X0077328Y0044404D01*
X0077328Y0046002D02*
X0050631Y0046002D01*
X0048225Y0046002D02*
X0040631Y0046002D01*
X0042833Y0047601D02*
X0046024Y0047601D01*
X0045428Y0049199D02*
X0043428Y0049199D01*
X0043428Y0050798D02*
X0045428Y0050798D01*
X0045428Y0052396D02*
X0043428Y0052396D01*
X0043428Y0053995D02*
X0045428Y0053995D01*
X0045428Y0055593D02*
X0043428Y0055593D01*
X0042864Y0057192D02*
X0045993Y0057192D01*
X0053428Y0050798D02*
X0080023Y0050798D01*
X0078424Y0049199D02*
X0053428Y0049199D01*
X0052833Y0047601D02*
X0077328Y0047601D01*
X0077328Y0042805D02*
X0024428Y0042805D01*
X0024428Y0041207D02*
X0076979Y0041207D01*
X0075381Y0039608D02*
X0024428Y0039608D01*
X0024428Y0038010D02*
X0075028Y0038010D01*
X0075028Y0036411D02*
X0024428Y0036411D01*
X0024428Y0034812D02*
X0075827Y0034812D01*
X0077425Y0033214D02*
X0024428Y0033214D01*
X0024428Y0031615D02*
X0066398Y0031615D01*
X0064800Y0030017D02*
X0024428Y0030017D01*
X0024428Y0028418D02*
X0036602Y0028418D01*
X0036562Y0028389D02*
X0036072Y0027900D01*
X0035665Y0027339D01*
X0035351Y0026722D01*
X0035137Y0026064D01*
X0035028Y0025380D01*
X0035028Y0022433D01*
X0039428Y0022433D01*
X0039428Y0022433D01*
X0039428Y0029433D01*
X0039082Y0029433D01*
X0038398Y0029325D01*
X0037739Y0029111D01*
X0037122Y0028797D01*
X0036562Y0028389D01*
X0035401Y0026820D02*
X0024428Y0026820D01*
X0024428Y0025221D02*
X0035028Y0025221D01*
X0035028Y0023623D02*
X0024428Y0023623D01*
X0024428Y0022024D02*
X0035028Y0022024D01*
X0035028Y0020426D02*
X0024428Y0020426D01*
X0024428Y0018827D02*
X0035133Y0018827D01*
X0039428Y0023623D02*
X0039429Y0023623D01*
X0039428Y0025221D02*
X0039429Y0025221D01*
X0039428Y0026820D02*
X0039429Y0026820D01*
X0039428Y0028418D02*
X0039429Y0028418D01*
X0042255Y0028418D02*
X0046602Y0028418D01*
X0046562Y0028389D02*
X0046072Y0027900D01*
X0045665Y0027339D01*
X0045351Y0026722D01*
X0045137Y0026064D01*
X0045028Y0025380D01*
X0045028Y0022433D01*
X0049428Y0022433D01*
X0049428Y0022433D01*
X0049428Y0029433D01*
X0049082Y0029433D01*
X0048398Y0029325D01*
X0047739Y0029111D01*
X0047122Y0028797D01*
X0046562Y0028389D01*
X0045401Y0026820D02*
X0043456Y0026820D01*
X0043828Y0025221D02*
X0045028Y0025221D01*
X0045028Y0023623D02*
X0043828Y0023623D01*
X0043828Y0022024D02*
X0045028Y0022024D01*
X0045028Y0020426D02*
X0043828Y0020426D01*
X0043724Y0018827D02*
X0045133Y0018827D01*
X0049428Y0023623D02*
X0049429Y0023623D01*
X0049428Y0025221D02*
X0049429Y0025221D01*
X0049428Y0026820D02*
X0049429Y0026820D01*
X0049428Y0028418D02*
X0049429Y0028418D01*
X0052255Y0028418D02*
X0064328Y0028418D01*
X0064328Y0026820D02*
X0053456Y0026820D01*
X0053828Y0025221D02*
X0064428Y0025221D01*
X0066026Y0023623D02*
X0053828Y0023623D01*
X0053828Y0022024D02*
X0067373Y0022024D01*
X0065774Y0020426D02*
X0053828Y0020426D01*
X0053724Y0018827D02*
X0064728Y0018827D01*
X0069428Y0023623D02*
X0069429Y0023623D01*
X0069428Y0025221D02*
X0069429Y0025221D01*
X0069428Y0026820D02*
X0069429Y0026820D01*
X0069428Y0028418D02*
X0069429Y0028418D01*
X0069428Y0030017D02*
X0069429Y0030017D01*
X0069428Y0031615D02*
X0069429Y0031615D01*
X0074429Y0025221D02*
X0104824Y0025221D01*
X0104328Y0026820D02*
X0082492Y0026820D01*
X0083228Y0028418D02*
X0104328Y0028418D01*
X0104978Y0030017D02*
X0084416Y0030017D01*
X0086015Y0031615D02*
X0106398Y0031615D01*
X0105870Y0033214D02*
X0087613Y0033214D01*
X0089212Y0034812D02*
X0104561Y0034812D01*
X0103928Y0036411D02*
X0090810Y0036411D01*
X0092409Y0038010D02*
X0103928Y0038010D01*
X0104376Y0039608D02*
X0094007Y0039608D01*
X0095606Y0041207D02*
X0105424Y0041207D01*
X0108025Y0042805D02*
X0097204Y0042805D01*
X0098803Y0044404D02*
X0116428Y0044404D01*
X0116428Y0046002D02*
X0100401Y0046002D01*
X0102000Y0047601D02*
X0116428Y0047601D01*
X0116428Y0049199D02*
X0103598Y0049199D01*
X0105197Y0050798D02*
X0116428Y0050798D01*
X0116428Y0052396D02*
X0106795Y0052396D01*
X0108394Y0053995D02*
X0112210Y0053995D01*
X0110612Y0055593D02*
X0109928Y0055593D01*
X0109928Y0057192D02*
X0110428Y0057192D01*
X0110428Y0058790D02*
X0109928Y0058790D01*
X0109928Y0060389D02*
X0111727Y0060389D01*
X0113128Y0061987D02*
X0109928Y0061987D01*
X0109928Y0063586D02*
X0113128Y0063586D01*
X0113128Y0065184D02*
X0109928Y0065184D01*
X0109928Y0066783D02*
X0113128Y0066783D01*
X0113128Y0068381D02*
X0109928Y0068381D01*
X0109928Y0069980D02*
X0111775Y0069980D01*
X0107468Y0073177D02*
X0096528Y0073177D01*
X0096528Y0074775D02*
X0109066Y0074775D01*
X0110665Y0076374D02*
X0096528Y0076374D01*
X0096528Y0077972D02*
X0112263Y0077972D01*
X0112528Y0079571D02*
X0096528Y0079571D01*
X0096528Y0081169D02*
X0112528Y0081169D01*
X0112528Y0082768D02*
X0096528Y0082768D01*
X0097867Y0084366D02*
X0100990Y0084366D01*
X0099828Y0085965D02*
X0099028Y0085965D01*
X0099028Y0087563D02*
X0099828Y0087563D01*
X0099823Y0089162D02*
X0099028Y0089162D01*
X0104428Y0085965D02*
X0104429Y0085965D01*
X0104428Y0084366D02*
X0104429Y0084366D01*
X0107867Y0084366D02*
X0111839Y0084366D01*
X0110428Y0085965D02*
X0109028Y0085965D01*
X0109028Y0087563D02*
X0110428Y0087563D01*
X0110500Y0089162D02*
X0109028Y0089162D01*
X0120613Y0098753D02*
X0161886Y0098753D01*
X0162528Y0097154D02*
X0122212Y0097154D01*
X0123810Y0095556D02*
X0162528Y0095556D01*
X0162528Y0093957D02*
X0125409Y0093957D01*
X0127007Y0092359D02*
X0162528Y0092359D01*
X0162099Y0090760D02*
X0128606Y0090760D01*
X0130204Y0089162D02*
X0160500Y0089162D01*
X0160428Y0087563D02*
X0131803Y0087563D01*
X0133401Y0085965D02*
X0160428Y0085965D01*
X0161839Y0084366D02*
X0135000Y0084366D01*
X0135728Y0082768D02*
X0166428Y0082768D01*
X0166428Y0081169D02*
X0135728Y0081169D01*
X0135728Y0079571D02*
X0166428Y0079571D01*
X0166428Y0077972D02*
X0135728Y0077972D01*
X0135728Y0076374D02*
X0161896Y0076374D01*
X0160298Y0074775D02*
X0135728Y0074775D01*
X0135728Y0073177D02*
X0160178Y0073177D01*
X0160178Y0071578D02*
X0135728Y0071578D01*
X0135728Y0069980D02*
X0161210Y0069980D01*
X0162228Y0068381D02*
X0135728Y0068381D01*
X0135728Y0066783D02*
X0162228Y0066783D01*
X0162228Y0065184D02*
X0135728Y0065184D01*
X0135728Y0063586D02*
X0162228Y0063586D01*
X0162228Y0061987D02*
X0135728Y0061987D01*
X0135728Y0060389D02*
X0161161Y0060389D01*
X0160028Y0058790D02*
X0135728Y0058790D01*
X0135728Y0057192D02*
X0160028Y0057192D01*
X0160046Y0055593D02*
X0135728Y0055593D01*
X0135728Y0053995D02*
X0161645Y0053995D01*
X0167212Y0053995D02*
X0194797Y0053995D01*
X0193199Y0055593D02*
X0168811Y0055593D01*
X0168828Y0057192D02*
X0191600Y0057192D01*
X0186849Y0058790D02*
X0181442Y0058790D01*
X0183041Y0060389D02*
X0185251Y0060389D01*
X0177415Y0058790D02*
X0168828Y0058790D01*
X0167696Y0060389D02*
X0175816Y0060389D01*
X0175428Y0061987D02*
X0166428Y0061987D01*
X0166428Y0063586D02*
X0175428Y0063586D01*
X0196396Y0052396D02*
X0135728Y0052396D01*
X0135728Y0050798D02*
X0197994Y0050798D01*
X0199593Y0049199D02*
X0135728Y0049199D01*
X0135728Y0047601D02*
X0201191Y0047601D01*
X0202128Y0046002D02*
X0135728Y0046002D01*
X0135728Y0044404D02*
X0202128Y0044404D01*
X0202128Y0042805D02*
X0150671Y0042805D01*
X0149628Y0042805D02*
X0149228Y0042805D01*
X0148186Y0042805D02*
X0140671Y0042805D01*
X0139628Y0042805D02*
X0139228Y0042805D01*
X0138186Y0042805D02*
X0135728Y0042805D01*
X0139228Y0041207D02*
X0139628Y0041207D01*
X0139628Y0039608D02*
X0139228Y0039608D01*
X0139228Y0038010D02*
X0139628Y0038010D01*
X0139628Y0037233D02*
X0139628Y0032533D01*
X0139228Y0032533D01*
X0139228Y0037233D01*
X0139628Y0037233D01*
X0139628Y0036411D02*
X0139228Y0036411D01*
X0139228Y0034812D02*
X0139628Y0034812D01*
X0139628Y0033214D02*
X0139228Y0033214D01*
X0143433Y0041207D02*
X0145424Y0041207D01*
X0149228Y0041207D02*
X0149628Y0041207D01*
X0149628Y0039608D02*
X0149228Y0039608D01*
X0149228Y0038010D02*
X0149628Y0038010D01*
X0153433Y0041207D02*
X0202128Y0041207D01*
X0202128Y0039608D02*
X0154493Y0039608D01*
X0154906Y0038010D02*
X0202128Y0038010D01*
X0202128Y0036411D02*
X0154835Y0036411D01*
X0154266Y0034812D02*
X0202128Y0034812D01*
X0202128Y0033214D02*
X0152978Y0033214D01*
X0152459Y0031615D02*
X0202128Y0031615D01*
X0202128Y0030017D02*
X0153878Y0030017D01*
X0154528Y0028418D02*
X0178961Y0028418D01*
X0178378Y0026820D02*
X0154528Y0026820D01*
X0154032Y0025221D02*
X0178378Y0025221D01*
X0178378Y0023623D02*
X0152831Y0023623D01*
X0146026Y0023623D02*
X0142831Y0023623D01*
X0144032Y0025221D02*
X0144824Y0025221D01*
X0136026Y0023623D02*
X0132831Y0023623D01*
X0134032Y0025221D02*
X0134824Y0025221D01*
X0126026Y0023623D02*
X0122831Y0023623D01*
X0124032Y0025221D02*
X0124824Y0025221D01*
X0116026Y0023623D02*
X0112831Y0023623D01*
X0114032Y0025221D02*
X0114824Y0025221D01*
X0106026Y0023623D02*
X0072831Y0023623D01*
X0071484Y0022024D02*
X0178378Y0022024D01*
X0178378Y0020426D02*
X0073083Y0020426D01*
X0074128Y0018827D02*
X0178378Y0018827D01*
X0189896Y0028418D02*
X0192734Y0028418D01*
X0193978Y0028418D02*
X0194878Y0028418D01*
X0196123Y0028418D02*
X0202128Y0028418D01*
X0200266Y0026820D02*
X0198591Y0026820D01*
X0194878Y0026820D02*
X0193978Y0026820D01*
X0193978Y0025221D02*
X0194878Y0025221D01*
X0194878Y0023623D02*
X0193978Y0023623D01*
X0213702Y0017433D02*
X0287381Y0091112D01*
X0288450Y0092181D01*
X0289028Y0093577D01*
X0289028Y0117033D01*
X0299428Y0127433D01*
X0299428Y0143359D01*
X0303502Y0147433D01*
X0324428Y0147433D01*
X0324428Y0017433D01*
X0213702Y0017433D01*
X0215097Y0018827D02*
X0324428Y0018827D01*
X0324428Y0020426D02*
X0216695Y0020426D01*
X0218294Y0022024D02*
X0324428Y0022024D01*
X0324428Y0023623D02*
X0219892Y0023623D01*
X0221491Y0025221D02*
X0324428Y0025221D01*
X0324428Y0026820D02*
X0223089Y0026820D01*
X0224688Y0028418D02*
X0324428Y0028418D01*
X0324428Y0030017D02*
X0226286Y0030017D01*
X0227885Y0031615D02*
X0324428Y0031615D01*
X0324428Y0033214D02*
X0229483Y0033214D01*
X0231082Y0034812D02*
X0324428Y0034812D01*
X0324428Y0036411D02*
X0232680Y0036411D01*
X0234279Y0038010D02*
X0324428Y0038010D01*
X0324428Y0039608D02*
X0235877Y0039608D01*
X0237476Y0041207D02*
X0324428Y0041207D01*
X0324428Y0042805D02*
X0239074Y0042805D01*
X0240673Y0044404D02*
X0324428Y0044404D01*
X0324428Y0046002D02*
X0242271Y0046002D01*
X0243870Y0047601D02*
X0324428Y0047601D01*
X0324428Y0049199D02*
X0245468Y0049199D01*
X0247067Y0050798D02*
X0324428Y0050798D01*
X0324428Y0052396D02*
X0248665Y0052396D01*
X0250264Y0053995D02*
X0324428Y0053995D01*
X0324428Y0055593D02*
X0251862Y0055593D01*
X0253461Y0057192D02*
X0300373Y0057192D01*
X0300731Y0056833D02*
X0297451Y0060114D01*
X0297451Y0062347D01*
X0302965Y0062347D01*
X0303136Y0062347D01*
X0303136Y0056833D01*
X0305370Y0056833D01*
X0308651Y0060114D01*
X0308650Y0062347D01*
X0303136Y0062347D01*
X0303136Y0062519D01*
X0302965Y0062519D01*
X0302965Y0068033D01*
X0300731Y0068033D01*
X0297451Y0064753D01*
X0297451Y0062519D01*
X0302965Y0062519D01*
X0302965Y0062347D01*
X0302965Y0056833D01*
X0300731Y0056833D01*
X0302965Y0057192D02*
X0303136Y0057192D01*
X0303136Y0058790D02*
X0302965Y0058790D01*
X0302965Y0060389D02*
X0303136Y0060389D01*
X0303136Y0061987D02*
X0302965Y0061987D01*
X0303136Y0062519D02*
X0308651Y0062519D01*
X0308651Y0064753D01*
X0305370Y0068033D01*
X0303136Y0068033D01*
X0303136Y0062519D01*
X0303136Y0063586D02*
X0302965Y0063586D01*
X0302965Y0065184D02*
X0303136Y0065184D01*
X0303136Y0066783D02*
X0302965Y0066783D01*
X0299480Y0066783D02*
X0263052Y0066783D01*
X0264650Y0068381D02*
X0324428Y0068381D01*
X0324428Y0066783D02*
X0306621Y0066783D01*
X0308219Y0065184D02*
X0324428Y0065184D01*
X0324428Y0063586D02*
X0308651Y0063586D01*
X0308651Y0061987D02*
X0324428Y0061987D01*
X0324428Y0060389D02*
X0308651Y0060389D01*
X0307327Y0058790D02*
X0324428Y0058790D01*
X0324428Y0057192D02*
X0305728Y0057192D01*
X0298774Y0058790D02*
X0255059Y0058790D01*
X0256658Y0060389D02*
X0297451Y0060389D01*
X0297451Y0061987D02*
X0258256Y0061987D01*
X0259855Y0063586D02*
X0297451Y0063586D01*
X0297882Y0065184D02*
X0261453Y0065184D01*
X0266249Y0069980D02*
X0324428Y0069980D01*
X0324428Y0071578D02*
X0267847Y0071578D01*
X0269446Y0073177D02*
X0324428Y0073177D01*
X0324428Y0074775D02*
X0271044Y0074775D01*
X0272643Y0076374D02*
X0324428Y0076374D01*
X0324428Y0077972D02*
X0274241Y0077972D01*
X0275840Y0079571D02*
X0324428Y0079571D01*
X0324428Y0081169D02*
X0277438Y0081169D01*
X0279037Y0082768D02*
X0324428Y0082768D01*
X0324428Y0084366D02*
X0280635Y0084366D01*
X0282234Y0085965D02*
X0324428Y0085965D01*
X0324428Y0087563D02*
X0283832Y0087563D01*
X0285431Y0089162D02*
X0324428Y0089162D01*
X0324428Y0090760D02*
X0287030Y0090760D01*
X0288524Y0092359D02*
X0324428Y0092359D01*
X0324428Y0093957D02*
X0289028Y0093957D01*
X0289028Y0095556D02*
X0324428Y0095556D01*
X0324428Y0097154D02*
X0289028Y0097154D01*
X0289028Y0098753D02*
X0309378Y0098753D01*
X0309378Y0098438D02*
X0310433Y0097383D01*
X0318424Y0097383D01*
X0319478Y0098438D01*
X0319478Y0106429D01*
X0318424Y0107483D01*
X0315457Y0107483D01*
X0315611Y0107508D01*
X0316367Y0107753D01*
X0317075Y0108114D01*
X0317718Y0108581D01*
X0318280Y0109143D01*
X0318748Y0109787D01*
X0319108Y0110495D01*
X0319354Y0111251D01*
X0319478Y0112036D01*
X0319478Y0112433D01*
X0314429Y0112433D01*
X0314429Y0112433D01*
X0319478Y0112433D01*
X0319478Y0112831D01*
X0319354Y0113616D01*
X0319108Y0114372D01*
X0318748Y0115080D01*
X0318280Y0115723D01*
X0317718Y0116285D01*
X0317075Y0116752D01*
X0316367Y0117113D01*
X0315611Y0117359D01*
X0314826Y0117483D01*
X0314429Y0117483D01*
X0314429Y0112433D01*
X0314428Y0112433D01*
X0309378Y0112433D01*
X0309378Y0112036D01*
X0309503Y0111251D01*
X0309748Y0110495D01*
X0310109Y0109787D01*
X0310577Y0109143D01*
X0311139Y0108581D01*
X0311782Y0108114D01*
X0312490Y0107753D01*
X0313246Y0107508D01*
X0313400Y0107483D01*
X0310433Y0107483D01*
X0309378Y0106429D01*
X0309378Y0098438D01*
X0309378Y0100351D02*
X0289028Y0100351D01*
X0289028Y0101950D02*
X0309378Y0101950D01*
X0309378Y0103548D02*
X0289028Y0103548D01*
X0289028Y0105147D02*
X0309378Y0105147D01*
X0309695Y0106745D02*
X0289028Y0106745D01*
X0289028Y0108344D02*
X0311465Y0108344D01*
X0310030Y0109943D02*
X0289028Y0109943D01*
X0289028Y0111541D02*
X0309457Y0111541D01*
X0309378Y0112433D02*
X0314428Y0112433D01*
X0314428Y0112433D01*
X0314428Y0117483D01*
X0314031Y0117483D01*
X0313246Y0117359D01*
X0312490Y0117113D01*
X0311782Y0116752D01*
X0311139Y0116285D01*
X0310577Y0115723D01*
X0310109Y0115080D01*
X0309748Y0114372D01*
X0309503Y0113616D01*
X0309378Y0112831D01*
X0309378Y0112433D01*
X0309427Y0113140D02*
X0289028Y0113140D01*
X0289028Y0114738D02*
X0309935Y0114738D01*
X0311209Y0116337D02*
X0289028Y0116337D01*
X0289930Y0117935D02*
X0324428Y0117935D01*
X0324428Y0116337D02*
X0317648Y0116337D01*
X0318922Y0114738D02*
X0324428Y0114738D01*
X0324428Y0113140D02*
X0319430Y0113140D01*
X0319400Y0111541D02*
X0324428Y0111541D01*
X0324428Y0109943D02*
X0318827Y0109943D01*
X0317392Y0108344D02*
X0324428Y0108344D01*
X0324428Y0106745D02*
X0319162Y0106745D01*
X0319478Y0105147D02*
X0324428Y0105147D01*
X0324428Y0103548D02*
X0319478Y0103548D01*
X0319478Y0101950D02*
X0324428Y0101950D01*
X0324428Y0100351D02*
X0319478Y0100351D01*
X0319478Y0098753D02*
X0324428Y0098753D01*
X0314429Y0113140D02*
X0314428Y0113140D01*
X0314428Y0114738D02*
X0314429Y0114738D01*
X0314428Y0116337D02*
X0314429Y0116337D01*
X0324428Y0119534D02*
X0291529Y0119534D01*
X0293127Y0121132D02*
X0324428Y0121132D01*
X0324428Y0122731D02*
X0294726Y0122731D01*
X0296324Y0124329D02*
X0324428Y0124329D01*
X0324428Y0125928D02*
X0297923Y0125928D01*
X0299428Y0127526D02*
X0324428Y0127526D01*
X0324428Y0129125D02*
X0299428Y0129125D01*
X0299428Y0130723D02*
X0324428Y0130723D01*
X0324428Y0132322D02*
X0310714Y0132322D01*
X0310491Y0132208D02*
X0311281Y0132611D01*
X0311999Y0133132D01*
X0312627Y0133760D01*
X0313149Y0134478D01*
X0313552Y0135269D01*
X0313826Y0136113D01*
X0313959Y0136954D01*
X0308806Y0136954D01*
X0308806Y0137913D01*
X0313959Y0137913D01*
X0313826Y0138754D01*
X0313552Y0139598D01*
X0313149Y0140389D01*
X0312627Y0141107D01*
X0311999Y0141734D01*
X0311281Y0142256D01*
X0310491Y0142659D01*
X0309646Y0142933D01*
X0308806Y0143066D01*
X0308806Y0137913D01*
X0307847Y0137913D01*
X0307847Y0143066D01*
X0307006Y0142933D01*
X0306162Y0142659D01*
X0305371Y0142256D01*
X0304653Y0141734D01*
X0304025Y0141107D01*
X0303504Y0140389D01*
X0303101Y0139598D01*
X0302826Y0138754D01*
X0302693Y0137913D01*
X0307846Y0137913D01*
X0307846Y0136954D01*
X0302693Y0136954D01*
X0302826Y0136113D01*
X0303101Y0135269D01*
X0303504Y0134478D01*
X0304025Y0133760D01*
X0304653Y0133132D01*
X0305371Y0132611D01*
X0306162Y0132208D01*
X0307006Y0131934D01*
X0307847Y0131800D01*
X0307847Y0136954D01*
X0308806Y0136954D01*
X0308806Y0131800D01*
X0309646Y0131934D01*
X0310491Y0132208D01*
X0308806Y0132322D02*
X0307847Y0132322D01*
X0307847Y0133920D02*
X0308806Y0133920D01*
X0308806Y0135519D02*
X0307847Y0135519D01*
X0307846Y0137117D02*
X0299428Y0137117D01*
X0299428Y0135519D02*
X0303019Y0135519D01*
X0303909Y0133920D02*
X0299428Y0133920D01*
X0299428Y0132322D02*
X0305938Y0132322D01*
X0308806Y0137117D02*
X0324428Y0137117D01*
X0324428Y0135519D02*
X0313633Y0135519D01*
X0312743Y0133920D02*
X0324428Y0133920D01*
X0324428Y0138716D02*
X0313832Y0138716D01*
X0313187Y0140314D02*
X0324428Y0140314D01*
X0324428Y0141913D02*
X0311754Y0141913D01*
X0308806Y0141913D02*
X0307847Y0141913D01*
X0307847Y0140314D02*
X0308806Y0140314D01*
X0308806Y0138716D02*
X0307847Y0138716D01*
X0303466Y0140314D02*
X0299428Y0140314D01*
X0299428Y0138716D02*
X0302820Y0138716D01*
X0304899Y0141913D02*
X0299428Y0141913D01*
X0299580Y0143511D02*
X0324428Y0143511D01*
X0324428Y0145110D02*
X0301179Y0145110D01*
X0302777Y0146708D02*
X0324428Y0146708D01*
X0160028Y0103548D02*
X0118428Y0103548D01*
X0118428Y0101950D02*
X0160028Y0101950D01*
X0160288Y0100351D02*
X0119014Y0100351D01*
X0121133Y0108433D02*
X0126728Y0114029D01*
X0126728Y0123628D01*
X0127523Y0122833D01*
X0129428Y0122833D01*
X0129428Y0127433D01*
X0129429Y0127433D01*
X0129429Y0127433D01*
X0134028Y0127433D01*
X0134028Y0125528D01*
X0131334Y0122833D01*
X0129429Y0122833D01*
X0129429Y0127433D01*
X0134028Y0127433D01*
X0134028Y0129339D01*
X0131334Y0132033D01*
X0129429Y0132033D01*
X0129429Y0127433D01*
X0129428Y0127433D01*
X0129428Y0132033D01*
X0127523Y0132033D01*
X0126728Y0131239D01*
X0126728Y0137433D01*
X0139428Y0137433D01*
X0139428Y0112433D01*
X0143428Y0108433D01*
X0121133Y0108433D01*
X0122642Y0109943D02*
X0141919Y0109943D01*
X0140321Y0111541D02*
X0124240Y0111541D01*
X0125839Y0113140D02*
X0139428Y0113140D01*
X0139428Y0114738D02*
X0126728Y0114738D01*
X0126728Y0116337D02*
X0139428Y0116337D01*
X0139428Y0117935D02*
X0126728Y0117935D01*
X0126728Y0119534D02*
X0139428Y0119534D01*
X0139428Y0121132D02*
X0126728Y0121132D01*
X0126728Y0122731D02*
X0139428Y0122731D01*
X0139428Y0124329D02*
X0132830Y0124329D01*
X0134028Y0125928D02*
X0139428Y0125928D01*
X0139428Y0127526D02*
X0134028Y0127526D01*
X0134028Y0129125D02*
X0139428Y0129125D01*
X0139428Y0130723D02*
X0132644Y0130723D01*
X0129429Y0130723D02*
X0129428Y0130723D01*
X0129428Y0129125D02*
X0129429Y0129125D01*
X0129428Y0127526D02*
X0129429Y0127526D01*
X0129428Y0125928D02*
X0129429Y0125928D01*
X0129428Y0124329D02*
X0129429Y0124329D01*
X0123328Y0124329D02*
X0122830Y0124329D01*
X0123328Y0124828D02*
X0123328Y0115437D01*
X0117724Y0109833D01*
X0108424Y0109833D01*
X0087428Y0088837D01*
X0087428Y0107129D01*
X0093828Y0113529D01*
X0093828Y0113303D01*
X0094494Y0112638D01*
X0094123Y0112424D01*
X0093788Y0112089D01*
X0093551Y0111678D01*
X0093428Y0111220D01*
X0093428Y0109933D01*
X0093428Y0108646D01*
X0093551Y0108189D01*
X0093788Y0107778D01*
X0094123Y0107443D01*
X0094534Y0107206D01*
X0094991Y0107083D01*
X0099128Y0107083D01*
X0099128Y0109933D01*
X0093428Y0109933D01*
X0099128Y0109933D01*
X0099128Y0109933D01*
X0099129Y0109933D01*
X0099129Y0109933D01*
X0104828Y0109933D01*
X0104828Y0108646D01*
X0104706Y0108189D01*
X0104469Y0107778D01*
X0104134Y0107443D01*
X0103723Y0107206D01*
X0103265Y0107083D01*
X0099129Y0107083D01*
X0099129Y0109933D01*
X0104828Y0109933D01*
X0104828Y0111220D01*
X0104706Y0111678D01*
X0104469Y0112089D01*
X0104134Y0112424D01*
X0103763Y0112638D01*
X0104158Y0113033D01*
X0106552Y0113033D01*
X0107056Y0112529D01*
X0108011Y0112133D01*
X0109046Y0112133D01*
X0110001Y0112529D01*
X0110733Y0113261D01*
X0111128Y0114216D01*
X0111128Y0115251D01*
X0110733Y0116206D01*
X0110001Y0116937D01*
X0109046Y0117333D01*
X0108011Y0117333D01*
X0107056Y0116937D01*
X0106552Y0116433D01*
X0104428Y0116433D01*
X0104428Y0116563D01*
X0103608Y0117383D01*
X0097683Y0117383D01*
X0097783Y0117483D01*
X0103608Y0117483D01*
X0104428Y0118303D01*
X0104428Y0121563D01*
X0103608Y0122383D01*
X0097583Y0122383D01*
X0097683Y0122483D01*
X0103608Y0122483D01*
X0104428Y0123303D01*
X0104428Y0125533D01*
X0114828Y0125533D01*
X0114828Y0125528D01*
X0117523Y0122833D01*
X0121334Y0122833D01*
X0123328Y0124828D01*
X0123328Y0122731D02*
X0103856Y0122731D01*
X0104428Y0124329D02*
X0116027Y0124329D01*
X0115223Y0129733D02*
X0094159Y0129733D01*
X0092928Y0128503D01*
X0086659Y0122233D01*
X0084924Y0122233D01*
X0084441Y0122716D01*
X0085028Y0123303D01*
X0085028Y0126563D01*
X0084208Y0127383D01*
X0075249Y0127383D01*
X0074428Y0126563D01*
X0074428Y0123303D01*
X0075016Y0122716D01*
X0074028Y0121729D01*
X0074028Y0118138D01*
X0075016Y0117150D01*
X0074599Y0116733D01*
X0072333Y0116733D01*
X0069659Y0119407D01*
X0070420Y0120168D01*
X0071028Y0121638D01*
X0071028Y0123229D01*
X0070420Y0124699D01*
X0069294Y0125824D01*
X0067824Y0126433D01*
X0061033Y0126433D01*
X0059828Y0125934D01*
X0059828Y0128514D01*
X0060139Y0128356D01*
X0060798Y0128142D01*
X0061482Y0128033D01*
X0064428Y0128033D01*
X0064428Y0132433D01*
X0064429Y0132433D01*
X0064429Y0132433D01*
X0071428Y0132433D01*
X0071428Y0132087D01*
X0071320Y0131403D01*
X0071106Y0130744D01*
X0070792Y0130127D01*
X0070385Y0129567D01*
X0069895Y0129077D01*
X0069335Y0128670D01*
X0068717Y0128356D01*
X0068059Y0128142D01*
X0067375Y0128033D01*
X0064429Y0128033D01*
X0064429Y0132433D01*
X0071428Y0132433D01*
X0071428Y0132780D01*
X0071320Y0133464D01*
X0071106Y0134122D01*
X0070792Y0134739D01*
X0070385Y0135300D01*
X0069895Y0135789D01*
X0069335Y0136197D01*
X0068717Y0136511D01*
X0068059Y0136725D01*
X0067375Y0136833D01*
X0064429Y0136833D01*
X0064429Y0132433D01*
X0064428Y0132433D01*
X0064428Y0136833D01*
X0061928Y0136833D01*
X0061928Y0137433D01*
X0117228Y0137433D01*
X0117228Y0131739D01*
X0115223Y0129733D01*
X0116213Y0130723D02*
X0071095Y0130723D01*
X0071428Y0132322D02*
X0117228Y0132322D01*
X0117228Y0133920D02*
X0071172Y0133920D01*
X0070166Y0135519D02*
X0117228Y0135519D01*
X0117228Y0137117D02*
X0061928Y0137117D01*
X0064428Y0135519D02*
X0064429Y0135519D01*
X0064428Y0133920D02*
X0064429Y0133920D01*
X0064428Y0132322D02*
X0064429Y0132322D01*
X0064428Y0130723D02*
X0064429Y0130723D01*
X0064428Y0129125D02*
X0064429Y0129125D01*
X0059828Y0127526D02*
X0091951Y0127526D01*
X0090353Y0125928D02*
X0085028Y0125928D01*
X0085028Y0124329D02*
X0088754Y0124329D01*
X0087156Y0122731D02*
X0084456Y0122731D01*
X0075001Y0122731D02*
X0071028Y0122731D01*
X0070819Y0121132D02*
X0074028Y0121132D01*
X0074028Y0119534D02*
X0069786Y0119534D01*
X0071131Y0117935D02*
X0074231Y0117935D01*
X0074428Y0124329D02*
X0070573Y0124329D01*
X0069045Y0125928D02*
X0074428Y0125928D01*
X0069942Y0129125D02*
X0093550Y0129125D01*
X0104428Y0121132D02*
X0123328Y0121132D01*
X0123328Y0119534D02*
X0104428Y0119534D01*
X0104060Y0117935D02*
X0123328Y0117935D01*
X0123328Y0116337D02*
X0110602Y0116337D01*
X0111128Y0114738D02*
X0122629Y0114738D01*
X0121031Y0113140D02*
X0110612Y0113140D01*
X0106935Y0108344D02*
X0104747Y0108344D01*
X0104828Y0109943D02*
X0117834Y0109943D01*
X0119432Y0111541D02*
X0104743Y0111541D01*
X0105336Y0106745D02*
X0087428Y0106745D01*
X0087428Y0105147D02*
X0103738Y0105147D01*
X0102139Y0103548D02*
X0087428Y0103548D01*
X0087428Y0101950D02*
X0100541Y0101950D01*
X0098942Y0100351D02*
X0087428Y0100351D01*
X0087428Y0098753D02*
X0097344Y0098753D01*
X0095745Y0097154D02*
X0087428Y0097154D01*
X0087428Y0095556D02*
X0094147Y0095556D01*
X0092548Y0093957D02*
X0087428Y0093957D01*
X0087428Y0092359D02*
X0090950Y0092359D01*
X0089351Y0090760D02*
X0087428Y0090760D01*
X0087428Y0089162D02*
X0087753Y0089162D01*
X0089364Y0085965D02*
X0089828Y0085965D01*
X0090990Y0084366D02*
X0087766Y0084366D01*
X0087728Y0082768D02*
X0092328Y0082768D01*
X0092328Y0081169D02*
X0086969Y0081169D01*
X0085370Y0079571D02*
X0092328Y0079571D01*
X0092328Y0077972D02*
X0083772Y0077972D01*
X0082173Y0076374D02*
X0092328Y0076374D01*
X0092328Y0074775D02*
X0080575Y0074775D01*
X0078976Y0073177D02*
X0092328Y0073177D01*
X0092328Y0071578D02*
X0077378Y0071578D01*
X0075779Y0069980D02*
X0092328Y0069980D01*
X0092328Y0068381D02*
X0074181Y0068381D01*
X0072582Y0066783D02*
X0092272Y0066783D01*
X0090674Y0065184D02*
X0070984Y0065184D01*
X0069385Y0063586D02*
X0089828Y0063586D01*
X0089828Y0061987D02*
X0067786Y0061987D01*
X0066188Y0060389D02*
X0089614Y0060389D01*
X0097291Y0058790D02*
X0101566Y0058790D01*
X0102523Y0057833D02*
X0099828Y0060528D01*
X0099828Y0062433D01*
X0104428Y0062433D01*
X0104428Y0062433D01*
X0104429Y0062433D01*
X0104428Y0062433D02*
X0104428Y0057833D01*
X0102523Y0057833D01*
X0104428Y0058790D02*
X0104429Y0058790D01*
X0104428Y0060389D02*
X0104429Y0060389D01*
X0104428Y0061987D02*
X0104429Y0061987D01*
X0104428Y0062433D02*
X0099828Y0062433D01*
X0099828Y0064339D01*
X0102523Y0067033D01*
X0104428Y0067033D01*
X0104428Y0062433D01*
X0104429Y0062433D01*
X0104428Y0063586D02*
X0104429Y0063586D01*
X0104428Y0065184D02*
X0104429Y0065184D01*
X0104428Y0066783D02*
X0104429Y0066783D01*
X0102272Y0066783D02*
X0096584Y0066783D01*
X0096528Y0068381D02*
X0106528Y0068381D01*
X0106528Y0069980D02*
X0096528Y0069980D01*
X0096528Y0071578D02*
X0106528Y0071578D01*
X0100674Y0065184D02*
X0098183Y0065184D01*
X0099028Y0063586D02*
X0099828Y0063586D01*
X0099828Y0061987D02*
X0099028Y0061987D01*
X0098889Y0060389D02*
X0099968Y0060389D01*
X0110832Y0042805D02*
X0115796Y0042805D01*
X0114198Y0041207D02*
X0113433Y0041207D01*
X0072569Y0071578D02*
X0071004Y0071578D01*
X0070971Y0069980D02*
X0070232Y0069980D01*
X0071028Y0073177D02*
X0074168Y0073177D01*
X0058625Y0069980D02*
X0040232Y0069980D01*
X0041004Y0071578D02*
X0057853Y0071578D01*
X0057828Y0073177D02*
X0041028Y0073177D01*
X0029875Y0066783D02*
X0024428Y0066783D01*
X0024428Y0068381D02*
X0028276Y0068381D01*
X0026678Y0069980D02*
X0024428Y0069980D01*
X0024428Y0071578D02*
X0025079Y0071578D01*
X0024928Y0073177D02*
X0024428Y0073177D01*
X0024428Y0074775D02*
X0024928Y0074775D01*
X0024928Y0076374D02*
X0024428Y0076374D01*
X0024428Y0077972D02*
X0024928Y0077972D01*
X0024928Y0079571D02*
X0024428Y0079571D01*
X0024428Y0081169D02*
X0024928Y0081169D01*
X0024928Y0082768D02*
X0024428Y0082768D01*
X0024428Y0084366D02*
X0024928Y0084366D01*
X0024928Y0085965D02*
X0024428Y0085965D01*
X0024428Y0087563D02*
X0024928Y0087563D01*
X0024928Y0089162D02*
X0024428Y0089162D01*
X0024428Y0090760D02*
X0024928Y0090760D01*
X0024928Y0092359D02*
X0024428Y0092359D01*
X0024428Y0093957D02*
X0024928Y0093957D01*
X0024928Y0095556D02*
X0024428Y0095556D01*
X0024428Y0097154D02*
X0024928Y0097154D01*
X0024928Y0098753D02*
X0024428Y0098753D01*
X0024428Y0100351D02*
X0024928Y0100351D01*
X0024928Y0101950D02*
X0024428Y0101950D01*
X0024428Y0103548D02*
X0024928Y0103548D01*
X0024928Y0105147D02*
X0024428Y0105147D01*
X0024428Y0106745D02*
X0024928Y0106745D01*
X0024928Y0108344D02*
X0024428Y0108344D01*
X0024428Y0109943D02*
X0024928Y0109943D01*
X0024928Y0111541D02*
X0024428Y0111541D01*
X0024428Y0113140D02*
X0024928Y0113140D01*
X0024928Y0114738D02*
X0024428Y0114738D01*
X0024428Y0116337D02*
X0024928Y0116337D01*
X0024928Y0117935D02*
X0024428Y0117935D01*
X0024428Y0119534D02*
X0024928Y0119534D01*
X0024928Y0121132D02*
X0024428Y0121132D01*
X0024428Y0122731D02*
X0024928Y0122731D01*
X0024928Y0124329D02*
X0024428Y0124329D01*
X0024428Y0125928D02*
X0024928Y0125928D01*
X0024928Y0127526D02*
X0024428Y0127526D01*
X0024428Y0129125D02*
X0024928Y0129125D01*
X0024928Y0130723D02*
X0024428Y0130723D01*
X0024428Y0132322D02*
X0024928Y0132322D01*
X0024928Y0133920D02*
X0024428Y0133920D01*
X0024428Y0135519D02*
X0024928Y0135519D01*
X0024428Y0137117D02*
X0026508Y0137117D01*
X0088643Y0108344D02*
X0093509Y0108344D01*
X0093428Y0109943D02*
X0090242Y0109943D01*
X0091840Y0111541D02*
X0093514Y0111541D01*
X0093439Y0113140D02*
X0093992Y0113140D01*
X0099128Y0108344D02*
X0099129Y0108344D01*
X0126728Y0132322D02*
X0139428Y0132322D01*
X0139428Y0133920D02*
X0126728Y0133920D01*
X0126728Y0135519D02*
X0139428Y0135519D01*
X0139428Y0137117D02*
X0126728Y0137117D01*
D32*
X0209628Y0120133D02*
X0209628Y0117433D01*
X0209428Y0117433D01*
X0209628Y0120133D02*
X0276828Y0187333D01*
X0314328Y0187333D01*
X0314428Y0187433D01*
X0314428Y0167433D02*
X0314328Y0167233D01*
X0314328Y0163633D01*
X0288228Y0137533D01*
X0285528Y0137533D01*
X0285491Y0137433D01*
X0285228Y0136033D01*
X0285228Y0094333D01*
X0207228Y0016333D01*
X0191628Y0016333D01*
X0185028Y0022933D01*
X0184428Y0022933D01*
X0184428Y0023133D01*
M02*
