G75*
%MOIN*%
%OFA0B0*%
%FSLAX25Y25*%
%IPPOS*%
%LPD*%
%AMOC8*
5,1,8,0,0,1.08239X$1,22.5*
%
%ADD10C,0.00000*%
%ADD11C,0.07677*%
%ADD12R,0.07600X0.07600*%
%ADD13OC8,0.07600*%
%ADD14C,0.06000*%
%ADD15OC8,0.06000*%
%ADD16C,0.02000*%
%ADD17C,0.02400*%
%ADD18C,0.00600*%
D10*
X0017000Y0002000D02*
X0017000Y0200961D01*
X0266701Y0200961D01*
X0266701Y0002000D01*
X0017000Y0002000D01*
D11*
X0047126Y0160102D03*
X0036102Y0179000D03*
X0058937Y0179000D03*
D12*
X0218000Y0097882D03*
D13*
X0218000Y0176622D03*
D14*
X0031000Y0153000D02*
X0025000Y0153000D01*
X0025000Y0143000D02*
X0031000Y0143000D01*
X0031000Y0133000D02*
X0025000Y0133000D01*
X0025000Y0123000D02*
X0031000Y0123000D01*
D15*
X0243000Y0076000D03*
X0253000Y0076000D03*
X0253000Y0066000D03*
X0243000Y0066000D03*
X0243000Y0056000D03*
X0253000Y0056000D03*
D16*
X0252250Y0055750D01*
X0247250Y0050750D01*
X0119750Y0050750D01*
X0092250Y0048250D02*
X0019750Y0120750D01*
X0019750Y0152000D01*
X0027250Y0152000D01*
X0028000Y0153000D01*
X0028500Y0153250D01*
X0041000Y0165750D01*
X0046000Y0165750D01*
X0058500Y0178250D01*
X0058937Y0179000D01*
X0057250Y0162000D02*
X0114750Y0162000D01*
X0153500Y0158250D02*
X0063500Y0158250D01*
X0028500Y0123250D01*
X0028000Y0123000D01*
X0028000Y0133000D02*
X0028500Y0133250D01*
X0057250Y0162000D01*
D17*
X0079000Y0145000D03*
X0078000Y0136000D03*
X0077000Y0130000D03*
X0067000Y0130000D03*
X0062000Y0115000D03*
X0075000Y0108000D03*
X0082250Y0096750D03*
X0092250Y0100750D03*
X0106000Y0100000D03*
X0108000Y0096000D03*
X0109000Y0093000D03*
X0111000Y0100000D03*
X0116000Y0100000D03*
X0120000Y0100000D03*
X0125000Y0100000D03*
X0129000Y0100000D03*
X0137000Y0107000D03*
X0148000Y0111000D03*
X0151000Y0106000D03*
X0157000Y0106000D03*
X0161000Y0107000D03*
X0169000Y0107000D03*
X0159000Y0099000D03*
X0154000Y0100000D03*
X0146000Y0092000D03*
X0140000Y0086000D03*
X0136000Y0086000D03*
X0136000Y0093000D03*
X0143000Y0082000D03*
X0139000Y0079000D03*
X0132000Y0073000D03*
X0132000Y0065000D03*
X0143000Y0067000D03*
X0161000Y0074000D03*
X0170000Y0086000D03*
X0159000Y0089000D03*
X0178000Y0073000D03*
X0185000Y0079000D03*
X0191000Y0085000D03*
X0181000Y0095000D03*
X0198000Y0103250D03*
X0233000Y0114000D03*
X0243000Y0083000D03*
X0248000Y0072000D03*
X0260000Y0066000D03*
X0217250Y0061250D03*
X0203000Y0071000D03*
X0186000Y0067000D03*
X0202250Y0027250D03*
X0122000Y0073000D03*
X0111000Y0073000D03*
X0108000Y0076000D03*
X0102000Y0074000D03*
X0101000Y0067000D03*
X0103500Y0062000D03*
X0101000Y0058000D03*
X0097000Y0048000D03*
X0092250Y0048250D03*
X0083000Y0063000D03*
X0092250Y0068500D03*
X0102000Y0081000D03*
X0091000Y0086000D03*
X0081000Y0086000D03*
X0064750Y0090750D03*
X0064750Y0097000D03*
X0097000Y0113000D03*
X0108000Y0109000D03*
X0097000Y0123000D03*
X0101000Y0126000D03*
X0106000Y0129000D03*
X0124000Y0139000D03*
X0120000Y0144000D03*
X0113000Y0144000D03*
X0106000Y0144000D03*
X0117000Y0151000D03*
X0114750Y0162000D03*
X0134000Y0155000D03*
X0153500Y0158250D03*
X0160000Y0144000D03*
X0154000Y0135000D03*
X0161000Y0127000D03*
X0119750Y0050750D03*
X0082000Y0031000D03*
D18*
X0097000Y0046000D01*
X0097000Y0048000D01*
X0095930Y0050479D02*
X0093839Y0050479D01*
X0093779Y0050539D02*
X0093297Y0050739D01*
X0083677Y0060358D01*
X0084529Y0060711D01*
X0085289Y0061471D01*
X0085700Y0062463D01*
X0085700Y0063537D01*
X0085289Y0064529D01*
X0084800Y0065018D01*
X0084800Y0070254D01*
X0085746Y0071200D01*
X0101746Y0071200D01*
X0101846Y0071300D01*
X0102537Y0071300D01*
X0103529Y0071711D01*
X0104289Y0072471D01*
X0104438Y0072831D01*
X0115950Y0060539D01*
X0115950Y0060504D01*
X0116456Y0059998D01*
X0116946Y0059475D01*
X0116980Y0059474D01*
X0117004Y0059450D01*
X0117720Y0059450D01*
X0118436Y0059427D01*
X0118461Y0059450D01*
X0215232Y0059450D01*
X0215721Y0058961D01*
X0216713Y0058550D01*
X0217787Y0058550D01*
X0218779Y0058961D01*
X0219539Y0059721D01*
X0219950Y0060713D01*
X0219950Y0061787D01*
X0219539Y0062779D01*
X0218779Y0063539D01*
X0217787Y0063950D01*
X0216713Y0063950D01*
X0215721Y0063539D01*
X0215232Y0063050D01*
X0133868Y0063050D01*
X0134289Y0063471D01*
X0134700Y0064463D01*
X0134700Y0065537D01*
X0134289Y0066529D01*
X0133800Y0067018D01*
X0133800Y0070982D01*
X0134289Y0071471D01*
X0134700Y0072463D01*
X0134700Y0073537D01*
X0134289Y0074529D01*
X0133529Y0075289D01*
X0132537Y0075700D01*
X0131463Y0075700D01*
X0130471Y0075289D01*
X0129711Y0074529D01*
X0129300Y0073537D01*
X0129300Y0072463D01*
X0129711Y0071471D01*
X0130200Y0070982D01*
X0130200Y0067018D01*
X0129711Y0066529D01*
X0129300Y0065537D01*
X0129300Y0064463D01*
X0129711Y0063471D01*
X0130132Y0063050D01*
X0118530Y0063050D01*
X0111684Y0070361D01*
X0112529Y0070711D01*
X0113018Y0071200D01*
X0119982Y0071200D01*
X0120471Y0070711D01*
X0121463Y0070300D01*
X0122537Y0070300D01*
X0123529Y0070711D01*
X0124289Y0071471D01*
X0124700Y0072463D01*
X0124700Y0073537D01*
X0124289Y0074529D01*
X0123529Y0075289D01*
X0122537Y0075700D01*
X0121463Y0075700D01*
X0120471Y0075289D01*
X0119982Y0074800D01*
X0113018Y0074800D01*
X0112529Y0075289D01*
X0111537Y0075700D01*
X0110700Y0075700D01*
X0110700Y0076537D01*
X0110289Y0077529D01*
X0109800Y0078018D01*
X0109800Y0082254D01*
X0124846Y0097300D01*
X0125537Y0097300D01*
X0126529Y0097711D01*
X0127000Y0098182D01*
X0127200Y0097982D01*
X0127200Y0090043D01*
X0127167Y0089341D01*
X0127200Y0089304D01*
X0127200Y0089254D01*
X0127697Y0088757D01*
X0136300Y0079294D01*
X0136300Y0078463D01*
X0136711Y0077471D01*
X0137471Y0076711D01*
X0138463Y0076300D01*
X0139537Y0076300D01*
X0140529Y0076711D01*
X0141200Y0077382D01*
X0141200Y0069018D01*
X0140711Y0068529D01*
X0140300Y0067537D01*
X0140300Y0066463D01*
X0140711Y0065471D01*
X0141471Y0064711D01*
X0142463Y0064300D01*
X0143537Y0064300D01*
X0144529Y0064711D01*
X0145289Y0065471D01*
X0145700Y0066463D01*
X0145700Y0067537D01*
X0145289Y0068529D01*
X0144800Y0069018D01*
X0144800Y0079982D01*
X0145289Y0080471D01*
X0145700Y0081463D01*
X0145700Y0082537D01*
X0145289Y0083529D01*
X0144618Y0084200D01*
X0167982Y0084200D01*
X0168471Y0083711D01*
X0169463Y0083300D01*
X0170537Y0083300D01*
X0171529Y0083711D01*
X0172289Y0084471D01*
X0172700Y0085463D01*
X0172700Y0086537D01*
X0172289Y0087529D01*
X0171529Y0088289D01*
X0170537Y0088700D01*
X0169463Y0088700D01*
X0168471Y0088289D01*
X0167982Y0087800D01*
X0161425Y0087800D01*
X0161700Y0088463D01*
X0161700Y0089537D01*
X0161289Y0090529D01*
X0160800Y0091018D01*
X0160800Y0096982D01*
X0161289Y0097471D01*
X0161700Y0098463D01*
X0161700Y0099537D01*
X0161289Y0100529D01*
X0160529Y0101289D01*
X0160141Y0101450D01*
X0195982Y0101450D01*
X0196471Y0100961D01*
X0197463Y0100550D01*
X0198537Y0100550D01*
X0199529Y0100961D01*
X0200289Y0101721D01*
X0200700Y0102713D01*
X0200700Y0103787D01*
X0200289Y0104779D01*
X0199868Y0105200D01*
X0221254Y0105200D01*
X0241200Y0085254D01*
X0241200Y0085018D01*
X0240711Y0084529D01*
X0240300Y0083537D01*
X0240300Y0082463D01*
X0240711Y0081471D01*
X0241471Y0080711D01*
X0241980Y0080500D01*
X0241136Y0080500D01*
X0238500Y0077864D01*
X0238500Y0074136D01*
X0239836Y0072800D01*
X0205018Y0072800D01*
X0204529Y0073289D01*
X0203537Y0073700D01*
X0202463Y0073700D01*
X0201471Y0073289D01*
X0200711Y0072529D01*
X0200300Y0071537D01*
X0200300Y0070463D01*
X0200711Y0069471D01*
X0201471Y0068711D01*
X0202463Y0068300D01*
X0203537Y0068300D01*
X0204529Y0068711D01*
X0205018Y0069200D01*
X0239836Y0069200D01*
X0238500Y0067864D01*
X0238500Y0064136D01*
X0241136Y0061500D01*
X0244864Y0061500D01*
X0247500Y0064136D01*
X0247500Y0067864D01*
X0245955Y0069409D01*
X0245972Y0069427D01*
X0246629Y0069646D01*
X0247463Y0069300D01*
X0248537Y0069300D01*
X0249529Y0069711D01*
X0250289Y0070471D01*
X0250700Y0071463D01*
X0250700Y0071936D01*
X0251136Y0071500D01*
X0254864Y0071500D01*
X0257500Y0074136D01*
X0257500Y0077864D01*
X0254864Y0080500D01*
X0251136Y0080500D01*
X0248500Y0077864D01*
X0248500Y0074700D01*
X0247500Y0074700D01*
X0247500Y0077864D01*
X0244864Y0080500D01*
X0244020Y0080500D01*
X0244529Y0080711D01*
X0245289Y0081471D01*
X0245700Y0082463D01*
X0245700Y0083537D01*
X0245289Y0084529D01*
X0244800Y0085018D01*
X0244800Y0086746D01*
X0243746Y0087800D01*
X0222746Y0108800D01*
X0174746Y0108800D01*
X0159800Y0123746D01*
X0159800Y0124575D01*
X0160463Y0124300D01*
X0161537Y0124300D01*
X0162529Y0124711D01*
X0163018Y0125200D01*
X0212276Y0125200D01*
X0261200Y0078233D01*
X0261200Y0069746D01*
X0260154Y0068700D01*
X0259463Y0068700D01*
X0258471Y0068289D01*
X0257711Y0067529D01*
X0257500Y0067020D01*
X0257500Y0067864D01*
X0254864Y0070500D01*
X0251136Y0070500D01*
X0248500Y0067864D01*
X0248500Y0064136D01*
X0251136Y0061500D01*
X0254864Y0061500D01*
X0257500Y0064136D01*
X0257500Y0064980D01*
X0257711Y0064471D01*
X0258471Y0063711D01*
X0259463Y0063300D01*
X0260537Y0063300D01*
X0261529Y0063711D01*
X0262289Y0064471D01*
X0262700Y0065463D01*
X0262700Y0066154D01*
X0264800Y0068254D01*
X0264800Y0078276D01*
X0264815Y0078291D01*
X0264800Y0079018D01*
X0264800Y0079746D01*
X0264785Y0079761D01*
X0264784Y0079782D01*
X0264260Y0080286D01*
X0263746Y0080800D01*
X0263724Y0080800D01*
X0231567Y0111671D01*
X0232463Y0111300D01*
X0233537Y0111300D01*
X0234529Y0111711D01*
X0235289Y0112471D01*
X0235700Y0113463D01*
X0235700Y0114537D01*
X0235289Y0115529D01*
X0234529Y0116289D01*
X0233537Y0116700D01*
X0232846Y0116700D01*
X0215746Y0133800D01*
X0172746Y0133800D01*
X0162700Y0143846D01*
X0162700Y0144537D01*
X0162289Y0145529D01*
X0161529Y0146289D01*
X0160537Y0146700D01*
X0159463Y0146700D01*
X0158471Y0146289D01*
X0157711Y0145529D01*
X0157300Y0144537D01*
X0157300Y0143463D01*
X0157711Y0142471D01*
X0158471Y0141711D01*
X0159463Y0141300D01*
X0160154Y0141300D01*
X0170200Y0131254D01*
X0171254Y0130200D01*
X0214254Y0130200D01*
X0230300Y0114154D01*
X0230300Y0113463D01*
X0230696Y0112507D01*
X0214260Y0128286D01*
X0216169Y0128286D01*
X0216767Y0127687D02*
X0214883Y0127687D01*
X0215507Y0127089D02*
X0217366Y0127089D01*
X0217964Y0126490D02*
X0216130Y0126490D01*
X0216753Y0125892D02*
X0218563Y0125892D01*
X0219161Y0125293D02*
X0217377Y0125293D01*
X0218000Y0124695D02*
X0219760Y0124695D01*
X0220358Y0124096D02*
X0218624Y0124096D01*
X0219247Y0123498D02*
X0220957Y0123498D01*
X0221555Y0122899D02*
X0219871Y0122899D01*
X0220494Y0122301D02*
X0222154Y0122301D01*
X0222752Y0121702D02*
X0221118Y0121702D01*
X0221741Y0121104D02*
X0223351Y0121104D01*
X0223949Y0120505D02*
X0222365Y0120505D01*
X0222988Y0119907D02*
X0224548Y0119907D01*
X0225146Y0119308D02*
X0223611Y0119308D01*
X0224235Y0118710D02*
X0225745Y0118710D01*
X0226343Y0118111D02*
X0224858Y0118111D01*
X0225482Y0117513D02*
X0226942Y0117513D01*
X0227540Y0116914D02*
X0226105Y0116914D01*
X0226729Y0116316D02*
X0228139Y0116316D01*
X0228737Y0115717D02*
X0227352Y0115717D01*
X0227976Y0115119D02*
X0229336Y0115119D01*
X0229934Y0114520D02*
X0228599Y0114520D01*
X0229222Y0113922D02*
X0230300Y0113922D01*
X0230358Y0113323D02*
X0229846Y0113323D01*
X0230469Y0112725D02*
X0230606Y0112725D01*
X0231716Y0111528D02*
X0231914Y0111528D01*
X0232340Y0110929D02*
X0265000Y0110929D01*
X0265000Y0110331D02*
X0232963Y0110331D01*
X0233587Y0109732D02*
X0265000Y0109732D01*
X0265000Y0109134D02*
X0234210Y0109134D01*
X0234834Y0108535D02*
X0265000Y0108535D01*
X0265000Y0107937D02*
X0235457Y0107937D01*
X0236080Y0107338D02*
X0265000Y0107338D01*
X0265000Y0106739D02*
X0236704Y0106739D01*
X0237327Y0106141D02*
X0265000Y0106141D01*
X0265000Y0105542D02*
X0237951Y0105542D01*
X0238574Y0104944D02*
X0265000Y0104944D01*
X0265000Y0104345D02*
X0239198Y0104345D01*
X0239821Y0103747D02*
X0265000Y0103747D01*
X0265000Y0103148D02*
X0240445Y0103148D01*
X0241068Y0102550D02*
X0265000Y0102550D01*
X0265000Y0101951D02*
X0241691Y0101951D01*
X0242315Y0101353D02*
X0265000Y0101353D01*
X0265000Y0100754D02*
X0242938Y0100754D01*
X0243562Y0100156D02*
X0265000Y0100156D01*
X0265000Y0099557D02*
X0244185Y0099557D01*
X0244809Y0098959D02*
X0265000Y0098959D01*
X0265000Y0098360D02*
X0245432Y0098360D01*
X0246056Y0097762D02*
X0265000Y0097762D01*
X0265000Y0097163D02*
X0246679Y0097163D01*
X0247302Y0096565D02*
X0265000Y0096565D01*
X0265000Y0095966D02*
X0247926Y0095966D01*
X0248549Y0095368D02*
X0265000Y0095368D01*
X0265000Y0094769D02*
X0249173Y0094769D01*
X0249796Y0094171D02*
X0265000Y0094171D01*
X0265000Y0093572D02*
X0250420Y0093572D01*
X0251043Y0092974D02*
X0265000Y0092974D01*
X0265000Y0092375D02*
X0251667Y0092375D01*
X0252290Y0091777D02*
X0265000Y0091777D01*
X0265000Y0091178D02*
X0252914Y0091178D01*
X0253537Y0090580D02*
X0265000Y0090580D01*
X0265000Y0089981D02*
X0254160Y0089981D01*
X0254784Y0089383D02*
X0265000Y0089383D01*
X0265000Y0088784D02*
X0255407Y0088784D01*
X0256031Y0088186D02*
X0265000Y0088186D01*
X0265000Y0087587D02*
X0256654Y0087587D01*
X0257278Y0086989D02*
X0265000Y0086989D01*
X0265000Y0086390D02*
X0257901Y0086390D01*
X0258525Y0085792D02*
X0265000Y0085792D01*
X0265000Y0085193D02*
X0259148Y0085193D01*
X0259771Y0084595D02*
X0265000Y0084595D01*
X0265000Y0083996D02*
X0260395Y0083996D01*
X0261018Y0083398D02*
X0265000Y0083398D01*
X0265000Y0082799D02*
X0261642Y0082799D01*
X0262265Y0082201D02*
X0265000Y0082201D01*
X0265000Y0081602D02*
X0262889Y0081602D01*
X0263512Y0081003D02*
X0265000Y0081003D01*
X0265000Y0080405D02*
X0264141Y0080405D01*
X0264759Y0079806D02*
X0265000Y0079806D01*
X0265000Y0079208D02*
X0264800Y0079208D01*
X0264808Y0078609D02*
X0265000Y0078609D01*
X0265000Y0078011D02*
X0264800Y0078011D01*
X0264800Y0077412D02*
X0265000Y0077412D01*
X0265000Y0076814D02*
X0264800Y0076814D01*
X0264800Y0076215D02*
X0265000Y0076215D01*
X0265000Y0075617D02*
X0264800Y0075617D01*
X0264800Y0075018D02*
X0265000Y0075018D01*
X0265000Y0074420D02*
X0264800Y0074420D01*
X0264800Y0073821D02*
X0265000Y0073821D01*
X0265000Y0073223D02*
X0264800Y0073223D01*
X0264800Y0072624D02*
X0265000Y0072624D01*
X0265000Y0072026D02*
X0264800Y0072026D01*
X0264800Y0071427D02*
X0265000Y0071427D01*
X0265000Y0070829D02*
X0264800Y0070829D01*
X0264800Y0070230D02*
X0265000Y0070230D01*
X0265000Y0069632D02*
X0264800Y0069632D01*
X0264800Y0069033D02*
X0265000Y0069033D01*
X0265000Y0068435D02*
X0264800Y0068435D01*
X0265000Y0067836D02*
X0264382Y0067836D01*
X0263783Y0067238D02*
X0265000Y0067238D01*
X0265000Y0066639D02*
X0263185Y0066639D01*
X0262700Y0066041D02*
X0265000Y0066041D01*
X0265000Y0065442D02*
X0262691Y0065442D01*
X0262443Y0064844D02*
X0265000Y0064844D01*
X0265000Y0064245D02*
X0262064Y0064245D01*
X0261374Y0063647D02*
X0265000Y0063647D01*
X0265000Y0063048D02*
X0256412Y0063048D01*
X0255814Y0062450D02*
X0265000Y0062450D01*
X0265000Y0061851D02*
X0255215Y0061851D01*
X0254781Y0060300D02*
X0253300Y0060300D01*
X0253300Y0056300D01*
X0252700Y0056300D01*
X0252700Y0060300D01*
X0251219Y0060300D01*
X0248700Y0057781D01*
X0248700Y0056300D01*
X0252700Y0056300D01*
X0252700Y0055700D01*
X0248700Y0055700D01*
X0248700Y0054219D01*
X0251219Y0051700D01*
X0252700Y0051700D01*
X0252700Y0055700D01*
X0253300Y0055700D01*
X0253300Y0056300D01*
X0257300Y0056300D01*
X0257300Y0057781D01*
X0254781Y0060300D01*
X0255025Y0060056D02*
X0265000Y0060056D01*
X0265000Y0060654D02*
X0219926Y0060654D01*
X0219950Y0061253D02*
X0265000Y0061253D01*
X0265000Y0059457D02*
X0255624Y0059457D01*
X0256223Y0058859D02*
X0265000Y0058859D01*
X0265000Y0058260D02*
X0256821Y0058260D01*
X0257300Y0057662D02*
X0265000Y0057662D01*
X0265000Y0057063D02*
X0257300Y0057063D01*
X0257300Y0056465D02*
X0265000Y0056465D01*
X0265000Y0055866D02*
X0253300Y0055866D01*
X0253300Y0055700D02*
X0257300Y0055700D01*
X0257300Y0054219D01*
X0254781Y0051700D01*
X0253300Y0051700D01*
X0253300Y0055700D01*
X0253300Y0055268D02*
X0252700Y0055268D01*
X0252700Y0055866D02*
X0247500Y0055866D01*
X0247500Y0055268D02*
X0248700Y0055268D01*
X0248700Y0054669D02*
X0247500Y0054669D01*
X0247500Y0054136D02*
X0247500Y0057864D01*
X0244864Y0060500D01*
X0241136Y0060500D01*
X0238500Y0057864D01*
X0238500Y0057550D01*
X0110496Y0057550D01*
X0106200Y0061846D01*
X0106200Y0062537D01*
X0105789Y0063529D01*
X0105029Y0064289D01*
X0104037Y0064700D01*
X0102963Y0064700D01*
X0102800Y0064632D01*
X0102800Y0064982D01*
X0103289Y0065471D01*
X0103700Y0066463D01*
X0103700Y0067537D01*
X0103289Y0068529D01*
X0102529Y0069289D01*
X0101537Y0069700D01*
X0100463Y0069700D01*
X0099471Y0069289D01*
X0098711Y0068529D01*
X0098300Y0067537D01*
X0098300Y0066463D01*
X0098711Y0065471D01*
X0099200Y0064982D01*
X0099200Y0060018D01*
X0099050Y0059868D01*
X0099050Y0064496D01*
X0094950Y0068596D01*
X0094950Y0069037D01*
X0094539Y0070029D01*
X0093779Y0070789D01*
X0092787Y0071200D01*
X0091713Y0071200D01*
X0090721Y0070789D01*
X0089961Y0070029D01*
X0089550Y0069037D01*
X0089550Y0067963D01*
X0089961Y0066971D01*
X0090721Y0066211D01*
X0091713Y0065800D01*
X0092654Y0065800D01*
X0095450Y0063004D01*
X0095450Y0058004D01*
X0096504Y0056950D01*
X0096504Y0056950D01*
X0126950Y0026504D01*
X0128004Y0025450D01*
X0200232Y0025450D01*
X0200721Y0024961D01*
X0201713Y0024550D01*
X0202787Y0024550D01*
X0203779Y0024961D01*
X0204539Y0025721D01*
X0204950Y0026713D01*
X0204950Y0027787D01*
X0204539Y0028779D01*
X0203779Y0029539D01*
X0202787Y0029950D01*
X0201713Y0029950D01*
X0200721Y0029539D01*
X0200232Y0029050D01*
X0129496Y0029050D01*
X0102682Y0055864D01*
X0103289Y0056471D01*
X0103700Y0057463D01*
X0103700Y0058537D01*
X0103384Y0059300D01*
X0103654Y0059300D01*
X0107950Y0055004D01*
X0109004Y0053950D01*
X0238686Y0053950D01*
X0241136Y0051500D01*
X0244864Y0051500D01*
X0247500Y0054136D01*
X0247434Y0054070D02*
X0248848Y0054070D01*
X0249447Y0053472D02*
X0246836Y0053472D01*
X0246237Y0052873D02*
X0250045Y0052873D01*
X0250644Y0052275D02*
X0245639Y0052275D01*
X0245040Y0051676D02*
X0265000Y0051676D01*
X0265000Y0051078D02*
X0107468Y0051078D01*
X0108066Y0050479D02*
X0265000Y0050479D01*
X0265000Y0049881D02*
X0108665Y0049881D01*
X0109263Y0049282D02*
X0265000Y0049282D01*
X0265000Y0048684D02*
X0109862Y0048684D01*
X0110460Y0048085D02*
X0265000Y0048085D01*
X0265000Y0047487D02*
X0111059Y0047487D01*
X0111657Y0046888D02*
X0265000Y0046888D01*
X0265000Y0046290D02*
X0112256Y0046290D01*
X0112854Y0045691D02*
X0265000Y0045691D01*
X0265000Y0045093D02*
X0113453Y0045093D01*
X0114051Y0044494D02*
X0265000Y0044494D01*
X0265000Y0043896D02*
X0114650Y0043896D01*
X0115248Y0043297D02*
X0265000Y0043297D01*
X0265000Y0042699D02*
X0115847Y0042699D01*
X0116445Y0042100D02*
X0265000Y0042100D01*
X0265000Y0041502D02*
X0117044Y0041502D01*
X0117642Y0040903D02*
X0265000Y0040903D01*
X0265000Y0040305D02*
X0118241Y0040305D01*
X0118839Y0039706D02*
X0265000Y0039706D01*
X0265000Y0039108D02*
X0119438Y0039108D01*
X0120036Y0038509D02*
X0265000Y0038509D01*
X0265000Y0037911D02*
X0120635Y0037911D01*
X0121233Y0037312D02*
X0265000Y0037312D01*
X0265000Y0036714D02*
X0121832Y0036714D01*
X0122430Y0036115D02*
X0265000Y0036115D01*
X0265000Y0035517D02*
X0123029Y0035517D01*
X0123627Y0034918D02*
X0265000Y0034918D01*
X0265000Y0034320D02*
X0124226Y0034320D01*
X0124824Y0033721D02*
X0265000Y0033721D01*
X0265000Y0033123D02*
X0125423Y0033123D01*
X0126021Y0032524D02*
X0265000Y0032524D01*
X0265000Y0031926D02*
X0126620Y0031926D01*
X0127219Y0031327D02*
X0265000Y0031327D01*
X0265000Y0030729D02*
X0127817Y0030729D01*
X0128416Y0030130D02*
X0265000Y0030130D01*
X0265000Y0029532D02*
X0203787Y0029532D01*
X0204385Y0028933D02*
X0265000Y0028933D01*
X0265000Y0028334D02*
X0204723Y0028334D01*
X0204950Y0027736D02*
X0265000Y0027736D01*
X0265000Y0027137D02*
X0204950Y0027137D01*
X0204878Y0026539D02*
X0265000Y0026539D01*
X0265000Y0025940D02*
X0204630Y0025940D01*
X0204160Y0025342D02*
X0265000Y0025342D01*
X0265000Y0024743D02*
X0203254Y0024743D01*
X0201246Y0024743D02*
X0082000Y0024743D01*
X0082000Y0024145D02*
X0265000Y0024145D01*
X0265000Y0023546D02*
X0082000Y0023546D01*
X0082000Y0022948D02*
X0265000Y0022948D01*
X0265000Y0022349D02*
X0082000Y0022349D01*
X0082000Y0021751D02*
X0265000Y0021751D01*
X0265000Y0021152D02*
X0082000Y0021152D01*
X0082000Y0020554D02*
X0265000Y0020554D01*
X0265000Y0019955D02*
X0082000Y0019955D01*
X0082000Y0019357D02*
X0265000Y0019357D01*
X0265000Y0018758D02*
X0082000Y0018758D01*
X0082000Y0018160D02*
X0265000Y0018160D01*
X0265000Y0017561D02*
X0082000Y0017561D01*
X0082000Y0016963D02*
X0265000Y0016963D01*
X0265000Y0016364D02*
X0082000Y0016364D01*
X0082000Y0015766D02*
X0265000Y0015766D01*
X0265000Y0015167D02*
X0082000Y0015167D01*
X0082000Y0014569D02*
X0265000Y0014569D01*
X0265000Y0013970D02*
X0082000Y0013970D01*
X0082000Y0013372D02*
X0265000Y0013372D01*
X0265000Y0012773D02*
X0082000Y0012773D01*
X0082000Y0012175D02*
X0265000Y0012175D01*
X0265000Y0011576D02*
X0082000Y0011576D01*
X0082000Y0010978D02*
X0265000Y0010978D01*
X0265000Y0010379D02*
X0082000Y0010379D01*
X0082000Y0009781D02*
X0265000Y0009781D01*
X0265000Y0009182D02*
X0082000Y0009182D01*
X0082000Y0008584D02*
X0265000Y0008584D01*
X0265000Y0007985D02*
X0082000Y0007985D01*
X0082000Y0007387D02*
X0265000Y0007387D01*
X0265000Y0006788D02*
X0082000Y0006788D01*
X0082000Y0006190D02*
X0265000Y0006190D01*
X0265000Y0005591D02*
X0082000Y0005591D01*
X0082000Y0005000D02*
X0082000Y0027000D01*
X0020000Y0027000D01*
X0020000Y0116964D01*
X0089761Y0047203D01*
X0089961Y0046721D01*
X0090721Y0045961D01*
X0091713Y0045550D01*
X0092787Y0045550D01*
X0093779Y0045961D01*
X0094539Y0046721D01*
X0094573Y0046803D01*
X0094711Y0046471D01*
X0094818Y0046364D01*
X0082154Y0033700D01*
X0081463Y0033700D01*
X0080471Y0033289D01*
X0079711Y0032529D01*
X0079300Y0031537D01*
X0079300Y0030463D01*
X0079711Y0029471D01*
X0080471Y0028711D01*
X0081463Y0028300D01*
X0082537Y0028300D01*
X0083529Y0028711D01*
X0084289Y0029471D01*
X0084700Y0030463D01*
X0084700Y0031154D01*
X0098800Y0045254D01*
X0098800Y0045982D01*
X0099289Y0046471D01*
X0099700Y0047463D01*
X0099700Y0048537D01*
X0099289Y0049529D01*
X0098529Y0050289D01*
X0097537Y0050700D01*
X0096463Y0050700D01*
X0095471Y0050289D01*
X0094711Y0049529D01*
X0094677Y0049447D01*
X0094539Y0049779D01*
X0093779Y0050539D01*
X0094437Y0049881D02*
X0095063Y0049881D01*
X0092958Y0051078D02*
X0102376Y0051078D01*
X0101778Y0051676D02*
X0092359Y0051676D01*
X0091761Y0052275D02*
X0101179Y0052275D01*
X0100581Y0052873D02*
X0091162Y0052873D01*
X0090564Y0053472D02*
X0099982Y0053472D01*
X0099384Y0054070D02*
X0089965Y0054070D01*
X0089367Y0054669D02*
X0098785Y0054669D01*
X0098187Y0055268D02*
X0088768Y0055268D01*
X0088169Y0055866D02*
X0097588Y0055866D01*
X0096990Y0056465D02*
X0087571Y0056465D01*
X0086972Y0057063D02*
X0096391Y0057063D01*
X0095793Y0057662D02*
X0086374Y0057662D01*
X0085775Y0058260D02*
X0095450Y0058260D01*
X0095450Y0058859D02*
X0085177Y0058859D01*
X0084578Y0059457D02*
X0095450Y0059457D01*
X0095450Y0060056D02*
X0083980Y0060056D01*
X0084392Y0060654D02*
X0095450Y0060654D01*
X0095450Y0061253D02*
X0085071Y0061253D01*
X0085447Y0061851D02*
X0095450Y0061851D01*
X0095450Y0062450D02*
X0085694Y0062450D01*
X0085700Y0063048D02*
X0095406Y0063048D01*
X0094808Y0063647D02*
X0085655Y0063647D01*
X0085407Y0064245D02*
X0094209Y0064245D01*
X0093611Y0064844D02*
X0084975Y0064844D01*
X0084800Y0065442D02*
X0093012Y0065442D01*
X0091132Y0066041D02*
X0084800Y0066041D01*
X0084800Y0066639D02*
X0090292Y0066639D01*
X0089850Y0067238D02*
X0084800Y0067238D01*
X0084800Y0067836D02*
X0089602Y0067836D01*
X0089550Y0068435D02*
X0084800Y0068435D01*
X0084800Y0069033D02*
X0089550Y0069033D01*
X0089796Y0069632D02*
X0084800Y0069632D01*
X0084800Y0070230D02*
X0090162Y0070230D01*
X0090817Y0070829D02*
X0085374Y0070829D01*
X0085000Y0073000D02*
X0083000Y0071000D01*
X0083000Y0063000D01*
X0078106Y0058859D02*
X0020000Y0058859D01*
X0020000Y0059457D02*
X0077507Y0059457D01*
X0076909Y0060056D02*
X0020000Y0060056D01*
X0020000Y0060654D02*
X0076310Y0060654D01*
X0075712Y0061253D02*
X0020000Y0061253D01*
X0020000Y0061851D02*
X0075113Y0061851D01*
X0074515Y0062450D02*
X0020000Y0062450D01*
X0020000Y0063048D02*
X0073916Y0063048D01*
X0073318Y0063647D02*
X0020000Y0063647D01*
X0020000Y0064245D02*
X0072719Y0064245D01*
X0072121Y0064844D02*
X0020000Y0064844D01*
X0020000Y0065442D02*
X0071522Y0065442D01*
X0070924Y0066041D02*
X0020000Y0066041D01*
X0020000Y0066639D02*
X0070325Y0066639D01*
X0069727Y0067238D02*
X0020000Y0067238D01*
X0020000Y0067836D02*
X0069128Y0067836D01*
X0068530Y0068435D02*
X0020000Y0068435D01*
X0020000Y0069033D02*
X0067931Y0069033D01*
X0067333Y0069632D02*
X0020000Y0069632D01*
X0020000Y0070230D02*
X0066734Y0070230D01*
X0066136Y0070829D02*
X0020000Y0070829D01*
X0020000Y0071427D02*
X0065537Y0071427D01*
X0064939Y0072026D02*
X0020000Y0072026D01*
X0020000Y0072624D02*
X0064340Y0072624D01*
X0063742Y0073223D02*
X0020000Y0073223D01*
X0020000Y0073821D02*
X0063143Y0073821D01*
X0062545Y0074420D02*
X0020000Y0074420D01*
X0020000Y0075018D02*
X0061946Y0075018D01*
X0061348Y0075617D02*
X0020000Y0075617D01*
X0020000Y0076215D02*
X0060749Y0076215D01*
X0060151Y0076814D02*
X0020000Y0076814D01*
X0020000Y0077412D02*
X0059552Y0077412D01*
X0058954Y0078011D02*
X0020000Y0078011D01*
X0020000Y0078609D02*
X0058355Y0078609D01*
X0057757Y0079208D02*
X0020000Y0079208D01*
X0020000Y0079806D02*
X0057158Y0079806D01*
X0056559Y0080405D02*
X0020000Y0080405D01*
X0020000Y0081003D02*
X0055961Y0081003D01*
X0055362Y0081602D02*
X0020000Y0081602D01*
X0020000Y0082201D02*
X0054764Y0082201D01*
X0054165Y0082799D02*
X0020000Y0082799D01*
X0020000Y0083398D02*
X0053567Y0083398D01*
X0052968Y0083996D02*
X0020000Y0083996D01*
X0020000Y0084595D02*
X0052370Y0084595D01*
X0051771Y0085193D02*
X0020000Y0085193D01*
X0020000Y0085792D02*
X0051173Y0085792D01*
X0050574Y0086390D02*
X0020000Y0086390D01*
X0020000Y0086989D02*
X0049976Y0086989D01*
X0049377Y0087587D02*
X0020000Y0087587D01*
X0020000Y0088186D02*
X0048779Y0088186D01*
X0048180Y0088784D02*
X0020000Y0088784D01*
X0020000Y0089383D02*
X0047582Y0089383D01*
X0046983Y0089981D02*
X0020000Y0089981D01*
X0020000Y0090580D02*
X0046385Y0090580D01*
X0045786Y0091178D02*
X0020000Y0091178D01*
X0020000Y0091777D02*
X0045188Y0091777D01*
X0044589Y0092375D02*
X0020000Y0092375D01*
X0020000Y0092974D02*
X0043991Y0092974D01*
X0043392Y0093572D02*
X0020000Y0093572D01*
X0020000Y0094171D02*
X0042794Y0094171D01*
X0042195Y0094769D02*
X0020000Y0094769D01*
X0020000Y0095368D02*
X0041597Y0095368D01*
X0040998Y0095966D02*
X0020000Y0095966D01*
X0020000Y0096565D02*
X0040400Y0096565D01*
X0039801Y0097163D02*
X0020000Y0097163D01*
X0020000Y0097762D02*
X0039203Y0097762D01*
X0038604Y0098360D02*
X0020000Y0098360D01*
X0020000Y0098959D02*
X0038006Y0098959D01*
X0037407Y0099557D02*
X0020000Y0099557D01*
X0020000Y0100156D02*
X0036809Y0100156D01*
X0036210Y0100754D02*
X0020000Y0100754D01*
X0020000Y0101353D02*
X0035612Y0101353D01*
X0035013Y0101951D02*
X0020000Y0101951D01*
X0020000Y0102550D02*
X0034415Y0102550D01*
X0033816Y0103148D02*
X0020000Y0103148D01*
X0020000Y0103747D02*
X0033218Y0103747D01*
X0032619Y0104345D02*
X0020000Y0104345D01*
X0020000Y0104944D02*
X0032021Y0104944D01*
X0031422Y0105542D02*
X0020000Y0105542D01*
X0020000Y0106141D02*
X0030823Y0106141D01*
X0030225Y0106739D02*
X0020000Y0106739D01*
X0020000Y0107338D02*
X0029626Y0107338D01*
X0029028Y0107937D02*
X0020000Y0107937D01*
X0020000Y0108535D02*
X0028429Y0108535D01*
X0027831Y0109134D02*
X0020000Y0109134D01*
X0020000Y0109732D02*
X0027232Y0109732D01*
X0026634Y0110331D02*
X0020000Y0110331D01*
X0020000Y0110929D02*
X0026035Y0110929D01*
X0025437Y0111528D02*
X0020000Y0111528D01*
X0020000Y0112126D02*
X0024838Y0112126D01*
X0024240Y0112725D02*
X0020000Y0112725D01*
X0020000Y0113323D02*
X0023641Y0113323D01*
X0023043Y0113922D02*
X0020000Y0113922D01*
X0020000Y0114520D02*
X0022444Y0114520D01*
X0021846Y0115119D02*
X0020000Y0115119D01*
X0020000Y0115717D02*
X0021247Y0115717D01*
X0020649Y0116316D02*
X0020000Y0116316D01*
X0020000Y0116914D02*
X0020050Y0116914D01*
X0062000Y0115000D02*
X0062000Y0088000D01*
X0064000Y0086000D01*
X0081000Y0086000D01*
X0084000Y0079236D02*
X0084000Y0096750D01*
X0082250Y0096750D01*
X0074750Y0100750D02*
X0092250Y0100750D01*
X0103000Y0100000D02*
X0091000Y0086000D01*
X0084000Y0079236D02*
X0086236Y0077000D01*
X0103000Y0077000D01*
X0117750Y0061250D01*
X0217250Y0061250D01*
X0219270Y0063048D02*
X0239588Y0063048D01*
X0240186Y0062450D02*
X0219676Y0062450D01*
X0219923Y0061851D02*
X0240785Y0061851D01*
X0240692Y0060056D02*
X0219678Y0060056D01*
X0219275Y0059457D02*
X0240093Y0059457D01*
X0239495Y0058859D02*
X0218532Y0058859D01*
X0215968Y0058859D02*
X0109187Y0058859D01*
X0108588Y0059457D02*
X0116997Y0059457D01*
X0116399Y0060056D02*
X0107990Y0060056D01*
X0107391Y0060654D02*
X0115842Y0060654D01*
X0115281Y0061253D02*
X0106793Y0061253D01*
X0106200Y0061851D02*
X0114721Y0061851D01*
X0114160Y0062450D02*
X0106200Y0062450D01*
X0105988Y0063048D02*
X0113600Y0063048D01*
X0113039Y0063647D02*
X0105672Y0063647D01*
X0105073Y0064245D02*
X0112479Y0064245D01*
X0111918Y0064844D02*
X0102800Y0064844D01*
X0103261Y0065442D02*
X0111358Y0065442D01*
X0110797Y0066041D02*
X0103525Y0066041D01*
X0103700Y0066639D02*
X0110237Y0066639D01*
X0109676Y0067238D02*
X0103700Y0067238D01*
X0103576Y0067836D02*
X0109116Y0067836D01*
X0108555Y0068435D02*
X0103328Y0068435D01*
X0102785Y0069033D02*
X0107995Y0069033D01*
X0107434Y0069632D02*
X0101702Y0069632D01*
X0100298Y0069632D02*
X0094704Y0069632D01*
X0094950Y0069033D02*
X0099215Y0069033D01*
X0098672Y0068435D02*
X0095111Y0068435D01*
X0095709Y0067836D02*
X0098424Y0067836D01*
X0098300Y0067238D02*
X0096308Y0067238D01*
X0096906Y0066639D02*
X0098300Y0066639D01*
X0098475Y0066041D02*
X0097505Y0066041D01*
X0098103Y0065442D02*
X0098739Y0065442D01*
X0098702Y0064844D02*
X0099200Y0064844D01*
X0099200Y0064245D02*
X0099050Y0064245D01*
X0099050Y0063647D02*
X0099200Y0063647D01*
X0099200Y0063048D02*
X0099050Y0063048D01*
X0099050Y0062450D02*
X0099200Y0062450D01*
X0099200Y0061851D02*
X0099050Y0061851D01*
X0099050Y0061253D02*
X0099200Y0061253D01*
X0099200Y0060654D02*
X0099050Y0060654D01*
X0099050Y0060056D02*
X0099200Y0060056D01*
X0097250Y0058750D02*
X0128750Y0027250D01*
X0202250Y0027250D01*
X0200340Y0025342D02*
X0082000Y0025342D01*
X0082000Y0025940D02*
X0127514Y0025940D01*
X0126950Y0026504D02*
X0126950Y0026504D01*
X0126915Y0026539D02*
X0082000Y0026539D01*
X0082620Y0028334D02*
X0125120Y0028334D01*
X0125718Y0027736D02*
X0020000Y0027736D01*
X0020000Y0028334D02*
X0081380Y0028334D01*
X0080249Y0028933D02*
X0020000Y0028933D01*
X0020000Y0029532D02*
X0079686Y0029532D01*
X0079438Y0030130D02*
X0020000Y0030130D01*
X0020000Y0030729D02*
X0079300Y0030729D01*
X0079300Y0031327D02*
X0020000Y0031327D01*
X0020000Y0031926D02*
X0079461Y0031926D01*
X0079709Y0032524D02*
X0020000Y0032524D01*
X0020000Y0033123D02*
X0080304Y0033123D01*
X0082176Y0033721D02*
X0020000Y0033721D01*
X0020000Y0034320D02*
X0082774Y0034320D01*
X0083373Y0034918D02*
X0020000Y0034918D01*
X0020000Y0035517D02*
X0083971Y0035517D01*
X0084570Y0036115D02*
X0020000Y0036115D01*
X0020000Y0036714D02*
X0085168Y0036714D01*
X0085767Y0037312D02*
X0020000Y0037312D01*
X0020000Y0037911D02*
X0086365Y0037911D01*
X0086964Y0038509D02*
X0020000Y0038509D01*
X0020000Y0039108D02*
X0087562Y0039108D01*
X0088161Y0039706D02*
X0020000Y0039706D01*
X0020000Y0040305D02*
X0088759Y0040305D01*
X0089358Y0040903D02*
X0020000Y0040903D01*
X0020000Y0041502D02*
X0089956Y0041502D01*
X0090555Y0042100D02*
X0020000Y0042100D01*
X0020000Y0042699D02*
X0091153Y0042699D01*
X0091752Y0043297D02*
X0020000Y0043297D01*
X0020000Y0043896D02*
X0092350Y0043896D01*
X0092949Y0044494D02*
X0020000Y0044494D01*
X0020000Y0045093D02*
X0093547Y0045093D01*
X0093128Y0045691D02*
X0094146Y0045691D01*
X0094108Y0046290D02*
X0094744Y0046290D01*
X0091372Y0045691D02*
X0020000Y0045691D01*
X0020000Y0046290D02*
X0090392Y0046290D01*
X0089892Y0046888D02*
X0020000Y0046888D01*
X0020000Y0047487D02*
X0089478Y0047487D01*
X0088879Y0048085D02*
X0020000Y0048085D01*
X0020000Y0048684D02*
X0088281Y0048684D01*
X0087682Y0049282D02*
X0020000Y0049282D01*
X0020000Y0049881D02*
X0087084Y0049881D01*
X0086485Y0050479D02*
X0020000Y0050479D01*
X0020000Y0051078D02*
X0085887Y0051078D01*
X0085288Y0051676D02*
X0020000Y0051676D01*
X0020000Y0052275D02*
X0084690Y0052275D01*
X0084091Y0052873D02*
X0020000Y0052873D01*
X0020000Y0053472D02*
X0083492Y0053472D01*
X0082894Y0054070D02*
X0020000Y0054070D01*
X0020000Y0054669D02*
X0082295Y0054669D01*
X0081697Y0055268D02*
X0020000Y0055268D01*
X0020000Y0055866D02*
X0081098Y0055866D01*
X0080500Y0056465D02*
X0020000Y0056465D01*
X0020000Y0057063D02*
X0079901Y0057063D01*
X0079303Y0057662D02*
X0020000Y0057662D01*
X0020000Y0058260D02*
X0078704Y0058260D01*
X0092250Y0068500D02*
X0093000Y0068000D01*
X0097250Y0063750D01*
X0097250Y0058750D01*
X0101000Y0058000D02*
X0101000Y0067000D01*
X0102844Y0071427D02*
X0105753Y0071427D01*
X0106313Y0070829D02*
X0093683Y0070829D01*
X0094338Y0070230D02*
X0106874Y0070230D01*
X0105192Y0072026D02*
X0103844Y0072026D01*
X0104353Y0072624D02*
X0104632Y0072624D01*
X0102000Y0074000D02*
X0101000Y0073000D01*
X0085000Y0073000D01*
X0102000Y0081000D02*
X0102000Y0083000D01*
X0120000Y0100000D01*
X0116000Y0100000D02*
X0109000Y0093000D01*
X0108000Y0096000D02*
X0108000Y0097000D01*
X0111000Y0100000D01*
X0106000Y0100000D02*
X0103000Y0100000D01*
X0108000Y0109000D02*
X0106000Y0111000D01*
X0106000Y0129000D01*
X0101000Y0126000D02*
X0101000Y0119000D01*
X0097000Y0113000D01*
X0097000Y0123000D02*
X0084000Y0123000D01*
X0078000Y0117000D01*
X0078000Y0110000D01*
X0075000Y0108000D01*
X0071000Y0103250D02*
X0198000Y0103250D01*
X0199921Y0101353D02*
X0212700Y0101353D01*
X0212700Y0101951D02*
X0200385Y0101951D01*
X0200632Y0102550D02*
X0212947Y0102550D01*
X0212700Y0102303D02*
X0213579Y0103182D01*
X0222421Y0103182D01*
X0223300Y0102303D01*
X0223300Y0093461D01*
X0222421Y0092582D01*
X0213579Y0092582D01*
X0212700Y0093461D01*
X0212700Y0102303D01*
X0213545Y0103148D02*
X0200700Y0103148D01*
X0200700Y0103747D02*
X0222707Y0103747D01*
X0222455Y0103148D02*
X0223306Y0103148D01*
X0223053Y0102550D02*
X0223905Y0102550D01*
X0224503Y0101951D02*
X0223300Y0101951D01*
X0223300Y0101353D02*
X0225102Y0101353D01*
X0225700Y0100754D02*
X0223300Y0100754D01*
X0223300Y0100156D02*
X0226299Y0100156D01*
X0226897Y0099557D02*
X0223300Y0099557D01*
X0223300Y0098959D02*
X0227496Y0098959D01*
X0228094Y0098360D02*
X0223300Y0098360D01*
X0223300Y0097762D02*
X0228693Y0097762D01*
X0229291Y0097163D02*
X0223300Y0097163D01*
X0223300Y0096565D02*
X0229890Y0096565D01*
X0230488Y0095966D02*
X0223300Y0095966D01*
X0223300Y0095368D02*
X0231087Y0095368D01*
X0231685Y0094769D02*
X0223300Y0094769D01*
X0223300Y0094171D02*
X0232284Y0094171D01*
X0232882Y0093572D02*
X0223300Y0093572D01*
X0222813Y0092974D02*
X0233481Y0092974D01*
X0234079Y0092375D02*
X0186170Y0092375D01*
X0185572Y0092974D02*
X0213187Y0092974D01*
X0212700Y0093572D02*
X0184973Y0093572D01*
X0184375Y0094171D02*
X0212700Y0094171D01*
X0212700Y0094769D02*
X0183776Y0094769D01*
X0183700Y0094846D02*
X0183700Y0095537D01*
X0183289Y0096529D01*
X0182529Y0097289D01*
X0181537Y0097700D01*
X0180463Y0097700D01*
X0179471Y0097289D01*
X0178711Y0096529D01*
X0178300Y0095537D01*
X0178300Y0094463D01*
X0178711Y0093471D01*
X0179471Y0092711D01*
X0180463Y0092300D01*
X0181154Y0092300D01*
X0188300Y0085154D01*
X0188300Y0084463D01*
X0188711Y0083471D01*
X0189471Y0082711D01*
X0190463Y0082300D01*
X0191537Y0082300D01*
X0192529Y0082711D01*
X0193289Y0083471D01*
X0193700Y0084463D01*
X0193700Y0085537D01*
X0193289Y0086529D01*
X0192529Y0087289D01*
X0191537Y0087700D01*
X0190846Y0087700D01*
X0183700Y0094846D01*
X0183700Y0095368D02*
X0212700Y0095368D01*
X0212700Y0095966D02*
X0183522Y0095966D01*
X0183254Y0096565D02*
X0212700Y0096565D01*
X0212700Y0097163D02*
X0182655Y0097163D01*
X0181000Y0095000D02*
X0191000Y0085000D01*
X0193507Y0083996D02*
X0240490Y0083996D01*
X0240300Y0083398D02*
X0193216Y0083398D01*
X0192617Y0082799D02*
X0240300Y0082799D01*
X0240409Y0082201D02*
X0145700Y0082201D01*
X0145700Y0081602D02*
X0184226Y0081602D01*
X0184463Y0081700D02*
X0183471Y0081289D01*
X0182711Y0080529D01*
X0182300Y0079537D01*
X0182300Y0078463D01*
X0182711Y0077471D01*
X0183471Y0076711D01*
X0184200Y0076409D01*
X0184200Y0069018D01*
X0183711Y0068529D01*
X0183300Y0067537D01*
X0183300Y0066463D01*
X0183711Y0065471D01*
X0184471Y0064711D01*
X0185463Y0064300D01*
X0186537Y0064300D01*
X0187529Y0064711D01*
X0188289Y0065471D01*
X0188700Y0066463D01*
X0188700Y0067537D01*
X0188289Y0068529D01*
X0187800Y0069018D01*
X0187800Y0078746D01*
X0187700Y0078846D01*
X0187700Y0079537D01*
X0187289Y0080529D01*
X0186529Y0081289D01*
X0185537Y0081700D01*
X0184463Y0081700D01*
X0185774Y0081602D02*
X0240657Y0081602D01*
X0241178Y0081003D02*
X0186815Y0081003D01*
X0187340Y0080405D02*
X0241041Y0080405D01*
X0240443Y0079806D02*
X0187588Y0079806D01*
X0187700Y0079208D02*
X0239844Y0079208D01*
X0239245Y0078609D02*
X0187800Y0078609D01*
X0187800Y0078011D02*
X0238647Y0078011D01*
X0238500Y0077412D02*
X0187800Y0077412D01*
X0187800Y0076814D02*
X0238500Y0076814D01*
X0238500Y0076215D02*
X0187800Y0076215D01*
X0187800Y0075617D02*
X0238500Y0075617D01*
X0238500Y0075018D02*
X0187800Y0075018D01*
X0187800Y0074420D02*
X0238500Y0074420D01*
X0238815Y0073821D02*
X0187800Y0073821D01*
X0187800Y0073223D02*
X0201404Y0073223D01*
X0200806Y0072624D02*
X0187800Y0072624D01*
X0187800Y0072026D02*
X0200502Y0072026D01*
X0200300Y0071427D02*
X0187800Y0071427D01*
X0187800Y0070829D02*
X0200300Y0070829D01*
X0200396Y0070230D02*
X0187800Y0070230D01*
X0187800Y0069632D02*
X0200644Y0069632D01*
X0201148Y0069033D02*
X0187800Y0069033D01*
X0188328Y0068435D02*
X0202138Y0068435D01*
X0203862Y0068435D02*
X0239071Y0068435D01*
X0238500Y0067836D02*
X0188576Y0067836D01*
X0188700Y0067238D02*
X0238500Y0067238D01*
X0238500Y0066639D02*
X0188700Y0066639D01*
X0188525Y0066041D02*
X0238500Y0066041D01*
X0238500Y0065442D02*
X0188261Y0065442D01*
X0187662Y0064844D02*
X0238500Y0064844D01*
X0238500Y0064245D02*
X0134610Y0064245D01*
X0134700Y0064844D02*
X0141338Y0064844D01*
X0140739Y0065442D02*
X0134700Y0065442D01*
X0134491Y0066041D02*
X0140475Y0066041D01*
X0140300Y0066639D02*
X0134179Y0066639D01*
X0133800Y0067238D02*
X0140300Y0067238D01*
X0140424Y0067836D02*
X0133800Y0067836D01*
X0133800Y0068435D02*
X0140672Y0068435D01*
X0141200Y0069033D02*
X0133800Y0069033D01*
X0133800Y0069632D02*
X0141200Y0069632D01*
X0141200Y0070230D02*
X0133800Y0070230D01*
X0133800Y0070829D02*
X0141200Y0070829D01*
X0141200Y0071427D02*
X0134246Y0071427D01*
X0134519Y0072026D02*
X0141200Y0072026D01*
X0141200Y0072624D02*
X0134700Y0072624D01*
X0134700Y0073223D02*
X0141200Y0073223D01*
X0141200Y0073821D02*
X0134582Y0073821D01*
X0134334Y0074420D02*
X0141200Y0074420D01*
X0141200Y0075018D02*
X0133800Y0075018D01*
X0132738Y0075617D02*
X0141200Y0075617D01*
X0141200Y0076215D02*
X0110700Y0076215D01*
X0110585Y0076814D02*
X0137368Y0076814D01*
X0136769Y0077412D02*
X0110337Y0077412D01*
X0109807Y0078011D02*
X0136487Y0078011D01*
X0136300Y0078609D02*
X0109800Y0078609D01*
X0109800Y0079208D02*
X0136300Y0079208D01*
X0135834Y0079806D02*
X0109800Y0079806D01*
X0109800Y0080405D02*
X0135290Y0080405D01*
X0134746Y0081003D02*
X0109800Y0081003D01*
X0109800Y0081602D02*
X0134202Y0081602D01*
X0133658Y0082201D02*
X0109800Y0082201D01*
X0110345Y0082799D02*
X0133114Y0082799D01*
X0132570Y0083398D02*
X0110943Y0083398D01*
X0111542Y0083996D02*
X0132026Y0083996D01*
X0131481Y0084595D02*
X0112140Y0084595D01*
X0112739Y0085193D02*
X0130937Y0085193D01*
X0130393Y0085792D02*
X0113337Y0085792D01*
X0113936Y0086390D02*
X0129849Y0086390D01*
X0129305Y0086989D02*
X0114534Y0086989D01*
X0115133Y0087587D02*
X0128761Y0087587D01*
X0128217Y0088186D02*
X0115731Y0088186D01*
X0116330Y0088784D02*
X0127670Y0088784D01*
X0127169Y0089383D02*
X0116928Y0089383D01*
X0117527Y0089981D02*
X0127197Y0089981D01*
X0127200Y0090580D02*
X0118125Y0090580D01*
X0118724Y0091178D02*
X0127200Y0091178D01*
X0127200Y0091777D02*
X0119322Y0091777D01*
X0119921Y0092375D02*
X0127200Y0092375D01*
X0127200Y0092974D02*
X0120519Y0092974D01*
X0121118Y0093572D02*
X0127200Y0093572D01*
X0127200Y0094171D02*
X0121716Y0094171D01*
X0122315Y0094769D02*
X0127200Y0094769D01*
X0127200Y0095368D02*
X0122913Y0095368D01*
X0123512Y0095966D02*
X0127200Y0095966D01*
X0127200Y0096565D02*
X0124110Y0096565D01*
X0124709Y0097163D02*
X0127200Y0097163D01*
X0127200Y0097762D02*
X0126580Y0097762D01*
X0125000Y0100000D02*
X0108000Y0083000D01*
X0108000Y0076000D01*
X0111738Y0075617D02*
X0121262Y0075617D01*
X0120200Y0075018D02*
X0112800Y0075018D01*
X0111000Y0073000D02*
X0122000Y0073000D01*
X0124519Y0072026D02*
X0129481Y0072026D01*
X0129300Y0072624D02*
X0124700Y0072624D01*
X0124700Y0073223D02*
X0129300Y0073223D01*
X0129418Y0073821D02*
X0124582Y0073821D01*
X0124334Y0074420D02*
X0129666Y0074420D01*
X0130200Y0075018D02*
X0123800Y0075018D01*
X0122738Y0075617D02*
X0131262Y0075617D01*
X0132000Y0073000D02*
X0132000Y0065000D01*
X0129509Y0066041D02*
X0115730Y0066041D01*
X0116290Y0065442D02*
X0129300Y0065442D01*
X0129300Y0064844D02*
X0116851Y0064844D01*
X0117411Y0064245D02*
X0129390Y0064245D01*
X0129638Y0063647D02*
X0117972Y0063647D01*
X0115169Y0066639D02*
X0129821Y0066639D01*
X0130200Y0067238D02*
X0114609Y0067238D01*
X0114048Y0067836D02*
X0130200Y0067836D01*
X0130200Y0068435D02*
X0113487Y0068435D01*
X0112927Y0069033D02*
X0130200Y0069033D01*
X0130200Y0069632D02*
X0112366Y0069632D01*
X0111806Y0070230D02*
X0130200Y0070230D01*
X0130200Y0070829D02*
X0123647Y0070829D01*
X0124246Y0071427D02*
X0129754Y0071427D01*
X0134362Y0063647D02*
X0215981Y0063647D01*
X0218519Y0063647D02*
X0238989Y0063647D01*
X0245215Y0061851D02*
X0250785Y0061851D01*
X0250186Y0062450D02*
X0245814Y0062450D01*
X0246412Y0063048D02*
X0249588Y0063048D01*
X0248989Y0063647D02*
X0247011Y0063647D01*
X0247500Y0064245D02*
X0248500Y0064245D01*
X0248500Y0064844D02*
X0247500Y0064844D01*
X0247500Y0065442D02*
X0248500Y0065442D01*
X0248500Y0066041D02*
X0247500Y0066041D01*
X0247500Y0066639D02*
X0248500Y0066639D01*
X0248500Y0067238D02*
X0247500Y0067238D01*
X0247500Y0067836D02*
X0248500Y0067836D01*
X0249071Y0068435D02*
X0246929Y0068435D01*
X0246331Y0069033D02*
X0249669Y0069033D01*
X0249338Y0069632D02*
X0250268Y0069632D01*
X0250049Y0070230D02*
X0250866Y0070230D01*
X0250437Y0070829D02*
X0261200Y0070829D01*
X0261200Y0071427D02*
X0250685Y0071427D01*
X0248000Y0072000D02*
X0245000Y0071000D01*
X0203000Y0071000D01*
X0204852Y0069033D02*
X0239669Y0069033D01*
X0239413Y0073223D02*
X0204596Y0073223D01*
X0193700Y0084595D02*
X0240776Y0084595D01*
X0241200Y0085193D02*
X0193700Y0085193D01*
X0193595Y0085792D02*
X0240663Y0085792D01*
X0240064Y0086390D02*
X0193347Y0086390D01*
X0192830Y0086989D02*
X0239466Y0086989D01*
X0238867Y0087587D02*
X0191810Y0087587D01*
X0190360Y0088186D02*
X0238269Y0088186D01*
X0237670Y0088784D02*
X0189761Y0088784D01*
X0189163Y0089383D02*
X0237072Y0089383D01*
X0236473Y0089981D02*
X0188564Y0089981D01*
X0187966Y0090580D02*
X0235875Y0090580D01*
X0235276Y0091178D02*
X0187367Y0091178D01*
X0186769Y0091777D02*
X0234678Y0091777D01*
X0237375Y0094171D02*
X0244598Y0094171D01*
X0243975Y0094769D02*
X0236776Y0094769D01*
X0236178Y0095368D02*
X0243351Y0095368D01*
X0242728Y0095966D02*
X0235579Y0095966D01*
X0234981Y0096565D02*
X0242104Y0096565D01*
X0241481Y0097163D02*
X0234382Y0097163D01*
X0233784Y0097762D02*
X0240857Y0097762D01*
X0240234Y0098360D02*
X0233185Y0098360D01*
X0232587Y0098959D02*
X0239610Y0098959D01*
X0238987Y0099557D02*
X0231988Y0099557D01*
X0231390Y0100156D02*
X0238363Y0100156D01*
X0237740Y0100754D02*
X0230791Y0100754D01*
X0230193Y0101353D02*
X0237117Y0101353D01*
X0236493Y0101951D02*
X0229594Y0101951D01*
X0228996Y0102550D02*
X0235870Y0102550D01*
X0235246Y0103148D02*
X0228397Y0103148D01*
X0227799Y0103747D02*
X0234623Y0103747D01*
X0233999Y0104345D02*
X0227200Y0104345D01*
X0226602Y0104944D02*
X0233376Y0104944D01*
X0232752Y0105542D02*
X0226003Y0105542D01*
X0225405Y0106141D02*
X0232129Y0106141D01*
X0231506Y0106739D02*
X0224806Y0106739D01*
X0224208Y0107338D02*
X0230882Y0107338D01*
X0230259Y0107937D02*
X0223609Y0107937D01*
X0223011Y0108535D02*
X0229635Y0108535D01*
X0229012Y0109134D02*
X0174412Y0109134D01*
X0173814Y0109732D02*
X0228388Y0109732D01*
X0227765Y0110331D02*
X0173215Y0110331D01*
X0172616Y0110929D02*
X0227141Y0110929D01*
X0226518Y0111528D02*
X0172018Y0111528D01*
X0171419Y0112126D02*
X0225895Y0112126D01*
X0225271Y0112725D02*
X0170821Y0112725D01*
X0170222Y0113323D02*
X0224648Y0113323D01*
X0224024Y0113922D02*
X0169624Y0113922D01*
X0169025Y0114520D02*
X0223401Y0114520D01*
X0222777Y0115119D02*
X0168427Y0115119D01*
X0167828Y0115717D02*
X0222154Y0115717D01*
X0221530Y0116316D02*
X0167230Y0116316D01*
X0166631Y0116914D02*
X0220907Y0116914D01*
X0220283Y0117513D02*
X0166033Y0117513D01*
X0165434Y0118111D02*
X0219660Y0118111D01*
X0219037Y0118710D02*
X0164836Y0118710D01*
X0164237Y0119308D02*
X0218413Y0119308D01*
X0217790Y0119907D02*
X0163639Y0119907D01*
X0163040Y0120505D02*
X0217166Y0120505D01*
X0216543Y0121104D02*
X0162442Y0121104D01*
X0161843Y0121702D02*
X0215919Y0121702D01*
X0215296Y0122301D02*
X0161245Y0122301D01*
X0160646Y0122899D02*
X0214672Y0122899D01*
X0214049Y0123498D02*
X0160048Y0123498D01*
X0159800Y0124096D02*
X0213426Y0124096D01*
X0212802Y0124695D02*
X0162490Y0124695D01*
X0161000Y0127000D02*
X0213000Y0127000D01*
X0263000Y0079000D01*
X0263000Y0069000D01*
X0260000Y0066000D01*
X0258018Y0067836D02*
X0257500Y0067836D01*
X0257500Y0067238D02*
X0257590Y0067238D01*
X0256929Y0068435D02*
X0258823Y0068435D01*
X0260488Y0069033D02*
X0256331Y0069033D01*
X0255732Y0069632D02*
X0261086Y0069632D01*
X0261200Y0070230D02*
X0255134Y0070230D01*
X0255390Y0072026D02*
X0261200Y0072026D01*
X0261200Y0072624D02*
X0255988Y0072624D01*
X0256587Y0073223D02*
X0261200Y0073223D01*
X0261200Y0073821D02*
X0257185Y0073821D01*
X0257500Y0074420D02*
X0261200Y0074420D01*
X0261200Y0075018D02*
X0257500Y0075018D01*
X0257500Y0075617D02*
X0261200Y0075617D01*
X0261200Y0076215D02*
X0257500Y0076215D01*
X0257500Y0076814D02*
X0261200Y0076814D01*
X0261200Y0077412D02*
X0257500Y0077412D01*
X0257353Y0078011D02*
X0261200Y0078011D01*
X0260808Y0078609D02*
X0256754Y0078609D01*
X0256156Y0079208D02*
X0260184Y0079208D01*
X0259561Y0079806D02*
X0255557Y0079806D01*
X0254959Y0080405D02*
X0258937Y0080405D01*
X0258314Y0081003D02*
X0244822Y0081003D01*
X0244959Y0080405D02*
X0251041Y0080405D01*
X0250443Y0079806D02*
X0245557Y0079806D01*
X0246156Y0079208D02*
X0249844Y0079208D01*
X0249245Y0078609D02*
X0246754Y0078609D01*
X0247353Y0078011D02*
X0248647Y0078011D01*
X0248500Y0077412D02*
X0247500Y0077412D01*
X0247500Y0076814D02*
X0248500Y0076814D01*
X0248500Y0076215D02*
X0247500Y0076215D01*
X0247500Y0075617D02*
X0248500Y0075617D01*
X0248500Y0075018D02*
X0247500Y0075018D01*
X0246662Y0069632D02*
X0246587Y0069632D01*
X0257011Y0063647D02*
X0258626Y0063647D01*
X0257936Y0064245D02*
X0257500Y0064245D01*
X0257500Y0064844D02*
X0257556Y0064844D01*
X0253300Y0060056D02*
X0252700Y0060056D01*
X0252700Y0059457D02*
X0253300Y0059457D01*
X0253300Y0058859D02*
X0252700Y0058859D01*
X0252700Y0058260D02*
X0253300Y0058260D01*
X0253300Y0057662D02*
X0252700Y0057662D01*
X0252700Y0057063D02*
X0253300Y0057063D01*
X0253300Y0056465D02*
X0252700Y0056465D01*
X0252700Y0054669D02*
X0253300Y0054669D01*
X0253300Y0054070D02*
X0252700Y0054070D01*
X0252700Y0053472D02*
X0253300Y0053472D01*
X0253300Y0052873D02*
X0252700Y0052873D01*
X0252700Y0052275D02*
X0253300Y0052275D01*
X0255356Y0052275D02*
X0265000Y0052275D01*
X0265000Y0052873D02*
X0255955Y0052873D01*
X0256553Y0053472D02*
X0265000Y0053472D01*
X0265000Y0054070D02*
X0257152Y0054070D01*
X0257300Y0054669D02*
X0265000Y0054669D01*
X0265000Y0055268D02*
X0257300Y0055268D01*
X0250974Y0060056D02*
X0245308Y0060056D01*
X0245907Y0059457D02*
X0250376Y0059457D01*
X0249777Y0058859D02*
X0246505Y0058859D01*
X0247104Y0058260D02*
X0249179Y0058260D01*
X0248700Y0057662D02*
X0247500Y0057662D01*
X0247500Y0057063D02*
X0248700Y0057063D01*
X0248700Y0056465D02*
X0247500Y0056465D01*
X0243000Y0056000D02*
X0242250Y0055750D01*
X0109750Y0055750D01*
X0103500Y0062000D01*
X0103567Y0058859D02*
X0104096Y0058859D01*
X0103700Y0058260D02*
X0104694Y0058260D01*
X0105293Y0057662D02*
X0103700Y0057662D01*
X0103534Y0057063D02*
X0105891Y0057063D01*
X0106490Y0056465D02*
X0103283Y0056465D01*
X0102684Y0055866D02*
X0107088Y0055866D01*
X0107687Y0055268D02*
X0103278Y0055268D01*
X0103877Y0054669D02*
X0108285Y0054669D01*
X0108884Y0054070D02*
X0104475Y0054070D01*
X0105074Y0053472D02*
X0239164Y0053472D01*
X0239763Y0052873D02*
X0105672Y0052873D01*
X0106271Y0052275D02*
X0240361Y0052275D01*
X0240960Y0051676D02*
X0106869Y0051676D01*
X0104172Y0049282D02*
X0099391Y0049282D01*
X0099639Y0048684D02*
X0104771Y0048684D01*
X0105369Y0048085D02*
X0099700Y0048085D01*
X0099700Y0047487D02*
X0105968Y0047487D01*
X0106566Y0046888D02*
X0099462Y0046888D01*
X0099108Y0046290D02*
X0107165Y0046290D01*
X0107763Y0045691D02*
X0098800Y0045691D01*
X0098638Y0045093D02*
X0108362Y0045093D01*
X0108960Y0044494D02*
X0098040Y0044494D01*
X0097441Y0043896D02*
X0109559Y0043896D01*
X0110157Y0043297D02*
X0096843Y0043297D01*
X0096244Y0042699D02*
X0110756Y0042699D01*
X0111354Y0042100D02*
X0095646Y0042100D01*
X0095047Y0041502D02*
X0111953Y0041502D01*
X0112551Y0040903D02*
X0094449Y0040903D01*
X0093850Y0040305D02*
X0113150Y0040305D01*
X0113748Y0039706D02*
X0093252Y0039706D01*
X0092653Y0039108D02*
X0114347Y0039108D01*
X0114945Y0038509D02*
X0092055Y0038509D01*
X0091456Y0037911D02*
X0115544Y0037911D01*
X0116142Y0037312D02*
X0090858Y0037312D01*
X0090259Y0036714D02*
X0116741Y0036714D01*
X0117339Y0036115D02*
X0089661Y0036115D01*
X0089062Y0035517D02*
X0117938Y0035517D01*
X0118536Y0034918D02*
X0088464Y0034918D01*
X0087865Y0034320D02*
X0119135Y0034320D01*
X0119733Y0033721D02*
X0087267Y0033721D01*
X0086668Y0033123D02*
X0120332Y0033123D01*
X0120930Y0032524D02*
X0086070Y0032524D01*
X0085471Y0031926D02*
X0121529Y0031926D01*
X0122127Y0031327D02*
X0084873Y0031327D01*
X0084700Y0030729D02*
X0122726Y0030729D01*
X0123324Y0030130D02*
X0084562Y0030130D01*
X0084314Y0029532D02*
X0123923Y0029532D01*
X0124521Y0028933D02*
X0083751Y0028933D01*
X0098070Y0050479D02*
X0102975Y0050479D01*
X0103574Y0049881D02*
X0098937Y0049881D01*
X0109786Y0058260D02*
X0238896Y0058260D01*
X0238500Y0057662D02*
X0110384Y0057662D01*
X0112647Y0070829D02*
X0120353Y0070829D01*
X0139000Y0079000D02*
X0129000Y0090000D01*
X0129000Y0100000D01*
X0137000Y0107000D02*
X0142000Y0107000D01*
X0148000Y0111000D01*
X0149200Y0113600D02*
X0151200Y0111100D01*
X0151000Y0106000D01*
X0157000Y0106000D01*
X0155118Y0107937D02*
X0152882Y0107937D01*
X0152877Y0107941D02*
X0152996Y0110965D01*
X0153071Y0111642D01*
X0153025Y0111700D01*
X0153028Y0111774D01*
X0152565Y0112275D01*
X0151000Y0114231D01*
X0151000Y0114346D01*
X0150543Y0114802D01*
X0150140Y0115307D01*
X0150026Y0115319D01*
X0126700Y0138646D01*
X0126700Y0139537D01*
X0126289Y0140529D01*
X0125529Y0141289D01*
X0124537Y0141700D01*
X0123846Y0141700D01*
X0123800Y0141746D01*
X0122746Y0142800D01*
X0122425Y0142800D01*
X0122700Y0143463D01*
X0122700Y0144537D01*
X0122289Y0145529D01*
X0121800Y0146018D01*
X0121800Y0149254D01*
X0125746Y0153200D01*
X0131982Y0153200D01*
X0132471Y0152711D01*
X0133463Y0152300D01*
X0134537Y0152300D01*
X0135529Y0152711D01*
X0136289Y0153471D01*
X0136700Y0154463D01*
X0136700Y0155537D01*
X0136612Y0155750D01*
X0152480Y0155750D01*
X0152963Y0155550D01*
X0154037Y0155550D01*
X0155029Y0155961D01*
X0155789Y0156721D01*
X0156200Y0157713D01*
X0156200Y0158787D01*
X0155789Y0159779D01*
X0155029Y0160539D01*
X0154037Y0160950D01*
X0152963Y0160950D01*
X0152480Y0160750D01*
X0117155Y0160750D01*
X0117450Y0161463D01*
X0117450Y0162537D01*
X0117039Y0163529D01*
X0116279Y0164289D01*
X0115287Y0164700D01*
X0114213Y0164700D01*
X0113730Y0164500D01*
X0056753Y0164500D01*
X0055834Y0164119D01*
X0055131Y0163416D01*
X0052465Y0160750D01*
X0052465Y0161164D01*
X0051652Y0163126D01*
X0050150Y0164628D01*
X0048922Y0165137D01*
X0057572Y0173787D01*
X0057875Y0173661D01*
X0059999Y0173661D01*
X0061961Y0174474D01*
X0063463Y0175976D01*
X0064276Y0177938D01*
X0064276Y0180062D01*
X0063463Y0182024D01*
X0061961Y0183526D01*
X0059999Y0184339D01*
X0057875Y0184339D01*
X0055913Y0183526D01*
X0054411Y0182024D01*
X0053598Y0180062D01*
X0053598Y0177938D01*
X0053907Y0177193D01*
X0044964Y0168250D01*
X0040503Y0168250D01*
X0039584Y0167869D01*
X0029214Y0157500D01*
X0024105Y0157500D01*
X0022451Y0156815D01*
X0021185Y0155549D01*
X0020751Y0154500D01*
X0020000Y0154500D01*
X0020000Y0199000D01*
X0265000Y0199000D01*
X0265000Y0005000D01*
X0082000Y0005000D01*
X0126317Y0027137D02*
X0020000Y0027137D01*
X0064750Y0090750D02*
X0074750Y0100750D01*
X0071000Y0103250D02*
X0064750Y0097000D01*
X0067000Y0130000D02*
X0077000Y0130000D01*
X0078000Y0136000D02*
X0083000Y0141000D01*
X0122000Y0141000D01*
X0124000Y0139000D01*
X0124000Y0138800D01*
X0149200Y0113600D01*
X0150825Y0114520D02*
X0163934Y0114520D01*
X0163336Y0115119D02*
X0150290Y0115119D01*
X0149628Y0115717D02*
X0162737Y0115717D01*
X0162139Y0116316D02*
X0149030Y0116316D01*
X0148431Y0116914D02*
X0161540Y0116914D01*
X0160942Y0117513D02*
X0147833Y0117513D01*
X0147234Y0118111D02*
X0160343Y0118111D01*
X0159745Y0118710D02*
X0146636Y0118710D01*
X0146037Y0119308D02*
X0159146Y0119308D01*
X0158548Y0119907D02*
X0145439Y0119907D01*
X0144840Y0120505D02*
X0157949Y0120505D01*
X0157351Y0121104D02*
X0144242Y0121104D01*
X0143643Y0121702D02*
X0156752Y0121702D01*
X0157254Y0121200D02*
X0156200Y0122254D01*
X0156200Y0131100D01*
X0154578Y0132317D01*
X0154537Y0132300D01*
X0153463Y0132300D01*
X0152471Y0132711D01*
X0151711Y0133471D01*
X0151300Y0134463D01*
X0151300Y0135537D01*
X0151711Y0136529D01*
X0152471Y0137289D01*
X0153463Y0137700D01*
X0154537Y0137700D01*
X0155529Y0137289D01*
X0156289Y0136529D01*
X0156700Y0135537D01*
X0156700Y0135225D01*
X0158600Y0133800D01*
X0158746Y0133800D01*
X0159182Y0133363D01*
X0159676Y0132993D01*
X0159697Y0132849D01*
X0159800Y0132746D01*
X0159800Y0132128D01*
X0159887Y0131516D01*
X0159800Y0131400D01*
X0159800Y0129425D01*
X0160463Y0129700D01*
X0161537Y0129700D01*
X0162529Y0129289D01*
X0163018Y0128800D01*
X0212982Y0128800D01*
X0213709Y0128815D01*
X0213724Y0128800D01*
X0213746Y0128800D01*
X0214260Y0128286D01*
X0214971Y0129483D02*
X0162061Y0129483D01*
X0162934Y0128884D02*
X0215570Y0128884D01*
X0214373Y0130081D02*
X0159800Y0130081D01*
X0159800Y0129483D02*
X0159939Y0129483D01*
X0159800Y0130680D02*
X0170774Y0130680D01*
X0170176Y0131278D02*
X0159800Y0131278D01*
X0159836Y0131877D02*
X0169577Y0131877D01*
X0168979Y0132475D02*
X0159800Y0132475D01*
X0159568Y0133074D02*
X0168380Y0133074D01*
X0167782Y0133672D02*
X0158873Y0133672D01*
X0157972Y0134271D02*
X0167183Y0134271D01*
X0166585Y0134870D02*
X0157174Y0134870D01*
X0156700Y0135468D02*
X0165986Y0135468D01*
X0165388Y0136067D02*
X0156481Y0136067D01*
X0156153Y0136665D02*
X0164789Y0136665D01*
X0164191Y0137264D02*
X0155555Y0137264D01*
X0154000Y0135000D02*
X0158000Y0132000D01*
X0158000Y0123000D01*
X0174000Y0107000D01*
X0222000Y0107000D01*
X0243000Y0086000D01*
X0243000Y0083000D01*
X0245510Y0083996D02*
X0255197Y0083996D01*
X0255820Y0083398D02*
X0245700Y0083398D01*
X0245700Y0082799D02*
X0256444Y0082799D01*
X0257067Y0082201D02*
X0245591Y0082201D01*
X0245343Y0081602D02*
X0257690Y0081602D01*
X0254573Y0084595D02*
X0245224Y0084595D01*
X0244800Y0085193D02*
X0253950Y0085193D01*
X0253326Y0085792D02*
X0244800Y0085792D01*
X0244800Y0086390D02*
X0252703Y0086390D01*
X0252079Y0086989D02*
X0244557Y0086989D01*
X0243958Y0087587D02*
X0251456Y0087587D01*
X0250832Y0088186D02*
X0243360Y0088186D01*
X0242761Y0088784D02*
X0250209Y0088784D01*
X0249586Y0089383D02*
X0242163Y0089383D01*
X0241564Y0089981D02*
X0248962Y0089981D01*
X0248339Y0090580D02*
X0240966Y0090580D01*
X0240367Y0091178D02*
X0247715Y0091178D01*
X0247092Y0091777D02*
X0239769Y0091777D01*
X0239170Y0092375D02*
X0246468Y0092375D01*
X0245845Y0092974D02*
X0238572Y0092974D01*
X0237973Y0093572D02*
X0245221Y0093572D01*
X0234086Y0111528D02*
X0265000Y0111528D01*
X0265000Y0112126D02*
X0234944Y0112126D01*
X0235394Y0112725D02*
X0265000Y0112725D01*
X0265000Y0113323D02*
X0235642Y0113323D01*
X0235700Y0113922D02*
X0265000Y0113922D01*
X0265000Y0114520D02*
X0235700Y0114520D01*
X0235459Y0115119D02*
X0265000Y0115119D01*
X0265000Y0115717D02*
X0235101Y0115717D01*
X0234465Y0116316D02*
X0265000Y0116316D01*
X0265000Y0116914D02*
X0232631Y0116914D01*
X0232033Y0117513D02*
X0265000Y0117513D01*
X0265000Y0118111D02*
X0231434Y0118111D01*
X0230836Y0118710D02*
X0265000Y0118710D01*
X0265000Y0119308D02*
X0230237Y0119308D01*
X0229639Y0119907D02*
X0265000Y0119907D01*
X0265000Y0120505D02*
X0229040Y0120505D01*
X0228442Y0121104D02*
X0265000Y0121104D01*
X0265000Y0121702D02*
X0227843Y0121702D01*
X0227245Y0122301D02*
X0265000Y0122301D01*
X0265000Y0122899D02*
X0226646Y0122899D01*
X0226048Y0123498D02*
X0265000Y0123498D01*
X0265000Y0124096D02*
X0225449Y0124096D01*
X0224851Y0124695D02*
X0265000Y0124695D01*
X0265000Y0125293D02*
X0224252Y0125293D01*
X0223654Y0125892D02*
X0265000Y0125892D01*
X0265000Y0126490D02*
X0223055Y0126490D01*
X0222457Y0127089D02*
X0265000Y0127089D01*
X0265000Y0127687D02*
X0221858Y0127687D01*
X0221260Y0128286D02*
X0265000Y0128286D01*
X0265000Y0128884D02*
X0220661Y0128884D01*
X0220063Y0129483D02*
X0265000Y0129483D01*
X0265000Y0130081D02*
X0219464Y0130081D01*
X0218866Y0130680D02*
X0265000Y0130680D01*
X0265000Y0131278D02*
X0218267Y0131278D01*
X0217669Y0131877D02*
X0265000Y0131877D01*
X0265000Y0132475D02*
X0217070Y0132475D01*
X0216472Y0133074D02*
X0265000Y0133074D01*
X0265000Y0133672D02*
X0215873Y0133672D01*
X0215000Y0132000D02*
X0233000Y0114000D01*
X0222109Y0104345D02*
X0200469Y0104345D01*
X0200124Y0104944D02*
X0221510Y0104944D01*
X0212700Y0100754D02*
X0199030Y0100754D01*
X0196970Y0100754D02*
X0161064Y0100754D01*
X0161444Y0100156D02*
X0212700Y0100156D01*
X0212700Y0099557D02*
X0161692Y0099557D01*
X0161700Y0098959D02*
X0212700Y0098959D01*
X0212700Y0098360D02*
X0161657Y0098360D01*
X0161410Y0097762D02*
X0212700Y0097762D01*
X0196079Y0101353D02*
X0160375Y0101353D01*
X0159000Y0099000D02*
X0159000Y0089000D01*
X0161516Y0089981D02*
X0183473Y0089981D01*
X0182875Y0090580D02*
X0161239Y0090580D01*
X0160800Y0091178D02*
X0182276Y0091178D01*
X0181678Y0091777D02*
X0160800Y0091777D01*
X0160800Y0092375D02*
X0180281Y0092375D01*
X0179208Y0092974D02*
X0160800Y0092974D01*
X0160800Y0093572D02*
X0178669Y0093572D01*
X0178421Y0094171D02*
X0160800Y0094171D01*
X0160800Y0094769D02*
X0178300Y0094769D01*
X0178300Y0095368D02*
X0160800Y0095368D01*
X0160800Y0095966D02*
X0178478Y0095966D01*
X0178746Y0096565D02*
X0160800Y0096565D01*
X0160982Y0097163D02*
X0179345Y0097163D01*
X0184072Y0089383D02*
X0161700Y0089383D01*
X0161700Y0088784D02*
X0184670Y0088784D01*
X0185269Y0088186D02*
X0171633Y0088186D01*
X0172231Y0087587D02*
X0185867Y0087587D01*
X0186466Y0086989D02*
X0172513Y0086989D01*
X0172700Y0086390D02*
X0187064Y0086390D01*
X0187663Y0085792D02*
X0172700Y0085792D01*
X0172588Y0085193D02*
X0188261Y0085193D01*
X0188300Y0084595D02*
X0172340Y0084595D01*
X0171814Y0083996D02*
X0188493Y0083996D01*
X0188784Y0083398D02*
X0170773Y0083398D01*
X0169227Y0083398D02*
X0145344Y0083398D01*
X0145591Y0082799D02*
X0189383Y0082799D01*
X0185000Y0079000D02*
X0186000Y0078000D01*
X0186000Y0067000D01*
X0183475Y0066041D02*
X0145525Y0066041D01*
X0145700Y0066639D02*
X0183300Y0066639D01*
X0183300Y0067238D02*
X0145700Y0067238D01*
X0145576Y0067836D02*
X0183424Y0067836D01*
X0183672Y0068435D02*
X0145328Y0068435D01*
X0144800Y0069033D02*
X0184200Y0069033D01*
X0184200Y0069632D02*
X0144800Y0069632D01*
X0144800Y0070230D02*
X0184200Y0070230D01*
X0184200Y0070829D02*
X0179647Y0070829D01*
X0179529Y0070711D02*
X0180289Y0071471D01*
X0180700Y0072463D01*
X0180700Y0073537D01*
X0180289Y0074529D01*
X0179529Y0075289D01*
X0178537Y0075700D01*
X0177463Y0075700D01*
X0176471Y0075289D01*
X0175982Y0074800D01*
X0163591Y0074800D01*
X0163289Y0075529D01*
X0162529Y0076289D01*
X0161537Y0076700D01*
X0160463Y0076700D01*
X0159471Y0076289D01*
X0158711Y0075529D01*
X0158300Y0074537D01*
X0158300Y0073463D01*
X0158711Y0072471D01*
X0159471Y0071711D01*
X0160463Y0071300D01*
X0161154Y0071300D01*
X0161254Y0071200D01*
X0175982Y0071200D01*
X0176471Y0070711D01*
X0177463Y0070300D01*
X0178537Y0070300D01*
X0179529Y0070711D01*
X0180246Y0071427D02*
X0184200Y0071427D01*
X0184200Y0072026D02*
X0180519Y0072026D01*
X0180700Y0072624D02*
X0184200Y0072624D01*
X0184200Y0073223D02*
X0180700Y0073223D01*
X0180582Y0073821D02*
X0184200Y0073821D01*
X0184200Y0074420D02*
X0180334Y0074420D01*
X0179800Y0075018D02*
X0184200Y0075018D01*
X0184200Y0075617D02*
X0178738Y0075617D01*
X0177262Y0075617D02*
X0163201Y0075617D01*
X0163501Y0075018D02*
X0176200Y0075018D01*
X0178000Y0073000D02*
X0162000Y0073000D01*
X0161000Y0074000D01*
X0158499Y0075018D02*
X0144800Y0075018D01*
X0144800Y0074420D02*
X0158300Y0074420D01*
X0158300Y0073821D02*
X0144800Y0073821D01*
X0144800Y0073223D02*
X0158399Y0073223D01*
X0158647Y0072624D02*
X0144800Y0072624D01*
X0144800Y0072026D02*
X0159156Y0072026D01*
X0160156Y0071427D02*
X0144800Y0071427D01*
X0144800Y0070829D02*
X0176353Y0070829D01*
X0183739Y0065442D02*
X0145261Y0065442D01*
X0144662Y0064844D02*
X0184338Y0064844D01*
X0184200Y0076215D02*
X0162603Y0076215D01*
X0159397Y0076215D02*
X0144800Y0076215D01*
X0144800Y0075617D02*
X0158799Y0075617D01*
X0168186Y0083996D02*
X0144822Y0083996D01*
X0143000Y0082000D02*
X0143000Y0067000D01*
X0144800Y0076814D02*
X0183368Y0076814D01*
X0182769Y0077412D02*
X0144800Y0077412D01*
X0144800Y0078011D02*
X0182487Y0078011D01*
X0182300Y0078609D02*
X0144800Y0078609D01*
X0144800Y0079208D02*
X0182300Y0079208D01*
X0182412Y0079806D02*
X0144800Y0079806D01*
X0145223Y0080405D02*
X0182660Y0080405D01*
X0183185Y0081003D02*
X0145510Y0081003D01*
X0140000Y0086000D02*
X0170000Y0086000D01*
X0168367Y0088186D02*
X0161585Y0088186D01*
X0154000Y0100000D02*
X0146000Y0092000D01*
X0136000Y0093000D02*
X0136000Y0086000D01*
X0140632Y0076814D02*
X0141200Y0076814D01*
X0161000Y0107000D02*
X0169000Y0107000D01*
X0166982Y0108800D02*
X0163018Y0108800D01*
X0162529Y0109289D01*
X0161537Y0109700D01*
X0160463Y0109700D01*
X0159471Y0109289D01*
X0158711Y0108529D01*
X0158587Y0108231D01*
X0158529Y0108289D01*
X0157537Y0108700D01*
X0156463Y0108700D01*
X0155471Y0108289D01*
X0154982Y0107800D01*
X0153018Y0107800D01*
X0152877Y0107941D01*
X0152901Y0108535D02*
X0156065Y0108535D01*
X0157935Y0108535D02*
X0158717Y0108535D01*
X0159315Y0109134D02*
X0152924Y0109134D01*
X0152948Y0109732D02*
X0168722Y0109732D01*
X0168754Y0109700D02*
X0168463Y0109700D01*
X0167471Y0109289D01*
X0166982Y0108800D01*
X0167315Y0109134D02*
X0162685Y0109134D01*
X0165730Y0112725D02*
X0152205Y0112725D01*
X0151727Y0113323D02*
X0165131Y0113323D01*
X0164533Y0113922D02*
X0151248Y0113922D01*
X0152703Y0112126D02*
X0166328Y0112126D01*
X0166927Y0111528D02*
X0153059Y0111528D01*
X0152995Y0110929D02*
X0167525Y0110929D01*
X0168124Y0110331D02*
X0152971Y0110331D01*
X0157254Y0121200D02*
X0157254Y0121200D01*
X0168754Y0109700D01*
X0156200Y0122301D02*
X0143045Y0122301D01*
X0142446Y0122899D02*
X0156200Y0122899D01*
X0156200Y0123498D02*
X0141848Y0123498D01*
X0141249Y0124096D02*
X0156200Y0124096D01*
X0156200Y0124695D02*
X0140651Y0124695D01*
X0140052Y0125293D02*
X0156200Y0125293D01*
X0156200Y0125892D02*
X0139454Y0125892D01*
X0138855Y0126490D02*
X0156200Y0126490D01*
X0156200Y0127089D02*
X0138257Y0127089D01*
X0137658Y0127687D02*
X0156200Y0127687D01*
X0156200Y0128286D02*
X0137060Y0128286D01*
X0136461Y0128884D02*
X0156200Y0128884D01*
X0156200Y0129483D02*
X0135863Y0129483D01*
X0135264Y0130081D02*
X0156200Y0130081D01*
X0156200Y0130680D02*
X0134666Y0130680D01*
X0134067Y0131278D02*
X0155962Y0131278D01*
X0155164Y0131877D02*
X0133469Y0131877D01*
X0132870Y0132475D02*
X0153039Y0132475D01*
X0152108Y0133074D02*
X0132272Y0133074D01*
X0131673Y0133672D02*
X0151627Y0133672D01*
X0151379Y0134271D02*
X0131075Y0134271D01*
X0130476Y0134870D02*
X0151300Y0134870D01*
X0151300Y0135468D02*
X0129878Y0135468D01*
X0129279Y0136067D02*
X0151519Y0136067D01*
X0151847Y0136665D02*
X0128681Y0136665D01*
X0128082Y0137264D02*
X0152445Y0137264D01*
X0158130Y0142052D02*
X0123494Y0142052D01*
X0122895Y0142650D02*
X0157637Y0142650D01*
X0157389Y0143249D02*
X0122611Y0143249D01*
X0122700Y0143847D02*
X0157300Y0143847D01*
X0157300Y0144446D02*
X0122700Y0144446D01*
X0122490Y0145044D02*
X0157510Y0145044D01*
X0157824Y0145643D02*
X0122176Y0145643D01*
X0121800Y0146241D02*
X0158423Y0146241D01*
X0160000Y0144000D02*
X0172000Y0132000D01*
X0215000Y0132000D01*
X0172275Y0134271D02*
X0265000Y0134271D01*
X0265000Y0134870D02*
X0171676Y0134870D01*
X0171078Y0135468D02*
X0265000Y0135468D01*
X0265000Y0136067D02*
X0170479Y0136067D01*
X0169881Y0136665D02*
X0265000Y0136665D01*
X0265000Y0137264D02*
X0169282Y0137264D01*
X0168684Y0137862D02*
X0265000Y0137862D01*
X0265000Y0138461D02*
X0168085Y0138461D01*
X0167486Y0139059D02*
X0265000Y0139059D01*
X0265000Y0139658D02*
X0166888Y0139658D01*
X0166289Y0140256D02*
X0265000Y0140256D01*
X0265000Y0140855D02*
X0165691Y0140855D01*
X0165092Y0141453D02*
X0265000Y0141453D01*
X0265000Y0142052D02*
X0164494Y0142052D01*
X0163895Y0142650D02*
X0265000Y0142650D01*
X0265000Y0143249D02*
X0163297Y0143249D01*
X0162700Y0143847D02*
X0265000Y0143847D01*
X0265000Y0144446D02*
X0162700Y0144446D01*
X0162490Y0145044D02*
X0265000Y0145044D01*
X0265000Y0145643D02*
X0162176Y0145643D01*
X0161577Y0146241D02*
X0265000Y0146241D01*
X0265000Y0146840D02*
X0121800Y0146840D01*
X0121800Y0147438D02*
X0265000Y0147438D01*
X0265000Y0148037D02*
X0121800Y0148037D01*
X0121800Y0148635D02*
X0265000Y0148635D01*
X0265000Y0149234D02*
X0121800Y0149234D01*
X0122378Y0149832D02*
X0265000Y0149832D01*
X0265000Y0150431D02*
X0122976Y0150431D01*
X0123575Y0151029D02*
X0265000Y0151029D01*
X0265000Y0151628D02*
X0124173Y0151628D01*
X0124772Y0152226D02*
X0265000Y0152226D01*
X0265000Y0152825D02*
X0135643Y0152825D01*
X0136242Y0153423D02*
X0265000Y0153423D01*
X0265000Y0154022D02*
X0136517Y0154022D01*
X0136700Y0154620D02*
X0265000Y0154620D01*
X0265000Y0155219D02*
X0136700Y0155219D01*
X0134000Y0155000D02*
X0125000Y0155000D01*
X0120000Y0150000D01*
X0120000Y0144000D01*
X0125133Y0141453D02*
X0159093Y0141453D01*
X0160600Y0140855D02*
X0125964Y0140855D01*
X0126402Y0140256D02*
X0161198Y0140256D01*
X0161797Y0139658D02*
X0126650Y0139658D01*
X0126700Y0139059D02*
X0162395Y0139059D01*
X0162994Y0138461D02*
X0126885Y0138461D01*
X0127484Y0137862D02*
X0163592Y0137862D01*
X0154683Y0155817D02*
X0265000Y0155817D01*
X0265000Y0156416D02*
X0155484Y0156416D01*
X0155911Y0157014D02*
X0265000Y0157014D01*
X0265000Y0157613D02*
X0156159Y0157613D01*
X0156200Y0158211D02*
X0265000Y0158211D01*
X0265000Y0158810D02*
X0156191Y0158810D01*
X0155943Y0159408D02*
X0265000Y0159408D01*
X0265000Y0160007D02*
X0155561Y0160007D01*
X0154869Y0160605D02*
X0265000Y0160605D01*
X0265000Y0161204D02*
X0117343Y0161204D01*
X0117450Y0161803D02*
X0265000Y0161803D01*
X0265000Y0162401D02*
X0117450Y0162401D01*
X0117258Y0163000D02*
X0265000Y0163000D01*
X0265000Y0163598D02*
X0116970Y0163598D01*
X0116372Y0164197D02*
X0265000Y0164197D01*
X0265000Y0164795D02*
X0049747Y0164795D01*
X0049179Y0165394D02*
X0265000Y0165394D01*
X0265000Y0165992D02*
X0049778Y0165992D01*
X0050376Y0166591D02*
X0265000Y0166591D01*
X0265000Y0167189D02*
X0050975Y0167189D01*
X0051573Y0167788D02*
X0265000Y0167788D01*
X0265000Y0168386D02*
X0052172Y0168386D01*
X0052770Y0168985D02*
X0265000Y0168985D01*
X0265000Y0169583D02*
X0053369Y0169583D01*
X0053967Y0170182D02*
X0265000Y0170182D01*
X0265000Y0170780D02*
X0054566Y0170780D01*
X0055164Y0171379D02*
X0265000Y0171379D01*
X0265000Y0171977D02*
X0220568Y0171977D01*
X0220112Y0171522D02*
X0223100Y0174510D01*
X0223100Y0176322D01*
X0218300Y0176322D01*
X0218300Y0171522D01*
X0220112Y0171522D01*
X0221166Y0172576D02*
X0265000Y0172576D01*
X0265000Y0173174D02*
X0221765Y0173174D01*
X0222363Y0173773D02*
X0265000Y0173773D01*
X0265000Y0174371D02*
X0222962Y0174371D01*
X0223100Y0174970D02*
X0265000Y0174970D01*
X0265000Y0175568D02*
X0223100Y0175568D01*
X0223100Y0176167D02*
X0265000Y0176167D01*
X0265000Y0176765D02*
X0218300Y0176765D01*
X0218300Y0176922D02*
X0223100Y0176922D01*
X0223100Y0178735D01*
X0220112Y0181722D01*
X0218300Y0181722D01*
X0218300Y0176922D01*
X0218300Y0176322D01*
X0217700Y0176322D01*
X0217700Y0171522D01*
X0215888Y0171522D01*
X0212900Y0174510D01*
X0212900Y0176322D01*
X0217700Y0176322D01*
X0217700Y0176922D01*
X0212900Y0176922D01*
X0212900Y0178735D01*
X0215888Y0181722D01*
X0217700Y0181722D01*
X0217700Y0176922D01*
X0218300Y0176922D01*
X0218300Y0177364D02*
X0217700Y0177364D01*
X0217700Y0177962D02*
X0218300Y0177962D01*
X0218300Y0178561D02*
X0217700Y0178561D01*
X0217700Y0179159D02*
X0218300Y0179159D01*
X0218300Y0179758D02*
X0217700Y0179758D01*
X0217700Y0180356D02*
X0218300Y0180356D01*
X0218300Y0180955D02*
X0217700Y0180955D01*
X0217700Y0181553D02*
X0218300Y0181553D01*
X0220281Y0181553D02*
X0265000Y0181553D01*
X0265000Y0180955D02*
X0220880Y0180955D01*
X0221478Y0180356D02*
X0265000Y0180356D01*
X0265000Y0179758D02*
X0222077Y0179758D01*
X0222675Y0179159D02*
X0265000Y0179159D01*
X0265000Y0178561D02*
X0223100Y0178561D01*
X0223100Y0177962D02*
X0265000Y0177962D01*
X0265000Y0177364D02*
X0223100Y0177364D01*
X0218300Y0176167D02*
X0217700Y0176167D01*
X0217700Y0176765D02*
X0063790Y0176765D01*
X0063542Y0176167D02*
X0212900Y0176167D01*
X0212900Y0175568D02*
X0063055Y0175568D01*
X0062457Y0174970D02*
X0212900Y0174970D01*
X0213038Y0174371D02*
X0061713Y0174371D01*
X0060268Y0173773D02*
X0213637Y0173773D01*
X0214235Y0173174D02*
X0056960Y0173174D01*
X0057558Y0173773D02*
X0057606Y0173773D01*
X0056361Y0172576D02*
X0214834Y0172576D01*
X0215432Y0171977D02*
X0055763Y0171977D01*
X0052283Y0175568D02*
X0039938Y0175568D01*
X0040022Y0175652D02*
X0040497Y0176307D01*
X0040864Y0177027D01*
X0041114Y0177797D01*
X0041241Y0178596D01*
X0041241Y0178700D01*
X0036402Y0178700D01*
X0036402Y0173861D01*
X0036507Y0173861D01*
X0037306Y0173988D01*
X0038075Y0174238D01*
X0038796Y0174605D01*
X0039450Y0175081D01*
X0040022Y0175652D01*
X0040396Y0176167D02*
X0052881Y0176167D01*
X0053480Y0176765D02*
X0040731Y0176765D01*
X0040974Y0177364D02*
X0053836Y0177364D01*
X0053598Y0177962D02*
X0041141Y0177962D01*
X0041235Y0178561D02*
X0053598Y0178561D01*
X0053598Y0179159D02*
X0036402Y0179159D01*
X0036402Y0179300D02*
X0041241Y0179300D01*
X0041241Y0179404D01*
X0041114Y0180203D01*
X0040864Y0180973D01*
X0040497Y0181693D01*
X0040022Y0182348D01*
X0039450Y0182919D01*
X0038796Y0183395D01*
X0038075Y0183762D01*
X0037306Y0184012D01*
X0036507Y0184139D01*
X0036402Y0184139D01*
X0036402Y0179300D01*
X0035802Y0179300D01*
X0035802Y0178700D01*
X0030964Y0178700D01*
X0030964Y0178596D01*
X0031090Y0177797D01*
X0031340Y0177027D01*
X0031707Y0176307D01*
X0032183Y0175652D01*
X0032755Y0175081D01*
X0033409Y0174605D01*
X0034130Y0174238D01*
X0034899Y0173988D01*
X0035698Y0173861D01*
X0035802Y0173861D01*
X0035802Y0178700D01*
X0036402Y0178700D01*
X0036402Y0179300D01*
X0036402Y0179758D02*
X0035802Y0179758D01*
X0035802Y0179300D02*
X0035802Y0184139D01*
X0035698Y0184139D01*
X0034899Y0184012D01*
X0034130Y0183762D01*
X0033409Y0183395D01*
X0032755Y0182919D01*
X0032183Y0182348D01*
X0031707Y0181693D01*
X0031340Y0180973D01*
X0031090Y0180203D01*
X0030964Y0179404D01*
X0030964Y0179300D01*
X0035802Y0179300D01*
X0035802Y0179159D02*
X0020000Y0179159D01*
X0020000Y0178561D02*
X0030969Y0178561D01*
X0031064Y0177962D02*
X0020000Y0177962D01*
X0020000Y0177364D02*
X0031231Y0177364D01*
X0031474Y0176765D02*
X0020000Y0176765D01*
X0020000Y0176167D02*
X0031809Y0176167D01*
X0032267Y0175568D02*
X0020000Y0175568D01*
X0020000Y0174970D02*
X0032907Y0174970D01*
X0033868Y0174371D02*
X0020000Y0174371D01*
X0020000Y0173773D02*
X0050487Y0173773D01*
X0051086Y0174371D02*
X0038337Y0174371D01*
X0039297Y0174970D02*
X0051684Y0174970D01*
X0049889Y0173174D02*
X0020000Y0173174D01*
X0020000Y0172576D02*
X0049290Y0172576D01*
X0048692Y0171977D02*
X0020000Y0171977D01*
X0020000Y0171379D02*
X0048093Y0171379D01*
X0047495Y0170780D02*
X0020000Y0170780D01*
X0020000Y0170182D02*
X0046896Y0170182D01*
X0046298Y0169583D02*
X0020000Y0169583D01*
X0020000Y0168985D02*
X0045699Y0168985D01*
X0045101Y0168386D02*
X0020000Y0168386D01*
X0020000Y0167788D02*
X0039502Y0167788D01*
X0038904Y0167189D02*
X0020000Y0167189D01*
X0020000Y0166591D02*
X0038305Y0166591D01*
X0037707Y0165992D02*
X0020000Y0165992D01*
X0020000Y0165394D02*
X0037108Y0165394D01*
X0036510Y0164795D02*
X0020000Y0164795D01*
X0020000Y0164197D02*
X0035911Y0164197D01*
X0035313Y0163598D02*
X0020000Y0163598D01*
X0020000Y0163000D02*
X0034714Y0163000D01*
X0034116Y0162401D02*
X0020000Y0162401D01*
X0020000Y0161803D02*
X0033517Y0161803D01*
X0032918Y0161204D02*
X0020000Y0161204D01*
X0020000Y0160605D02*
X0032320Y0160605D01*
X0031721Y0160007D02*
X0020000Y0160007D01*
X0020000Y0159408D02*
X0031123Y0159408D01*
X0030524Y0158810D02*
X0020000Y0158810D01*
X0020000Y0158211D02*
X0029926Y0158211D01*
X0029327Y0157613D02*
X0020000Y0157613D01*
X0020000Y0157014D02*
X0022933Y0157014D01*
X0022052Y0156416D02*
X0020000Y0156416D01*
X0020000Y0155817D02*
X0021453Y0155817D01*
X0021048Y0155219D02*
X0020000Y0155219D01*
X0020000Y0154620D02*
X0020800Y0154620D01*
X0035802Y0174371D02*
X0036402Y0174371D01*
X0036402Y0174970D02*
X0035802Y0174970D01*
X0035802Y0175568D02*
X0036402Y0175568D01*
X0036402Y0176167D02*
X0035802Y0176167D01*
X0035802Y0176765D02*
X0036402Y0176765D01*
X0036402Y0177364D02*
X0035802Y0177364D01*
X0035802Y0177962D02*
X0036402Y0177962D01*
X0036402Y0178561D02*
X0035802Y0178561D01*
X0035802Y0180356D02*
X0036402Y0180356D01*
X0036402Y0180955D02*
X0035802Y0180955D01*
X0035802Y0181553D02*
X0036402Y0181553D01*
X0036402Y0182152D02*
X0035802Y0182152D01*
X0035802Y0182750D02*
X0036402Y0182750D01*
X0036402Y0183349D02*
X0035802Y0183349D01*
X0035802Y0183947D02*
X0036402Y0183947D01*
X0037504Y0183947D02*
X0056931Y0183947D01*
X0055736Y0183349D02*
X0038859Y0183349D01*
X0039619Y0182750D02*
X0055138Y0182750D01*
X0054539Y0182152D02*
X0040164Y0182152D01*
X0040568Y0181553D02*
X0054216Y0181553D01*
X0053968Y0180955D02*
X0040870Y0180955D01*
X0041065Y0180356D02*
X0053720Y0180356D01*
X0053598Y0179758D02*
X0041185Y0179758D01*
X0034700Y0183947D02*
X0020000Y0183947D01*
X0020000Y0183349D02*
X0033346Y0183349D01*
X0032586Y0182750D02*
X0020000Y0182750D01*
X0020000Y0182152D02*
X0032041Y0182152D01*
X0031636Y0181553D02*
X0020000Y0181553D01*
X0020000Y0180955D02*
X0031335Y0180955D01*
X0031140Y0180356D02*
X0020000Y0180356D01*
X0020000Y0179758D02*
X0031020Y0179758D01*
X0020000Y0184546D02*
X0265000Y0184546D01*
X0265000Y0185144D02*
X0020000Y0185144D01*
X0020000Y0185743D02*
X0265000Y0185743D01*
X0265000Y0186341D02*
X0020000Y0186341D01*
X0020000Y0186940D02*
X0265000Y0186940D01*
X0265000Y0187539D02*
X0020000Y0187539D01*
X0020000Y0188137D02*
X0265000Y0188137D01*
X0265000Y0188736D02*
X0020000Y0188736D01*
X0020000Y0189334D02*
X0265000Y0189334D01*
X0265000Y0189933D02*
X0020000Y0189933D01*
X0020000Y0190531D02*
X0265000Y0190531D01*
X0265000Y0191130D02*
X0020000Y0191130D01*
X0020000Y0191728D02*
X0265000Y0191728D01*
X0265000Y0192327D02*
X0020000Y0192327D01*
X0020000Y0192925D02*
X0265000Y0192925D01*
X0265000Y0193524D02*
X0020000Y0193524D01*
X0020000Y0194122D02*
X0265000Y0194122D01*
X0265000Y0194721D02*
X0020000Y0194721D01*
X0020000Y0195319D02*
X0265000Y0195319D01*
X0265000Y0195918D02*
X0020000Y0195918D01*
X0020000Y0196516D02*
X0265000Y0196516D01*
X0265000Y0197115D02*
X0020000Y0197115D01*
X0020000Y0197713D02*
X0265000Y0197713D01*
X0265000Y0198312D02*
X0020000Y0198312D01*
X0020000Y0198910D02*
X0265000Y0198910D01*
X0265000Y0183947D02*
X0060943Y0183947D01*
X0062138Y0183349D02*
X0265000Y0183349D01*
X0265000Y0182750D02*
X0062736Y0182750D01*
X0063335Y0182152D02*
X0265000Y0182152D01*
X0218300Y0175568D02*
X0217700Y0175568D01*
X0217700Y0174970D02*
X0218300Y0174970D01*
X0218300Y0174371D02*
X0217700Y0174371D01*
X0217700Y0173773D02*
X0218300Y0173773D01*
X0218300Y0173174D02*
X0217700Y0173174D01*
X0217700Y0172576D02*
X0218300Y0172576D01*
X0218300Y0171977D02*
X0217700Y0171977D01*
X0212900Y0177364D02*
X0064038Y0177364D01*
X0064276Y0177962D02*
X0212900Y0177962D01*
X0212900Y0178561D02*
X0064276Y0178561D01*
X0064276Y0179159D02*
X0213325Y0179159D01*
X0213923Y0179758D02*
X0064276Y0179758D01*
X0064154Y0180356D02*
X0214522Y0180356D01*
X0215120Y0180955D02*
X0063906Y0180955D01*
X0063658Y0181553D02*
X0215719Y0181553D01*
X0132357Y0152825D02*
X0125370Y0152825D01*
X0117000Y0151000D02*
X0115000Y0151000D01*
X0113000Y0149000D01*
X0113000Y0144000D01*
X0106000Y0144000D02*
X0105000Y0145000D01*
X0079000Y0145000D01*
X0055313Y0163598D02*
X0051180Y0163598D01*
X0051704Y0163000D02*
X0054714Y0163000D01*
X0054116Y0162401D02*
X0051952Y0162401D01*
X0052200Y0161803D02*
X0053517Y0161803D01*
X0052918Y0161204D02*
X0052448Y0161204D01*
X0050582Y0164197D02*
X0056020Y0164197D01*
X0129014Y0029532D02*
X0200713Y0029532D01*
M02*
