G75*
%MOIN*%
%OFA0B0*%
%FSLAX25Y25*%
%IPPOS*%
%LPD*%
%AMOC8*
5,1,8,0,0,1.08239X$1,22.5*
%
%ADD10C,0.00000*%
%ADD11C,0.00400*%
%ADD12C,0.00800*%
D10*
X0018000Y0004000D02*
X0018000Y0207961D01*
X0227701Y0207961D01*
X0227701Y0004000D01*
X0018000Y0004000D01*
X0081063Y0011000D02*
X0081065Y0011125D01*
X0081071Y0011250D01*
X0081081Y0011374D01*
X0081095Y0011498D01*
X0081112Y0011622D01*
X0081134Y0011745D01*
X0081160Y0011867D01*
X0081189Y0011989D01*
X0081222Y0012109D01*
X0081260Y0012228D01*
X0081300Y0012347D01*
X0081345Y0012463D01*
X0081393Y0012578D01*
X0081445Y0012692D01*
X0081501Y0012804D01*
X0081560Y0012914D01*
X0081622Y0013022D01*
X0081688Y0013129D01*
X0081757Y0013233D01*
X0081830Y0013334D01*
X0081905Y0013434D01*
X0081984Y0013531D01*
X0082066Y0013625D01*
X0082151Y0013717D01*
X0082238Y0013806D01*
X0082329Y0013892D01*
X0082422Y0013975D01*
X0082518Y0014056D01*
X0082616Y0014133D01*
X0082716Y0014207D01*
X0082819Y0014278D01*
X0082924Y0014345D01*
X0083032Y0014410D01*
X0083141Y0014470D01*
X0083252Y0014528D01*
X0083365Y0014581D01*
X0083479Y0014631D01*
X0083595Y0014678D01*
X0083712Y0014720D01*
X0083831Y0014759D01*
X0083951Y0014795D01*
X0084072Y0014826D01*
X0084194Y0014854D01*
X0084316Y0014877D01*
X0084440Y0014897D01*
X0084564Y0014913D01*
X0084688Y0014925D01*
X0084813Y0014933D01*
X0084938Y0014937D01*
X0085062Y0014937D01*
X0085187Y0014933D01*
X0085312Y0014925D01*
X0085436Y0014913D01*
X0085560Y0014897D01*
X0085684Y0014877D01*
X0085806Y0014854D01*
X0085928Y0014826D01*
X0086049Y0014795D01*
X0086169Y0014759D01*
X0086288Y0014720D01*
X0086405Y0014678D01*
X0086521Y0014631D01*
X0086635Y0014581D01*
X0086748Y0014528D01*
X0086859Y0014470D01*
X0086969Y0014410D01*
X0087076Y0014345D01*
X0087181Y0014278D01*
X0087284Y0014207D01*
X0087384Y0014133D01*
X0087482Y0014056D01*
X0087578Y0013975D01*
X0087671Y0013892D01*
X0087762Y0013806D01*
X0087849Y0013717D01*
X0087934Y0013625D01*
X0088016Y0013531D01*
X0088095Y0013434D01*
X0088170Y0013334D01*
X0088243Y0013233D01*
X0088312Y0013129D01*
X0088378Y0013022D01*
X0088440Y0012914D01*
X0088499Y0012804D01*
X0088555Y0012692D01*
X0088607Y0012578D01*
X0088655Y0012463D01*
X0088700Y0012347D01*
X0088740Y0012228D01*
X0088778Y0012109D01*
X0088811Y0011989D01*
X0088840Y0011867D01*
X0088866Y0011745D01*
X0088888Y0011622D01*
X0088905Y0011498D01*
X0088919Y0011374D01*
X0088929Y0011250D01*
X0088935Y0011125D01*
X0088937Y0011000D01*
X0088935Y0010875D01*
X0088929Y0010750D01*
X0088919Y0010626D01*
X0088905Y0010502D01*
X0088888Y0010378D01*
X0088866Y0010255D01*
X0088840Y0010133D01*
X0088811Y0010011D01*
X0088778Y0009891D01*
X0088740Y0009772D01*
X0088700Y0009653D01*
X0088655Y0009537D01*
X0088607Y0009422D01*
X0088555Y0009308D01*
X0088499Y0009196D01*
X0088440Y0009086D01*
X0088378Y0008978D01*
X0088312Y0008871D01*
X0088243Y0008767D01*
X0088170Y0008666D01*
X0088095Y0008566D01*
X0088016Y0008469D01*
X0087934Y0008375D01*
X0087849Y0008283D01*
X0087762Y0008194D01*
X0087671Y0008108D01*
X0087578Y0008025D01*
X0087482Y0007944D01*
X0087384Y0007867D01*
X0087284Y0007793D01*
X0087181Y0007722D01*
X0087076Y0007655D01*
X0086968Y0007590D01*
X0086859Y0007530D01*
X0086748Y0007472D01*
X0086635Y0007419D01*
X0086521Y0007369D01*
X0086405Y0007322D01*
X0086288Y0007280D01*
X0086169Y0007241D01*
X0086049Y0007205D01*
X0085928Y0007174D01*
X0085806Y0007146D01*
X0085684Y0007123D01*
X0085560Y0007103D01*
X0085436Y0007087D01*
X0085312Y0007075D01*
X0085187Y0007067D01*
X0085062Y0007063D01*
X0084938Y0007063D01*
X0084813Y0007067D01*
X0084688Y0007075D01*
X0084564Y0007087D01*
X0084440Y0007103D01*
X0084316Y0007123D01*
X0084194Y0007146D01*
X0084072Y0007174D01*
X0083951Y0007205D01*
X0083831Y0007241D01*
X0083712Y0007280D01*
X0083595Y0007322D01*
X0083479Y0007369D01*
X0083365Y0007419D01*
X0083252Y0007472D01*
X0083141Y0007530D01*
X0083031Y0007590D01*
X0082924Y0007655D01*
X0082819Y0007722D01*
X0082716Y0007793D01*
X0082616Y0007867D01*
X0082518Y0007944D01*
X0082422Y0008025D01*
X0082329Y0008108D01*
X0082238Y0008194D01*
X0082151Y0008283D01*
X0082066Y0008375D01*
X0081984Y0008469D01*
X0081905Y0008566D01*
X0081830Y0008666D01*
X0081757Y0008767D01*
X0081688Y0008871D01*
X0081622Y0008978D01*
X0081560Y0009086D01*
X0081501Y0009196D01*
X0081445Y0009308D01*
X0081393Y0009422D01*
X0081345Y0009537D01*
X0081300Y0009653D01*
X0081260Y0009772D01*
X0081222Y0009891D01*
X0081189Y0010011D01*
X0081160Y0010133D01*
X0081134Y0010255D01*
X0081112Y0010378D01*
X0081095Y0010502D01*
X0081081Y0010626D01*
X0081071Y0010750D01*
X0081065Y0010875D01*
X0081063Y0011000D01*
X0212063Y0011000D02*
X0212065Y0011125D01*
X0212071Y0011250D01*
X0212081Y0011374D01*
X0212095Y0011498D01*
X0212112Y0011622D01*
X0212134Y0011745D01*
X0212160Y0011867D01*
X0212189Y0011989D01*
X0212222Y0012109D01*
X0212260Y0012228D01*
X0212300Y0012347D01*
X0212345Y0012463D01*
X0212393Y0012578D01*
X0212445Y0012692D01*
X0212501Y0012804D01*
X0212560Y0012914D01*
X0212622Y0013022D01*
X0212688Y0013129D01*
X0212757Y0013233D01*
X0212830Y0013334D01*
X0212905Y0013434D01*
X0212984Y0013531D01*
X0213066Y0013625D01*
X0213151Y0013717D01*
X0213238Y0013806D01*
X0213329Y0013892D01*
X0213422Y0013975D01*
X0213518Y0014056D01*
X0213616Y0014133D01*
X0213716Y0014207D01*
X0213819Y0014278D01*
X0213924Y0014345D01*
X0214032Y0014410D01*
X0214141Y0014470D01*
X0214252Y0014528D01*
X0214365Y0014581D01*
X0214479Y0014631D01*
X0214595Y0014678D01*
X0214712Y0014720D01*
X0214831Y0014759D01*
X0214951Y0014795D01*
X0215072Y0014826D01*
X0215194Y0014854D01*
X0215316Y0014877D01*
X0215440Y0014897D01*
X0215564Y0014913D01*
X0215688Y0014925D01*
X0215813Y0014933D01*
X0215938Y0014937D01*
X0216062Y0014937D01*
X0216187Y0014933D01*
X0216312Y0014925D01*
X0216436Y0014913D01*
X0216560Y0014897D01*
X0216684Y0014877D01*
X0216806Y0014854D01*
X0216928Y0014826D01*
X0217049Y0014795D01*
X0217169Y0014759D01*
X0217288Y0014720D01*
X0217405Y0014678D01*
X0217521Y0014631D01*
X0217635Y0014581D01*
X0217748Y0014528D01*
X0217859Y0014470D01*
X0217969Y0014410D01*
X0218076Y0014345D01*
X0218181Y0014278D01*
X0218284Y0014207D01*
X0218384Y0014133D01*
X0218482Y0014056D01*
X0218578Y0013975D01*
X0218671Y0013892D01*
X0218762Y0013806D01*
X0218849Y0013717D01*
X0218934Y0013625D01*
X0219016Y0013531D01*
X0219095Y0013434D01*
X0219170Y0013334D01*
X0219243Y0013233D01*
X0219312Y0013129D01*
X0219378Y0013022D01*
X0219440Y0012914D01*
X0219499Y0012804D01*
X0219555Y0012692D01*
X0219607Y0012578D01*
X0219655Y0012463D01*
X0219700Y0012347D01*
X0219740Y0012228D01*
X0219778Y0012109D01*
X0219811Y0011989D01*
X0219840Y0011867D01*
X0219866Y0011745D01*
X0219888Y0011622D01*
X0219905Y0011498D01*
X0219919Y0011374D01*
X0219929Y0011250D01*
X0219935Y0011125D01*
X0219937Y0011000D01*
X0219935Y0010875D01*
X0219929Y0010750D01*
X0219919Y0010626D01*
X0219905Y0010502D01*
X0219888Y0010378D01*
X0219866Y0010255D01*
X0219840Y0010133D01*
X0219811Y0010011D01*
X0219778Y0009891D01*
X0219740Y0009772D01*
X0219700Y0009653D01*
X0219655Y0009537D01*
X0219607Y0009422D01*
X0219555Y0009308D01*
X0219499Y0009196D01*
X0219440Y0009086D01*
X0219378Y0008978D01*
X0219312Y0008871D01*
X0219243Y0008767D01*
X0219170Y0008666D01*
X0219095Y0008566D01*
X0219016Y0008469D01*
X0218934Y0008375D01*
X0218849Y0008283D01*
X0218762Y0008194D01*
X0218671Y0008108D01*
X0218578Y0008025D01*
X0218482Y0007944D01*
X0218384Y0007867D01*
X0218284Y0007793D01*
X0218181Y0007722D01*
X0218076Y0007655D01*
X0217968Y0007590D01*
X0217859Y0007530D01*
X0217748Y0007472D01*
X0217635Y0007419D01*
X0217521Y0007369D01*
X0217405Y0007322D01*
X0217288Y0007280D01*
X0217169Y0007241D01*
X0217049Y0007205D01*
X0216928Y0007174D01*
X0216806Y0007146D01*
X0216684Y0007123D01*
X0216560Y0007103D01*
X0216436Y0007087D01*
X0216312Y0007075D01*
X0216187Y0007067D01*
X0216062Y0007063D01*
X0215938Y0007063D01*
X0215813Y0007067D01*
X0215688Y0007075D01*
X0215564Y0007087D01*
X0215440Y0007103D01*
X0215316Y0007123D01*
X0215194Y0007146D01*
X0215072Y0007174D01*
X0214951Y0007205D01*
X0214831Y0007241D01*
X0214712Y0007280D01*
X0214595Y0007322D01*
X0214479Y0007369D01*
X0214365Y0007419D01*
X0214252Y0007472D01*
X0214141Y0007530D01*
X0214031Y0007590D01*
X0213924Y0007655D01*
X0213819Y0007722D01*
X0213716Y0007793D01*
X0213616Y0007867D01*
X0213518Y0007944D01*
X0213422Y0008025D01*
X0213329Y0008108D01*
X0213238Y0008194D01*
X0213151Y0008283D01*
X0213066Y0008375D01*
X0212984Y0008469D01*
X0212905Y0008566D01*
X0212830Y0008666D01*
X0212757Y0008767D01*
X0212688Y0008871D01*
X0212622Y0008978D01*
X0212560Y0009086D01*
X0212501Y0009196D01*
X0212445Y0009308D01*
X0212393Y0009422D01*
X0212345Y0009537D01*
X0212300Y0009653D01*
X0212260Y0009772D01*
X0212222Y0009891D01*
X0212189Y0010011D01*
X0212160Y0010133D01*
X0212134Y0010255D01*
X0212112Y0010378D01*
X0212095Y0010502D01*
X0212081Y0010626D01*
X0212071Y0010750D01*
X0212065Y0010875D01*
X0212063Y0011000D01*
X0212063Y0199000D02*
X0212065Y0199125D01*
X0212071Y0199250D01*
X0212081Y0199374D01*
X0212095Y0199498D01*
X0212112Y0199622D01*
X0212134Y0199745D01*
X0212160Y0199867D01*
X0212189Y0199989D01*
X0212222Y0200109D01*
X0212260Y0200228D01*
X0212300Y0200347D01*
X0212345Y0200463D01*
X0212393Y0200578D01*
X0212445Y0200692D01*
X0212501Y0200804D01*
X0212560Y0200914D01*
X0212622Y0201022D01*
X0212688Y0201129D01*
X0212757Y0201233D01*
X0212830Y0201334D01*
X0212905Y0201434D01*
X0212984Y0201531D01*
X0213066Y0201625D01*
X0213151Y0201717D01*
X0213238Y0201806D01*
X0213329Y0201892D01*
X0213422Y0201975D01*
X0213518Y0202056D01*
X0213616Y0202133D01*
X0213716Y0202207D01*
X0213819Y0202278D01*
X0213924Y0202345D01*
X0214032Y0202410D01*
X0214141Y0202470D01*
X0214252Y0202528D01*
X0214365Y0202581D01*
X0214479Y0202631D01*
X0214595Y0202678D01*
X0214712Y0202720D01*
X0214831Y0202759D01*
X0214951Y0202795D01*
X0215072Y0202826D01*
X0215194Y0202854D01*
X0215316Y0202877D01*
X0215440Y0202897D01*
X0215564Y0202913D01*
X0215688Y0202925D01*
X0215813Y0202933D01*
X0215938Y0202937D01*
X0216062Y0202937D01*
X0216187Y0202933D01*
X0216312Y0202925D01*
X0216436Y0202913D01*
X0216560Y0202897D01*
X0216684Y0202877D01*
X0216806Y0202854D01*
X0216928Y0202826D01*
X0217049Y0202795D01*
X0217169Y0202759D01*
X0217288Y0202720D01*
X0217405Y0202678D01*
X0217521Y0202631D01*
X0217635Y0202581D01*
X0217748Y0202528D01*
X0217859Y0202470D01*
X0217969Y0202410D01*
X0218076Y0202345D01*
X0218181Y0202278D01*
X0218284Y0202207D01*
X0218384Y0202133D01*
X0218482Y0202056D01*
X0218578Y0201975D01*
X0218671Y0201892D01*
X0218762Y0201806D01*
X0218849Y0201717D01*
X0218934Y0201625D01*
X0219016Y0201531D01*
X0219095Y0201434D01*
X0219170Y0201334D01*
X0219243Y0201233D01*
X0219312Y0201129D01*
X0219378Y0201022D01*
X0219440Y0200914D01*
X0219499Y0200804D01*
X0219555Y0200692D01*
X0219607Y0200578D01*
X0219655Y0200463D01*
X0219700Y0200347D01*
X0219740Y0200228D01*
X0219778Y0200109D01*
X0219811Y0199989D01*
X0219840Y0199867D01*
X0219866Y0199745D01*
X0219888Y0199622D01*
X0219905Y0199498D01*
X0219919Y0199374D01*
X0219929Y0199250D01*
X0219935Y0199125D01*
X0219937Y0199000D01*
X0219935Y0198875D01*
X0219929Y0198750D01*
X0219919Y0198626D01*
X0219905Y0198502D01*
X0219888Y0198378D01*
X0219866Y0198255D01*
X0219840Y0198133D01*
X0219811Y0198011D01*
X0219778Y0197891D01*
X0219740Y0197772D01*
X0219700Y0197653D01*
X0219655Y0197537D01*
X0219607Y0197422D01*
X0219555Y0197308D01*
X0219499Y0197196D01*
X0219440Y0197086D01*
X0219378Y0196978D01*
X0219312Y0196871D01*
X0219243Y0196767D01*
X0219170Y0196666D01*
X0219095Y0196566D01*
X0219016Y0196469D01*
X0218934Y0196375D01*
X0218849Y0196283D01*
X0218762Y0196194D01*
X0218671Y0196108D01*
X0218578Y0196025D01*
X0218482Y0195944D01*
X0218384Y0195867D01*
X0218284Y0195793D01*
X0218181Y0195722D01*
X0218076Y0195655D01*
X0217968Y0195590D01*
X0217859Y0195530D01*
X0217748Y0195472D01*
X0217635Y0195419D01*
X0217521Y0195369D01*
X0217405Y0195322D01*
X0217288Y0195280D01*
X0217169Y0195241D01*
X0217049Y0195205D01*
X0216928Y0195174D01*
X0216806Y0195146D01*
X0216684Y0195123D01*
X0216560Y0195103D01*
X0216436Y0195087D01*
X0216312Y0195075D01*
X0216187Y0195067D01*
X0216062Y0195063D01*
X0215938Y0195063D01*
X0215813Y0195067D01*
X0215688Y0195075D01*
X0215564Y0195087D01*
X0215440Y0195103D01*
X0215316Y0195123D01*
X0215194Y0195146D01*
X0215072Y0195174D01*
X0214951Y0195205D01*
X0214831Y0195241D01*
X0214712Y0195280D01*
X0214595Y0195322D01*
X0214479Y0195369D01*
X0214365Y0195419D01*
X0214252Y0195472D01*
X0214141Y0195530D01*
X0214031Y0195590D01*
X0213924Y0195655D01*
X0213819Y0195722D01*
X0213716Y0195793D01*
X0213616Y0195867D01*
X0213518Y0195944D01*
X0213422Y0196025D01*
X0213329Y0196108D01*
X0213238Y0196194D01*
X0213151Y0196283D01*
X0213066Y0196375D01*
X0212984Y0196469D01*
X0212905Y0196566D01*
X0212830Y0196666D01*
X0212757Y0196767D01*
X0212688Y0196871D01*
X0212622Y0196978D01*
X0212560Y0197086D01*
X0212501Y0197196D01*
X0212445Y0197308D01*
X0212393Y0197422D01*
X0212345Y0197537D01*
X0212300Y0197653D01*
X0212260Y0197772D01*
X0212222Y0197891D01*
X0212189Y0198011D01*
X0212160Y0198133D01*
X0212134Y0198255D01*
X0212112Y0198378D01*
X0212095Y0198502D01*
X0212081Y0198626D01*
X0212071Y0198750D01*
X0212065Y0198875D01*
X0212063Y0199000D01*
X0068063Y0199000D02*
X0068065Y0199125D01*
X0068071Y0199250D01*
X0068081Y0199374D01*
X0068095Y0199498D01*
X0068112Y0199622D01*
X0068134Y0199745D01*
X0068160Y0199867D01*
X0068189Y0199989D01*
X0068222Y0200109D01*
X0068260Y0200228D01*
X0068300Y0200347D01*
X0068345Y0200463D01*
X0068393Y0200578D01*
X0068445Y0200692D01*
X0068501Y0200804D01*
X0068560Y0200914D01*
X0068622Y0201022D01*
X0068688Y0201129D01*
X0068757Y0201233D01*
X0068830Y0201334D01*
X0068905Y0201434D01*
X0068984Y0201531D01*
X0069066Y0201625D01*
X0069151Y0201717D01*
X0069238Y0201806D01*
X0069329Y0201892D01*
X0069422Y0201975D01*
X0069518Y0202056D01*
X0069616Y0202133D01*
X0069716Y0202207D01*
X0069819Y0202278D01*
X0069924Y0202345D01*
X0070032Y0202410D01*
X0070141Y0202470D01*
X0070252Y0202528D01*
X0070365Y0202581D01*
X0070479Y0202631D01*
X0070595Y0202678D01*
X0070712Y0202720D01*
X0070831Y0202759D01*
X0070951Y0202795D01*
X0071072Y0202826D01*
X0071194Y0202854D01*
X0071316Y0202877D01*
X0071440Y0202897D01*
X0071564Y0202913D01*
X0071688Y0202925D01*
X0071813Y0202933D01*
X0071938Y0202937D01*
X0072062Y0202937D01*
X0072187Y0202933D01*
X0072312Y0202925D01*
X0072436Y0202913D01*
X0072560Y0202897D01*
X0072684Y0202877D01*
X0072806Y0202854D01*
X0072928Y0202826D01*
X0073049Y0202795D01*
X0073169Y0202759D01*
X0073288Y0202720D01*
X0073405Y0202678D01*
X0073521Y0202631D01*
X0073635Y0202581D01*
X0073748Y0202528D01*
X0073859Y0202470D01*
X0073969Y0202410D01*
X0074076Y0202345D01*
X0074181Y0202278D01*
X0074284Y0202207D01*
X0074384Y0202133D01*
X0074482Y0202056D01*
X0074578Y0201975D01*
X0074671Y0201892D01*
X0074762Y0201806D01*
X0074849Y0201717D01*
X0074934Y0201625D01*
X0075016Y0201531D01*
X0075095Y0201434D01*
X0075170Y0201334D01*
X0075243Y0201233D01*
X0075312Y0201129D01*
X0075378Y0201022D01*
X0075440Y0200914D01*
X0075499Y0200804D01*
X0075555Y0200692D01*
X0075607Y0200578D01*
X0075655Y0200463D01*
X0075700Y0200347D01*
X0075740Y0200228D01*
X0075778Y0200109D01*
X0075811Y0199989D01*
X0075840Y0199867D01*
X0075866Y0199745D01*
X0075888Y0199622D01*
X0075905Y0199498D01*
X0075919Y0199374D01*
X0075929Y0199250D01*
X0075935Y0199125D01*
X0075937Y0199000D01*
X0075935Y0198875D01*
X0075929Y0198750D01*
X0075919Y0198626D01*
X0075905Y0198502D01*
X0075888Y0198378D01*
X0075866Y0198255D01*
X0075840Y0198133D01*
X0075811Y0198011D01*
X0075778Y0197891D01*
X0075740Y0197772D01*
X0075700Y0197653D01*
X0075655Y0197537D01*
X0075607Y0197422D01*
X0075555Y0197308D01*
X0075499Y0197196D01*
X0075440Y0197086D01*
X0075378Y0196978D01*
X0075312Y0196871D01*
X0075243Y0196767D01*
X0075170Y0196666D01*
X0075095Y0196566D01*
X0075016Y0196469D01*
X0074934Y0196375D01*
X0074849Y0196283D01*
X0074762Y0196194D01*
X0074671Y0196108D01*
X0074578Y0196025D01*
X0074482Y0195944D01*
X0074384Y0195867D01*
X0074284Y0195793D01*
X0074181Y0195722D01*
X0074076Y0195655D01*
X0073968Y0195590D01*
X0073859Y0195530D01*
X0073748Y0195472D01*
X0073635Y0195419D01*
X0073521Y0195369D01*
X0073405Y0195322D01*
X0073288Y0195280D01*
X0073169Y0195241D01*
X0073049Y0195205D01*
X0072928Y0195174D01*
X0072806Y0195146D01*
X0072684Y0195123D01*
X0072560Y0195103D01*
X0072436Y0195087D01*
X0072312Y0195075D01*
X0072187Y0195067D01*
X0072062Y0195063D01*
X0071938Y0195063D01*
X0071813Y0195067D01*
X0071688Y0195075D01*
X0071564Y0195087D01*
X0071440Y0195103D01*
X0071316Y0195123D01*
X0071194Y0195146D01*
X0071072Y0195174D01*
X0070951Y0195205D01*
X0070831Y0195241D01*
X0070712Y0195280D01*
X0070595Y0195322D01*
X0070479Y0195369D01*
X0070365Y0195419D01*
X0070252Y0195472D01*
X0070141Y0195530D01*
X0070031Y0195590D01*
X0069924Y0195655D01*
X0069819Y0195722D01*
X0069716Y0195793D01*
X0069616Y0195867D01*
X0069518Y0195944D01*
X0069422Y0196025D01*
X0069329Y0196108D01*
X0069238Y0196194D01*
X0069151Y0196283D01*
X0069066Y0196375D01*
X0068984Y0196469D01*
X0068905Y0196566D01*
X0068830Y0196666D01*
X0068757Y0196767D01*
X0068688Y0196871D01*
X0068622Y0196978D01*
X0068560Y0197086D01*
X0068501Y0197196D01*
X0068445Y0197308D01*
X0068393Y0197422D01*
X0068345Y0197537D01*
X0068300Y0197653D01*
X0068260Y0197772D01*
X0068222Y0197891D01*
X0068189Y0198011D01*
X0068160Y0198133D01*
X0068134Y0198255D01*
X0068112Y0198378D01*
X0068095Y0198502D01*
X0068081Y0198626D01*
X0068071Y0198750D01*
X0068065Y0198875D01*
X0068063Y0199000D01*
D11*
X0095127Y0185400D02*
X0098196Y0185400D01*
X0096661Y0185400D02*
X0096661Y0190004D01*
X0098196Y0188469D01*
X0099731Y0189237D02*
X0099731Y0186167D01*
X0100498Y0185400D01*
X0102033Y0185400D01*
X0102800Y0186167D01*
X0102800Y0189237D01*
X0102033Y0190004D01*
X0100498Y0190004D01*
X0099731Y0189237D01*
X0101265Y0186935D02*
X0099731Y0185400D01*
X0131127Y0185400D02*
X0134196Y0185400D01*
X0131127Y0188469D01*
X0131127Y0189237D01*
X0131894Y0190004D01*
X0133429Y0190004D01*
X0134196Y0189237D01*
X0135731Y0189237D02*
X0135731Y0186167D01*
X0136498Y0185400D01*
X0138033Y0185400D01*
X0138800Y0186167D01*
X0138800Y0189237D01*
X0138033Y0190004D01*
X0136498Y0190004D01*
X0135731Y0189237D01*
X0137265Y0186935D02*
X0135731Y0185400D01*
X0167127Y0186167D02*
X0167894Y0185400D01*
X0169429Y0185400D01*
X0170196Y0186167D01*
X0171731Y0186167D02*
X0172498Y0185400D01*
X0174033Y0185400D01*
X0174800Y0186167D01*
X0174800Y0189237D01*
X0174033Y0190004D01*
X0172498Y0190004D01*
X0171731Y0189237D01*
X0171731Y0186167D01*
X0171731Y0185400D02*
X0173265Y0186935D01*
X0170196Y0189237D02*
X0169429Y0190004D01*
X0167894Y0190004D01*
X0167127Y0189237D01*
X0167127Y0188469D01*
X0167894Y0187702D01*
X0167127Y0186935D01*
X0167127Y0186167D01*
X0167894Y0187702D02*
X0168661Y0187702D01*
X0168800Y0155804D02*
X0166498Y0155804D01*
X0165731Y0155037D01*
X0165731Y0153502D01*
X0166498Y0152735D01*
X0168800Y0152735D01*
X0167265Y0152735D02*
X0165731Y0151200D01*
X0164196Y0151967D02*
X0163429Y0151200D01*
X0161894Y0151200D01*
X0161127Y0151967D01*
X0161127Y0153502D01*
X0161894Y0154269D01*
X0162661Y0154269D01*
X0164196Y0153502D01*
X0164196Y0155804D01*
X0161127Y0155804D01*
X0168800Y0155804D02*
X0168800Y0151200D01*
X0133008Y0140804D02*
X0133008Y0136200D01*
X0133008Y0137735D02*
X0130706Y0137735D01*
X0129939Y0138502D01*
X0129939Y0140037D01*
X0130706Y0140804D01*
X0133008Y0140804D01*
X0131473Y0137735D02*
X0129939Y0136200D01*
X0128404Y0138502D02*
X0125335Y0138502D01*
X0126102Y0136200D02*
X0126102Y0140804D01*
X0128404Y0138502D01*
X0098008Y0137735D02*
X0095706Y0137735D01*
X0094939Y0138502D01*
X0094939Y0140037D01*
X0095706Y0140804D01*
X0098008Y0140804D01*
X0098008Y0136200D01*
X0096473Y0137735D02*
X0094939Y0136200D01*
X0093404Y0136967D02*
X0092637Y0136200D01*
X0091102Y0136200D01*
X0090335Y0136967D01*
X0090335Y0137735D01*
X0091102Y0138502D01*
X0091869Y0138502D01*
X0091102Y0138502D02*
X0090335Y0139269D01*
X0090335Y0140037D01*
X0091102Y0140804D01*
X0092637Y0140804D01*
X0093404Y0140037D01*
D12*
X0105902Y0178000D02*
X0080098Y0178000D01*
X0080098Y0192000D01*
X0105902Y0192000D01*
X0105902Y0178000D01*
X0116098Y0178000D02*
X0141902Y0178000D01*
X0141902Y0192000D01*
X0116098Y0192000D01*
X0116098Y0178000D01*
X0152098Y0178000D02*
X0177902Y0178000D01*
X0177902Y0192000D01*
X0152098Y0192000D01*
X0152098Y0178000D01*
X0195925Y0154500D02*
X0195925Y0149500D01*
M02*
