G75*
%MOIN*%
%OFA0B0*%
%FSLAX25Y25*%
%IPPOS*%
%LPD*%
%AMOC8*
5,1,8,0,0,1.08239X$1,22.5*
%
%ADD10C,0.00000*%
%ADD11C,0.07677*%
%ADD12R,0.07600X0.07600*%
%ADD13OC8,0.07600*%
%ADD14C,0.06000*%
%ADD15R,0.06299X0.07098*%
%ADD16R,0.04799X0.08799*%
%ADD17R,0.14173X0.08661*%
%ADD18C,0.07400*%
%ADD19C,0.01500*%
%ADD20C,0.02400*%
%ADD21C,0.00600*%
D10*
X0018000Y0002000D02*
X0018000Y0205961D01*
X0227701Y0205961D01*
X0227701Y0002000D01*
X0018000Y0002000D01*
X0081063Y0009000D02*
X0081065Y0009125D01*
X0081071Y0009250D01*
X0081081Y0009374D01*
X0081095Y0009498D01*
X0081112Y0009622D01*
X0081134Y0009745D01*
X0081160Y0009867D01*
X0081189Y0009989D01*
X0081222Y0010109D01*
X0081260Y0010228D01*
X0081300Y0010347D01*
X0081345Y0010463D01*
X0081393Y0010578D01*
X0081445Y0010692D01*
X0081501Y0010804D01*
X0081560Y0010914D01*
X0081622Y0011022D01*
X0081688Y0011129D01*
X0081757Y0011233D01*
X0081830Y0011334D01*
X0081905Y0011434D01*
X0081984Y0011531D01*
X0082066Y0011625D01*
X0082151Y0011717D01*
X0082238Y0011806D01*
X0082329Y0011892D01*
X0082422Y0011975D01*
X0082518Y0012056D01*
X0082616Y0012133D01*
X0082716Y0012207D01*
X0082819Y0012278D01*
X0082924Y0012345D01*
X0083032Y0012410D01*
X0083141Y0012470D01*
X0083252Y0012528D01*
X0083365Y0012581D01*
X0083479Y0012631D01*
X0083595Y0012678D01*
X0083712Y0012720D01*
X0083831Y0012759D01*
X0083951Y0012795D01*
X0084072Y0012826D01*
X0084194Y0012854D01*
X0084316Y0012877D01*
X0084440Y0012897D01*
X0084564Y0012913D01*
X0084688Y0012925D01*
X0084813Y0012933D01*
X0084938Y0012937D01*
X0085062Y0012937D01*
X0085187Y0012933D01*
X0085312Y0012925D01*
X0085436Y0012913D01*
X0085560Y0012897D01*
X0085684Y0012877D01*
X0085806Y0012854D01*
X0085928Y0012826D01*
X0086049Y0012795D01*
X0086169Y0012759D01*
X0086288Y0012720D01*
X0086405Y0012678D01*
X0086521Y0012631D01*
X0086635Y0012581D01*
X0086748Y0012528D01*
X0086859Y0012470D01*
X0086969Y0012410D01*
X0087076Y0012345D01*
X0087181Y0012278D01*
X0087284Y0012207D01*
X0087384Y0012133D01*
X0087482Y0012056D01*
X0087578Y0011975D01*
X0087671Y0011892D01*
X0087762Y0011806D01*
X0087849Y0011717D01*
X0087934Y0011625D01*
X0088016Y0011531D01*
X0088095Y0011434D01*
X0088170Y0011334D01*
X0088243Y0011233D01*
X0088312Y0011129D01*
X0088378Y0011022D01*
X0088440Y0010914D01*
X0088499Y0010804D01*
X0088555Y0010692D01*
X0088607Y0010578D01*
X0088655Y0010463D01*
X0088700Y0010347D01*
X0088740Y0010228D01*
X0088778Y0010109D01*
X0088811Y0009989D01*
X0088840Y0009867D01*
X0088866Y0009745D01*
X0088888Y0009622D01*
X0088905Y0009498D01*
X0088919Y0009374D01*
X0088929Y0009250D01*
X0088935Y0009125D01*
X0088937Y0009000D01*
X0088935Y0008875D01*
X0088929Y0008750D01*
X0088919Y0008626D01*
X0088905Y0008502D01*
X0088888Y0008378D01*
X0088866Y0008255D01*
X0088840Y0008133D01*
X0088811Y0008011D01*
X0088778Y0007891D01*
X0088740Y0007772D01*
X0088700Y0007653D01*
X0088655Y0007537D01*
X0088607Y0007422D01*
X0088555Y0007308D01*
X0088499Y0007196D01*
X0088440Y0007086D01*
X0088378Y0006978D01*
X0088312Y0006871D01*
X0088243Y0006767D01*
X0088170Y0006666D01*
X0088095Y0006566D01*
X0088016Y0006469D01*
X0087934Y0006375D01*
X0087849Y0006283D01*
X0087762Y0006194D01*
X0087671Y0006108D01*
X0087578Y0006025D01*
X0087482Y0005944D01*
X0087384Y0005867D01*
X0087284Y0005793D01*
X0087181Y0005722D01*
X0087076Y0005655D01*
X0086968Y0005590D01*
X0086859Y0005530D01*
X0086748Y0005472D01*
X0086635Y0005419D01*
X0086521Y0005369D01*
X0086405Y0005322D01*
X0086288Y0005280D01*
X0086169Y0005241D01*
X0086049Y0005205D01*
X0085928Y0005174D01*
X0085806Y0005146D01*
X0085684Y0005123D01*
X0085560Y0005103D01*
X0085436Y0005087D01*
X0085312Y0005075D01*
X0085187Y0005067D01*
X0085062Y0005063D01*
X0084938Y0005063D01*
X0084813Y0005067D01*
X0084688Y0005075D01*
X0084564Y0005087D01*
X0084440Y0005103D01*
X0084316Y0005123D01*
X0084194Y0005146D01*
X0084072Y0005174D01*
X0083951Y0005205D01*
X0083831Y0005241D01*
X0083712Y0005280D01*
X0083595Y0005322D01*
X0083479Y0005369D01*
X0083365Y0005419D01*
X0083252Y0005472D01*
X0083141Y0005530D01*
X0083031Y0005590D01*
X0082924Y0005655D01*
X0082819Y0005722D01*
X0082716Y0005793D01*
X0082616Y0005867D01*
X0082518Y0005944D01*
X0082422Y0006025D01*
X0082329Y0006108D01*
X0082238Y0006194D01*
X0082151Y0006283D01*
X0082066Y0006375D01*
X0081984Y0006469D01*
X0081905Y0006566D01*
X0081830Y0006666D01*
X0081757Y0006767D01*
X0081688Y0006871D01*
X0081622Y0006978D01*
X0081560Y0007086D01*
X0081501Y0007196D01*
X0081445Y0007308D01*
X0081393Y0007422D01*
X0081345Y0007537D01*
X0081300Y0007653D01*
X0081260Y0007772D01*
X0081222Y0007891D01*
X0081189Y0008011D01*
X0081160Y0008133D01*
X0081134Y0008255D01*
X0081112Y0008378D01*
X0081095Y0008502D01*
X0081081Y0008626D01*
X0081071Y0008750D01*
X0081065Y0008875D01*
X0081063Y0009000D01*
X0212063Y0009000D02*
X0212065Y0009125D01*
X0212071Y0009250D01*
X0212081Y0009374D01*
X0212095Y0009498D01*
X0212112Y0009622D01*
X0212134Y0009745D01*
X0212160Y0009867D01*
X0212189Y0009989D01*
X0212222Y0010109D01*
X0212260Y0010228D01*
X0212300Y0010347D01*
X0212345Y0010463D01*
X0212393Y0010578D01*
X0212445Y0010692D01*
X0212501Y0010804D01*
X0212560Y0010914D01*
X0212622Y0011022D01*
X0212688Y0011129D01*
X0212757Y0011233D01*
X0212830Y0011334D01*
X0212905Y0011434D01*
X0212984Y0011531D01*
X0213066Y0011625D01*
X0213151Y0011717D01*
X0213238Y0011806D01*
X0213329Y0011892D01*
X0213422Y0011975D01*
X0213518Y0012056D01*
X0213616Y0012133D01*
X0213716Y0012207D01*
X0213819Y0012278D01*
X0213924Y0012345D01*
X0214032Y0012410D01*
X0214141Y0012470D01*
X0214252Y0012528D01*
X0214365Y0012581D01*
X0214479Y0012631D01*
X0214595Y0012678D01*
X0214712Y0012720D01*
X0214831Y0012759D01*
X0214951Y0012795D01*
X0215072Y0012826D01*
X0215194Y0012854D01*
X0215316Y0012877D01*
X0215440Y0012897D01*
X0215564Y0012913D01*
X0215688Y0012925D01*
X0215813Y0012933D01*
X0215938Y0012937D01*
X0216062Y0012937D01*
X0216187Y0012933D01*
X0216312Y0012925D01*
X0216436Y0012913D01*
X0216560Y0012897D01*
X0216684Y0012877D01*
X0216806Y0012854D01*
X0216928Y0012826D01*
X0217049Y0012795D01*
X0217169Y0012759D01*
X0217288Y0012720D01*
X0217405Y0012678D01*
X0217521Y0012631D01*
X0217635Y0012581D01*
X0217748Y0012528D01*
X0217859Y0012470D01*
X0217969Y0012410D01*
X0218076Y0012345D01*
X0218181Y0012278D01*
X0218284Y0012207D01*
X0218384Y0012133D01*
X0218482Y0012056D01*
X0218578Y0011975D01*
X0218671Y0011892D01*
X0218762Y0011806D01*
X0218849Y0011717D01*
X0218934Y0011625D01*
X0219016Y0011531D01*
X0219095Y0011434D01*
X0219170Y0011334D01*
X0219243Y0011233D01*
X0219312Y0011129D01*
X0219378Y0011022D01*
X0219440Y0010914D01*
X0219499Y0010804D01*
X0219555Y0010692D01*
X0219607Y0010578D01*
X0219655Y0010463D01*
X0219700Y0010347D01*
X0219740Y0010228D01*
X0219778Y0010109D01*
X0219811Y0009989D01*
X0219840Y0009867D01*
X0219866Y0009745D01*
X0219888Y0009622D01*
X0219905Y0009498D01*
X0219919Y0009374D01*
X0219929Y0009250D01*
X0219935Y0009125D01*
X0219937Y0009000D01*
X0219935Y0008875D01*
X0219929Y0008750D01*
X0219919Y0008626D01*
X0219905Y0008502D01*
X0219888Y0008378D01*
X0219866Y0008255D01*
X0219840Y0008133D01*
X0219811Y0008011D01*
X0219778Y0007891D01*
X0219740Y0007772D01*
X0219700Y0007653D01*
X0219655Y0007537D01*
X0219607Y0007422D01*
X0219555Y0007308D01*
X0219499Y0007196D01*
X0219440Y0007086D01*
X0219378Y0006978D01*
X0219312Y0006871D01*
X0219243Y0006767D01*
X0219170Y0006666D01*
X0219095Y0006566D01*
X0219016Y0006469D01*
X0218934Y0006375D01*
X0218849Y0006283D01*
X0218762Y0006194D01*
X0218671Y0006108D01*
X0218578Y0006025D01*
X0218482Y0005944D01*
X0218384Y0005867D01*
X0218284Y0005793D01*
X0218181Y0005722D01*
X0218076Y0005655D01*
X0217968Y0005590D01*
X0217859Y0005530D01*
X0217748Y0005472D01*
X0217635Y0005419D01*
X0217521Y0005369D01*
X0217405Y0005322D01*
X0217288Y0005280D01*
X0217169Y0005241D01*
X0217049Y0005205D01*
X0216928Y0005174D01*
X0216806Y0005146D01*
X0216684Y0005123D01*
X0216560Y0005103D01*
X0216436Y0005087D01*
X0216312Y0005075D01*
X0216187Y0005067D01*
X0216062Y0005063D01*
X0215938Y0005063D01*
X0215813Y0005067D01*
X0215688Y0005075D01*
X0215564Y0005087D01*
X0215440Y0005103D01*
X0215316Y0005123D01*
X0215194Y0005146D01*
X0215072Y0005174D01*
X0214951Y0005205D01*
X0214831Y0005241D01*
X0214712Y0005280D01*
X0214595Y0005322D01*
X0214479Y0005369D01*
X0214365Y0005419D01*
X0214252Y0005472D01*
X0214141Y0005530D01*
X0214031Y0005590D01*
X0213924Y0005655D01*
X0213819Y0005722D01*
X0213716Y0005793D01*
X0213616Y0005867D01*
X0213518Y0005944D01*
X0213422Y0006025D01*
X0213329Y0006108D01*
X0213238Y0006194D01*
X0213151Y0006283D01*
X0213066Y0006375D01*
X0212984Y0006469D01*
X0212905Y0006566D01*
X0212830Y0006666D01*
X0212757Y0006767D01*
X0212688Y0006871D01*
X0212622Y0006978D01*
X0212560Y0007086D01*
X0212501Y0007196D01*
X0212445Y0007308D01*
X0212393Y0007422D01*
X0212345Y0007537D01*
X0212300Y0007653D01*
X0212260Y0007772D01*
X0212222Y0007891D01*
X0212189Y0008011D01*
X0212160Y0008133D01*
X0212134Y0008255D01*
X0212112Y0008378D01*
X0212095Y0008502D01*
X0212081Y0008626D01*
X0212071Y0008750D01*
X0212065Y0008875D01*
X0212063Y0009000D01*
X0212063Y0197000D02*
X0212065Y0197125D01*
X0212071Y0197250D01*
X0212081Y0197374D01*
X0212095Y0197498D01*
X0212112Y0197622D01*
X0212134Y0197745D01*
X0212160Y0197867D01*
X0212189Y0197989D01*
X0212222Y0198109D01*
X0212260Y0198228D01*
X0212300Y0198347D01*
X0212345Y0198463D01*
X0212393Y0198578D01*
X0212445Y0198692D01*
X0212501Y0198804D01*
X0212560Y0198914D01*
X0212622Y0199022D01*
X0212688Y0199129D01*
X0212757Y0199233D01*
X0212830Y0199334D01*
X0212905Y0199434D01*
X0212984Y0199531D01*
X0213066Y0199625D01*
X0213151Y0199717D01*
X0213238Y0199806D01*
X0213329Y0199892D01*
X0213422Y0199975D01*
X0213518Y0200056D01*
X0213616Y0200133D01*
X0213716Y0200207D01*
X0213819Y0200278D01*
X0213924Y0200345D01*
X0214032Y0200410D01*
X0214141Y0200470D01*
X0214252Y0200528D01*
X0214365Y0200581D01*
X0214479Y0200631D01*
X0214595Y0200678D01*
X0214712Y0200720D01*
X0214831Y0200759D01*
X0214951Y0200795D01*
X0215072Y0200826D01*
X0215194Y0200854D01*
X0215316Y0200877D01*
X0215440Y0200897D01*
X0215564Y0200913D01*
X0215688Y0200925D01*
X0215813Y0200933D01*
X0215938Y0200937D01*
X0216062Y0200937D01*
X0216187Y0200933D01*
X0216312Y0200925D01*
X0216436Y0200913D01*
X0216560Y0200897D01*
X0216684Y0200877D01*
X0216806Y0200854D01*
X0216928Y0200826D01*
X0217049Y0200795D01*
X0217169Y0200759D01*
X0217288Y0200720D01*
X0217405Y0200678D01*
X0217521Y0200631D01*
X0217635Y0200581D01*
X0217748Y0200528D01*
X0217859Y0200470D01*
X0217969Y0200410D01*
X0218076Y0200345D01*
X0218181Y0200278D01*
X0218284Y0200207D01*
X0218384Y0200133D01*
X0218482Y0200056D01*
X0218578Y0199975D01*
X0218671Y0199892D01*
X0218762Y0199806D01*
X0218849Y0199717D01*
X0218934Y0199625D01*
X0219016Y0199531D01*
X0219095Y0199434D01*
X0219170Y0199334D01*
X0219243Y0199233D01*
X0219312Y0199129D01*
X0219378Y0199022D01*
X0219440Y0198914D01*
X0219499Y0198804D01*
X0219555Y0198692D01*
X0219607Y0198578D01*
X0219655Y0198463D01*
X0219700Y0198347D01*
X0219740Y0198228D01*
X0219778Y0198109D01*
X0219811Y0197989D01*
X0219840Y0197867D01*
X0219866Y0197745D01*
X0219888Y0197622D01*
X0219905Y0197498D01*
X0219919Y0197374D01*
X0219929Y0197250D01*
X0219935Y0197125D01*
X0219937Y0197000D01*
X0219935Y0196875D01*
X0219929Y0196750D01*
X0219919Y0196626D01*
X0219905Y0196502D01*
X0219888Y0196378D01*
X0219866Y0196255D01*
X0219840Y0196133D01*
X0219811Y0196011D01*
X0219778Y0195891D01*
X0219740Y0195772D01*
X0219700Y0195653D01*
X0219655Y0195537D01*
X0219607Y0195422D01*
X0219555Y0195308D01*
X0219499Y0195196D01*
X0219440Y0195086D01*
X0219378Y0194978D01*
X0219312Y0194871D01*
X0219243Y0194767D01*
X0219170Y0194666D01*
X0219095Y0194566D01*
X0219016Y0194469D01*
X0218934Y0194375D01*
X0218849Y0194283D01*
X0218762Y0194194D01*
X0218671Y0194108D01*
X0218578Y0194025D01*
X0218482Y0193944D01*
X0218384Y0193867D01*
X0218284Y0193793D01*
X0218181Y0193722D01*
X0218076Y0193655D01*
X0217968Y0193590D01*
X0217859Y0193530D01*
X0217748Y0193472D01*
X0217635Y0193419D01*
X0217521Y0193369D01*
X0217405Y0193322D01*
X0217288Y0193280D01*
X0217169Y0193241D01*
X0217049Y0193205D01*
X0216928Y0193174D01*
X0216806Y0193146D01*
X0216684Y0193123D01*
X0216560Y0193103D01*
X0216436Y0193087D01*
X0216312Y0193075D01*
X0216187Y0193067D01*
X0216062Y0193063D01*
X0215938Y0193063D01*
X0215813Y0193067D01*
X0215688Y0193075D01*
X0215564Y0193087D01*
X0215440Y0193103D01*
X0215316Y0193123D01*
X0215194Y0193146D01*
X0215072Y0193174D01*
X0214951Y0193205D01*
X0214831Y0193241D01*
X0214712Y0193280D01*
X0214595Y0193322D01*
X0214479Y0193369D01*
X0214365Y0193419D01*
X0214252Y0193472D01*
X0214141Y0193530D01*
X0214031Y0193590D01*
X0213924Y0193655D01*
X0213819Y0193722D01*
X0213716Y0193793D01*
X0213616Y0193867D01*
X0213518Y0193944D01*
X0213422Y0194025D01*
X0213329Y0194108D01*
X0213238Y0194194D01*
X0213151Y0194283D01*
X0213066Y0194375D01*
X0212984Y0194469D01*
X0212905Y0194566D01*
X0212830Y0194666D01*
X0212757Y0194767D01*
X0212688Y0194871D01*
X0212622Y0194978D01*
X0212560Y0195086D01*
X0212501Y0195196D01*
X0212445Y0195308D01*
X0212393Y0195422D01*
X0212345Y0195537D01*
X0212300Y0195653D01*
X0212260Y0195772D01*
X0212222Y0195891D01*
X0212189Y0196011D01*
X0212160Y0196133D01*
X0212134Y0196255D01*
X0212112Y0196378D01*
X0212095Y0196502D01*
X0212081Y0196626D01*
X0212071Y0196750D01*
X0212065Y0196875D01*
X0212063Y0197000D01*
X0068063Y0197000D02*
X0068065Y0197125D01*
X0068071Y0197250D01*
X0068081Y0197374D01*
X0068095Y0197498D01*
X0068112Y0197622D01*
X0068134Y0197745D01*
X0068160Y0197867D01*
X0068189Y0197989D01*
X0068222Y0198109D01*
X0068260Y0198228D01*
X0068300Y0198347D01*
X0068345Y0198463D01*
X0068393Y0198578D01*
X0068445Y0198692D01*
X0068501Y0198804D01*
X0068560Y0198914D01*
X0068622Y0199022D01*
X0068688Y0199129D01*
X0068757Y0199233D01*
X0068830Y0199334D01*
X0068905Y0199434D01*
X0068984Y0199531D01*
X0069066Y0199625D01*
X0069151Y0199717D01*
X0069238Y0199806D01*
X0069329Y0199892D01*
X0069422Y0199975D01*
X0069518Y0200056D01*
X0069616Y0200133D01*
X0069716Y0200207D01*
X0069819Y0200278D01*
X0069924Y0200345D01*
X0070032Y0200410D01*
X0070141Y0200470D01*
X0070252Y0200528D01*
X0070365Y0200581D01*
X0070479Y0200631D01*
X0070595Y0200678D01*
X0070712Y0200720D01*
X0070831Y0200759D01*
X0070951Y0200795D01*
X0071072Y0200826D01*
X0071194Y0200854D01*
X0071316Y0200877D01*
X0071440Y0200897D01*
X0071564Y0200913D01*
X0071688Y0200925D01*
X0071813Y0200933D01*
X0071938Y0200937D01*
X0072062Y0200937D01*
X0072187Y0200933D01*
X0072312Y0200925D01*
X0072436Y0200913D01*
X0072560Y0200897D01*
X0072684Y0200877D01*
X0072806Y0200854D01*
X0072928Y0200826D01*
X0073049Y0200795D01*
X0073169Y0200759D01*
X0073288Y0200720D01*
X0073405Y0200678D01*
X0073521Y0200631D01*
X0073635Y0200581D01*
X0073748Y0200528D01*
X0073859Y0200470D01*
X0073969Y0200410D01*
X0074076Y0200345D01*
X0074181Y0200278D01*
X0074284Y0200207D01*
X0074384Y0200133D01*
X0074482Y0200056D01*
X0074578Y0199975D01*
X0074671Y0199892D01*
X0074762Y0199806D01*
X0074849Y0199717D01*
X0074934Y0199625D01*
X0075016Y0199531D01*
X0075095Y0199434D01*
X0075170Y0199334D01*
X0075243Y0199233D01*
X0075312Y0199129D01*
X0075378Y0199022D01*
X0075440Y0198914D01*
X0075499Y0198804D01*
X0075555Y0198692D01*
X0075607Y0198578D01*
X0075655Y0198463D01*
X0075700Y0198347D01*
X0075740Y0198228D01*
X0075778Y0198109D01*
X0075811Y0197989D01*
X0075840Y0197867D01*
X0075866Y0197745D01*
X0075888Y0197622D01*
X0075905Y0197498D01*
X0075919Y0197374D01*
X0075929Y0197250D01*
X0075935Y0197125D01*
X0075937Y0197000D01*
X0075935Y0196875D01*
X0075929Y0196750D01*
X0075919Y0196626D01*
X0075905Y0196502D01*
X0075888Y0196378D01*
X0075866Y0196255D01*
X0075840Y0196133D01*
X0075811Y0196011D01*
X0075778Y0195891D01*
X0075740Y0195772D01*
X0075700Y0195653D01*
X0075655Y0195537D01*
X0075607Y0195422D01*
X0075555Y0195308D01*
X0075499Y0195196D01*
X0075440Y0195086D01*
X0075378Y0194978D01*
X0075312Y0194871D01*
X0075243Y0194767D01*
X0075170Y0194666D01*
X0075095Y0194566D01*
X0075016Y0194469D01*
X0074934Y0194375D01*
X0074849Y0194283D01*
X0074762Y0194194D01*
X0074671Y0194108D01*
X0074578Y0194025D01*
X0074482Y0193944D01*
X0074384Y0193867D01*
X0074284Y0193793D01*
X0074181Y0193722D01*
X0074076Y0193655D01*
X0073968Y0193590D01*
X0073859Y0193530D01*
X0073748Y0193472D01*
X0073635Y0193419D01*
X0073521Y0193369D01*
X0073405Y0193322D01*
X0073288Y0193280D01*
X0073169Y0193241D01*
X0073049Y0193205D01*
X0072928Y0193174D01*
X0072806Y0193146D01*
X0072684Y0193123D01*
X0072560Y0193103D01*
X0072436Y0193087D01*
X0072312Y0193075D01*
X0072187Y0193067D01*
X0072062Y0193063D01*
X0071938Y0193063D01*
X0071813Y0193067D01*
X0071688Y0193075D01*
X0071564Y0193087D01*
X0071440Y0193103D01*
X0071316Y0193123D01*
X0071194Y0193146D01*
X0071072Y0193174D01*
X0070951Y0193205D01*
X0070831Y0193241D01*
X0070712Y0193280D01*
X0070595Y0193322D01*
X0070479Y0193369D01*
X0070365Y0193419D01*
X0070252Y0193472D01*
X0070141Y0193530D01*
X0070031Y0193590D01*
X0069924Y0193655D01*
X0069819Y0193722D01*
X0069716Y0193793D01*
X0069616Y0193867D01*
X0069518Y0193944D01*
X0069422Y0194025D01*
X0069329Y0194108D01*
X0069238Y0194194D01*
X0069151Y0194283D01*
X0069066Y0194375D01*
X0068984Y0194469D01*
X0068905Y0194566D01*
X0068830Y0194666D01*
X0068757Y0194767D01*
X0068688Y0194871D01*
X0068622Y0194978D01*
X0068560Y0195086D01*
X0068501Y0195196D01*
X0068445Y0195308D01*
X0068393Y0195422D01*
X0068345Y0195537D01*
X0068300Y0195653D01*
X0068260Y0195772D01*
X0068222Y0195891D01*
X0068189Y0196011D01*
X0068160Y0196133D01*
X0068134Y0196255D01*
X0068112Y0196378D01*
X0068095Y0196502D01*
X0068081Y0196626D01*
X0068071Y0196750D01*
X0068065Y0196875D01*
X0068063Y0197000D01*
D11*
X0058937Y0186000D03*
X0047126Y0167102D03*
X0036102Y0186000D03*
D12*
X0083942Y0153350D03*
D13*
X0162682Y0153350D03*
D14*
X0034000Y0155000D02*
X0028000Y0155000D01*
X0028000Y0145000D02*
X0034000Y0145000D01*
X0034000Y0135000D02*
X0028000Y0135000D01*
X0028000Y0125000D02*
X0034000Y0125000D01*
D15*
X0088552Y0137190D03*
X0099748Y0137190D03*
X0123552Y0137190D03*
X0134748Y0137190D03*
X0158552Y0137190D03*
X0169748Y0137190D03*
D16*
X0174098Y0170799D03*
X0165000Y0170799D03*
X0155902Y0170799D03*
X0138098Y0170799D03*
X0129000Y0170799D03*
X0119902Y0170799D03*
X0102098Y0170799D03*
X0093000Y0170799D03*
X0083902Y0170799D03*
D17*
X0093000Y0195201D03*
X0129000Y0195201D03*
X0165000Y0195201D03*
D18*
X0202900Y0169320D03*
X0212900Y0169320D03*
X0212900Y0159320D03*
X0202900Y0159320D03*
X0202900Y0149320D03*
X0212900Y0149320D03*
X0212900Y0139320D03*
X0202900Y0139320D03*
X0202900Y0129320D03*
X0212900Y0129320D03*
D19*
X0213150Y0129373D02*
X0225751Y0129373D01*
X0225751Y0127875D02*
X0218161Y0127875D01*
X0218216Y0128044D02*
X0218350Y0128891D01*
X0218350Y0129070D01*
X0213150Y0129070D01*
X0213150Y0129570D01*
X0218350Y0129570D01*
X0218350Y0129749D01*
X0218216Y0130596D01*
X0217951Y0131412D01*
X0217561Y0132176D01*
X0217057Y0132870D01*
X0216450Y0133477D01*
X0215756Y0133981D01*
X0215092Y0134320D01*
X0215756Y0134659D01*
X0216450Y0135163D01*
X0217057Y0135770D01*
X0217561Y0136464D01*
X0217951Y0137228D01*
X0218216Y0138044D01*
X0218350Y0138891D01*
X0218350Y0139070D01*
X0213150Y0139070D01*
X0213150Y0139570D01*
X0218350Y0139570D01*
X0218350Y0139749D01*
X0218216Y0140596D01*
X0217951Y0141412D01*
X0217561Y0142176D01*
X0217057Y0142870D01*
X0216450Y0143477D01*
X0215756Y0143981D01*
X0215316Y0144205D01*
X0216100Y0144530D01*
X0217690Y0146120D01*
X0218550Y0148196D01*
X0218550Y0150444D01*
X0217690Y0152520D01*
X0216100Y0154110D01*
X0215593Y0154320D01*
X0216100Y0154530D01*
X0217690Y0156120D01*
X0218550Y0158196D01*
X0218550Y0160444D01*
X0217690Y0162520D01*
X0216100Y0164110D01*
X0215593Y0164320D01*
X0216100Y0164530D01*
X0217690Y0166120D01*
X0218550Y0168196D01*
X0218550Y0170444D01*
X0217690Y0172520D01*
X0216100Y0174110D01*
X0214024Y0174970D01*
X0211776Y0174970D01*
X0209700Y0174110D01*
X0208886Y0173296D01*
X0207050Y0175132D01*
X0205732Y0176450D01*
X0197568Y0176450D01*
X0163368Y0142250D01*
X0163158Y0142040D01*
X0162509Y0142689D01*
X0162371Y0142689D01*
X0174832Y0155150D01*
X0176150Y0156468D01*
X0176150Y0164450D01*
X0177306Y0164450D01*
X0178448Y0165592D01*
X0178448Y0176007D01*
X0177306Y0177149D01*
X0170891Y0177149D01*
X0169749Y0176007D01*
X0169749Y0165592D01*
X0170891Y0164450D01*
X0171650Y0164450D01*
X0171650Y0158332D01*
X0168232Y0154914D01*
X0168232Y0155649D01*
X0164981Y0158900D01*
X0162818Y0158900D01*
X0162818Y0153486D01*
X0162546Y0153486D01*
X0162546Y0153214D01*
X0157132Y0153214D01*
X0157132Y0151051D01*
X0160383Y0147800D01*
X0161118Y0147800D01*
X0156350Y0143032D01*
X0156350Y0142689D01*
X0154594Y0142689D01*
X0153452Y0141547D01*
X0153452Y0132833D01*
X0154594Y0131691D01*
X0162050Y0131691D01*
X0162050Y0101932D01*
X0132291Y0131691D01*
X0138706Y0131691D01*
X0139848Y0132833D01*
X0139848Y0141547D01*
X0138706Y0142689D01*
X0137150Y0142689D01*
X0137150Y0163968D01*
X0137632Y0164450D01*
X0141306Y0164450D01*
X0142448Y0165592D01*
X0142448Y0176007D01*
X0141306Y0177149D01*
X0134891Y0177149D01*
X0133749Y0176007D01*
X0133749Y0166931D01*
X0133350Y0166532D01*
X0133350Y0176007D01*
X0132207Y0177149D01*
X0131900Y0177149D01*
X0131900Y0188920D01*
X0136894Y0188920D01*
X0138037Y0190062D01*
X0138037Y0200339D01*
X0137476Y0200900D01*
X0155082Y0200900D01*
X0155963Y0200018D01*
X0155963Y0190062D01*
X0157106Y0188920D01*
X0162500Y0188920D01*
X0162500Y0177149D01*
X0161793Y0177149D01*
X0160650Y0176007D01*
X0160650Y0165592D01*
X0161793Y0164450D01*
X0168207Y0164450D01*
X0169350Y0165592D01*
X0169350Y0176007D01*
X0168207Y0177149D01*
X0167900Y0177149D01*
X0167900Y0188920D01*
X0172894Y0188920D01*
X0174037Y0190062D01*
X0174037Y0200339D01*
X0172894Y0201481D01*
X0162137Y0201481D01*
X0159608Y0204011D01*
X0225751Y0204011D01*
X0225751Y0004000D01*
X0219312Y0004000D01*
X0219335Y0004009D01*
X0220991Y0005665D01*
X0221887Y0007829D01*
X0221887Y0010171D01*
X0220991Y0012335D01*
X0219335Y0013991D01*
X0217171Y0014887D01*
X0214829Y0014887D01*
X0212665Y0013991D01*
X0211009Y0012335D01*
X0210113Y0010171D01*
X0210113Y0007829D01*
X0211009Y0005665D01*
X0212665Y0004009D01*
X0212688Y0004000D01*
X0102000Y0004000D01*
X0084000Y0022000D01*
X0084000Y0033218D01*
X0100850Y0016368D01*
X0102168Y0015050D01*
X0197495Y0015050D01*
X0197916Y0014630D01*
X0199073Y0014150D01*
X0200327Y0014150D01*
X0201484Y0014630D01*
X0202370Y0015516D01*
X0202850Y0016673D01*
X0202850Y0017927D01*
X0202370Y0019084D01*
X0201484Y0019970D01*
X0200327Y0020450D01*
X0199073Y0020450D01*
X0197916Y0019970D01*
X0197495Y0019550D01*
X0104032Y0019550D01*
X0087532Y0036050D01*
X0087827Y0036050D01*
X0088984Y0036530D01*
X0089870Y0037416D01*
X0090350Y0038573D01*
X0090350Y0039168D01*
X0106132Y0054950D01*
X0117468Y0054950D01*
X0108768Y0046250D01*
X0108173Y0046250D01*
X0107016Y0045770D01*
X0106130Y0044884D01*
X0105650Y0043727D01*
X0105650Y0042473D01*
X0106130Y0041316D01*
X0107016Y0040430D01*
X0108173Y0039950D01*
X0109427Y0039950D01*
X0110584Y0040430D01*
X0111470Y0041316D01*
X0111950Y0042473D01*
X0111950Y0043068D01*
X0121732Y0052850D01*
X0129095Y0052850D01*
X0129516Y0052430D01*
X0130673Y0051950D01*
X0131268Y0051950D01*
X0131568Y0051650D01*
X0141532Y0051650D01*
X0142850Y0052968D01*
X0174050Y0084168D01*
X0174050Y0113868D01*
X0197580Y0137398D01*
X0198110Y0136120D01*
X0199700Y0134530D01*
X0200207Y0134320D01*
X0199700Y0134110D01*
X0198110Y0132520D01*
X0197250Y0130444D01*
X0197250Y0128196D01*
X0198110Y0126120D01*
X0199700Y0124530D01*
X0201776Y0123670D01*
X0204024Y0123670D01*
X0206100Y0124530D01*
X0207690Y0126120D01*
X0208015Y0126904D01*
X0208239Y0126464D01*
X0208743Y0125770D01*
X0209350Y0125163D01*
X0210044Y0124659D01*
X0210808Y0124269D01*
X0211624Y0124004D01*
X0212471Y0123870D01*
X0212650Y0123870D01*
X0212650Y0129070D01*
X0213150Y0129070D01*
X0213150Y0123870D01*
X0213329Y0123870D01*
X0214176Y0124004D01*
X0214992Y0124269D01*
X0215756Y0124659D01*
X0216450Y0125163D01*
X0217057Y0125770D01*
X0217561Y0126464D01*
X0217951Y0127228D01*
X0218216Y0128044D01*
X0217498Y0126376D02*
X0225751Y0126376D01*
X0225751Y0124878D02*
X0216058Y0124878D01*
X0213150Y0124878D02*
X0212650Y0124878D01*
X0212650Y0126376D02*
X0213150Y0126376D01*
X0213150Y0127875D02*
X0212650Y0127875D01*
X0212650Y0129570D02*
X0212650Y0134770D01*
X0212650Y0139070D01*
X0213150Y0139070D01*
X0213150Y0129570D01*
X0212650Y0129570D01*
X0212650Y0130872D02*
X0213150Y0130872D01*
X0213150Y0132370D02*
X0212650Y0132370D01*
X0212650Y0133869D02*
X0213150Y0133869D01*
X0213150Y0135368D02*
X0212650Y0135368D01*
X0212650Y0136866D02*
X0213150Y0136866D01*
X0213150Y0138365D02*
X0212650Y0138365D01*
X0216655Y0135368D02*
X0225751Y0135368D01*
X0225751Y0136866D02*
X0217766Y0136866D01*
X0218267Y0138365D02*
X0225751Y0138365D01*
X0225751Y0139863D02*
X0218332Y0139863D01*
X0217967Y0141362D02*
X0225751Y0141362D01*
X0225751Y0142860D02*
X0217065Y0142860D01*
X0215686Y0144359D02*
X0225751Y0144359D01*
X0225751Y0145857D02*
X0217427Y0145857D01*
X0218202Y0147356D02*
X0225751Y0147356D01*
X0225751Y0148854D02*
X0218550Y0148854D01*
X0218550Y0150353D02*
X0225751Y0150353D01*
X0225751Y0151851D02*
X0217967Y0151851D01*
X0216861Y0153350D02*
X0225751Y0153350D01*
X0225751Y0154848D02*
X0216418Y0154848D01*
X0217784Y0156347D02*
X0225751Y0156347D01*
X0225751Y0157845D02*
X0218405Y0157845D01*
X0218550Y0159344D02*
X0225751Y0159344D01*
X0225751Y0160842D02*
X0218385Y0160842D01*
X0217764Y0162341D02*
X0225751Y0162341D01*
X0225751Y0163839D02*
X0216371Y0163839D01*
X0216908Y0165338D02*
X0225751Y0165338D01*
X0225751Y0166836D02*
X0217987Y0166836D01*
X0218550Y0168335D02*
X0225751Y0168335D01*
X0225751Y0169833D02*
X0218550Y0169833D01*
X0218182Y0171332D02*
X0225751Y0171332D01*
X0225751Y0172830D02*
X0217380Y0172830D01*
X0215572Y0174329D02*
X0225751Y0174329D01*
X0225751Y0175827D02*
X0206355Y0175827D01*
X0207853Y0174329D02*
X0210228Y0174329D01*
X0196945Y0175827D02*
X0178448Y0175827D01*
X0178448Y0174329D02*
X0195447Y0174329D01*
X0193948Y0172830D02*
X0178448Y0172830D01*
X0178448Y0171332D02*
X0192450Y0171332D01*
X0190951Y0169833D02*
X0178448Y0169833D01*
X0178448Y0168335D02*
X0189453Y0168335D01*
X0187954Y0166836D02*
X0178448Y0166836D01*
X0178194Y0165338D02*
X0186456Y0165338D01*
X0184957Y0163839D02*
X0176150Y0163839D01*
X0176150Y0162341D02*
X0183459Y0162341D01*
X0181960Y0160842D02*
X0176150Y0160842D01*
X0176150Y0159344D02*
X0180462Y0159344D01*
X0178963Y0157845D02*
X0176150Y0157845D01*
X0176029Y0156347D02*
X0177465Y0156347D01*
X0175966Y0154848D02*
X0174530Y0154848D01*
X0174468Y0153350D02*
X0173032Y0153350D01*
X0172969Y0151851D02*
X0171533Y0151851D01*
X0171471Y0150353D02*
X0170035Y0150353D01*
X0169972Y0148854D02*
X0168536Y0148854D01*
X0168474Y0147356D02*
X0167038Y0147356D01*
X0166975Y0145857D02*
X0165539Y0145857D01*
X0165477Y0144359D02*
X0164041Y0144359D01*
X0163978Y0142860D02*
X0162542Y0142860D01*
X0159175Y0145857D02*
X0137150Y0145857D01*
X0137150Y0144359D02*
X0157677Y0144359D01*
X0156350Y0142860D02*
X0137150Y0142860D01*
X0139848Y0141362D02*
X0153452Y0141362D01*
X0153452Y0139863D02*
X0139848Y0139863D01*
X0139848Y0138365D02*
X0153452Y0138365D01*
X0153452Y0136866D02*
X0139848Y0136866D01*
X0139848Y0135368D02*
X0153452Y0135368D01*
X0153452Y0133869D02*
X0139848Y0133869D01*
X0139385Y0132370D02*
X0153915Y0132370D01*
X0162050Y0130872D02*
X0133110Y0130872D01*
X0134608Y0129373D02*
X0162050Y0129373D01*
X0162050Y0127875D02*
X0136107Y0127875D01*
X0137606Y0126376D02*
X0162050Y0126376D01*
X0162050Y0124878D02*
X0139104Y0124878D01*
X0140603Y0123379D02*
X0162050Y0123379D01*
X0162050Y0121881D02*
X0142101Y0121881D01*
X0143600Y0120382D02*
X0162050Y0120382D01*
X0162050Y0118884D02*
X0145098Y0118884D01*
X0146597Y0117385D02*
X0162050Y0117385D01*
X0162050Y0115887D02*
X0148095Y0115887D01*
X0149594Y0114388D02*
X0162050Y0114388D01*
X0162050Y0112890D02*
X0151092Y0112890D01*
X0152591Y0111391D02*
X0162050Y0111391D01*
X0162050Y0109893D02*
X0154089Y0109893D01*
X0155588Y0108394D02*
X0162050Y0108394D01*
X0162050Y0106896D02*
X0157086Y0106896D01*
X0158585Y0105397D02*
X0162050Y0105397D01*
X0162050Y0103899D02*
X0160083Y0103899D01*
X0161582Y0102400D02*
X0162050Y0102400D01*
X0158215Y0099403D02*
X0153753Y0099403D01*
X0153950Y0098927D02*
X0153470Y0100084D01*
X0152584Y0100970D01*
X0151427Y0101450D01*
X0150173Y0101450D01*
X0149016Y0100970D01*
X0148130Y0100084D01*
X0147650Y0098927D01*
X0147650Y0097673D01*
X0148130Y0096516D01*
X0148550Y0096095D01*
X0148550Y0093050D01*
X0148073Y0093050D01*
X0146916Y0092570D01*
X0146495Y0092150D01*
X0136732Y0092150D01*
X0097191Y0131691D01*
X0103706Y0131691D01*
X0104848Y0132833D01*
X0104848Y0141547D01*
X0103706Y0142689D01*
X0102050Y0142689D01*
X0102050Y0164450D01*
X0105306Y0164450D01*
X0106448Y0165592D01*
X0106448Y0176007D01*
X0105306Y0177149D01*
X0098891Y0177149D01*
X0097749Y0176007D01*
X0097749Y0169631D01*
X0097550Y0169432D01*
X0097550Y0142689D01*
X0095791Y0142689D01*
X0094649Y0141547D01*
X0094649Y0134233D01*
X0093651Y0135231D01*
X0093651Y0141547D01*
X0092509Y0142689D01*
X0084594Y0142689D01*
X0083452Y0141547D01*
X0083452Y0132833D01*
X0084594Y0131691D01*
X0090827Y0131691D01*
X0107657Y0114861D01*
X0106716Y0114470D01*
X0105830Y0113584D01*
X0105350Y0112427D01*
X0105350Y0111173D01*
X0105830Y0110016D01*
X0106250Y0109595D01*
X0106250Y0105005D01*
X0105830Y0104584D01*
X0105350Y0103427D01*
X0105350Y0102832D01*
X0090350Y0087832D01*
X0090350Y0083932D01*
X0084000Y0090282D01*
X0084000Y0103000D01*
X0081000Y0106000D01*
X0071750Y0106000D01*
X0071750Y0137868D01*
X0081482Y0147600D01*
X0088550Y0147600D01*
X0089692Y0148742D01*
X0089692Y0157958D01*
X0088550Y0159100D01*
X0083418Y0159100D01*
X0086218Y0161900D01*
X0087437Y0161900D01*
X0088429Y0162311D01*
X0090568Y0164450D01*
X0096207Y0164450D01*
X0097350Y0165592D01*
X0097350Y0176007D01*
X0096207Y0177149D01*
X0095900Y0177149D01*
X0095900Y0188920D01*
X0100894Y0188920D01*
X0102037Y0190062D01*
X0102037Y0198500D01*
X0119963Y0198500D01*
X0119963Y0190062D01*
X0121106Y0188920D01*
X0126500Y0188920D01*
X0126500Y0177149D01*
X0125793Y0177149D01*
X0124650Y0176007D01*
X0124650Y0165592D01*
X0125793Y0164450D01*
X0132207Y0164450D01*
X0132650Y0164892D01*
X0132650Y0142689D01*
X0130791Y0142689D01*
X0129649Y0141547D01*
X0129649Y0134333D01*
X0128651Y0135331D01*
X0128651Y0141547D01*
X0127509Y0142689D01*
X0119594Y0142689D01*
X0118452Y0141547D01*
X0118452Y0132833D01*
X0119594Y0131691D01*
X0125927Y0131691D01*
X0159472Y0098146D01*
X0159050Y0097127D01*
X0159050Y0095873D01*
X0159530Y0094716D01*
X0160416Y0093830D01*
X0161573Y0093350D01*
X0162050Y0093350D01*
X0162050Y0081532D01*
X0153050Y0072532D01*
X0153050Y0072532D01*
X0153050Y0096095D01*
X0153470Y0096516D01*
X0153950Y0097673D01*
X0153950Y0098927D01*
X0153950Y0097905D02*
X0159372Y0097905D01*
X0159050Y0096406D02*
X0153361Y0096406D01*
X0153050Y0094908D02*
X0159450Y0094908D01*
X0161431Y0093409D02*
X0153050Y0093409D01*
X0153050Y0091911D02*
X0162050Y0091911D01*
X0162050Y0090412D02*
X0153050Y0090412D01*
X0153050Y0088914D02*
X0162050Y0088914D01*
X0162050Y0087415D02*
X0153050Y0087415D01*
X0153050Y0085917D02*
X0162050Y0085917D01*
X0162050Y0084418D02*
X0153050Y0084418D01*
X0153050Y0082920D02*
X0162050Y0082920D01*
X0161939Y0081421D02*
X0153050Y0081421D01*
X0153050Y0079923D02*
X0160441Y0079923D01*
X0158942Y0078424D02*
X0153050Y0078424D01*
X0153050Y0076926D02*
X0157444Y0076926D01*
X0155945Y0075427D02*
X0153050Y0075427D01*
X0153050Y0073929D02*
X0154447Y0073929D01*
X0159315Y0069433D02*
X0225751Y0069433D01*
X0225751Y0067934D02*
X0157816Y0067934D01*
X0156318Y0066436D02*
X0225751Y0066436D01*
X0225751Y0064937D02*
X0154819Y0064937D01*
X0154700Y0063200D02*
X0143000Y0051500D01*
X0143000Y0042500D01*
X0142700Y0041900D01*
X0137900Y0041900D01*
X0142831Y0052949D02*
X0148796Y0052949D01*
X0149016Y0052730D02*
X0150173Y0052250D01*
X0151427Y0052250D01*
X0152584Y0052730D01*
X0153005Y0053150D01*
X0171095Y0053150D01*
X0171516Y0052730D01*
X0172673Y0052250D01*
X0173268Y0052250D01*
X0196368Y0029150D01*
X0199895Y0029150D01*
X0200316Y0028730D01*
X0201473Y0028250D01*
X0202727Y0028250D01*
X0203884Y0028730D01*
X0204770Y0029616D01*
X0205250Y0030773D01*
X0205250Y0032027D01*
X0204770Y0033184D01*
X0203884Y0034070D01*
X0202727Y0034550D01*
X0201473Y0034550D01*
X0200316Y0034070D01*
X0199895Y0033650D01*
X0198232Y0033650D01*
X0176450Y0055432D01*
X0176450Y0056027D01*
X0175970Y0057184D01*
X0175084Y0058070D01*
X0173927Y0058550D01*
X0172673Y0058550D01*
X0171516Y0058070D01*
X0171095Y0057650D01*
X0153005Y0057650D01*
X0152584Y0058070D01*
X0151427Y0058550D01*
X0150173Y0058550D01*
X0149016Y0058070D01*
X0148130Y0057184D01*
X0147650Y0056027D01*
X0147650Y0054773D01*
X0148130Y0053616D01*
X0149016Y0052730D01*
X0147785Y0054448D02*
X0144330Y0054448D01*
X0145828Y0055946D02*
X0147650Y0055946D01*
X0147327Y0057445D02*
X0148390Y0057445D01*
X0148825Y0058943D02*
X0225751Y0058943D01*
X0225751Y0057445D02*
X0175710Y0057445D01*
X0176450Y0055946D02*
X0225751Y0055946D01*
X0225751Y0054448D02*
X0177434Y0054448D01*
X0178933Y0052949D02*
X0225751Y0052949D01*
X0225751Y0051451D02*
X0180431Y0051451D01*
X0181930Y0049952D02*
X0225751Y0049952D01*
X0225751Y0048454D02*
X0183428Y0048454D01*
X0184927Y0046955D02*
X0225751Y0046955D01*
X0225751Y0045457D02*
X0186425Y0045457D01*
X0187924Y0043958D02*
X0225751Y0043958D01*
X0225751Y0042460D02*
X0189422Y0042460D01*
X0190921Y0040961D02*
X0225751Y0040961D01*
X0225751Y0039463D02*
X0192419Y0039463D01*
X0193918Y0037964D02*
X0225751Y0037964D01*
X0225751Y0036466D02*
X0195416Y0036466D01*
X0196915Y0034967D02*
X0225751Y0034967D01*
X0225751Y0033469D02*
X0204486Y0033469D01*
X0205250Y0031970D02*
X0225751Y0031970D01*
X0225751Y0030472D02*
X0205125Y0030472D01*
X0204128Y0028973D02*
X0225751Y0028973D01*
X0225751Y0027475D02*
X0096107Y0027475D01*
X0094609Y0028973D02*
X0200072Y0028973D01*
X0195046Y0030472D02*
X0093110Y0030472D01*
X0091612Y0031970D02*
X0193548Y0031970D01*
X0192049Y0033469D02*
X0090113Y0033469D01*
X0088615Y0034967D02*
X0190551Y0034967D01*
X0189052Y0036466D02*
X0088830Y0036466D01*
X0090098Y0037964D02*
X0187554Y0037964D01*
X0186055Y0039463D02*
X0090645Y0039463D01*
X0092143Y0040961D02*
X0106484Y0040961D01*
X0105656Y0042460D02*
X0093642Y0042460D01*
X0095140Y0043958D02*
X0105746Y0043958D01*
X0106702Y0045457D02*
X0096639Y0045457D01*
X0098137Y0046955D02*
X0109473Y0046955D01*
X0110972Y0048454D02*
X0099636Y0048454D01*
X0101134Y0049952D02*
X0112470Y0049952D01*
X0113969Y0051451D02*
X0102633Y0051451D01*
X0104131Y0052949D02*
X0115467Y0052949D01*
X0116966Y0054448D02*
X0105630Y0054448D01*
X0114339Y0045457D02*
X0180061Y0045457D01*
X0178563Y0046955D02*
X0115837Y0046955D01*
X0117336Y0048454D02*
X0177064Y0048454D01*
X0175566Y0049952D02*
X0118834Y0049952D01*
X0120333Y0051451D02*
X0174067Y0051451D01*
X0171296Y0052949D02*
X0152804Y0052949D01*
X0150324Y0060442D02*
X0225751Y0060442D01*
X0225751Y0061940D02*
X0151822Y0061940D01*
X0153321Y0063439D02*
X0225751Y0063439D01*
X0225751Y0070932D02*
X0160813Y0070932D01*
X0162312Y0072430D02*
X0225751Y0072430D01*
X0225751Y0073929D02*
X0163811Y0073929D01*
X0165309Y0075427D02*
X0225751Y0075427D01*
X0225751Y0076926D02*
X0166808Y0076926D01*
X0168306Y0078424D02*
X0225751Y0078424D01*
X0225751Y0079923D02*
X0169805Y0079923D01*
X0171303Y0081421D02*
X0225751Y0081421D01*
X0225751Y0082920D02*
X0172802Y0082920D01*
X0174050Y0084418D02*
X0225751Y0084418D01*
X0225751Y0085917D02*
X0174050Y0085917D01*
X0174050Y0087415D02*
X0225751Y0087415D01*
X0225751Y0088914D02*
X0174050Y0088914D01*
X0174050Y0090412D02*
X0225751Y0090412D01*
X0225751Y0091911D02*
X0174050Y0091911D01*
X0174050Y0093409D02*
X0225751Y0093409D01*
X0225751Y0094908D02*
X0174050Y0094908D01*
X0174050Y0096406D02*
X0225751Y0096406D01*
X0225751Y0097905D02*
X0174050Y0097905D01*
X0174050Y0099403D02*
X0225751Y0099403D01*
X0225751Y0100902D02*
X0174050Y0100902D01*
X0174050Y0102400D02*
X0225751Y0102400D01*
X0225751Y0103899D02*
X0174050Y0103899D01*
X0174050Y0105397D02*
X0225751Y0105397D01*
X0225751Y0106896D02*
X0174050Y0106896D01*
X0174050Y0108394D02*
X0225751Y0108394D01*
X0225751Y0109893D02*
X0174050Y0109893D01*
X0174050Y0111391D02*
X0225751Y0111391D01*
X0225751Y0112890D02*
X0174050Y0112890D01*
X0174570Y0114388D02*
X0225751Y0114388D01*
X0225751Y0115887D02*
X0176069Y0115887D01*
X0177567Y0117385D02*
X0225751Y0117385D01*
X0225751Y0118884D02*
X0179066Y0118884D01*
X0180564Y0120382D02*
X0225751Y0120382D01*
X0225751Y0121881D02*
X0182063Y0121881D01*
X0183561Y0123379D02*
X0225751Y0123379D01*
X0225751Y0130872D02*
X0218126Y0130872D01*
X0217420Y0132370D02*
X0225751Y0132370D01*
X0225751Y0133869D02*
X0215911Y0133869D01*
X0208302Y0126376D02*
X0207796Y0126376D01*
X0206448Y0124878D02*
X0209742Y0124878D01*
X0199352Y0124878D02*
X0185060Y0124878D01*
X0186558Y0126376D02*
X0198004Y0126376D01*
X0197383Y0127875D02*
X0188057Y0127875D01*
X0189555Y0129373D02*
X0197250Y0129373D01*
X0197427Y0130872D02*
X0191054Y0130872D01*
X0192552Y0132370D02*
X0198048Y0132370D01*
X0199459Y0133869D02*
X0194051Y0133869D01*
X0195549Y0135368D02*
X0198862Y0135368D01*
X0197801Y0136866D02*
X0197048Y0136866D01*
X0171163Y0157845D02*
X0166036Y0157845D01*
X0167534Y0156347D02*
X0169665Y0156347D01*
X0171650Y0159344D02*
X0137150Y0159344D01*
X0137150Y0160842D02*
X0171650Y0160842D01*
X0171650Y0162341D02*
X0137150Y0162341D01*
X0137150Y0163839D02*
X0171650Y0163839D01*
X0170003Y0165338D02*
X0169095Y0165338D01*
X0169350Y0166836D02*
X0169749Y0166836D01*
X0169749Y0168335D02*
X0169350Y0168335D01*
X0169350Y0169833D02*
X0169749Y0169833D01*
X0169749Y0171332D02*
X0169350Y0171332D01*
X0169350Y0172830D02*
X0169749Y0172830D01*
X0169749Y0174329D02*
X0169350Y0174329D01*
X0169350Y0175827D02*
X0169749Y0175827D01*
X0167900Y0177326D02*
X0225751Y0177326D01*
X0225751Y0178824D02*
X0167900Y0178824D01*
X0167900Y0180323D02*
X0225751Y0180323D01*
X0225751Y0181821D02*
X0167900Y0181821D01*
X0167900Y0183320D02*
X0225751Y0183320D01*
X0225751Y0184818D02*
X0167900Y0184818D01*
X0167900Y0186317D02*
X0225751Y0186317D01*
X0225751Y0187815D02*
X0167900Y0187815D01*
X0162500Y0187815D02*
X0131900Y0187815D01*
X0131900Y0186317D02*
X0162500Y0186317D01*
X0162500Y0184818D02*
X0131900Y0184818D01*
X0131900Y0183320D02*
X0162500Y0183320D01*
X0162500Y0181821D02*
X0131900Y0181821D01*
X0131900Y0180323D02*
X0162500Y0180323D01*
X0162500Y0178824D02*
X0131900Y0178824D01*
X0131900Y0177326D02*
X0162500Y0177326D01*
X0160650Y0175827D02*
X0159945Y0175827D01*
X0159932Y0175874D02*
X0159702Y0176273D01*
X0159376Y0176599D01*
X0158977Y0176830D01*
X0158532Y0176949D01*
X0156351Y0176949D01*
X0156351Y0171249D01*
X0155452Y0171249D01*
X0155452Y0176949D01*
X0153272Y0176949D01*
X0152826Y0176830D01*
X0152427Y0176599D01*
X0152102Y0176273D01*
X0151871Y0175874D01*
X0151752Y0175429D01*
X0151752Y0171249D01*
X0155452Y0171249D01*
X0155452Y0170349D01*
X0156351Y0170349D01*
X0156351Y0164650D01*
X0158532Y0164650D01*
X0158977Y0164769D01*
X0159376Y0164999D01*
X0159702Y0165325D01*
X0159932Y0165724D01*
X0160051Y0166169D01*
X0160051Y0170349D01*
X0156351Y0170349D01*
X0156351Y0171249D01*
X0160051Y0171249D01*
X0160051Y0175429D01*
X0159932Y0175874D01*
X0160051Y0174329D02*
X0160650Y0174329D01*
X0160650Y0172830D02*
X0160051Y0172830D01*
X0160051Y0171332D02*
X0160650Y0171332D01*
X0160650Y0169833D02*
X0160051Y0169833D01*
X0160051Y0168335D02*
X0160650Y0168335D01*
X0160650Y0166836D02*
X0160051Y0166836D01*
X0159709Y0165338D02*
X0160905Y0165338D01*
X0162500Y0164000D02*
X0156200Y0170300D01*
X0155902Y0170799D01*
X0155900Y0170900D01*
X0149900Y0176900D01*
X0135200Y0176900D01*
X0134000Y0175700D01*
X0134000Y0166700D01*
X0131900Y0164600D01*
X0126200Y0164600D01*
X0120200Y0170600D01*
X0119902Y0170799D01*
X0120351Y0170349D02*
X0120351Y0164650D01*
X0122532Y0164650D01*
X0122977Y0164769D01*
X0123376Y0164999D01*
X0123702Y0165325D01*
X0123932Y0165724D01*
X0124051Y0166169D01*
X0124051Y0170349D01*
X0120351Y0170349D01*
X0119452Y0170349D01*
X0119452Y0164650D01*
X0117272Y0164650D01*
X0116826Y0164769D01*
X0116427Y0164999D01*
X0116102Y0165325D01*
X0115871Y0165724D01*
X0115752Y0166169D01*
X0115752Y0170349D01*
X0119452Y0170349D01*
X0119452Y0171249D01*
X0119452Y0176949D01*
X0117272Y0176949D01*
X0116826Y0176830D01*
X0116427Y0176599D01*
X0116102Y0176273D01*
X0115871Y0175874D01*
X0115752Y0175429D01*
X0115752Y0171249D01*
X0119452Y0171249D01*
X0120351Y0171249D01*
X0120351Y0176949D01*
X0122532Y0176949D01*
X0122977Y0176830D01*
X0123376Y0176599D01*
X0123702Y0176273D01*
X0123932Y0175874D01*
X0124051Y0175429D01*
X0124051Y0171249D01*
X0120351Y0171249D01*
X0120351Y0170349D01*
X0120351Y0169833D02*
X0119452Y0169833D01*
X0119452Y0168335D02*
X0120351Y0168335D01*
X0120351Y0166836D02*
X0119452Y0166836D01*
X0119452Y0165338D02*
X0120351Y0165338D01*
X0123709Y0165338D02*
X0124905Y0165338D01*
X0124650Y0166836D02*
X0124051Y0166836D01*
X0124051Y0168335D02*
X0124650Y0168335D01*
X0124650Y0169833D02*
X0124051Y0169833D01*
X0124051Y0171332D02*
X0124650Y0171332D01*
X0124650Y0172830D02*
X0124051Y0172830D01*
X0124051Y0174329D02*
X0124650Y0174329D01*
X0124650Y0175827D02*
X0123945Y0175827D01*
X0126500Y0177326D02*
X0095900Y0177326D01*
X0095900Y0178824D02*
X0126500Y0178824D01*
X0126500Y0180323D02*
X0095900Y0180323D01*
X0095900Y0181821D02*
X0126500Y0181821D01*
X0126500Y0183320D02*
X0095900Y0183320D01*
X0095900Y0184818D02*
X0126500Y0184818D01*
X0126500Y0186317D02*
X0095900Y0186317D01*
X0095900Y0187815D02*
X0126500Y0187815D01*
X0120712Y0189314D02*
X0101288Y0189314D01*
X0102037Y0190812D02*
X0119963Y0190812D01*
X0119963Y0192311D02*
X0102037Y0192311D01*
X0102037Y0193809D02*
X0119963Y0193809D01*
X0119963Y0195308D02*
X0102037Y0195308D01*
X0102037Y0196806D02*
X0119963Y0196806D01*
X0119963Y0198305D02*
X0102037Y0198305D01*
X0093200Y0195200D02*
X0093000Y0195201D01*
X0093200Y0195200D02*
X0093200Y0170900D01*
X0093000Y0170799D01*
X0092600Y0170300D01*
X0086900Y0164600D01*
X0085100Y0164600D01*
X0065600Y0145100D01*
X0031100Y0145100D01*
X0031000Y0145000D01*
X0034985Y0149950D02*
X0036804Y0149196D01*
X0038196Y0147804D01*
X0038198Y0147800D01*
X0064482Y0147800D01*
X0081331Y0164650D01*
X0081272Y0164650D01*
X0080826Y0164769D01*
X0080427Y0164999D01*
X0080102Y0165325D01*
X0079871Y0165724D01*
X0079752Y0166169D01*
X0079752Y0170349D01*
X0083452Y0170349D01*
X0083452Y0171249D01*
X0083452Y0176949D01*
X0081272Y0176949D01*
X0080826Y0176830D01*
X0080427Y0176599D01*
X0080102Y0176273D01*
X0079871Y0175874D01*
X0079752Y0175429D01*
X0079752Y0171249D01*
X0083452Y0171249D01*
X0084351Y0171249D01*
X0084351Y0176949D01*
X0086532Y0176949D01*
X0086977Y0176830D01*
X0087376Y0176599D01*
X0087702Y0176273D01*
X0087932Y0175874D01*
X0088051Y0175429D01*
X0088051Y0171249D01*
X0084351Y0171249D01*
X0084351Y0170349D01*
X0088051Y0170349D01*
X0088051Y0169570D01*
X0088650Y0170169D01*
X0088650Y0176007D01*
X0089793Y0177149D01*
X0090500Y0177149D01*
X0090500Y0188920D01*
X0085106Y0188920D01*
X0083963Y0190062D01*
X0083963Y0196245D01*
X0076729Y0189011D01*
X0075737Y0188600D01*
X0069863Y0188600D01*
X0069139Y0188900D01*
X0064001Y0188900D01*
X0064726Y0187151D01*
X0064726Y0184849D01*
X0063844Y0182721D01*
X0062216Y0181093D01*
X0060088Y0180211D01*
X0057786Y0180211D01*
X0055658Y0181093D01*
X0054030Y0182721D01*
X0053148Y0184849D01*
X0053148Y0187151D01*
X0053873Y0188900D01*
X0040897Y0188900D01*
X0041281Y0188145D01*
X0041553Y0187309D01*
X0041677Y0186530D01*
X0036632Y0186530D01*
X0036632Y0185470D01*
X0036632Y0180426D01*
X0037411Y0180549D01*
X0038248Y0180821D01*
X0039031Y0181220D01*
X0039743Y0181737D01*
X0040365Y0182359D01*
X0040882Y0183071D01*
X0041281Y0183855D01*
X0041553Y0184691D01*
X0041677Y0185470D01*
X0036632Y0185470D01*
X0035573Y0185470D01*
X0035573Y0180426D01*
X0034794Y0180549D01*
X0033957Y0180821D01*
X0033173Y0181220D01*
X0032462Y0181737D01*
X0031840Y0182359D01*
X0031323Y0183071D01*
X0030923Y0183855D01*
X0030666Y0184647D01*
X0026000Y0179982D01*
X0026000Y0159529D01*
X0027015Y0159950D01*
X0034985Y0159950D01*
X0036804Y0159196D01*
X0038196Y0157804D01*
X0038950Y0155985D01*
X0038950Y0154015D01*
X0038196Y0152196D01*
X0036804Y0150804D01*
X0034985Y0150050D01*
X0027015Y0150050D01*
X0026000Y0150471D01*
X0026000Y0149529D01*
X0027015Y0149950D01*
X0034985Y0149950D01*
X0035715Y0150353D02*
X0067034Y0150353D01*
X0068533Y0151851D02*
X0037851Y0151851D01*
X0038674Y0153350D02*
X0070031Y0153350D01*
X0071530Y0154848D02*
X0038950Y0154848D01*
X0038800Y0156347D02*
X0073028Y0156347D01*
X0074527Y0157845D02*
X0038155Y0157845D01*
X0036448Y0159344D02*
X0076025Y0159344D01*
X0077524Y0160842D02*
X0026000Y0160842D01*
X0026000Y0162341D02*
X0043701Y0162341D01*
X0043847Y0162195D02*
X0042219Y0163823D01*
X0041337Y0165951D01*
X0041337Y0168254D01*
X0042219Y0170381D01*
X0043847Y0172010D01*
X0045975Y0172891D01*
X0048277Y0172891D01*
X0050405Y0172010D01*
X0052033Y0170381D01*
X0052915Y0168254D01*
X0052915Y0165951D01*
X0052033Y0163823D01*
X0050405Y0162195D01*
X0048277Y0161314D01*
X0045975Y0161314D01*
X0043847Y0162195D01*
X0042212Y0163839D02*
X0026000Y0163839D01*
X0026000Y0165338D02*
X0041591Y0165338D01*
X0041337Y0166836D02*
X0026000Y0166836D01*
X0026000Y0168335D02*
X0041371Y0168335D01*
X0041992Y0169833D02*
X0026000Y0169833D01*
X0026000Y0171332D02*
X0043169Y0171332D01*
X0045828Y0172830D02*
X0026000Y0172830D01*
X0026000Y0174329D02*
X0079752Y0174329D01*
X0079752Y0172830D02*
X0048424Y0172830D01*
X0051083Y0171332D02*
X0079752Y0171332D01*
X0079752Y0169833D02*
X0052260Y0169833D01*
X0051200Y0170900D02*
X0036200Y0185900D01*
X0036102Y0186000D01*
X0036632Y0186317D02*
X0053148Y0186317D01*
X0053161Y0184818D02*
X0041573Y0184818D01*
X0041009Y0183320D02*
X0053782Y0183320D01*
X0054929Y0181821D02*
X0039827Y0181821D01*
X0036632Y0181821D02*
X0035573Y0181821D01*
X0035573Y0183320D02*
X0036632Y0183320D01*
X0036632Y0184818D02*
X0035573Y0184818D01*
X0032378Y0181821D02*
X0027840Y0181821D01*
X0026341Y0180323D02*
X0057517Y0180323D01*
X0060357Y0180323D02*
X0090500Y0180323D01*
X0090500Y0181821D02*
X0062945Y0181821D01*
X0064092Y0183320D02*
X0090500Y0183320D01*
X0090500Y0184818D02*
X0064713Y0184818D01*
X0064726Y0186317D02*
X0090500Y0186317D01*
X0090500Y0187815D02*
X0064451Y0187815D01*
X0070100Y0191600D02*
X0070400Y0191300D01*
X0075200Y0191300D01*
X0085100Y0201200D01*
X0122600Y0201200D01*
X0128300Y0195500D01*
X0129000Y0195201D01*
X0129200Y0195200D01*
X0129200Y0170900D01*
X0129000Y0170799D01*
X0133350Y0171332D02*
X0133749Y0171332D01*
X0133749Y0172830D02*
X0133350Y0172830D01*
X0133350Y0174329D02*
X0133749Y0174329D01*
X0133749Y0175827D02*
X0133350Y0175827D01*
X0133350Y0169833D02*
X0133749Y0169833D01*
X0133749Y0168335D02*
X0133350Y0168335D01*
X0133350Y0166836D02*
X0133654Y0166836D01*
X0132650Y0163839D02*
X0102050Y0163839D01*
X0102050Y0162341D02*
X0132650Y0162341D01*
X0132650Y0160842D02*
X0102050Y0160842D01*
X0102050Y0159344D02*
X0132650Y0159344D01*
X0132650Y0157845D02*
X0102050Y0157845D01*
X0102050Y0156347D02*
X0132650Y0156347D01*
X0132650Y0154848D02*
X0102050Y0154848D01*
X0102050Y0153350D02*
X0132650Y0153350D01*
X0132650Y0151851D02*
X0102050Y0151851D01*
X0102050Y0150353D02*
X0132650Y0150353D01*
X0132650Y0148854D02*
X0102050Y0148854D01*
X0102050Y0147356D02*
X0132650Y0147356D01*
X0132650Y0145857D02*
X0102050Y0145857D01*
X0102050Y0144359D02*
X0132650Y0144359D01*
X0132650Y0142860D02*
X0102050Y0142860D01*
X0104848Y0141362D02*
X0118452Y0141362D01*
X0118452Y0139863D02*
X0104848Y0139863D01*
X0104848Y0138365D02*
X0118452Y0138365D01*
X0118452Y0136866D02*
X0104848Y0136866D01*
X0104848Y0135368D02*
X0118452Y0135368D01*
X0118452Y0133869D02*
X0104848Y0133869D01*
X0104385Y0132370D02*
X0118915Y0132370D01*
X0126746Y0130872D02*
X0098010Y0130872D01*
X0099509Y0129373D02*
X0128245Y0129373D01*
X0129743Y0127875D02*
X0101007Y0127875D01*
X0102506Y0126376D02*
X0131242Y0126376D01*
X0132740Y0124878D02*
X0104004Y0124878D01*
X0105503Y0123379D02*
X0134239Y0123379D01*
X0135737Y0121881D02*
X0107001Y0121881D01*
X0108500Y0120382D02*
X0137236Y0120382D01*
X0138734Y0118884D02*
X0109998Y0118884D01*
X0111497Y0117385D02*
X0140233Y0117385D01*
X0141731Y0115887D02*
X0112995Y0115887D01*
X0114494Y0114388D02*
X0143230Y0114388D01*
X0144728Y0112890D02*
X0115992Y0112890D01*
X0117491Y0111391D02*
X0146227Y0111391D01*
X0147725Y0109893D02*
X0118989Y0109893D01*
X0120488Y0108394D02*
X0149224Y0108394D01*
X0150722Y0106896D02*
X0121986Y0106896D01*
X0123485Y0105397D02*
X0152221Y0105397D01*
X0153719Y0103899D02*
X0124983Y0103899D01*
X0126482Y0102400D02*
X0155218Y0102400D01*
X0156716Y0100902D02*
X0152653Y0100902D01*
X0148947Y0100902D02*
X0127980Y0100902D01*
X0129479Y0099403D02*
X0147847Y0099403D01*
X0147650Y0097905D02*
X0130977Y0097905D01*
X0132476Y0096406D02*
X0148239Y0096406D01*
X0148550Y0094908D02*
X0133974Y0094908D01*
X0135473Y0093409D02*
X0148550Y0093409D01*
X0147562Y0086962D02*
X0147170Y0086016D01*
X0146284Y0085130D01*
X0145127Y0084650D01*
X0143873Y0084650D01*
X0142716Y0085130D01*
X0142295Y0085550D01*
X0135168Y0085550D01*
X0133850Y0086868D01*
X0120468Y0100250D01*
X0110405Y0100250D01*
X0110284Y0100130D01*
X0109127Y0099650D01*
X0108532Y0099650D01*
X0094850Y0085968D01*
X0094850Y0083705D01*
X0095270Y0083284D01*
X0095750Y0082127D01*
X0095750Y0080873D01*
X0095270Y0079716D01*
X0094918Y0079364D01*
X0105232Y0069050D01*
X0123095Y0069050D01*
X0123516Y0069470D01*
X0124673Y0069950D01*
X0125927Y0069950D01*
X0127084Y0069470D01*
X0127505Y0069050D01*
X0139295Y0069050D01*
X0139716Y0069470D01*
X0140873Y0069950D01*
X0142127Y0069950D01*
X0143284Y0069470D01*
X0144170Y0068584D01*
X0144297Y0068279D01*
X0148550Y0072532D01*
X0148550Y0086750D01*
X0148073Y0086750D01*
X0147562Y0086962D01*
X0147071Y0085917D02*
X0148550Y0085917D01*
X0148550Y0084418D02*
X0094850Y0084418D01*
X0094850Y0085917D02*
X0134801Y0085917D01*
X0133303Y0087415D02*
X0096297Y0087415D01*
X0097796Y0088914D02*
X0131804Y0088914D01*
X0130306Y0090412D02*
X0099294Y0090412D01*
X0100793Y0091911D02*
X0128807Y0091911D01*
X0127309Y0093409D02*
X0102291Y0093409D01*
X0103790Y0094908D02*
X0125810Y0094908D01*
X0124400Y0093800D02*
X0109700Y0079100D01*
X0101852Y0072430D02*
X0148448Y0072430D01*
X0148550Y0073929D02*
X0100353Y0073929D01*
X0098855Y0075427D02*
X0148550Y0075427D01*
X0148550Y0076926D02*
X0097356Y0076926D01*
X0095858Y0078424D02*
X0148550Y0078424D01*
X0148550Y0079923D02*
X0095356Y0079923D01*
X0095750Y0081421D02*
X0148550Y0081421D01*
X0148550Y0082920D02*
X0095422Y0082920D01*
X0090350Y0084418D02*
X0089864Y0084418D01*
X0090350Y0085917D02*
X0088365Y0085917D01*
X0086867Y0087415D02*
X0090350Y0087415D01*
X0091432Y0088914D02*
X0085368Y0088914D01*
X0084000Y0090412D02*
X0092930Y0090412D01*
X0094429Y0091911D02*
X0084000Y0091911D01*
X0084000Y0093409D02*
X0095927Y0093409D01*
X0097426Y0094908D02*
X0084000Y0094908D01*
X0084000Y0096406D02*
X0098924Y0096406D01*
X0100423Y0097905D02*
X0084000Y0097905D01*
X0084000Y0099403D02*
X0101921Y0099403D01*
X0103420Y0100902D02*
X0084000Y0100902D01*
X0084000Y0102400D02*
X0104918Y0102400D01*
X0105546Y0103899D02*
X0083101Y0103899D01*
X0081603Y0105397D02*
X0106250Y0105397D01*
X0106250Y0106896D02*
X0071750Y0106896D01*
X0071750Y0108394D02*
X0106250Y0108394D01*
X0105952Y0109893D02*
X0071750Y0109893D01*
X0071750Y0111391D02*
X0105350Y0111391D01*
X0105542Y0112890D02*
X0071750Y0112890D01*
X0071750Y0114388D02*
X0106634Y0114388D01*
X0106631Y0115887D02*
X0071750Y0115887D01*
X0071750Y0117385D02*
X0105133Y0117385D01*
X0103634Y0118884D02*
X0071750Y0118884D01*
X0071750Y0120382D02*
X0102136Y0120382D01*
X0100637Y0121881D02*
X0071750Y0121881D01*
X0071750Y0123379D02*
X0099139Y0123379D01*
X0097640Y0124878D02*
X0071750Y0124878D01*
X0071750Y0126376D02*
X0096142Y0126376D01*
X0094643Y0127875D02*
X0071750Y0127875D01*
X0071750Y0129373D02*
X0093145Y0129373D01*
X0091646Y0130872D02*
X0071750Y0130872D01*
X0071750Y0132370D02*
X0083915Y0132370D01*
X0083452Y0133869D02*
X0071750Y0133869D01*
X0071750Y0135368D02*
X0083452Y0135368D01*
X0083452Y0136866D02*
X0071750Y0136866D01*
X0072246Y0138365D02*
X0083452Y0138365D01*
X0083452Y0139863D02*
X0073745Y0139863D01*
X0075244Y0141362D02*
X0083452Y0141362D01*
X0079739Y0145857D02*
X0097550Y0145857D01*
X0097550Y0144359D02*
X0078241Y0144359D01*
X0076742Y0142860D02*
X0097550Y0142860D01*
X0094649Y0141362D02*
X0093651Y0141362D01*
X0093651Y0139863D02*
X0094649Y0139863D01*
X0094649Y0138365D02*
X0093651Y0138365D01*
X0093651Y0136866D02*
X0094649Y0136866D01*
X0094649Y0135368D02*
X0093651Y0135368D01*
X0097550Y0147356D02*
X0081238Y0147356D01*
X0089692Y0148854D02*
X0097550Y0148854D01*
X0097550Y0150353D02*
X0089692Y0150353D01*
X0089692Y0151851D02*
X0097550Y0151851D01*
X0097550Y0153350D02*
X0089692Y0153350D01*
X0089692Y0154848D02*
X0097550Y0154848D01*
X0097550Y0156347D02*
X0089692Y0156347D01*
X0089692Y0157845D02*
X0097550Y0157845D01*
X0097550Y0159344D02*
X0083662Y0159344D01*
X0085161Y0160842D02*
X0097550Y0160842D01*
X0097550Y0162341D02*
X0088459Y0162341D01*
X0089958Y0163839D02*
X0097550Y0163839D01*
X0097550Y0165338D02*
X0097095Y0165338D01*
X0097350Y0166836D02*
X0097550Y0166836D01*
X0097550Y0168335D02*
X0097350Y0168335D01*
X0097350Y0169833D02*
X0097749Y0169833D01*
X0097749Y0171332D02*
X0097350Y0171332D01*
X0097350Y0172830D02*
X0097749Y0172830D01*
X0097749Y0174329D02*
X0097350Y0174329D01*
X0097350Y0175827D02*
X0097749Y0175827D01*
X0090500Y0177326D02*
X0026000Y0177326D01*
X0026000Y0178824D02*
X0090500Y0178824D01*
X0088650Y0175827D02*
X0087945Y0175827D01*
X0088051Y0174329D02*
X0088650Y0174329D01*
X0088650Y0172830D02*
X0088051Y0172830D01*
X0088051Y0171332D02*
X0088650Y0171332D01*
X0088315Y0169833D02*
X0088051Y0169833D01*
X0084351Y0171332D02*
X0083452Y0171332D01*
X0083900Y0170900D02*
X0083902Y0170799D01*
X0083900Y0170900D02*
X0051200Y0170900D01*
X0052881Y0168335D02*
X0079752Y0168335D01*
X0079752Y0166836D02*
X0052915Y0166836D01*
X0052661Y0165338D02*
X0080094Y0165338D01*
X0080521Y0163839D02*
X0052040Y0163839D01*
X0050551Y0162341D02*
X0079022Y0162341D01*
X0083452Y0172830D02*
X0084351Y0172830D01*
X0084351Y0174329D02*
X0083452Y0174329D01*
X0083452Y0175827D02*
X0084351Y0175827D01*
X0079859Y0175827D02*
X0026000Y0175827D01*
X0023300Y0181100D02*
X0033800Y0191600D01*
X0070100Y0191600D01*
X0077032Y0189314D02*
X0084712Y0189314D01*
X0083963Y0190812D02*
X0078531Y0190812D01*
X0080029Y0192311D02*
X0083963Y0192311D01*
X0083963Y0193809D02*
X0081528Y0193809D01*
X0083026Y0195308D02*
X0083963Y0195308D01*
X0106448Y0175827D02*
X0115859Y0175827D01*
X0115752Y0174329D02*
X0106448Y0174329D01*
X0106448Y0172830D02*
X0115752Y0172830D01*
X0115752Y0171332D02*
X0106448Y0171332D01*
X0106448Y0169833D02*
X0115752Y0169833D01*
X0115752Y0168335D02*
X0106448Y0168335D01*
X0106448Y0166836D02*
X0115752Y0166836D01*
X0116094Y0165338D02*
X0106194Y0165338D01*
X0119452Y0171332D02*
X0120351Y0171332D01*
X0120351Y0172830D02*
X0119452Y0172830D01*
X0119452Y0174329D02*
X0120351Y0174329D01*
X0120351Y0175827D02*
X0119452Y0175827D01*
X0137288Y0189314D02*
X0156712Y0189314D01*
X0155963Y0190812D02*
X0138037Y0190812D01*
X0138037Y0192311D02*
X0155963Y0192311D01*
X0155963Y0193809D02*
X0138037Y0193809D01*
X0138037Y0195308D02*
X0155963Y0195308D01*
X0155963Y0196806D02*
X0138037Y0196806D01*
X0138037Y0198305D02*
X0155963Y0198305D01*
X0155963Y0199803D02*
X0138037Y0199803D01*
X0156200Y0203600D02*
X0164300Y0195500D01*
X0165000Y0195201D01*
X0165200Y0195200D01*
X0165200Y0170900D01*
X0165000Y0170799D01*
X0162500Y0164000D02*
X0162500Y0153500D01*
X0162682Y0153350D01*
X0162546Y0153350D02*
X0137150Y0153350D01*
X0137150Y0154848D02*
X0157132Y0154848D01*
X0157132Y0155649D02*
X0157132Y0153486D01*
X0162546Y0153486D01*
X0162546Y0158900D01*
X0160383Y0158900D01*
X0157132Y0155649D01*
X0157830Y0156347D02*
X0137150Y0156347D01*
X0137150Y0157845D02*
X0159328Y0157845D01*
X0162546Y0157845D02*
X0162818Y0157845D01*
X0162818Y0156347D02*
X0162546Y0156347D01*
X0162546Y0154848D02*
X0162818Y0154848D01*
X0157132Y0151851D02*
X0137150Y0151851D01*
X0137150Y0150353D02*
X0157831Y0150353D01*
X0159329Y0148854D02*
X0137150Y0148854D01*
X0137150Y0147356D02*
X0160674Y0147356D01*
X0155452Y0164650D02*
X0153272Y0164650D01*
X0152826Y0164769D01*
X0152427Y0164999D01*
X0152102Y0165325D01*
X0151871Y0165724D01*
X0151752Y0166169D01*
X0151752Y0170349D01*
X0155452Y0170349D01*
X0155452Y0164650D01*
X0155452Y0165338D02*
X0156351Y0165338D01*
X0156351Y0166836D02*
X0155452Y0166836D01*
X0155452Y0168335D02*
X0156351Y0168335D01*
X0156351Y0169833D02*
X0155452Y0169833D01*
X0155452Y0171332D02*
X0156351Y0171332D01*
X0156351Y0172830D02*
X0155452Y0172830D01*
X0155452Y0174329D02*
X0156351Y0174329D01*
X0156351Y0175827D02*
X0155452Y0175827D01*
X0151859Y0175827D02*
X0142448Y0175827D01*
X0142448Y0174329D02*
X0151752Y0174329D01*
X0151752Y0172830D02*
X0142448Y0172830D01*
X0142448Y0171332D02*
X0151752Y0171332D01*
X0151752Y0169833D02*
X0142448Y0169833D01*
X0142448Y0168335D02*
X0151752Y0168335D01*
X0151752Y0166836D02*
X0142448Y0166836D01*
X0142194Y0165338D02*
X0152094Y0165338D01*
X0129649Y0141362D02*
X0128651Y0141362D01*
X0128651Y0139863D02*
X0129649Y0139863D01*
X0129649Y0138365D02*
X0128651Y0138365D01*
X0128651Y0136866D02*
X0129649Y0136866D01*
X0129649Y0135368D02*
X0128651Y0135368D01*
X0121315Y0099403D02*
X0108285Y0099403D01*
X0106787Y0097905D02*
X0122813Y0097905D01*
X0124312Y0096406D02*
X0105288Y0096406D01*
X0103350Y0070932D02*
X0146950Y0070932D01*
X0145451Y0069433D02*
X0143322Y0069433D01*
X0139678Y0069433D02*
X0127122Y0069433D01*
X0123478Y0069433D02*
X0104849Y0069433D01*
X0112840Y0043958D02*
X0181560Y0043958D01*
X0183058Y0042460D02*
X0111944Y0042460D01*
X0111116Y0040961D02*
X0184557Y0040961D01*
X0197944Y0019982D02*
X0103600Y0019982D01*
X0102101Y0021481D02*
X0225751Y0021481D01*
X0225751Y0022979D02*
X0100603Y0022979D01*
X0099104Y0024478D02*
X0225751Y0024478D01*
X0225751Y0025976D02*
X0097606Y0025976D01*
X0094239Y0022979D02*
X0084000Y0022979D01*
X0084000Y0024478D02*
X0092740Y0024478D01*
X0091242Y0025976D02*
X0084000Y0025976D01*
X0084000Y0027475D02*
X0089743Y0027475D01*
X0088245Y0028973D02*
X0084000Y0028973D01*
X0084000Y0030472D02*
X0086746Y0030472D01*
X0085248Y0031970D02*
X0084000Y0031970D01*
X0084519Y0021481D02*
X0095737Y0021481D01*
X0097236Y0019982D02*
X0086018Y0019982D01*
X0087516Y0018484D02*
X0098734Y0018484D01*
X0100233Y0016985D02*
X0089015Y0016985D01*
X0090513Y0015487D02*
X0101731Y0015487D01*
X0100850Y0016368D02*
X0100850Y0016368D01*
X0095009Y0010991D02*
X0210453Y0010991D01*
X0210113Y0009493D02*
X0096507Y0009493D01*
X0098006Y0007994D02*
X0210113Y0007994D01*
X0210665Y0006496D02*
X0099504Y0006496D01*
X0101003Y0004997D02*
X0211677Y0004997D01*
X0211164Y0012490D02*
X0093510Y0012490D01*
X0092012Y0013988D02*
X0212663Y0013988D01*
X0219337Y0013988D02*
X0225751Y0013988D01*
X0225751Y0012490D02*
X0220836Y0012490D01*
X0221547Y0010991D02*
X0225751Y0010991D01*
X0225751Y0009493D02*
X0221887Y0009493D01*
X0221887Y0007994D02*
X0225751Y0007994D01*
X0225751Y0006496D02*
X0221335Y0006496D01*
X0220323Y0004997D02*
X0225751Y0004997D01*
X0225751Y0015487D02*
X0202341Y0015487D01*
X0202850Y0016985D02*
X0225751Y0016985D01*
X0225751Y0018484D02*
X0202619Y0018484D01*
X0201456Y0019982D02*
X0225751Y0019982D01*
X0065536Y0148854D02*
X0037146Y0148854D01*
X0026285Y0150353D02*
X0026000Y0150353D01*
X0023300Y0142700D02*
X0023300Y0181100D01*
X0020900Y0182000D02*
X0042500Y0203600D01*
X0156200Y0203600D01*
X0160818Y0202801D02*
X0214620Y0202801D01*
X0214829Y0202887D02*
X0212665Y0201991D01*
X0211009Y0200335D01*
X0210113Y0198171D01*
X0210113Y0195829D01*
X0211009Y0193665D01*
X0212665Y0192009D01*
X0214829Y0191113D01*
X0217171Y0191113D01*
X0219335Y0192009D01*
X0220991Y0193665D01*
X0221887Y0195829D01*
X0221887Y0198171D01*
X0220991Y0200335D01*
X0219335Y0201991D01*
X0217171Y0202887D01*
X0214829Y0202887D01*
X0217380Y0202801D02*
X0225751Y0202801D01*
X0225751Y0201302D02*
X0220023Y0201302D01*
X0221211Y0199803D02*
X0225751Y0199803D01*
X0225751Y0198305D02*
X0221832Y0198305D01*
X0221887Y0196806D02*
X0225751Y0196806D01*
X0225751Y0195308D02*
X0221671Y0195308D01*
X0221050Y0193809D02*
X0225751Y0193809D01*
X0225751Y0192311D02*
X0219636Y0192311D01*
X0225751Y0190812D02*
X0174037Y0190812D01*
X0174037Y0192311D02*
X0212364Y0192311D01*
X0210950Y0193809D02*
X0174037Y0193809D01*
X0174037Y0195308D02*
X0210329Y0195308D01*
X0210113Y0196806D02*
X0174037Y0196806D01*
X0174037Y0198305D02*
X0210168Y0198305D01*
X0210789Y0199803D02*
X0174037Y0199803D01*
X0173074Y0201302D02*
X0211977Y0201302D01*
X0225751Y0189314D02*
X0173288Y0189314D01*
X0053423Y0187815D02*
X0041389Y0187815D01*
X0031196Y0183320D02*
X0029338Y0183320D01*
X0020900Y0182000D02*
X0020900Y0135500D01*
X0030800Y0125600D01*
X0030800Y0125000D01*
X0031000Y0125000D01*
X0031000Y0135000D02*
X0023300Y0142700D01*
D20*
X0071600Y0089900D03*
X0092600Y0081500D03*
X0109700Y0079100D03*
X0125300Y0066800D03*
X0137600Y0058400D03*
X0139700Y0056000D03*
X0131300Y0055100D03*
X0137900Y0041900D03*
X0142700Y0041900D03*
X0150800Y0055400D03*
X0154700Y0063200D03*
X0141500Y0066800D03*
X0144500Y0087800D03*
X0148700Y0089900D03*
X0150800Y0098300D03*
X0162200Y0096500D03*
X0169700Y0106700D03*
X0124400Y0093800D03*
X0108500Y0102800D03*
X0108500Y0111800D03*
X0173300Y0055400D03*
X0202100Y0031400D03*
X0199700Y0017300D03*
X0108800Y0043100D03*
X0087200Y0039200D03*
X0082100Y0041300D03*
D21*
X0099200Y0058400D01*
X0137600Y0058400D01*
X0150800Y0071600D01*
X0150800Y0098300D01*
X0148700Y0089900D02*
X0135800Y0089900D01*
X0088700Y0137000D01*
X0088552Y0137190D01*
X0099748Y0137190D02*
X0099800Y0137300D01*
X0099800Y0168500D01*
X0101900Y0170600D01*
X0102098Y0170799D01*
X0083942Y0153350D02*
X0083900Y0153200D01*
X0069500Y0138800D01*
X0069500Y0050900D01*
X0103100Y0017300D01*
X0199700Y0017300D01*
X0197300Y0031400D02*
X0173300Y0055400D01*
X0150800Y0055400D01*
X0140600Y0053900D02*
X0132500Y0053900D01*
X0131300Y0055100D01*
X0120800Y0055100D01*
X0108800Y0043100D01*
X0105200Y0057200D02*
X0087200Y0039200D01*
X0105200Y0057200D02*
X0134300Y0057200D01*
X0135500Y0056000D01*
X0139700Y0056000D01*
X0164300Y0080600D01*
X0164300Y0140000D01*
X0198500Y0174200D01*
X0204800Y0174200D01*
X0207500Y0171500D01*
X0207500Y0168200D01*
X0212600Y0163100D01*
X0212600Y0159500D01*
X0212900Y0159320D01*
X0202700Y0169100D02*
X0202900Y0169320D01*
X0202700Y0169100D02*
X0201800Y0169100D01*
X0170000Y0137300D01*
X0169748Y0137190D01*
X0169700Y0137000D01*
X0169700Y0106700D01*
X0171800Y0114800D02*
X0171800Y0085100D01*
X0140600Y0053900D01*
X0141500Y0066800D02*
X0125300Y0066800D01*
X0104300Y0066800D01*
X0081200Y0089900D01*
X0071600Y0089900D01*
X0092600Y0086900D02*
X0092600Y0081500D01*
X0092600Y0086900D02*
X0108500Y0102800D01*
X0108500Y0102500D01*
X0121400Y0102500D01*
X0136100Y0087800D01*
X0144500Y0087800D01*
X0162200Y0096500D02*
X0162200Y0098600D01*
X0123800Y0137000D01*
X0123552Y0137190D01*
X0134748Y0137190D02*
X0134900Y0137300D01*
X0134900Y0164900D01*
X0137900Y0167900D01*
X0137900Y0170600D01*
X0138098Y0170799D01*
X0158600Y0142100D02*
X0173900Y0157400D01*
X0173900Y0170600D01*
X0174098Y0170799D01*
X0202700Y0149300D02*
X0202700Y0145700D01*
X0171800Y0114800D01*
X0158552Y0137190D02*
X0158600Y0137300D01*
X0158600Y0142100D01*
X0202700Y0149300D02*
X0202900Y0149320D01*
X0108500Y0111800D02*
X0108500Y0102800D01*
X0197300Y0031400D02*
X0202100Y0031400D01*
M02*
