%
M48
M72
T01C0.01200
T02C0.02000
T03C0.02756
T04C0.03200
T05C0.03543
T06C0.04000
T07C0.04400
T08C0.05000
T09C0.05118
T10C0.07874
T11C0.13000
%
T01
X103600Y141433
X105700Y57433
X107800Y47533
X77500Y45433
X70300Y47833
T02
X91600Y53533
X160600Y97633
T03
X212000Y98433
X212000Y88433
T04
X14000Y25433
X14000Y35433
X14000Y54433
X14000Y64433
X14000Y74433
X14000Y84433
X14000Y94433
X14000Y104433
X14000Y114433
X25000Y129433
X35000Y129433
X63000Y129433
X73000Y129433
X101000Y129433
X111000Y129433
X147000Y104433
X137000Y100433
X137000Y86433
X137150Y71833
X137000Y57433
X147000Y54433
X163000Y63433
X173000Y63433
X183000Y63433
X193000Y63433
X193000Y103433
X183000Y103433
X173000Y103433
X163000Y103433
X87000Y100433
X87000Y86433
X87150Y71833
X87000Y57433
X60000Y33433
X60000Y23433
X44000Y25433
X44000Y35433
X44000Y54433
X44000Y64433
X44000Y74433
X44000Y84433
X44000Y94433
X44000Y104433
X44000Y114433
T05
X284622Y62433
X205882Y62433
T06
X91000Y27433
X101000Y27433
X111000Y27433
X121000Y27433
X131000Y27433
X131000Y37433
X121000Y37433
X111000Y37433
X101000Y37433
X91000Y37433
X296000Y197433
X296000Y187433
X296000Y177433
X296000Y167433
T07
X136000Y117433
X146000Y117433
X156000Y117433
X181000Y117433
X191000Y117433
X201000Y117433
X226000Y117433
X236000Y117433
X246000Y117433
T08
X186000Y23133
X176000Y23133
X166000Y23133
T09
X278874Y156331
X289898Y137433
X267063Y137433
T10
X64000Y82433
X49000Y127433
X268000Y199433
X299000Y23433
T11
X146000Y186433
X191000Y186433
X236000Y186433
M30
