G75*
%MOIN*%
%OFA0B0*%
%FSLAX25Y25*%
%IPPOS*%
%LPD*%
%AMOC8*
5,1,8,0,0,1.08239X$1,22.5*
%
%ADD10C,0.00000*%
%ADD11C,0.00200*%
%ADD12C,0.00500*%
%ADD13C,0.00400*%
%ADD14C,0.00300*%
%ADD15C,0.00800*%
%ADD16C,0.00600*%
%ADD17R,0.06000X0.06000*%
%ADD18C,0.01000*%
%ADD19C,0.00100*%
%ADD20R,0.01673X0.01280*%
%ADD21R,0.01378X0.01378*%
%ADD22C,0.01600*%
D10*
X0018000Y0002000D02*
X0018000Y0205961D01*
X0227701Y0205961D01*
X0227701Y0002000D01*
X0018000Y0002000D01*
X0081063Y0009000D02*
X0081065Y0009125D01*
X0081071Y0009250D01*
X0081081Y0009374D01*
X0081095Y0009498D01*
X0081112Y0009622D01*
X0081134Y0009745D01*
X0081160Y0009867D01*
X0081189Y0009989D01*
X0081222Y0010109D01*
X0081260Y0010228D01*
X0081300Y0010347D01*
X0081345Y0010463D01*
X0081393Y0010578D01*
X0081445Y0010692D01*
X0081501Y0010804D01*
X0081560Y0010914D01*
X0081622Y0011022D01*
X0081688Y0011129D01*
X0081757Y0011233D01*
X0081830Y0011334D01*
X0081905Y0011434D01*
X0081984Y0011531D01*
X0082066Y0011625D01*
X0082151Y0011717D01*
X0082238Y0011806D01*
X0082329Y0011892D01*
X0082422Y0011975D01*
X0082518Y0012056D01*
X0082616Y0012133D01*
X0082716Y0012207D01*
X0082819Y0012278D01*
X0082924Y0012345D01*
X0083032Y0012410D01*
X0083141Y0012470D01*
X0083252Y0012528D01*
X0083365Y0012581D01*
X0083479Y0012631D01*
X0083595Y0012678D01*
X0083712Y0012720D01*
X0083831Y0012759D01*
X0083951Y0012795D01*
X0084072Y0012826D01*
X0084194Y0012854D01*
X0084316Y0012877D01*
X0084440Y0012897D01*
X0084564Y0012913D01*
X0084688Y0012925D01*
X0084813Y0012933D01*
X0084938Y0012937D01*
X0085062Y0012937D01*
X0085187Y0012933D01*
X0085312Y0012925D01*
X0085436Y0012913D01*
X0085560Y0012897D01*
X0085684Y0012877D01*
X0085806Y0012854D01*
X0085928Y0012826D01*
X0086049Y0012795D01*
X0086169Y0012759D01*
X0086288Y0012720D01*
X0086405Y0012678D01*
X0086521Y0012631D01*
X0086635Y0012581D01*
X0086748Y0012528D01*
X0086859Y0012470D01*
X0086969Y0012410D01*
X0087076Y0012345D01*
X0087181Y0012278D01*
X0087284Y0012207D01*
X0087384Y0012133D01*
X0087482Y0012056D01*
X0087578Y0011975D01*
X0087671Y0011892D01*
X0087762Y0011806D01*
X0087849Y0011717D01*
X0087934Y0011625D01*
X0088016Y0011531D01*
X0088095Y0011434D01*
X0088170Y0011334D01*
X0088243Y0011233D01*
X0088312Y0011129D01*
X0088378Y0011022D01*
X0088440Y0010914D01*
X0088499Y0010804D01*
X0088555Y0010692D01*
X0088607Y0010578D01*
X0088655Y0010463D01*
X0088700Y0010347D01*
X0088740Y0010228D01*
X0088778Y0010109D01*
X0088811Y0009989D01*
X0088840Y0009867D01*
X0088866Y0009745D01*
X0088888Y0009622D01*
X0088905Y0009498D01*
X0088919Y0009374D01*
X0088929Y0009250D01*
X0088935Y0009125D01*
X0088937Y0009000D01*
X0088935Y0008875D01*
X0088929Y0008750D01*
X0088919Y0008626D01*
X0088905Y0008502D01*
X0088888Y0008378D01*
X0088866Y0008255D01*
X0088840Y0008133D01*
X0088811Y0008011D01*
X0088778Y0007891D01*
X0088740Y0007772D01*
X0088700Y0007653D01*
X0088655Y0007537D01*
X0088607Y0007422D01*
X0088555Y0007308D01*
X0088499Y0007196D01*
X0088440Y0007086D01*
X0088378Y0006978D01*
X0088312Y0006871D01*
X0088243Y0006767D01*
X0088170Y0006666D01*
X0088095Y0006566D01*
X0088016Y0006469D01*
X0087934Y0006375D01*
X0087849Y0006283D01*
X0087762Y0006194D01*
X0087671Y0006108D01*
X0087578Y0006025D01*
X0087482Y0005944D01*
X0087384Y0005867D01*
X0087284Y0005793D01*
X0087181Y0005722D01*
X0087076Y0005655D01*
X0086968Y0005590D01*
X0086859Y0005530D01*
X0086748Y0005472D01*
X0086635Y0005419D01*
X0086521Y0005369D01*
X0086405Y0005322D01*
X0086288Y0005280D01*
X0086169Y0005241D01*
X0086049Y0005205D01*
X0085928Y0005174D01*
X0085806Y0005146D01*
X0085684Y0005123D01*
X0085560Y0005103D01*
X0085436Y0005087D01*
X0085312Y0005075D01*
X0085187Y0005067D01*
X0085062Y0005063D01*
X0084938Y0005063D01*
X0084813Y0005067D01*
X0084688Y0005075D01*
X0084564Y0005087D01*
X0084440Y0005103D01*
X0084316Y0005123D01*
X0084194Y0005146D01*
X0084072Y0005174D01*
X0083951Y0005205D01*
X0083831Y0005241D01*
X0083712Y0005280D01*
X0083595Y0005322D01*
X0083479Y0005369D01*
X0083365Y0005419D01*
X0083252Y0005472D01*
X0083141Y0005530D01*
X0083031Y0005590D01*
X0082924Y0005655D01*
X0082819Y0005722D01*
X0082716Y0005793D01*
X0082616Y0005867D01*
X0082518Y0005944D01*
X0082422Y0006025D01*
X0082329Y0006108D01*
X0082238Y0006194D01*
X0082151Y0006283D01*
X0082066Y0006375D01*
X0081984Y0006469D01*
X0081905Y0006566D01*
X0081830Y0006666D01*
X0081757Y0006767D01*
X0081688Y0006871D01*
X0081622Y0006978D01*
X0081560Y0007086D01*
X0081501Y0007196D01*
X0081445Y0007308D01*
X0081393Y0007422D01*
X0081345Y0007537D01*
X0081300Y0007653D01*
X0081260Y0007772D01*
X0081222Y0007891D01*
X0081189Y0008011D01*
X0081160Y0008133D01*
X0081134Y0008255D01*
X0081112Y0008378D01*
X0081095Y0008502D01*
X0081081Y0008626D01*
X0081071Y0008750D01*
X0081065Y0008875D01*
X0081063Y0009000D01*
X0212063Y0009000D02*
X0212065Y0009125D01*
X0212071Y0009250D01*
X0212081Y0009374D01*
X0212095Y0009498D01*
X0212112Y0009622D01*
X0212134Y0009745D01*
X0212160Y0009867D01*
X0212189Y0009989D01*
X0212222Y0010109D01*
X0212260Y0010228D01*
X0212300Y0010347D01*
X0212345Y0010463D01*
X0212393Y0010578D01*
X0212445Y0010692D01*
X0212501Y0010804D01*
X0212560Y0010914D01*
X0212622Y0011022D01*
X0212688Y0011129D01*
X0212757Y0011233D01*
X0212830Y0011334D01*
X0212905Y0011434D01*
X0212984Y0011531D01*
X0213066Y0011625D01*
X0213151Y0011717D01*
X0213238Y0011806D01*
X0213329Y0011892D01*
X0213422Y0011975D01*
X0213518Y0012056D01*
X0213616Y0012133D01*
X0213716Y0012207D01*
X0213819Y0012278D01*
X0213924Y0012345D01*
X0214032Y0012410D01*
X0214141Y0012470D01*
X0214252Y0012528D01*
X0214365Y0012581D01*
X0214479Y0012631D01*
X0214595Y0012678D01*
X0214712Y0012720D01*
X0214831Y0012759D01*
X0214951Y0012795D01*
X0215072Y0012826D01*
X0215194Y0012854D01*
X0215316Y0012877D01*
X0215440Y0012897D01*
X0215564Y0012913D01*
X0215688Y0012925D01*
X0215813Y0012933D01*
X0215938Y0012937D01*
X0216062Y0012937D01*
X0216187Y0012933D01*
X0216312Y0012925D01*
X0216436Y0012913D01*
X0216560Y0012897D01*
X0216684Y0012877D01*
X0216806Y0012854D01*
X0216928Y0012826D01*
X0217049Y0012795D01*
X0217169Y0012759D01*
X0217288Y0012720D01*
X0217405Y0012678D01*
X0217521Y0012631D01*
X0217635Y0012581D01*
X0217748Y0012528D01*
X0217859Y0012470D01*
X0217969Y0012410D01*
X0218076Y0012345D01*
X0218181Y0012278D01*
X0218284Y0012207D01*
X0218384Y0012133D01*
X0218482Y0012056D01*
X0218578Y0011975D01*
X0218671Y0011892D01*
X0218762Y0011806D01*
X0218849Y0011717D01*
X0218934Y0011625D01*
X0219016Y0011531D01*
X0219095Y0011434D01*
X0219170Y0011334D01*
X0219243Y0011233D01*
X0219312Y0011129D01*
X0219378Y0011022D01*
X0219440Y0010914D01*
X0219499Y0010804D01*
X0219555Y0010692D01*
X0219607Y0010578D01*
X0219655Y0010463D01*
X0219700Y0010347D01*
X0219740Y0010228D01*
X0219778Y0010109D01*
X0219811Y0009989D01*
X0219840Y0009867D01*
X0219866Y0009745D01*
X0219888Y0009622D01*
X0219905Y0009498D01*
X0219919Y0009374D01*
X0219929Y0009250D01*
X0219935Y0009125D01*
X0219937Y0009000D01*
X0219935Y0008875D01*
X0219929Y0008750D01*
X0219919Y0008626D01*
X0219905Y0008502D01*
X0219888Y0008378D01*
X0219866Y0008255D01*
X0219840Y0008133D01*
X0219811Y0008011D01*
X0219778Y0007891D01*
X0219740Y0007772D01*
X0219700Y0007653D01*
X0219655Y0007537D01*
X0219607Y0007422D01*
X0219555Y0007308D01*
X0219499Y0007196D01*
X0219440Y0007086D01*
X0219378Y0006978D01*
X0219312Y0006871D01*
X0219243Y0006767D01*
X0219170Y0006666D01*
X0219095Y0006566D01*
X0219016Y0006469D01*
X0218934Y0006375D01*
X0218849Y0006283D01*
X0218762Y0006194D01*
X0218671Y0006108D01*
X0218578Y0006025D01*
X0218482Y0005944D01*
X0218384Y0005867D01*
X0218284Y0005793D01*
X0218181Y0005722D01*
X0218076Y0005655D01*
X0217968Y0005590D01*
X0217859Y0005530D01*
X0217748Y0005472D01*
X0217635Y0005419D01*
X0217521Y0005369D01*
X0217405Y0005322D01*
X0217288Y0005280D01*
X0217169Y0005241D01*
X0217049Y0005205D01*
X0216928Y0005174D01*
X0216806Y0005146D01*
X0216684Y0005123D01*
X0216560Y0005103D01*
X0216436Y0005087D01*
X0216312Y0005075D01*
X0216187Y0005067D01*
X0216062Y0005063D01*
X0215938Y0005063D01*
X0215813Y0005067D01*
X0215688Y0005075D01*
X0215564Y0005087D01*
X0215440Y0005103D01*
X0215316Y0005123D01*
X0215194Y0005146D01*
X0215072Y0005174D01*
X0214951Y0005205D01*
X0214831Y0005241D01*
X0214712Y0005280D01*
X0214595Y0005322D01*
X0214479Y0005369D01*
X0214365Y0005419D01*
X0214252Y0005472D01*
X0214141Y0005530D01*
X0214031Y0005590D01*
X0213924Y0005655D01*
X0213819Y0005722D01*
X0213716Y0005793D01*
X0213616Y0005867D01*
X0213518Y0005944D01*
X0213422Y0006025D01*
X0213329Y0006108D01*
X0213238Y0006194D01*
X0213151Y0006283D01*
X0213066Y0006375D01*
X0212984Y0006469D01*
X0212905Y0006566D01*
X0212830Y0006666D01*
X0212757Y0006767D01*
X0212688Y0006871D01*
X0212622Y0006978D01*
X0212560Y0007086D01*
X0212501Y0007196D01*
X0212445Y0007308D01*
X0212393Y0007422D01*
X0212345Y0007537D01*
X0212300Y0007653D01*
X0212260Y0007772D01*
X0212222Y0007891D01*
X0212189Y0008011D01*
X0212160Y0008133D01*
X0212134Y0008255D01*
X0212112Y0008378D01*
X0212095Y0008502D01*
X0212081Y0008626D01*
X0212071Y0008750D01*
X0212065Y0008875D01*
X0212063Y0009000D01*
X0212063Y0197000D02*
X0212065Y0197125D01*
X0212071Y0197250D01*
X0212081Y0197374D01*
X0212095Y0197498D01*
X0212112Y0197622D01*
X0212134Y0197745D01*
X0212160Y0197867D01*
X0212189Y0197989D01*
X0212222Y0198109D01*
X0212260Y0198228D01*
X0212300Y0198347D01*
X0212345Y0198463D01*
X0212393Y0198578D01*
X0212445Y0198692D01*
X0212501Y0198804D01*
X0212560Y0198914D01*
X0212622Y0199022D01*
X0212688Y0199129D01*
X0212757Y0199233D01*
X0212830Y0199334D01*
X0212905Y0199434D01*
X0212984Y0199531D01*
X0213066Y0199625D01*
X0213151Y0199717D01*
X0213238Y0199806D01*
X0213329Y0199892D01*
X0213422Y0199975D01*
X0213518Y0200056D01*
X0213616Y0200133D01*
X0213716Y0200207D01*
X0213819Y0200278D01*
X0213924Y0200345D01*
X0214032Y0200410D01*
X0214141Y0200470D01*
X0214252Y0200528D01*
X0214365Y0200581D01*
X0214479Y0200631D01*
X0214595Y0200678D01*
X0214712Y0200720D01*
X0214831Y0200759D01*
X0214951Y0200795D01*
X0215072Y0200826D01*
X0215194Y0200854D01*
X0215316Y0200877D01*
X0215440Y0200897D01*
X0215564Y0200913D01*
X0215688Y0200925D01*
X0215813Y0200933D01*
X0215938Y0200937D01*
X0216062Y0200937D01*
X0216187Y0200933D01*
X0216312Y0200925D01*
X0216436Y0200913D01*
X0216560Y0200897D01*
X0216684Y0200877D01*
X0216806Y0200854D01*
X0216928Y0200826D01*
X0217049Y0200795D01*
X0217169Y0200759D01*
X0217288Y0200720D01*
X0217405Y0200678D01*
X0217521Y0200631D01*
X0217635Y0200581D01*
X0217748Y0200528D01*
X0217859Y0200470D01*
X0217969Y0200410D01*
X0218076Y0200345D01*
X0218181Y0200278D01*
X0218284Y0200207D01*
X0218384Y0200133D01*
X0218482Y0200056D01*
X0218578Y0199975D01*
X0218671Y0199892D01*
X0218762Y0199806D01*
X0218849Y0199717D01*
X0218934Y0199625D01*
X0219016Y0199531D01*
X0219095Y0199434D01*
X0219170Y0199334D01*
X0219243Y0199233D01*
X0219312Y0199129D01*
X0219378Y0199022D01*
X0219440Y0198914D01*
X0219499Y0198804D01*
X0219555Y0198692D01*
X0219607Y0198578D01*
X0219655Y0198463D01*
X0219700Y0198347D01*
X0219740Y0198228D01*
X0219778Y0198109D01*
X0219811Y0197989D01*
X0219840Y0197867D01*
X0219866Y0197745D01*
X0219888Y0197622D01*
X0219905Y0197498D01*
X0219919Y0197374D01*
X0219929Y0197250D01*
X0219935Y0197125D01*
X0219937Y0197000D01*
X0219935Y0196875D01*
X0219929Y0196750D01*
X0219919Y0196626D01*
X0219905Y0196502D01*
X0219888Y0196378D01*
X0219866Y0196255D01*
X0219840Y0196133D01*
X0219811Y0196011D01*
X0219778Y0195891D01*
X0219740Y0195772D01*
X0219700Y0195653D01*
X0219655Y0195537D01*
X0219607Y0195422D01*
X0219555Y0195308D01*
X0219499Y0195196D01*
X0219440Y0195086D01*
X0219378Y0194978D01*
X0219312Y0194871D01*
X0219243Y0194767D01*
X0219170Y0194666D01*
X0219095Y0194566D01*
X0219016Y0194469D01*
X0218934Y0194375D01*
X0218849Y0194283D01*
X0218762Y0194194D01*
X0218671Y0194108D01*
X0218578Y0194025D01*
X0218482Y0193944D01*
X0218384Y0193867D01*
X0218284Y0193793D01*
X0218181Y0193722D01*
X0218076Y0193655D01*
X0217968Y0193590D01*
X0217859Y0193530D01*
X0217748Y0193472D01*
X0217635Y0193419D01*
X0217521Y0193369D01*
X0217405Y0193322D01*
X0217288Y0193280D01*
X0217169Y0193241D01*
X0217049Y0193205D01*
X0216928Y0193174D01*
X0216806Y0193146D01*
X0216684Y0193123D01*
X0216560Y0193103D01*
X0216436Y0193087D01*
X0216312Y0193075D01*
X0216187Y0193067D01*
X0216062Y0193063D01*
X0215938Y0193063D01*
X0215813Y0193067D01*
X0215688Y0193075D01*
X0215564Y0193087D01*
X0215440Y0193103D01*
X0215316Y0193123D01*
X0215194Y0193146D01*
X0215072Y0193174D01*
X0214951Y0193205D01*
X0214831Y0193241D01*
X0214712Y0193280D01*
X0214595Y0193322D01*
X0214479Y0193369D01*
X0214365Y0193419D01*
X0214252Y0193472D01*
X0214141Y0193530D01*
X0214031Y0193590D01*
X0213924Y0193655D01*
X0213819Y0193722D01*
X0213716Y0193793D01*
X0213616Y0193867D01*
X0213518Y0193944D01*
X0213422Y0194025D01*
X0213329Y0194108D01*
X0213238Y0194194D01*
X0213151Y0194283D01*
X0213066Y0194375D01*
X0212984Y0194469D01*
X0212905Y0194566D01*
X0212830Y0194666D01*
X0212757Y0194767D01*
X0212688Y0194871D01*
X0212622Y0194978D01*
X0212560Y0195086D01*
X0212501Y0195196D01*
X0212445Y0195308D01*
X0212393Y0195422D01*
X0212345Y0195537D01*
X0212300Y0195653D01*
X0212260Y0195772D01*
X0212222Y0195891D01*
X0212189Y0196011D01*
X0212160Y0196133D01*
X0212134Y0196255D01*
X0212112Y0196378D01*
X0212095Y0196502D01*
X0212081Y0196626D01*
X0212071Y0196750D01*
X0212065Y0196875D01*
X0212063Y0197000D01*
X0068063Y0197000D02*
X0068065Y0197125D01*
X0068071Y0197250D01*
X0068081Y0197374D01*
X0068095Y0197498D01*
X0068112Y0197622D01*
X0068134Y0197745D01*
X0068160Y0197867D01*
X0068189Y0197989D01*
X0068222Y0198109D01*
X0068260Y0198228D01*
X0068300Y0198347D01*
X0068345Y0198463D01*
X0068393Y0198578D01*
X0068445Y0198692D01*
X0068501Y0198804D01*
X0068560Y0198914D01*
X0068622Y0199022D01*
X0068688Y0199129D01*
X0068757Y0199233D01*
X0068830Y0199334D01*
X0068905Y0199434D01*
X0068984Y0199531D01*
X0069066Y0199625D01*
X0069151Y0199717D01*
X0069238Y0199806D01*
X0069329Y0199892D01*
X0069422Y0199975D01*
X0069518Y0200056D01*
X0069616Y0200133D01*
X0069716Y0200207D01*
X0069819Y0200278D01*
X0069924Y0200345D01*
X0070032Y0200410D01*
X0070141Y0200470D01*
X0070252Y0200528D01*
X0070365Y0200581D01*
X0070479Y0200631D01*
X0070595Y0200678D01*
X0070712Y0200720D01*
X0070831Y0200759D01*
X0070951Y0200795D01*
X0071072Y0200826D01*
X0071194Y0200854D01*
X0071316Y0200877D01*
X0071440Y0200897D01*
X0071564Y0200913D01*
X0071688Y0200925D01*
X0071813Y0200933D01*
X0071938Y0200937D01*
X0072062Y0200937D01*
X0072187Y0200933D01*
X0072312Y0200925D01*
X0072436Y0200913D01*
X0072560Y0200897D01*
X0072684Y0200877D01*
X0072806Y0200854D01*
X0072928Y0200826D01*
X0073049Y0200795D01*
X0073169Y0200759D01*
X0073288Y0200720D01*
X0073405Y0200678D01*
X0073521Y0200631D01*
X0073635Y0200581D01*
X0073748Y0200528D01*
X0073859Y0200470D01*
X0073969Y0200410D01*
X0074076Y0200345D01*
X0074181Y0200278D01*
X0074284Y0200207D01*
X0074384Y0200133D01*
X0074482Y0200056D01*
X0074578Y0199975D01*
X0074671Y0199892D01*
X0074762Y0199806D01*
X0074849Y0199717D01*
X0074934Y0199625D01*
X0075016Y0199531D01*
X0075095Y0199434D01*
X0075170Y0199334D01*
X0075243Y0199233D01*
X0075312Y0199129D01*
X0075378Y0199022D01*
X0075440Y0198914D01*
X0075499Y0198804D01*
X0075555Y0198692D01*
X0075607Y0198578D01*
X0075655Y0198463D01*
X0075700Y0198347D01*
X0075740Y0198228D01*
X0075778Y0198109D01*
X0075811Y0197989D01*
X0075840Y0197867D01*
X0075866Y0197745D01*
X0075888Y0197622D01*
X0075905Y0197498D01*
X0075919Y0197374D01*
X0075929Y0197250D01*
X0075935Y0197125D01*
X0075937Y0197000D01*
X0075935Y0196875D01*
X0075929Y0196750D01*
X0075919Y0196626D01*
X0075905Y0196502D01*
X0075888Y0196378D01*
X0075866Y0196255D01*
X0075840Y0196133D01*
X0075811Y0196011D01*
X0075778Y0195891D01*
X0075740Y0195772D01*
X0075700Y0195653D01*
X0075655Y0195537D01*
X0075607Y0195422D01*
X0075555Y0195308D01*
X0075499Y0195196D01*
X0075440Y0195086D01*
X0075378Y0194978D01*
X0075312Y0194871D01*
X0075243Y0194767D01*
X0075170Y0194666D01*
X0075095Y0194566D01*
X0075016Y0194469D01*
X0074934Y0194375D01*
X0074849Y0194283D01*
X0074762Y0194194D01*
X0074671Y0194108D01*
X0074578Y0194025D01*
X0074482Y0193944D01*
X0074384Y0193867D01*
X0074284Y0193793D01*
X0074181Y0193722D01*
X0074076Y0193655D01*
X0073968Y0193590D01*
X0073859Y0193530D01*
X0073748Y0193472D01*
X0073635Y0193419D01*
X0073521Y0193369D01*
X0073405Y0193322D01*
X0073288Y0193280D01*
X0073169Y0193241D01*
X0073049Y0193205D01*
X0072928Y0193174D01*
X0072806Y0193146D01*
X0072684Y0193123D01*
X0072560Y0193103D01*
X0072436Y0193087D01*
X0072312Y0193075D01*
X0072187Y0193067D01*
X0072062Y0193063D01*
X0071938Y0193063D01*
X0071813Y0193067D01*
X0071688Y0193075D01*
X0071564Y0193087D01*
X0071440Y0193103D01*
X0071316Y0193123D01*
X0071194Y0193146D01*
X0071072Y0193174D01*
X0070951Y0193205D01*
X0070831Y0193241D01*
X0070712Y0193280D01*
X0070595Y0193322D01*
X0070479Y0193369D01*
X0070365Y0193419D01*
X0070252Y0193472D01*
X0070141Y0193530D01*
X0070031Y0193590D01*
X0069924Y0193655D01*
X0069819Y0193722D01*
X0069716Y0193793D01*
X0069616Y0193867D01*
X0069518Y0193944D01*
X0069422Y0194025D01*
X0069329Y0194108D01*
X0069238Y0194194D01*
X0069151Y0194283D01*
X0069066Y0194375D01*
X0068984Y0194469D01*
X0068905Y0194566D01*
X0068830Y0194666D01*
X0068757Y0194767D01*
X0068688Y0194871D01*
X0068622Y0194978D01*
X0068560Y0195086D01*
X0068501Y0195196D01*
X0068445Y0195308D01*
X0068393Y0195422D01*
X0068345Y0195537D01*
X0068300Y0195653D01*
X0068260Y0195772D01*
X0068222Y0195891D01*
X0068189Y0196011D01*
X0068160Y0196133D01*
X0068134Y0196255D01*
X0068112Y0196378D01*
X0068095Y0196502D01*
X0068081Y0196626D01*
X0068071Y0196750D01*
X0068065Y0196875D01*
X0068063Y0197000D01*
D11*
X0167534Y0007702D02*
X0167100Y0007269D01*
X0167100Y0006835D01*
X0167534Y0006401D01*
X0168401Y0006401D01*
X0168835Y0005967D01*
X0168835Y0005534D01*
X0168401Y0005100D01*
X0167534Y0005100D01*
X0167100Y0005534D01*
X0167534Y0007702D02*
X0168401Y0007702D01*
X0168835Y0007269D01*
X0169678Y0006835D02*
X0170112Y0006835D01*
X0170546Y0006401D01*
X0170979Y0006835D01*
X0171413Y0006401D01*
X0171413Y0005100D01*
X0170546Y0005100D02*
X0170546Y0006401D01*
X0169678Y0006835D02*
X0169678Y0005100D01*
X0172256Y0005534D02*
X0172690Y0005967D01*
X0173991Y0005967D01*
X0173991Y0006401D02*
X0173991Y0005100D01*
X0172690Y0005100D01*
X0172256Y0005534D01*
X0172690Y0006835D02*
X0173558Y0006835D01*
X0173991Y0006401D01*
X0174835Y0005967D02*
X0175702Y0006835D01*
X0176136Y0006835D01*
X0176983Y0006835D02*
X0177850Y0006835D01*
X0177417Y0007269D02*
X0177417Y0005534D01*
X0177850Y0005100D01*
X0178702Y0005100D02*
X0180437Y0005100D01*
X0181280Y0005534D02*
X0181714Y0005967D01*
X0183015Y0005967D01*
X0183015Y0006401D02*
X0183015Y0005100D01*
X0181714Y0005100D01*
X0181280Y0005534D01*
X0181714Y0006835D02*
X0182581Y0006835D01*
X0183015Y0006401D01*
X0183858Y0006835D02*
X0184292Y0006835D01*
X0184726Y0006401D01*
X0185159Y0006835D01*
X0185593Y0006401D01*
X0185593Y0005100D01*
X0186436Y0005100D02*
X0187738Y0005100D01*
X0188171Y0005534D01*
X0188171Y0006401D01*
X0187738Y0006835D01*
X0186436Y0006835D01*
X0186436Y0004233D01*
X0184726Y0005100D02*
X0184726Y0006401D01*
X0183858Y0006835D02*
X0183858Y0005100D01*
X0178702Y0005100D02*
X0178702Y0007702D01*
X0174835Y0006835D02*
X0174835Y0005100D01*
X0191593Y0005534D02*
X0192027Y0005100D01*
X0192894Y0005100D01*
X0193328Y0005534D01*
X0193328Y0005967D01*
X0192894Y0006401D01*
X0192027Y0006401D01*
X0191593Y0006835D01*
X0191593Y0007269D01*
X0192027Y0007702D01*
X0192894Y0007702D01*
X0193328Y0007269D01*
X0194171Y0007702D02*
X0194171Y0005100D01*
X0195906Y0005100D02*
X0195906Y0007702D01*
X0195038Y0006835D01*
X0194171Y0007702D01*
X0196749Y0007702D02*
X0196749Y0005100D01*
X0198050Y0005100D01*
X0198484Y0005534D01*
X0198484Y0007269D01*
X0198050Y0007702D01*
X0196749Y0007702D01*
X0201906Y0006835D02*
X0202773Y0005100D01*
X0203640Y0006835D01*
X0204484Y0006835D02*
X0205351Y0007702D01*
X0205351Y0005100D01*
X0204484Y0005100D02*
X0206219Y0005100D01*
X0207062Y0005100D02*
X0207496Y0005100D01*
X0207496Y0005534D01*
X0207062Y0005534D01*
X0207062Y0005100D01*
X0208351Y0005534D02*
X0208351Y0007269D01*
X0208785Y0007702D01*
X0209652Y0007702D01*
X0210086Y0007269D01*
X0208351Y0005534D01*
X0208785Y0005100D01*
X0209652Y0005100D01*
X0210086Y0005534D01*
X0210086Y0007269D01*
D12*
X0076591Y0003047D02*
X0025409Y0003047D01*
X0025409Y0108953D01*
X0076591Y0108953D01*
X0076591Y0003047D01*
X0023950Y0120550D02*
X0019446Y0120550D01*
X0023950Y0120550D02*
X0023950Y0123553D01*
X0023950Y0125154D02*
X0023950Y0128156D01*
X0023950Y0129758D02*
X0023950Y0132010D01*
X0023199Y0132760D01*
X0020197Y0132760D01*
X0019446Y0132010D01*
X0019446Y0129758D01*
X0023950Y0129758D01*
X0021698Y0126655D02*
X0021698Y0125154D01*
X0019446Y0125154D02*
X0019446Y0128156D01*
X0019446Y0125154D02*
X0023950Y0125154D01*
X0024701Y0134362D02*
X0024701Y0137364D01*
X0023199Y0138966D02*
X0023950Y0139716D01*
X0023950Y0141218D01*
X0023199Y0141968D01*
X0022449Y0141968D01*
X0021698Y0141218D01*
X0021698Y0139716D01*
X0020947Y0138966D01*
X0020197Y0138966D01*
X0019446Y0139716D01*
X0019446Y0141218D01*
X0020197Y0141968D01*
X0019446Y0143570D02*
X0019446Y0146572D01*
X0019446Y0145071D02*
X0023950Y0145071D01*
X0023950Y0148174D02*
X0019446Y0148174D01*
X0019446Y0150425D01*
X0020197Y0151176D01*
X0021698Y0151176D01*
X0022449Y0150425D01*
X0022449Y0148174D01*
X0022449Y0149675D02*
X0023950Y0151176D01*
X0023950Y0152777D02*
X0023950Y0154279D01*
X0023950Y0153528D02*
X0019446Y0153528D01*
X0019446Y0152777D02*
X0019446Y0154279D01*
X0019446Y0155847D02*
X0019446Y0158099D01*
X0020197Y0158849D01*
X0021698Y0158849D01*
X0022449Y0158099D01*
X0022449Y0155847D01*
X0023950Y0155847D02*
X0019446Y0155847D01*
X0044598Y0151496D02*
X0044598Y0138504D01*
X0069402Y0138504D01*
X0069402Y0151496D01*
X0044598Y0151496D01*
X0078036Y0140555D02*
X0078036Y0166145D01*
X0078036Y0166342D02*
X0096147Y0166342D01*
X0096147Y0140358D02*
X0078036Y0140358D01*
X0094178Y0153350D02*
X0094192Y0154451D01*
X0094232Y0155552D01*
X0094300Y0156652D01*
X0094394Y0157749D01*
X0094516Y0158844D01*
X0094664Y0159936D01*
X0094839Y0161023D01*
X0095040Y0162106D01*
X0095269Y0163184D01*
X0095523Y0164255D01*
X0095804Y0165321D01*
X0096111Y0166379D01*
X0096443Y0167429D01*
X0096802Y0168470D01*
X0097185Y0169503D01*
X0097594Y0170526D01*
X0098028Y0171538D01*
X0098487Y0172540D01*
X0098970Y0173529D01*
X0099478Y0174507D01*
X0100009Y0175472D01*
X0100563Y0176424D01*
X0101141Y0177362D01*
X0101742Y0178285D01*
X0102365Y0179193D01*
X0103010Y0180086D01*
X0103677Y0180963D01*
X0104366Y0181823D01*
X0105075Y0182666D01*
X0105805Y0183491D01*
X0106554Y0184298D01*
X0107324Y0185086D01*
X0108112Y0185856D01*
X0108919Y0186605D01*
X0109744Y0187335D01*
X0110587Y0188044D01*
X0111447Y0188733D01*
X0112324Y0189400D01*
X0113217Y0190045D01*
X0114125Y0190668D01*
X0115048Y0191269D01*
X0115986Y0191847D01*
X0116938Y0192401D01*
X0117903Y0192932D01*
X0118881Y0193440D01*
X0119870Y0193923D01*
X0120872Y0194382D01*
X0121884Y0194816D01*
X0122907Y0195225D01*
X0123940Y0195608D01*
X0124981Y0195967D01*
X0126031Y0196299D01*
X0127089Y0196606D01*
X0128155Y0196887D01*
X0129226Y0197141D01*
X0130304Y0197370D01*
X0131387Y0197571D01*
X0132474Y0197746D01*
X0133566Y0197894D01*
X0134661Y0198016D01*
X0135758Y0198110D01*
X0136858Y0198178D01*
X0137959Y0198218D01*
X0139060Y0198232D01*
X0140161Y0198218D01*
X0141262Y0198178D01*
X0142362Y0198110D01*
X0143459Y0198016D01*
X0144554Y0197894D01*
X0145646Y0197746D01*
X0146733Y0197571D01*
X0147816Y0197370D01*
X0148894Y0197141D01*
X0149965Y0196887D01*
X0151031Y0196606D01*
X0152089Y0196299D01*
X0153139Y0195967D01*
X0154180Y0195608D01*
X0155213Y0195225D01*
X0156236Y0194816D01*
X0157248Y0194382D01*
X0158250Y0193923D01*
X0159239Y0193440D01*
X0160217Y0192932D01*
X0161182Y0192401D01*
X0162134Y0191847D01*
X0163072Y0191269D01*
X0163995Y0190668D01*
X0164903Y0190045D01*
X0165796Y0189400D01*
X0166673Y0188733D01*
X0167533Y0188044D01*
X0168376Y0187335D01*
X0169201Y0186605D01*
X0170008Y0185856D01*
X0170796Y0185086D01*
X0171566Y0184298D01*
X0172315Y0183491D01*
X0173045Y0182666D01*
X0173754Y0181823D01*
X0174443Y0180963D01*
X0175110Y0180086D01*
X0175755Y0179193D01*
X0176378Y0178285D01*
X0176979Y0177362D01*
X0177557Y0176424D01*
X0178111Y0175472D01*
X0178642Y0174507D01*
X0179150Y0173529D01*
X0179633Y0172540D01*
X0180092Y0171538D01*
X0180526Y0170526D01*
X0180935Y0169503D01*
X0181318Y0168470D01*
X0181677Y0167429D01*
X0182009Y0166379D01*
X0182316Y0165321D01*
X0182597Y0164255D01*
X0182851Y0163184D01*
X0183080Y0162106D01*
X0183281Y0161023D01*
X0183456Y0159936D01*
X0183604Y0158844D01*
X0183726Y0157749D01*
X0183820Y0156652D01*
X0183888Y0155552D01*
X0183928Y0154451D01*
X0183942Y0153350D01*
X0183928Y0152249D01*
X0183888Y0151148D01*
X0183820Y0150048D01*
X0183726Y0148951D01*
X0183604Y0147856D01*
X0183456Y0146764D01*
X0183281Y0145677D01*
X0183080Y0144594D01*
X0182851Y0143516D01*
X0182597Y0142445D01*
X0182316Y0141379D01*
X0182009Y0140321D01*
X0181677Y0139271D01*
X0181318Y0138230D01*
X0180935Y0137197D01*
X0180526Y0136174D01*
X0180092Y0135162D01*
X0179633Y0134160D01*
X0179150Y0133171D01*
X0178642Y0132193D01*
X0178111Y0131228D01*
X0177557Y0130276D01*
X0176979Y0129338D01*
X0176378Y0128415D01*
X0175755Y0127507D01*
X0175110Y0126614D01*
X0174443Y0125737D01*
X0173754Y0124877D01*
X0173045Y0124034D01*
X0172315Y0123209D01*
X0171566Y0122402D01*
X0170796Y0121614D01*
X0170008Y0120844D01*
X0169201Y0120095D01*
X0168376Y0119365D01*
X0167533Y0118656D01*
X0166673Y0117967D01*
X0165796Y0117300D01*
X0164903Y0116655D01*
X0163995Y0116032D01*
X0163072Y0115431D01*
X0162134Y0114853D01*
X0161182Y0114299D01*
X0160217Y0113768D01*
X0159239Y0113260D01*
X0158250Y0112777D01*
X0157248Y0112318D01*
X0156236Y0111884D01*
X0155213Y0111475D01*
X0154180Y0111092D01*
X0153139Y0110733D01*
X0152089Y0110401D01*
X0151031Y0110094D01*
X0149965Y0109813D01*
X0148894Y0109559D01*
X0147816Y0109330D01*
X0146733Y0109129D01*
X0145646Y0108954D01*
X0144554Y0108806D01*
X0143459Y0108684D01*
X0142362Y0108590D01*
X0141262Y0108522D01*
X0140161Y0108482D01*
X0139060Y0108468D01*
X0137959Y0108482D01*
X0136858Y0108522D01*
X0135758Y0108590D01*
X0134661Y0108684D01*
X0133566Y0108806D01*
X0132474Y0108954D01*
X0131387Y0109129D01*
X0130304Y0109330D01*
X0129226Y0109559D01*
X0128155Y0109813D01*
X0127089Y0110094D01*
X0126031Y0110401D01*
X0124981Y0110733D01*
X0123940Y0111092D01*
X0122907Y0111475D01*
X0121884Y0111884D01*
X0120872Y0112318D01*
X0119870Y0112777D01*
X0118881Y0113260D01*
X0117903Y0113768D01*
X0116938Y0114299D01*
X0115986Y0114853D01*
X0115048Y0115431D01*
X0114125Y0116032D01*
X0113217Y0116655D01*
X0112324Y0117300D01*
X0111447Y0117967D01*
X0110587Y0118656D01*
X0109744Y0119365D01*
X0108919Y0120095D01*
X0108112Y0120844D01*
X0107324Y0121614D01*
X0106554Y0122402D01*
X0105805Y0123209D01*
X0105075Y0124034D01*
X0104366Y0124877D01*
X0103677Y0125737D01*
X0103010Y0126614D01*
X0102365Y0127507D01*
X0101742Y0128415D01*
X0101141Y0129338D01*
X0100563Y0130276D01*
X0100009Y0131228D01*
X0099478Y0132193D01*
X0098970Y0133171D01*
X0098487Y0134160D01*
X0098028Y0135162D01*
X0097594Y0136174D01*
X0097185Y0137197D01*
X0096802Y0138230D01*
X0096443Y0139271D01*
X0096111Y0140321D01*
X0095804Y0141379D01*
X0095523Y0142445D01*
X0095269Y0143516D01*
X0095040Y0144594D01*
X0094839Y0145677D01*
X0094664Y0146764D01*
X0094516Y0147856D01*
X0094394Y0148951D01*
X0094300Y0150048D01*
X0094232Y0151148D01*
X0094192Y0152249D01*
X0094178Y0153350D01*
X0147138Y0147848D02*
X0147889Y0147848D01*
X0149390Y0147848D02*
X0152393Y0147848D01*
X0152393Y0147098D02*
X0152393Y0148599D01*
X0151642Y0150918D02*
X0152393Y0151668D01*
X0151642Y0150918D02*
X0148639Y0150918D01*
X0149390Y0151668D02*
X0149390Y0150167D01*
X0149390Y0147848D02*
X0149390Y0147098D01*
X0152393Y0145496D02*
X0152393Y0142494D01*
X0147889Y0142494D01*
X0151642Y0153236D02*
X0151642Y0153987D01*
X0152393Y0153987D01*
X0152393Y0153236D01*
X0151642Y0153236D01*
X0151642Y0155538D02*
X0152393Y0156289D01*
X0152393Y0157790D01*
X0151642Y0158541D01*
X0150891Y0158541D01*
X0150141Y0157790D01*
X0150141Y0157039D01*
X0150141Y0157790D02*
X0149390Y0158541D01*
X0148639Y0158541D01*
X0147889Y0157790D01*
X0147889Y0156289D01*
X0148639Y0155538D01*
X0147889Y0160142D02*
X0150891Y0160142D01*
X0152393Y0161643D01*
X0150891Y0163145D01*
X0147889Y0163145D01*
X0191150Y0190887D02*
X0191467Y0190570D01*
X0191784Y0190570D01*
X0192101Y0190887D01*
X0192101Y0192472D01*
X0191784Y0192472D02*
X0192418Y0192472D01*
X0193360Y0192155D02*
X0193677Y0192472D01*
X0194311Y0192472D01*
X0194628Y0192155D01*
X0194628Y0191838D01*
X0193360Y0190570D01*
X0194628Y0190570D01*
X0197085Y0193820D02*
X0200137Y0193820D01*
X0200137Y0199925D01*
X0197085Y0199925D01*
X0196067Y0198908D01*
X0196067Y0197890D01*
X0197085Y0196873D01*
X0200137Y0196873D01*
X0202144Y0196873D02*
X0202144Y0194838D01*
X0203162Y0193820D01*
X0205197Y0193820D01*
X0206214Y0194838D01*
X0206214Y0198908D01*
X0205197Y0199925D01*
X0203162Y0199925D01*
X0202144Y0198908D01*
X0202144Y0196873D02*
X0204179Y0196873D01*
X0197085Y0196873D02*
X0196067Y0195855D01*
X0196067Y0194838D01*
X0197085Y0193820D01*
X0015650Y0191508D02*
X0015650Y0190240D01*
X0015650Y0190874D02*
X0013748Y0190874D01*
X0014382Y0190240D01*
X0013748Y0189298D02*
X0013748Y0188664D01*
X0013748Y0188981D02*
X0015333Y0188981D01*
X0015650Y0188664D01*
X0015650Y0188347D01*
X0015333Y0188030D01*
D13*
X0064622Y0162631D02*
X0064622Y0158794D01*
X0065389Y0158027D01*
X0066924Y0158027D01*
X0067691Y0158794D01*
X0067691Y0162631D01*
X0069226Y0161096D02*
X0070761Y0162631D01*
X0070761Y0158027D01*
X0072295Y0158027D02*
X0069226Y0158027D01*
X0122523Y0198967D02*
X0123290Y0198200D01*
X0125592Y0198200D01*
X0125592Y0202804D01*
X0123290Y0202804D01*
X0122523Y0202037D01*
X0122523Y0198967D01*
X0127127Y0198200D02*
X0130196Y0198200D01*
X0130196Y0202804D01*
X0127127Y0202804D01*
X0128661Y0200502D02*
X0130196Y0200502D01*
X0131731Y0200502D02*
X0131731Y0202037D01*
X0132498Y0202804D01*
X0134800Y0202804D01*
X0134800Y0198200D01*
X0134800Y0199735D02*
X0132498Y0199735D01*
X0131731Y0200502D01*
X0133265Y0199735D02*
X0131731Y0198200D01*
X0054295Y0043087D02*
X0051993Y0040785D01*
X0055062Y0040785D01*
X0054295Y0038483D02*
X0054295Y0043087D01*
X0050458Y0043087D02*
X0050458Y0039251D01*
X0049691Y0038483D01*
X0048156Y0038483D01*
X0047389Y0039251D01*
X0047389Y0043087D01*
D14*
X0107784Y0039853D02*
X0107784Y0036150D01*
X0107784Y0037384D02*
X0109635Y0037384D01*
X0110252Y0038002D01*
X0110252Y0039236D01*
X0109635Y0039853D01*
X0107784Y0039853D01*
X0109018Y0037384D02*
X0110252Y0036150D01*
X0111467Y0036767D02*
X0111467Y0038002D01*
X0113318Y0038002D01*
X0113936Y0037384D01*
X0113936Y0036767D01*
X0113318Y0036150D01*
X0112084Y0036150D01*
X0111467Y0036767D01*
X0111467Y0038002D02*
X0112701Y0039236D01*
X0113936Y0039853D01*
X0112833Y0046150D02*
X0115302Y0046150D01*
X0116516Y0046767D02*
X0117133Y0046150D01*
X0118368Y0046150D01*
X0118985Y0046767D01*
X0118985Y0049853D01*
X0116516Y0049853D02*
X0116516Y0046767D01*
X0112833Y0046150D02*
X0112833Y0049853D01*
X0111619Y0049236D02*
X0111002Y0049853D01*
X0109150Y0049853D01*
X0109150Y0046150D01*
X0111002Y0046150D01*
X0111619Y0046767D01*
X0111619Y0047384D01*
X0111002Y0048002D01*
X0109150Y0048002D01*
X0111002Y0048002D02*
X0111619Y0048619D01*
X0111619Y0049236D01*
X0111918Y0055750D02*
X0111918Y0059453D01*
X0110683Y0058219D01*
X0109469Y0058836D02*
X0109469Y0057602D01*
X0108852Y0056984D01*
X0107000Y0056984D01*
X0107000Y0055750D02*
X0107000Y0059453D01*
X0108852Y0059453D01*
X0109469Y0058836D01*
X0108234Y0056984D02*
X0109469Y0055750D01*
X0110683Y0055750D02*
X0113152Y0055750D01*
X0120199Y0045533D02*
X0122668Y0045533D01*
X0123883Y0046767D02*
X0124500Y0046150D01*
X0125734Y0046150D01*
X0126351Y0046767D01*
X0126351Y0047384D01*
X0125734Y0048002D01*
X0124500Y0048002D01*
X0123883Y0048619D01*
X0123883Y0049236D01*
X0124500Y0049853D01*
X0125734Y0049853D01*
X0126351Y0049236D01*
X0127566Y0049853D02*
X0130034Y0049853D01*
X0128800Y0049853D02*
X0128800Y0046150D01*
X0131249Y0046150D02*
X0131249Y0048619D01*
X0132483Y0049853D01*
X0133718Y0048619D01*
X0133718Y0046150D01*
X0133718Y0048002D02*
X0131249Y0048002D01*
X0134932Y0049853D02*
X0137401Y0049853D01*
X0138615Y0049853D02*
X0138615Y0046150D01*
X0141084Y0046150D01*
X0139850Y0048002D02*
X0138615Y0048002D01*
X0138615Y0049853D02*
X0141084Y0049853D01*
X0136166Y0049853D02*
X0136166Y0046150D01*
X0141385Y0037853D02*
X0143236Y0037853D01*
X0143854Y0037236D01*
X0143854Y0036619D01*
X0143236Y0036002D01*
X0141385Y0036002D01*
X0141385Y0037853D02*
X0141385Y0034150D01*
X0143236Y0034150D01*
X0143854Y0034767D01*
X0143854Y0035384D01*
X0143236Y0036002D01*
X0145068Y0037853D02*
X0145068Y0034150D01*
X0147537Y0034150D01*
X0148751Y0034150D02*
X0151220Y0034150D01*
X0152434Y0033533D02*
X0154903Y0033533D01*
X0156117Y0034767D02*
X0156735Y0034150D01*
X0157969Y0034150D01*
X0158586Y0034767D01*
X0159801Y0034767D02*
X0159801Y0037236D01*
X0160418Y0037853D01*
X0161652Y0037853D01*
X0162269Y0037236D01*
X0162269Y0034767D01*
X0161652Y0034150D01*
X0160418Y0034150D01*
X0159801Y0034767D01*
X0158586Y0037236D02*
X0157969Y0037853D01*
X0156735Y0037853D01*
X0156117Y0037236D01*
X0156117Y0034767D01*
X0151220Y0037853D02*
X0148751Y0037853D01*
X0148751Y0034150D01*
X0148751Y0036002D02*
X0149985Y0036002D01*
X0163484Y0034150D02*
X0163484Y0037853D01*
X0165952Y0034150D01*
X0165952Y0037853D01*
X0167167Y0037853D02*
X0169636Y0034150D01*
X0169636Y0037853D01*
X0167167Y0037853D02*
X0167167Y0034150D01*
X0180384Y0033850D02*
X0180384Y0037553D01*
X0182235Y0037553D01*
X0182852Y0036936D01*
X0182852Y0035702D01*
X0182235Y0035084D01*
X0180384Y0035084D01*
X0181618Y0035084D02*
X0182852Y0033850D01*
X0182900Y0033700D02*
X0186036Y0030564D01*
X0184468Y0030564D02*
X0184468Y0033700D01*
X0184684Y0033850D02*
X0185918Y0033850D01*
X0186536Y0034467D01*
X0186536Y0036936D01*
X0185918Y0037553D01*
X0184684Y0037553D01*
X0184067Y0036936D01*
X0184067Y0036319D01*
X0184684Y0035702D01*
X0186536Y0035702D01*
X0186036Y0033700D02*
X0182900Y0030564D01*
X0182900Y0032132D02*
X0186036Y0032132D01*
X0184684Y0033850D02*
X0184067Y0034467D01*
X0204850Y0034567D02*
X0205467Y0033950D01*
X0206702Y0033950D01*
X0207319Y0034567D01*
X0208533Y0033950D02*
X0211002Y0033950D01*
X0209768Y0033950D02*
X0209768Y0037653D01*
X0208533Y0036419D01*
X0207319Y0037036D02*
X0206702Y0037653D01*
X0205467Y0037653D01*
X0204850Y0037036D01*
X0204850Y0034567D01*
X0210000Y0028884D02*
X0210000Y0024964D01*
X0210784Y0024180D01*
X0212352Y0024180D01*
X0213136Y0024964D01*
X0213136Y0028884D01*
X0214604Y0028100D02*
X0215388Y0028884D01*
X0216956Y0028884D01*
X0217740Y0028100D01*
X0217740Y0027316D01*
X0214604Y0024180D01*
X0217740Y0024180D01*
X0218569Y0056150D02*
X0217335Y0057384D01*
X0217952Y0057384D02*
X0216101Y0057384D01*
X0216101Y0056150D02*
X0216101Y0059853D01*
X0217952Y0059853D01*
X0218569Y0059236D01*
X0218569Y0058002D01*
X0217952Y0057384D01*
X0219784Y0056150D02*
X0222252Y0056150D01*
X0221018Y0056150D02*
X0221018Y0059853D01*
X0219784Y0058619D01*
X0223467Y0058619D02*
X0224084Y0058002D01*
X0225936Y0058002D01*
X0225936Y0059236D02*
X0225318Y0059853D01*
X0224084Y0059853D01*
X0223467Y0059236D01*
X0223467Y0058619D01*
X0223467Y0056767D02*
X0224084Y0056150D01*
X0225318Y0056150D01*
X0225936Y0056767D01*
X0225936Y0059236D01*
X0226368Y0073150D02*
X0225133Y0073150D01*
X0224516Y0073767D01*
X0226985Y0076236D01*
X0226985Y0073767D01*
X0226368Y0073150D01*
X0224516Y0073767D02*
X0224516Y0076236D01*
X0225133Y0076853D01*
X0226368Y0076853D01*
X0226985Y0076236D01*
X0223302Y0073150D02*
X0220833Y0073150D01*
X0219619Y0073150D02*
X0218384Y0074384D01*
X0219002Y0074384D02*
X0217150Y0074384D01*
X0217150Y0073150D02*
X0217150Y0076853D01*
X0219002Y0076853D01*
X0219619Y0076236D01*
X0219619Y0075002D01*
X0219002Y0074384D01*
X0220833Y0075619D02*
X0222068Y0076853D01*
X0222068Y0073150D01*
X0173936Y0058236D02*
X0173936Y0057619D01*
X0171467Y0055150D01*
X0173936Y0055150D01*
X0173936Y0058236D02*
X0173318Y0058853D01*
X0172084Y0058853D01*
X0171467Y0058236D01*
X0170252Y0058236D02*
X0170252Y0057002D01*
X0169635Y0056384D01*
X0167784Y0056384D01*
X0167784Y0055150D02*
X0167784Y0058853D01*
X0169635Y0058853D01*
X0170252Y0058236D01*
X0169018Y0056384D02*
X0170252Y0055150D01*
X0151740Y0024086D02*
X0151740Y0021617D01*
X0151740Y0022851D02*
X0148037Y0022851D01*
X0149271Y0021617D01*
X0112685Y0071150D02*
X0112685Y0074853D01*
X0110833Y0073002D01*
X0113302Y0073002D01*
X0109619Y0074236D02*
X0109002Y0074853D01*
X0107767Y0074853D01*
X0107150Y0074236D01*
X0107150Y0071767D01*
X0107767Y0071150D01*
X0109002Y0071150D01*
X0109619Y0071767D01*
X0110619Y0086150D02*
X0109384Y0087384D01*
X0110002Y0087384D02*
X0108150Y0087384D01*
X0108150Y0086150D02*
X0108150Y0089853D01*
X0110002Y0089853D01*
X0110619Y0089236D01*
X0110619Y0088002D01*
X0110002Y0087384D01*
X0111833Y0086150D02*
X0114302Y0086150D01*
X0115516Y0086150D02*
X0117985Y0086150D01*
X0116751Y0086150D02*
X0116751Y0089853D01*
X0115516Y0088619D01*
X0113068Y0089853D02*
X0113068Y0086150D01*
X0111833Y0088619D02*
X0113068Y0089853D01*
X0113318Y0098150D02*
X0112084Y0098150D01*
X0111467Y0098767D01*
X0111467Y0100002D01*
X0113318Y0100002D01*
X0113936Y0099384D01*
X0113936Y0098767D01*
X0113318Y0098150D01*
X0111467Y0100002D02*
X0112701Y0101236D01*
X0113936Y0101853D01*
X0110252Y0101236D02*
X0109635Y0101853D01*
X0108401Y0101853D01*
X0107784Y0101236D01*
X0107784Y0098767D01*
X0108401Y0098150D01*
X0109635Y0098150D01*
X0110252Y0098767D01*
X0119150Y0104767D02*
X0119150Y0107236D01*
X0119767Y0107853D01*
X0121002Y0107853D01*
X0121619Y0107236D01*
X0122833Y0107236D02*
X0123450Y0107853D01*
X0124685Y0107853D01*
X0125302Y0107236D01*
X0125302Y0106619D01*
X0122833Y0104150D01*
X0125302Y0104150D01*
X0126516Y0106002D02*
X0128985Y0106002D01*
X0128368Y0107853D02*
X0128368Y0104150D01*
X0126516Y0106002D02*
X0128368Y0107853D01*
X0121619Y0104767D02*
X0121002Y0104150D01*
X0119767Y0104150D01*
X0119150Y0104767D01*
X0112936Y0112236D02*
X0110467Y0109767D01*
X0110467Y0109150D01*
X0109252Y0109767D02*
X0108635Y0109150D01*
X0107401Y0109150D01*
X0106784Y0109767D01*
X0106784Y0112236D01*
X0107401Y0112853D01*
X0108635Y0112853D01*
X0109252Y0112236D01*
X0110467Y0112853D02*
X0112936Y0112853D01*
X0112936Y0112236D01*
X0144993Y0102094D02*
X0144993Y0101410D01*
X0145677Y0100726D01*
X0146361Y0100726D01*
X0148071Y0102436D01*
X0148444Y0101378D02*
X0149129Y0101378D01*
X0149813Y0100694D01*
X0149813Y0100010D01*
X0149471Y0099668D01*
X0148786Y0099668D01*
X0148786Y0098984D01*
X0148444Y0098642D01*
X0147760Y0098642D01*
X0147076Y0099326D01*
X0147076Y0100010D01*
X0148444Y0100010D02*
X0148786Y0099668D01*
X0144993Y0102094D02*
X0146703Y0103804D01*
X0046936Y0118767D02*
X0046318Y0118150D01*
X0045084Y0118150D01*
X0044467Y0118767D01*
X0043252Y0118150D02*
X0040784Y0118150D01*
X0043252Y0120619D01*
X0043252Y0121236D01*
X0042635Y0121853D01*
X0041401Y0121853D01*
X0040784Y0121236D01*
X0039569Y0121236D02*
X0038952Y0121853D01*
X0037718Y0121853D01*
X0037101Y0121236D01*
X0037101Y0118767D01*
X0037718Y0118150D01*
X0038952Y0118150D01*
X0039569Y0118767D01*
X0044467Y0121236D02*
X0045084Y0121853D01*
X0046318Y0121853D01*
X0046936Y0121236D01*
X0046936Y0120619D01*
X0046318Y0120002D01*
X0046936Y0119384D01*
X0046936Y0118767D01*
X0046318Y0120002D02*
X0045701Y0120002D01*
D15*
X0042402Y0168283D02*
X0019173Y0168283D01*
X0019173Y0203717D01*
X0062480Y0203717D01*
X0062480Y0189543D01*
X0062480Y0182457D02*
X0062480Y0168283D01*
X0051850Y0168283D01*
X0190183Y0157981D02*
X0190183Y0140659D01*
X0196089Y0140659D01*
X0196089Y0157981D01*
X0190183Y0157981D01*
X0190183Y0189084D01*
X0225223Y0189084D01*
X0225617Y0189084D02*
X0225617Y0109556D01*
X0190183Y0109556D01*
X0190183Y0140659D01*
X0196975Y0166820D02*
X0196975Y0171820D01*
X0113360Y0028720D02*
X0109226Y0028720D01*
X0113360Y0028720D02*
X0117690Y0024389D01*
X0117690Y0007854D01*
X0109423Y0007854D01*
X0105092Y0007854D02*
X0096824Y0007854D01*
X0096824Y0024389D01*
X0101155Y0028720D01*
X0105092Y0028720D01*
X0109226Y0027933D02*
X0109460Y0027879D01*
X0109694Y0027821D01*
X0109925Y0027756D01*
X0110155Y0027686D01*
X0110383Y0027610D01*
X0110610Y0027529D01*
X0110834Y0027443D01*
X0111056Y0027350D01*
X0111276Y0027253D01*
X0111493Y0027150D01*
X0111708Y0027042D01*
X0111920Y0026929D01*
X0112130Y0026810D01*
X0112336Y0026687D01*
X0112539Y0026559D01*
X0112739Y0026425D01*
X0112936Y0026287D01*
X0113130Y0026144D01*
X0113320Y0025997D01*
X0113506Y0025845D01*
X0113688Y0025688D01*
X0113867Y0025527D01*
X0114041Y0025362D01*
X0114212Y0025192D01*
X0114378Y0025019D01*
X0114541Y0024841D01*
X0114698Y0024660D01*
X0114852Y0024474D01*
X0115000Y0024285D01*
X0115144Y0024093D01*
X0115284Y0023897D01*
X0115418Y0023698D01*
X0115548Y0023495D01*
X0115673Y0023290D01*
X0115793Y0023081D01*
X0115907Y0022870D01*
X0116017Y0022656D01*
X0116121Y0022439D01*
X0116220Y0022220D01*
X0116313Y0021998D01*
X0116401Y0021774D01*
X0116484Y0021549D01*
X0116561Y0021321D01*
X0116632Y0021091D01*
X0116698Y0020860D01*
X0116759Y0020627D01*
X0116813Y0020393D01*
X0116862Y0020158D01*
X0116905Y0019921D01*
X0116943Y0019684D01*
X0116974Y0019445D01*
X0117000Y0019206D01*
X0117020Y0018966D01*
X0117034Y0018726D01*
X0117043Y0018486D01*
X0117045Y0018246D01*
X0117042Y0018005D01*
X0117032Y0017765D01*
X0117017Y0017525D01*
X0116996Y0017285D01*
X0116970Y0017046D01*
X0116937Y0016808D01*
X0116899Y0016571D01*
X0116855Y0016334D01*
X0116805Y0016099D01*
X0116749Y0015865D01*
X0116688Y0015633D01*
X0116621Y0015402D01*
X0116549Y0015172D01*
X0116471Y0014945D01*
X0116387Y0014719D01*
X0116298Y0014496D01*
X0116204Y0014275D01*
X0116104Y0014056D01*
X0115999Y0013840D01*
X0115889Y0013626D01*
X0115774Y0013415D01*
X0115653Y0013207D01*
X0115528Y0013002D01*
X0115397Y0012800D01*
X0115262Y0012601D01*
X0115122Y0012406D01*
X0114977Y0012214D01*
X0114827Y0012026D01*
X0114673Y0011841D01*
X0114515Y0011660D01*
X0114352Y0011483D01*
X0114185Y0011310D01*
X0114014Y0011141D01*
X0113838Y0010977D01*
X0113659Y0010816D01*
X0113476Y0010661D01*
X0113289Y0010509D01*
X0113099Y0010362D01*
X0112905Y0010220D01*
X0112707Y0010083D01*
X0112507Y0009950D01*
X0112303Y0009823D01*
X0112096Y0009700D01*
X0111886Y0009583D01*
X0111674Y0009470D01*
X0111459Y0009363D01*
X0111241Y0009261D01*
X0111021Y0009164D01*
X0110798Y0009073D01*
X0110573Y0008987D01*
X0110347Y0008907D01*
X0110118Y0008832D01*
X0109888Y0008763D01*
X0109656Y0008700D01*
X0109423Y0008642D01*
X0105092Y0008641D02*
X0104860Y0008694D01*
X0104629Y0008753D01*
X0104400Y0008817D01*
X0104173Y0008888D01*
X0103947Y0008963D01*
X0103723Y0009044D01*
X0103501Y0009131D01*
X0103282Y0009223D01*
X0103065Y0009320D01*
X0102850Y0009423D01*
X0102638Y0009531D01*
X0102428Y0009644D01*
X0102221Y0009762D01*
X0102018Y0009885D01*
X0101817Y0010013D01*
X0101619Y0010146D01*
X0101425Y0010283D01*
X0101234Y0010426D01*
X0101047Y0010573D01*
X0100863Y0010724D01*
X0100684Y0010880D01*
X0100508Y0011040D01*
X0100336Y0011205D01*
X0100168Y0011374D01*
X0100004Y0011546D01*
X0099844Y0011723D01*
X0099689Y0011904D01*
X0099538Y0012088D01*
X0099392Y0012276D01*
X0099251Y0012467D01*
X0099114Y0012662D01*
X0098982Y0012860D01*
X0098855Y0013061D01*
X0098732Y0013266D01*
X0098615Y0013473D01*
X0098503Y0013683D01*
X0098396Y0013896D01*
X0098294Y0014111D01*
X0098198Y0014328D01*
X0098107Y0014548D01*
X0098021Y0014770D01*
X0097941Y0014995D01*
X0097866Y0015221D01*
X0097797Y0015448D01*
X0097733Y0015678D01*
X0097675Y0015909D01*
X0097623Y0016141D01*
X0097576Y0016374D01*
X0097535Y0016609D01*
X0097500Y0016844D01*
X0097471Y0017080D01*
X0097447Y0017317D01*
X0097429Y0017555D01*
X0097417Y0017792D01*
X0097411Y0018030D01*
X0097411Y0018268D01*
X0097416Y0018506D01*
X0097427Y0018744D01*
X0097444Y0018982D01*
X0097467Y0019219D01*
X0097495Y0019455D01*
X0097530Y0019691D01*
X0097570Y0019925D01*
X0097615Y0020159D01*
X0097667Y0020391D01*
X0097724Y0020622D01*
X0097787Y0020852D01*
X0097855Y0021080D01*
X0097929Y0021306D01*
X0098008Y0021531D01*
X0098093Y0021753D01*
X0098183Y0021974D01*
X0098279Y0022192D01*
X0098380Y0022407D01*
X0098486Y0022620D01*
X0098597Y0022831D01*
X0098714Y0023038D01*
X0098835Y0023243D01*
X0098962Y0023445D01*
X0099093Y0023643D01*
X0099229Y0023839D01*
X0099370Y0024031D01*
X0099515Y0024219D01*
X0099665Y0024404D01*
X0099820Y0024585D01*
X0099979Y0024762D01*
X0100142Y0024936D01*
X0100309Y0025105D01*
X0100481Y0025270D01*
X0100656Y0025431D01*
X0100835Y0025588D01*
X0101018Y0025740D01*
X0101205Y0025888D01*
X0101395Y0026031D01*
X0101589Y0026169D01*
X0101786Y0026303D01*
X0101986Y0026431D01*
X0102189Y0026555D01*
X0102396Y0026674D01*
X0102605Y0026788D01*
X0102817Y0026897D01*
X0103031Y0027000D01*
X0103248Y0027098D01*
X0103467Y0027191D01*
X0103689Y0027278D01*
X0103912Y0027360D01*
X0104137Y0027437D01*
X0104365Y0027508D01*
X0104594Y0027573D01*
X0104824Y0027633D01*
X0105056Y0027687D01*
X0105289Y0027736D01*
D16*
X0140290Y0032150D02*
X0140290Y0007150D01*
X0165490Y0007150D01*
X0165490Y0032150D01*
X0140290Y0032150D01*
X0144890Y0027650D02*
X0160890Y0027650D01*
X0160890Y0021650D01*
X0144890Y0021650D01*
X0144890Y0027650D01*
X0144890Y0017650D02*
X0160890Y0017650D01*
X0160890Y0011650D01*
X0144890Y0011650D01*
X0144890Y0017650D01*
X0148586Y0054363D02*
X0148588Y0054438D01*
X0148594Y0054512D01*
X0148604Y0054586D01*
X0148617Y0054659D01*
X0148635Y0054732D01*
X0148656Y0054803D01*
X0148681Y0054874D01*
X0148710Y0054943D01*
X0148743Y0055010D01*
X0148779Y0055075D01*
X0148818Y0055139D01*
X0148860Y0055200D01*
X0148906Y0055259D01*
X0148955Y0055316D01*
X0149007Y0055369D01*
X0149061Y0055420D01*
X0149118Y0055469D01*
X0149178Y0055513D01*
X0149240Y0055555D01*
X0149304Y0055594D01*
X0149370Y0055629D01*
X0149437Y0055660D01*
X0149507Y0055688D01*
X0149577Y0055712D01*
X0149649Y0055733D01*
X0149722Y0055749D01*
X0149795Y0055762D01*
X0149870Y0055771D01*
X0149944Y0055776D01*
X0150019Y0055777D01*
X0150093Y0055774D01*
X0150168Y0055767D01*
X0150241Y0055756D01*
X0150315Y0055742D01*
X0150387Y0055723D01*
X0150458Y0055701D01*
X0150528Y0055675D01*
X0150597Y0055645D01*
X0150663Y0055612D01*
X0150728Y0055575D01*
X0150791Y0055535D01*
X0150852Y0055491D01*
X0150910Y0055445D01*
X0150966Y0055395D01*
X0151019Y0055343D01*
X0151070Y0055288D01*
X0151117Y0055230D01*
X0151161Y0055170D01*
X0151202Y0055107D01*
X0151240Y0055043D01*
X0151274Y0054977D01*
X0151305Y0054908D01*
X0151332Y0054839D01*
X0151355Y0054768D01*
X0151374Y0054696D01*
X0151390Y0054623D01*
X0151402Y0054549D01*
X0151410Y0054475D01*
X0151414Y0054400D01*
X0151414Y0054326D01*
X0151410Y0054251D01*
X0151402Y0054177D01*
X0151390Y0054103D01*
X0151374Y0054030D01*
X0151355Y0053958D01*
X0151332Y0053887D01*
X0151305Y0053818D01*
X0151274Y0053749D01*
X0151240Y0053683D01*
X0151202Y0053619D01*
X0151161Y0053556D01*
X0151117Y0053496D01*
X0151070Y0053438D01*
X0151019Y0053383D01*
X0150966Y0053331D01*
X0150910Y0053281D01*
X0150852Y0053235D01*
X0150791Y0053191D01*
X0150728Y0053151D01*
X0150663Y0053114D01*
X0150597Y0053081D01*
X0150528Y0053051D01*
X0150458Y0053025D01*
X0150387Y0053003D01*
X0150315Y0052984D01*
X0150241Y0052970D01*
X0150168Y0052959D01*
X0150093Y0052952D01*
X0150019Y0052949D01*
X0149944Y0052950D01*
X0149870Y0052955D01*
X0149795Y0052964D01*
X0149722Y0052977D01*
X0149649Y0052993D01*
X0149577Y0053014D01*
X0149507Y0053038D01*
X0149437Y0053066D01*
X0149370Y0053097D01*
X0149304Y0053132D01*
X0149240Y0053171D01*
X0149178Y0053213D01*
X0149118Y0053257D01*
X0149061Y0053306D01*
X0149007Y0053357D01*
X0148955Y0053410D01*
X0148906Y0053467D01*
X0148860Y0053526D01*
X0148818Y0053587D01*
X0148779Y0053651D01*
X0148743Y0053716D01*
X0148710Y0053783D01*
X0148681Y0053852D01*
X0148656Y0053923D01*
X0148635Y0053994D01*
X0148617Y0054067D01*
X0148604Y0054140D01*
X0148594Y0054214D01*
X0148588Y0054288D01*
X0148586Y0054363D01*
X0149012Y0057473D02*
X0150988Y0057473D01*
X0169515Y0076000D01*
X0150000Y0095515D01*
X0130485Y0076000D01*
X0149012Y0057473D01*
X0187350Y0030930D02*
X0204150Y0030930D01*
X0204150Y0010130D02*
X0187350Y0010130D01*
X0036000Y0122500D02*
X0033500Y0120000D01*
X0028500Y0120000D01*
X0026000Y0122500D01*
X0026000Y0127500D01*
X0028500Y0130000D01*
X0026000Y0132500D01*
X0026000Y0137500D01*
X0028500Y0140000D01*
X0026000Y0142500D01*
X0026000Y0147500D01*
X0028500Y0150000D01*
X0026000Y0152500D01*
X0026000Y0157500D01*
X0028500Y0160000D01*
X0033500Y0160000D01*
X0036000Y0157500D01*
X0036000Y0152500D01*
X0033500Y0150000D01*
X0036000Y0147500D01*
X0036000Y0142500D01*
X0033500Y0140000D01*
X0028500Y0140000D01*
X0033500Y0140000D02*
X0036000Y0137500D01*
X0036000Y0132500D01*
X0033500Y0130000D01*
X0036000Y0127500D01*
X0036000Y0122500D01*
X0033500Y0130000D02*
X0028500Y0130000D01*
X0028500Y0150000D02*
X0033500Y0150000D01*
D17*
X0157890Y0024650D03*
X0157890Y0014650D03*
D18*
X0168824Y0151244D02*
X0168824Y0155456D01*
X0093194Y0153350D02*
X0088981Y0153350D01*
X0091088Y0151244D02*
X0091088Y0155456D01*
D19*
X0094539Y0010378D02*
X0094789Y0010378D01*
X0095039Y0010128D01*
X0095290Y0010378D01*
X0095540Y0010378D01*
X0095790Y0010128D01*
X0095790Y0009627D01*
X0095540Y0009377D01*
X0095540Y0008905D02*
X0095790Y0008654D01*
X0095790Y0008154D01*
X0095540Y0007904D01*
X0094539Y0007904D01*
X0094289Y0008154D01*
X0094289Y0008654D01*
X0094539Y0008905D01*
X0094539Y0009377D02*
X0094289Y0009627D01*
X0094289Y0010128D01*
X0094539Y0010378D01*
X0095039Y0010128D02*
X0095039Y0009877D01*
D20*
X0128215Y0039293D03*
X0128215Y0044707D03*
X0153485Y0044707D03*
X0153485Y0039293D03*
D21*
X0155011Y0042000D03*
X0126689Y0042000D03*
D22*
X0068717Y0020567D02*
X0068717Y0008756D01*
X0062811Y0008756D01*
X0062811Y0020567D01*
X0056906Y0014661D02*
X0051000Y0014661D01*
X0051000Y0008756D01*
X0045094Y0008756D01*
X0045094Y0014661D01*
X0039189Y0014661D01*
X0039189Y0008756D01*
X0033283Y0008756D01*
X0033283Y0014661D01*
X0056906Y0014661D02*
X0056906Y0008756D01*
X0062811Y0008756D01*
M02*
