%
M48
M72
T01C0.01200
T02C0.03543
T03C0.04000
T04C0.05118
T05C0.07874
%
T01
X103700Y33100
X101600Y36700
X108800Y43900
X108500Y61600
X116600Y75100
X131300Y67000
X135800Y62500
X144800Y67300
X148400Y65200
X155000Y66700
X159500Y71200
X149900Y59200
X127700Y45400
X127700Y34600
X134300Y21100
X173300Y44200
X184400Y60100
X194600Y46900
X198500Y38500
X192200Y25300
X206600Y76000
X162200Y100900
X148400Y92800
X132800Y92200
X98600Y91900
X82100Y87700
X72800Y91900
X173600Y118300
T02
X86882Y160000
X165622Y160000
T03
X202000Y112000
X202000Y122000
X202000Y132000
X202000Y142000
X202000Y152000
X212000Y152000
X212000Y142000
X212000Y132000
X212000Y122000
X212000Y112000
X31000Y157000
X31000Y147000
X31000Y137000
X31000Y127000
T04
X47126Y169102
X36102Y188000
X58937Y188000
T05
X72000Y199000
X216000Y199000
X216000Y11000
X85000Y11000
M30
