%
M48
M72
T01C0.01200
T02C0.02756
T03C0.03200
T04C0.03543
T05C0.04000
T06C0.04400
T07C0.05000
T08C0.05118
T09C0.13000
%
T01
X110628Y124933
X108528Y114733
X99228Y101233
X101328Y91333
X83928Y83533
X80628Y28633
T02
X314428Y112433
X314428Y102433
T03
X64428Y132433
X64428Y122433
X64428Y112433
X64428Y102433
X64428Y92433
X64428Y82433
X64428Y72433
X79428Y87433
X94428Y87433
X104428Y87433
X114428Y87433
X114578Y72833
X104428Y62433
X94428Y62433
X114428Y57433
X79428Y37433
X69428Y27433
X69428Y17433
X49428Y22433
X39428Y22433
X39428Y52433
X49428Y52433
X34428Y72433
X34428Y82433
X34428Y92433
X34428Y102433
X34428Y112433
X34428Y122433
X34428Y132433
X114428Y102433
X119428Y127433
X129428Y127433
X164428Y102433
X179428Y102433
X189428Y102433
X199428Y102433
X209428Y102433
X164428Y87433
X164578Y72833
X179428Y62433
X189428Y62433
X199428Y62433
X209428Y62433
X164428Y57433
T04
X224310Y62433
X303051Y62433
T05
X314428Y197433
X314428Y187433
X314428Y177433
X314428Y167433
X109428Y37433
X119428Y37433
X129428Y37433
X139428Y37433
X149428Y37433
X149428Y27433
X139428Y27433
X129428Y27433
X119428Y27433
X109428Y27433
T06
X199428Y117433
X209428Y117433
X219428Y117433
X244428Y117433
X254428Y117433
X264428Y117433
X174428Y117433
X164428Y117433
X154428Y117433
T07
X184428Y23133
X194428Y23133
X204428Y23133
T08
X297302Y156331
X308326Y137433
X285491Y137433
T09
X254428Y186433
X209428Y186433
X164428Y186433
M30
