G75*
%MOIN*%
%OFA0B0*%
%FSLAX25Y25*%
%IPPOS*%
%LPD*%
%AMOC8*
5,1,8,0,0,1.08239X$1,22.5*
%
%ADD10C,0.00000*%
%ADD11OC8,0.05600*%
%ADD12R,0.06500X0.06500*%
%ADD13C,0.06500*%
%ADD14OC8,0.06600*%
%ADD15R,0.07500X0.07500*%
%ADD16C,0.07500*%
%ADD17C,0.05200*%
%ADD18OC8,0.05200*%
%ADD19C,0.06000*%
%ADD20C,0.07400*%
%ADD21C,0.07677*%
%ADD22R,0.07600X0.07600*%
%ADD23OC8,0.07600*%
%ADD24C,0.06600*%
%ADD25C,0.03000*%
%ADD26C,0.03200*%
%ADD27C,0.00600*%
%ADD28C,0.02400*%
D10*
X0001000Y0012433D02*
X0001000Y0207394D01*
X0309701Y0207394D01*
X0309701Y0012433D01*
X0001000Y0012433D01*
X0060063Y0082433D02*
X0060065Y0082558D01*
X0060071Y0082683D01*
X0060081Y0082807D01*
X0060095Y0082931D01*
X0060112Y0083055D01*
X0060134Y0083178D01*
X0060160Y0083300D01*
X0060189Y0083422D01*
X0060222Y0083542D01*
X0060260Y0083661D01*
X0060300Y0083780D01*
X0060345Y0083896D01*
X0060393Y0084011D01*
X0060445Y0084125D01*
X0060501Y0084237D01*
X0060560Y0084347D01*
X0060622Y0084455D01*
X0060688Y0084562D01*
X0060757Y0084666D01*
X0060830Y0084767D01*
X0060905Y0084867D01*
X0060984Y0084964D01*
X0061066Y0085058D01*
X0061151Y0085150D01*
X0061238Y0085239D01*
X0061329Y0085325D01*
X0061422Y0085408D01*
X0061518Y0085489D01*
X0061616Y0085566D01*
X0061716Y0085640D01*
X0061819Y0085711D01*
X0061924Y0085778D01*
X0062032Y0085843D01*
X0062141Y0085903D01*
X0062252Y0085961D01*
X0062365Y0086014D01*
X0062479Y0086064D01*
X0062595Y0086111D01*
X0062712Y0086153D01*
X0062831Y0086192D01*
X0062951Y0086228D01*
X0063072Y0086259D01*
X0063194Y0086287D01*
X0063316Y0086310D01*
X0063440Y0086330D01*
X0063564Y0086346D01*
X0063688Y0086358D01*
X0063813Y0086366D01*
X0063938Y0086370D01*
X0064062Y0086370D01*
X0064187Y0086366D01*
X0064312Y0086358D01*
X0064436Y0086346D01*
X0064560Y0086330D01*
X0064684Y0086310D01*
X0064806Y0086287D01*
X0064928Y0086259D01*
X0065049Y0086228D01*
X0065169Y0086192D01*
X0065288Y0086153D01*
X0065405Y0086111D01*
X0065521Y0086064D01*
X0065635Y0086014D01*
X0065748Y0085961D01*
X0065859Y0085903D01*
X0065969Y0085843D01*
X0066076Y0085778D01*
X0066181Y0085711D01*
X0066284Y0085640D01*
X0066384Y0085566D01*
X0066482Y0085489D01*
X0066578Y0085408D01*
X0066671Y0085325D01*
X0066762Y0085239D01*
X0066849Y0085150D01*
X0066934Y0085058D01*
X0067016Y0084964D01*
X0067095Y0084867D01*
X0067170Y0084767D01*
X0067243Y0084666D01*
X0067312Y0084562D01*
X0067378Y0084455D01*
X0067440Y0084347D01*
X0067499Y0084237D01*
X0067555Y0084125D01*
X0067607Y0084011D01*
X0067655Y0083896D01*
X0067700Y0083780D01*
X0067740Y0083661D01*
X0067778Y0083542D01*
X0067811Y0083422D01*
X0067840Y0083300D01*
X0067866Y0083178D01*
X0067888Y0083055D01*
X0067905Y0082931D01*
X0067919Y0082807D01*
X0067929Y0082683D01*
X0067935Y0082558D01*
X0067937Y0082433D01*
X0067935Y0082308D01*
X0067929Y0082183D01*
X0067919Y0082059D01*
X0067905Y0081935D01*
X0067888Y0081811D01*
X0067866Y0081688D01*
X0067840Y0081566D01*
X0067811Y0081444D01*
X0067778Y0081324D01*
X0067740Y0081205D01*
X0067700Y0081086D01*
X0067655Y0080970D01*
X0067607Y0080855D01*
X0067555Y0080741D01*
X0067499Y0080629D01*
X0067440Y0080519D01*
X0067378Y0080411D01*
X0067312Y0080304D01*
X0067243Y0080200D01*
X0067170Y0080099D01*
X0067095Y0079999D01*
X0067016Y0079902D01*
X0066934Y0079808D01*
X0066849Y0079716D01*
X0066762Y0079627D01*
X0066671Y0079541D01*
X0066578Y0079458D01*
X0066482Y0079377D01*
X0066384Y0079300D01*
X0066284Y0079226D01*
X0066181Y0079155D01*
X0066076Y0079088D01*
X0065968Y0079023D01*
X0065859Y0078963D01*
X0065748Y0078905D01*
X0065635Y0078852D01*
X0065521Y0078802D01*
X0065405Y0078755D01*
X0065288Y0078713D01*
X0065169Y0078674D01*
X0065049Y0078638D01*
X0064928Y0078607D01*
X0064806Y0078579D01*
X0064684Y0078556D01*
X0064560Y0078536D01*
X0064436Y0078520D01*
X0064312Y0078508D01*
X0064187Y0078500D01*
X0064062Y0078496D01*
X0063938Y0078496D01*
X0063813Y0078500D01*
X0063688Y0078508D01*
X0063564Y0078520D01*
X0063440Y0078536D01*
X0063316Y0078556D01*
X0063194Y0078579D01*
X0063072Y0078607D01*
X0062951Y0078638D01*
X0062831Y0078674D01*
X0062712Y0078713D01*
X0062595Y0078755D01*
X0062479Y0078802D01*
X0062365Y0078852D01*
X0062252Y0078905D01*
X0062141Y0078963D01*
X0062031Y0079023D01*
X0061924Y0079088D01*
X0061819Y0079155D01*
X0061716Y0079226D01*
X0061616Y0079300D01*
X0061518Y0079377D01*
X0061422Y0079458D01*
X0061329Y0079541D01*
X0061238Y0079627D01*
X0061151Y0079716D01*
X0061066Y0079808D01*
X0060984Y0079902D01*
X0060905Y0079999D01*
X0060830Y0080099D01*
X0060757Y0080200D01*
X0060688Y0080304D01*
X0060622Y0080411D01*
X0060560Y0080519D01*
X0060501Y0080629D01*
X0060445Y0080741D01*
X0060393Y0080855D01*
X0060345Y0080970D01*
X0060300Y0081086D01*
X0060260Y0081205D01*
X0060222Y0081324D01*
X0060189Y0081444D01*
X0060160Y0081566D01*
X0060134Y0081688D01*
X0060112Y0081811D01*
X0060095Y0081935D01*
X0060081Y0082059D01*
X0060071Y0082183D01*
X0060065Y0082308D01*
X0060063Y0082433D01*
X0045063Y0127433D02*
X0045065Y0127558D01*
X0045071Y0127683D01*
X0045081Y0127807D01*
X0045095Y0127931D01*
X0045112Y0128055D01*
X0045134Y0128178D01*
X0045160Y0128300D01*
X0045189Y0128422D01*
X0045222Y0128542D01*
X0045260Y0128661D01*
X0045300Y0128780D01*
X0045345Y0128896D01*
X0045393Y0129011D01*
X0045445Y0129125D01*
X0045501Y0129237D01*
X0045560Y0129347D01*
X0045622Y0129455D01*
X0045688Y0129562D01*
X0045757Y0129666D01*
X0045830Y0129767D01*
X0045905Y0129867D01*
X0045984Y0129964D01*
X0046066Y0130058D01*
X0046151Y0130150D01*
X0046238Y0130239D01*
X0046329Y0130325D01*
X0046422Y0130408D01*
X0046518Y0130489D01*
X0046616Y0130566D01*
X0046716Y0130640D01*
X0046819Y0130711D01*
X0046924Y0130778D01*
X0047032Y0130843D01*
X0047141Y0130903D01*
X0047252Y0130961D01*
X0047365Y0131014D01*
X0047479Y0131064D01*
X0047595Y0131111D01*
X0047712Y0131153D01*
X0047831Y0131192D01*
X0047951Y0131228D01*
X0048072Y0131259D01*
X0048194Y0131287D01*
X0048316Y0131310D01*
X0048440Y0131330D01*
X0048564Y0131346D01*
X0048688Y0131358D01*
X0048813Y0131366D01*
X0048938Y0131370D01*
X0049062Y0131370D01*
X0049187Y0131366D01*
X0049312Y0131358D01*
X0049436Y0131346D01*
X0049560Y0131330D01*
X0049684Y0131310D01*
X0049806Y0131287D01*
X0049928Y0131259D01*
X0050049Y0131228D01*
X0050169Y0131192D01*
X0050288Y0131153D01*
X0050405Y0131111D01*
X0050521Y0131064D01*
X0050635Y0131014D01*
X0050748Y0130961D01*
X0050859Y0130903D01*
X0050969Y0130843D01*
X0051076Y0130778D01*
X0051181Y0130711D01*
X0051284Y0130640D01*
X0051384Y0130566D01*
X0051482Y0130489D01*
X0051578Y0130408D01*
X0051671Y0130325D01*
X0051762Y0130239D01*
X0051849Y0130150D01*
X0051934Y0130058D01*
X0052016Y0129964D01*
X0052095Y0129867D01*
X0052170Y0129767D01*
X0052243Y0129666D01*
X0052312Y0129562D01*
X0052378Y0129455D01*
X0052440Y0129347D01*
X0052499Y0129237D01*
X0052555Y0129125D01*
X0052607Y0129011D01*
X0052655Y0128896D01*
X0052700Y0128780D01*
X0052740Y0128661D01*
X0052778Y0128542D01*
X0052811Y0128422D01*
X0052840Y0128300D01*
X0052866Y0128178D01*
X0052888Y0128055D01*
X0052905Y0127931D01*
X0052919Y0127807D01*
X0052929Y0127683D01*
X0052935Y0127558D01*
X0052937Y0127433D01*
X0052935Y0127308D01*
X0052929Y0127183D01*
X0052919Y0127059D01*
X0052905Y0126935D01*
X0052888Y0126811D01*
X0052866Y0126688D01*
X0052840Y0126566D01*
X0052811Y0126444D01*
X0052778Y0126324D01*
X0052740Y0126205D01*
X0052700Y0126086D01*
X0052655Y0125970D01*
X0052607Y0125855D01*
X0052555Y0125741D01*
X0052499Y0125629D01*
X0052440Y0125519D01*
X0052378Y0125411D01*
X0052312Y0125304D01*
X0052243Y0125200D01*
X0052170Y0125099D01*
X0052095Y0124999D01*
X0052016Y0124902D01*
X0051934Y0124808D01*
X0051849Y0124716D01*
X0051762Y0124627D01*
X0051671Y0124541D01*
X0051578Y0124458D01*
X0051482Y0124377D01*
X0051384Y0124300D01*
X0051284Y0124226D01*
X0051181Y0124155D01*
X0051076Y0124088D01*
X0050968Y0124023D01*
X0050859Y0123963D01*
X0050748Y0123905D01*
X0050635Y0123852D01*
X0050521Y0123802D01*
X0050405Y0123755D01*
X0050288Y0123713D01*
X0050169Y0123674D01*
X0050049Y0123638D01*
X0049928Y0123607D01*
X0049806Y0123579D01*
X0049684Y0123556D01*
X0049560Y0123536D01*
X0049436Y0123520D01*
X0049312Y0123508D01*
X0049187Y0123500D01*
X0049062Y0123496D01*
X0048938Y0123496D01*
X0048813Y0123500D01*
X0048688Y0123508D01*
X0048564Y0123520D01*
X0048440Y0123536D01*
X0048316Y0123556D01*
X0048194Y0123579D01*
X0048072Y0123607D01*
X0047951Y0123638D01*
X0047831Y0123674D01*
X0047712Y0123713D01*
X0047595Y0123755D01*
X0047479Y0123802D01*
X0047365Y0123852D01*
X0047252Y0123905D01*
X0047141Y0123963D01*
X0047031Y0124023D01*
X0046924Y0124088D01*
X0046819Y0124155D01*
X0046716Y0124226D01*
X0046616Y0124300D01*
X0046518Y0124377D01*
X0046422Y0124458D01*
X0046329Y0124541D01*
X0046238Y0124627D01*
X0046151Y0124716D01*
X0046066Y0124808D01*
X0045984Y0124902D01*
X0045905Y0124999D01*
X0045830Y0125099D01*
X0045757Y0125200D01*
X0045688Y0125304D01*
X0045622Y0125411D01*
X0045560Y0125519D01*
X0045501Y0125629D01*
X0045445Y0125741D01*
X0045393Y0125855D01*
X0045345Y0125970D01*
X0045300Y0126086D01*
X0045260Y0126205D01*
X0045222Y0126324D01*
X0045189Y0126444D01*
X0045160Y0126566D01*
X0045134Y0126688D01*
X0045112Y0126811D01*
X0045095Y0126935D01*
X0045081Y0127059D01*
X0045071Y0127183D01*
X0045065Y0127308D01*
X0045063Y0127433D01*
X0139500Y0186433D02*
X0139502Y0186594D01*
X0139508Y0186754D01*
X0139518Y0186915D01*
X0139532Y0187075D01*
X0139550Y0187235D01*
X0139571Y0187394D01*
X0139597Y0187553D01*
X0139627Y0187711D01*
X0139660Y0187868D01*
X0139698Y0188025D01*
X0139739Y0188180D01*
X0139784Y0188334D01*
X0139833Y0188487D01*
X0139886Y0188639D01*
X0139942Y0188790D01*
X0140003Y0188939D01*
X0140066Y0189087D01*
X0140134Y0189233D01*
X0140205Y0189377D01*
X0140279Y0189519D01*
X0140357Y0189660D01*
X0140439Y0189798D01*
X0140524Y0189935D01*
X0140612Y0190069D01*
X0140704Y0190201D01*
X0140799Y0190331D01*
X0140897Y0190459D01*
X0140998Y0190584D01*
X0141102Y0190706D01*
X0141209Y0190826D01*
X0141319Y0190943D01*
X0141432Y0191058D01*
X0141548Y0191169D01*
X0141667Y0191278D01*
X0141788Y0191383D01*
X0141912Y0191486D01*
X0142038Y0191586D01*
X0142166Y0191682D01*
X0142297Y0191775D01*
X0142431Y0191865D01*
X0142566Y0191952D01*
X0142704Y0192035D01*
X0142843Y0192115D01*
X0142985Y0192191D01*
X0143128Y0192264D01*
X0143273Y0192333D01*
X0143420Y0192399D01*
X0143568Y0192461D01*
X0143718Y0192519D01*
X0143869Y0192574D01*
X0144022Y0192625D01*
X0144176Y0192672D01*
X0144331Y0192715D01*
X0144487Y0192754D01*
X0144643Y0192790D01*
X0144801Y0192821D01*
X0144959Y0192849D01*
X0145118Y0192873D01*
X0145278Y0192893D01*
X0145438Y0192909D01*
X0145598Y0192921D01*
X0145759Y0192929D01*
X0145920Y0192933D01*
X0146080Y0192933D01*
X0146241Y0192929D01*
X0146402Y0192921D01*
X0146562Y0192909D01*
X0146722Y0192893D01*
X0146882Y0192873D01*
X0147041Y0192849D01*
X0147199Y0192821D01*
X0147357Y0192790D01*
X0147513Y0192754D01*
X0147669Y0192715D01*
X0147824Y0192672D01*
X0147978Y0192625D01*
X0148131Y0192574D01*
X0148282Y0192519D01*
X0148432Y0192461D01*
X0148580Y0192399D01*
X0148727Y0192333D01*
X0148872Y0192264D01*
X0149015Y0192191D01*
X0149157Y0192115D01*
X0149296Y0192035D01*
X0149434Y0191952D01*
X0149569Y0191865D01*
X0149703Y0191775D01*
X0149834Y0191682D01*
X0149962Y0191586D01*
X0150088Y0191486D01*
X0150212Y0191383D01*
X0150333Y0191278D01*
X0150452Y0191169D01*
X0150568Y0191058D01*
X0150681Y0190943D01*
X0150791Y0190826D01*
X0150898Y0190706D01*
X0151002Y0190584D01*
X0151103Y0190459D01*
X0151201Y0190331D01*
X0151296Y0190201D01*
X0151388Y0190069D01*
X0151476Y0189935D01*
X0151561Y0189798D01*
X0151643Y0189660D01*
X0151721Y0189519D01*
X0151795Y0189377D01*
X0151866Y0189233D01*
X0151934Y0189087D01*
X0151997Y0188939D01*
X0152058Y0188790D01*
X0152114Y0188639D01*
X0152167Y0188487D01*
X0152216Y0188334D01*
X0152261Y0188180D01*
X0152302Y0188025D01*
X0152340Y0187868D01*
X0152373Y0187711D01*
X0152403Y0187553D01*
X0152429Y0187394D01*
X0152450Y0187235D01*
X0152468Y0187075D01*
X0152482Y0186915D01*
X0152492Y0186754D01*
X0152498Y0186594D01*
X0152500Y0186433D01*
X0152498Y0186272D01*
X0152492Y0186112D01*
X0152482Y0185951D01*
X0152468Y0185791D01*
X0152450Y0185631D01*
X0152429Y0185472D01*
X0152403Y0185313D01*
X0152373Y0185155D01*
X0152340Y0184998D01*
X0152302Y0184841D01*
X0152261Y0184686D01*
X0152216Y0184532D01*
X0152167Y0184379D01*
X0152114Y0184227D01*
X0152058Y0184076D01*
X0151997Y0183927D01*
X0151934Y0183779D01*
X0151866Y0183633D01*
X0151795Y0183489D01*
X0151721Y0183347D01*
X0151643Y0183206D01*
X0151561Y0183068D01*
X0151476Y0182931D01*
X0151388Y0182797D01*
X0151296Y0182665D01*
X0151201Y0182535D01*
X0151103Y0182407D01*
X0151002Y0182282D01*
X0150898Y0182160D01*
X0150791Y0182040D01*
X0150681Y0181923D01*
X0150568Y0181808D01*
X0150452Y0181697D01*
X0150333Y0181588D01*
X0150212Y0181483D01*
X0150088Y0181380D01*
X0149962Y0181280D01*
X0149834Y0181184D01*
X0149703Y0181091D01*
X0149569Y0181001D01*
X0149434Y0180914D01*
X0149296Y0180831D01*
X0149157Y0180751D01*
X0149015Y0180675D01*
X0148872Y0180602D01*
X0148727Y0180533D01*
X0148580Y0180467D01*
X0148432Y0180405D01*
X0148282Y0180347D01*
X0148131Y0180292D01*
X0147978Y0180241D01*
X0147824Y0180194D01*
X0147669Y0180151D01*
X0147513Y0180112D01*
X0147357Y0180076D01*
X0147199Y0180045D01*
X0147041Y0180017D01*
X0146882Y0179993D01*
X0146722Y0179973D01*
X0146562Y0179957D01*
X0146402Y0179945D01*
X0146241Y0179937D01*
X0146080Y0179933D01*
X0145920Y0179933D01*
X0145759Y0179937D01*
X0145598Y0179945D01*
X0145438Y0179957D01*
X0145278Y0179973D01*
X0145118Y0179993D01*
X0144959Y0180017D01*
X0144801Y0180045D01*
X0144643Y0180076D01*
X0144487Y0180112D01*
X0144331Y0180151D01*
X0144176Y0180194D01*
X0144022Y0180241D01*
X0143869Y0180292D01*
X0143718Y0180347D01*
X0143568Y0180405D01*
X0143420Y0180467D01*
X0143273Y0180533D01*
X0143128Y0180602D01*
X0142985Y0180675D01*
X0142843Y0180751D01*
X0142704Y0180831D01*
X0142566Y0180914D01*
X0142431Y0181001D01*
X0142297Y0181091D01*
X0142166Y0181184D01*
X0142038Y0181280D01*
X0141912Y0181380D01*
X0141788Y0181483D01*
X0141667Y0181588D01*
X0141548Y0181697D01*
X0141432Y0181808D01*
X0141319Y0181923D01*
X0141209Y0182040D01*
X0141102Y0182160D01*
X0140998Y0182282D01*
X0140897Y0182407D01*
X0140799Y0182535D01*
X0140704Y0182665D01*
X0140612Y0182797D01*
X0140524Y0182931D01*
X0140439Y0183068D01*
X0140357Y0183206D01*
X0140279Y0183347D01*
X0140205Y0183489D01*
X0140134Y0183633D01*
X0140066Y0183779D01*
X0140003Y0183927D01*
X0139942Y0184076D01*
X0139886Y0184227D01*
X0139833Y0184379D01*
X0139784Y0184532D01*
X0139739Y0184686D01*
X0139698Y0184841D01*
X0139660Y0184998D01*
X0139627Y0185155D01*
X0139597Y0185313D01*
X0139571Y0185472D01*
X0139550Y0185631D01*
X0139532Y0185791D01*
X0139518Y0185951D01*
X0139508Y0186112D01*
X0139502Y0186272D01*
X0139500Y0186433D01*
X0184500Y0186433D02*
X0184502Y0186594D01*
X0184508Y0186754D01*
X0184518Y0186915D01*
X0184532Y0187075D01*
X0184550Y0187235D01*
X0184571Y0187394D01*
X0184597Y0187553D01*
X0184627Y0187711D01*
X0184660Y0187868D01*
X0184698Y0188025D01*
X0184739Y0188180D01*
X0184784Y0188334D01*
X0184833Y0188487D01*
X0184886Y0188639D01*
X0184942Y0188790D01*
X0185003Y0188939D01*
X0185066Y0189087D01*
X0185134Y0189233D01*
X0185205Y0189377D01*
X0185279Y0189519D01*
X0185357Y0189660D01*
X0185439Y0189798D01*
X0185524Y0189935D01*
X0185612Y0190069D01*
X0185704Y0190201D01*
X0185799Y0190331D01*
X0185897Y0190459D01*
X0185998Y0190584D01*
X0186102Y0190706D01*
X0186209Y0190826D01*
X0186319Y0190943D01*
X0186432Y0191058D01*
X0186548Y0191169D01*
X0186667Y0191278D01*
X0186788Y0191383D01*
X0186912Y0191486D01*
X0187038Y0191586D01*
X0187166Y0191682D01*
X0187297Y0191775D01*
X0187431Y0191865D01*
X0187566Y0191952D01*
X0187704Y0192035D01*
X0187843Y0192115D01*
X0187985Y0192191D01*
X0188128Y0192264D01*
X0188273Y0192333D01*
X0188420Y0192399D01*
X0188568Y0192461D01*
X0188718Y0192519D01*
X0188869Y0192574D01*
X0189022Y0192625D01*
X0189176Y0192672D01*
X0189331Y0192715D01*
X0189487Y0192754D01*
X0189643Y0192790D01*
X0189801Y0192821D01*
X0189959Y0192849D01*
X0190118Y0192873D01*
X0190278Y0192893D01*
X0190438Y0192909D01*
X0190598Y0192921D01*
X0190759Y0192929D01*
X0190920Y0192933D01*
X0191080Y0192933D01*
X0191241Y0192929D01*
X0191402Y0192921D01*
X0191562Y0192909D01*
X0191722Y0192893D01*
X0191882Y0192873D01*
X0192041Y0192849D01*
X0192199Y0192821D01*
X0192357Y0192790D01*
X0192513Y0192754D01*
X0192669Y0192715D01*
X0192824Y0192672D01*
X0192978Y0192625D01*
X0193131Y0192574D01*
X0193282Y0192519D01*
X0193432Y0192461D01*
X0193580Y0192399D01*
X0193727Y0192333D01*
X0193872Y0192264D01*
X0194015Y0192191D01*
X0194157Y0192115D01*
X0194296Y0192035D01*
X0194434Y0191952D01*
X0194569Y0191865D01*
X0194703Y0191775D01*
X0194834Y0191682D01*
X0194962Y0191586D01*
X0195088Y0191486D01*
X0195212Y0191383D01*
X0195333Y0191278D01*
X0195452Y0191169D01*
X0195568Y0191058D01*
X0195681Y0190943D01*
X0195791Y0190826D01*
X0195898Y0190706D01*
X0196002Y0190584D01*
X0196103Y0190459D01*
X0196201Y0190331D01*
X0196296Y0190201D01*
X0196388Y0190069D01*
X0196476Y0189935D01*
X0196561Y0189798D01*
X0196643Y0189660D01*
X0196721Y0189519D01*
X0196795Y0189377D01*
X0196866Y0189233D01*
X0196934Y0189087D01*
X0196997Y0188939D01*
X0197058Y0188790D01*
X0197114Y0188639D01*
X0197167Y0188487D01*
X0197216Y0188334D01*
X0197261Y0188180D01*
X0197302Y0188025D01*
X0197340Y0187868D01*
X0197373Y0187711D01*
X0197403Y0187553D01*
X0197429Y0187394D01*
X0197450Y0187235D01*
X0197468Y0187075D01*
X0197482Y0186915D01*
X0197492Y0186754D01*
X0197498Y0186594D01*
X0197500Y0186433D01*
X0197498Y0186272D01*
X0197492Y0186112D01*
X0197482Y0185951D01*
X0197468Y0185791D01*
X0197450Y0185631D01*
X0197429Y0185472D01*
X0197403Y0185313D01*
X0197373Y0185155D01*
X0197340Y0184998D01*
X0197302Y0184841D01*
X0197261Y0184686D01*
X0197216Y0184532D01*
X0197167Y0184379D01*
X0197114Y0184227D01*
X0197058Y0184076D01*
X0196997Y0183927D01*
X0196934Y0183779D01*
X0196866Y0183633D01*
X0196795Y0183489D01*
X0196721Y0183347D01*
X0196643Y0183206D01*
X0196561Y0183068D01*
X0196476Y0182931D01*
X0196388Y0182797D01*
X0196296Y0182665D01*
X0196201Y0182535D01*
X0196103Y0182407D01*
X0196002Y0182282D01*
X0195898Y0182160D01*
X0195791Y0182040D01*
X0195681Y0181923D01*
X0195568Y0181808D01*
X0195452Y0181697D01*
X0195333Y0181588D01*
X0195212Y0181483D01*
X0195088Y0181380D01*
X0194962Y0181280D01*
X0194834Y0181184D01*
X0194703Y0181091D01*
X0194569Y0181001D01*
X0194434Y0180914D01*
X0194296Y0180831D01*
X0194157Y0180751D01*
X0194015Y0180675D01*
X0193872Y0180602D01*
X0193727Y0180533D01*
X0193580Y0180467D01*
X0193432Y0180405D01*
X0193282Y0180347D01*
X0193131Y0180292D01*
X0192978Y0180241D01*
X0192824Y0180194D01*
X0192669Y0180151D01*
X0192513Y0180112D01*
X0192357Y0180076D01*
X0192199Y0180045D01*
X0192041Y0180017D01*
X0191882Y0179993D01*
X0191722Y0179973D01*
X0191562Y0179957D01*
X0191402Y0179945D01*
X0191241Y0179937D01*
X0191080Y0179933D01*
X0190920Y0179933D01*
X0190759Y0179937D01*
X0190598Y0179945D01*
X0190438Y0179957D01*
X0190278Y0179973D01*
X0190118Y0179993D01*
X0189959Y0180017D01*
X0189801Y0180045D01*
X0189643Y0180076D01*
X0189487Y0180112D01*
X0189331Y0180151D01*
X0189176Y0180194D01*
X0189022Y0180241D01*
X0188869Y0180292D01*
X0188718Y0180347D01*
X0188568Y0180405D01*
X0188420Y0180467D01*
X0188273Y0180533D01*
X0188128Y0180602D01*
X0187985Y0180675D01*
X0187843Y0180751D01*
X0187704Y0180831D01*
X0187566Y0180914D01*
X0187431Y0181001D01*
X0187297Y0181091D01*
X0187166Y0181184D01*
X0187038Y0181280D01*
X0186912Y0181380D01*
X0186788Y0181483D01*
X0186667Y0181588D01*
X0186548Y0181697D01*
X0186432Y0181808D01*
X0186319Y0181923D01*
X0186209Y0182040D01*
X0186102Y0182160D01*
X0185998Y0182282D01*
X0185897Y0182407D01*
X0185799Y0182535D01*
X0185704Y0182665D01*
X0185612Y0182797D01*
X0185524Y0182931D01*
X0185439Y0183068D01*
X0185357Y0183206D01*
X0185279Y0183347D01*
X0185205Y0183489D01*
X0185134Y0183633D01*
X0185066Y0183779D01*
X0185003Y0183927D01*
X0184942Y0184076D01*
X0184886Y0184227D01*
X0184833Y0184379D01*
X0184784Y0184532D01*
X0184739Y0184686D01*
X0184698Y0184841D01*
X0184660Y0184998D01*
X0184627Y0185155D01*
X0184597Y0185313D01*
X0184571Y0185472D01*
X0184550Y0185631D01*
X0184532Y0185791D01*
X0184518Y0185951D01*
X0184508Y0186112D01*
X0184502Y0186272D01*
X0184500Y0186433D01*
X0229500Y0186433D02*
X0229502Y0186594D01*
X0229508Y0186754D01*
X0229518Y0186915D01*
X0229532Y0187075D01*
X0229550Y0187235D01*
X0229571Y0187394D01*
X0229597Y0187553D01*
X0229627Y0187711D01*
X0229660Y0187868D01*
X0229698Y0188025D01*
X0229739Y0188180D01*
X0229784Y0188334D01*
X0229833Y0188487D01*
X0229886Y0188639D01*
X0229942Y0188790D01*
X0230003Y0188939D01*
X0230066Y0189087D01*
X0230134Y0189233D01*
X0230205Y0189377D01*
X0230279Y0189519D01*
X0230357Y0189660D01*
X0230439Y0189798D01*
X0230524Y0189935D01*
X0230612Y0190069D01*
X0230704Y0190201D01*
X0230799Y0190331D01*
X0230897Y0190459D01*
X0230998Y0190584D01*
X0231102Y0190706D01*
X0231209Y0190826D01*
X0231319Y0190943D01*
X0231432Y0191058D01*
X0231548Y0191169D01*
X0231667Y0191278D01*
X0231788Y0191383D01*
X0231912Y0191486D01*
X0232038Y0191586D01*
X0232166Y0191682D01*
X0232297Y0191775D01*
X0232431Y0191865D01*
X0232566Y0191952D01*
X0232704Y0192035D01*
X0232843Y0192115D01*
X0232985Y0192191D01*
X0233128Y0192264D01*
X0233273Y0192333D01*
X0233420Y0192399D01*
X0233568Y0192461D01*
X0233718Y0192519D01*
X0233869Y0192574D01*
X0234022Y0192625D01*
X0234176Y0192672D01*
X0234331Y0192715D01*
X0234487Y0192754D01*
X0234643Y0192790D01*
X0234801Y0192821D01*
X0234959Y0192849D01*
X0235118Y0192873D01*
X0235278Y0192893D01*
X0235438Y0192909D01*
X0235598Y0192921D01*
X0235759Y0192929D01*
X0235920Y0192933D01*
X0236080Y0192933D01*
X0236241Y0192929D01*
X0236402Y0192921D01*
X0236562Y0192909D01*
X0236722Y0192893D01*
X0236882Y0192873D01*
X0237041Y0192849D01*
X0237199Y0192821D01*
X0237357Y0192790D01*
X0237513Y0192754D01*
X0237669Y0192715D01*
X0237824Y0192672D01*
X0237978Y0192625D01*
X0238131Y0192574D01*
X0238282Y0192519D01*
X0238432Y0192461D01*
X0238580Y0192399D01*
X0238727Y0192333D01*
X0238872Y0192264D01*
X0239015Y0192191D01*
X0239157Y0192115D01*
X0239296Y0192035D01*
X0239434Y0191952D01*
X0239569Y0191865D01*
X0239703Y0191775D01*
X0239834Y0191682D01*
X0239962Y0191586D01*
X0240088Y0191486D01*
X0240212Y0191383D01*
X0240333Y0191278D01*
X0240452Y0191169D01*
X0240568Y0191058D01*
X0240681Y0190943D01*
X0240791Y0190826D01*
X0240898Y0190706D01*
X0241002Y0190584D01*
X0241103Y0190459D01*
X0241201Y0190331D01*
X0241296Y0190201D01*
X0241388Y0190069D01*
X0241476Y0189935D01*
X0241561Y0189798D01*
X0241643Y0189660D01*
X0241721Y0189519D01*
X0241795Y0189377D01*
X0241866Y0189233D01*
X0241934Y0189087D01*
X0241997Y0188939D01*
X0242058Y0188790D01*
X0242114Y0188639D01*
X0242167Y0188487D01*
X0242216Y0188334D01*
X0242261Y0188180D01*
X0242302Y0188025D01*
X0242340Y0187868D01*
X0242373Y0187711D01*
X0242403Y0187553D01*
X0242429Y0187394D01*
X0242450Y0187235D01*
X0242468Y0187075D01*
X0242482Y0186915D01*
X0242492Y0186754D01*
X0242498Y0186594D01*
X0242500Y0186433D01*
X0242498Y0186272D01*
X0242492Y0186112D01*
X0242482Y0185951D01*
X0242468Y0185791D01*
X0242450Y0185631D01*
X0242429Y0185472D01*
X0242403Y0185313D01*
X0242373Y0185155D01*
X0242340Y0184998D01*
X0242302Y0184841D01*
X0242261Y0184686D01*
X0242216Y0184532D01*
X0242167Y0184379D01*
X0242114Y0184227D01*
X0242058Y0184076D01*
X0241997Y0183927D01*
X0241934Y0183779D01*
X0241866Y0183633D01*
X0241795Y0183489D01*
X0241721Y0183347D01*
X0241643Y0183206D01*
X0241561Y0183068D01*
X0241476Y0182931D01*
X0241388Y0182797D01*
X0241296Y0182665D01*
X0241201Y0182535D01*
X0241103Y0182407D01*
X0241002Y0182282D01*
X0240898Y0182160D01*
X0240791Y0182040D01*
X0240681Y0181923D01*
X0240568Y0181808D01*
X0240452Y0181697D01*
X0240333Y0181588D01*
X0240212Y0181483D01*
X0240088Y0181380D01*
X0239962Y0181280D01*
X0239834Y0181184D01*
X0239703Y0181091D01*
X0239569Y0181001D01*
X0239434Y0180914D01*
X0239296Y0180831D01*
X0239157Y0180751D01*
X0239015Y0180675D01*
X0238872Y0180602D01*
X0238727Y0180533D01*
X0238580Y0180467D01*
X0238432Y0180405D01*
X0238282Y0180347D01*
X0238131Y0180292D01*
X0237978Y0180241D01*
X0237824Y0180194D01*
X0237669Y0180151D01*
X0237513Y0180112D01*
X0237357Y0180076D01*
X0237199Y0180045D01*
X0237041Y0180017D01*
X0236882Y0179993D01*
X0236722Y0179973D01*
X0236562Y0179957D01*
X0236402Y0179945D01*
X0236241Y0179937D01*
X0236080Y0179933D01*
X0235920Y0179933D01*
X0235759Y0179937D01*
X0235598Y0179945D01*
X0235438Y0179957D01*
X0235278Y0179973D01*
X0235118Y0179993D01*
X0234959Y0180017D01*
X0234801Y0180045D01*
X0234643Y0180076D01*
X0234487Y0180112D01*
X0234331Y0180151D01*
X0234176Y0180194D01*
X0234022Y0180241D01*
X0233869Y0180292D01*
X0233718Y0180347D01*
X0233568Y0180405D01*
X0233420Y0180467D01*
X0233273Y0180533D01*
X0233128Y0180602D01*
X0232985Y0180675D01*
X0232843Y0180751D01*
X0232704Y0180831D01*
X0232566Y0180914D01*
X0232431Y0181001D01*
X0232297Y0181091D01*
X0232166Y0181184D01*
X0232038Y0181280D01*
X0231912Y0181380D01*
X0231788Y0181483D01*
X0231667Y0181588D01*
X0231548Y0181697D01*
X0231432Y0181808D01*
X0231319Y0181923D01*
X0231209Y0182040D01*
X0231102Y0182160D01*
X0230998Y0182282D01*
X0230897Y0182407D01*
X0230799Y0182535D01*
X0230704Y0182665D01*
X0230612Y0182797D01*
X0230524Y0182931D01*
X0230439Y0183068D01*
X0230357Y0183206D01*
X0230279Y0183347D01*
X0230205Y0183489D01*
X0230134Y0183633D01*
X0230066Y0183779D01*
X0230003Y0183927D01*
X0229942Y0184076D01*
X0229886Y0184227D01*
X0229833Y0184379D01*
X0229784Y0184532D01*
X0229739Y0184686D01*
X0229698Y0184841D01*
X0229660Y0184998D01*
X0229627Y0185155D01*
X0229597Y0185313D01*
X0229571Y0185472D01*
X0229550Y0185631D01*
X0229532Y0185791D01*
X0229518Y0185951D01*
X0229508Y0186112D01*
X0229502Y0186272D01*
X0229500Y0186433D01*
X0264063Y0199433D02*
X0264065Y0199558D01*
X0264071Y0199683D01*
X0264081Y0199807D01*
X0264095Y0199931D01*
X0264112Y0200055D01*
X0264134Y0200178D01*
X0264160Y0200300D01*
X0264189Y0200422D01*
X0264222Y0200542D01*
X0264260Y0200661D01*
X0264300Y0200780D01*
X0264345Y0200896D01*
X0264393Y0201011D01*
X0264445Y0201125D01*
X0264501Y0201237D01*
X0264560Y0201347D01*
X0264622Y0201455D01*
X0264688Y0201562D01*
X0264757Y0201666D01*
X0264830Y0201767D01*
X0264905Y0201867D01*
X0264984Y0201964D01*
X0265066Y0202058D01*
X0265151Y0202150D01*
X0265238Y0202239D01*
X0265329Y0202325D01*
X0265422Y0202408D01*
X0265518Y0202489D01*
X0265616Y0202566D01*
X0265716Y0202640D01*
X0265819Y0202711D01*
X0265924Y0202778D01*
X0266032Y0202843D01*
X0266141Y0202903D01*
X0266252Y0202961D01*
X0266365Y0203014D01*
X0266479Y0203064D01*
X0266595Y0203111D01*
X0266712Y0203153D01*
X0266831Y0203192D01*
X0266951Y0203228D01*
X0267072Y0203259D01*
X0267194Y0203287D01*
X0267316Y0203310D01*
X0267440Y0203330D01*
X0267564Y0203346D01*
X0267688Y0203358D01*
X0267813Y0203366D01*
X0267938Y0203370D01*
X0268062Y0203370D01*
X0268187Y0203366D01*
X0268312Y0203358D01*
X0268436Y0203346D01*
X0268560Y0203330D01*
X0268684Y0203310D01*
X0268806Y0203287D01*
X0268928Y0203259D01*
X0269049Y0203228D01*
X0269169Y0203192D01*
X0269288Y0203153D01*
X0269405Y0203111D01*
X0269521Y0203064D01*
X0269635Y0203014D01*
X0269748Y0202961D01*
X0269859Y0202903D01*
X0269969Y0202843D01*
X0270076Y0202778D01*
X0270181Y0202711D01*
X0270284Y0202640D01*
X0270384Y0202566D01*
X0270482Y0202489D01*
X0270578Y0202408D01*
X0270671Y0202325D01*
X0270762Y0202239D01*
X0270849Y0202150D01*
X0270934Y0202058D01*
X0271016Y0201964D01*
X0271095Y0201867D01*
X0271170Y0201767D01*
X0271243Y0201666D01*
X0271312Y0201562D01*
X0271378Y0201455D01*
X0271440Y0201347D01*
X0271499Y0201237D01*
X0271555Y0201125D01*
X0271607Y0201011D01*
X0271655Y0200896D01*
X0271700Y0200780D01*
X0271740Y0200661D01*
X0271778Y0200542D01*
X0271811Y0200422D01*
X0271840Y0200300D01*
X0271866Y0200178D01*
X0271888Y0200055D01*
X0271905Y0199931D01*
X0271919Y0199807D01*
X0271929Y0199683D01*
X0271935Y0199558D01*
X0271937Y0199433D01*
X0271935Y0199308D01*
X0271929Y0199183D01*
X0271919Y0199059D01*
X0271905Y0198935D01*
X0271888Y0198811D01*
X0271866Y0198688D01*
X0271840Y0198566D01*
X0271811Y0198444D01*
X0271778Y0198324D01*
X0271740Y0198205D01*
X0271700Y0198086D01*
X0271655Y0197970D01*
X0271607Y0197855D01*
X0271555Y0197741D01*
X0271499Y0197629D01*
X0271440Y0197519D01*
X0271378Y0197411D01*
X0271312Y0197304D01*
X0271243Y0197200D01*
X0271170Y0197099D01*
X0271095Y0196999D01*
X0271016Y0196902D01*
X0270934Y0196808D01*
X0270849Y0196716D01*
X0270762Y0196627D01*
X0270671Y0196541D01*
X0270578Y0196458D01*
X0270482Y0196377D01*
X0270384Y0196300D01*
X0270284Y0196226D01*
X0270181Y0196155D01*
X0270076Y0196088D01*
X0269968Y0196023D01*
X0269859Y0195963D01*
X0269748Y0195905D01*
X0269635Y0195852D01*
X0269521Y0195802D01*
X0269405Y0195755D01*
X0269288Y0195713D01*
X0269169Y0195674D01*
X0269049Y0195638D01*
X0268928Y0195607D01*
X0268806Y0195579D01*
X0268684Y0195556D01*
X0268560Y0195536D01*
X0268436Y0195520D01*
X0268312Y0195508D01*
X0268187Y0195500D01*
X0268062Y0195496D01*
X0267938Y0195496D01*
X0267813Y0195500D01*
X0267688Y0195508D01*
X0267564Y0195520D01*
X0267440Y0195536D01*
X0267316Y0195556D01*
X0267194Y0195579D01*
X0267072Y0195607D01*
X0266951Y0195638D01*
X0266831Y0195674D01*
X0266712Y0195713D01*
X0266595Y0195755D01*
X0266479Y0195802D01*
X0266365Y0195852D01*
X0266252Y0195905D01*
X0266141Y0195963D01*
X0266031Y0196023D01*
X0265924Y0196088D01*
X0265819Y0196155D01*
X0265716Y0196226D01*
X0265616Y0196300D01*
X0265518Y0196377D01*
X0265422Y0196458D01*
X0265329Y0196541D01*
X0265238Y0196627D01*
X0265151Y0196716D01*
X0265066Y0196808D01*
X0264984Y0196902D01*
X0264905Y0196999D01*
X0264830Y0197099D01*
X0264757Y0197200D01*
X0264688Y0197304D01*
X0264622Y0197411D01*
X0264560Y0197519D01*
X0264501Y0197629D01*
X0264445Y0197741D01*
X0264393Y0197855D01*
X0264345Y0197970D01*
X0264300Y0198086D01*
X0264260Y0198205D01*
X0264222Y0198324D01*
X0264189Y0198444D01*
X0264160Y0198566D01*
X0264134Y0198688D01*
X0264112Y0198811D01*
X0264095Y0198935D01*
X0264081Y0199059D01*
X0264071Y0199183D01*
X0264065Y0199308D01*
X0264063Y0199433D01*
X0295063Y0023433D02*
X0295065Y0023558D01*
X0295071Y0023683D01*
X0295081Y0023807D01*
X0295095Y0023931D01*
X0295112Y0024055D01*
X0295134Y0024178D01*
X0295160Y0024300D01*
X0295189Y0024422D01*
X0295222Y0024542D01*
X0295260Y0024661D01*
X0295300Y0024780D01*
X0295345Y0024896D01*
X0295393Y0025011D01*
X0295445Y0025125D01*
X0295501Y0025237D01*
X0295560Y0025347D01*
X0295622Y0025455D01*
X0295688Y0025562D01*
X0295757Y0025666D01*
X0295830Y0025767D01*
X0295905Y0025867D01*
X0295984Y0025964D01*
X0296066Y0026058D01*
X0296151Y0026150D01*
X0296238Y0026239D01*
X0296329Y0026325D01*
X0296422Y0026408D01*
X0296518Y0026489D01*
X0296616Y0026566D01*
X0296716Y0026640D01*
X0296819Y0026711D01*
X0296924Y0026778D01*
X0297032Y0026843D01*
X0297141Y0026903D01*
X0297252Y0026961D01*
X0297365Y0027014D01*
X0297479Y0027064D01*
X0297595Y0027111D01*
X0297712Y0027153D01*
X0297831Y0027192D01*
X0297951Y0027228D01*
X0298072Y0027259D01*
X0298194Y0027287D01*
X0298316Y0027310D01*
X0298440Y0027330D01*
X0298564Y0027346D01*
X0298688Y0027358D01*
X0298813Y0027366D01*
X0298938Y0027370D01*
X0299062Y0027370D01*
X0299187Y0027366D01*
X0299312Y0027358D01*
X0299436Y0027346D01*
X0299560Y0027330D01*
X0299684Y0027310D01*
X0299806Y0027287D01*
X0299928Y0027259D01*
X0300049Y0027228D01*
X0300169Y0027192D01*
X0300288Y0027153D01*
X0300405Y0027111D01*
X0300521Y0027064D01*
X0300635Y0027014D01*
X0300748Y0026961D01*
X0300859Y0026903D01*
X0300969Y0026843D01*
X0301076Y0026778D01*
X0301181Y0026711D01*
X0301284Y0026640D01*
X0301384Y0026566D01*
X0301482Y0026489D01*
X0301578Y0026408D01*
X0301671Y0026325D01*
X0301762Y0026239D01*
X0301849Y0026150D01*
X0301934Y0026058D01*
X0302016Y0025964D01*
X0302095Y0025867D01*
X0302170Y0025767D01*
X0302243Y0025666D01*
X0302312Y0025562D01*
X0302378Y0025455D01*
X0302440Y0025347D01*
X0302499Y0025237D01*
X0302555Y0025125D01*
X0302607Y0025011D01*
X0302655Y0024896D01*
X0302700Y0024780D01*
X0302740Y0024661D01*
X0302778Y0024542D01*
X0302811Y0024422D01*
X0302840Y0024300D01*
X0302866Y0024178D01*
X0302888Y0024055D01*
X0302905Y0023931D01*
X0302919Y0023807D01*
X0302929Y0023683D01*
X0302935Y0023558D01*
X0302937Y0023433D01*
X0302935Y0023308D01*
X0302929Y0023183D01*
X0302919Y0023059D01*
X0302905Y0022935D01*
X0302888Y0022811D01*
X0302866Y0022688D01*
X0302840Y0022566D01*
X0302811Y0022444D01*
X0302778Y0022324D01*
X0302740Y0022205D01*
X0302700Y0022086D01*
X0302655Y0021970D01*
X0302607Y0021855D01*
X0302555Y0021741D01*
X0302499Y0021629D01*
X0302440Y0021519D01*
X0302378Y0021411D01*
X0302312Y0021304D01*
X0302243Y0021200D01*
X0302170Y0021099D01*
X0302095Y0020999D01*
X0302016Y0020902D01*
X0301934Y0020808D01*
X0301849Y0020716D01*
X0301762Y0020627D01*
X0301671Y0020541D01*
X0301578Y0020458D01*
X0301482Y0020377D01*
X0301384Y0020300D01*
X0301284Y0020226D01*
X0301181Y0020155D01*
X0301076Y0020088D01*
X0300968Y0020023D01*
X0300859Y0019963D01*
X0300748Y0019905D01*
X0300635Y0019852D01*
X0300521Y0019802D01*
X0300405Y0019755D01*
X0300288Y0019713D01*
X0300169Y0019674D01*
X0300049Y0019638D01*
X0299928Y0019607D01*
X0299806Y0019579D01*
X0299684Y0019556D01*
X0299560Y0019536D01*
X0299436Y0019520D01*
X0299312Y0019508D01*
X0299187Y0019500D01*
X0299062Y0019496D01*
X0298938Y0019496D01*
X0298813Y0019500D01*
X0298688Y0019508D01*
X0298564Y0019520D01*
X0298440Y0019536D01*
X0298316Y0019556D01*
X0298194Y0019579D01*
X0298072Y0019607D01*
X0297951Y0019638D01*
X0297831Y0019674D01*
X0297712Y0019713D01*
X0297595Y0019755D01*
X0297479Y0019802D01*
X0297365Y0019852D01*
X0297252Y0019905D01*
X0297141Y0019963D01*
X0297031Y0020023D01*
X0296924Y0020088D01*
X0296819Y0020155D01*
X0296716Y0020226D01*
X0296616Y0020300D01*
X0296518Y0020377D01*
X0296422Y0020458D01*
X0296329Y0020541D01*
X0296238Y0020627D01*
X0296151Y0020716D01*
X0296066Y0020808D01*
X0295984Y0020902D01*
X0295905Y0020999D01*
X0295830Y0021099D01*
X0295757Y0021200D01*
X0295688Y0021304D01*
X0295622Y0021411D01*
X0295560Y0021519D01*
X0295501Y0021629D01*
X0295445Y0021741D01*
X0295393Y0021855D01*
X0295345Y0021970D01*
X0295300Y0022086D01*
X0295260Y0022205D01*
X0295222Y0022324D01*
X0295189Y0022444D01*
X0295160Y0022566D01*
X0295134Y0022688D01*
X0295112Y0022811D01*
X0295095Y0022935D01*
X0295081Y0023059D01*
X0295071Y0023183D01*
X0295065Y0023308D01*
X0295063Y0023433D01*
D11*
X0111000Y0129433D03*
X0101000Y0129433D03*
X0073000Y0129433D03*
X0063000Y0129433D03*
X0035000Y0129433D03*
X0025000Y0129433D03*
D12*
X0212000Y0088433D03*
D13*
X0212000Y0098433D03*
D14*
X0060000Y0033433D03*
X0060000Y0023433D03*
D15*
X0166000Y0023133D03*
D16*
X0176000Y0023133D03*
X0186000Y0023133D03*
D17*
X0046600Y0025433D02*
X0041400Y0025433D01*
X0041400Y0035433D02*
X0046600Y0035433D01*
X0046600Y0054433D02*
X0041400Y0054433D01*
X0041400Y0064433D02*
X0046600Y0064433D01*
X0046600Y0074433D02*
X0041400Y0074433D01*
X0041400Y0084433D02*
X0046600Y0084433D01*
X0046600Y0094433D02*
X0041400Y0094433D01*
X0041400Y0104433D02*
X0046600Y0104433D01*
X0046600Y0114433D02*
X0041400Y0114433D01*
X0016600Y0114433D02*
X0011400Y0114433D01*
X0011400Y0104433D02*
X0016600Y0104433D01*
X0016600Y0094433D02*
X0011400Y0094433D01*
X0011400Y0084433D02*
X0016600Y0084433D01*
X0016600Y0074433D02*
X0011400Y0074433D01*
X0011400Y0064433D02*
X0016600Y0064433D01*
X0016600Y0054433D02*
X0011400Y0054433D01*
X0011400Y0035433D02*
X0016600Y0035433D01*
X0016600Y0025433D02*
X0011400Y0025433D01*
D18*
X0087000Y0057433D03*
X0087150Y0071833D03*
X0087000Y0086433D03*
X0087000Y0100433D03*
X0137000Y0100433D03*
X0147000Y0104433D03*
X0163000Y0103433D03*
X0173000Y0103433D03*
X0183000Y0103433D03*
X0193000Y0103433D03*
X0137000Y0086433D03*
X0137150Y0071833D03*
X0137000Y0057433D03*
X0147000Y0054433D03*
X0163000Y0063433D03*
X0173000Y0063433D03*
X0183000Y0063433D03*
X0193000Y0063433D03*
D19*
X0293000Y0167433D02*
X0299000Y0167433D01*
X0299000Y0177433D02*
X0293000Y0177433D01*
X0293000Y0187433D02*
X0299000Y0187433D01*
X0299000Y0197433D02*
X0293000Y0197433D01*
D20*
X0131000Y0037433D03*
X0121000Y0037433D03*
X0111000Y0037433D03*
X0111000Y0027433D03*
X0121000Y0027433D03*
X0131000Y0027433D03*
X0101000Y0027433D03*
X0091000Y0027433D03*
X0091000Y0037433D03*
X0101000Y0037433D03*
D21*
X0267063Y0137433D03*
X0289898Y0137433D03*
X0278874Y0156331D03*
D22*
X0205882Y0062433D03*
D23*
X0284622Y0062433D03*
D24*
X0246000Y0114133D02*
X0246000Y0120733D01*
X0236000Y0120733D02*
X0236000Y0114133D01*
X0226000Y0114133D02*
X0226000Y0120733D01*
X0201000Y0120733D02*
X0201000Y0114133D01*
X0191000Y0114133D02*
X0191000Y0120733D01*
X0181000Y0120733D02*
X0181000Y0114133D01*
X0156000Y0114133D02*
X0156000Y0120733D01*
X0146000Y0120733D02*
X0146000Y0114133D01*
X0136000Y0114133D02*
X0136000Y0120733D01*
D25*
X0130277Y0123378D02*
X0126000Y0123378D01*
X0126000Y0126377D02*
X0133162Y0126377D01*
X0132431Y0126074D02*
X0130659Y0124302D01*
X0129700Y0121986D01*
X0129700Y0113733D01*
X0126000Y0117433D01*
X0126000Y0135433D01*
X0259000Y0135433D01*
X0259000Y0202433D01*
X0262059Y0202433D01*
X0261363Y0200754D01*
X0261363Y0198113D01*
X0262373Y0195674D01*
X0264240Y0193807D01*
X0266680Y0192796D01*
X0269320Y0192796D01*
X0271760Y0193807D01*
X0273627Y0195674D01*
X0274637Y0198113D01*
X0274637Y0200754D01*
X0273941Y0202433D01*
X0289515Y0202433D01*
X0287913Y0200832D01*
X0287000Y0198627D01*
X0287000Y0196240D01*
X0287913Y0194035D01*
X0289515Y0192433D01*
X0287913Y0190832D01*
X0287000Y0188627D01*
X0287000Y0186240D01*
X0287913Y0184035D01*
X0289515Y0182433D01*
X0287913Y0180832D01*
X0287000Y0178627D01*
X0287000Y0176240D01*
X0287913Y0174035D01*
X0289601Y0172347D01*
X0290114Y0172135D01*
X0289417Y0171628D01*
X0288805Y0171016D01*
X0288296Y0170316D01*
X0287903Y0169545D01*
X0287635Y0168721D01*
X0287500Y0167866D01*
X0287500Y0167433D01*
X0287500Y0167000D01*
X0287635Y0166145D01*
X0287903Y0165322D01*
X0288296Y0164551D01*
X0288805Y0163850D01*
X0289417Y0163238D01*
X0290117Y0162729D01*
X0290889Y0162336D01*
X0291712Y0162069D01*
X0292567Y0161933D01*
X0296000Y0161933D01*
X0296000Y0167433D01*
X0296000Y0161933D01*
X0299433Y0161933D01*
X0300288Y0162069D01*
X0301111Y0162336D01*
X0301883Y0162729D01*
X0302583Y0163238D01*
X0303195Y0163850D01*
X0303704Y0164551D01*
X0304097Y0165322D01*
X0304365Y0166145D01*
X0304500Y0167000D01*
X0304500Y0167433D01*
X0296000Y0167433D01*
X0296000Y0167433D01*
X0296000Y0167433D01*
X0287500Y0167433D01*
X0296000Y0167433D01*
X0296000Y0167433D01*
X0304500Y0167433D01*
X0304500Y0167866D01*
X0304365Y0168721D01*
X0304097Y0169545D01*
X0303704Y0170316D01*
X0303195Y0171016D01*
X0302583Y0171628D01*
X0301886Y0172135D01*
X0302399Y0172347D01*
X0304087Y0174035D01*
X0305000Y0176240D01*
X0305000Y0178627D01*
X0304087Y0180832D01*
X0302485Y0182433D01*
X0304087Y0184035D01*
X0305000Y0186240D01*
X0305000Y0188627D01*
X0304087Y0190832D01*
X0302485Y0192433D01*
X0304087Y0194035D01*
X0305000Y0196240D01*
X0305000Y0198627D01*
X0304087Y0200832D01*
X0302485Y0202433D01*
X0306000Y0202433D01*
X0306000Y0152433D01*
X0284648Y0152433D01*
X0284671Y0152457D01*
X0285713Y0154971D01*
X0285713Y0157691D01*
X0284671Y0160205D01*
X0282748Y0162128D01*
X0280234Y0163170D01*
X0277514Y0163170D01*
X0275000Y0162128D01*
X0273077Y0160205D01*
X0272035Y0157691D01*
X0272035Y0154971D01*
X0273077Y0152457D01*
X0275000Y0150533D01*
X0277514Y0149492D01*
X0278059Y0149492D01*
X0276000Y0147433D01*
X0276000Y0127433D01*
X0261000Y0112433D01*
X0252115Y0112433D01*
X0252300Y0112880D01*
X0252300Y0121986D01*
X0251341Y0124302D01*
X0249569Y0126074D01*
X0247253Y0127033D01*
X0244747Y0127033D01*
X0242431Y0126074D01*
X0241000Y0124643D01*
X0239569Y0126074D01*
X0237253Y0127033D01*
X0234747Y0127033D01*
X0232431Y0126074D01*
X0231000Y0124643D01*
X0229569Y0126074D01*
X0227253Y0127033D01*
X0224747Y0127033D01*
X0222431Y0126074D01*
X0220659Y0124302D01*
X0219700Y0121986D01*
X0219700Y0112880D01*
X0219885Y0112433D01*
X0207115Y0112433D01*
X0207300Y0112880D01*
X0207300Y0121986D01*
X0206341Y0124302D01*
X0204569Y0126074D01*
X0202253Y0127033D01*
X0199747Y0127033D01*
X0197431Y0126074D01*
X0196000Y0124643D01*
X0194569Y0126074D01*
X0192253Y0127033D01*
X0189747Y0127033D01*
X0187431Y0126074D01*
X0186000Y0124643D01*
X0184569Y0126074D01*
X0182253Y0127033D01*
X0179747Y0127033D01*
X0177431Y0126074D01*
X0175659Y0124302D01*
X0174700Y0121986D01*
X0174700Y0112880D01*
X0174885Y0112433D01*
X0162115Y0112433D01*
X0162300Y0112880D01*
X0162300Y0121986D01*
X0161341Y0124302D01*
X0159569Y0126074D01*
X0157253Y0127033D01*
X0154747Y0127033D01*
X0152431Y0126074D01*
X0151000Y0124643D01*
X0149569Y0126074D01*
X0147253Y0127033D01*
X0144747Y0127033D01*
X0142431Y0126074D01*
X0141000Y0124643D01*
X0139569Y0126074D01*
X0137253Y0127033D01*
X0134747Y0127033D01*
X0132431Y0126074D01*
X0138838Y0126377D02*
X0143162Y0126377D01*
X0148838Y0126377D02*
X0153162Y0126377D01*
X0158838Y0126377D02*
X0178162Y0126377D01*
X0175277Y0123378D02*
X0161723Y0123378D01*
X0162300Y0120380D02*
X0174700Y0120380D01*
X0174700Y0117381D02*
X0162300Y0117381D01*
X0162300Y0114383D02*
X0174700Y0114383D01*
X0183838Y0126377D02*
X0188162Y0126377D01*
X0193838Y0126377D02*
X0198162Y0126377D01*
X0203838Y0126377D02*
X0223162Y0126377D01*
X0220277Y0123378D02*
X0206723Y0123378D01*
X0207300Y0120380D02*
X0219700Y0120380D01*
X0219700Y0117381D02*
X0207300Y0117381D01*
X0207300Y0114383D02*
X0219700Y0114383D01*
X0228838Y0126377D02*
X0233162Y0126377D01*
X0238838Y0126377D02*
X0243162Y0126377D01*
X0248838Y0126377D02*
X0274943Y0126377D01*
X0271945Y0123378D02*
X0251723Y0123378D01*
X0252300Y0120380D02*
X0268946Y0120380D01*
X0265948Y0117381D02*
X0252300Y0117381D01*
X0252300Y0114383D02*
X0262949Y0114383D01*
X0252331Y0112433D02*
X0252100Y0110833D01*
X0252100Y0079633D01*
X0188800Y0016333D01*
X0173200Y0016333D01*
X0166600Y0022933D01*
X0166000Y0022933D01*
X0166000Y0023133D01*
X0176000Y0023133D02*
X0176200Y0023233D01*
X0208600Y0055633D01*
X0211000Y0055633D01*
X0218500Y0063133D01*
X0218500Y0092833D01*
X0213100Y0098233D01*
X0212200Y0098233D01*
X0212000Y0098433D01*
X0160600Y0097633D02*
X0154450Y0103783D01*
X0155800Y0105133D01*
X0155800Y0117433D01*
X0156000Y0117433D01*
X0154450Y0103783D02*
X0145300Y0094633D01*
X0134800Y0094633D01*
X0111100Y0118333D01*
X0111100Y0129433D01*
X0111000Y0129433D01*
X0109600Y0130033D01*
X0104200Y0135433D01*
X0098500Y0135433D01*
X0093400Y0130333D01*
X0074200Y0130333D01*
X0073000Y0129433D01*
X0073000Y0128833D01*
X0058600Y0114433D01*
X0044000Y0114433D01*
X0126052Y0117381D02*
X0129700Y0117381D01*
X0129700Y0120380D02*
X0126000Y0120380D01*
X0129051Y0114383D02*
X0129700Y0114383D01*
X0126000Y0129375D02*
X0276000Y0129375D01*
X0276000Y0132374D02*
X0270883Y0132374D01*
X0271192Y0132599D02*
X0271898Y0133304D01*
X0272484Y0134111D01*
X0272937Y0135000D01*
X0273245Y0135949D01*
X0273402Y0136934D01*
X0273402Y0137433D01*
X0267063Y0137433D01*
X0267063Y0131095D01*
X0267562Y0131095D01*
X0268547Y0131251D01*
X0269496Y0131559D01*
X0270385Y0132012D01*
X0271192Y0132599D01*
X0273058Y0135372D02*
X0276000Y0135372D01*
X0273402Y0137433D02*
X0273402Y0137932D01*
X0273245Y0138918D01*
X0272937Y0139866D01*
X0272484Y0140755D01*
X0271898Y0141563D01*
X0271192Y0142268D01*
X0270385Y0142855D01*
X0269496Y0143308D01*
X0268547Y0143616D01*
X0267562Y0143772D01*
X0267063Y0143772D01*
X0267063Y0137433D01*
X0267063Y0137433D01*
X0267063Y0131095D01*
X0266564Y0131095D01*
X0265579Y0131251D01*
X0264630Y0131559D01*
X0263741Y0132012D01*
X0262934Y0132599D01*
X0262228Y0133304D01*
X0261642Y0134111D01*
X0261189Y0135000D01*
X0260880Y0135949D01*
X0260724Y0136934D01*
X0260724Y0137433D01*
X0267063Y0137433D01*
X0267063Y0137433D01*
X0267063Y0137433D01*
X0273402Y0137433D01*
X0273332Y0138371D02*
X0276000Y0138371D01*
X0276000Y0141369D02*
X0272038Y0141369D01*
X0276000Y0144368D02*
X0259000Y0144368D01*
X0259000Y0147366D02*
X0276000Y0147366D01*
X0275407Y0150365D02*
X0259000Y0150365D01*
X0259000Y0153363D02*
X0272701Y0153363D01*
X0272035Y0156362D02*
X0259000Y0156362D01*
X0259000Y0159360D02*
X0272727Y0159360D01*
X0275557Y0162359D02*
X0259000Y0162359D01*
X0259000Y0165357D02*
X0287891Y0165357D01*
X0287578Y0168356D02*
X0259000Y0168356D01*
X0259000Y0171354D02*
X0289143Y0171354D01*
X0287782Y0174353D02*
X0259000Y0174353D01*
X0259000Y0177351D02*
X0287000Y0177351D01*
X0287714Y0180350D02*
X0259000Y0180350D01*
X0259000Y0183348D02*
X0288600Y0183348D01*
X0287000Y0186347D02*
X0259000Y0186347D01*
X0259000Y0189345D02*
X0287298Y0189345D01*
X0289425Y0192344D02*
X0259000Y0192344D01*
X0259000Y0195343D02*
X0262705Y0195343D01*
X0261363Y0198341D02*
X0259000Y0198341D01*
X0259000Y0201340D02*
X0261606Y0201340D01*
X0273295Y0195343D02*
X0287372Y0195343D01*
X0287000Y0198341D02*
X0274637Y0198341D01*
X0274394Y0201340D02*
X0288421Y0201340D01*
X0302575Y0192344D02*
X0306000Y0192344D01*
X0306000Y0195343D02*
X0304628Y0195343D01*
X0305000Y0198341D02*
X0306000Y0198341D01*
X0306000Y0201340D02*
X0303579Y0201340D01*
X0304702Y0189345D02*
X0306000Y0189345D01*
X0306000Y0186347D02*
X0305000Y0186347D01*
X0306000Y0183348D02*
X0303400Y0183348D01*
X0304286Y0180350D02*
X0306000Y0180350D01*
X0306000Y0177351D02*
X0305000Y0177351D01*
X0304218Y0174353D02*
X0306000Y0174353D01*
X0306000Y0171354D02*
X0302857Y0171354D01*
X0304422Y0168356D02*
X0306000Y0168356D01*
X0306000Y0165357D02*
X0304109Y0165357D01*
X0306000Y0162359D02*
X0301156Y0162359D01*
X0306000Y0159360D02*
X0285021Y0159360D01*
X0285713Y0156362D02*
X0306000Y0156362D01*
X0306000Y0153363D02*
X0285047Y0153363D01*
X0282191Y0162359D02*
X0290844Y0162359D01*
X0296000Y0162359D02*
X0296000Y0162359D01*
X0296000Y0165357D02*
X0296000Y0165357D01*
X0267063Y0143772D02*
X0266564Y0143772D01*
X0265579Y0143616D01*
X0264630Y0143308D01*
X0263741Y0142855D01*
X0262934Y0142268D01*
X0262228Y0141563D01*
X0261642Y0140755D01*
X0261189Y0139866D01*
X0260880Y0138918D01*
X0260724Y0137932D01*
X0260724Y0137433D01*
X0267063Y0137433D01*
X0267063Y0143772D01*
X0267063Y0141369D02*
X0267063Y0141369D01*
X0267063Y0138371D02*
X0267063Y0138371D01*
X0267063Y0137433D02*
X0267063Y0137433D01*
X0267063Y0135372D02*
X0267063Y0135372D01*
X0267063Y0132374D02*
X0267063Y0132374D01*
X0263243Y0132374D02*
X0126000Y0132374D01*
X0126000Y0135372D02*
X0261068Y0135372D01*
X0260794Y0138371D02*
X0259000Y0138371D01*
X0259000Y0141369D02*
X0262088Y0141369D01*
X0121000Y0042133D02*
X0121000Y0037433D01*
X0121000Y0042133D02*
X0109900Y0053233D01*
X0103900Y0053233D01*
X0103600Y0053533D01*
X0091600Y0053533D01*
X0060000Y0033433D02*
X0046000Y0033433D01*
X0044000Y0035433D01*
D26*
X0091600Y0053533D03*
X0160600Y0097633D03*
D27*
X0163000Y0103433D02*
X0163000Y0103633D01*
X0168100Y0103633D01*
X0173200Y0108733D01*
X0176200Y0108733D01*
X0181000Y0113533D01*
X0181000Y0117433D01*
X0183100Y0108733D02*
X0221200Y0108733D01*
X0226000Y0113533D01*
X0226000Y0117433D01*
X0193000Y0103433D02*
X0193000Y0071833D01*
X0186700Y0065533D01*
X0186700Y0058933D01*
X0146800Y0019033D01*
X0020500Y0019033D01*
X0014200Y0025333D01*
X0014000Y0025433D01*
X0014000Y0035433D02*
X0006700Y0042733D01*
X0006700Y0084733D01*
X0010000Y0088033D01*
X0015400Y0088033D01*
X0020200Y0092833D01*
X0020200Y0099733D01*
X0039400Y0118933D01*
X0058300Y0118933D01*
X0067300Y0127933D01*
X0067300Y0130333D01*
X0078400Y0141433D01*
X0103600Y0141433D01*
X0063000Y0129433D02*
X0062800Y0129433D01*
X0058000Y0134233D01*
X0033100Y0134233D01*
X0028300Y0129433D01*
X0025000Y0129433D01*
X0040000Y0108133D02*
X0079300Y0108133D01*
X0087000Y0100433D01*
X0103300Y0096733D02*
X0051700Y0096733D01*
X0044000Y0104433D01*
X0040000Y0108133D02*
X0016300Y0084433D01*
X0014000Y0084433D01*
X0012700Y0080833D02*
X0030400Y0080833D01*
X0044000Y0094433D01*
X0012700Y0080833D02*
X0007900Y0076033D01*
X0007900Y0072733D01*
X0009700Y0070933D01*
X0015100Y0070933D01*
X0025300Y0060733D01*
X0062200Y0060733D01*
X0073000Y0049933D01*
X0108400Y0049933D01*
X0110800Y0047533D01*
X0110800Y0037633D01*
X0111000Y0037433D01*
X0103000Y0032233D02*
X0088900Y0032233D01*
X0077500Y0043633D01*
X0077500Y0045433D01*
X0073600Y0047533D02*
X0061600Y0059533D01*
X0019000Y0059533D01*
X0014200Y0064333D01*
X0014000Y0064433D01*
X0020200Y0068233D02*
X0014000Y0074433D01*
X0020200Y0068233D02*
X0099700Y0068233D01*
X0117100Y0050833D01*
X0148600Y0050833D01*
X0161200Y0063433D01*
X0163000Y0063433D01*
X0147000Y0054433D02*
X0145600Y0054433D01*
X0103300Y0096733D01*
X0067300Y0057433D02*
X0060400Y0064333D01*
X0044200Y0064333D01*
X0044000Y0064433D01*
X0040000Y0058033D02*
X0060400Y0058033D01*
X0070450Y0047983D01*
X0070300Y0047833D01*
X0070450Y0047983D02*
X0091000Y0027433D01*
X0089200Y0022633D02*
X0126100Y0022633D01*
X0130900Y0027433D01*
X0131000Y0027433D01*
X0153400Y0027433D01*
X0182800Y0056833D01*
X0182800Y0063433D01*
X0183000Y0063433D01*
X0193000Y0063433D02*
X0193000Y0069433D01*
X0212000Y0088433D01*
X0183100Y0108733D02*
X0178000Y0103633D01*
X0173200Y0103633D01*
X0173000Y0103433D01*
X0105700Y0057433D02*
X0087000Y0057433D01*
X0067300Y0057433D01*
X0057400Y0054433D02*
X0089200Y0022633D01*
X0103000Y0032233D02*
X0107800Y0027433D01*
X0111000Y0027433D01*
X0107800Y0047533D02*
X0073600Y0047533D01*
X0057400Y0054433D02*
X0044000Y0054433D01*
X0040000Y0058033D02*
X0036400Y0054433D01*
X0014000Y0054433D01*
D28*
X0070300Y0047833D03*
X0077500Y0045433D03*
X0105700Y0057433D03*
X0107800Y0047533D03*
X0103600Y0141433D03*
M02*
