G75*
%MOIN*%
%OFA0B0*%
%FSLAX25Y25*%
%IPPOS*%
%LPD*%
%AMOC8*
5,1,8,0,0,1.08239X$1,22.5*
%
%ADD10C,0.00000*%
%ADD11R,0.07600X0.07600*%
%ADD12OC8,0.07600*%
%ADD13C,0.06000*%
%ADD14R,0.06299X0.07098*%
%ADD15R,0.04799X0.08799*%
%ADD16R,0.14173X0.08661*%
%ADD17C,0.08600*%
%ADD18C,0.07400*%
%ADD19C,0.01500*%
%ADD20C,0.02400*%
%ADD21C,0.01600*%
%ADD22C,0.00600*%
D10*
X0011520Y0002000D02*
X0011520Y0205961D01*
X0221220Y0205961D01*
X0221220Y0002000D01*
X0011520Y0002000D01*
X0075583Y0009000D02*
X0075585Y0009125D01*
X0075591Y0009250D01*
X0075601Y0009374D01*
X0075615Y0009498D01*
X0075632Y0009622D01*
X0075654Y0009745D01*
X0075680Y0009867D01*
X0075709Y0009989D01*
X0075742Y0010109D01*
X0075780Y0010228D01*
X0075820Y0010347D01*
X0075865Y0010463D01*
X0075913Y0010578D01*
X0075965Y0010692D01*
X0076021Y0010804D01*
X0076080Y0010914D01*
X0076142Y0011022D01*
X0076208Y0011129D01*
X0076277Y0011233D01*
X0076350Y0011334D01*
X0076425Y0011434D01*
X0076504Y0011531D01*
X0076586Y0011625D01*
X0076671Y0011717D01*
X0076758Y0011806D01*
X0076849Y0011892D01*
X0076942Y0011975D01*
X0077038Y0012056D01*
X0077136Y0012133D01*
X0077236Y0012207D01*
X0077339Y0012278D01*
X0077444Y0012345D01*
X0077552Y0012410D01*
X0077661Y0012470D01*
X0077772Y0012528D01*
X0077885Y0012581D01*
X0077999Y0012631D01*
X0078115Y0012678D01*
X0078232Y0012720D01*
X0078351Y0012759D01*
X0078471Y0012795D01*
X0078592Y0012826D01*
X0078714Y0012854D01*
X0078836Y0012877D01*
X0078960Y0012897D01*
X0079084Y0012913D01*
X0079208Y0012925D01*
X0079333Y0012933D01*
X0079458Y0012937D01*
X0079582Y0012937D01*
X0079707Y0012933D01*
X0079832Y0012925D01*
X0079956Y0012913D01*
X0080080Y0012897D01*
X0080204Y0012877D01*
X0080326Y0012854D01*
X0080448Y0012826D01*
X0080569Y0012795D01*
X0080689Y0012759D01*
X0080808Y0012720D01*
X0080925Y0012678D01*
X0081041Y0012631D01*
X0081155Y0012581D01*
X0081268Y0012528D01*
X0081379Y0012470D01*
X0081489Y0012410D01*
X0081596Y0012345D01*
X0081701Y0012278D01*
X0081804Y0012207D01*
X0081904Y0012133D01*
X0082002Y0012056D01*
X0082098Y0011975D01*
X0082191Y0011892D01*
X0082282Y0011806D01*
X0082369Y0011717D01*
X0082454Y0011625D01*
X0082536Y0011531D01*
X0082615Y0011434D01*
X0082690Y0011334D01*
X0082763Y0011233D01*
X0082832Y0011129D01*
X0082898Y0011022D01*
X0082960Y0010914D01*
X0083019Y0010804D01*
X0083075Y0010692D01*
X0083127Y0010578D01*
X0083175Y0010463D01*
X0083220Y0010347D01*
X0083260Y0010228D01*
X0083298Y0010109D01*
X0083331Y0009989D01*
X0083360Y0009867D01*
X0083386Y0009745D01*
X0083408Y0009622D01*
X0083425Y0009498D01*
X0083439Y0009374D01*
X0083449Y0009250D01*
X0083455Y0009125D01*
X0083457Y0009000D01*
X0083455Y0008875D01*
X0083449Y0008750D01*
X0083439Y0008626D01*
X0083425Y0008502D01*
X0083408Y0008378D01*
X0083386Y0008255D01*
X0083360Y0008133D01*
X0083331Y0008011D01*
X0083298Y0007891D01*
X0083260Y0007772D01*
X0083220Y0007653D01*
X0083175Y0007537D01*
X0083127Y0007422D01*
X0083075Y0007308D01*
X0083019Y0007196D01*
X0082960Y0007086D01*
X0082898Y0006978D01*
X0082832Y0006871D01*
X0082763Y0006767D01*
X0082690Y0006666D01*
X0082615Y0006566D01*
X0082536Y0006469D01*
X0082454Y0006375D01*
X0082369Y0006283D01*
X0082282Y0006194D01*
X0082191Y0006108D01*
X0082098Y0006025D01*
X0082002Y0005944D01*
X0081904Y0005867D01*
X0081804Y0005793D01*
X0081701Y0005722D01*
X0081596Y0005655D01*
X0081488Y0005590D01*
X0081379Y0005530D01*
X0081268Y0005472D01*
X0081155Y0005419D01*
X0081041Y0005369D01*
X0080925Y0005322D01*
X0080808Y0005280D01*
X0080689Y0005241D01*
X0080569Y0005205D01*
X0080448Y0005174D01*
X0080326Y0005146D01*
X0080204Y0005123D01*
X0080080Y0005103D01*
X0079956Y0005087D01*
X0079832Y0005075D01*
X0079707Y0005067D01*
X0079582Y0005063D01*
X0079458Y0005063D01*
X0079333Y0005067D01*
X0079208Y0005075D01*
X0079084Y0005087D01*
X0078960Y0005103D01*
X0078836Y0005123D01*
X0078714Y0005146D01*
X0078592Y0005174D01*
X0078471Y0005205D01*
X0078351Y0005241D01*
X0078232Y0005280D01*
X0078115Y0005322D01*
X0077999Y0005369D01*
X0077885Y0005419D01*
X0077772Y0005472D01*
X0077661Y0005530D01*
X0077551Y0005590D01*
X0077444Y0005655D01*
X0077339Y0005722D01*
X0077236Y0005793D01*
X0077136Y0005867D01*
X0077038Y0005944D01*
X0076942Y0006025D01*
X0076849Y0006108D01*
X0076758Y0006194D01*
X0076671Y0006283D01*
X0076586Y0006375D01*
X0076504Y0006469D01*
X0076425Y0006566D01*
X0076350Y0006666D01*
X0076277Y0006767D01*
X0076208Y0006871D01*
X0076142Y0006978D01*
X0076080Y0007086D01*
X0076021Y0007196D01*
X0075965Y0007308D01*
X0075913Y0007422D01*
X0075865Y0007537D01*
X0075820Y0007653D01*
X0075780Y0007772D01*
X0075742Y0007891D01*
X0075709Y0008011D01*
X0075680Y0008133D01*
X0075654Y0008255D01*
X0075632Y0008378D01*
X0075615Y0008502D01*
X0075601Y0008626D01*
X0075591Y0008750D01*
X0075585Y0008875D01*
X0075583Y0009000D01*
X0205583Y0009000D02*
X0205585Y0009125D01*
X0205591Y0009250D01*
X0205601Y0009374D01*
X0205615Y0009498D01*
X0205632Y0009622D01*
X0205654Y0009745D01*
X0205680Y0009867D01*
X0205709Y0009989D01*
X0205742Y0010109D01*
X0205780Y0010228D01*
X0205820Y0010347D01*
X0205865Y0010463D01*
X0205913Y0010578D01*
X0205965Y0010692D01*
X0206021Y0010804D01*
X0206080Y0010914D01*
X0206142Y0011022D01*
X0206208Y0011129D01*
X0206277Y0011233D01*
X0206350Y0011334D01*
X0206425Y0011434D01*
X0206504Y0011531D01*
X0206586Y0011625D01*
X0206671Y0011717D01*
X0206758Y0011806D01*
X0206849Y0011892D01*
X0206942Y0011975D01*
X0207038Y0012056D01*
X0207136Y0012133D01*
X0207236Y0012207D01*
X0207339Y0012278D01*
X0207444Y0012345D01*
X0207552Y0012410D01*
X0207661Y0012470D01*
X0207772Y0012528D01*
X0207885Y0012581D01*
X0207999Y0012631D01*
X0208115Y0012678D01*
X0208232Y0012720D01*
X0208351Y0012759D01*
X0208471Y0012795D01*
X0208592Y0012826D01*
X0208714Y0012854D01*
X0208836Y0012877D01*
X0208960Y0012897D01*
X0209084Y0012913D01*
X0209208Y0012925D01*
X0209333Y0012933D01*
X0209458Y0012937D01*
X0209582Y0012937D01*
X0209707Y0012933D01*
X0209832Y0012925D01*
X0209956Y0012913D01*
X0210080Y0012897D01*
X0210204Y0012877D01*
X0210326Y0012854D01*
X0210448Y0012826D01*
X0210569Y0012795D01*
X0210689Y0012759D01*
X0210808Y0012720D01*
X0210925Y0012678D01*
X0211041Y0012631D01*
X0211155Y0012581D01*
X0211268Y0012528D01*
X0211379Y0012470D01*
X0211489Y0012410D01*
X0211596Y0012345D01*
X0211701Y0012278D01*
X0211804Y0012207D01*
X0211904Y0012133D01*
X0212002Y0012056D01*
X0212098Y0011975D01*
X0212191Y0011892D01*
X0212282Y0011806D01*
X0212369Y0011717D01*
X0212454Y0011625D01*
X0212536Y0011531D01*
X0212615Y0011434D01*
X0212690Y0011334D01*
X0212763Y0011233D01*
X0212832Y0011129D01*
X0212898Y0011022D01*
X0212960Y0010914D01*
X0213019Y0010804D01*
X0213075Y0010692D01*
X0213127Y0010578D01*
X0213175Y0010463D01*
X0213220Y0010347D01*
X0213260Y0010228D01*
X0213298Y0010109D01*
X0213331Y0009989D01*
X0213360Y0009867D01*
X0213386Y0009745D01*
X0213408Y0009622D01*
X0213425Y0009498D01*
X0213439Y0009374D01*
X0213449Y0009250D01*
X0213455Y0009125D01*
X0213457Y0009000D01*
X0213455Y0008875D01*
X0213449Y0008750D01*
X0213439Y0008626D01*
X0213425Y0008502D01*
X0213408Y0008378D01*
X0213386Y0008255D01*
X0213360Y0008133D01*
X0213331Y0008011D01*
X0213298Y0007891D01*
X0213260Y0007772D01*
X0213220Y0007653D01*
X0213175Y0007537D01*
X0213127Y0007422D01*
X0213075Y0007308D01*
X0213019Y0007196D01*
X0212960Y0007086D01*
X0212898Y0006978D01*
X0212832Y0006871D01*
X0212763Y0006767D01*
X0212690Y0006666D01*
X0212615Y0006566D01*
X0212536Y0006469D01*
X0212454Y0006375D01*
X0212369Y0006283D01*
X0212282Y0006194D01*
X0212191Y0006108D01*
X0212098Y0006025D01*
X0212002Y0005944D01*
X0211904Y0005867D01*
X0211804Y0005793D01*
X0211701Y0005722D01*
X0211596Y0005655D01*
X0211488Y0005590D01*
X0211379Y0005530D01*
X0211268Y0005472D01*
X0211155Y0005419D01*
X0211041Y0005369D01*
X0210925Y0005322D01*
X0210808Y0005280D01*
X0210689Y0005241D01*
X0210569Y0005205D01*
X0210448Y0005174D01*
X0210326Y0005146D01*
X0210204Y0005123D01*
X0210080Y0005103D01*
X0209956Y0005087D01*
X0209832Y0005075D01*
X0209707Y0005067D01*
X0209582Y0005063D01*
X0209458Y0005063D01*
X0209333Y0005067D01*
X0209208Y0005075D01*
X0209084Y0005087D01*
X0208960Y0005103D01*
X0208836Y0005123D01*
X0208714Y0005146D01*
X0208592Y0005174D01*
X0208471Y0005205D01*
X0208351Y0005241D01*
X0208232Y0005280D01*
X0208115Y0005322D01*
X0207999Y0005369D01*
X0207885Y0005419D01*
X0207772Y0005472D01*
X0207661Y0005530D01*
X0207551Y0005590D01*
X0207444Y0005655D01*
X0207339Y0005722D01*
X0207236Y0005793D01*
X0207136Y0005867D01*
X0207038Y0005944D01*
X0206942Y0006025D01*
X0206849Y0006108D01*
X0206758Y0006194D01*
X0206671Y0006283D01*
X0206586Y0006375D01*
X0206504Y0006469D01*
X0206425Y0006566D01*
X0206350Y0006666D01*
X0206277Y0006767D01*
X0206208Y0006871D01*
X0206142Y0006978D01*
X0206080Y0007086D01*
X0206021Y0007196D01*
X0205965Y0007308D01*
X0205913Y0007422D01*
X0205865Y0007537D01*
X0205820Y0007653D01*
X0205780Y0007772D01*
X0205742Y0007891D01*
X0205709Y0008011D01*
X0205680Y0008133D01*
X0205654Y0008255D01*
X0205632Y0008378D01*
X0205615Y0008502D01*
X0205601Y0008626D01*
X0205591Y0008750D01*
X0205585Y0008875D01*
X0205583Y0009000D01*
X0205583Y0197000D02*
X0205585Y0197125D01*
X0205591Y0197250D01*
X0205601Y0197374D01*
X0205615Y0197498D01*
X0205632Y0197622D01*
X0205654Y0197745D01*
X0205680Y0197867D01*
X0205709Y0197989D01*
X0205742Y0198109D01*
X0205780Y0198228D01*
X0205820Y0198347D01*
X0205865Y0198463D01*
X0205913Y0198578D01*
X0205965Y0198692D01*
X0206021Y0198804D01*
X0206080Y0198914D01*
X0206142Y0199022D01*
X0206208Y0199129D01*
X0206277Y0199233D01*
X0206350Y0199334D01*
X0206425Y0199434D01*
X0206504Y0199531D01*
X0206586Y0199625D01*
X0206671Y0199717D01*
X0206758Y0199806D01*
X0206849Y0199892D01*
X0206942Y0199975D01*
X0207038Y0200056D01*
X0207136Y0200133D01*
X0207236Y0200207D01*
X0207339Y0200278D01*
X0207444Y0200345D01*
X0207552Y0200410D01*
X0207661Y0200470D01*
X0207772Y0200528D01*
X0207885Y0200581D01*
X0207999Y0200631D01*
X0208115Y0200678D01*
X0208232Y0200720D01*
X0208351Y0200759D01*
X0208471Y0200795D01*
X0208592Y0200826D01*
X0208714Y0200854D01*
X0208836Y0200877D01*
X0208960Y0200897D01*
X0209084Y0200913D01*
X0209208Y0200925D01*
X0209333Y0200933D01*
X0209458Y0200937D01*
X0209582Y0200937D01*
X0209707Y0200933D01*
X0209832Y0200925D01*
X0209956Y0200913D01*
X0210080Y0200897D01*
X0210204Y0200877D01*
X0210326Y0200854D01*
X0210448Y0200826D01*
X0210569Y0200795D01*
X0210689Y0200759D01*
X0210808Y0200720D01*
X0210925Y0200678D01*
X0211041Y0200631D01*
X0211155Y0200581D01*
X0211268Y0200528D01*
X0211379Y0200470D01*
X0211489Y0200410D01*
X0211596Y0200345D01*
X0211701Y0200278D01*
X0211804Y0200207D01*
X0211904Y0200133D01*
X0212002Y0200056D01*
X0212098Y0199975D01*
X0212191Y0199892D01*
X0212282Y0199806D01*
X0212369Y0199717D01*
X0212454Y0199625D01*
X0212536Y0199531D01*
X0212615Y0199434D01*
X0212690Y0199334D01*
X0212763Y0199233D01*
X0212832Y0199129D01*
X0212898Y0199022D01*
X0212960Y0198914D01*
X0213019Y0198804D01*
X0213075Y0198692D01*
X0213127Y0198578D01*
X0213175Y0198463D01*
X0213220Y0198347D01*
X0213260Y0198228D01*
X0213298Y0198109D01*
X0213331Y0197989D01*
X0213360Y0197867D01*
X0213386Y0197745D01*
X0213408Y0197622D01*
X0213425Y0197498D01*
X0213439Y0197374D01*
X0213449Y0197250D01*
X0213455Y0197125D01*
X0213457Y0197000D01*
X0213455Y0196875D01*
X0213449Y0196750D01*
X0213439Y0196626D01*
X0213425Y0196502D01*
X0213408Y0196378D01*
X0213386Y0196255D01*
X0213360Y0196133D01*
X0213331Y0196011D01*
X0213298Y0195891D01*
X0213260Y0195772D01*
X0213220Y0195653D01*
X0213175Y0195537D01*
X0213127Y0195422D01*
X0213075Y0195308D01*
X0213019Y0195196D01*
X0212960Y0195086D01*
X0212898Y0194978D01*
X0212832Y0194871D01*
X0212763Y0194767D01*
X0212690Y0194666D01*
X0212615Y0194566D01*
X0212536Y0194469D01*
X0212454Y0194375D01*
X0212369Y0194283D01*
X0212282Y0194194D01*
X0212191Y0194108D01*
X0212098Y0194025D01*
X0212002Y0193944D01*
X0211904Y0193867D01*
X0211804Y0193793D01*
X0211701Y0193722D01*
X0211596Y0193655D01*
X0211488Y0193590D01*
X0211379Y0193530D01*
X0211268Y0193472D01*
X0211155Y0193419D01*
X0211041Y0193369D01*
X0210925Y0193322D01*
X0210808Y0193280D01*
X0210689Y0193241D01*
X0210569Y0193205D01*
X0210448Y0193174D01*
X0210326Y0193146D01*
X0210204Y0193123D01*
X0210080Y0193103D01*
X0209956Y0193087D01*
X0209832Y0193075D01*
X0209707Y0193067D01*
X0209582Y0193063D01*
X0209458Y0193063D01*
X0209333Y0193067D01*
X0209208Y0193075D01*
X0209084Y0193087D01*
X0208960Y0193103D01*
X0208836Y0193123D01*
X0208714Y0193146D01*
X0208592Y0193174D01*
X0208471Y0193205D01*
X0208351Y0193241D01*
X0208232Y0193280D01*
X0208115Y0193322D01*
X0207999Y0193369D01*
X0207885Y0193419D01*
X0207772Y0193472D01*
X0207661Y0193530D01*
X0207551Y0193590D01*
X0207444Y0193655D01*
X0207339Y0193722D01*
X0207236Y0193793D01*
X0207136Y0193867D01*
X0207038Y0193944D01*
X0206942Y0194025D01*
X0206849Y0194108D01*
X0206758Y0194194D01*
X0206671Y0194283D01*
X0206586Y0194375D01*
X0206504Y0194469D01*
X0206425Y0194566D01*
X0206350Y0194666D01*
X0206277Y0194767D01*
X0206208Y0194871D01*
X0206142Y0194978D01*
X0206080Y0195086D01*
X0206021Y0195196D01*
X0205965Y0195308D01*
X0205913Y0195422D01*
X0205865Y0195537D01*
X0205820Y0195653D01*
X0205780Y0195772D01*
X0205742Y0195891D01*
X0205709Y0196011D01*
X0205680Y0196133D01*
X0205654Y0196255D01*
X0205632Y0196378D01*
X0205615Y0196502D01*
X0205601Y0196626D01*
X0205591Y0196750D01*
X0205585Y0196875D01*
X0205583Y0197000D01*
X0062583Y0197000D02*
X0062585Y0197125D01*
X0062591Y0197250D01*
X0062601Y0197374D01*
X0062615Y0197498D01*
X0062632Y0197622D01*
X0062654Y0197745D01*
X0062680Y0197867D01*
X0062709Y0197989D01*
X0062742Y0198109D01*
X0062780Y0198228D01*
X0062820Y0198347D01*
X0062865Y0198463D01*
X0062913Y0198578D01*
X0062965Y0198692D01*
X0063021Y0198804D01*
X0063080Y0198914D01*
X0063142Y0199022D01*
X0063208Y0199129D01*
X0063277Y0199233D01*
X0063350Y0199334D01*
X0063425Y0199434D01*
X0063504Y0199531D01*
X0063586Y0199625D01*
X0063671Y0199717D01*
X0063758Y0199806D01*
X0063849Y0199892D01*
X0063942Y0199975D01*
X0064038Y0200056D01*
X0064136Y0200133D01*
X0064236Y0200207D01*
X0064339Y0200278D01*
X0064444Y0200345D01*
X0064552Y0200410D01*
X0064661Y0200470D01*
X0064772Y0200528D01*
X0064885Y0200581D01*
X0064999Y0200631D01*
X0065115Y0200678D01*
X0065232Y0200720D01*
X0065351Y0200759D01*
X0065471Y0200795D01*
X0065592Y0200826D01*
X0065714Y0200854D01*
X0065836Y0200877D01*
X0065960Y0200897D01*
X0066084Y0200913D01*
X0066208Y0200925D01*
X0066333Y0200933D01*
X0066458Y0200937D01*
X0066582Y0200937D01*
X0066707Y0200933D01*
X0066832Y0200925D01*
X0066956Y0200913D01*
X0067080Y0200897D01*
X0067204Y0200877D01*
X0067326Y0200854D01*
X0067448Y0200826D01*
X0067569Y0200795D01*
X0067689Y0200759D01*
X0067808Y0200720D01*
X0067925Y0200678D01*
X0068041Y0200631D01*
X0068155Y0200581D01*
X0068268Y0200528D01*
X0068379Y0200470D01*
X0068489Y0200410D01*
X0068596Y0200345D01*
X0068701Y0200278D01*
X0068804Y0200207D01*
X0068904Y0200133D01*
X0069002Y0200056D01*
X0069098Y0199975D01*
X0069191Y0199892D01*
X0069282Y0199806D01*
X0069369Y0199717D01*
X0069454Y0199625D01*
X0069536Y0199531D01*
X0069615Y0199434D01*
X0069690Y0199334D01*
X0069763Y0199233D01*
X0069832Y0199129D01*
X0069898Y0199022D01*
X0069960Y0198914D01*
X0070019Y0198804D01*
X0070075Y0198692D01*
X0070127Y0198578D01*
X0070175Y0198463D01*
X0070220Y0198347D01*
X0070260Y0198228D01*
X0070298Y0198109D01*
X0070331Y0197989D01*
X0070360Y0197867D01*
X0070386Y0197745D01*
X0070408Y0197622D01*
X0070425Y0197498D01*
X0070439Y0197374D01*
X0070449Y0197250D01*
X0070455Y0197125D01*
X0070457Y0197000D01*
X0070455Y0196875D01*
X0070449Y0196750D01*
X0070439Y0196626D01*
X0070425Y0196502D01*
X0070408Y0196378D01*
X0070386Y0196255D01*
X0070360Y0196133D01*
X0070331Y0196011D01*
X0070298Y0195891D01*
X0070260Y0195772D01*
X0070220Y0195653D01*
X0070175Y0195537D01*
X0070127Y0195422D01*
X0070075Y0195308D01*
X0070019Y0195196D01*
X0069960Y0195086D01*
X0069898Y0194978D01*
X0069832Y0194871D01*
X0069763Y0194767D01*
X0069690Y0194666D01*
X0069615Y0194566D01*
X0069536Y0194469D01*
X0069454Y0194375D01*
X0069369Y0194283D01*
X0069282Y0194194D01*
X0069191Y0194108D01*
X0069098Y0194025D01*
X0069002Y0193944D01*
X0068904Y0193867D01*
X0068804Y0193793D01*
X0068701Y0193722D01*
X0068596Y0193655D01*
X0068488Y0193590D01*
X0068379Y0193530D01*
X0068268Y0193472D01*
X0068155Y0193419D01*
X0068041Y0193369D01*
X0067925Y0193322D01*
X0067808Y0193280D01*
X0067689Y0193241D01*
X0067569Y0193205D01*
X0067448Y0193174D01*
X0067326Y0193146D01*
X0067204Y0193123D01*
X0067080Y0193103D01*
X0066956Y0193087D01*
X0066832Y0193075D01*
X0066707Y0193067D01*
X0066582Y0193063D01*
X0066458Y0193063D01*
X0066333Y0193067D01*
X0066208Y0193075D01*
X0066084Y0193087D01*
X0065960Y0193103D01*
X0065836Y0193123D01*
X0065714Y0193146D01*
X0065592Y0193174D01*
X0065471Y0193205D01*
X0065351Y0193241D01*
X0065232Y0193280D01*
X0065115Y0193322D01*
X0064999Y0193369D01*
X0064885Y0193419D01*
X0064772Y0193472D01*
X0064661Y0193530D01*
X0064551Y0193590D01*
X0064444Y0193655D01*
X0064339Y0193722D01*
X0064236Y0193793D01*
X0064136Y0193867D01*
X0064038Y0193944D01*
X0063942Y0194025D01*
X0063849Y0194108D01*
X0063758Y0194194D01*
X0063671Y0194283D01*
X0063586Y0194375D01*
X0063504Y0194469D01*
X0063425Y0194566D01*
X0063350Y0194666D01*
X0063277Y0194767D01*
X0063208Y0194871D01*
X0063142Y0194978D01*
X0063080Y0195086D01*
X0063021Y0195196D01*
X0062965Y0195308D01*
X0062913Y0195422D01*
X0062865Y0195537D01*
X0062820Y0195653D01*
X0062780Y0195772D01*
X0062742Y0195891D01*
X0062709Y0196011D01*
X0062680Y0196133D01*
X0062654Y0196255D01*
X0062632Y0196378D01*
X0062615Y0196502D01*
X0062601Y0196626D01*
X0062591Y0196750D01*
X0062585Y0196875D01*
X0062583Y0197000D01*
D11*
X0085462Y0153350D03*
D12*
X0164202Y0153350D03*
D13*
X0201520Y0139000D02*
X0207520Y0139000D01*
X0207520Y0129000D02*
X0201520Y0129000D01*
X0027520Y0125000D02*
X0021520Y0125000D01*
X0021520Y0135000D02*
X0027520Y0135000D01*
X0027520Y0145000D02*
X0021520Y0145000D01*
X0021520Y0155000D02*
X0027520Y0155000D01*
D14*
X0082071Y0137190D03*
X0093268Y0137190D03*
X0117071Y0137190D03*
X0128268Y0137190D03*
X0152071Y0137190D03*
X0163268Y0137190D03*
D15*
X0167618Y0170799D03*
X0158520Y0170799D03*
X0149421Y0170799D03*
X0131618Y0170799D03*
X0122520Y0170799D03*
X0113421Y0170799D03*
X0095618Y0170799D03*
X0086520Y0170799D03*
X0077421Y0170799D03*
D16*
X0086520Y0195201D03*
X0122520Y0195201D03*
X0158520Y0195201D03*
D17*
X0055331Y0190300D02*
X0055331Y0181700D01*
X0047820Y0167102D02*
X0039220Y0167102D01*
X0031709Y0181700D02*
X0031709Y0190300D01*
D18*
X0194520Y0180000D03*
X0194520Y0170000D03*
X0194520Y0160000D03*
X0204520Y0160000D03*
X0204520Y0170000D03*
X0204520Y0180000D03*
D19*
X0194520Y0180000D02*
X0194420Y0179900D01*
X0167720Y0179900D01*
X0163520Y0175700D01*
X0163520Y0166700D01*
X0161420Y0164600D01*
X0155420Y0164600D01*
X0149720Y0170300D01*
X0149421Y0170799D01*
X0149420Y0170900D01*
X0143420Y0176900D01*
X0128720Y0176900D01*
X0127520Y0175700D01*
X0127520Y0166700D01*
X0125420Y0164600D01*
X0119720Y0164600D01*
X0113720Y0170600D01*
X0113421Y0170799D01*
X0122520Y0170799D02*
X0122720Y0170900D01*
X0122720Y0176900D01*
X0092720Y0176900D01*
X0091520Y0175700D01*
X0091520Y0166700D01*
X0089420Y0164600D01*
X0086720Y0164600D01*
X0057320Y0135200D01*
X0024620Y0135200D01*
X0024520Y0135000D01*
X0016820Y0133100D02*
X0016820Y0183800D01*
X0035720Y0202700D01*
X0150620Y0202700D01*
X0157820Y0195500D01*
X0158520Y0195201D01*
X0158720Y0195200D01*
X0158720Y0170900D01*
X0158520Y0170799D01*
X0122720Y0176900D02*
X0122720Y0195200D01*
X0122520Y0195201D01*
X0086720Y0195200D02*
X0086720Y0170900D01*
X0086520Y0170799D01*
X0086120Y0170300D01*
X0060920Y0145100D01*
X0024620Y0145100D01*
X0024520Y0145000D01*
X0016820Y0133100D02*
X0024320Y0125600D01*
X0024320Y0125000D01*
X0024520Y0125000D01*
X0053720Y0162800D02*
X0053720Y0170900D01*
X0077420Y0170900D01*
X0077421Y0170799D01*
X0086520Y0195201D02*
X0086720Y0195200D01*
X0053720Y0170900D02*
X0052520Y0170900D01*
X0037520Y0185900D01*
X0031820Y0185900D01*
X0031709Y0186000D01*
X0091220Y0097700D02*
X0096920Y0092000D01*
X0096920Y0089000D01*
X0106520Y0089000D01*
X0106820Y0088400D01*
X0131120Y0064100D01*
X0131120Y0060200D01*
X0130220Y0059300D01*
X0130220Y0055400D01*
X0130520Y0055100D01*
X0130520Y0047900D01*
X0117620Y0024800D02*
X0066620Y0075800D01*
X0096920Y0081200D02*
X0096920Y0089000D01*
D20*
X0092120Y0089900D03*
X0091220Y0097700D03*
X0080720Y0096200D03*
X0081620Y0092000D03*
X0096920Y0081200D03*
X0106520Y0089000D03*
X0126920Y0061700D03*
X0133220Y0056300D03*
X0135320Y0053900D03*
X0130520Y0047900D03*
X0120020Y0045200D03*
X0116420Y0046700D03*
X0120320Y0054800D03*
X0111920Y0037100D03*
X0102320Y0044000D03*
X0117620Y0024800D03*
X0132920Y0019100D03*
X0166820Y0042200D03*
X0166820Y0056000D03*
X0189020Y0023000D03*
X0201320Y0053300D03*
X0201320Y0069500D03*
X0197420Y0107300D03*
X0163220Y0107000D03*
X0155720Y0096500D03*
X0157820Y0091700D03*
X0140720Y0089900D03*
X0066620Y0075800D03*
X0063620Y0089900D03*
X0053720Y0162800D03*
D21*
X0052821Y0163760D02*
X0053720Y0165929D01*
X0053720Y0168276D01*
X0052821Y0170444D01*
X0051162Y0172104D01*
X0048993Y0173002D01*
X0038046Y0173002D01*
X0035878Y0172104D01*
X0034218Y0170444D01*
X0033320Y0168276D01*
X0033320Y0165929D01*
X0034218Y0163760D01*
X0035878Y0162101D01*
X0038046Y0161202D01*
X0048993Y0161202D01*
X0051162Y0162101D01*
X0052821Y0163760D01*
X0052511Y0163450D02*
X0075946Y0163450D01*
X0077021Y0164600D02*
X0074785Y0164600D01*
X0074327Y0164722D01*
X0073916Y0164959D01*
X0073581Y0165294D01*
X0073344Y0165705D01*
X0073222Y0166163D01*
X0073222Y0170399D01*
X0077021Y0170399D01*
X0077821Y0170399D01*
X0077821Y0165325D01*
X0059946Y0147450D01*
X0031484Y0147450D01*
X0031419Y0147606D01*
X0030125Y0148900D01*
X0028435Y0149600D01*
X0020605Y0149600D01*
X0019170Y0149006D01*
X0019170Y0150994D01*
X0020605Y0150400D01*
X0028435Y0150400D01*
X0030125Y0151100D01*
X0031419Y0152394D01*
X0032120Y0154085D01*
X0032120Y0155915D01*
X0031419Y0157606D01*
X0030125Y0158900D01*
X0028435Y0159600D01*
X0020605Y0159600D01*
X0019170Y0159006D01*
X0019170Y0182827D01*
X0025609Y0189266D01*
X0025609Y0186000D01*
X0025609Y0181220D01*
X0025759Y0180272D01*
X0026056Y0179358D01*
X0026491Y0178503D01*
X0027056Y0177726D01*
X0027735Y0177047D01*
X0028512Y0176483D01*
X0029367Y0176047D01*
X0030280Y0175750D01*
X0031229Y0175600D01*
X0031709Y0175600D01*
X0032189Y0175600D01*
X0033137Y0175750D01*
X0034050Y0176047D01*
X0034906Y0176483D01*
X0035683Y0177047D01*
X0036361Y0177726D01*
X0036926Y0178503D01*
X0037362Y0179358D01*
X0037658Y0180272D01*
X0037809Y0181220D01*
X0037809Y0186000D01*
X0037809Y0190780D01*
X0037658Y0191728D01*
X0037362Y0192642D01*
X0036926Y0193497D01*
X0036361Y0194274D01*
X0035683Y0194953D01*
X0034906Y0195517D01*
X0034050Y0195953D01*
X0033137Y0196250D01*
X0032667Y0196324D01*
X0036693Y0200350D01*
X0061756Y0200350D01*
X0061656Y0200250D01*
X0060783Y0198141D01*
X0060783Y0195859D01*
X0061656Y0193750D01*
X0063270Y0192136D01*
X0065379Y0191263D01*
X0067661Y0191263D01*
X0069769Y0192136D01*
X0071383Y0193750D01*
X0072257Y0195859D01*
X0072257Y0198141D01*
X0071383Y0200250D01*
X0071283Y0200350D01*
X0077989Y0200350D01*
X0077833Y0200194D01*
X0077833Y0190207D01*
X0078770Y0189270D01*
X0084370Y0189270D01*
X0084370Y0176799D01*
X0083457Y0176799D01*
X0082520Y0175862D01*
X0082520Y0170024D01*
X0081621Y0169125D01*
X0081621Y0170399D01*
X0077821Y0170399D01*
X0077821Y0171199D01*
X0077021Y0171199D01*
X0077021Y0170399D01*
X0077021Y0164600D01*
X0077021Y0165048D02*
X0077544Y0165048D01*
X0077821Y0166647D02*
X0077021Y0166647D01*
X0077021Y0168245D02*
X0077821Y0168245D01*
X0077821Y0169844D02*
X0077021Y0169844D01*
X0077021Y0171199D02*
X0073222Y0171199D01*
X0073222Y0175436D01*
X0073344Y0175894D01*
X0073581Y0176304D01*
X0073916Y0176639D01*
X0074327Y0176876D01*
X0074785Y0176999D01*
X0077021Y0176999D01*
X0077021Y0171199D01*
X0077021Y0171442D02*
X0077821Y0171442D01*
X0077821Y0171199D02*
X0077821Y0176999D01*
X0080058Y0176999D01*
X0080516Y0176876D01*
X0080926Y0176639D01*
X0081261Y0176304D01*
X0081498Y0175894D01*
X0081621Y0175436D01*
X0081621Y0171199D01*
X0077821Y0171199D01*
X0077821Y0173041D02*
X0077021Y0173041D01*
X0077021Y0174639D02*
X0077821Y0174639D01*
X0077821Y0176238D02*
X0077021Y0176238D01*
X0073543Y0176238D02*
X0057561Y0176238D01*
X0056504Y0175800D02*
X0058673Y0176698D01*
X0060332Y0178358D01*
X0061231Y0180526D01*
X0061231Y0191474D01*
X0060332Y0193642D01*
X0058673Y0195302D01*
X0056504Y0196200D01*
X0054157Y0196200D01*
X0051989Y0195302D01*
X0050329Y0193642D01*
X0049431Y0191474D01*
X0049431Y0180526D01*
X0050329Y0178358D01*
X0051989Y0176698D01*
X0054157Y0175800D01*
X0056504Y0175800D01*
X0059811Y0177836D02*
X0084370Y0177836D01*
X0084370Y0179435D02*
X0060779Y0179435D01*
X0061231Y0181033D02*
X0084370Y0181033D01*
X0084370Y0182632D02*
X0061231Y0182632D01*
X0061231Y0184230D02*
X0084370Y0184230D01*
X0084370Y0185829D02*
X0061231Y0185829D01*
X0061231Y0187427D02*
X0084370Y0187427D01*
X0084370Y0189026D02*
X0061231Y0189026D01*
X0061231Y0190624D02*
X0077833Y0190624D01*
X0077833Y0192223D02*
X0069856Y0192223D01*
X0071413Y0193821D02*
X0077833Y0193821D01*
X0077833Y0195420D02*
X0072075Y0195420D01*
X0072257Y0197018D02*
X0077833Y0197018D01*
X0077833Y0198617D02*
X0072060Y0198617D01*
X0071398Y0200215D02*
X0077854Y0200215D01*
X0063183Y0192223D02*
X0060920Y0192223D01*
X0061627Y0193821D02*
X0060153Y0193821D01*
X0060964Y0195420D02*
X0058388Y0195420D01*
X0060783Y0197018D02*
X0033361Y0197018D01*
X0034960Y0198617D02*
X0060980Y0198617D01*
X0061642Y0200215D02*
X0036558Y0200215D01*
X0035040Y0195420D02*
X0052274Y0195420D01*
X0050508Y0193821D02*
X0036690Y0193821D01*
X0037498Y0192223D02*
X0049741Y0192223D01*
X0049431Y0190624D02*
X0037809Y0190624D01*
X0037809Y0189026D02*
X0049431Y0189026D01*
X0049431Y0187427D02*
X0037809Y0187427D01*
X0037809Y0186000D02*
X0031709Y0186000D01*
X0031709Y0186000D01*
X0037809Y0186000D01*
X0037809Y0185829D02*
X0049431Y0185829D01*
X0049431Y0184230D02*
X0037809Y0184230D01*
X0037809Y0182632D02*
X0049431Y0182632D01*
X0049431Y0181033D02*
X0037779Y0181033D01*
X0037387Y0179435D02*
X0049883Y0179435D01*
X0050851Y0177836D02*
X0036441Y0177836D01*
X0034425Y0176238D02*
X0053100Y0176238D01*
X0051824Y0171442D02*
X0073222Y0171442D01*
X0073222Y0169844D02*
X0053070Y0169844D01*
X0053720Y0168245D02*
X0073222Y0168245D01*
X0073222Y0166647D02*
X0053720Y0166647D01*
X0053355Y0165048D02*
X0073828Y0165048D01*
X0074347Y0161851D02*
X0050560Y0161851D01*
X0061559Y0149063D02*
X0029731Y0149063D01*
X0029066Y0150662D02*
X0063158Y0150662D01*
X0064756Y0152260D02*
X0031285Y0152260D01*
X0032026Y0153859D02*
X0066355Y0153859D01*
X0067953Y0155457D02*
X0032120Y0155457D01*
X0031647Y0157056D02*
X0069552Y0157056D01*
X0071150Y0158654D02*
X0030371Y0158654D01*
X0034529Y0163450D02*
X0019170Y0163450D01*
X0019170Y0165048D02*
X0033684Y0165048D01*
X0033320Y0166647D02*
X0019170Y0166647D01*
X0019170Y0168245D02*
X0033320Y0168245D01*
X0033969Y0169844D02*
X0019170Y0169844D01*
X0019170Y0171442D02*
X0035216Y0171442D01*
X0031709Y0175600D02*
X0031709Y0186000D01*
X0031709Y0186000D01*
X0031709Y0175600D01*
X0031709Y0176238D02*
X0031709Y0176238D01*
X0031709Y0177836D02*
X0031709Y0177836D01*
X0031709Y0179435D02*
X0031709Y0179435D01*
X0031709Y0181033D02*
X0031709Y0181033D01*
X0031709Y0182632D02*
X0031709Y0182632D01*
X0031709Y0184230D02*
X0031709Y0184230D01*
X0031709Y0185829D02*
X0031709Y0185829D01*
X0031709Y0186000D02*
X0025609Y0186000D01*
X0031709Y0186000D01*
X0031709Y0186000D01*
X0025609Y0185829D02*
X0022172Y0185829D01*
X0023770Y0187427D02*
X0025609Y0187427D01*
X0025609Y0189026D02*
X0025369Y0189026D01*
X0025609Y0184230D02*
X0020573Y0184230D01*
X0019170Y0182632D02*
X0025609Y0182632D01*
X0025638Y0181033D02*
X0019170Y0181033D01*
X0019170Y0179435D02*
X0026031Y0179435D01*
X0026976Y0177836D02*
X0019170Y0177836D01*
X0019170Y0176238D02*
X0028993Y0176238D01*
X0019170Y0174639D02*
X0073222Y0174639D01*
X0073222Y0173041D02*
X0019170Y0173041D01*
X0019170Y0161851D02*
X0036480Y0161851D01*
X0031478Y0147465D02*
X0059961Y0147465D01*
X0066514Y0141070D02*
X0077322Y0141070D01*
X0077322Y0141402D02*
X0077322Y0132978D01*
X0078259Y0132041D01*
X0084492Y0132041D01*
X0128533Y0088000D01*
X0138660Y0088000D01*
X0139134Y0087526D01*
X0140163Y0087100D01*
X0141277Y0087100D01*
X0142306Y0087526D01*
X0143093Y0088314D01*
X0143520Y0089343D01*
X0143520Y0089800D01*
X0155760Y0089800D01*
X0156234Y0089326D01*
X0157263Y0088900D01*
X0158377Y0088900D01*
X0159406Y0089326D01*
X0160193Y0090114D01*
X0160620Y0091143D01*
X0160620Y0092257D01*
X0160193Y0093286D01*
X0159406Y0094074D01*
X0158377Y0094500D01*
X0157679Y0094500D01*
X0158093Y0094914D01*
X0158520Y0095943D01*
X0158520Y0097057D01*
X0158093Y0098086D01*
X0157620Y0098560D01*
X0157620Y0099387D01*
X0124966Y0132041D01*
X0132080Y0132041D01*
X0133018Y0132978D01*
X0133018Y0141402D01*
X0132080Y0142339D01*
X0130320Y0142339D01*
X0130320Y0164113D01*
X0131006Y0164800D01*
X0134680Y0164800D01*
X0135618Y0165737D01*
X0135618Y0175862D01*
X0134680Y0176799D01*
X0128556Y0176799D01*
X0127619Y0175862D01*
X0127619Y0166786D01*
X0126520Y0165687D01*
X0126520Y0142339D01*
X0124456Y0142339D01*
X0123519Y0141402D01*
X0123519Y0133488D01*
X0121821Y0135186D01*
X0121821Y0141402D01*
X0120884Y0142339D01*
X0113259Y0142339D01*
X0112322Y0141402D01*
X0112322Y0132978D01*
X0113259Y0132041D01*
X0119592Y0132041D01*
X0153446Y0098186D01*
X0153346Y0098086D01*
X0152920Y0097057D01*
X0152920Y0095943D01*
X0153346Y0094914D01*
X0154134Y0094126D01*
X0155163Y0093700D01*
X0155860Y0093700D01*
X0155760Y0093600D01*
X0142707Y0093600D01*
X0103020Y0133287D01*
X0101907Y0134400D01*
X0098018Y0134400D01*
X0098018Y0141402D01*
X0097080Y0142339D01*
X0095220Y0142339D01*
X0095220Y0164800D01*
X0098680Y0164800D01*
X0099618Y0165737D01*
X0099618Y0174550D01*
X0109222Y0174550D01*
X0109222Y0171199D01*
X0113021Y0171199D01*
X0113021Y0170399D01*
X0113821Y0170399D01*
X0113821Y0164600D01*
X0116058Y0164600D01*
X0116516Y0164722D01*
X0116926Y0164959D01*
X0117261Y0165294D01*
X0117498Y0165705D01*
X0117621Y0166163D01*
X0117621Y0170399D01*
X0113821Y0170399D01*
X0113821Y0171199D01*
X0117621Y0171199D01*
X0117621Y0174550D01*
X0118520Y0174550D01*
X0118520Y0165737D01*
X0119457Y0164800D01*
X0125582Y0164800D01*
X0126519Y0165737D01*
X0126519Y0175862D01*
X0125582Y0176799D01*
X0125070Y0176799D01*
X0125070Y0189270D01*
X0130269Y0189270D01*
X0131206Y0190207D01*
X0131206Y0200194D01*
X0131051Y0200350D01*
X0149646Y0200350D01*
X0149833Y0200163D01*
X0149833Y0190207D01*
X0150770Y0189270D01*
X0156370Y0189270D01*
X0156370Y0176799D01*
X0155457Y0176799D01*
X0154520Y0175862D01*
X0154520Y0165737D01*
X0155457Y0164800D01*
X0161582Y0164800D01*
X0162519Y0165737D01*
X0162519Y0175862D01*
X0161582Y0176799D01*
X0161070Y0176799D01*
X0161070Y0189270D01*
X0166269Y0189270D01*
X0167206Y0190207D01*
X0167206Y0200194D01*
X0166269Y0201131D01*
X0155512Y0201131D01*
X0153643Y0203000D01*
X0218520Y0203000D01*
X0218520Y0005000D01*
X0213633Y0005000D01*
X0214383Y0005750D01*
X0215257Y0007859D01*
X0215257Y0010141D01*
X0214383Y0012250D01*
X0212769Y0013864D01*
X0210661Y0014737D01*
X0208379Y0014737D01*
X0206270Y0013864D01*
X0204656Y0012250D01*
X0203783Y0010141D01*
X0203783Y0007859D01*
X0204656Y0005750D01*
X0205406Y0005000D01*
X0094520Y0005000D01*
X0078520Y0021000D01*
X0078520Y0060577D01*
X0114820Y0024277D01*
X0114820Y0024243D01*
X0115246Y0023214D01*
X0116034Y0022426D01*
X0117063Y0022000D01*
X0118177Y0022000D01*
X0119206Y0022426D01*
X0119993Y0023214D01*
X0120420Y0024243D01*
X0120420Y0025357D01*
X0119993Y0026386D01*
X0119206Y0027174D01*
X0118177Y0027600D01*
X0118143Y0027600D01*
X0111443Y0034300D01*
X0112477Y0034300D01*
X0113506Y0034726D01*
X0114293Y0035514D01*
X0114720Y0036543D01*
X0114720Y0037213D01*
X0119907Y0042400D01*
X0120220Y0042400D01*
X0120220Y0026113D01*
X0121333Y0025000D01*
X0131233Y0015100D01*
X0134607Y0015100D01*
X0135720Y0016213D01*
X0140607Y0021100D01*
X0186960Y0021100D01*
X0187434Y0020626D01*
X0188463Y0020200D01*
X0189577Y0020200D01*
X0190606Y0020626D01*
X0191393Y0021414D01*
X0191820Y0022443D01*
X0191820Y0023557D01*
X0191393Y0024586D01*
X0190606Y0025374D01*
X0189577Y0025800D01*
X0188463Y0025800D01*
X0187434Y0025374D01*
X0186960Y0024900D01*
X0141407Y0024900D01*
X0184107Y0067600D01*
X0199260Y0067600D01*
X0199734Y0067126D01*
X0200763Y0066700D01*
X0201877Y0066700D01*
X0202906Y0067126D01*
X0203693Y0067914D01*
X0204120Y0068943D01*
X0204120Y0070057D01*
X0203693Y0071086D01*
X0202906Y0071874D01*
X0201877Y0072300D01*
X0200763Y0072300D01*
X0199734Y0071874D01*
X0199260Y0071400D01*
X0182533Y0071400D01*
X0168956Y0057823D01*
X0168406Y0058374D01*
X0167377Y0058800D01*
X0166263Y0058800D01*
X0165234Y0058374D01*
X0164446Y0057586D01*
X0164020Y0056557D01*
X0164020Y0055887D01*
X0154333Y0046200D01*
X0139007Y0046200D01*
X0197307Y0104500D01*
X0197977Y0104500D01*
X0199006Y0104926D01*
X0199793Y0105714D01*
X0200220Y0106743D01*
X0200220Y0107857D01*
X0199793Y0108886D01*
X0199006Y0109674D01*
X0197977Y0110100D01*
X0196907Y0110100D01*
X0213420Y0126613D01*
X0213420Y0131487D01*
X0212307Y0132600D01*
X0209900Y0135007D01*
X0210125Y0135100D01*
X0211419Y0136394D01*
X0212120Y0138085D01*
X0212120Y0139915D01*
X0211419Y0141606D01*
X0210125Y0142900D01*
X0208435Y0143600D01*
X0200605Y0143600D01*
X0198914Y0142900D01*
X0197620Y0141606D01*
X0196920Y0139915D01*
X0196920Y0138085D01*
X0197620Y0136394D01*
X0198914Y0135100D01*
X0200605Y0134400D01*
X0205133Y0134400D01*
X0205933Y0133600D01*
X0200605Y0133600D01*
X0198914Y0132900D01*
X0197620Y0131606D01*
X0196920Y0129915D01*
X0196920Y0128085D01*
X0197620Y0126394D01*
X0198373Y0125641D01*
X0131320Y0058587D01*
X0131320Y0058360D01*
X0130846Y0057886D01*
X0130420Y0056857D01*
X0130420Y0055743D01*
X0130846Y0054714D01*
X0131634Y0053926D01*
X0132520Y0053559D01*
X0132520Y0053343D01*
X0132946Y0052314D01*
X0133734Y0051526D01*
X0134763Y0051100D01*
X0135877Y0051100D01*
X0136906Y0051526D01*
X0137379Y0052000D01*
X0138807Y0052000D01*
X0139920Y0053113D01*
X0194620Y0107813D01*
X0194620Y0107187D01*
X0134833Y0047400D01*
X0130407Y0047400D01*
X0130020Y0047787D01*
X0130020Y0059113D01*
X0130920Y0060013D01*
X0130920Y0063387D01*
X0129807Y0064500D01*
X0128607Y0065700D01*
X0125233Y0065700D01*
X0124120Y0064587D01*
X0114520Y0054987D01*
X0114520Y0048760D01*
X0114360Y0048600D01*
X0104233Y0048600D01*
X0102433Y0046800D01*
X0101763Y0046800D01*
X0100734Y0046374D01*
X0100051Y0045692D01*
X0078520Y0067223D01*
X0078520Y0088000D01*
X0090060Y0088000D01*
X0090534Y0087526D01*
X0091563Y0087100D01*
X0092677Y0087100D01*
X0093706Y0087526D01*
X0094493Y0088314D01*
X0094920Y0089343D01*
X0094920Y0090457D01*
X0094493Y0091486D01*
X0093706Y0092274D01*
X0092677Y0092700D01*
X0091563Y0092700D01*
X0090534Y0092274D01*
X0090060Y0091800D01*
X0084420Y0091800D01*
X0084420Y0092557D01*
X0083993Y0093586D01*
X0083520Y0094060D01*
X0083520Y0096757D01*
X0083093Y0097786D01*
X0082306Y0098574D01*
X0081277Y0099000D01*
X0080163Y0099000D01*
X0079134Y0098574D01*
X0078520Y0097960D01*
X0078520Y0107000D01*
X0069520Y0116000D01*
X0014520Y0116000D01*
X0014520Y0132077D01*
X0015846Y0130750D01*
X0018305Y0128291D01*
X0017620Y0127606D01*
X0016920Y0125915D01*
X0016920Y0124085D01*
X0017620Y0122394D01*
X0018914Y0121100D01*
X0020605Y0120400D01*
X0028435Y0120400D01*
X0030125Y0121100D01*
X0031419Y0122394D01*
X0032120Y0124085D01*
X0032120Y0125915D01*
X0031419Y0127606D01*
X0030125Y0128900D01*
X0028435Y0129600D01*
X0023643Y0129600D01*
X0022843Y0130400D01*
X0028435Y0130400D01*
X0030125Y0131100D01*
X0031419Y0132394D01*
X0031608Y0132850D01*
X0058293Y0132850D01*
X0080062Y0154618D01*
X0080062Y0148887D01*
X0080999Y0147950D01*
X0084520Y0147950D01*
X0084520Y0142339D01*
X0078259Y0142339D01*
X0077322Y0141402D01*
X0077322Y0139472D02*
X0064915Y0139472D01*
X0063317Y0137873D02*
X0077322Y0137873D01*
X0077322Y0136275D02*
X0061718Y0136275D01*
X0060120Y0134676D02*
X0077322Y0134676D01*
X0077322Y0133078D02*
X0058521Y0133078D01*
X0068112Y0142669D02*
X0084520Y0142669D01*
X0084520Y0144268D02*
X0069711Y0144268D01*
X0071309Y0145866D02*
X0084520Y0145866D01*
X0084520Y0147465D02*
X0072908Y0147465D01*
X0074506Y0149063D02*
X0080062Y0149063D01*
X0080062Y0150662D02*
X0076105Y0150662D01*
X0077703Y0152260D02*
X0080062Y0152260D01*
X0080062Y0153859D02*
X0079302Y0153859D01*
X0072749Y0160253D02*
X0019170Y0160253D01*
X0019170Y0150662D02*
X0019973Y0150662D01*
X0019308Y0149063D02*
X0019170Y0149063D01*
X0015117Y0131479D02*
X0014520Y0131479D01*
X0014520Y0129881D02*
X0016715Y0129881D01*
X0018297Y0128282D02*
X0014520Y0128282D01*
X0014520Y0126684D02*
X0017238Y0126684D01*
X0016920Y0125085D02*
X0014520Y0125085D01*
X0014520Y0123487D02*
X0017167Y0123487D01*
X0018126Y0121888D02*
X0014520Y0121888D01*
X0014520Y0120290D02*
X0096243Y0120290D01*
X0094644Y0121888D02*
X0030913Y0121888D01*
X0031872Y0123487D02*
X0093046Y0123487D01*
X0091447Y0125085D02*
X0032120Y0125085D01*
X0031801Y0126684D02*
X0089849Y0126684D01*
X0088250Y0128282D02*
X0030743Y0128282D01*
X0030504Y0131479D02*
X0085053Y0131479D01*
X0086652Y0129881D02*
X0023362Y0129881D01*
X0014520Y0118691D02*
X0097841Y0118691D01*
X0099440Y0117093D02*
X0014520Y0117093D01*
X0070025Y0115494D02*
X0101038Y0115494D01*
X0102637Y0113896D02*
X0071624Y0113896D01*
X0073222Y0112297D02*
X0104235Y0112297D01*
X0105834Y0110699D02*
X0074821Y0110699D01*
X0076419Y0109100D02*
X0107432Y0109100D01*
X0109031Y0107502D02*
X0078018Y0107502D01*
X0078520Y0105903D02*
X0110629Y0105903D01*
X0112228Y0104305D02*
X0078520Y0104305D01*
X0078520Y0102706D02*
X0113826Y0102706D01*
X0115425Y0101108D02*
X0078520Y0101108D01*
X0078520Y0099509D02*
X0117023Y0099509D01*
X0118622Y0097911D02*
X0082969Y0097911D01*
X0083520Y0096312D02*
X0120221Y0096312D01*
X0121819Y0094714D02*
X0083520Y0094714D01*
X0084188Y0093115D02*
X0123418Y0093115D01*
X0125016Y0091517D02*
X0094463Y0091517D01*
X0094920Y0089918D02*
X0126615Y0089918D01*
X0128213Y0088320D02*
X0094496Y0088320D01*
X0078520Y0086721D02*
X0159454Y0086721D01*
X0161052Y0088320D02*
X0143096Y0088320D01*
X0141593Y0094714D02*
X0153546Y0094714D01*
X0152920Y0096312D02*
X0139995Y0096312D01*
X0138396Y0097911D02*
X0153273Y0097911D01*
X0152123Y0099509D02*
X0136797Y0099509D01*
X0135199Y0101108D02*
X0150525Y0101108D01*
X0148926Y0102706D02*
X0133600Y0102706D01*
X0132002Y0104305D02*
X0147328Y0104305D01*
X0145729Y0105903D02*
X0130403Y0105903D01*
X0128805Y0107502D02*
X0144131Y0107502D01*
X0142532Y0109100D02*
X0127206Y0109100D01*
X0125608Y0110699D02*
X0140934Y0110699D01*
X0139335Y0112297D02*
X0124009Y0112297D01*
X0122411Y0113896D02*
X0137737Y0113896D01*
X0136138Y0115494D02*
X0120812Y0115494D01*
X0119214Y0117093D02*
X0134540Y0117093D01*
X0132941Y0118691D02*
X0117615Y0118691D01*
X0116017Y0120290D02*
X0131343Y0120290D01*
X0129744Y0121888D02*
X0114418Y0121888D01*
X0112820Y0123487D02*
X0128146Y0123487D01*
X0126547Y0125085D02*
X0111221Y0125085D01*
X0109623Y0126684D02*
X0124949Y0126684D01*
X0123350Y0128282D02*
X0108024Y0128282D01*
X0106426Y0129881D02*
X0121752Y0129881D01*
X0120153Y0131479D02*
X0104827Y0131479D01*
X0103229Y0133078D02*
X0112322Y0133078D01*
X0112322Y0134676D02*
X0098018Y0134676D01*
X0098018Y0136275D02*
X0112322Y0136275D01*
X0112322Y0137873D02*
X0098018Y0137873D01*
X0098018Y0139472D02*
X0112322Y0139472D01*
X0112322Y0141070D02*
X0098018Y0141070D01*
X0095220Y0142669D02*
X0126520Y0142669D01*
X0126520Y0144268D02*
X0095220Y0144268D01*
X0095220Y0145866D02*
X0126520Y0145866D01*
X0126520Y0147465D02*
X0095220Y0147465D01*
X0095220Y0149063D02*
X0126520Y0149063D01*
X0126520Y0150662D02*
X0095220Y0150662D01*
X0095220Y0152260D02*
X0126520Y0152260D01*
X0126520Y0153859D02*
X0095220Y0153859D01*
X0095220Y0155457D02*
X0126520Y0155457D01*
X0126520Y0157056D02*
X0095220Y0157056D01*
X0095220Y0158654D02*
X0126520Y0158654D01*
X0126520Y0160253D02*
X0095220Y0160253D01*
X0095220Y0161851D02*
X0126520Y0161851D01*
X0126520Y0163450D02*
X0095220Y0163450D01*
X0098929Y0165048D02*
X0109828Y0165048D01*
X0109916Y0164959D02*
X0110327Y0164722D01*
X0110785Y0164600D01*
X0113021Y0164600D01*
X0113021Y0170399D01*
X0109222Y0170399D01*
X0109222Y0166163D01*
X0109344Y0165705D01*
X0109581Y0165294D01*
X0109916Y0164959D01*
X0109222Y0166647D02*
X0099618Y0166647D01*
X0099618Y0168245D02*
X0109222Y0168245D01*
X0109222Y0169844D02*
X0099618Y0169844D01*
X0099618Y0171442D02*
X0109222Y0171442D01*
X0109222Y0173041D02*
X0099618Y0173041D01*
X0113021Y0169844D02*
X0113821Y0169844D01*
X0113821Y0168245D02*
X0113021Y0168245D01*
X0113021Y0166647D02*
X0113821Y0166647D01*
X0113821Y0165048D02*
X0113021Y0165048D01*
X0117015Y0165048D02*
X0119209Y0165048D01*
X0118520Y0166647D02*
X0117621Y0166647D01*
X0117621Y0168245D02*
X0118520Y0168245D01*
X0118520Y0169844D02*
X0117621Y0169844D01*
X0117621Y0171442D02*
X0118520Y0171442D01*
X0118520Y0173041D02*
X0117621Y0173041D01*
X0125070Y0177836D02*
X0156370Y0177836D01*
X0156370Y0179435D02*
X0125070Y0179435D01*
X0125070Y0181033D02*
X0156370Y0181033D01*
X0156370Y0182632D02*
X0125070Y0182632D01*
X0125070Y0184230D02*
X0156370Y0184230D01*
X0156370Y0185829D02*
X0125070Y0185829D01*
X0125070Y0187427D02*
X0156370Y0187427D01*
X0156370Y0189026D02*
X0125070Y0189026D01*
X0131206Y0190624D02*
X0149833Y0190624D01*
X0149833Y0192223D02*
X0131206Y0192223D01*
X0131206Y0193821D02*
X0149833Y0193821D01*
X0149833Y0195420D02*
X0131206Y0195420D01*
X0131206Y0197018D02*
X0149833Y0197018D01*
X0149833Y0198617D02*
X0131206Y0198617D01*
X0131185Y0200215D02*
X0149781Y0200215D01*
X0154829Y0201814D02*
X0206220Y0201814D01*
X0206270Y0201864D02*
X0204656Y0200250D01*
X0203783Y0198141D01*
X0203783Y0195859D01*
X0204656Y0193750D01*
X0206270Y0192136D01*
X0208379Y0191263D01*
X0210661Y0191263D01*
X0212769Y0192136D01*
X0214383Y0193750D01*
X0215257Y0195859D01*
X0215257Y0198141D01*
X0214383Y0200250D01*
X0212769Y0201864D01*
X0210661Y0202737D01*
X0208379Y0202737D01*
X0206270Y0201864D01*
X0204642Y0200215D02*
X0167185Y0200215D01*
X0167206Y0198617D02*
X0203980Y0198617D01*
X0203783Y0197018D02*
X0167206Y0197018D01*
X0167206Y0195420D02*
X0203964Y0195420D01*
X0204627Y0193821D02*
X0167206Y0193821D01*
X0167206Y0192223D02*
X0206183Y0192223D01*
X0212856Y0192223D02*
X0218520Y0192223D01*
X0218520Y0193821D02*
X0214413Y0193821D01*
X0215075Y0195420D02*
X0218520Y0195420D01*
X0218520Y0197018D02*
X0215257Y0197018D01*
X0215060Y0198617D02*
X0218520Y0198617D01*
X0218520Y0200215D02*
X0214398Y0200215D01*
X0212819Y0201814D02*
X0218520Y0201814D01*
X0218520Y0190624D02*
X0167206Y0190624D01*
X0161070Y0189026D02*
X0218520Y0189026D01*
X0218520Y0187427D02*
X0161070Y0187427D01*
X0161070Y0185829D02*
X0218520Y0185829D01*
X0218520Y0184230D02*
X0207785Y0184230D01*
X0207522Y0184493D02*
X0205574Y0185300D01*
X0203465Y0185300D01*
X0201517Y0184493D01*
X0200027Y0183002D01*
X0199635Y0182056D01*
X0199617Y0182111D01*
X0199224Y0182883D01*
X0198715Y0183583D01*
X0198103Y0184195D01*
X0197402Y0184704D01*
X0196631Y0185097D01*
X0195808Y0185365D01*
X0194953Y0185500D01*
X0194720Y0185500D01*
X0194720Y0180200D01*
X0194320Y0180200D01*
X0194320Y0185500D01*
X0194087Y0185500D01*
X0193232Y0185365D01*
X0192408Y0185097D01*
X0191637Y0184704D01*
X0190937Y0184195D01*
X0190325Y0183583D01*
X0189816Y0182883D01*
X0189423Y0182111D01*
X0189155Y0181288D01*
X0189020Y0180433D01*
X0189020Y0180200D01*
X0194320Y0180200D01*
X0194320Y0179800D01*
X0189020Y0179800D01*
X0189020Y0179567D01*
X0189155Y0178712D01*
X0189423Y0177889D01*
X0189816Y0177117D01*
X0190325Y0176417D01*
X0190937Y0175805D01*
X0191637Y0175296D01*
X0192408Y0174903D01*
X0192464Y0174885D01*
X0191517Y0174493D01*
X0190027Y0173002D01*
X0189220Y0171054D01*
X0189220Y0168946D01*
X0190027Y0166998D01*
X0190279Y0166746D01*
X0165872Y0142339D01*
X0159456Y0142339D01*
X0158519Y0141402D01*
X0158519Y0132978D01*
X0159456Y0132041D01*
X0161320Y0132041D01*
X0161320Y0109060D01*
X0160846Y0108586D01*
X0160420Y0107557D01*
X0160420Y0106443D01*
X0160846Y0105414D01*
X0161634Y0104626D01*
X0162663Y0104200D01*
X0163777Y0104200D01*
X0164806Y0104626D01*
X0165593Y0105414D01*
X0166020Y0106443D01*
X0166020Y0107557D01*
X0165593Y0108586D01*
X0165120Y0109060D01*
X0165120Y0132041D01*
X0167080Y0132041D01*
X0168018Y0132978D01*
X0168018Y0139111D01*
X0189220Y0160313D01*
X0189220Y0158946D01*
X0190027Y0156998D01*
X0191517Y0155507D01*
X0193465Y0154700D01*
X0195574Y0154700D01*
X0197522Y0155507D01*
X0199013Y0156998D01*
X0199520Y0158222D01*
X0200027Y0156998D01*
X0201517Y0155507D01*
X0203465Y0154700D01*
X0205574Y0154700D01*
X0207522Y0155507D01*
X0209013Y0156998D01*
X0209820Y0158946D01*
X0209820Y0161054D01*
X0209013Y0163002D01*
X0207522Y0164493D01*
X0206298Y0165000D01*
X0207522Y0165507D01*
X0209013Y0166998D01*
X0209820Y0168946D01*
X0209820Y0171054D01*
X0209013Y0173002D01*
X0207522Y0174493D01*
X0206298Y0175000D01*
X0207522Y0175507D01*
X0209013Y0176998D01*
X0209820Y0178946D01*
X0209820Y0181054D01*
X0209013Y0183002D01*
X0207522Y0184493D01*
X0209166Y0182632D02*
X0218520Y0182632D01*
X0218520Y0181033D02*
X0209820Y0181033D01*
X0209820Y0179435D02*
X0218520Y0179435D01*
X0218520Y0177836D02*
X0209360Y0177836D01*
X0208253Y0176238D02*
X0218520Y0176238D01*
X0218520Y0174639D02*
X0207169Y0174639D01*
X0208974Y0173041D02*
X0218520Y0173041D01*
X0218520Y0171442D02*
X0209659Y0171442D01*
X0209820Y0169844D02*
X0218520Y0169844D01*
X0218520Y0168245D02*
X0209529Y0168245D01*
X0208662Y0166647D02*
X0218520Y0166647D01*
X0218520Y0165048D02*
X0206414Y0165048D01*
X0208565Y0163450D02*
X0218520Y0163450D01*
X0218520Y0161851D02*
X0209490Y0161851D01*
X0209820Y0160253D02*
X0218520Y0160253D01*
X0218520Y0158654D02*
X0209699Y0158654D01*
X0209037Y0157056D02*
X0218520Y0157056D01*
X0218520Y0155457D02*
X0207402Y0155457D01*
X0201638Y0155457D02*
X0197402Y0155457D01*
X0199037Y0157056D02*
X0200003Y0157056D01*
X0191638Y0155457D02*
X0184364Y0155457D01*
X0185962Y0157056D02*
X0190003Y0157056D01*
X0189340Y0158654D02*
X0187561Y0158654D01*
X0189159Y0160253D02*
X0189220Y0160253D01*
X0186982Y0163450D02*
X0165656Y0163450D01*
X0167006Y0164800D02*
X0170680Y0164800D01*
X0171618Y0165737D01*
X0171618Y0175862D01*
X0170680Y0176799D01*
X0164556Y0176799D01*
X0163619Y0175862D01*
X0163619Y0166786D01*
X0150220Y0153387D01*
X0150220Y0142339D01*
X0148259Y0142339D01*
X0147322Y0141402D01*
X0147322Y0132978D01*
X0148259Y0132041D01*
X0155884Y0132041D01*
X0156821Y0132978D01*
X0156821Y0141402D01*
X0155884Y0142339D01*
X0154020Y0142339D01*
X0154020Y0151813D01*
X0167006Y0164800D01*
X0163479Y0166647D02*
X0162519Y0166647D01*
X0162519Y0168245D02*
X0163619Y0168245D01*
X0163619Y0169844D02*
X0162519Y0169844D01*
X0162519Y0171442D02*
X0163619Y0171442D01*
X0163619Y0173041D02*
X0162519Y0173041D01*
X0162519Y0174639D02*
X0163619Y0174639D01*
X0163995Y0176238D02*
X0162143Y0176238D01*
X0161070Y0177836D02*
X0189449Y0177836D01*
X0189041Y0179435D02*
X0161070Y0179435D01*
X0161070Y0181033D02*
X0189115Y0181033D01*
X0189688Y0182632D02*
X0161070Y0182632D01*
X0161070Y0184230D02*
X0190985Y0184230D01*
X0194320Y0184230D02*
X0194720Y0184230D01*
X0194720Y0182632D02*
X0194320Y0182632D01*
X0194320Y0181033D02*
X0194720Y0181033D01*
X0198054Y0184230D02*
X0201255Y0184230D01*
X0199873Y0182632D02*
X0199352Y0182632D01*
X0190504Y0176238D02*
X0171242Y0176238D01*
X0171618Y0174639D02*
X0191870Y0174639D01*
X0190065Y0173041D02*
X0171618Y0173041D01*
X0171618Y0171442D02*
X0189380Y0171442D01*
X0189220Y0169844D02*
X0171618Y0169844D01*
X0171618Y0168245D02*
X0189510Y0168245D01*
X0190179Y0166647D02*
X0171618Y0166647D01*
X0170929Y0165048D02*
X0188581Y0165048D01*
X0185384Y0161851D02*
X0164058Y0161851D01*
X0162459Y0160253D02*
X0183785Y0160253D01*
X0182187Y0158654D02*
X0166817Y0158654D01*
X0166521Y0158950D02*
X0164288Y0158950D01*
X0164288Y0153436D01*
X0169802Y0153436D01*
X0169802Y0155670D01*
X0166521Y0158950D01*
X0164288Y0158654D02*
X0164116Y0158654D01*
X0164116Y0158950D02*
X0161882Y0158950D01*
X0158602Y0155670D01*
X0158602Y0153436D01*
X0164116Y0153436D01*
X0164116Y0158950D01*
X0164116Y0157056D02*
X0164288Y0157056D01*
X0164288Y0155457D02*
X0164116Y0155457D01*
X0164116Y0153859D02*
X0164288Y0153859D01*
X0164288Y0153436D02*
X0164116Y0153436D01*
X0164116Y0153264D01*
X0164288Y0153264D01*
X0164288Y0153436D01*
X0164288Y0153264D02*
X0169802Y0153264D01*
X0169802Y0151030D01*
X0166521Y0147750D01*
X0164288Y0147750D01*
X0164288Y0153264D01*
X0164116Y0153264D02*
X0164116Y0147750D01*
X0161882Y0147750D01*
X0158602Y0151030D01*
X0158602Y0153264D01*
X0164116Y0153264D01*
X0164116Y0152260D02*
X0164288Y0152260D01*
X0164288Y0150662D02*
X0164116Y0150662D01*
X0164116Y0149063D02*
X0164288Y0149063D01*
X0167834Y0149063D02*
X0172596Y0149063D01*
X0174194Y0150662D02*
X0169433Y0150662D01*
X0169802Y0152260D02*
X0175793Y0152260D01*
X0177391Y0153859D02*
X0169802Y0153859D01*
X0169802Y0155457D02*
X0178990Y0155457D01*
X0180588Y0157056D02*
X0168416Y0157056D01*
X0161586Y0158654D02*
X0160861Y0158654D01*
X0159988Y0157056D02*
X0159262Y0157056D01*
X0158602Y0155457D02*
X0157664Y0155457D01*
X0158602Y0153859D02*
X0156065Y0153859D01*
X0154467Y0152260D02*
X0158602Y0152260D01*
X0158971Y0150662D02*
X0154020Y0150662D01*
X0154020Y0149063D02*
X0160569Y0149063D01*
X0154020Y0147465D02*
X0170997Y0147465D01*
X0169399Y0145866D02*
X0154020Y0145866D01*
X0154020Y0144268D02*
X0167800Y0144268D01*
X0166202Y0142669D02*
X0154020Y0142669D01*
X0150220Y0142669D02*
X0130320Y0142669D01*
X0130320Y0144268D02*
X0150220Y0144268D01*
X0150220Y0145866D02*
X0130320Y0145866D01*
X0130320Y0147465D02*
X0150220Y0147465D01*
X0150220Y0149063D02*
X0130320Y0149063D01*
X0130320Y0150662D02*
X0150220Y0150662D01*
X0150220Y0152260D02*
X0130320Y0152260D01*
X0130320Y0153859D02*
X0150691Y0153859D01*
X0152290Y0155457D02*
X0130320Y0155457D01*
X0130320Y0157056D02*
X0153888Y0157056D01*
X0155487Y0158654D02*
X0130320Y0158654D01*
X0130320Y0160253D02*
X0157085Y0160253D01*
X0158684Y0161851D02*
X0130320Y0161851D01*
X0130320Y0163450D02*
X0160282Y0163450D01*
X0161831Y0165048D02*
X0161881Y0165048D01*
X0155209Y0165048D02*
X0153015Y0165048D01*
X0152926Y0164959D02*
X0153261Y0165294D01*
X0153498Y0165705D01*
X0153621Y0166163D01*
X0153621Y0170399D01*
X0149821Y0170399D01*
X0149821Y0164600D01*
X0152058Y0164600D01*
X0152516Y0164722D01*
X0152926Y0164959D01*
X0153621Y0166647D02*
X0154520Y0166647D01*
X0154520Y0168245D02*
X0153621Y0168245D01*
X0153621Y0169844D02*
X0154520Y0169844D01*
X0154520Y0171442D02*
X0153621Y0171442D01*
X0153621Y0171199D02*
X0153621Y0175436D01*
X0153498Y0175894D01*
X0153261Y0176304D01*
X0152926Y0176639D01*
X0152516Y0176876D01*
X0152058Y0176999D01*
X0149821Y0176999D01*
X0149821Y0171199D01*
X0149021Y0171199D01*
X0149021Y0170399D01*
X0145222Y0170399D01*
X0145222Y0166163D01*
X0145344Y0165705D01*
X0145581Y0165294D01*
X0145916Y0164959D01*
X0146327Y0164722D01*
X0146785Y0164600D01*
X0149021Y0164600D01*
X0149021Y0170399D01*
X0149821Y0170399D01*
X0149821Y0171199D01*
X0153621Y0171199D01*
X0153621Y0173041D02*
X0154520Y0173041D01*
X0154520Y0174639D02*
X0153621Y0174639D01*
X0153300Y0176238D02*
X0154896Y0176238D01*
X0149821Y0176238D02*
X0149021Y0176238D01*
X0149021Y0176999D02*
X0146785Y0176999D01*
X0146327Y0176876D01*
X0145916Y0176639D01*
X0145581Y0176304D01*
X0145344Y0175894D01*
X0145222Y0175436D01*
X0145222Y0171199D01*
X0149021Y0171199D01*
X0149021Y0176999D01*
X0149021Y0174639D02*
X0149821Y0174639D01*
X0149821Y0173041D02*
X0149021Y0173041D01*
X0149021Y0171442D02*
X0149821Y0171442D01*
X0149821Y0169844D02*
X0149021Y0169844D01*
X0149021Y0168245D02*
X0149821Y0168245D01*
X0149821Y0166647D02*
X0149021Y0166647D01*
X0149021Y0165048D02*
X0149821Y0165048D01*
X0145828Y0165048D02*
X0134929Y0165048D01*
X0135618Y0166647D02*
X0145222Y0166647D01*
X0145222Y0168245D02*
X0135618Y0168245D01*
X0135618Y0169844D02*
X0145222Y0169844D01*
X0145222Y0171442D02*
X0135618Y0171442D01*
X0135618Y0173041D02*
X0145222Y0173041D01*
X0145222Y0174639D02*
X0135618Y0174639D01*
X0135242Y0176238D02*
X0145543Y0176238D01*
X0127995Y0176238D02*
X0126143Y0176238D01*
X0126519Y0174639D02*
X0127619Y0174639D01*
X0127619Y0173041D02*
X0126519Y0173041D01*
X0126519Y0171442D02*
X0127619Y0171442D01*
X0127619Y0169844D02*
X0126519Y0169844D01*
X0126519Y0168245D02*
X0127619Y0168245D01*
X0127479Y0166647D02*
X0126519Y0166647D01*
X0126520Y0165048D02*
X0125831Y0165048D01*
X0123519Y0141070D02*
X0121821Y0141070D01*
X0121821Y0139472D02*
X0123519Y0139472D01*
X0123519Y0137873D02*
X0121821Y0137873D01*
X0121821Y0136275D02*
X0123519Y0136275D01*
X0123519Y0134676D02*
X0122330Y0134676D01*
X0125527Y0131479D02*
X0161320Y0131479D01*
X0161320Y0129881D02*
X0127126Y0129881D01*
X0128724Y0128282D02*
X0161320Y0128282D01*
X0161320Y0126684D02*
X0130323Y0126684D01*
X0131921Y0125085D02*
X0161320Y0125085D01*
X0161320Y0123487D02*
X0133520Y0123487D01*
X0135118Y0121888D02*
X0161320Y0121888D01*
X0161320Y0120290D02*
X0136717Y0120290D01*
X0138315Y0118691D02*
X0161320Y0118691D01*
X0161320Y0117093D02*
X0139914Y0117093D01*
X0141512Y0115494D02*
X0161320Y0115494D01*
X0161320Y0113896D02*
X0143111Y0113896D01*
X0144709Y0112297D02*
X0161320Y0112297D01*
X0161320Y0110699D02*
X0146308Y0110699D01*
X0147906Y0109100D02*
X0161320Y0109100D01*
X0160420Y0107502D02*
X0149505Y0107502D01*
X0151103Y0105903D02*
X0160643Y0105903D01*
X0162410Y0104305D02*
X0152702Y0104305D01*
X0154300Y0102706D02*
X0175439Y0102706D01*
X0173840Y0101108D02*
X0155899Y0101108D01*
X0157497Y0099509D02*
X0172242Y0099509D01*
X0170643Y0097911D02*
X0158166Y0097911D01*
X0158520Y0096312D02*
X0169045Y0096312D01*
X0167446Y0094714D02*
X0157893Y0094714D01*
X0160264Y0093115D02*
X0165848Y0093115D01*
X0164249Y0091517D02*
X0160620Y0091517D01*
X0159998Y0089918D02*
X0162651Y0089918D01*
X0157855Y0085123D02*
X0078520Y0085123D01*
X0078520Y0083524D02*
X0156257Y0083524D01*
X0154658Y0081926D02*
X0078520Y0081926D01*
X0078520Y0080327D02*
X0153060Y0080327D01*
X0151461Y0078729D02*
X0078520Y0078729D01*
X0078520Y0077130D02*
X0149863Y0077130D01*
X0148264Y0075532D02*
X0078520Y0075532D01*
X0078520Y0073933D02*
X0146666Y0073933D01*
X0145067Y0072334D02*
X0078520Y0072334D01*
X0078520Y0070736D02*
X0143469Y0070736D01*
X0141870Y0069137D02*
X0078520Y0069137D01*
X0078520Y0067539D02*
X0140272Y0067539D01*
X0138673Y0065940D02*
X0079803Y0065940D01*
X0081401Y0064342D02*
X0123875Y0064342D01*
X0122276Y0062743D02*
X0083000Y0062743D01*
X0084598Y0061145D02*
X0120678Y0061145D01*
X0119079Y0059546D02*
X0086197Y0059546D01*
X0087795Y0057948D02*
X0117481Y0057948D01*
X0115882Y0056349D02*
X0089394Y0056349D01*
X0090992Y0054751D02*
X0114520Y0054751D01*
X0114520Y0053152D02*
X0092591Y0053152D01*
X0094189Y0051554D02*
X0114520Y0051554D01*
X0114520Y0049955D02*
X0095788Y0049955D01*
X0097386Y0048357D02*
X0103990Y0048357D01*
X0101662Y0046758D02*
X0098985Y0046758D01*
X0095535Y0043561D02*
X0078520Y0043561D01*
X0078520Y0041963D02*
X0097133Y0041963D01*
X0098732Y0040364D02*
X0078520Y0040364D01*
X0078520Y0038766D02*
X0100331Y0038766D01*
X0101929Y0037167D02*
X0078520Y0037167D01*
X0078520Y0035569D02*
X0103528Y0035569D01*
X0105126Y0033970D02*
X0078520Y0033970D01*
X0078520Y0032372D02*
X0106725Y0032372D01*
X0108323Y0030773D02*
X0078520Y0030773D01*
X0078520Y0029175D02*
X0109922Y0029175D01*
X0111520Y0027576D02*
X0078520Y0027576D01*
X0078520Y0025978D02*
X0113119Y0025978D01*
X0114717Y0024379D02*
X0078520Y0024379D01*
X0078520Y0022781D02*
X0115679Y0022781D01*
X0119560Y0022781D02*
X0123552Y0022781D01*
X0121954Y0024379D02*
X0120420Y0024379D01*
X0120355Y0025978D02*
X0120163Y0025978D01*
X0120220Y0027576D02*
X0118234Y0027576D01*
X0116568Y0029175D02*
X0120220Y0029175D01*
X0120220Y0030773D02*
X0114970Y0030773D01*
X0113371Y0032372D02*
X0120220Y0032372D01*
X0120220Y0033970D02*
X0111773Y0033970D01*
X0114316Y0035569D02*
X0120220Y0035569D01*
X0120220Y0037167D02*
X0114720Y0037167D01*
X0116272Y0038766D02*
X0120220Y0038766D01*
X0120220Y0040364D02*
X0117871Y0040364D01*
X0119469Y0041963D02*
X0120220Y0041963D01*
X0130020Y0048357D02*
X0135790Y0048357D01*
X0137388Y0049955D02*
X0130020Y0049955D01*
X0130020Y0051554D02*
X0133706Y0051554D01*
X0132599Y0053152D02*
X0130020Y0053152D01*
X0130020Y0054751D02*
X0130831Y0054751D01*
X0130420Y0056349D02*
X0130020Y0056349D01*
X0130020Y0057948D02*
X0130908Y0057948D01*
X0130453Y0059546D02*
X0132279Y0059546D01*
X0130920Y0061145D02*
X0133878Y0061145D01*
X0135476Y0062743D02*
X0130920Y0062743D01*
X0129965Y0064342D02*
X0137075Y0064342D01*
X0144755Y0057948D02*
X0145381Y0057948D01*
X0146353Y0059546D02*
X0146979Y0059546D01*
X0147952Y0061145D02*
X0148578Y0061145D01*
X0149550Y0062743D02*
X0150176Y0062743D01*
X0151149Y0064342D02*
X0151775Y0064342D01*
X0152747Y0065940D02*
X0153373Y0065940D01*
X0154346Y0067539D02*
X0154972Y0067539D01*
X0155944Y0069137D02*
X0156570Y0069137D01*
X0157543Y0070736D02*
X0158169Y0070736D01*
X0159141Y0072334D02*
X0159767Y0072334D01*
X0160740Y0073933D02*
X0161366Y0073933D01*
X0162338Y0075532D02*
X0162964Y0075532D01*
X0163937Y0077130D02*
X0164563Y0077130D01*
X0165535Y0078729D02*
X0166161Y0078729D01*
X0167134Y0080327D02*
X0167760Y0080327D01*
X0168732Y0081926D02*
X0169358Y0081926D01*
X0170331Y0083524D02*
X0170957Y0083524D01*
X0171929Y0085123D02*
X0172555Y0085123D01*
X0173528Y0086721D02*
X0174154Y0086721D01*
X0175126Y0088320D02*
X0175752Y0088320D01*
X0176725Y0089918D02*
X0177351Y0089918D01*
X0178323Y0091517D02*
X0178949Y0091517D01*
X0179922Y0093115D02*
X0180548Y0093115D01*
X0181520Y0094714D02*
X0182146Y0094714D01*
X0183119Y0096312D02*
X0183745Y0096312D01*
X0184717Y0097911D02*
X0185343Y0097911D01*
X0186316Y0099509D02*
X0186942Y0099509D01*
X0187914Y0101108D02*
X0188540Y0101108D01*
X0189513Y0102706D02*
X0190139Y0102706D01*
X0191111Y0104305D02*
X0191737Y0104305D01*
X0192710Y0105903D02*
X0193336Y0105903D01*
X0194308Y0107502D02*
X0194620Y0107502D01*
X0197111Y0104305D02*
X0218520Y0104305D01*
X0218520Y0105903D02*
X0199872Y0105903D01*
X0200220Y0107502D02*
X0218520Y0107502D01*
X0218520Y0109100D02*
X0199579Y0109100D01*
X0197505Y0110699D02*
X0218520Y0110699D01*
X0218520Y0112297D02*
X0199104Y0112297D01*
X0200702Y0113896D02*
X0218520Y0113896D01*
X0218520Y0115494D02*
X0202301Y0115494D01*
X0203899Y0117093D02*
X0218520Y0117093D01*
X0218520Y0118691D02*
X0205498Y0118691D01*
X0207097Y0120290D02*
X0218520Y0120290D01*
X0218520Y0121888D02*
X0208695Y0121888D01*
X0210294Y0123487D02*
X0218520Y0123487D01*
X0218520Y0125085D02*
X0211892Y0125085D01*
X0213420Y0126684D02*
X0218520Y0126684D01*
X0218520Y0128282D02*
X0213420Y0128282D01*
X0213420Y0129881D02*
X0218520Y0129881D01*
X0218520Y0131479D02*
X0213420Y0131479D01*
X0211829Y0133078D02*
X0218520Y0133078D01*
X0218520Y0134676D02*
X0210230Y0134676D01*
X0211300Y0136275D02*
X0218520Y0136275D01*
X0218520Y0137873D02*
X0212032Y0137873D01*
X0212120Y0139472D02*
X0218520Y0139472D01*
X0218520Y0141070D02*
X0211641Y0141070D01*
X0210356Y0142669D02*
X0218520Y0142669D01*
X0218520Y0144268D02*
X0173174Y0144268D01*
X0174773Y0145866D02*
X0218520Y0145866D01*
X0218520Y0147465D02*
X0176371Y0147465D01*
X0177970Y0149063D02*
X0218520Y0149063D01*
X0218520Y0150662D02*
X0179568Y0150662D01*
X0181167Y0152260D02*
X0218520Y0152260D01*
X0218520Y0153859D02*
X0182765Y0153859D01*
X0171576Y0142669D02*
X0198683Y0142669D01*
X0197398Y0141070D02*
X0169977Y0141070D01*
X0168379Y0139472D02*
X0196920Y0139472D01*
X0197007Y0137873D02*
X0168018Y0137873D01*
X0168018Y0136275D02*
X0197739Y0136275D01*
X0199937Y0134676D02*
X0168018Y0134676D01*
X0168018Y0133078D02*
X0199344Y0133078D01*
X0197568Y0131479D02*
X0165120Y0131479D01*
X0165120Y0129881D02*
X0196920Y0129881D01*
X0196920Y0128282D02*
X0165120Y0128282D01*
X0165120Y0126684D02*
X0197500Y0126684D01*
X0197818Y0125085D02*
X0165120Y0125085D01*
X0165120Y0123487D02*
X0196220Y0123487D01*
X0194621Y0121888D02*
X0165120Y0121888D01*
X0165120Y0120290D02*
X0193023Y0120290D01*
X0191424Y0118691D02*
X0165120Y0118691D01*
X0165120Y0117093D02*
X0189826Y0117093D01*
X0188227Y0115494D02*
X0165120Y0115494D01*
X0165120Y0113896D02*
X0186628Y0113896D01*
X0185030Y0112297D02*
X0165120Y0112297D01*
X0165120Y0110699D02*
X0183431Y0110699D01*
X0181833Y0109100D02*
X0165120Y0109100D01*
X0166020Y0107502D02*
X0180234Y0107502D01*
X0178636Y0105903D02*
X0165796Y0105903D01*
X0164029Y0104305D02*
X0177037Y0104305D01*
X0187520Y0094714D02*
X0218520Y0094714D01*
X0218520Y0096312D02*
X0189119Y0096312D01*
X0190717Y0097911D02*
X0218520Y0097911D01*
X0218520Y0099509D02*
X0192316Y0099509D01*
X0193914Y0101108D02*
X0218520Y0101108D01*
X0218520Y0102706D02*
X0195513Y0102706D01*
X0185922Y0093115D02*
X0218520Y0093115D01*
X0218520Y0091517D02*
X0184323Y0091517D01*
X0182725Y0089918D02*
X0218520Y0089918D01*
X0218520Y0088320D02*
X0181126Y0088320D01*
X0179528Y0086721D02*
X0218520Y0086721D01*
X0218520Y0085123D02*
X0177929Y0085123D01*
X0176331Y0083524D02*
X0218520Y0083524D01*
X0218520Y0081926D02*
X0174732Y0081926D01*
X0173134Y0080327D02*
X0218520Y0080327D01*
X0218520Y0078729D02*
X0171535Y0078729D01*
X0169937Y0077130D02*
X0218520Y0077130D01*
X0218520Y0075532D02*
X0168338Y0075532D01*
X0166740Y0073933D02*
X0218520Y0073933D01*
X0218520Y0072334D02*
X0165141Y0072334D01*
X0163543Y0070736D02*
X0181869Y0070736D01*
X0180270Y0069137D02*
X0161944Y0069137D01*
X0160346Y0067539D02*
X0178672Y0067539D01*
X0177073Y0065940D02*
X0158747Y0065940D01*
X0157149Y0064342D02*
X0175475Y0064342D01*
X0173876Y0062743D02*
X0155550Y0062743D01*
X0153952Y0061145D02*
X0172278Y0061145D01*
X0170679Y0059546D02*
X0152353Y0059546D01*
X0150755Y0057948D02*
X0164808Y0057948D01*
X0164020Y0056349D02*
X0149156Y0056349D01*
X0147558Y0054751D02*
X0162884Y0054751D01*
X0161285Y0053152D02*
X0145959Y0053152D01*
X0144361Y0051554D02*
X0159687Y0051554D01*
X0158088Y0049955D02*
X0142762Y0049955D01*
X0141163Y0048357D02*
X0156490Y0048357D01*
X0154891Y0046758D02*
X0139565Y0046758D01*
X0138987Y0051554D02*
X0136933Y0051554D01*
X0139959Y0053152D02*
X0140585Y0053152D01*
X0141558Y0054751D02*
X0142184Y0054751D01*
X0143156Y0056349D02*
X0143782Y0056349D01*
X0158469Y0041963D02*
X0164020Y0041963D01*
X0164020Y0041643D02*
X0164446Y0040614D01*
X0165234Y0039826D01*
X0166263Y0039400D01*
X0167377Y0039400D01*
X0168406Y0039826D01*
X0168879Y0040300D01*
X0189433Y0040300D01*
X0191007Y0040300D01*
X0201207Y0050500D01*
X0201877Y0050500D01*
X0202906Y0050926D01*
X0203693Y0051714D01*
X0204120Y0052743D01*
X0204120Y0053857D01*
X0203693Y0054886D01*
X0202906Y0055674D01*
X0201877Y0056100D01*
X0200763Y0056100D01*
X0199734Y0055674D01*
X0198946Y0054886D01*
X0198520Y0053857D01*
X0198520Y0053187D01*
X0189433Y0044100D01*
X0168879Y0044100D01*
X0168406Y0044574D01*
X0167377Y0045000D01*
X0166263Y0045000D01*
X0165234Y0044574D01*
X0164446Y0043786D01*
X0164020Y0042757D01*
X0164020Y0041643D01*
X0164696Y0040364D02*
X0156871Y0040364D01*
X0155272Y0038766D02*
X0218520Y0038766D01*
X0218520Y0040364D02*
X0191071Y0040364D01*
X0192669Y0041963D02*
X0218520Y0041963D01*
X0218520Y0043561D02*
X0194268Y0043561D01*
X0195866Y0045160D02*
X0218520Y0045160D01*
X0218520Y0046758D02*
X0197465Y0046758D01*
X0199064Y0048357D02*
X0218520Y0048357D01*
X0218520Y0049955D02*
X0200662Y0049955D01*
X0203533Y0051554D02*
X0218520Y0051554D01*
X0218520Y0053152D02*
X0204120Y0053152D01*
X0203749Y0054751D02*
X0218520Y0054751D01*
X0218520Y0056349D02*
X0172856Y0056349D01*
X0171258Y0054751D02*
X0198890Y0054751D01*
X0198485Y0053152D02*
X0169659Y0053152D01*
X0168061Y0051554D02*
X0196887Y0051554D01*
X0195288Y0049955D02*
X0166462Y0049955D01*
X0164863Y0048357D02*
X0193690Y0048357D01*
X0192091Y0046758D02*
X0163265Y0046758D01*
X0161666Y0045160D02*
X0190492Y0045160D01*
X0176053Y0059546D02*
X0218520Y0059546D01*
X0218520Y0057948D02*
X0174455Y0057948D01*
X0177652Y0061145D02*
X0218520Y0061145D01*
X0218520Y0062743D02*
X0179250Y0062743D01*
X0180849Y0064342D02*
X0218520Y0064342D01*
X0218520Y0065940D02*
X0182447Y0065940D01*
X0184046Y0067539D02*
X0199321Y0067539D01*
X0203318Y0067539D02*
X0218520Y0067539D01*
X0218520Y0069137D02*
X0204120Y0069137D01*
X0203838Y0070736D02*
X0218520Y0070736D01*
X0218520Y0037167D02*
X0153674Y0037167D01*
X0152075Y0035569D02*
X0218520Y0035569D01*
X0218520Y0033970D02*
X0150477Y0033970D01*
X0148878Y0032372D02*
X0218520Y0032372D01*
X0218520Y0030773D02*
X0147280Y0030773D01*
X0145681Y0029175D02*
X0218520Y0029175D01*
X0218520Y0027576D02*
X0144083Y0027576D01*
X0142484Y0025978D02*
X0218520Y0025978D01*
X0218520Y0024379D02*
X0191479Y0024379D01*
X0191820Y0022781D02*
X0218520Y0022781D01*
X0218520Y0021182D02*
X0191162Y0021182D01*
X0204383Y0011591D02*
X0087929Y0011591D01*
X0089527Y0009993D02*
X0203783Y0009993D01*
X0203783Y0008394D02*
X0091126Y0008394D01*
X0092724Y0006796D02*
X0204223Y0006796D01*
X0205209Y0005197D02*
X0094323Y0005197D01*
X0086330Y0013190D02*
X0205596Y0013190D01*
X0213443Y0013190D02*
X0218520Y0013190D01*
X0218520Y0014788D02*
X0084732Y0014788D01*
X0083133Y0016387D02*
X0129946Y0016387D01*
X0128348Y0017985D02*
X0081535Y0017985D01*
X0079936Y0019584D02*
X0126749Y0019584D01*
X0125151Y0021182D02*
X0078520Y0021182D01*
X0078520Y0045160D02*
X0093936Y0045160D01*
X0092338Y0046758D02*
X0078520Y0046758D01*
X0078520Y0048357D02*
X0090739Y0048357D01*
X0089141Y0049955D02*
X0078520Y0049955D01*
X0078520Y0051554D02*
X0087542Y0051554D01*
X0085944Y0053152D02*
X0078520Y0053152D01*
X0078520Y0054751D02*
X0084345Y0054751D01*
X0082747Y0056349D02*
X0078520Y0056349D01*
X0078520Y0057948D02*
X0081148Y0057948D01*
X0079550Y0059546D02*
X0078520Y0059546D01*
X0135893Y0016387D02*
X0218520Y0016387D01*
X0218520Y0017985D02*
X0137492Y0017985D01*
X0139090Y0019584D02*
X0218520Y0019584D01*
X0218520Y0011591D02*
X0214656Y0011591D01*
X0215257Y0009993D02*
X0218520Y0009993D01*
X0218520Y0008394D02*
X0215257Y0008394D01*
X0214816Y0006796D02*
X0218520Y0006796D01*
X0218520Y0005197D02*
X0213830Y0005197D01*
X0164353Y0043561D02*
X0160068Y0043561D01*
X0168832Y0057948D02*
X0169081Y0057948D01*
X0158519Y0133078D02*
X0156821Y0133078D01*
X0156821Y0134676D02*
X0158519Y0134676D01*
X0158519Y0136275D02*
X0156821Y0136275D01*
X0156821Y0137873D02*
X0158519Y0137873D01*
X0158519Y0139472D02*
X0156821Y0139472D01*
X0156821Y0141070D02*
X0158519Y0141070D01*
X0147322Y0141070D02*
X0133018Y0141070D01*
X0133018Y0139472D02*
X0147322Y0139472D01*
X0147322Y0137873D02*
X0133018Y0137873D01*
X0133018Y0136275D02*
X0147322Y0136275D01*
X0147322Y0134676D02*
X0133018Y0134676D01*
X0133018Y0133078D02*
X0147322Y0133078D01*
X0082896Y0176238D02*
X0081300Y0176238D01*
X0081621Y0174639D02*
X0082520Y0174639D01*
X0082520Y0173041D02*
X0081621Y0173041D01*
X0081621Y0171442D02*
X0082520Y0171442D01*
X0082340Y0169844D02*
X0081621Y0169844D01*
D22*
X0093320Y0165800D02*
X0095420Y0167900D01*
X0095420Y0170600D01*
X0095618Y0170799D01*
X0093320Y0165800D02*
X0093320Y0137300D01*
X0093268Y0137190D01*
X0089720Y0132500D02*
X0086420Y0135800D01*
X0086420Y0152300D01*
X0085520Y0153200D01*
X0085462Y0153350D01*
X0082071Y0137190D02*
X0082220Y0137000D01*
X0129320Y0089900D01*
X0140720Y0089900D01*
X0141920Y0091700D02*
X0101120Y0132500D01*
X0089720Y0132500D01*
X0117071Y0137190D02*
X0117320Y0137000D01*
X0155720Y0098600D01*
X0155720Y0096500D01*
X0157820Y0091700D02*
X0141920Y0091700D01*
X0163220Y0107000D02*
X0163220Y0137000D01*
X0163268Y0137190D01*
X0163520Y0137300D01*
X0194420Y0168200D01*
X0194420Y0170000D01*
X0194520Y0170000D01*
X0167618Y0170799D02*
X0167420Y0170600D01*
X0167420Y0167900D01*
X0152120Y0152600D01*
X0152120Y0137300D01*
X0152071Y0137190D01*
X0128420Y0137300D02*
X0128268Y0137190D01*
X0128420Y0137300D02*
X0128420Y0164900D01*
X0131420Y0167900D01*
X0131420Y0170600D01*
X0131618Y0170799D01*
X0197420Y0107300D02*
X0135620Y0045500D01*
X0129620Y0045500D01*
X0128120Y0047000D01*
X0128120Y0059900D01*
X0129020Y0060800D01*
X0129020Y0062600D01*
X0127820Y0063800D01*
X0126020Y0063800D01*
X0116420Y0054200D01*
X0116420Y0046700D01*
X0105020Y0046700D01*
X0102320Y0044000D01*
X0111920Y0037100D02*
X0120020Y0045200D01*
X0126920Y0046400D02*
X0129020Y0044300D01*
X0155120Y0044300D01*
X0166820Y0056000D01*
X0166820Y0042200D02*
X0190220Y0042200D01*
X0201320Y0053300D01*
X0201320Y0069500D02*
X0183320Y0069500D01*
X0132920Y0019100D01*
X0132020Y0017000D02*
X0133820Y0017000D01*
X0139820Y0023000D01*
X0189020Y0023000D01*
X0138020Y0053900D02*
X0135320Y0053900D01*
X0138020Y0053900D02*
X0211520Y0127400D01*
X0211520Y0130700D01*
X0204620Y0137600D01*
X0204620Y0138800D01*
X0204520Y0139000D01*
X0204520Y0129000D02*
X0204320Y0128900D01*
X0133220Y0057800D01*
X0133220Y0056300D01*
X0126920Y0061700D02*
X0126920Y0046400D01*
X0122120Y0053000D02*
X0120320Y0054800D01*
X0122120Y0053000D02*
X0122120Y0026900D01*
X0132020Y0017000D01*
X0092120Y0089900D02*
X0063620Y0089900D01*
X0081620Y0092000D02*
X0081620Y0095300D01*
X0080720Y0096200D01*
M02*
