G75*
%MOIN*%
%OFA0B0*%
%FSLAX25Y25*%
%IPPOS*%
%LPD*%
%AMOC8*
5,1,8,0,0,1.08239X$1,22.5*
%
%ADD10C,0.00000*%
%ADD11OC8,0.05600*%
%ADD12R,0.06500X0.06500*%
%ADD13C,0.06500*%
%ADD14OC8,0.06600*%
%ADD15R,0.07500X0.07500*%
%ADD16C,0.07500*%
%ADD17C,0.05200*%
%ADD18OC8,0.05200*%
%ADD19C,0.03898*%
%ADD20C,0.06000*%
%ADD21C,0.07400*%
%ADD22C,0.07677*%
%ADD23R,0.07600X0.07600*%
%ADD24OC8,0.07600*%
%ADD25R,0.07800X0.02100*%
%ADD26C,0.06600*%
%ADD27C,0.03000*%
%ADD28C,0.03200*%
%ADD29C,0.00600*%
%ADD30C,0.02400*%
D10*
X0001000Y0012433D02*
X0001000Y0207394D01*
X0309701Y0207394D01*
X0309701Y0012433D01*
X0001000Y0012433D01*
X0060063Y0082433D02*
X0060065Y0082558D01*
X0060071Y0082683D01*
X0060081Y0082807D01*
X0060095Y0082931D01*
X0060112Y0083055D01*
X0060134Y0083178D01*
X0060160Y0083300D01*
X0060189Y0083422D01*
X0060222Y0083542D01*
X0060260Y0083661D01*
X0060300Y0083780D01*
X0060345Y0083896D01*
X0060393Y0084011D01*
X0060445Y0084125D01*
X0060501Y0084237D01*
X0060560Y0084347D01*
X0060622Y0084455D01*
X0060688Y0084562D01*
X0060757Y0084666D01*
X0060830Y0084767D01*
X0060905Y0084867D01*
X0060984Y0084964D01*
X0061066Y0085058D01*
X0061151Y0085150D01*
X0061238Y0085239D01*
X0061329Y0085325D01*
X0061422Y0085408D01*
X0061518Y0085489D01*
X0061616Y0085566D01*
X0061716Y0085640D01*
X0061819Y0085711D01*
X0061924Y0085778D01*
X0062032Y0085843D01*
X0062141Y0085903D01*
X0062252Y0085961D01*
X0062365Y0086014D01*
X0062479Y0086064D01*
X0062595Y0086111D01*
X0062712Y0086153D01*
X0062831Y0086192D01*
X0062951Y0086228D01*
X0063072Y0086259D01*
X0063194Y0086287D01*
X0063316Y0086310D01*
X0063440Y0086330D01*
X0063564Y0086346D01*
X0063688Y0086358D01*
X0063813Y0086366D01*
X0063938Y0086370D01*
X0064062Y0086370D01*
X0064187Y0086366D01*
X0064312Y0086358D01*
X0064436Y0086346D01*
X0064560Y0086330D01*
X0064684Y0086310D01*
X0064806Y0086287D01*
X0064928Y0086259D01*
X0065049Y0086228D01*
X0065169Y0086192D01*
X0065288Y0086153D01*
X0065405Y0086111D01*
X0065521Y0086064D01*
X0065635Y0086014D01*
X0065748Y0085961D01*
X0065859Y0085903D01*
X0065969Y0085843D01*
X0066076Y0085778D01*
X0066181Y0085711D01*
X0066284Y0085640D01*
X0066384Y0085566D01*
X0066482Y0085489D01*
X0066578Y0085408D01*
X0066671Y0085325D01*
X0066762Y0085239D01*
X0066849Y0085150D01*
X0066934Y0085058D01*
X0067016Y0084964D01*
X0067095Y0084867D01*
X0067170Y0084767D01*
X0067243Y0084666D01*
X0067312Y0084562D01*
X0067378Y0084455D01*
X0067440Y0084347D01*
X0067499Y0084237D01*
X0067555Y0084125D01*
X0067607Y0084011D01*
X0067655Y0083896D01*
X0067700Y0083780D01*
X0067740Y0083661D01*
X0067778Y0083542D01*
X0067811Y0083422D01*
X0067840Y0083300D01*
X0067866Y0083178D01*
X0067888Y0083055D01*
X0067905Y0082931D01*
X0067919Y0082807D01*
X0067929Y0082683D01*
X0067935Y0082558D01*
X0067937Y0082433D01*
X0067935Y0082308D01*
X0067929Y0082183D01*
X0067919Y0082059D01*
X0067905Y0081935D01*
X0067888Y0081811D01*
X0067866Y0081688D01*
X0067840Y0081566D01*
X0067811Y0081444D01*
X0067778Y0081324D01*
X0067740Y0081205D01*
X0067700Y0081086D01*
X0067655Y0080970D01*
X0067607Y0080855D01*
X0067555Y0080741D01*
X0067499Y0080629D01*
X0067440Y0080519D01*
X0067378Y0080411D01*
X0067312Y0080304D01*
X0067243Y0080200D01*
X0067170Y0080099D01*
X0067095Y0079999D01*
X0067016Y0079902D01*
X0066934Y0079808D01*
X0066849Y0079716D01*
X0066762Y0079627D01*
X0066671Y0079541D01*
X0066578Y0079458D01*
X0066482Y0079377D01*
X0066384Y0079300D01*
X0066284Y0079226D01*
X0066181Y0079155D01*
X0066076Y0079088D01*
X0065968Y0079023D01*
X0065859Y0078963D01*
X0065748Y0078905D01*
X0065635Y0078852D01*
X0065521Y0078802D01*
X0065405Y0078755D01*
X0065288Y0078713D01*
X0065169Y0078674D01*
X0065049Y0078638D01*
X0064928Y0078607D01*
X0064806Y0078579D01*
X0064684Y0078556D01*
X0064560Y0078536D01*
X0064436Y0078520D01*
X0064312Y0078508D01*
X0064187Y0078500D01*
X0064062Y0078496D01*
X0063938Y0078496D01*
X0063813Y0078500D01*
X0063688Y0078508D01*
X0063564Y0078520D01*
X0063440Y0078536D01*
X0063316Y0078556D01*
X0063194Y0078579D01*
X0063072Y0078607D01*
X0062951Y0078638D01*
X0062831Y0078674D01*
X0062712Y0078713D01*
X0062595Y0078755D01*
X0062479Y0078802D01*
X0062365Y0078852D01*
X0062252Y0078905D01*
X0062141Y0078963D01*
X0062031Y0079023D01*
X0061924Y0079088D01*
X0061819Y0079155D01*
X0061716Y0079226D01*
X0061616Y0079300D01*
X0061518Y0079377D01*
X0061422Y0079458D01*
X0061329Y0079541D01*
X0061238Y0079627D01*
X0061151Y0079716D01*
X0061066Y0079808D01*
X0060984Y0079902D01*
X0060905Y0079999D01*
X0060830Y0080099D01*
X0060757Y0080200D01*
X0060688Y0080304D01*
X0060622Y0080411D01*
X0060560Y0080519D01*
X0060501Y0080629D01*
X0060445Y0080741D01*
X0060393Y0080855D01*
X0060345Y0080970D01*
X0060300Y0081086D01*
X0060260Y0081205D01*
X0060222Y0081324D01*
X0060189Y0081444D01*
X0060160Y0081566D01*
X0060134Y0081688D01*
X0060112Y0081811D01*
X0060095Y0081935D01*
X0060081Y0082059D01*
X0060071Y0082183D01*
X0060065Y0082308D01*
X0060063Y0082433D01*
X0045063Y0127433D02*
X0045065Y0127558D01*
X0045071Y0127683D01*
X0045081Y0127807D01*
X0045095Y0127931D01*
X0045112Y0128055D01*
X0045134Y0128178D01*
X0045160Y0128300D01*
X0045189Y0128422D01*
X0045222Y0128542D01*
X0045260Y0128661D01*
X0045300Y0128780D01*
X0045345Y0128896D01*
X0045393Y0129011D01*
X0045445Y0129125D01*
X0045501Y0129237D01*
X0045560Y0129347D01*
X0045622Y0129455D01*
X0045688Y0129562D01*
X0045757Y0129666D01*
X0045830Y0129767D01*
X0045905Y0129867D01*
X0045984Y0129964D01*
X0046066Y0130058D01*
X0046151Y0130150D01*
X0046238Y0130239D01*
X0046329Y0130325D01*
X0046422Y0130408D01*
X0046518Y0130489D01*
X0046616Y0130566D01*
X0046716Y0130640D01*
X0046819Y0130711D01*
X0046924Y0130778D01*
X0047032Y0130843D01*
X0047141Y0130903D01*
X0047252Y0130961D01*
X0047365Y0131014D01*
X0047479Y0131064D01*
X0047595Y0131111D01*
X0047712Y0131153D01*
X0047831Y0131192D01*
X0047951Y0131228D01*
X0048072Y0131259D01*
X0048194Y0131287D01*
X0048316Y0131310D01*
X0048440Y0131330D01*
X0048564Y0131346D01*
X0048688Y0131358D01*
X0048813Y0131366D01*
X0048938Y0131370D01*
X0049062Y0131370D01*
X0049187Y0131366D01*
X0049312Y0131358D01*
X0049436Y0131346D01*
X0049560Y0131330D01*
X0049684Y0131310D01*
X0049806Y0131287D01*
X0049928Y0131259D01*
X0050049Y0131228D01*
X0050169Y0131192D01*
X0050288Y0131153D01*
X0050405Y0131111D01*
X0050521Y0131064D01*
X0050635Y0131014D01*
X0050748Y0130961D01*
X0050859Y0130903D01*
X0050969Y0130843D01*
X0051076Y0130778D01*
X0051181Y0130711D01*
X0051284Y0130640D01*
X0051384Y0130566D01*
X0051482Y0130489D01*
X0051578Y0130408D01*
X0051671Y0130325D01*
X0051762Y0130239D01*
X0051849Y0130150D01*
X0051934Y0130058D01*
X0052016Y0129964D01*
X0052095Y0129867D01*
X0052170Y0129767D01*
X0052243Y0129666D01*
X0052312Y0129562D01*
X0052378Y0129455D01*
X0052440Y0129347D01*
X0052499Y0129237D01*
X0052555Y0129125D01*
X0052607Y0129011D01*
X0052655Y0128896D01*
X0052700Y0128780D01*
X0052740Y0128661D01*
X0052778Y0128542D01*
X0052811Y0128422D01*
X0052840Y0128300D01*
X0052866Y0128178D01*
X0052888Y0128055D01*
X0052905Y0127931D01*
X0052919Y0127807D01*
X0052929Y0127683D01*
X0052935Y0127558D01*
X0052937Y0127433D01*
X0052935Y0127308D01*
X0052929Y0127183D01*
X0052919Y0127059D01*
X0052905Y0126935D01*
X0052888Y0126811D01*
X0052866Y0126688D01*
X0052840Y0126566D01*
X0052811Y0126444D01*
X0052778Y0126324D01*
X0052740Y0126205D01*
X0052700Y0126086D01*
X0052655Y0125970D01*
X0052607Y0125855D01*
X0052555Y0125741D01*
X0052499Y0125629D01*
X0052440Y0125519D01*
X0052378Y0125411D01*
X0052312Y0125304D01*
X0052243Y0125200D01*
X0052170Y0125099D01*
X0052095Y0124999D01*
X0052016Y0124902D01*
X0051934Y0124808D01*
X0051849Y0124716D01*
X0051762Y0124627D01*
X0051671Y0124541D01*
X0051578Y0124458D01*
X0051482Y0124377D01*
X0051384Y0124300D01*
X0051284Y0124226D01*
X0051181Y0124155D01*
X0051076Y0124088D01*
X0050968Y0124023D01*
X0050859Y0123963D01*
X0050748Y0123905D01*
X0050635Y0123852D01*
X0050521Y0123802D01*
X0050405Y0123755D01*
X0050288Y0123713D01*
X0050169Y0123674D01*
X0050049Y0123638D01*
X0049928Y0123607D01*
X0049806Y0123579D01*
X0049684Y0123556D01*
X0049560Y0123536D01*
X0049436Y0123520D01*
X0049312Y0123508D01*
X0049187Y0123500D01*
X0049062Y0123496D01*
X0048938Y0123496D01*
X0048813Y0123500D01*
X0048688Y0123508D01*
X0048564Y0123520D01*
X0048440Y0123536D01*
X0048316Y0123556D01*
X0048194Y0123579D01*
X0048072Y0123607D01*
X0047951Y0123638D01*
X0047831Y0123674D01*
X0047712Y0123713D01*
X0047595Y0123755D01*
X0047479Y0123802D01*
X0047365Y0123852D01*
X0047252Y0123905D01*
X0047141Y0123963D01*
X0047031Y0124023D01*
X0046924Y0124088D01*
X0046819Y0124155D01*
X0046716Y0124226D01*
X0046616Y0124300D01*
X0046518Y0124377D01*
X0046422Y0124458D01*
X0046329Y0124541D01*
X0046238Y0124627D01*
X0046151Y0124716D01*
X0046066Y0124808D01*
X0045984Y0124902D01*
X0045905Y0124999D01*
X0045830Y0125099D01*
X0045757Y0125200D01*
X0045688Y0125304D01*
X0045622Y0125411D01*
X0045560Y0125519D01*
X0045501Y0125629D01*
X0045445Y0125741D01*
X0045393Y0125855D01*
X0045345Y0125970D01*
X0045300Y0126086D01*
X0045260Y0126205D01*
X0045222Y0126324D01*
X0045189Y0126444D01*
X0045160Y0126566D01*
X0045134Y0126688D01*
X0045112Y0126811D01*
X0045095Y0126935D01*
X0045081Y0127059D01*
X0045071Y0127183D01*
X0045065Y0127308D01*
X0045063Y0127433D01*
X0139500Y0186433D02*
X0139502Y0186594D01*
X0139508Y0186754D01*
X0139518Y0186915D01*
X0139532Y0187075D01*
X0139550Y0187235D01*
X0139571Y0187394D01*
X0139597Y0187553D01*
X0139627Y0187711D01*
X0139660Y0187868D01*
X0139698Y0188025D01*
X0139739Y0188180D01*
X0139784Y0188334D01*
X0139833Y0188487D01*
X0139886Y0188639D01*
X0139942Y0188790D01*
X0140003Y0188939D01*
X0140066Y0189087D01*
X0140134Y0189233D01*
X0140205Y0189377D01*
X0140279Y0189519D01*
X0140357Y0189660D01*
X0140439Y0189798D01*
X0140524Y0189935D01*
X0140612Y0190069D01*
X0140704Y0190201D01*
X0140799Y0190331D01*
X0140897Y0190459D01*
X0140998Y0190584D01*
X0141102Y0190706D01*
X0141209Y0190826D01*
X0141319Y0190943D01*
X0141432Y0191058D01*
X0141548Y0191169D01*
X0141667Y0191278D01*
X0141788Y0191383D01*
X0141912Y0191486D01*
X0142038Y0191586D01*
X0142166Y0191682D01*
X0142297Y0191775D01*
X0142431Y0191865D01*
X0142566Y0191952D01*
X0142704Y0192035D01*
X0142843Y0192115D01*
X0142985Y0192191D01*
X0143128Y0192264D01*
X0143273Y0192333D01*
X0143420Y0192399D01*
X0143568Y0192461D01*
X0143718Y0192519D01*
X0143869Y0192574D01*
X0144022Y0192625D01*
X0144176Y0192672D01*
X0144331Y0192715D01*
X0144487Y0192754D01*
X0144643Y0192790D01*
X0144801Y0192821D01*
X0144959Y0192849D01*
X0145118Y0192873D01*
X0145278Y0192893D01*
X0145438Y0192909D01*
X0145598Y0192921D01*
X0145759Y0192929D01*
X0145920Y0192933D01*
X0146080Y0192933D01*
X0146241Y0192929D01*
X0146402Y0192921D01*
X0146562Y0192909D01*
X0146722Y0192893D01*
X0146882Y0192873D01*
X0147041Y0192849D01*
X0147199Y0192821D01*
X0147357Y0192790D01*
X0147513Y0192754D01*
X0147669Y0192715D01*
X0147824Y0192672D01*
X0147978Y0192625D01*
X0148131Y0192574D01*
X0148282Y0192519D01*
X0148432Y0192461D01*
X0148580Y0192399D01*
X0148727Y0192333D01*
X0148872Y0192264D01*
X0149015Y0192191D01*
X0149157Y0192115D01*
X0149296Y0192035D01*
X0149434Y0191952D01*
X0149569Y0191865D01*
X0149703Y0191775D01*
X0149834Y0191682D01*
X0149962Y0191586D01*
X0150088Y0191486D01*
X0150212Y0191383D01*
X0150333Y0191278D01*
X0150452Y0191169D01*
X0150568Y0191058D01*
X0150681Y0190943D01*
X0150791Y0190826D01*
X0150898Y0190706D01*
X0151002Y0190584D01*
X0151103Y0190459D01*
X0151201Y0190331D01*
X0151296Y0190201D01*
X0151388Y0190069D01*
X0151476Y0189935D01*
X0151561Y0189798D01*
X0151643Y0189660D01*
X0151721Y0189519D01*
X0151795Y0189377D01*
X0151866Y0189233D01*
X0151934Y0189087D01*
X0151997Y0188939D01*
X0152058Y0188790D01*
X0152114Y0188639D01*
X0152167Y0188487D01*
X0152216Y0188334D01*
X0152261Y0188180D01*
X0152302Y0188025D01*
X0152340Y0187868D01*
X0152373Y0187711D01*
X0152403Y0187553D01*
X0152429Y0187394D01*
X0152450Y0187235D01*
X0152468Y0187075D01*
X0152482Y0186915D01*
X0152492Y0186754D01*
X0152498Y0186594D01*
X0152500Y0186433D01*
X0152498Y0186272D01*
X0152492Y0186112D01*
X0152482Y0185951D01*
X0152468Y0185791D01*
X0152450Y0185631D01*
X0152429Y0185472D01*
X0152403Y0185313D01*
X0152373Y0185155D01*
X0152340Y0184998D01*
X0152302Y0184841D01*
X0152261Y0184686D01*
X0152216Y0184532D01*
X0152167Y0184379D01*
X0152114Y0184227D01*
X0152058Y0184076D01*
X0151997Y0183927D01*
X0151934Y0183779D01*
X0151866Y0183633D01*
X0151795Y0183489D01*
X0151721Y0183347D01*
X0151643Y0183206D01*
X0151561Y0183068D01*
X0151476Y0182931D01*
X0151388Y0182797D01*
X0151296Y0182665D01*
X0151201Y0182535D01*
X0151103Y0182407D01*
X0151002Y0182282D01*
X0150898Y0182160D01*
X0150791Y0182040D01*
X0150681Y0181923D01*
X0150568Y0181808D01*
X0150452Y0181697D01*
X0150333Y0181588D01*
X0150212Y0181483D01*
X0150088Y0181380D01*
X0149962Y0181280D01*
X0149834Y0181184D01*
X0149703Y0181091D01*
X0149569Y0181001D01*
X0149434Y0180914D01*
X0149296Y0180831D01*
X0149157Y0180751D01*
X0149015Y0180675D01*
X0148872Y0180602D01*
X0148727Y0180533D01*
X0148580Y0180467D01*
X0148432Y0180405D01*
X0148282Y0180347D01*
X0148131Y0180292D01*
X0147978Y0180241D01*
X0147824Y0180194D01*
X0147669Y0180151D01*
X0147513Y0180112D01*
X0147357Y0180076D01*
X0147199Y0180045D01*
X0147041Y0180017D01*
X0146882Y0179993D01*
X0146722Y0179973D01*
X0146562Y0179957D01*
X0146402Y0179945D01*
X0146241Y0179937D01*
X0146080Y0179933D01*
X0145920Y0179933D01*
X0145759Y0179937D01*
X0145598Y0179945D01*
X0145438Y0179957D01*
X0145278Y0179973D01*
X0145118Y0179993D01*
X0144959Y0180017D01*
X0144801Y0180045D01*
X0144643Y0180076D01*
X0144487Y0180112D01*
X0144331Y0180151D01*
X0144176Y0180194D01*
X0144022Y0180241D01*
X0143869Y0180292D01*
X0143718Y0180347D01*
X0143568Y0180405D01*
X0143420Y0180467D01*
X0143273Y0180533D01*
X0143128Y0180602D01*
X0142985Y0180675D01*
X0142843Y0180751D01*
X0142704Y0180831D01*
X0142566Y0180914D01*
X0142431Y0181001D01*
X0142297Y0181091D01*
X0142166Y0181184D01*
X0142038Y0181280D01*
X0141912Y0181380D01*
X0141788Y0181483D01*
X0141667Y0181588D01*
X0141548Y0181697D01*
X0141432Y0181808D01*
X0141319Y0181923D01*
X0141209Y0182040D01*
X0141102Y0182160D01*
X0140998Y0182282D01*
X0140897Y0182407D01*
X0140799Y0182535D01*
X0140704Y0182665D01*
X0140612Y0182797D01*
X0140524Y0182931D01*
X0140439Y0183068D01*
X0140357Y0183206D01*
X0140279Y0183347D01*
X0140205Y0183489D01*
X0140134Y0183633D01*
X0140066Y0183779D01*
X0140003Y0183927D01*
X0139942Y0184076D01*
X0139886Y0184227D01*
X0139833Y0184379D01*
X0139784Y0184532D01*
X0139739Y0184686D01*
X0139698Y0184841D01*
X0139660Y0184998D01*
X0139627Y0185155D01*
X0139597Y0185313D01*
X0139571Y0185472D01*
X0139550Y0185631D01*
X0139532Y0185791D01*
X0139518Y0185951D01*
X0139508Y0186112D01*
X0139502Y0186272D01*
X0139500Y0186433D01*
X0184500Y0186433D02*
X0184502Y0186594D01*
X0184508Y0186754D01*
X0184518Y0186915D01*
X0184532Y0187075D01*
X0184550Y0187235D01*
X0184571Y0187394D01*
X0184597Y0187553D01*
X0184627Y0187711D01*
X0184660Y0187868D01*
X0184698Y0188025D01*
X0184739Y0188180D01*
X0184784Y0188334D01*
X0184833Y0188487D01*
X0184886Y0188639D01*
X0184942Y0188790D01*
X0185003Y0188939D01*
X0185066Y0189087D01*
X0185134Y0189233D01*
X0185205Y0189377D01*
X0185279Y0189519D01*
X0185357Y0189660D01*
X0185439Y0189798D01*
X0185524Y0189935D01*
X0185612Y0190069D01*
X0185704Y0190201D01*
X0185799Y0190331D01*
X0185897Y0190459D01*
X0185998Y0190584D01*
X0186102Y0190706D01*
X0186209Y0190826D01*
X0186319Y0190943D01*
X0186432Y0191058D01*
X0186548Y0191169D01*
X0186667Y0191278D01*
X0186788Y0191383D01*
X0186912Y0191486D01*
X0187038Y0191586D01*
X0187166Y0191682D01*
X0187297Y0191775D01*
X0187431Y0191865D01*
X0187566Y0191952D01*
X0187704Y0192035D01*
X0187843Y0192115D01*
X0187985Y0192191D01*
X0188128Y0192264D01*
X0188273Y0192333D01*
X0188420Y0192399D01*
X0188568Y0192461D01*
X0188718Y0192519D01*
X0188869Y0192574D01*
X0189022Y0192625D01*
X0189176Y0192672D01*
X0189331Y0192715D01*
X0189487Y0192754D01*
X0189643Y0192790D01*
X0189801Y0192821D01*
X0189959Y0192849D01*
X0190118Y0192873D01*
X0190278Y0192893D01*
X0190438Y0192909D01*
X0190598Y0192921D01*
X0190759Y0192929D01*
X0190920Y0192933D01*
X0191080Y0192933D01*
X0191241Y0192929D01*
X0191402Y0192921D01*
X0191562Y0192909D01*
X0191722Y0192893D01*
X0191882Y0192873D01*
X0192041Y0192849D01*
X0192199Y0192821D01*
X0192357Y0192790D01*
X0192513Y0192754D01*
X0192669Y0192715D01*
X0192824Y0192672D01*
X0192978Y0192625D01*
X0193131Y0192574D01*
X0193282Y0192519D01*
X0193432Y0192461D01*
X0193580Y0192399D01*
X0193727Y0192333D01*
X0193872Y0192264D01*
X0194015Y0192191D01*
X0194157Y0192115D01*
X0194296Y0192035D01*
X0194434Y0191952D01*
X0194569Y0191865D01*
X0194703Y0191775D01*
X0194834Y0191682D01*
X0194962Y0191586D01*
X0195088Y0191486D01*
X0195212Y0191383D01*
X0195333Y0191278D01*
X0195452Y0191169D01*
X0195568Y0191058D01*
X0195681Y0190943D01*
X0195791Y0190826D01*
X0195898Y0190706D01*
X0196002Y0190584D01*
X0196103Y0190459D01*
X0196201Y0190331D01*
X0196296Y0190201D01*
X0196388Y0190069D01*
X0196476Y0189935D01*
X0196561Y0189798D01*
X0196643Y0189660D01*
X0196721Y0189519D01*
X0196795Y0189377D01*
X0196866Y0189233D01*
X0196934Y0189087D01*
X0196997Y0188939D01*
X0197058Y0188790D01*
X0197114Y0188639D01*
X0197167Y0188487D01*
X0197216Y0188334D01*
X0197261Y0188180D01*
X0197302Y0188025D01*
X0197340Y0187868D01*
X0197373Y0187711D01*
X0197403Y0187553D01*
X0197429Y0187394D01*
X0197450Y0187235D01*
X0197468Y0187075D01*
X0197482Y0186915D01*
X0197492Y0186754D01*
X0197498Y0186594D01*
X0197500Y0186433D01*
X0197498Y0186272D01*
X0197492Y0186112D01*
X0197482Y0185951D01*
X0197468Y0185791D01*
X0197450Y0185631D01*
X0197429Y0185472D01*
X0197403Y0185313D01*
X0197373Y0185155D01*
X0197340Y0184998D01*
X0197302Y0184841D01*
X0197261Y0184686D01*
X0197216Y0184532D01*
X0197167Y0184379D01*
X0197114Y0184227D01*
X0197058Y0184076D01*
X0196997Y0183927D01*
X0196934Y0183779D01*
X0196866Y0183633D01*
X0196795Y0183489D01*
X0196721Y0183347D01*
X0196643Y0183206D01*
X0196561Y0183068D01*
X0196476Y0182931D01*
X0196388Y0182797D01*
X0196296Y0182665D01*
X0196201Y0182535D01*
X0196103Y0182407D01*
X0196002Y0182282D01*
X0195898Y0182160D01*
X0195791Y0182040D01*
X0195681Y0181923D01*
X0195568Y0181808D01*
X0195452Y0181697D01*
X0195333Y0181588D01*
X0195212Y0181483D01*
X0195088Y0181380D01*
X0194962Y0181280D01*
X0194834Y0181184D01*
X0194703Y0181091D01*
X0194569Y0181001D01*
X0194434Y0180914D01*
X0194296Y0180831D01*
X0194157Y0180751D01*
X0194015Y0180675D01*
X0193872Y0180602D01*
X0193727Y0180533D01*
X0193580Y0180467D01*
X0193432Y0180405D01*
X0193282Y0180347D01*
X0193131Y0180292D01*
X0192978Y0180241D01*
X0192824Y0180194D01*
X0192669Y0180151D01*
X0192513Y0180112D01*
X0192357Y0180076D01*
X0192199Y0180045D01*
X0192041Y0180017D01*
X0191882Y0179993D01*
X0191722Y0179973D01*
X0191562Y0179957D01*
X0191402Y0179945D01*
X0191241Y0179937D01*
X0191080Y0179933D01*
X0190920Y0179933D01*
X0190759Y0179937D01*
X0190598Y0179945D01*
X0190438Y0179957D01*
X0190278Y0179973D01*
X0190118Y0179993D01*
X0189959Y0180017D01*
X0189801Y0180045D01*
X0189643Y0180076D01*
X0189487Y0180112D01*
X0189331Y0180151D01*
X0189176Y0180194D01*
X0189022Y0180241D01*
X0188869Y0180292D01*
X0188718Y0180347D01*
X0188568Y0180405D01*
X0188420Y0180467D01*
X0188273Y0180533D01*
X0188128Y0180602D01*
X0187985Y0180675D01*
X0187843Y0180751D01*
X0187704Y0180831D01*
X0187566Y0180914D01*
X0187431Y0181001D01*
X0187297Y0181091D01*
X0187166Y0181184D01*
X0187038Y0181280D01*
X0186912Y0181380D01*
X0186788Y0181483D01*
X0186667Y0181588D01*
X0186548Y0181697D01*
X0186432Y0181808D01*
X0186319Y0181923D01*
X0186209Y0182040D01*
X0186102Y0182160D01*
X0185998Y0182282D01*
X0185897Y0182407D01*
X0185799Y0182535D01*
X0185704Y0182665D01*
X0185612Y0182797D01*
X0185524Y0182931D01*
X0185439Y0183068D01*
X0185357Y0183206D01*
X0185279Y0183347D01*
X0185205Y0183489D01*
X0185134Y0183633D01*
X0185066Y0183779D01*
X0185003Y0183927D01*
X0184942Y0184076D01*
X0184886Y0184227D01*
X0184833Y0184379D01*
X0184784Y0184532D01*
X0184739Y0184686D01*
X0184698Y0184841D01*
X0184660Y0184998D01*
X0184627Y0185155D01*
X0184597Y0185313D01*
X0184571Y0185472D01*
X0184550Y0185631D01*
X0184532Y0185791D01*
X0184518Y0185951D01*
X0184508Y0186112D01*
X0184502Y0186272D01*
X0184500Y0186433D01*
X0229500Y0186433D02*
X0229502Y0186594D01*
X0229508Y0186754D01*
X0229518Y0186915D01*
X0229532Y0187075D01*
X0229550Y0187235D01*
X0229571Y0187394D01*
X0229597Y0187553D01*
X0229627Y0187711D01*
X0229660Y0187868D01*
X0229698Y0188025D01*
X0229739Y0188180D01*
X0229784Y0188334D01*
X0229833Y0188487D01*
X0229886Y0188639D01*
X0229942Y0188790D01*
X0230003Y0188939D01*
X0230066Y0189087D01*
X0230134Y0189233D01*
X0230205Y0189377D01*
X0230279Y0189519D01*
X0230357Y0189660D01*
X0230439Y0189798D01*
X0230524Y0189935D01*
X0230612Y0190069D01*
X0230704Y0190201D01*
X0230799Y0190331D01*
X0230897Y0190459D01*
X0230998Y0190584D01*
X0231102Y0190706D01*
X0231209Y0190826D01*
X0231319Y0190943D01*
X0231432Y0191058D01*
X0231548Y0191169D01*
X0231667Y0191278D01*
X0231788Y0191383D01*
X0231912Y0191486D01*
X0232038Y0191586D01*
X0232166Y0191682D01*
X0232297Y0191775D01*
X0232431Y0191865D01*
X0232566Y0191952D01*
X0232704Y0192035D01*
X0232843Y0192115D01*
X0232985Y0192191D01*
X0233128Y0192264D01*
X0233273Y0192333D01*
X0233420Y0192399D01*
X0233568Y0192461D01*
X0233718Y0192519D01*
X0233869Y0192574D01*
X0234022Y0192625D01*
X0234176Y0192672D01*
X0234331Y0192715D01*
X0234487Y0192754D01*
X0234643Y0192790D01*
X0234801Y0192821D01*
X0234959Y0192849D01*
X0235118Y0192873D01*
X0235278Y0192893D01*
X0235438Y0192909D01*
X0235598Y0192921D01*
X0235759Y0192929D01*
X0235920Y0192933D01*
X0236080Y0192933D01*
X0236241Y0192929D01*
X0236402Y0192921D01*
X0236562Y0192909D01*
X0236722Y0192893D01*
X0236882Y0192873D01*
X0237041Y0192849D01*
X0237199Y0192821D01*
X0237357Y0192790D01*
X0237513Y0192754D01*
X0237669Y0192715D01*
X0237824Y0192672D01*
X0237978Y0192625D01*
X0238131Y0192574D01*
X0238282Y0192519D01*
X0238432Y0192461D01*
X0238580Y0192399D01*
X0238727Y0192333D01*
X0238872Y0192264D01*
X0239015Y0192191D01*
X0239157Y0192115D01*
X0239296Y0192035D01*
X0239434Y0191952D01*
X0239569Y0191865D01*
X0239703Y0191775D01*
X0239834Y0191682D01*
X0239962Y0191586D01*
X0240088Y0191486D01*
X0240212Y0191383D01*
X0240333Y0191278D01*
X0240452Y0191169D01*
X0240568Y0191058D01*
X0240681Y0190943D01*
X0240791Y0190826D01*
X0240898Y0190706D01*
X0241002Y0190584D01*
X0241103Y0190459D01*
X0241201Y0190331D01*
X0241296Y0190201D01*
X0241388Y0190069D01*
X0241476Y0189935D01*
X0241561Y0189798D01*
X0241643Y0189660D01*
X0241721Y0189519D01*
X0241795Y0189377D01*
X0241866Y0189233D01*
X0241934Y0189087D01*
X0241997Y0188939D01*
X0242058Y0188790D01*
X0242114Y0188639D01*
X0242167Y0188487D01*
X0242216Y0188334D01*
X0242261Y0188180D01*
X0242302Y0188025D01*
X0242340Y0187868D01*
X0242373Y0187711D01*
X0242403Y0187553D01*
X0242429Y0187394D01*
X0242450Y0187235D01*
X0242468Y0187075D01*
X0242482Y0186915D01*
X0242492Y0186754D01*
X0242498Y0186594D01*
X0242500Y0186433D01*
X0242498Y0186272D01*
X0242492Y0186112D01*
X0242482Y0185951D01*
X0242468Y0185791D01*
X0242450Y0185631D01*
X0242429Y0185472D01*
X0242403Y0185313D01*
X0242373Y0185155D01*
X0242340Y0184998D01*
X0242302Y0184841D01*
X0242261Y0184686D01*
X0242216Y0184532D01*
X0242167Y0184379D01*
X0242114Y0184227D01*
X0242058Y0184076D01*
X0241997Y0183927D01*
X0241934Y0183779D01*
X0241866Y0183633D01*
X0241795Y0183489D01*
X0241721Y0183347D01*
X0241643Y0183206D01*
X0241561Y0183068D01*
X0241476Y0182931D01*
X0241388Y0182797D01*
X0241296Y0182665D01*
X0241201Y0182535D01*
X0241103Y0182407D01*
X0241002Y0182282D01*
X0240898Y0182160D01*
X0240791Y0182040D01*
X0240681Y0181923D01*
X0240568Y0181808D01*
X0240452Y0181697D01*
X0240333Y0181588D01*
X0240212Y0181483D01*
X0240088Y0181380D01*
X0239962Y0181280D01*
X0239834Y0181184D01*
X0239703Y0181091D01*
X0239569Y0181001D01*
X0239434Y0180914D01*
X0239296Y0180831D01*
X0239157Y0180751D01*
X0239015Y0180675D01*
X0238872Y0180602D01*
X0238727Y0180533D01*
X0238580Y0180467D01*
X0238432Y0180405D01*
X0238282Y0180347D01*
X0238131Y0180292D01*
X0237978Y0180241D01*
X0237824Y0180194D01*
X0237669Y0180151D01*
X0237513Y0180112D01*
X0237357Y0180076D01*
X0237199Y0180045D01*
X0237041Y0180017D01*
X0236882Y0179993D01*
X0236722Y0179973D01*
X0236562Y0179957D01*
X0236402Y0179945D01*
X0236241Y0179937D01*
X0236080Y0179933D01*
X0235920Y0179933D01*
X0235759Y0179937D01*
X0235598Y0179945D01*
X0235438Y0179957D01*
X0235278Y0179973D01*
X0235118Y0179993D01*
X0234959Y0180017D01*
X0234801Y0180045D01*
X0234643Y0180076D01*
X0234487Y0180112D01*
X0234331Y0180151D01*
X0234176Y0180194D01*
X0234022Y0180241D01*
X0233869Y0180292D01*
X0233718Y0180347D01*
X0233568Y0180405D01*
X0233420Y0180467D01*
X0233273Y0180533D01*
X0233128Y0180602D01*
X0232985Y0180675D01*
X0232843Y0180751D01*
X0232704Y0180831D01*
X0232566Y0180914D01*
X0232431Y0181001D01*
X0232297Y0181091D01*
X0232166Y0181184D01*
X0232038Y0181280D01*
X0231912Y0181380D01*
X0231788Y0181483D01*
X0231667Y0181588D01*
X0231548Y0181697D01*
X0231432Y0181808D01*
X0231319Y0181923D01*
X0231209Y0182040D01*
X0231102Y0182160D01*
X0230998Y0182282D01*
X0230897Y0182407D01*
X0230799Y0182535D01*
X0230704Y0182665D01*
X0230612Y0182797D01*
X0230524Y0182931D01*
X0230439Y0183068D01*
X0230357Y0183206D01*
X0230279Y0183347D01*
X0230205Y0183489D01*
X0230134Y0183633D01*
X0230066Y0183779D01*
X0230003Y0183927D01*
X0229942Y0184076D01*
X0229886Y0184227D01*
X0229833Y0184379D01*
X0229784Y0184532D01*
X0229739Y0184686D01*
X0229698Y0184841D01*
X0229660Y0184998D01*
X0229627Y0185155D01*
X0229597Y0185313D01*
X0229571Y0185472D01*
X0229550Y0185631D01*
X0229532Y0185791D01*
X0229518Y0185951D01*
X0229508Y0186112D01*
X0229502Y0186272D01*
X0229500Y0186433D01*
X0264063Y0199433D02*
X0264065Y0199558D01*
X0264071Y0199683D01*
X0264081Y0199807D01*
X0264095Y0199931D01*
X0264112Y0200055D01*
X0264134Y0200178D01*
X0264160Y0200300D01*
X0264189Y0200422D01*
X0264222Y0200542D01*
X0264260Y0200661D01*
X0264300Y0200780D01*
X0264345Y0200896D01*
X0264393Y0201011D01*
X0264445Y0201125D01*
X0264501Y0201237D01*
X0264560Y0201347D01*
X0264622Y0201455D01*
X0264688Y0201562D01*
X0264757Y0201666D01*
X0264830Y0201767D01*
X0264905Y0201867D01*
X0264984Y0201964D01*
X0265066Y0202058D01*
X0265151Y0202150D01*
X0265238Y0202239D01*
X0265329Y0202325D01*
X0265422Y0202408D01*
X0265518Y0202489D01*
X0265616Y0202566D01*
X0265716Y0202640D01*
X0265819Y0202711D01*
X0265924Y0202778D01*
X0266032Y0202843D01*
X0266141Y0202903D01*
X0266252Y0202961D01*
X0266365Y0203014D01*
X0266479Y0203064D01*
X0266595Y0203111D01*
X0266712Y0203153D01*
X0266831Y0203192D01*
X0266951Y0203228D01*
X0267072Y0203259D01*
X0267194Y0203287D01*
X0267316Y0203310D01*
X0267440Y0203330D01*
X0267564Y0203346D01*
X0267688Y0203358D01*
X0267813Y0203366D01*
X0267938Y0203370D01*
X0268062Y0203370D01*
X0268187Y0203366D01*
X0268312Y0203358D01*
X0268436Y0203346D01*
X0268560Y0203330D01*
X0268684Y0203310D01*
X0268806Y0203287D01*
X0268928Y0203259D01*
X0269049Y0203228D01*
X0269169Y0203192D01*
X0269288Y0203153D01*
X0269405Y0203111D01*
X0269521Y0203064D01*
X0269635Y0203014D01*
X0269748Y0202961D01*
X0269859Y0202903D01*
X0269969Y0202843D01*
X0270076Y0202778D01*
X0270181Y0202711D01*
X0270284Y0202640D01*
X0270384Y0202566D01*
X0270482Y0202489D01*
X0270578Y0202408D01*
X0270671Y0202325D01*
X0270762Y0202239D01*
X0270849Y0202150D01*
X0270934Y0202058D01*
X0271016Y0201964D01*
X0271095Y0201867D01*
X0271170Y0201767D01*
X0271243Y0201666D01*
X0271312Y0201562D01*
X0271378Y0201455D01*
X0271440Y0201347D01*
X0271499Y0201237D01*
X0271555Y0201125D01*
X0271607Y0201011D01*
X0271655Y0200896D01*
X0271700Y0200780D01*
X0271740Y0200661D01*
X0271778Y0200542D01*
X0271811Y0200422D01*
X0271840Y0200300D01*
X0271866Y0200178D01*
X0271888Y0200055D01*
X0271905Y0199931D01*
X0271919Y0199807D01*
X0271929Y0199683D01*
X0271935Y0199558D01*
X0271937Y0199433D01*
X0271935Y0199308D01*
X0271929Y0199183D01*
X0271919Y0199059D01*
X0271905Y0198935D01*
X0271888Y0198811D01*
X0271866Y0198688D01*
X0271840Y0198566D01*
X0271811Y0198444D01*
X0271778Y0198324D01*
X0271740Y0198205D01*
X0271700Y0198086D01*
X0271655Y0197970D01*
X0271607Y0197855D01*
X0271555Y0197741D01*
X0271499Y0197629D01*
X0271440Y0197519D01*
X0271378Y0197411D01*
X0271312Y0197304D01*
X0271243Y0197200D01*
X0271170Y0197099D01*
X0271095Y0196999D01*
X0271016Y0196902D01*
X0270934Y0196808D01*
X0270849Y0196716D01*
X0270762Y0196627D01*
X0270671Y0196541D01*
X0270578Y0196458D01*
X0270482Y0196377D01*
X0270384Y0196300D01*
X0270284Y0196226D01*
X0270181Y0196155D01*
X0270076Y0196088D01*
X0269968Y0196023D01*
X0269859Y0195963D01*
X0269748Y0195905D01*
X0269635Y0195852D01*
X0269521Y0195802D01*
X0269405Y0195755D01*
X0269288Y0195713D01*
X0269169Y0195674D01*
X0269049Y0195638D01*
X0268928Y0195607D01*
X0268806Y0195579D01*
X0268684Y0195556D01*
X0268560Y0195536D01*
X0268436Y0195520D01*
X0268312Y0195508D01*
X0268187Y0195500D01*
X0268062Y0195496D01*
X0267938Y0195496D01*
X0267813Y0195500D01*
X0267688Y0195508D01*
X0267564Y0195520D01*
X0267440Y0195536D01*
X0267316Y0195556D01*
X0267194Y0195579D01*
X0267072Y0195607D01*
X0266951Y0195638D01*
X0266831Y0195674D01*
X0266712Y0195713D01*
X0266595Y0195755D01*
X0266479Y0195802D01*
X0266365Y0195852D01*
X0266252Y0195905D01*
X0266141Y0195963D01*
X0266031Y0196023D01*
X0265924Y0196088D01*
X0265819Y0196155D01*
X0265716Y0196226D01*
X0265616Y0196300D01*
X0265518Y0196377D01*
X0265422Y0196458D01*
X0265329Y0196541D01*
X0265238Y0196627D01*
X0265151Y0196716D01*
X0265066Y0196808D01*
X0264984Y0196902D01*
X0264905Y0196999D01*
X0264830Y0197099D01*
X0264757Y0197200D01*
X0264688Y0197304D01*
X0264622Y0197411D01*
X0264560Y0197519D01*
X0264501Y0197629D01*
X0264445Y0197741D01*
X0264393Y0197855D01*
X0264345Y0197970D01*
X0264300Y0198086D01*
X0264260Y0198205D01*
X0264222Y0198324D01*
X0264189Y0198444D01*
X0264160Y0198566D01*
X0264134Y0198688D01*
X0264112Y0198811D01*
X0264095Y0198935D01*
X0264081Y0199059D01*
X0264071Y0199183D01*
X0264065Y0199308D01*
X0264063Y0199433D01*
X0295063Y0023433D02*
X0295065Y0023558D01*
X0295071Y0023683D01*
X0295081Y0023807D01*
X0295095Y0023931D01*
X0295112Y0024055D01*
X0295134Y0024178D01*
X0295160Y0024300D01*
X0295189Y0024422D01*
X0295222Y0024542D01*
X0295260Y0024661D01*
X0295300Y0024780D01*
X0295345Y0024896D01*
X0295393Y0025011D01*
X0295445Y0025125D01*
X0295501Y0025237D01*
X0295560Y0025347D01*
X0295622Y0025455D01*
X0295688Y0025562D01*
X0295757Y0025666D01*
X0295830Y0025767D01*
X0295905Y0025867D01*
X0295984Y0025964D01*
X0296066Y0026058D01*
X0296151Y0026150D01*
X0296238Y0026239D01*
X0296329Y0026325D01*
X0296422Y0026408D01*
X0296518Y0026489D01*
X0296616Y0026566D01*
X0296716Y0026640D01*
X0296819Y0026711D01*
X0296924Y0026778D01*
X0297032Y0026843D01*
X0297141Y0026903D01*
X0297252Y0026961D01*
X0297365Y0027014D01*
X0297479Y0027064D01*
X0297595Y0027111D01*
X0297712Y0027153D01*
X0297831Y0027192D01*
X0297951Y0027228D01*
X0298072Y0027259D01*
X0298194Y0027287D01*
X0298316Y0027310D01*
X0298440Y0027330D01*
X0298564Y0027346D01*
X0298688Y0027358D01*
X0298813Y0027366D01*
X0298938Y0027370D01*
X0299062Y0027370D01*
X0299187Y0027366D01*
X0299312Y0027358D01*
X0299436Y0027346D01*
X0299560Y0027330D01*
X0299684Y0027310D01*
X0299806Y0027287D01*
X0299928Y0027259D01*
X0300049Y0027228D01*
X0300169Y0027192D01*
X0300288Y0027153D01*
X0300405Y0027111D01*
X0300521Y0027064D01*
X0300635Y0027014D01*
X0300748Y0026961D01*
X0300859Y0026903D01*
X0300969Y0026843D01*
X0301076Y0026778D01*
X0301181Y0026711D01*
X0301284Y0026640D01*
X0301384Y0026566D01*
X0301482Y0026489D01*
X0301578Y0026408D01*
X0301671Y0026325D01*
X0301762Y0026239D01*
X0301849Y0026150D01*
X0301934Y0026058D01*
X0302016Y0025964D01*
X0302095Y0025867D01*
X0302170Y0025767D01*
X0302243Y0025666D01*
X0302312Y0025562D01*
X0302378Y0025455D01*
X0302440Y0025347D01*
X0302499Y0025237D01*
X0302555Y0025125D01*
X0302607Y0025011D01*
X0302655Y0024896D01*
X0302700Y0024780D01*
X0302740Y0024661D01*
X0302778Y0024542D01*
X0302811Y0024422D01*
X0302840Y0024300D01*
X0302866Y0024178D01*
X0302888Y0024055D01*
X0302905Y0023931D01*
X0302919Y0023807D01*
X0302929Y0023683D01*
X0302935Y0023558D01*
X0302937Y0023433D01*
X0302935Y0023308D01*
X0302929Y0023183D01*
X0302919Y0023059D01*
X0302905Y0022935D01*
X0302888Y0022811D01*
X0302866Y0022688D01*
X0302840Y0022566D01*
X0302811Y0022444D01*
X0302778Y0022324D01*
X0302740Y0022205D01*
X0302700Y0022086D01*
X0302655Y0021970D01*
X0302607Y0021855D01*
X0302555Y0021741D01*
X0302499Y0021629D01*
X0302440Y0021519D01*
X0302378Y0021411D01*
X0302312Y0021304D01*
X0302243Y0021200D01*
X0302170Y0021099D01*
X0302095Y0020999D01*
X0302016Y0020902D01*
X0301934Y0020808D01*
X0301849Y0020716D01*
X0301762Y0020627D01*
X0301671Y0020541D01*
X0301578Y0020458D01*
X0301482Y0020377D01*
X0301384Y0020300D01*
X0301284Y0020226D01*
X0301181Y0020155D01*
X0301076Y0020088D01*
X0300968Y0020023D01*
X0300859Y0019963D01*
X0300748Y0019905D01*
X0300635Y0019852D01*
X0300521Y0019802D01*
X0300405Y0019755D01*
X0300288Y0019713D01*
X0300169Y0019674D01*
X0300049Y0019638D01*
X0299928Y0019607D01*
X0299806Y0019579D01*
X0299684Y0019556D01*
X0299560Y0019536D01*
X0299436Y0019520D01*
X0299312Y0019508D01*
X0299187Y0019500D01*
X0299062Y0019496D01*
X0298938Y0019496D01*
X0298813Y0019500D01*
X0298688Y0019508D01*
X0298564Y0019520D01*
X0298440Y0019536D01*
X0298316Y0019556D01*
X0298194Y0019579D01*
X0298072Y0019607D01*
X0297951Y0019638D01*
X0297831Y0019674D01*
X0297712Y0019713D01*
X0297595Y0019755D01*
X0297479Y0019802D01*
X0297365Y0019852D01*
X0297252Y0019905D01*
X0297141Y0019963D01*
X0297031Y0020023D01*
X0296924Y0020088D01*
X0296819Y0020155D01*
X0296716Y0020226D01*
X0296616Y0020300D01*
X0296518Y0020377D01*
X0296422Y0020458D01*
X0296329Y0020541D01*
X0296238Y0020627D01*
X0296151Y0020716D01*
X0296066Y0020808D01*
X0295984Y0020902D01*
X0295905Y0020999D01*
X0295830Y0021099D01*
X0295757Y0021200D01*
X0295688Y0021304D01*
X0295622Y0021411D01*
X0295560Y0021519D01*
X0295501Y0021629D01*
X0295445Y0021741D01*
X0295393Y0021855D01*
X0295345Y0021970D01*
X0295300Y0022086D01*
X0295260Y0022205D01*
X0295222Y0022324D01*
X0295189Y0022444D01*
X0295160Y0022566D01*
X0295134Y0022688D01*
X0295112Y0022811D01*
X0295095Y0022935D01*
X0295081Y0023059D01*
X0295071Y0023183D01*
X0295065Y0023308D01*
X0295063Y0023433D01*
D11*
X0111000Y0129433D03*
X0101000Y0129433D03*
X0073000Y0129433D03*
X0063000Y0129433D03*
X0035000Y0129433D03*
X0025000Y0129433D03*
D12*
X0212000Y0088433D03*
D13*
X0212000Y0098433D03*
D14*
X0060000Y0033433D03*
X0060000Y0023433D03*
D15*
X0166000Y0023133D03*
D16*
X0176000Y0023133D03*
X0186000Y0023133D03*
D17*
X0046600Y0025433D02*
X0041400Y0025433D01*
X0041400Y0035433D02*
X0046600Y0035433D01*
X0046600Y0054433D02*
X0041400Y0054433D01*
X0041400Y0064433D02*
X0046600Y0064433D01*
X0046600Y0074433D02*
X0041400Y0074433D01*
X0041400Y0084433D02*
X0046600Y0084433D01*
X0046600Y0094433D02*
X0041400Y0094433D01*
X0041400Y0104433D02*
X0046600Y0104433D01*
X0046600Y0114433D02*
X0041400Y0114433D01*
X0016600Y0114433D02*
X0011400Y0114433D01*
X0011400Y0104433D02*
X0016600Y0104433D01*
X0016600Y0094433D02*
X0011400Y0094433D01*
X0011400Y0084433D02*
X0016600Y0084433D01*
X0016600Y0074433D02*
X0011400Y0074433D01*
X0011400Y0064433D02*
X0016600Y0064433D01*
X0016600Y0054433D02*
X0011400Y0054433D01*
X0011400Y0035433D02*
X0016600Y0035433D01*
X0016600Y0025433D02*
X0011400Y0025433D01*
D18*
X0087000Y0057433D03*
X0087150Y0071833D03*
X0087000Y0086433D03*
X0087000Y0100433D03*
X0137000Y0100433D03*
X0147000Y0104433D03*
X0163000Y0103433D03*
X0173000Y0103433D03*
X0183000Y0103433D03*
X0193000Y0103433D03*
X0137000Y0086433D03*
X0137150Y0071833D03*
X0137000Y0057433D03*
X0147000Y0054433D03*
X0163000Y0063433D03*
X0173000Y0063433D03*
X0183000Y0063433D03*
X0193000Y0063433D03*
D19*
X0106885Y0144776D02*
X0106885Y0146784D01*
X0106885Y0144776D02*
X0106847Y0144776D01*
X0106847Y0146784D01*
X0106885Y0146784D01*
X0100980Y0146784D02*
X0100980Y0144776D01*
X0100942Y0144776D01*
X0100942Y0146784D01*
X0100980Y0146784D01*
X0095074Y0146784D02*
X0095074Y0144776D01*
X0095036Y0144776D01*
X0095036Y0146784D01*
X0095074Y0146784D01*
X0089169Y0146784D02*
X0089169Y0144776D01*
X0089131Y0144776D01*
X0089131Y0146784D01*
X0089169Y0146784D01*
X0083263Y0146784D02*
X0083263Y0144776D01*
X0083225Y0144776D01*
X0083225Y0146784D01*
X0083263Y0146784D01*
X0077358Y0146784D02*
X0077358Y0144776D01*
X0077320Y0144776D01*
X0077320Y0146784D01*
X0077358Y0146784D01*
X0071452Y0146784D02*
X0071452Y0144776D01*
X0071414Y0144776D01*
X0071414Y0146784D01*
X0071452Y0146784D01*
X0065547Y0146784D02*
X0065547Y0144776D01*
X0065509Y0144776D01*
X0065509Y0146784D01*
X0065547Y0146784D01*
X0059641Y0146784D02*
X0059641Y0144776D01*
X0059603Y0144776D01*
X0059603Y0146784D01*
X0059641Y0146784D01*
X0053736Y0146784D02*
X0053736Y0144776D01*
X0053698Y0144776D01*
X0053698Y0146784D01*
X0053736Y0146784D01*
X0047830Y0146784D02*
X0047830Y0144776D01*
X0047792Y0144776D01*
X0047792Y0146784D01*
X0047830Y0146784D01*
X0041925Y0146784D02*
X0041925Y0144776D01*
X0041887Y0144776D01*
X0041887Y0146784D01*
X0041925Y0146784D01*
X0036019Y0146784D02*
X0036019Y0144776D01*
X0035981Y0144776D01*
X0035981Y0146784D01*
X0036019Y0146784D01*
X0114012Y0151862D02*
X0116020Y0151862D01*
X0116020Y0151824D01*
X0114012Y0151824D01*
X0114012Y0151862D01*
X0114012Y0157767D02*
X0116020Y0157767D01*
X0116020Y0157729D01*
X0114012Y0157729D01*
X0114012Y0157767D01*
X0114012Y0163673D02*
X0116020Y0163673D01*
X0116020Y0163635D01*
X0114012Y0163635D01*
X0114012Y0163673D01*
X0114012Y0169578D02*
X0116020Y0169578D01*
X0116020Y0169540D01*
X0114012Y0169540D01*
X0114012Y0169578D01*
X0114012Y0175484D02*
X0116020Y0175484D01*
X0116020Y0175446D01*
X0114012Y0175446D01*
X0114012Y0175484D01*
X0114012Y0181389D02*
X0116020Y0181389D01*
X0116020Y0181351D01*
X0114012Y0181351D01*
X0114012Y0181389D01*
X0114012Y0187295D02*
X0116020Y0187295D01*
X0116020Y0187257D01*
X0114012Y0187257D01*
X0114012Y0187295D01*
X0114012Y0193200D02*
X0116020Y0193200D01*
X0116020Y0193162D01*
X0114012Y0193162D01*
X0114012Y0193200D01*
X0106847Y0198083D02*
X0106847Y0200091D01*
X0106885Y0200091D01*
X0106885Y0198083D01*
X0106847Y0198083D01*
X0100942Y0198083D02*
X0100942Y0200091D01*
X0100980Y0200091D01*
X0100980Y0198083D01*
X0100942Y0198083D01*
X0095036Y0198083D02*
X0095036Y0200091D01*
X0095074Y0200091D01*
X0095074Y0198083D01*
X0095036Y0198083D01*
X0089131Y0198083D02*
X0089131Y0200091D01*
X0089169Y0200091D01*
X0089169Y0198083D01*
X0089131Y0198083D01*
X0083225Y0198083D02*
X0083225Y0200091D01*
X0083263Y0200091D01*
X0083263Y0198083D01*
X0083225Y0198083D01*
X0077320Y0198083D02*
X0077320Y0200091D01*
X0077358Y0200091D01*
X0077358Y0198083D01*
X0077320Y0198083D01*
X0071414Y0198083D02*
X0071414Y0200091D01*
X0071452Y0200091D01*
X0071452Y0198083D01*
X0071414Y0198083D01*
X0065509Y0198083D02*
X0065509Y0200091D01*
X0065547Y0200091D01*
X0065547Y0198083D01*
X0065509Y0198083D01*
X0059603Y0198083D02*
X0059603Y0200091D01*
X0059641Y0200091D01*
X0059641Y0198083D01*
X0059603Y0198083D01*
X0053698Y0198083D02*
X0053698Y0200091D01*
X0053736Y0200091D01*
X0053736Y0198083D01*
X0053698Y0198083D01*
X0047792Y0198083D02*
X0047792Y0200091D01*
X0047830Y0200091D01*
X0047830Y0198083D01*
X0047792Y0198083D01*
X0041887Y0198083D02*
X0041887Y0200091D01*
X0041925Y0200091D01*
X0041925Y0198083D01*
X0041887Y0198083D01*
X0035981Y0198083D02*
X0035981Y0200091D01*
X0036019Y0200091D01*
X0036019Y0198083D01*
X0035981Y0198083D01*
D20*
X0293000Y0197433D02*
X0299000Y0197433D01*
X0299000Y0187433D02*
X0293000Y0187433D01*
X0293000Y0177433D02*
X0299000Y0177433D01*
X0299000Y0167433D02*
X0293000Y0167433D01*
D21*
X0131000Y0037433D03*
X0121000Y0037433D03*
X0111000Y0037433D03*
X0111000Y0027433D03*
X0121000Y0027433D03*
X0131000Y0027433D03*
X0101000Y0027433D03*
X0091000Y0027433D03*
X0091000Y0037433D03*
X0101000Y0037433D03*
D22*
X0267063Y0137433D03*
X0289898Y0137433D03*
X0278874Y0156331D03*
D23*
X0205882Y0062433D03*
D24*
X0284622Y0062433D03*
D25*
X0077700Y0101933D03*
X0077700Y0106933D03*
X0077700Y0111933D03*
X0077700Y0116933D03*
X0058300Y0116933D03*
X0058300Y0111933D03*
X0058300Y0106933D03*
X0058300Y0101933D03*
D26*
X0136000Y0114133D02*
X0136000Y0120733D01*
X0146000Y0120733D02*
X0146000Y0114133D01*
X0156000Y0114133D02*
X0156000Y0120733D01*
X0181000Y0120733D02*
X0181000Y0114133D01*
X0191000Y0114133D02*
X0191000Y0120733D01*
X0201000Y0120733D02*
X0201000Y0114133D01*
X0226000Y0114133D02*
X0226000Y0120733D01*
X0236000Y0120733D02*
X0236000Y0114133D01*
X0246000Y0114133D02*
X0246000Y0120733D01*
D27*
X0247300Y0118033D02*
X0246000Y0117433D01*
X0245800Y0117433D01*
X0245800Y0114733D01*
X0239050Y0107983D01*
X0284500Y0062533D01*
X0284622Y0062433D01*
X0284622Y0062433D01*
X0284622Y0056133D01*
X0287232Y0056133D01*
X0290922Y0059824D01*
X0290922Y0062433D01*
X0284622Y0062433D01*
X0284622Y0056133D01*
X0282013Y0056133D01*
X0278322Y0059824D01*
X0278322Y0062433D01*
X0284622Y0062433D01*
X0284622Y0062433D01*
X0284622Y0062433D01*
X0278322Y0062433D01*
X0278322Y0065043D01*
X0282013Y0068733D01*
X0284622Y0068733D01*
X0284622Y0062433D01*
X0290922Y0062433D01*
X0290922Y0065043D01*
X0287232Y0068733D01*
X0284622Y0068733D01*
X0284622Y0062433D01*
X0284622Y0062433D01*
X0284622Y0063408D02*
X0284622Y0063408D01*
X0284622Y0066407D02*
X0284622Y0066407D01*
X0289558Y0066407D02*
X0306000Y0066407D01*
X0306000Y0063408D02*
X0290922Y0063408D01*
X0290922Y0060410D02*
X0306000Y0060410D01*
X0306000Y0057411D02*
X0288509Y0057411D01*
X0284622Y0057411D02*
X0284622Y0057411D01*
X0284622Y0060410D02*
X0284622Y0060410D01*
X0280735Y0057411D02*
X0212423Y0057411D01*
X0212225Y0056934D02*
X0212682Y0058037D01*
X0212682Y0066830D01*
X0212225Y0067933D01*
X0211381Y0068777D01*
X0210279Y0069233D01*
X0203567Y0069233D01*
X0202669Y0070131D01*
X0201456Y0070633D01*
X0182967Y0070633D01*
X0168267Y0085333D01*
X0205750Y0085333D01*
X0205750Y0084587D01*
X0206207Y0083484D01*
X0207051Y0082640D01*
X0208153Y0082183D01*
X0215847Y0082183D01*
X0216949Y0082640D01*
X0217793Y0083484D01*
X0218250Y0084587D01*
X0218250Y0092280D01*
X0217793Y0093383D01*
X0216949Y0094227D01*
X0216225Y0094527D01*
X0216386Y0094687D01*
X0216918Y0095420D01*
X0217329Y0096226D01*
X0217608Y0097087D01*
X0217750Y0097981D01*
X0217750Y0098433D01*
X0212000Y0098433D01*
X0212000Y0098433D01*
X0206250Y0098433D01*
X0206250Y0097981D01*
X0206392Y0097087D01*
X0206671Y0096226D01*
X0207082Y0095420D01*
X0207614Y0094687D01*
X0207775Y0094527D01*
X0207051Y0094227D01*
X0206207Y0093383D01*
X0205750Y0092280D01*
X0205750Y0091933D01*
X0165867Y0091933D01*
X0152600Y0105200D01*
X0152600Y0105733D01*
X0157400Y0105733D01*
X0157400Y0101114D01*
X0160680Y0097833D01*
X0165320Y0097833D01*
X0168000Y0100514D01*
X0170680Y0097833D01*
X0175320Y0097833D01*
X0177820Y0100333D01*
X0178180Y0100333D01*
X0180680Y0097833D01*
X0185320Y0097833D01*
X0188000Y0100514D01*
X0190680Y0097833D01*
X0195320Y0097833D01*
X0198600Y0101114D01*
X0198600Y0105753D01*
X0197920Y0106433D01*
X0263000Y0106433D01*
X0281000Y0124433D01*
X0281000Y0146433D01*
X0306000Y0146433D01*
X0306000Y0016433D01*
X0187463Y0016433D01*
X0189824Y0017411D01*
X0191722Y0019310D01*
X0192750Y0021791D01*
X0192750Y0024476D01*
X0191722Y0026957D01*
X0189824Y0028856D01*
X0189400Y0029031D01*
X0189400Y0055166D01*
X0192067Y0057833D01*
X0195320Y0057833D01*
X0198600Y0061114D01*
X0198600Y0064033D01*
X0199082Y0064033D01*
X0199082Y0058037D01*
X0199539Y0056934D01*
X0200383Y0056090D01*
X0201485Y0055633D01*
X0210279Y0055633D01*
X0211381Y0056090D01*
X0212225Y0056934D01*
X0212682Y0060410D02*
X0278322Y0060410D01*
X0278322Y0063408D02*
X0212682Y0063408D01*
X0212682Y0066407D02*
X0279686Y0066407D01*
X0306000Y0069405D02*
X0203395Y0069405D01*
X0199082Y0063408D02*
X0198600Y0063408D01*
X0199082Y0060410D02*
X0197896Y0060410D01*
X0199341Y0057411D02*
X0191645Y0057411D01*
X0189400Y0054412D02*
X0306000Y0054412D01*
X0306000Y0051414D02*
X0189400Y0051414D01*
X0189400Y0048415D02*
X0306000Y0048415D01*
X0306000Y0045417D02*
X0189400Y0045417D01*
X0189400Y0042418D02*
X0306000Y0042418D01*
X0306000Y0039420D02*
X0189400Y0039420D01*
X0189400Y0036421D02*
X0306000Y0036421D01*
X0306000Y0033423D02*
X0189400Y0033423D01*
X0189400Y0030424D02*
X0306000Y0030424D01*
X0306000Y0027426D02*
X0304394Y0027426D01*
X0304627Y0027193D02*
X0302760Y0029060D01*
X0300320Y0030070D01*
X0297680Y0030070D01*
X0295240Y0029060D01*
X0293373Y0027193D01*
X0292363Y0024754D01*
X0292363Y0022113D01*
X0293373Y0019674D01*
X0295240Y0017807D01*
X0297680Y0016796D01*
X0300320Y0016796D01*
X0302760Y0017807D01*
X0304627Y0019674D01*
X0305637Y0022113D01*
X0305637Y0024754D01*
X0304627Y0027193D01*
X0305637Y0024427D02*
X0306000Y0024427D01*
X0306000Y0021429D02*
X0305354Y0021429D01*
X0306000Y0018430D02*
X0303383Y0018430D01*
X0294617Y0018430D02*
X0190843Y0018430D01*
X0192600Y0021429D02*
X0292646Y0021429D01*
X0292363Y0024427D02*
X0192750Y0024427D01*
X0191253Y0027426D02*
X0293606Y0027426D01*
X0306000Y0072404D02*
X0181197Y0072404D01*
X0178198Y0075402D02*
X0306000Y0075402D01*
X0306000Y0078401D02*
X0175200Y0078401D01*
X0172201Y0081399D02*
X0306000Y0081399D01*
X0306000Y0084398D02*
X0218172Y0084398D01*
X0218250Y0087396D02*
X0306000Y0087396D01*
X0306000Y0090395D02*
X0218250Y0090395D01*
X0217783Y0093393D02*
X0306000Y0093393D01*
X0306000Y0096392D02*
X0217383Y0096392D01*
X0217750Y0098433D02*
X0212000Y0098433D01*
X0212000Y0098433D01*
X0210700Y0097633D01*
X0160600Y0097633D01*
X0161409Y0096392D02*
X0206617Y0096392D01*
X0206250Y0098433D02*
X0212000Y0098433D01*
X0211900Y0098533D01*
X0211900Y0106633D01*
X0213100Y0107533D01*
X0238600Y0107533D01*
X0239050Y0107983D01*
X0236000Y0117433D02*
X0236000Y0125433D01*
X0236200Y0125433D01*
X0290200Y0177433D01*
X0296000Y0177433D01*
X0295900Y0187333D02*
X0288400Y0187333D01*
X0226000Y0129433D01*
X0198000Y0129433D01*
X0191200Y0120133D01*
X0191200Y0117433D01*
X0191000Y0117433D01*
X0201000Y0117433D02*
X0201100Y0117433D01*
X0211900Y0106633D01*
X0212000Y0104183D02*
X0211547Y0104183D01*
X0210654Y0104042D01*
X0209793Y0103762D01*
X0208986Y0103351D01*
X0208254Y0102819D01*
X0207614Y0102179D01*
X0207082Y0101447D01*
X0206671Y0100641D01*
X0206392Y0099780D01*
X0206250Y0098886D01*
X0206250Y0098433D01*
X0206330Y0099390D02*
X0196876Y0099390D01*
X0198600Y0102389D02*
X0207824Y0102389D01*
X0212000Y0102389D02*
X0212000Y0102389D01*
X0212000Y0104183D02*
X0212000Y0098433D01*
X0212000Y0098433D01*
X0212000Y0104183D01*
X0212453Y0104183D01*
X0213346Y0104042D01*
X0214207Y0103762D01*
X0215014Y0103351D01*
X0215746Y0102819D01*
X0216386Y0102179D01*
X0216918Y0101447D01*
X0217329Y0100641D01*
X0217608Y0099780D01*
X0217750Y0098886D01*
X0217750Y0098433D01*
X0217670Y0099390D02*
X0306000Y0099390D01*
X0306000Y0102389D02*
X0216176Y0102389D01*
X0212000Y0099390D02*
X0212000Y0099390D01*
X0206217Y0093393D02*
X0164407Y0093393D01*
X0166876Y0099390D02*
X0169124Y0099390D01*
X0176876Y0099390D02*
X0179124Y0099390D01*
X0186876Y0099390D02*
X0189124Y0099390D01*
X0198600Y0105387D02*
X0306000Y0105387D01*
X0306000Y0108386D02*
X0264952Y0108386D01*
X0267951Y0111384D02*
X0306000Y0111384D01*
X0306000Y0114383D02*
X0270949Y0114383D01*
X0273948Y0117381D02*
X0306000Y0117381D01*
X0306000Y0120380D02*
X0276946Y0120380D01*
X0279945Y0123378D02*
X0306000Y0123378D01*
X0306000Y0126377D02*
X0281000Y0126377D01*
X0281000Y0129375D02*
X0306000Y0129375D01*
X0306000Y0132374D02*
X0293718Y0132374D01*
X0294027Y0132599D02*
X0294732Y0133304D01*
X0295319Y0134111D01*
X0295772Y0135000D01*
X0296080Y0135949D01*
X0296236Y0136934D01*
X0296236Y0137433D01*
X0289898Y0137433D01*
X0289898Y0137433D01*
X0289898Y0131095D01*
X0290396Y0131095D01*
X0291382Y0131251D01*
X0292331Y0131559D01*
X0293220Y0132012D01*
X0294027Y0132599D01*
X0295893Y0135372D02*
X0306000Y0135372D01*
X0306000Y0138371D02*
X0296167Y0138371D01*
X0296236Y0137932D02*
X0296080Y0138918D01*
X0295772Y0139866D01*
X0295319Y0140755D01*
X0294732Y0141563D01*
X0294027Y0142268D01*
X0293220Y0142855D01*
X0292331Y0143308D01*
X0291382Y0143616D01*
X0290396Y0143772D01*
X0289898Y0143772D01*
X0289898Y0137433D01*
X0289898Y0137433D01*
X0296236Y0137433D01*
X0296236Y0137932D01*
X0294873Y0141369D02*
X0306000Y0141369D01*
X0306000Y0144368D02*
X0281000Y0144368D01*
X0285063Y0141563D02*
X0285768Y0142268D01*
X0286575Y0142855D01*
X0287464Y0143308D01*
X0288413Y0143616D01*
X0289399Y0143772D01*
X0289898Y0143772D01*
X0289898Y0137433D01*
X0289898Y0131095D01*
X0289399Y0131095D01*
X0288413Y0131251D01*
X0287464Y0131559D01*
X0286575Y0132012D01*
X0285768Y0132599D01*
X0285063Y0133304D01*
X0284476Y0134111D01*
X0284023Y0135000D01*
X0283715Y0135949D01*
X0283559Y0136934D01*
X0283559Y0137433D01*
X0289898Y0137433D01*
X0289600Y0137233D01*
X0276700Y0137233D01*
X0257500Y0118033D01*
X0247300Y0118033D01*
X0222000Y0140433D02*
X0284300Y0197233D01*
X0295900Y0197233D01*
X0296000Y0197433D01*
X0296000Y0187433D02*
X0295900Y0187333D01*
X0289898Y0141369D02*
X0289898Y0141369D01*
X0289898Y0138371D02*
X0289898Y0138371D01*
X0289898Y0137433D02*
X0289898Y0137433D01*
X0289898Y0137433D01*
X0283559Y0137433D01*
X0283559Y0137932D01*
X0283715Y0138918D01*
X0284023Y0139866D01*
X0284476Y0140755D01*
X0285063Y0141563D01*
X0284922Y0141369D02*
X0281000Y0141369D01*
X0281000Y0138371D02*
X0283629Y0138371D01*
X0283903Y0135372D02*
X0281000Y0135372D01*
X0281000Y0132374D02*
X0286078Y0132374D01*
X0289898Y0132374D02*
X0289898Y0132374D01*
X0289898Y0135372D02*
X0289898Y0135372D01*
X0222000Y0140433D02*
X0166000Y0140433D01*
X0146200Y0120133D01*
X0146200Y0117433D01*
X0146000Y0117433D01*
X0152600Y0105387D02*
X0157400Y0105387D01*
X0157400Y0102389D02*
X0155412Y0102389D01*
X0158410Y0099390D02*
X0159124Y0099390D01*
X0169203Y0084398D02*
X0205828Y0084398D01*
X0176826Y0059340D02*
X0181202Y0054964D01*
X0182131Y0054036D01*
X0182800Y0053758D01*
X0182800Y0029114D01*
X0182176Y0028856D01*
X0180646Y0027326D01*
X0180072Y0027901D01*
X0179276Y0028479D01*
X0178399Y0028925D01*
X0177464Y0029229D01*
X0176492Y0029383D01*
X0176000Y0029383D01*
X0176000Y0023133D01*
X0176000Y0016883D01*
X0176492Y0016883D01*
X0177464Y0017037D01*
X0178399Y0017341D01*
X0179276Y0017788D01*
X0180072Y0018366D01*
X0180646Y0018941D01*
X0182176Y0017411D01*
X0184537Y0016433D01*
X0170467Y0016433D01*
X0171449Y0016840D01*
X0172293Y0017684D01*
X0172426Y0018005D01*
X0172724Y0017788D01*
X0173601Y0017341D01*
X0174536Y0017037D01*
X0175508Y0016883D01*
X0176000Y0016883D01*
X0176000Y0023133D01*
X0176000Y0023133D01*
X0175900Y0023233D01*
X0175900Y0025033D01*
X0164200Y0036733D01*
X0132400Y0036733D01*
X0131000Y0037433D01*
X0124800Y0037433D01*
X0121000Y0037433D01*
X0121000Y0034133D01*
X0121000Y0037433D01*
X0121000Y0037433D01*
X0121000Y0037433D01*
X0121000Y0037333D01*
X0130900Y0037333D01*
X0131000Y0037433D01*
X0131000Y0037433D01*
X0131000Y0037433D01*
X0137200Y0037433D01*
X0137200Y0036945D01*
X0137047Y0035981D01*
X0136746Y0035053D01*
X0136303Y0034184D01*
X0135729Y0033394D01*
X0135122Y0032787D01*
X0136680Y0031229D01*
X0137700Y0028766D01*
X0137700Y0026101D01*
X0136680Y0023638D01*
X0134795Y0021753D01*
X0132333Y0020733D01*
X0129667Y0020733D01*
X0127205Y0021753D01*
X0126000Y0022958D01*
X0124795Y0021753D01*
X0122333Y0020733D01*
X0119667Y0020733D01*
X0117205Y0021753D01*
X0116000Y0022958D01*
X0114795Y0021753D01*
X0112333Y0020733D01*
X0109667Y0020733D01*
X0107205Y0021753D01*
X0106000Y0022958D01*
X0104795Y0021753D01*
X0102333Y0020733D01*
X0099667Y0020733D01*
X0097205Y0021753D01*
X0096000Y0022958D01*
X0094795Y0021753D01*
X0092333Y0020733D01*
X0089667Y0020733D01*
X0087205Y0021753D01*
X0085320Y0023638D01*
X0084300Y0026101D01*
X0084300Y0028766D01*
X0085320Y0031229D01*
X0086525Y0032433D01*
X0085320Y0033638D01*
X0084300Y0036101D01*
X0084300Y0036466D01*
X0064998Y0017164D01*
X0064267Y0016433D01*
X0161533Y0016433D01*
X0160551Y0016840D01*
X0159707Y0017684D01*
X0159250Y0018787D01*
X0159250Y0027480D01*
X0159707Y0028583D01*
X0160551Y0029427D01*
X0161653Y0029883D01*
X0170347Y0029883D01*
X0171449Y0029427D01*
X0172293Y0028583D01*
X0172426Y0028262D01*
X0172724Y0028479D01*
X0173601Y0028925D01*
X0174536Y0029229D01*
X0175508Y0029383D01*
X0176000Y0029383D01*
X0176000Y0023133D01*
X0176000Y0023133D01*
X0176000Y0024427D02*
X0176000Y0024427D01*
X0176000Y0021429D02*
X0176000Y0021429D01*
X0176000Y0018430D02*
X0176000Y0018430D01*
X0180136Y0018430D02*
X0181157Y0018430D01*
X0180747Y0027426D02*
X0180546Y0027426D01*
X0182800Y0030424D02*
X0137013Y0030424D01*
X0137700Y0027426D02*
X0159250Y0027426D01*
X0159250Y0024427D02*
X0137007Y0024427D01*
X0134012Y0021429D02*
X0159250Y0021429D01*
X0159398Y0018430D02*
X0066264Y0018430D01*
X0069262Y0021429D02*
X0087988Y0021429D01*
X0084993Y0024427D02*
X0072261Y0024427D01*
X0075259Y0027426D02*
X0084300Y0027426D01*
X0084987Y0030424D02*
X0078258Y0030424D01*
X0081256Y0033423D02*
X0085535Y0033423D01*
X0084300Y0036421D02*
X0084255Y0036421D01*
X0079879Y0041873D02*
X0078335Y0041233D01*
X0076665Y0041233D01*
X0075121Y0041873D01*
X0073939Y0043054D01*
X0073300Y0044598D01*
X0073300Y0044894D01*
X0072679Y0044273D01*
X0071135Y0043633D01*
X0069465Y0043633D01*
X0068052Y0044218D01*
X0062735Y0038901D01*
X0065800Y0035836D01*
X0065800Y0033433D01*
X0060000Y0033433D01*
X0060000Y0033433D01*
X0071500Y0033433D01*
X0091600Y0053533D01*
X0091900Y0053590D02*
X0091900Y0053400D01*
X0065421Y0026922D01*
X0063556Y0028787D01*
X0065800Y0031031D01*
X0065800Y0033433D01*
X0060000Y0033433D01*
X0065800Y0033423D02*
X0071923Y0033423D01*
X0074921Y0036421D02*
X0065214Y0036421D01*
X0063253Y0039420D02*
X0077920Y0039420D01*
X0079879Y0041873D02*
X0081061Y0043054D01*
X0081700Y0044598D01*
X0081700Y0046269D01*
X0081061Y0047812D01*
X0080800Y0048073D01*
X0080800Y0055766D01*
X0081400Y0056366D01*
X0081400Y0055114D01*
X0084680Y0051833D01*
X0089320Y0051833D01*
X0092600Y0055114D01*
X0092600Y0059753D01*
X0089320Y0063033D01*
X0088067Y0063033D01*
X0093769Y0068736D01*
X0094698Y0069664D01*
X0095200Y0070877D01*
X0095200Y0096190D01*
X0094698Y0097403D01*
X0092600Y0099500D01*
X0092600Y0102753D01*
X0089320Y0106033D01*
X0086800Y0106033D01*
X0086800Y0108190D01*
X0086298Y0109403D01*
X0085369Y0110331D01*
X0084867Y0110833D01*
X0112733Y0110833D01*
X0130802Y0092764D01*
X0131731Y0091836D01*
X0132944Y0091333D01*
X0133980Y0091333D01*
X0132180Y0089533D01*
X0127844Y0089533D01*
X0126631Y0089031D01*
X0093331Y0055731D01*
X0092402Y0054803D01*
X0091900Y0053590D01*
X0091899Y0054412D02*
X0092241Y0054412D01*
X0092600Y0057411D02*
X0095011Y0057411D01*
X0098009Y0060410D02*
X0091943Y0060410D01*
X0088442Y0063408D02*
X0101008Y0063408D01*
X0104006Y0066407D02*
X0091440Y0066407D01*
X0094439Y0069405D02*
X0107005Y0069405D01*
X0110003Y0072404D02*
X0095200Y0072404D01*
X0095200Y0075402D02*
X0113002Y0075402D01*
X0116000Y0078401D02*
X0095200Y0078401D01*
X0095200Y0081399D02*
X0118999Y0081399D01*
X0121997Y0084398D02*
X0095200Y0084398D01*
X0095200Y0087396D02*
X0124996Y0087396D01*
X0133042Y0090395D02*
X0095200Y0090395D01*
X0095200Y0093393D02*
X0130173Y0093393D01*
X0127175Y0096392D02*
X0095116Y0096392D01*
X0092710Y0099390D02*
X0124176Y0099390D01*
X0121178Y0102389D02*
X0092600Y0102389D01*
X0089966Y0105387D02*
X0118179Y0105387D01*
X0115181Y0108386D02*
X0086719Y0108386D01*
X0077700Y0101933D02*
X0077500Y0101833D01*
X0077500Y0072133D01*
X0044200Y0038833D01*
X0044200Y0035533D01*
X0044000Y0035433D01*
X0044000Y0030333D01*
X0044000Y0025433D01*
X0044000Y0025433D01*
X0051700Y0025433D01*
X0051700Y0025032D01*
X0051574Y0024239D01*
X0051326Y0023476D01*
X0050962Y0022760D01*
X0050652Y0022333D01*
X0053700Y0022333D01*
X0053700Y0024966D01*
X0051902Y0026764D01*
X0051400Y0027977D01*
X0051400Y0033702D01*
X0051326Y0033476D01*
X0050962Y0032760D01*
X0050490Y0032111D01*
X0049922Y0031543D01*
X0049273Y0031071D01*
X0048558Y0030707D01*
X0047794Y0030459D01*
X0047633Y0030433D01*
X0047794Y0030408D01*
X0048558Y0030160D01*
X0049273Y0029795D01*
X0049922Y0029323D01*
X0050490Y0028756D01*
X0050962Y0028106D01*
X0051326Y0027391D01*
X0051574Y0026628D01*
X0051700Y0025835D01*
X0051700Y0025433D01*
X0044000Y0025433D01*
X0044200Y0025633D01*
X0044200Y0034033D01*
X0044000Y0035433D01*
X0044000Y0035433D01*
X0044000Y0025433D01*
X0044000Y0025433D01*
X0044000Y0027426D02*
X0044000Y0027426D01*
X0044000Y0030424D02*
X0044000Y0030424D01*
X0040367Y0030433D02*
X0040206Y0030408D01*
X0039442Y0030160D01*
X0038727Y0029795D01*
X0038078Y0029323D01*
X0037510Y0028756D01*
X0037062Y0028139D01*
X0023500Y0041700D01*
X0023500Y0088990D01*
X0022998Y0090203D01*
X0021521Y0091679D01*
X0022200Y0093319D01*
X0022200Y0095547D01*
X0021347Y0097605D01*
X0019772Y0099181D01*
X0019162Y0099433D01*
X0019772Y0099686D01*
X0021347Y0101261D01*
X0022200Y0103319D01*
X0022200Y0105547D01*
X0021347Y0107605D01*
X0019772Y0109181D01*
X0019162Y0109433D01*
X0019772Y0109686D01*
X0021347Y0111261D01*
X0022200Y0113319D01*
X0022200Y0115547D01*
X0021347Y0117605D01*
X0019772Y0119181D01*
X0019519Y0119286D01*
X0023867Y0123633D01*
X0025900Y0123633D01*
X0025900Y0098477D01*
X0026402Y0097264D01*
X0027331Y0096336D01*
X0036479Y0087187D01*
X0035800Y0085547D01*
X0035800Y0083319D01*
X0036653Y0081261D01*
X0038228Y0079686D01*
X0038838Y0079433D01*
X0038228Y0079181D01*
X0036653Y0077605D01*
X0035800Y0075547D01*
X0035800Y0073319D01*
X0036653Y0071261D01*
X0038228Y0069686D01*
X0038838Y0069433D01*
X0038228Y0069181D01*
X0036653Y0067605D01*
X0035800Y0065547D01*
X0035800Y0063319D01*
X0036653Y0061261D01*
X0038228Y0059686D01*
X0038838Y0059433D01*
X0038228Y0059181D01*
X0036653Y0057605D01*
X0035800Y0055547D01*
X0035800Y0053319D01*
X0036653Y0051261D01*
X0038228Y0049686D01*
X0040286Y0048833D01*
X0047714Y0048833D01*
X0049772Y0049686D01*
X0051347Y0051261D01*
X0052200Y0053319D01*
X0052200Y0055547D01*
X0051347Y0057605D01*
X0049772Y0059181D01*
X0049162Y0059433D01*
X0049772Y0059686D01*
X0051347Y0061261D01*
X0052200Y0063319D01*
X0052200Y0065547D01*
X0051347Y0067605D01*
X0051322Y0067630D01*
X0055503Y0072270D01*
X0055912Y0072686D01*
X0055940Y0072756D01*
X0055991Y0072812D01*
X0056186Y0073362D01*
X0056405Y0073902D01*
X0056404Y0073978D01*
X0056430Y0074049D01*
X0056399Y0074632D01*
X0056311Y0086074D01*
X0065786Y0094601D01*
X0065869Y0094636D01*
X0066272Y0095038D01*
X0066695Y0095420D01*
X0066734Y0095501D01*
X0066798Y0095564D01*
X0067016Y0096090D01*
X0067261Y0096604D01*
X0067266Y0096694D01*
X0067300Y0096777D01*
X0067300Y0097347D01*
X0067330Y0097915D01*
X0067300Y0098000D01*
X0067300Y0110084D01*
X0069400Y0112224D01*
X0069400Y0109877D01*
X0069902Y0108664D01*
X0070800Y0107766D01*
X0070800Y0105287D01*
X0071257Y0104184D01*
X0071493Y0103947D01*
X0071396Y0103713D01*
X0071300Y0103230D01*
X0071300Y0101933D01*
X0071300Y0100637D01*
X0071396Y0100154D01*
X0071585Y0099699D01*
X0071858Y0099290D01*
X0072206Y0098941D01*
X0072616Y0098668D01*
X0073071Y0098479D01*
X0073554Y0098383D01*
X0077700Y0098383D01*
X0080200Y0098383D01*
X0080200Y0094277D01*
X0080702Y0093064D01*
X0083207Y0090560D01*
X0081400Y0088753D01*
X0081400Y0084114D01*
X0083500Y0082014D01*
X0083500Y0078000D01*
X0066931Y0061431D01*
X0066002Y0060503D01*
X0065500Y0059290D01*
X0065500Y0051000D01*
X0052831Y0038331D01*
X0051902Y0037403D01*
X0051576Y0036615D01*
X0051574Y0036628D01*
X0051326Y0037391D01*
X0050962Y0038106D01*
X0050490Y0038756D01*
X0049922Y0039323D01*
X0049273Y0039795D01*
X0048558Y0040160D01*
X0047794Y0040408D01*
X0047001Y0040533D01*
X0044000Y0040533D01*
X0040999Y0040533D01*
X0040206Y0040408D01*
X0039442Y0040160D01*
X0038727Y0039795D01*
X0038078Y0039323D01*
X0037510Y0038756D01*
X0037038Y0038106D01*
X0036674Y0037391D01*
X0036426Y0036628D01*
X0036300Y0035835D01*
X0036300Y0035433D01*
X0036300Y0035032D01*
X0036426Y0034239D01*
X0036674Y0033476D01*
X0037038Y0032760D01*
X0037510Y0032111D01*
X0038078Y0031543D01*
X0038727Y0031071D01*
X0039442Y0030707D01*
X0040206Y0030459D01*
X0040367Y0030433D01*
X0040311Y0030424D02*
X0034776Y0030424D01*
X0036700Y0033423D02*
X0031777Y0033423D01*
X0028779Y0036421D02*
X0036393Y0036421D01*
X0036300Y0035433D02*
X0044000Y0035433D01*
X0036300Y0035433D01*
X0038210Y0039420D02*
X0025780Y0039420D01*
X0023500Y0042418D02*
X0056918Y0042418D01*
X0059917Y0045417D02*
X0023500Y0045417D01*
X0023500Y0048415D02*
X0062915Y0048415D01*
X0065500Y0051414D02*
X0051411Y0051414D01*
X0052200Y0054412D02*
X0065500Y0054412D01*
X0065500Y0057411D02*
X0051428Y0057411D01*
X0050496Y0060410D02*
X0065964Y0060410D01*
X0068908Y0063408D02*
X0052200Y0063408D01*
X0051844Y0066407D02*
X0071906Y0066407D01*
X0074905Y0069405D02*
X0052921Y0069405D01*
X0055634Y0072404D02*
X0077903Y0072404D01*
X0080902Y0075402D02*
X0056393Y0075402D01*
X0056370Y0078401D02*
X0058647Y0078401D01*
X0058373Y0078674D02*
X0060240Y0076807D01*
X0062680Y0075796D01*
X0065320Y0075796D01*
X0067760Y0076807D01*
X0069627Y0078674D01*
X0070637Y0081113D01*
X0070637Y0083754D01*
X0069627Y0086193D01*
X0067760Y0088060D01*
X0065320Y0089070D01*
X0062680Y0089070D01*
X0060240Y0088060D01*
X0058373Y0086193D01*
X0057363Y0083754D01*
X0057363Y0081113D01*
X0058373Y0078674D01*
X0057363Y0081399D02*
X0056347Y0081399D01*
X0056324Y0084398D02*
X0057630Y0084398D01*
X0057781Y0087396D02*
X0059577Y0087396D01*
X0061112Y0090395D02*
X0083042Y0090395D01*
X0080566Y0093393D02*
X0064444Y0093393D01*
X0067159Y0096392D02*
X0080200Y0096392D01*
X0077700Y0098383D02*
X0077700Y0101933D01*
X0077700Y0101933D01*
X0077700Y0098383D01*
X0077700Y0099390D02*
X0077700Y0099390D01*
X0077700Y0101933D02*
X0071300Y0101933D01*
X0077700Y0101933D01*
X0077700Y0101933D01*
X0071791Y0099390D02*
X0067300Y0099390D01*
X0067300Y0102389D02*
X0071300Y0102389D01*
X0070800Y0105387D02*
X0067300Y0105387D01*
X0067300Y0108386D02*
X0070181Y0108386D01*
X0069400Y0111384D02*
X0068576Y0111384D01*
X0060400Y0120983D02*
X0053803Y0120983D01*
X0052701Y0120527D01*
X0051857Y0119683D01*
X0051400Y0118580D01*
X0051400Y0116164D01*
X0051326Y0116391D01*
X0050962Y0117106D01*
X0050490Y0117756D01*
X0049922Y0118323D01*
X0049273Y0118795D01*
X0048558Y0119160D01*
X0047794Y0119408D01*
X0047001Y0119533D01*
X0044000Y0119533D01*
X0040999Y0119533D01*
X0040206Y0119408D01*
X0039442Y0119160D01*
X0038727Y0118795D01*
X0038078Y0118323D01*
X0037510Y0117756D01*
X0037038Y0117106D01*
X0036674Y0116391D01*
X0036426Y0115628D01*
X0036300Y0114835D01*
X0036300Y0114433D01*
X0036300Y0114032D01*
X0036426Y0113239D01*
X0036674Y0112476D01*
X0037038Y0111760D01*
X0037510Y0111111D01*
X0038078Y0110543D01*
X0038727Y0110071D01*
X0039442Y0109707D01*
X0039474Y0109697D01*
X0038228Y0109181D01*
X0036653Y0107605D01*
X0036343Y0106857D01*
X0033700Y0109500D01*
X0033700Y0124133D01*
X0035000Y0124133D01*
X0037195Y0124133D01*
X0040300Y0127238D01*
X0040300Y0129433D01*
X0035000Y0129433D01*
X0035000Y0124133D01*
X0035000Y0129433D01*
X0035000Y0129433D01*
X0035000Y0129433D01*
X0035200Y0129433D01*
X0043900Y0120733D01*
X0043900Y0114433D01*
X0044000Y0114433D01*
X0036300Y0114433D01*
X0044000Y0114433D01*
X0044000Y0114433D01*
X0044000Y0119533D01*
X0044000Y0114433D01*
X0044000Y0114433D01*
X0044000Y0117381D02*
X0044000Y0117381D01*
X0045240Y0121807D02*
X0047680Y0120796D01*
X0050320Y0120796D01*
X0052760Y0121807D01*
X0054627Y0123674D01*
X0055637Y0126113D01*
X0055637Y0128754D01*
X0054627Y0131193D01*
X0052760Y0133060D01*
X0050320Y0134070D01*
X0047680Y0134070D01*
X0045240Y0133060D01*
X0043373Y0131193D01*
X0042363Y0128754D01*
X0042363Y0126113D01*
X0043373Y0123674D01*
X0045240Y0121807D01*
X0043669Y0123378D02*
X0033700Y0123378D01*
X0035000Y0126377D02*
X0035000Y0126377D01*
X0035000Y0129375D02*
X0035000Y0129375D01*
X0035000Y0129433D02*
X0040300Y0129433D01*
X0040300Y0131629D01*
X0037731Y0134198D01*
X0041967Y0138433D01*
X0097600Y0138433D01*
X0097600Y0134236D01*
X0095200Y0131836D01*
X0095200Y0128400D01*
X0094733Y0127933D01*
X0078300Y0127933D01*
X0078300Y0129433D01*
X0073000Y0129433D01*
X0073000Y0129433D01*
X0078300Y0129433D01*
X0078300Y0131629D01*
X0075195Y0134733D01*
X0073000Y0134733D01*
X0070805Y0134733D01*
X0068354Y0132282D01*
X0065402Y0135233D01*
X0060598Y0135233D01*
X0057200Y0131836D01*
X0057200Y0127031D01*
X0060400Y0123831D01*
X0060400Y0120983D01*
X0060400Y0123378D02*
X0054331Y0123378D01*
X0055637Y0126377D02*
X0057854Y0126377D01*
X0057200Y0129375D02*
X0055379Y0129375D01*
X0053446Y0132374D02*
X0057738Y0132374D01*
X0068262Y0132374D02*
X0068445Y0132374D01*
X0073000Y0132374D02*
X0073000Y0132374D01*
X0073000Y0134733D02*
X0073000Y0129433D01*
X0073000Y0129433D01*
X0073000Y0134733D01*
X0077555Y0132374D02*
X0095738Y0132374D01*
X0095200Y0129375D02*
X0078300Y0129375D01*
X0097600Y0135372D02*
X0038906Y0135372D01*
X0039555Y0132374D02*
X0044554Y0132374D01*
X0042621Y0129375D02*
X0040300Y0129375D01*
X0039439Y0126377D02*
X0042363Y0126377D01*
X0033700Y0120380D02*
X0052554Y0120380D01*
X0051400Y0117381D02*
X0050762Y0117381D01*
X0037238Y0117381D02*
X0033700Y0117381D01*
X0033700Y0114383D02*
X0036300Y0114383D01*
X0037311Y0111384D02*
X0033700Y0111384D01*
X0034815Y0108386D02*
X0037433Y0108386D01*
X0025900Y0108386D02*
X0020567Y0108386D01*
X0021398Y0111384D02*
X0025900Y0111384D01*
X0025900Y0114383D02*
X0022200Y0114383D01*
X0021440Y0117381D02*
X0025900Y0117381D01*
X0025900Y0120380D02*
X0020613Y0120380D01*
X0023612Y0123378D02*
X0025900Y0123378D01*
X0041904Y0138371D02*
X0097600Y0138371D01*
X0104200Y0137233D02*
X0104200Y0134436D01*
X0106354Y0132282D01*
X0108805Y0134733D01*
X0111000Y0134733D01*
X0111000Y0129433D01*
X0111000Y0129433D01*
X0116300Y0129433D01*
X0116300Y0127238D01*
X0113195Y0124133D01*
X0111167Y0124133D01*
X0120000Y0115300D01*
X0120000Y0138433D01*
X0106540Y0138433D01*
X0105979Y0137873D01*
X0104435Y0137233D01*
X0104200Y0137233D01*
X0104200Y0135372D02*
X0120000Y0135372D01*
X0120000Y0132374D02*
X0115555Y0132374D01*
X0116300Y0131629D02*
X0113195Y0134733D01*
X0111000Y0134733D01*
X0111000Y0129433D01*
X0111100Y0129433D01*
X0115000Y0133333D01*
X0115000Y0151633D01*
X0115016Y0151843D01*
X0113800Y0152533D01*
X0112000Y0152533D01*
X0109000Y0155533D01*
X0109000Y0189433D01*
X0112900Y0193333D01*
X0115016Y0193181D01*
X0115000Y0193333D01*
X0109300Y0199033D01*
X0106900Y0199033D01*
X0106866Y0199087D01*
X0106477Y0138371D02*
X0120000Y0138371D01*
X0116300Y0131629D02*
X0116300Y0129433D01*
X0111000Y0129433D01*
X0111000Y0129433D01*
X0111000Y0132374D02*
X0111000Y0132374D01*
X0116300Y0129375D02*
X0120000Y0129375D01*
X0120000Y0126377D02*
X0115439Y0126377D01*
X0111922Y0123378D02*
X0120000Y0123378D01*
X0120000Y0120380D02*
X0114920Y0120380D01*
X0117919Y0117381D02*
X0120000Y0117381D01*
X0106445Y0132374D02*
X0106262Y0132374D01*
X0081400Y0087396D02*
X0068423Y0087396D01*
X0070370Y0084398D02*
X0081400Y0084398D01*
X0083500Y0081399D02*
X0070637Y0081399D01*
X0069353Y0078401D02*
X0083500Y0078401D01*
X0082101Y0054412D02*
X0080800Y0054412D01*
X0080800Y0051414D02*
X0089914Y0051414D01*
X0086915Y0048415D02*
X0080800Y0048415D01*
X0081700Y0045417D02*
X0083917Y0045417D01*
X0080918Y0042418D02*
X0080425Y0042418D01*
X0074575Y0042418D02*
X0066252Y0042418D01*
X0053920Y0039420D02*
X0049790Y0039420D01*
X0044000Y0039420D02*
X0044000Y0039420D01*
X0044000Y0040533D02*
X0044000Y0035433D01*
X0044000Y0035433D01*
X0044000Y0035433D01*
X0044000Y0040533D01*
X0044000Y0036421D02*
X0044000Y0036421D01*
X0044000Y0033423D02*
X0044000Y0033423D01*
X0047689Y0030424D02*
X0051400Y0030424D01*
X0051309Y0027426D02*
X0051628Y0027426D01*
X0051604Y0024427D02*
X0053700Y0024427D01*
X0064917Y0027426D02*
X0065926Y0027426D01*
X0065193Y0030424D02*
X0068924Y0030424D01*
X0051400Y0033423D02*
X0051299Y0033423D01*
X0036589Y0051414D02*
X0023500Y0051414D01*
X0023500Y0054412D02*
X0035800Y0054412D01*
X0036572Y0057411D02*
X0023500Y0057411D01*
X0023500Y0060410D02*
X0037504Y0060410D01*
X0035800Y0063408D02*
X0023500Y0063408D01*
X0023500Y0066407D02*
X0036156Y0066407D01*
X0038769Y0069405D02*
X0023500Y0069405D01*
X0023500Y0072404D02*
X0036179Y0072404D01*
X0035800Y0075402D02*
X0023500Y0075402D01*
X0023500Y0078401D02*
X0037448Y0078401D01*
X0036595Y0081399D02*
X0023500Y0081399D01*
X0023500Y0084398D02*
X0035800Y0084398D01*
X0036270Y0087396D02*
X0023500Y0087396D01*
X0022806Y0090395D02*
X0033272Y0090395D01*
X0030273Y0093393D02*
X0022200Y0093393D01*
X0021850Y0096392D02*
X0027275Y0096392D01*
X0027331Y0096336D02*
X0027331Y0096336D01*
X0025900Y0099390D02*
X0019267Y0099390D01*
X0021814Y0102389D02*
X0025900Y0102389D01*
X0025900Y0105387D02*
X0022200Y0105387D01*
X0110340Y0044133D02*
X0110440Y0044233D01*
X0152856Y0044233D01*
X0154069Y0044736D01*
X0154998Y0045664D01*
X0168924Y0059590D01*
X0170680Y0057833D01*
X0175320Y0057833D01*
X0176826Y0059340D01*
X0178755Y0057411D02*
X0166745Y0057411D01*
X0163746Y0054412D02*
X0181754Y0054412D01*
X0182800Y0051414D02*
X0160748Y0051414D01*
X0157749Y0048415D02*
X0182800Y0048415D01*
X0182800Y0045417D02*
X0154751Y0045417D01*
X0136746Y0039813D02*
X0137047Y0038885D01*
X0137200Y0037921D01*
X0137200Y0037433D01*
X0131000Y0037433D01*
X0121000Y0037433D01*
X0121000Y0043633D01*
X0120512Y0043633D01*
X0119548Y0043481D01*
X0118620Y0043179D01*
X0117750Y0042736D01*
X0116961Y0042162D01*
X0116354Y0041555D01*
X0114795Y0043113D01*
X0112333Y0044133D01*
X0110340Y0044133D01*
X0115490Y0042418D02*
X0117313Y0042418D01*
X0121000Y0042418D02*
X0121000Y0042418D01*
X0121000Y0043633D02*
X0121000Y0037433D01*
X0121000Y0037433D01*
X0121000Y0036421D02*
X0121000Y0036421D01*
X0121000Y0034133D02*
X0121000Y0034133D01*
X0121000Y0039420D02*
X0121000Y0039420D01*
X0125039Y0042162D02*
X0125729Y0041472D01*
X0126000Y0041099D01*
X0126271Y0041472D01*
X0126961Y0042162D01*
X0127750Y0042736D01*
X0128620Y0043179D01*
X0129548Y0043481D01*
X0130512Y0043633D01*
X0131000Y0043633D01*
X0131000Y0037433D01*
X0131000Y0037433D01*
X0131000Y0043633D01*
X0131488Y0043633D01*
X0132452Y0043481D01*
X0133380Y0043179D01*
X0134250Y0042736D01*
X0135039Y0042162D01*
X0135729Y0041472D01*
X0136303Y0040683D01*
X0136746Y0039813D01*
X0136874Y0039420D02*
X0182800Y0039420D01*
X0182800Y0036421D02*
X0137117Y0036421D01*
X0135750Y0033423D02*
X0182800Y0033423D01*
X0176000Y0027426D02*
X0176000Y0027426D01*
X0182800Y0042418D02*
X0134687Y0042418D01*
X0131000Y0042418D02*
X0131000Y0042418D01*
X0127313Y0042418D02*
X0124687Y0042418D01*
X0125039Y0042162D02*
X0124250Y0042736D01*
X0123380Y0043179D01*
X0122452Y0043481D01*
X0121488Y0043633D01*
X0121000Y0043633D01*
X0131000Y0039420D02*
X0131000Y0039420D01*
X0127988Y0021429D02*
X0124012Y0021429D01*
X0117988Y0021429D02*
X0114012Y0021429D01*
X0107988Y0021429D02*
X0104012Y0021429D01*
X0097988Y0021429D02*
X0094012Y0021429D01*
D28*
X0091600Y0053533D03*
X0160600Y0097633D03*
D29*
X0154300Y0094633D02*
X0181600Y0067333D01*
X0200800Y0067333D01*
X0205600Y0062533D01*
X0205882Y0062433D01*
X0193000Y0063433D02*
X0186250Y0056683D01*
X0186100Y0056833D01*
X0184000Y0056833D01*
X0178900Y0061933D01*
X0178900Y0063133D01*
X0174700Y0067333D01*
X0136900Y0067333D01*
X0136900Y0060133D01*
X0104800Y0060133D01*
X0103000Y0058333D01*
X0103000Y0057433D01*
X0091000Y0045433D01*
X0091000Y0037433D01*
X0077500Y0045433D02*
X0077500Y0057133D01*
X0091900Y0071533D01*
X0091900Y0095533D01*
X0087000Y0100433D01*
X0083500Y0094933D02*
X0090700Y0087733D01*
X0090700Y0075133D01*
X0087400Y0071833D01*
X0087150Y0071833D01*
X0087100Y0071833D01*
X0087100Y0068533D01*
X0070300Y0051733D01*
X0070300Y0047833D01*
X0068800Y0049633D02*
X0054700Y0035533D01*
X0054700Y0028633D01*
X0059800Y0023533D01*
X0060000Y0023433D01*
X0062200Y0019033D02*
X0041500Y0019033D01*
X0020200Y0040333D01*
X0020200Y0088333D01*
X0014200Y0094333D01*
X0014000Y0094433D01*
X0013900Y0094633D01*
X0006100Y0102433D01*
X0006100Y0122833D01*
X0034300Y0151033D01*
X0046300Y0151033D01*
X0094300Y0199033D01*
X0094900Y0199033D01*
X0095055Y0199087D01*
X0096100Y0203233D02*
X0100000Y0199333D01*
X0100900Y0199333D01*
X0100961Y0199087D01*
X0096100Y0203233D02*
X0088000Y0203233D01*
X0086200Y0201433D01*
X0086200Y0196933D01*
X0041500Y0152233D01*
X0033700Y0152233D01*
X0004900Y0123433D01*
X0004900Y0034633D01*
X0013900Y0025633D01*
X0014000Y0025433D01*
X0062200Y0019033D02*
X0095200Y0052033D01*
X0095200Y0052933D01*
X0128500Y0086233D01*
X0136900Y0086233D01*
X0137000Y0086433D01*
X0133600Y0094633D02*
X0154300Y0094633D01*
X0148900Y0104233D02*
X0164500Y0088633D01*
X0211900Y0088633D01*
X0212000Y0088433D01*
X0183000Y0103433D02*
X0182800Y0103633D01*
X0178000Y0103633D01*
X0172600Y0109033D01*
X0143800Y0109033D01*
X0136000Y0116833D01*
X0136000Y0117433D01*
X0147000Y0104433D02*
X0147100Y0104233D01*
X0148900Y0104233D01*
X0147000Y0104433D02*
X0143200Y0100633D01*
X0137200Y0100633D01*
X0137000Y0100433D01*
X0136900Y0100633D01*
X0130000Y0100633D01*
X0101200Y0129433D01*
X0101000Y0129433D01*
X0100900Y0129433D01*
X0096100Y0124633D01*
X0063700Y0124633D01*
X0063700Y0115333D01*
X0060400Y0112033D01*
X0058300Y0112033D01*
X0058300Y0111933D01*
X0058300Y0106933D02*
X0046600Y0106933D01*
X0044200Y0104533D01*
X0044000Y0104433D01*
X0043900Y0094633D02*
X0030400Y0108133D01*
X0030400Y0131533D01*
X0041800Y0142933D01*
X0041800Y0145633D01*
X0041906Y0145780D01*
X0036000Y0145780D02*
X0035800Y0145633D01*
X0035800Y0138733D01*
X0029200Y0132133D01*
X0029200Y0099133D01*
X0043900Y0084433D01*
X0044000Y0084433D01*
X0053000Y0087533D02*
X0064000Y0097433D01*
X0064000Y0111433D01*
X0069300Y0116833D01*
X0077500Y0116833D01*
X0077700Y0116933D01*
X0073600Y0114133D02*
X0114100Y0114133D01*
X0133600Y0094633D01*
X0136900Y0071833D02*
X0137150Y0071833D01*
X0136900Y0071833D02*
X0136900Y0067333D01*
X0136900Y0060133D02*
X0136900Y0057433D01*
X0137000Y0057433D01*
X0152200Y0047533D02*
X0107800Y0047533D01*
X0105700Y0057433D02*
X0105700Y0036133D01*
X0109000Y0032833D01*
X0112300Y0032833D01*
X0117700Y0027433D01*
X0121000Y0027433D01*
X0152200Y0047533D02*
X0168100Y0063433D01*
X0173000Y0063433D01*
X0186100Y0056533D02*
X0186250Y0056683D01*
X0186100Y0056533D02*
X0186100Y0023233D01*
X0186000Y0023133D01*
X0086800Y0076633D02*
X0068800Y0058633D01*
X0068800Y0049633D01*
X0044000Y0064433D02*
X0053100Y0074533D01*
X0053000Y0087533D01*
X0044000Y0094433D02*
X0043900Y0094633D01*
X0014000Y0104433D02*
X0007300Y0111133D01*
X0007300Y0122233D01*
X0034900Y0149833D01*
X0090400Y0149833D01*
X0094300Y0145933D01*
X0094900Y0145933D01*
X0095055Y0145780D01*
X0100900Y0145633D02*
X0100961Y0145780D01*
X0100900Y0145633D02*
X0100900Y0129433D01*
X0103600Y0141433D02*
X0106600Y0144433D01*
X0106600Y0145633D01*
X0106866Y0145780D01*
X0063700Y0128833D02*
X0063700Y0124633D01*
X0063700Y0128833D02*
X0063100Y0129433D01*
X0063000Y0129433D01*
X0073600Y0114133D02*
X0072700Y0113233D01*
X0072700Y0110533D01*
X0076300Y0106933D01*
X0077700Y0106933D01*
X0077800Y0111733D02*
X0077700Y0111933D01*
X0077800Y0111733D02*
X0079300Y0111733D01*
X0083500Y0107533D01*
X0083500Y0094933D01*
X0087000Y0086433D02*
X0086800Y0086233D01*
X0086800Y0076633D01*
X0025000Y0129433D02*
X0014200Y0118633D01*
X0014200Y0114433D01*
X0014000Y0114433D01*
D30*
X0103600Y0141433D03*
X0105700Y0057433D03*
X0107800Y0047533D03*
X0077500Y0045433D03*
X0070300Y0047833D03*
M02*
